<svg version="1.1" id="Layer_1" xmlns="http://www.w3.org/2000/svg" xmlns:xlink="http://www.w3.org/1999/xlink" x="0px" y="0px"
	 width="100%" viewBox="0 0 632 571" enable-background="new 0 0 632 571" xml:space="preserve">
<path fill="#FFFFFF" opacity="1.000000" stroke="none" 
	d="
M364.000000,572.000000 
	C242.666672,572.000000 121.833336,572.000000 1.000000,572.000000 
	C1.000000,381.666656 1.000000,191.333328 1.000000,1.000000 
	C211.666672,1.000000 422.333344,1.000000 633.000000,1.000000 
	C633.000000,191.333328 633.000000,381.666656 633.000000,572.000000 
	C543.500000,572.000000 454.000000,572.000000 364.000000,572.000000 
M73.299973,139.070709 
	C70.202187,140.276138 70.756149,142.455704 71.891113,144.675964 
	C73.300743,147.433548 75.403770,147.772339 78.665604,146.070877 
	C81.066177,144.925873 83.466751,143.780869 86.442360,143.059036 
	C88.043968,144.959488 89.404701,147.154465 91.295746,148.700989 
	C95.649071,152.261246 97.825562,156.786240 98.946396,162.204468 
	C100.760452,170.973755 103.105446,179.631943 105.010056,188.384094 
	C108.046371,202.336792 112.381348,215.638458 122.271500,226.495743 
	C124.369110,228.798492 126.880997,231.256897 127.720085,234.083496 
	C132.032272,248.609604 140.517822,259.053009 155.125305,264.013794 
	C158.072327,265.014587 159.097198,266.927063 159.039032,270.064240 
	C158.869278,279.219238 158.551910,288.410614 159.179596,297.526642 
	C159.558578,303.030823 161.587875,308.421387 162.267563,314.357697 
	C163.427444,323.885254 164.587326,333.412811 165.009018,343.032867 
	C145.984482,348.650085 126.959946,354.267334 107.165222,359.806335 
	C99.561386,361.840271 97.447273,364.171783 99.021713,371.727448 
	C100.061226,376.716095 103.031166,381.302429 104.845436,386.652802 
	C104.249519,387.785828 103.653595,388.918854 102.271851,390.042419 
	C93.886597,391.682007 86.632561,395.251526 81.272408,402.163452 
	C77.490234,407.040588 76.777954,412.459198 78.822166,418.082245 
	C81.077812,424.286804 83.929626,430.272552 86.262833,436.451416 
	C90.205627,446.892853 94.764252,456.829102 102.523331,465.227509 
	C109.308380,472.571655 114.060745,481.351105 116.289452,491.287964 
	C110.542641,494.110718 104.834747,497.017212 99.030251,499.715881 
	C96.637474,500.828339 93.912331,501.242554 91.554817,502.411041 
	C84.823868,505.747253 84.648956,509.178070 90.841171,513.594727 
	C92.191177,514.557617 93.617310,515.432617 95.078178,516.218384 
	C110.926750,524.742798 128.357544,522.985962 145.346405,523.569519 
	C150.441772,523.744446 153.586670,519.176270 151.893143,513.970520 
	C149.672623,507.144806 145.961823,500.803925 142.881836,493.534302 
	C140.910400,491.683990 138.938980,489.833679 136.897110,487.268951 
	C130.685852,476.218323 127.048050,464.397003 125.297005,451.818359 
	C124.216652,444.057648 121.922752,436.465881 120.840836,428.980133 
	C122.612503,430.446167 124.297600,433.047089 126.170204,433.189972 
	C136.594437,433.985107 147.028320,434.257904 156.759003,429.074127 
	C159.237656,427.753723 162.258591,427.451233 165.430420,427.161652 
	C166.004166,427.423126 166.577896,427.684601 167.123199,428.741791 
	C168.251465,432.525482 169.191437,436.378113 170.545975,440.078979 
	C173.652405,448.566467 178.606873,456.498535 177.545441,466.466125 
	C171.693069,470.006378 165.763474,473.154175 158.609161,473.337341 
	C156.983536,473.378967 154.269104,475.049622 154.080002,476.281281 
	C153.822067,477.961121 155.012939,480.675934 156.455811,481.639465 
	C159.699234,483.805359 163.453201,485.226807 167.050217,486.837708 
	C170.923294,488.572235 175.580505,489.356110 178.596527,492.023590 
	C183.597733,496.446869 188.923538,497.681519 195.121201,496.867126 
	C202.040344,495.958008 204.210587,492.604187 202.738083,485.845215 
	C202.041504,482.647888 201.980240,479.317108 201.445587,476.077454 
	C201.162750,474.363678 200.482162,472.715515 199.989227,470.349274 
	C199.352158,469.705261 198.813263,468.893524 198.057983,468.451355 
	C196.371353,467.463928 194.576797,466.660797 192.901123,464.898987 
	C192.275726,454.546539 191.650314,444.194122 191.817703,433.858643 
	C196.544724,434.690399 201.463287,437.477356 206.283737,432.303345 
	C210.345810,430.120941 214.259750,427.575317 218.505676,425.843719 
	C224.437820,423.424500 227.146347,419.215515 227.738052,412.392731 
	C227.615158,410.514130 227.492264,408.635498 227.678497,406.095245 
	C228.469421,404.643463 229.225662,403.171539 230.056641,401.743073 
	C238.127762,387.868866 238.118469,373.822205 231.060989,358.787354 
	C230.834167,356.475677 230.547775,354.168030 230.389984,351.851654 
	C229.147888,333.618011 227.945801,315.402374 233.967682,297.622650 
	C235.771210,292.297699 237.074661,286.803345 238.928360,280.894562 
	C242.502472,272.570831 245.747482,264.084869 249.746521,255.970566 
	C253.481552,248.391983 258.664246,241.312729 257.922607,232.372147 
	C257.361603,225.609573 259.371490,219.680054 262.074951,213.759583 
	C262.961975,211.817017 263.557129,209.737778 264.238434,207.705185 
	C269.651672,191.555389 268.078705,174.984528 267.426331,158.429428 
	C267.315277,155.611389 268.987915,152.723053 269.819366,149.924820 
	C269.324402,148.107849 268.222687,145.793152 268.138824,143.442154 
	C267.849762,135.334930 266.704315,133.625595 258.853088,131.859207 
	C256.622040,131.357239 254.277756,131.358688 251.412766,130.743607 
	C247.997681,127.518288 245.486557,123.329468 239.825333,123.027275 
	C224.932190,122.232307 210.061783,121.011627 195.053864,119.228004 
	C193.778122,118.188538 192.458694,117.197319 191.240112,116.094696 
	C190.221329,115.172859 189.320480,114.120674 188.701904,112.413315 
	C187.913696,107.487816 187.130539,102.561493 186.334259,97.637299 
	C186.088654,96.118454 185.056549,94.118660 185.669998,93.172440 
	C188.607864,88.640900 186.365265,85.760063 183.080093,82.055634 
	C182.052979,64.661232 181.063858,47.264339 179.922211,29.877457 
	C179.836502,28.572201 178.661789,27.338449 177.993317,26.071457 
	C177.399017,27.491074 176.206268,28.952082 176.301147,30.324034 
	C177.514465,47.866974 178.912155,65.397163 180.061539,83.690170 
	C180.053528,86.145241 179.237869,89.003067 180.216782,90.965965 
	C181.908646,94.358521 181.363083,97.220596 180.258194,100.409996 
	C179.722504,101.956322 179.318146,103.696533 179.454971,105.297653 
	C179.773438,109.024132 179.671249,113.208656 184.935516,114.719788 
	C183.579727,116.096153 182.223923,117.472519 179.962158,119.007256 
	C168.029999,118.480675 156.102356,117.772835 144.164490,117.474739 
	C130.153046,117.124870 115.827324,114.876335 102.053421,122.967636 
	C96.617722,124.199768 91.097412,125.153313 85.778152,126.768814 
	C82.603081,127.733116 80.471466,130.196121 80.540329,134.424088 
	C78.374428,135.949066 76.208534,137.474045 73.299973,139.070709 
M396.981537,290.097992 
	C393.942993,292.076996 394.331268,294.605682 396.433014,296.748871 
	C397.895111,298.239716 400.010132,300.432739 402.649292,296.804504 
	C405.069214,295.067596 407.489105,293.330658 410.587585,291.845123 
	C413.746826,294.919220 417.685883,297.512268 419.930573,301.150574 
	C429.728394,317.031464 436.165802,335.049408 449.656464,348.746429 
	C437.075775,352.447571 424.495087,356.148682 411.137756,359.776367 
	C403.070862,361.907104 400.950867,364.970154 402.871765,372.943726 
	C403.702057,376.390289 405.597717,379.580872 407.016998,382.884491 
	C407.575928,384.185577 408.155396,385.477875 408.358856,387.280457 
	C407.869507,388.186768 407.380157,389.093048 406.125000,390.001038 
	C400.486725,392.631073 394.422363,394.622528 389.306580,398.035675 
	C380.913391,403.635498 379.423126,411.621063 383.833740,420.559418 
	C385.372284,423.677399 386.897675,426.856903 387.918549,430.165833 
	C392.428589,444.784485 399.685333,457.658356 409.510040,469.529327 
	C414.473907,475.527069 416.698853,483.791595 419.668884,491.522980 
	C413.582062,497.587585 405.323761,498.699585 397.734924,501.478302 
	C394.806610,502.550537 392.633392,505.684967 390.116150,507.879852 
	C392.152374,510.151062 394.165955,512.443359 396.243134,514.676453 
	C396.679932,515.145996 397.334503,515.427063 397.915497,515.746277 
	C414.130096,524.655212 431.986237,523.130127 449.460846,523.524475 
	C453.978424,523.626404 457.215179,519.460632 455.760986,515.182861 
	C453.260193,507.826447 449.341705,500.951996 445.933838,493.205841 
	C444.254913,491.454956 442.575989,489.704102 440.836945,487.258301 
	C439.970703,485.660736 439.091217,484.070190 438.240417,482.464478 
	C433.048920,472.666687 430.802765,462.051483 428.954956,451.211792 
	C427.604797,443.291290 425.088501,435.569519 423.742950,427.994934 
	C425.865204,429.804535 427.871429,432.996948 430.129639,433.186401 
	C440.380066,434.046387 450.676880,434.222778 460.302338,429.243042 
	C462.944092,427.876343 466.106384,427.515900 469.395081,427.174591 
	C469.943054,427.434692 470.491028,427.694794 471.030151,428.773621 
	C471.746338,431.647614 472.332794,434.561493 473.202332,437.388306 
	C476.149506,446.969360 479.196808,456.519562 481.563416,466.382141 
	C475.536560,469.934113 469.485901,473.236908 462.142975,473.382446 
	C460.585876,473.413330 458.142365,475.180267 457.790009,476.573059 
	C457.432251,477.987213 458.703674,480.642548 460.056183,481.497986 
	C463.501495,483.677063 467.362274,485.217529 471.109436,486.895935 
	C474.838593,488.566254 479.374390,489.273499 482.234070,491.863281 
	C487.329865,496.478149 492.813141,497.749847 499.198669,496.825836 
	C505.908264,495.854950 508.017395,492.666504 506.552673,486.072510 
	C505.979980,483.494232 504.847382,480.741669 505.281036,478.301483 
	C506.153320,473.392853 504.043152,470.818787 499.925171,468.480896 
	C498.926361,467.279449 497.927551,466.078003 496.917511,464.038574 
	C496.263275,453.991608 495.609070,443.944611 495.757446,433.895325 
	C499.865875,433.923218 504.254364,438.208923 508.730011,432.932648 
	C513.387695,430.443085 517.874146,427.526459 522.746887,425.573334 
	C528.684998,423.193176 530.923767,418.944153 531.363647,412.387390 
	C531.234802,410.591797 531.105957,408.796204 531.167786,406.320526 
	C541.383118,391.500488 542.646973,375.905701 535.305237,358.820068 
	C537.147705,344.253906 540.214417,330.098602 549.647095,318.197479 
	C552.231567,321.409790 554.731262,324.695129 557.422791,327.815094 
	C560.492188,331.373047 564.351196,333.798706 569.183044,332.862488 
	C573.898132,331.948883 573.533508,327.259857 575.050598,323.113647 
	C575.424438,316.384918 576.692993,309.558472 575.971191,302.949402 
	C574.758911,291.849121 571.152771,281.217560 572.794800,269.565063 
	C573.959412,261.300201 566.550659,255.296616 555.253540,259.102936 
	C550.012329,256.909882 545.354065,252.816589 538.712463,253.478531 
	C538.052979,251.917313 537.393555,250.356110 537.278809,248.356949 
	C542.172424,244.946899 547.016724,241.463455 551.968567,238.140121 
	C569.142639,226.614044 559.127075,197.347595 545.488953,193.241898 
	C537.794739,190.925568 529.652344,189.506546 521.631714,189.028656 
	C513.318481,188.533371 510.542938,192.367310 510.425507,201.252991 
	C507.115509,207.652084 503.805511,214.051178 500.114777,221.186325 
	C502.552856,224.973053 499.546234,229.414719 497.353333,233.999847 
	C496.902161,233.999908 496.450989,233.999954 495.625397,233.381882 
	C495.328064,231.632431 494.216217,229.442093 494.881226,228.213608 
	C497.167725,223.989655 496.258911,220.833725 492.801025,217.058716 
	C492.636536,194.569061 492.408905,172.079636 492.321747,149.589676 
	C492.175110,111.761322 492.117859,73.932617 492.022064,36.104061 
	C492.019104,34.937614 492.269653,33.681793 491.914642,32.632549 
	C491.621033,31.764658 490.606323,31.140745 489.911102,30.408739 
	C489.222168,31.129192 488.100037,31.763765 487.936523,32.588387 
	C487.618561,34.192310 487.818573,35.903057 487.838074,37.569160 
	C488.180939,66.891876 488.537354,96.214432 488.873566,125.537216 
	C489.226959,156.359360 489.562042,187.181717 489.410980,218.640976 
	C488.657745,226.270538 490.107880,233.987167 487.628082,241.634811 
	C486.812073,244.151260 487.916595,248.491989 492.645813,249.712997 
	C490.951935,251.451385 489.258087,253.189758 486.735474,254.984482 
	C475.503845,256.060822 464.275452,257.172668 453.039642,258.203552 
	C441.862640,259.229034 430.915802,260.782349 422.132507,269.939178 
	C416.990936,271.881683 411.626801,273.399963 406.795898,275.934601 
	C404.133362,277.331512 401.231476,280.063782 403.637054,284.562317 
	C401.646729,286.374359 399.656403,288.186401 396.981537,290.097992 
z"/>
<path fill="#FCCBA7" opacity="1.000000" stroke="none" 
	d="
M81.092392,134.022842 
	C80.471466,130.196121 82.603081,127.733116 85.778152,126.768814 
	C91.097412,125.153313 96.617722,124.199768 102.554497,123.332184 
	C104.721268,125.931389 106.386955,128.166061 108.005646,130.811676 
	C108.763275,137.095505 108.208961,143.616318 110.639465,148.713989 
	C116.762054,161.555405 124.034721,173.869217 131.210693,186.182205 
	C139.567200,200.520859 145.467728,216.567810 159.153534,227.310913 
	C160.046097,228.011551 160.515366,229.244202 161.396057,229.968536 
	C163.486694,231.687912 165.475876,233.922958 167.914185,234.758316 
	C177.659500,238.097061 186.686996,242.329880 192.922363,251.399963 
	C194.204666,252.804489 195.378571,253.917694 196.641541,254.918533 
	C205.253937,261.743469 210.635742,270.286285 209.014145,281.603180 
	C207.176300,294.429321 201.379745,305.312378 190.589951,312.970398 
	C181.324707,319.546387 170.747360,319.751770 162.875641,313.863007 
	C161.587875,308.421387 159.558578,303.030823 159.179596,297.526642 
	C158.551910,288.410614 158.869278,279.219238 159.039032,270.064240 
	C159.097198,266.927063 158.072327,265.014587 155.125305,264.013794 
	C140.517822,259.053009 132.032272,248.609604 127.720085,234.083496 
	C126.880997,231.256897 124.369110,228.798492 122.271500,226.495743 
	C112.381348,215.638458 108.046371,202.336792 105.010056,188.384094 
	C103.105446,179.631943 100.760452,170.973755 98.946396,162.204468 
	C97.825562,156.786240 95.649071,152.261246 91.295746,148.700989 
	C89.404701,147.154465 88.043968,144.959488 86.184166,142.499268 
	C84.314774,139.300598 82.703583,136.661728 81.092392,134.022842 
M154.894379,231.708572 
	C154.803619,231.660065 154.712860,231.611557 154.622101,231.563049 
	C154.745834,231.710495 154.869553,231.857941 155.059341,232.729446 
	C156.724503,236.296570 158.389664,239.863678 160.054810,243.430786 
	C160.256378,238.651031 160.603149,233.820206 154.894379,231.708572 
M195.543900,288.997559 
	C191.933731,292.140900 188.323563,295.284271 184.391586,298.707794 
	C192.843323,299.038086 202.466995,290.495087 200.372726,282.388641 
	C198.823792,284.573639 197.435455,286.532074 195.543900,288.997559 
z"/>
<path fill="#191919" opacity="1.000000" stroke="none" 
	d="
M103.057678,390.051880 
	C103.653595,388.918854 104.249519,387.785828 105.339432,386.424683 
	C109.777084,388.717560 113.751617,390.820526 118.562210,387.095276 
	C121.215393,386.597168 123.549232,386.352844 125.694092,385.582428 
	C134.998688,382.240326 144.304749,378.887878 153.496887,375.252502 
	C159.232025,372.984344 164.764923,370.204834 170.785370,367.712830 
	C172.162369,367.932983 173.154343,368.043549 174.120987,368.264832 
	C194.216293,372.864471 213.538666,372.409637 230.986725,359.615387 
	C238.118469,373.822205 238.127762,387.868866 230.056641,401.743073 
	C229.225662,403.171539 228.469421,404.643463 227.186081,406.462463 
	C219.783020,410.359070 212.872375,413.888428 205.539673,417.431946 
	C201.467819,418.344208 197.818054,419.242310 193.781677,420.191101 
	C187.596710,421.827698 181.798355,423.413605 175.564941,424.980347 
	C171.763382,425.534454 168.396881,426.107758 165.030365,426.681030 
	C162.258591,427.451233 159.237656,427.753723 156.759003,429.074127 
	C147.028320,434.257904 136.594437,433.985107 126.170204,433.189972 
	C124.297600,433.047089 122.612503,430.446167 120.475067,428.928650 
	C120.109306,428.877136 120.186165,428.943787 120.169434,428.619263 
	C119.787033,428.105988 119.421371,427.917267 119.165527,427.682526 
	C119.275337,427.636505 119.210129,427.407471 119.094337,427.135406 
	C117.702629,425.546570 116.426712,424.229767 115.004593,422.608063 
	C112.517929,419.278778 110.384636,416.062531 107.795998,413.268066 
	C101.460892,406.429321 99.023323,398.938324 103.057678,390.051880 
z"/>
<path fill="#191919" opacity="1.000000" stroke="none" 
	d="
M469.029816,426.693665 
	C466.106384,427.515900 462.944092,427.876343 460.302338,429.243042 
	C450.676880,434.222778 440.380066,434.046387 430.129639,433.186401 
	C427.871429,432.996948 425.865204,429.804535 423.472290,427.842041 
	C423.201599,427.689117 423.148621,427.570526 423.045441,427.285645 
	C421.651581,425.670471 420.360931,424.340179 418.932709,422.699890 
	C416.463928,419.393921 414.345673,416.198120 411.759521,413.441315 
	C405.303192,406.559052 402.781586,399.005951 406.890778,389.999329 
	C407.380157,389.093048 407.869507,388.186768 408.957092,386.998840 
	C413.682983,388.494202 417.791962,390.950134 422.486389,387.062317 
	C425.149658,386.587189 427.489563,386.357483 429.638977,385.592529 
	C439.749878,381.994110 449.868713,378.402527 459.860413,374.491058 
	C464.856659,372.535217 469.586823,369.899567 474.835083,367.646057 
	C477.018860,368.055359 478.802887,368.401337 480.591278,368.722870 
	C499.893433,372.193146 518.840027,373.536835 535.215088,359.558289 
	C542.646973,375.905701 541.383118,391.500488 530.712158,406.679932 
	C523.142151,410.429504 516.027832,413.819672 508.557098,417.249451 
	C504.849030,418.232300 501.497345,419.175446 497.754059,420.174438 
	C491.576050,421.825989 485.789703,423.421631 479.567932,424.992981 
	C475.764954,425.543701 472.397400,426.118683 469.029816,426.693665 
z"/>
<path fill="#1C75BA" opacity="1.000000" stroke="none" 
	d="
M231.023865,359.201355 
	C213.538666,372.409637 194.216293,372.864471 174.120987,368.264832 
	C173.154343,368.043549 172.162369,367.932983 170.659195,367.340576 
	C168.673218,358.920319 167.210220,350.930328 165.747223,342.940369 
	C164.587326,333.412811 163.427444,323.885254 162.571594,314.110352 
	C170.747360,319.751770 181.324707,319.546387 190.589951,312.970398 
	C201.379745,305.312378 207.176300,294.429321 209.014145,281.603180 
	C210.635742,270.286285 205.253937,261.743469 196.641541,254.918533 
	C195.378571,253.917694 194.204666,252.804489 193.075409,251.252960 
	C193.161240,250.762680 193.319748,250.371323 193.689758,250.364502 
	C200.412415,250.338303 205.545944,253.012909 209.998734,257.376801 
	C211.888824,259.229156 213.795502,261.359924 216.125305,262.391998 
	C218.909943,263.625519 222.807480,265.203217 225.053604,264.146393 
	C228.696213,262.432556 228.573044,258.026001 227.119705,254.404739 
	C225.584122,250.578476 223.617386,246.925278 222.183167,243.111923 
	C223.209274,242.835815 223.891220,242.644257 224.773590,242.754272 
	C225.884537,244.072784 226.795059,245.089722 227.814850,246.454224 
	C229.153931,249.690887 230.686996,252.491928 231.556152,255.485733 
	C234.050491,264.077576 236.276016,272.747437 238.607224,281.386627 
	C237.074661,286.803345 235.771210,292.297699 233.967682,297.622650 
	C227.945801,315.402374 229.147888,333.618011 230.389984,351.851654 
	C230.547775,354.168030 230.834167,356.475677 231.023865,359.201355 
z"/>
<path fill="#FBCBA7" opacity="1.000000" stroke="none" 
	d="
M404.003448,284.018219 
	C401.231476,280.063782 404.133362,277.331512 406.795898,275.934601 
	C411.626801,273.399963 416.990936,271.881683 422.732513,270.224976 
	C424.913605,272.666779 426.494690,274.822784 428.074829,277.385925 
	C429.745422,290.411346 437.870392,299.435760 446.020294,308.034698 
	C449.814789,312.038269 455.794312,313.970947 460.888672,317.189240 
	C463.450562,319.493835 465.907135,321.451538 468.363739,323.409241 
	C468.704926,323.106201 469.046112,322.803162 469.387299,322.500092 
	C467.232788,319.576080 465.078247,316.652039 462.901672,313.358704 
	C465.934113,308.359741 468.988617,303.730042 472.400757,299.060181 
	C474.075165,297.286438 476.413055,295.625458 476.542297,293.807434 
	C477.356293,282.357452 483.435333,274.589172 493.271912,268.904266 
	C502.064758,268.881531 509.221985,271.515686 515.018127,277.991669 
	C514.264832,275.532104 513.344421,273.127136 511.737823,271.338470 
	C509.009888,268.301483 505.849518,265.652954 503.137512,262.705933 
	C503.969025,262.397949 504.533905,262.225128 505.404968,262.167358 
	C506.978882,262.590698 508.246613,262.898926 509.697998,263.440491 
	C510.254272,263.779572 510.626892,263.885345 511.258942,264.208374 
	C520.571655,269.615662 525.954834,277.524994 523.920288,287.771332 
	C522.670898,294.063354 518.814636,300.426849 514.561279,305.423889 
	C501.276855,321.031189 487.246765,336.003754 473.132233,351.286194 
	C466.018799,355.574188 459.733246,354.770935 453.716797,349.778290 
	C452.766785,348.989899 451.384674,348.722198 450.202393,348.213745 
	C436.165802,335.049408 429.728394,317.031464 419.930573,301.150574 
	C417.685883,297.512268 413.746826,294.919220 410.258484,291.390320 
	C407.954041,288.629761 405.978760,286.323975 404.003448,284.018219 
z"/>
<path fill="#1B74BA" opacity="1.000000" stroke="none" 
	d="
M473.505707,351.222382 
	C487.246765,336.003754 501.276855,321.031189 514.561279,305.423889 
	C518.814636,300.426849 522.670898,294.063354 523.920288,287.771332 
	C525.954834,277.524994 520.571655,269.615662 511.085815,263.962219 
	C510.273590,263.401611 509.893982,263.304382 509.514343,263.207153 
	C508.246613,262.898926 506.978882,262.590698 505.034363,262.118835 
	C503.280121,261.154541 500.084351,263.802002 501.079224,259.657562 
	C501.463165,259.232513 501.749817,259.091766 502.457916,259.039917 
	C503.595184,259.007294 504.353485,258.972198 505.339661,258.922485 
	C505.567566,258.907837 506.001099,259.051544 506.080811,259.211060 
	C506.439026,259.301147 506.717468,259.231720 507.415253,259.156372 
	C508.632355,259.385010 509.430145,259.619507 510.341919,259.909882 
	C510.455933,259.965729 510.704895,260.022614 510.704895,260.022614 
	C510.704895,260.022614 510.959869,260.008118 511.330444,260.009827 
	C513.271362,260.813660 514.865356,261.572998 516.408020,262.425293 
	C522.896362,266.010040 529.200256,269.985168 535.901794,273.109497 
	C541.205933,275.582367 544.486206,273.024323 543.754272,267.203613 
	C543.310181,263.672394 541.659241,260.292938 540.897705,256.999084 
	C544.317993,260.171021 547.391113,263.189240 550.446289,266.562408 
	C550.550598,267.616119 550.672974,268.314819 550.637573,269.251526 
	C550.619446,270.012024 550.759033,270.534485 550.903931,271.521210 
	C550.624390,282.651428 550.339539,293.317383 549.991455,304.438416 
	C550.056641,308.226166 550.185059,311.558807 550.179199,315.191864 
	C549.711792,316.287415 549.378601,317.082581 549.045349,317.877716 
	C540.214417,330.098602 537.147705,344.253906 535.260132,359.189178 
	C518.840027,373.536835 499.893433,372.193146 480.591278,368.722870 
	C478.802887,368.401337 477.018860,368.055359 474.711090,367.231995 
	C473.961456,361.569611 473.733582,356.395996 473.505707,351.222382 
z"/>
<path fill="#FCCBA7" opacity="1.000000" stroke="none" 
	d="
M406.507874,390.000183 
	C402.781586,399.005951 405.303192,406.559052 411.759521,413.441315 
	C414.345673,416.198120 416.463928,419.393921 418.639160,423.002350 
	C412.937408,423.614807 407.391663,423.614807 400.851624,423.614807 
	C408.513580,427.559692 415.611755,428.809967 423.148621,427.570526 
	C423.148621,427.570526 423.201599,427.689117 423.146790,427.724152 
	C425.088501,435.569519 427.604797,443.291290 428.954956,451.211792 
	C430.802765,462.051483 433.048920,472.666687 438.240417,482.464478 
	C439.091217,484.070190 439.970703,485.660736 440.502014,487.672424 
	C433.926178,489.457336 427.685211,490.828186 421.285675,492.044189 
	C420.805450,491.603271 420.483826,491.317230 420.162201,491.031189 
	C416.698853,483.791595 414.473907,475.527069 409.510040,469.529327 
	C399.685333,457.658356 392.428589,444.784485 387.918549,430.165833 
	C386.897675,426.856903 385.372284,423.677399 383.833740,420.559418 
	C379.423126,411.621063 380.913391,403.635498 389.306580,398.035675 
	C394.422363,394.622528 400.486725,392.631073 406.507874,390.000183 
z"/>
<path fill="#FCCBA7" opacity="1.000000" stroke="none" 
	d="
M102.664764,390.047150 
	C99.023323,398.938324 101.460892,406.429321 107.795998,413.268066 
	C110.384636,416.062531 112.517929,419.278778 114.715385,422.926300 
	C109.051659,423.549438 103.530922,423.549438 97.195435,423.549438 
	C104.644485,427.366089 111.626396,429.087341 119.210129,427.407471 
	C119.210129,427.407471 119.275337,427.636505 119.252930,427.973328 
	C119.549065,428.521362 119.867615,428.732574 120.186172,428.943787 
	C120.186165,428.943787 120.109306,428.877136 120.141495,428.837708 
	C121.922752,436.465881 124.216652,444.057648 125.297005,451.818359 
	C127.048050,464.397003 130.685852,476.218323 136.591995,487.775116 
	C130.124069,489.570984 123.961266,490.860687 117.600662,492.011169 
	C117.193382,491.622009 117.027351,491.345917 116.904785,491.043671 
	C114.060745,481.351105 109.308380,472.571655 102.523331,465.227509 
	C94.764252,456.829102 90.205627,446.892853 86.262833,436.451416 
	C83.929626,430.272552 81.077812,424.286804 78.822166,418.082245 
	C76.777954,412.459198 77.490234,407.040588 81.272408,402.163452 
	C86.632561,395.251526 93.886597,391.682007 102.664764,390.047150 
z"/>
<path fill="#FBCBA8" opacity="1.000000" stroke="none" 
	d="
M238.767792,281.140594 
	C236.276016,272.747437 234.050491,264.077576 231.556152,255.485733 
	C230.686996,252.491928 229.153931,249.690887 228.158157,246.302063 
	C231.328827,244.408707 234.265411,243.015091 236.426102,241.989700 
	C235.151855,239.776001 234.048218,237.858734 233.116531,235.654816 
	C243.611282,228.615723 248.361389,219.505814 245.590546,207.020599 
	C252.014023,202.390884 253.084076,199.588425 251.543930,194.235092 
	C249.317093,196.831375 246.671265,199.916168 243.869141,202.727997 
	C243.235367,201.334702 242.757889,200.214325 242.615448,198.987762 
	C243.459320,198.263992 244.200607,197.725601 244.441910,197.016953 
	C247.744217,187.318863 250.983444,177.599228 254.225723,167.880753 
	C256.479187,161.126160 256.027039,155.546997 250.146393,150.069748 
	C246.612991,146.778748 242.975449,141.991257 244.302063,136.111969 
	C245.202576,136.573822 245.754684,137.118546 246.360947,137.187515 
	C248.419540,137.421753 250.497284,137.487915 252.567703,137.618256 
	C252.373596,135.455261 252.179489,133.292267 251.985397,131.129272 
	C254.277756,131.358688 256.622040,131.357239 258.853088,131.859207 
	C266.704315,133.625595 267.849762,135.334930 268.138824,143.442154 
	C268.222687,145.793152 269.324402,148.107849 269.819366,149.924820 
	C268.987915,152.723053 267.315277,155.611389 267.426331,158.429428 
	C268.078705,174.984528 269.651672,191.555389 264.238434,207.705185 
	C263.557129,209.737778 262.961975,211.817017 262.074951,213.759583 
	C259.371490,219.680054 257.361603,225.609573 257.922607,232.372147 
	C258.664246,241.312729 253.481552,248.391983 249.746521,255.970566 
	C245.747482,264.084869 242.502472,272.570831 238.767792,281.140594 
z"/>
<path fill="#2B2A2A" opacity="1.000000" stroke="none" 
	d="
M511.057373,200.921463 
	C510.542938,192.367310 513.318481,188.533371 521.631714,189.028656 
	C529.652344,189.506546 537.794739,190.925568 545.488953,193.241898 
	C559.127075,197.347595 569.142639,226.614044 551.968567,238.140121 
	C547.016724,241.463455 542.172424,244.946899 536.604004,248.552582 
	C531.709656,248.233002 527.490234,247.717773 522.164490,247.067459 
	C523.086609,240.134857 524.199463,233.861069 524.613770,227.541473 
	C524.762817,225.267975 523.230896,222.884277 522.466125,220.550903 
	C520.320740,221.317429 518.123779,221.968552 516.050598,222.896393 
	C514.916382,223.404022 513.991516,224.379486 512.972290,225.143967 
	C513.191101,221.128387 514.360107,217.924591 515.445312,214.692688 
	C517.476135,208.644562 516.239624,204.826920 511.057373,200.921463 
z"/>
<path fill="#3E3E3F" opacity="1.000000" stroke="none" 
	d="
M165.378113,342.986633 
	C167.210220,350.930328 168.673218,358.920319 170.262390,367.282532 
	C164.764923,370.204834 159.232025,372.984344 153.496887,375.252502 
	C144.304749,378.887878 134.998688,382.240326 125.694092,385.582428 
	C123.549232,386.352844 121.215393,386.597168 118.555450,386.673035 
	C120.448441,378.015228 118.581360,370.894806 112.460808,364.866455 
	C110.864914,363.294586 109.439255,361.549896 107.935410,359.884552 
	C126.959946,354.267334 145.984482,348.650085 165.378113,342.986633 
z"/>
<path fill="#3E3E3F" opacity="1.000000" stroke="none" 
	d="
M473.132233,351.286194 
	C473.733582,356.395996 473.961456,361.569611 474.313354,367.157288 
	C469.586823,369.899567 464.856659,372.535217 459.860413,374.491058 
	C449.868713,378.402527 439.749878,381.994110 429.638977,385.592529 
	C427.489563,386.357483 425.149658,386.587189 422.503296,386.643799 
	C423.928589,379.987335 423.433197,374.055267 419.419678,368.771912 
	C417.071686,365.681091 414.426086,362.816315 411.914398,359.849792 
	C424.495087,356.148682 437.075775,352.447571 449.929443,348.480103 
	C451.384674,348.722198 452.766785,348.989899 453.716797,349.778290 
	C459.733246,354.770935 466.018799,355.574188 473.132233,351.286194 
z"/>
<path fill="#1E77BB" opacity="1.000000" stroke="none" 
	d="
M419.915527,491.277100 
	C420.483826,491.317230 420.805450,491.603271 421.353333,492.417511 
	C421.946960,494.023346 422.039093,495.335144 422.725220,496.141602 
	C428.211395,502.589783 438.167999,502.511505 443.649628,496.104706 
	C444.350403,495.285614 445.224487,494.614746 446.018311,493.875244 
	C449.341705,500.951996 453.260193,507.826447 455.760986,515.182861 
	C457.215179,519.460632 453.978424,523.626404 449.460846,523.524475 
	C431.986237,523.130127 414.130096,524.655212 397.915497,515.746277 
	C397.334503,515.427063 396.679932,515.145996 396.243134,514.676453 
	C394.165955,512.443359 392.152374,510.151062 390.116150,507.879883 
	C392.633392,505.684967 394.806610,502.550537 397.734924,501.478302 
	C405.323761,498.699585 413.582062,497.587585 419.915527,491.277100 
z"/>
<path fill="#1E77BB" opacity="1.000000" stroke="none" 
	d="
M116.597122,491.165833 
	C117.027351,491.345917 117.193382,491.622009 117.597641,492.384674 
	C118.680435,498.861023 124.031952,499.188232 128.143921,500.680420 
	C132.575974,502.288788 136.100494,499.765808 139.284149,496.838959 
	C140.365143,495.845154 141.682617,495.108612 142.892029,494.254517 
	C145.961823,500.803925 149.672623,507.144806 151.893143,513.970520 
	C153.586670,519.176270 150.441772,523.744446 145.346405,523.569519 
	C128.357544,522.985962 110.926750,524.742798 95.078178,516.218384 
	C93.617310,515.432617 92.191177,514.557617 90.841171,513.594727 
	C84.648956,509.178070 84.823868,505.747253 91.554817,502.411041 
	C93.912331,501.242554 96.637474,500.828339 99.030251,499.715881 
	C104.834747,497.017212 110.542641,494.110718 116.597122,491.165833 
z"/>
<path fill="#F8CAA7" opacity="1.000000" stroke="none" 
	d="
M510.741455,201.087219 
	C516.239624,204.826920 517.476135,208.644562 515.445312,214.692688 
	C514.360107,217.924591 513.191101,221.128387 512.972290,225.143967 
	C513.991516,224.379486 514.916382,223.404022 516.050598,222.896393 
	C518.123779,221.968552 520.320740,221.317429 522.466125,220.550903 
	C523.230896,222.884277 524.762817,225.267975 524.613770,227.541473 
	C524.199463,233.861069 523.086609,240.134857 522.164490,247.067459 
	C527.490234,247.717773 531.709656,248.233002 536.331604,248.771576 
	C537.393555,250.356110 538.052979,251.917313 538.984558,254.049957 
	C539.687927,255.362686 540.119141,256.104004 540.550415,256.845337 
	C541.659241,260.292938 543.310181,263.672394 543.754272,267.203613 
	C544.486206,273.024323 541.205933,275.582367 535.901794,273.109497 
	C529.200256,269.985168 522.896362,266.010040 516.408020,262.425293 
	C514.865356,261.572998 513.271362,260.813660 511.240295,259.876038 
	C510.555054,259.581238 510.371155,259.619080 510.227936,259.854034 
	C509.430145,259.619507 508.632355,259.385010 507.173950,259.062073 
	C506.342560,258.999634 506.171814,259.025574 506.001099,259.051544 
	C506.001099,259.051544 505.567566,258.907837 505.123016,258.721741 
	C504.117950,258.351349 503.557434,258.167053 503.057678,257.629517 
	C503.418030,256.127441 503.717621,254.978607 504.179993,253.501892 
	C504.936523,249.769318 505.530182,246.364609 506.486542,242.975128 
	C510.649689,240.544724 514.450195,238.099045 518.318298,235.609848 
	C517.918945,235.370941 517.682617,235.155823 517.406982,235.075531 
	C511.619843,233.389206 509.653168,239.179688 505.299744,241.076294 
	C500.072144,241.191223 497.220093,239.375580 498.031097,234.001007 
	C499.546234,229.414719 502.552856,224.973053 500.114777,221.186325 
	C503.805511,214.051178 507.115509,207.652084 510.741455,201.087219 
z"/>
<path fill="#A4A4A4" opacity="1.000000" stroke="none" 
	d="
M251.699081,130.936432 
	C252.179489,133.292267 252.373596,135.455261 252.567703,137.618256 
	C250.497284,137.487915 248.419540,137.421753 246.360947,137.187515 
	C245.754684,137.118546 245.202576,136.573822 244.160141,135.805191 
	C241.028702,130.320618 236.582550,129.167847 231.236969,128.999817 
	C213.103149,128.429749 194.976700,127.604645 176.851547,126.786072 
	C166.714783,126.328278 156.583191,125.198166 146.454514,125.258087 
	C133.490662,125.334785 119.795166,120.931305 108.052643,130.400726 
	C106.386955,128.166061 104.721268,125.931389 102.994171,123.354340 
	C115.827324,114.876335 130.153046,117.124870 144.164490,117.474739 
	C156.102356,117.772835 168.029999,118.480675 180.705704,119.247849 
	C186.026932,119.645798 190.604630,119.803154 195.182312,119.960510 
	C210.061783,121.011627 224.932190,122.232307 239.825333,123.027275 
	C245.486557,123.329468 247.997681,127.518288 251.699081,130.936432 
z"/>
<path fill="#FBCBA7" opacity="1.000000" stroke="none" 
	d="
M550.795288,269.013550 
	C550.672974,268.314819 550.550598,267.616119 550.748291,266.584595 
	C552.369202,266.805328 553.670105,267.358856 555.110352,268.221375 
	C557.893738,272.075653 561.942932,275.279327 562.904358,279.233734 
	C565.282532,289.015381 567.132385,298.847046 571.736816,307.956696 
	C572.802429,310.065033 572.568298,312.813507 573.028015,315.249329 
	C573.572571,318.133850 574.221008,320.998779 574.824341,323.872223 
	C573.533508,327.259857 573.898132,331.948883 569.183044,332.862488 
	C564.351196,333.798706 560.492188,331.373047 557.422791,327.815094 
	C554.731262,324.695129 552.231567,321.409790 549.346191,318.037598 
	C549.378601,317.082581 549.711792,316.287415 550.412476,314.973389 
	C553.714539,308.035095 556.649109,301.615692 559.583740,295.196259 
	C559.149902,294.976013 558.716064,294.755737 558.282227,294.535461 
	C555.539673,297.684753 552.797180,300.834076 550.054688,303.983368 
	C550.339539,293.317383 550.624390,282.651428 550.986450,271.268005 
	C550.974243,270.038239 550.884766,269.525879 550.795288,269.013550 
z"/>
<path fill="#1F77BB" opacity="1.000000" stroke="none" 
	d="
M499.968994,469.070801 
	C504.043152,470.818787 506.153320,473.392853 505.281036,478.301483 
	C504.847382,480.741669 505.979980,483.494232 506.552673,486.072510 
	C508.017395,492.666504 505.908264,495.854950 499.198669,496.825836 
	C492.813141,497.749847 487.329865,496.478149 482.234070,491.863281 
	C479.374390,489.273499 474.838593,488.566254 471.109436,486.895935 
	C467.362274,485.217529 463.501495,483.677063 460.056183,481.497986 
	C458.703674,480.642548 457.432251,477.987213 457.790009,476.573059 
	C458.142365,475.180267 460.585876,473.413330 462.142975,473.382446 
	C469.485901,473.236908 475.536560,469.934113 481.961914,466.286316 
	C482.360382,466.190460 482.498444,466.057312 482.580566,466.487671 
	C483.086639,469.447266 482.784119,472.463745 484.085693,474.404358 
	C486.796631,478.446136 490.851379,477.521271 495.094788,472.741608 
	C496.418427,471.250732 498.327759,470.279785 499.968994,469.070801 
z"/>
<path fill="#1F77BB" opacity="1.000000" stroke="none" 
	d="
M199.981140,471.037750 
	C200.482162,472.715515 201.162750,474.363678 201.445587,476.077454 
	C201.980240,479.317108 202.041504,482.647888 202.738083,485.845215 
	C204.210587,492.604187 202.040344,495.958008 195.121201,496.867126 
	C188.923538,497.681519 183.597733,496.446869 178.596527,492.023590 
	C175.580505,489.356110 170.923294,488.572235 167.050217,486.837708 
	C163.453201,485.226807 159.699234,483.805359 156.455811,481.639465 
	C155.012939,480.675934 153.822067,477.961121 154.080002,476.281281 
	C154.269104,475.049622 156.983536,473.378967 158.609161,473.337341 
	C165.763474,473.154175 171.693069,470.006378 177.983612,466.306305 
	C178.421799,466.146484 178.765137,466.105011 178.829834,466.527130 
	C179.388504,470.495239 177.923111,474.846649 183.134079,476.360046 
	C189.846878,478.309601 190.758072,471.579773 194.404861,468.835815 
	C196.315323,469.590210 198.148239,470.313995 199.981140,471.037750 
z"/>
<path fill="#8B8C8C" opacity="1.000000" stroke="none" 
	d="
M489.905151,218.003983 
	C489.562042,187.181717 489.226959,156.359360 488.873566,125.537216 
	C488.537354,96.214432 488.180939,66.891876 487.838074,37.569160 
	C487.818573,35.903057 487.618561,34.192310 487.936523,32.588387 
	C488.100037,31.763765 489.222168,31.129192 489.911102,30.408737 
	C490.606323,31.140745 491.621033,31.764658 491.914642,32.632549 
	C492.269653,33.681793 492.019104,34.937614 492.022064,36.104061 
	C492.117859,73.932617 492.175110,111.761322 492.321747,149.589676 
	C492.408905,172.079636 492.636536,194.569061 492.435577,217.530151 
	C491.348480,218.002396 490.626801,218.003189 489.905151,218.003983 
z"/>
<path fill="#FBCCA8" opacity="1.000000" stroke="none" 
	d="
M178.765137,466.105011 
	C178.765137,466.105011 178.421799,466.146484 178.258728,466.090881 
	C178.606873,456.498535 173.652405,448.566467 170.545975,440.078979 
	C169.191437,436.378113 168.251465,432.525482 167.524170,428.322479 
	C175.625076,429.882660 183.324997,431.862183 191.024918,433.841675 
	C191.650314,444.194122 192.275726,454.546539 192.417847,465.384979 
	C187.544754,465.948975 183.154938,466.027008 178.765137,466.105011 
z"/>
<path fill="#FBCCA8" opacity="1.000000" stroke="none" 
	d="
M482.498444,466.057312 
	C482.498444,466.057312 482.360382,466.190460 482.283142,466.136017 
	C479.196808,456.519562 476.149506,446.969360 473.202332,437.388306 
	C472.332794,434.561493 471.746338,431.647614 471.431824,428.348053 
	C479.540619,429.914215 487.247742,431.905914 494.954865,433.897644 
	C495.609070,443.944611 496.263275,453.991608 496.521973,464.555603 
	C491.583801,465.400848 487.041107,465.729095 482.498444,466.057312 
z"/>
<path fill="#A4A4A4" opacity="1.000000" stroke="none" 
	d="
M504.017181,253.829758 
	C503.717621,254.978607 503.418030,256.127441 502.873291,257.778564 
	C502.364716,258.474701 502.181671,258.726929 502.078918,259.037445 
	C501.749817,259.091766 501.463165,259.232513 500.749359,259.718781 
	C499.461975,260.333740 498.644196,260.689606 497.415649,261.073181 
	C485.971802,262.439240 474.938202,263.773041 463.905823,265.117065 
	C451.168121,266.668823 437.959961,266.805206 428.075775,276.978760 
	C426.494690,274.822784 424.913605,272.666779 423.131653,270.233887 
	C430.915802,260.782349 441.862640,259.229034 453.039642,258.203552 
	C464.275452,257.172668 475.503845,256.060822 487.639343,254.980743 
	C493.122253,254.632629 497.701294,254.288239 502.567200,253.896866 
	C503.241791,253.843170 503.629486,253.836456 504.017181,253.829758 
z"/>
<path fill="#ECB691" opacity="1.000000" stroke="none" 
	d="
M574.937500,323.492920 
	C574.221008,320.998779 573.572571,318.133850 573.028015,315.249329 
	C572.568298,312.813507 572.802429,310.065033 571.736816,307.956696 
	C567.132385,298.847046 565.282532,289.015381 562.904358,279.233734 
	C561.942932,275.279327 557.893738,272.075653 555.278198,267.907410 
	C555.539124,264.580261 555.771545,261.876007 556.004028,259.171783 
	C566.550659,255.296616 573.959412,261.300201 572.794800,269.565063 
	C571.152771,281.217560 574.758911,291.849121 575.971191,302.949402 
	C576.692993,309.558472 575.424438,316.384918 574.937500,323.492920 
z"/>
<path fill="#686969" opacity="1.000000" stroke="none" 
	d="
M411.526062,359.813110 
	C414.426086,362.816315 417.071686,365.681091 419.419678,368.771912 
	C423.433197,374.055267 423.928589,379.987335 422.092163,386.642609 
	C417.791962,390.950134 413.682983,388.494202 409.140442,386.745728 
	C408.155396,385.477875 407.575928,384.185577 407.016998,382.884491 
	C405.597717,379.580872 403.702057,376.390289 402.871765,372.943726 
	C400.950867,364.970154 403.070862,361.907104 411.526062,359.813110 
M409.467468,372.230316 
	C408.281372,375.880920 410.183289,377.560181 413.336914,378.697754 
	C414.536163,373.355804 414.100220,372.503632 409.467468,372.230316 
z"/>
<path fill="#404040" opacity="1.000000" stroke="none" 
	d="
M480.003326,425.017273 
	C485.789703,423.421631 491.576050,421.825989 497.780212,420.540863 
	C501.808197,421.577423 505.418457,422.303436 509.389282,422.998169 
	C516.833801,419.644440 523.917725,416.321991 531.001648,412.999512 
	C530.923767,418.944153 528.684998,423.193176 522.746887,425.573334 
	C517.874146,427.526459 513.387695,430.443085 508.130127,432.715332 
	C498.354614,430.004456 489.178986,427.510864 480.003326,425.017273 
z"/>
<path fill="#686969" opacity="1.000000" stroke="none" 
	d="
M107.550308,359.845459 
	C109.439255,361.549896 110.864914,363.294586 112.460808,364.866455 
	C118.581360,370.894806 120.448441,378.015228 118.149139,386.684753 
	C113.751617,390.820526 109.777084,388.717560 105.485115,386.132751 
	C103.031166,381.302429 100.061226,376.716095 99.021713,371.727448 
	C97.447273,364.171783 99.561386,361.840271 107.550308,359.845459 
M105.215569,372.861755 
	C106.210480,374.944275 107.205391,377.026794 108.200302,379.109314 
	C108.975761,378.806396 109.751213,378.503479 110.526665,378.200531 
	C110.080193,376.377777 109.927811,374.390564 109.044975,372.811829 
	C108.683090,372.164673 106.743980,372.399506 105.215569,372.861755 
z"/>
<path fill="#404040" opacity="1.000000" stroke="none" 
	d="
M176.000000,424.999512 
	C181.798355,423.413605 187.596710,421.827698 193.811554,420.554932 
	C198.122192,421.539551 202.016342,422.211060 206.271545,422.879028 
	C213.508423,419.592957 220.384262,416.310394 227.260101,413.027802 
	C227.146347,419.215515 224.437820,423.424500 218.505676,425.843719 
	C214.259750,427.575317 210.345810,430.120941 205.491699,432.272186 
	C195.133118,429.827179 185.566559,427.413330 176.000000,424.999512 
z"/>
<path fill="#8B8C8C" opacity="1.000000" stroke="none" 
	d="
M180.263031,82.930588 
	C178.912155,65.397163 177.514465,47.866974 176.301147,30.324034 
	C176.206268,28.952082 177.399017,27.491074 177.993317,26.071457 
	C178.661789,27.338449 179.836502,28.572201 179.922211,29.877457 
	C181.063858,47.264339 182.052979,64.661232 182.730743,82.527817 
	C181.675278,82.976860 180.969162,82.953720 180.263031,82.930588 
z"/>
<path fill="#B3B3B3" opacity="1.000000" stroke="none" 
	d="
M489.658081,218.322479 
	C490.626801,218.003189 491.348480,218.002396 492.430206,217.998169 
	C496.258911,220.833725 497.167725,223.989655 494.881226,228.213608 
	C494.216217,229.442093 495.328064,231.632431 495.824280,234.093063 
	C497.117889,239.506042 498.835297,244.204376 495.649597,248.915253 
	C494.289978,248.949280 493.382751,248.995605 492.475494,249.041962 
	C487.916595,248.491989 486.812073,244.151260 487.628082,241.634811 
	C490.107880,233.987167 488.657745,226.270538 489.658081,218.322479 
M490.916992,240.490555 
	C491.392029,241.986710 491.867096,243.482849 492.342133,244.979004 
	C493.006531,244.772232 493.670959,244.565475 494.335358,244.358719 
	C493.807770,241.676788 493.280182,238.994873 492.752563,236.312958 
	C492.300110,236.371918 491.847656,236.430893 491.395203,236.489868 
	C491.234436,237.551956 491.073669,238.614059 490.916992,240.490555 
z"/>
<path fill="#EEF2F4" opacity="1.000000" stroke="none" 
	d="
M142.886932,493.894409 
	C141.682617,495.108612 140.365143,495.845154 139.284149,496.838959 
	C136.100494,499.765808 132.575974,502.288788 128.143921,500.680420 
	C124.031952,499.188232 118.680435,498.861023 117.795441,492.523926 
	C123.961266,490.860687 130.124069,489.570984 136.627228,488.132324 
	C138.938980,489.833679 140.910400,491.683990 142.886932,493.894409 
z"/>
<path fill="#EEF2F4" opacity="1.000000" stroke="none" 
	d="
M445.976074,493.540527 
	C445.224487,494.614746 444.350403,495.285614 443.649628,496.104706 
	C438.167999,502.511505 428.211395,502.589783 422.725220,496.141602 
	C422.039093,495.335144 421.946960,494.023346 421.511963,492.572388 
	C427.685211,490.828186 433.926178,489.457336 440.532074,488.019897 
	C442.575989,489.704102 444.254913,491.454956 445.976074,493.540527 
z"/>
<path fill="#A4A4A4" opacity="1.000000" stroke="none" 
	d="
M180.162292,83.310379 
	C180.969162,82.953720 181.675278,82.976860 182.735992,82.995049 
	C186.365265,85.760063 188.607864,88.640900 185.669998,93.172440 
	C185.056549,94.118660 186.088654,96.118454 186.334259,97.637299 
	C187.130539,102.561493 187.913696,107.487816 188.240021,112.808044 
	C186.794861,113.480568 185.811569,113.758362 184.828278,114.036156 
	C179.671249,113.208656 179.773438,109.024132 179.454971,105.297653 
	C179.318146,103.696533 179.722504,101.956322 180.258194,100.409996 
	C181.363083,97.220596 181.908646,94.358521 180.216782,90.965965 
	C179.237869,89.003067 180.053528,86.145241 180.162292,83.310379 
M182.236832,103.052979 
	C182.251312,105.783897 181.402969,108.918442 186.343903,110.403641 
	C185.775742,107.191200 185.386993,104.713654 184.802628,102.283134 
	C184.761246,102.110992 183.280563,102.284897 182.236832,103.052979 
z"/>
<path fill="#686969" opacity="1.000000" stroke="none" 
	d="
M175.564941,424.980347 
	C185.566559,427.413330 195.133118,429.827179 205.160767,432.373657 
	C201.463287,437.477356 196.544724,434.690399 191.421310,433.850159 
	C183.324997,431.862183 175.625076,429.882660 167.538391,427.924622 
	C166.577896,427.684601 166.004166,427.423126 165.230392,426.921326 
	C168.396881,426.107758 171.763382,425.534454 175.564941,424.980347 
z"/>
<path fill="#686969" opacity="1.000000" stroke="none" 
	d="
M479.567932,424.992981 
	C489.178986,427.510864 498.354614,430.004456 507.777222,432.793274 
	C504.254364,438.208923 499.865875,433.923218 495.356140,433.896484 
	C487.247742,431.905914 479.540619,429.914215 471.436218,427.938690 
	C470.491028,427.694794 469.943054,427.434692 469.212463,426.934143 
	C472.397400,426.118683 475.764954,425.543701 479.567932,424.992981 
z"/>
<path fill="#EEF2F4" opacity="1.000000" stroke="none" 
	d="
M178.829834,466.527130 
	C183.154938,466.027008 187.544754,465.948975 192.380386,465.826782 
	C194.576797,466.660797 196.371353,467.463928 198.057983,468.451355 
	C198.813263,468.893524 199.352158,469.705261 199.985184,470.693512 
	C198.148239,470.313995 196.315323,469.590210 194.404861,468.835815 
	C190.758072,471.579773 189.846878,478.309601 183.134079,476.360046 
	C177.923111,474.846649 179.388504,470.495239 178.829834,466.527130 
z"/>
<path fill="#686969" opacity="1.000000" stroke="none" 
	d="
M531.182617,412.693451 
	C523.917725,416.321991 516.833801,419.644440 509.374420,422.578918 
	C508.970459,420.530548 508.941986,418.870209 508.913513,417.209839 
	C516.027832,413.819672 523.142151,410.429504 530.616760,407.019989 
	C531.105957,408.796204 531.234802,410.591797 531.182617,412.693451 
z"/>
<path fill="#686969" opacity="1.000000" stroke="none" 
	d="
M227.499084,412.710266 
	C220.384262,416.310394 213.508423,419.592957 206.277100,422.431152 
	C205.934998,420.463776 205.948380,418.940796 205.961761,417.417816 
	C212.872375,413.888428 219.783020,410.359070 227.031525,406.793304 
	C227.492264,408.635498 227.615158,410.514130 227.499084,412.710266 
z"/>
<path fill="#EEF2F4" opacity="1.000000" stroke="none" 
	d="
M482.580566,466.487671 
	C487.041107,465.729095 491.583801,465.400848 496.527588,464.974609 
	C497.927551,466.078003 498.926361,467.279449 499.947083,468.775848 
	C498.327759,470.279785 496.418427,471.250732 495.094788,472.741608 
	C490.851379,477.521271 486.796631,478.446136 484.085693,474.404358 
	C482.784119,472.463745 483.086639,469.447266 482.580566,466.487671 
z"/>
<path fill="#A4A4A4" opacity="1.000000" stroke="none" 
	d="
M555.628784,259.137360 
	C555.771545,261.876007 555.539124,264.580261 555.138794,267.598450 
	C553.670105,267.358856 552.369202,266.805328 550.766296,266.229614 
	C547.391113,263.189240 544.317993,260.171021 540.897644,256.999084 
	C540.119141,256.104004 539.687927,255.362686 539.147217,254.374649 
	C545.354065,252.816589 550.012329,256.909882 555.628784,259.137360 
z"/>
<path fill="#FDFDFD" opacity="1.000000" stroke="none" 
	d="
M496.101959,248.927536 
	C498.835297,244.204376 497.117889,239.506042 496.011475,234.402130 
	C496.450989,233.999954 496.902161,233.999908 497.692200,234.000427 
	C497.220093,239.375580 500.072144,241.191223 505.372864,241.390381 
	C505.933014,242.120956 506.028442,242.540421 506.123871,242.959885 
	C505.530182,246.364609 504.936523,249.769318 504.179993,253.501892 
	C503.629486,253.836456 503.241791,253.843170 502.379517,253.569702 
	C499.970581,251.835526 498.036285,250.381531 496.101959,248.927536 
z"/>
<path fill="#A4A4A4" opacity="1.000000" stroke="none" 
	d="
M403.820251,284.290283 
	C405.978760,286.323975 407.954041,288.629761 409.919189,291.264648 
	C407.489105,293.330658 405.069214,295.067596 402.337738,296.522156 
	C400.572815,294.159363 399.119446,292.078918 397.666077,289.998444 
	C399.656403,288.186401 401.646729,286.374359 403.820251,284.290283 
z"/>
<path fill="#A4A4A4" opacity="1.000000" stroke="none" 
	d="
M80.816360,134.223465 
	C82.703583,136.661728 84.314774,139.300598 85.896652,142.287674 
	C83.466751,143.780869 81.066177,144.925873 78.332535,145.719055 
	C76.680519,143.244507 75.361572,141.121765 74.042633,138.999023 
	C76.208534,137.474045 78.374428,135.949066 80.816360,134.223465 
z"/>
<path fill="#8B8C8C" opacity="1.000000" stroke="none" 
	d="
M184.881897,114.377975 
	C185.811569,113.758362 186.794861,113.480568 188.072784,113.164497 
	C189.320480,114.120674 190.221329,115.172859 191.240112,116.094696 
	C192.458694,117.197319 193.778122,118.188538 195.118088,119.594261 
	C190.604630,119.803154 186.026932,119.645798 181.158691,119.168655 
	C182.223923,117.472519 183.579727,116.096153 184.881897,114.377975 
z"/>
<path fill="#E1E1E1" opacity="1.000000" stroke="none" 
	d="
M397.323792,290.048218 
	C399.119446,292.078918 400.572815,294.159363 402.013092,296.619110 
	C400.010132,300.432739 397.895111,298.239716 396.433014,296.748871 
	C394.331268,294.605682 393.942993,292.076996 397.323792,290.048218 
z"/>
<path fill="#E1E1E1" opacity="1.000000" stroke="none" 
	d="
M73.671303,139.034866 
	C75.361572,141.121765 76.680519,143.244507 77.969147,145.768158 
	C75.403770,147.772339 73.300743,147.433548 71.891113,144.675964 
	C70.756149,142.455704 70.202187,140.276138 73.671303,139.034866 
z"/>
<path fill="#8B8C8C" opacity="1.000000" stroke="none" 
	d="
M495.649597,248.915253 
	C498.036285,250.381531 499.970581,251.835526 502.092621,253.616684 
	C497.701294,254.288239 493.122253,254.632629 488.053711,254.952576 
	C489.258087,253.189758 490.951935,251.451385 492.560669,249.377472 
	C493.382751,248.995605 494.289978,248.949280 495.649597,248.915253 
z"/>
<path fill="#FEFEFE" opacity="1.000000" stroke="none" 
	d="
M108.005646,130.811676 
	C119.795166,120.931305 133.490662,125.334785 146.454514,125.258087 
	C156.583191,125.198166 166.714783,126.328278 176.851547,126.786072 
	C194.976700,127.604645 213.103149,128.429749 231.236969,128.999817 
	C236.582550,129.167847 241.028702,130.320618 243.836548,135.670044 
	C242.975449,141.991257 246.612991,146.778748 250.146393,150.069748 
	C256.027039,155.546997 256.479187,161.126160 254.225723,167.880753 
	C250.983444,177.599228 247.744217,187.318863 244.441910,197.016953 
	C244.200607,197.725601 243.459320,198.263992 242.431061,198.670563 
	C239.451660,193.482376 235.790192,189.560120 230.341827,188.332840 
	C222.480072,186.561920 214.517258,184.855179 206.510300,184.218506 
	C198.016174,183.543106 195.439529,186.706848 195.180115,195.835556 
	C190.645065,201.507904 192.170578,209.896484 185.621658,214.110428 
	C185.215988,214.371460 185.130447,215.290009 185.080276,215.917389 
	C184.760681,219.913376 184.783127,223.960571 184.143784,227.901840 
	C183.026062,234.791962 183.893097,235.992691 191.060181,236.314636 
	C191.439011,237.392471 191.774353,238.158981 192.127365,239.342346 
	C192.536591,243.296570 192.928162,246.833954 193.319733,250.371323 
	C193.319748,250.371323 193.161240,250.762680 193.008194,250.909668 
	C186.686996,242.329880 177.659500,238.097061 167.914185,234.758316 
	C165.475876,233.922958 163.486694,231.687912 161.396057,229.968536 
	C160.515366,229.244202 160.046097,228.011551 159.153534,227.310913 
	C145.467728,216.567810 139.567200,200.520859 131.210693,186.182205 
	C124.034721,173.869217 116.762054,161.555405 110.639465,148.713989 
	C108.208961,143.616318 108.763275,137.095505 108.005646,130.811676 
z"/>
<path fill="#DDA57D" opacity="1.000000" stroke="none" 
	d="
M195.795502,288.744019 
	C197.435455,286.532074 198.823792,284.573639 200.372726,282.388641 
	C202.466995,290.495087 192.843323,299.038086 184.391586,298.707794 
	C188.323563,295.284271 191.933731,292.140900 195.795502,288.744019 
z"/>
<path fill="#ECB691" opacity="1.000000" stroke="none" 
	d="
M155.005173,231.993286 
	C160.603149,233.820206 160.256378,238.651031 160.054810,243.430786 
	C158.389664,239.863678 156.724503,236.296570 155.029663,232.364716 
	C155.000000,232.000000 155.005173,231.993286 155.005173,231.993286 
z"/>
<path fill="#ECB691" opacity="1.000000" stroke="none" 
	d="
M154.996643,232.002686 
	C154.869553,231.857941 154.745834,231.710495 154.622101,231.563049 
	C154.712860,231.611557 154.803619,231.660065 154.949768,231.850922 
	C155.005173,231.993286 155.000000,232.000000 154.996643,232.002686 
z"/>
<path fill="#DDA57D" opacity="1.000000" stroke="none" 
	d="
M119.094337,427.135406 
	C111.626396,429.087341 104.644485,427.366089 97.195435,423.549438 
	C103.530922,423.549438 109.051659,423.549438 114.861603,423.231201 
	C116.426712,424.229767 117.702629,425.546570 119.094337,427.135406 
z"/>
<path fill="#8B8C8C" opacity="1.000000" stroke="none" 
	d="
M205.539673,417.431946 
	C205.948380,418.940796 205.934998,420.463776 205.916061,422.434662 
	C202.016342,422.211060 198.122192,421.539551 194.198181,420.504242 
	C197.818054,419.242310 201.467819,418.344208 205.539673,417.431946 
z"/>
<path fill="#FFFFFF" opacity="1.000000" stroke="none" 
	d="
M120.169434,428.619263 
	C119.867615,428.732574 119.549065,428.521362 119.143112,428.019348 
	C119.421371,427.917267 119.787033,428.105988 120.169434,428.619263 
z"/>
<path fill="#DDA57D" opacity="1.000000" stroke="none" 
	d="
M423.045441,427.285645 
	C415.611755,428.809967 408.513580,427.559692 400.851624,423.614807 
	C407.391663,423.614807 412.937408,423.614807 418.776703,423.312378 
	C420.360931,424.340179 421.651581,425.670471 423.045441,427.285645 
z"/>
<path fill="#8B8C8C" opacity="1.000000" stroke="none" 
	d="
M508.557098,417.249481 
	C508.941986,418.870209 508.970459,420.530548 509.013794,422.610168 
	C505.418457,422.303436 501.808197,421.577423 498.171814,420.484985 
	C501.497345,419.175446 504.849030,418.232300 508.557098,417.249481 
z"/>
<path fill="#2B2A2A" opacity="1.000000" stroke="none" 
	d="
M195.392776,195.500381 
	C195.439529,186.706848 198.016174,183.543106 206.510300,184.218506 
	C214.517258,184.855179 222.480072,186.561920 230.341827,188.332840 
	C235.790192,189.560120 239.451660,193.482376 242.096008,198.776764 
	C242.757889,200.214325 243.235367,201.334702 243.852707,203.086304 
	C244.414398,204.836227 244.836212,205.954926 245.258026,207.073608 
	C248.361389,219.505814 243.611282,228.615723 232.786270,235.727646 
	C229.713776,238.208984 227.143478,240.330856 224.573181,242.452713 
	C223.891220,242.644257 223.209274,242.835815 221.748810,243.079590 
	C217.071030,242.692413 213.171799,242.253052 208.146759,241.686829 
	C208.757004,234.935959 209.577515,228.655151 209.762589,222.355698 
	C209.831055,220.025284 208.405502,217.650955 207.661331,215.296661 
	C205.418701,216.188965 203.137726,216.998383 200.950211,218.009857 
	C199.915726,218.488174 199.060120,219.353348 198.123474,220.043243 
	C198.131012,216.427338 198.991318,213.479919 199.964996,210.570450 
	C202.363724,203.402679 201.407349,200.181946 195.392776,195.500381 
z"/>
<path fill="#F8CAA7" opacity="1.000000" stroke="none" 
	d="
M195.180115,195.835556 
	C201.407349,200.181946 202.363724,203.402679 199.964996,210.570450 
	C198.991318,213.479919 198.131012,216.427338 198.123474,220.043243 
	C199.060120,219.353348 199.915726,218.488174 200.950211,218.009857 
	C203.137726,216.998383 205.418701,216.188965 207.661331,215.296661 
	C208.405502,217.650955 209.831055,220.025284 209.762589,222.355698 
	C209.577515,228.655151 208.757004,234.935959 208.146759,241.686829 
	C213.171799,242.253052 217.071030,242.692413 221.404633,243.164124 
	C223.617386,246.925278 225.584122,250.578476 227.119705,254.404739 
	C228.573044,258.026001 228.696213,262.432556 225.053604,264.146393 
	C222.807480,265.203217 218.909943,263.625519 216.125305,262.391998 
	C213.795502,261.359924 211.888824,259.229156 209.998734,257.376801 
	C205.545944,253.012909 200.412415,250.338303 193.689743,250.364502 
	C192.928162,246.833954 192.536591,243.296570 192.423080,239.208893 
	C196.208633,235.967133 199.716125,233.275696 203.201797,230.600998 
	C199.933289,228.500565 197.374588,229.528534 195.039139,232.454590 
	C193.940628,233.830887 192.372208,234.832108 191.016724,236.003296 
	C183.893097,235.992691 183.026062,234.791962 184.143784,227.901840 
	C184.783127,223.960571 184.760681,219.913376 185.080276,215.917389 
	C185.130447,215.290009 185.215988,214.371460 185.621658,214.110428 
	C192.170578,209.896484 190.645065,201.507904 195.180115,195.835556 
z"/>
<path fill="#DDA57D" opacity="1.000000" stroke="none" 
	d="
M224.773590,242.754303 
	C227.143478,240.330856 229.713776,238.208984 232.614334,236.014282 
	C234.048218,237.858734 235.151855,239.776001 236.426102,241.989700 
	C234.265411,243.015091 231.328827,244.408707 228.048920,245.954468 
	C226.795059,245.089722 225.884537,244.072784 224.773590,242.754303 
z"/>
<path fill="#FDFDFD" opacity="1.000000" stroke="none" 
	d="
M428.074829,277.385925 
	C437.959961,266.805206 451.168121,266.668823 463.905823,265.117065 
	C474.938202,263.773041 485.971802,262.439240 497.266296,261.362518 
	C493.016846,265.214966 488.306488,268.585205 484.038391,272.444519 
	C476.208618,279.524414 471.431610,288.142303 472.043121,299.100372 
	C468.988617,303.730042 465.934113,308.359741 462.623474,313.536133 
	C461.839355,315.002686 461.311371,315.922516 460.783386,316.842346 
	C455.794312,313.970947 449.814789,312.038269 446.020294,308.034698 
	C437.870392,299.435760 429.745422,290.411346 428.074829,277.385925 
z"/>
<path fill="#367EB6" opacity="1.000000" stroke="none" 
	d="
M472.400757,299.060181 
	C471.431610,288.142303 476.208618,279.524414 484.038391,272.444519 
	C488.306488,268.585205 493.016846,265.214966 497.677063,261.334808 
	C498.644196,260.689606 499.461975,260.333740 500.609619,259.916656 
	C500.084351,263.802002 503.280121,261.154541 504.728180,262.003784 
	C504.533905,262.225128 503.969025,262.397949 502.790771,262.747162 
	C499.059174,264.903717 495.940979,266.883881 492.822815,268.864075 
	C483.435333,274.589172 477.356293,282.357452 476.542297,293.807434 
	C476.413055,295.625458 474.075165,297.286438 472.400757,299.060181 
z"/>
<path fill="#DDA57D" opacity="1.000000" stroke="none" 
	d="
M493.271912,268.904266 
	C495.940979,266.883881 499.059174,264.903717 502.524139,262.882324 
	C505.849518,265.652954 509.009888,268.301483 511.737823,271.338470 
	C513.344421,273.127136 514.264832,275.532104 515.018127,277.991669 
	C509.221985,271.515686 502.064758,268.881531 493.271912,268.904266 
z"/>
<path fill="#DDA57D" opacity="1.000000" stroke="none" 
	d="
M460.888672,317.189240 
	C461.311371,315.922516 461.839355,315.002686 462.645538,313.905457 
	C465.078247,316.652039 467.232788,319.576080 469.387299,322.500092 
	C469.046112,322.803162 468.704926,323.106201 468.363739,323.409241 
	C465.907135,321.451538 463.450562,319.493835 460.888672,317.189240 
z"/>
<path fill="#367EB6" opacity="1.000000" stroke="none" 
	d="
M509.697998,263.440491 
	C509.893982,263.304382 510.273590,263.401611 510.826355,263.744995 
	C510.626892,263.885345 510.254272,263.779572 509.697998,263.440491 
z"/>
<path fill="#DDA57D" opacity="1.000000" stroke="none" 
	d="
M549.991455,304.438416 
	C552.797180,300.834076 555.539673,297.684753 558.282227,294.535461 
	C558.716064,294.755737 559.149902,294.976013 559.583740,295.196259 
	C556.649109,301.615692 553.714539,308.035095 550.546692,314.673004 
	C550.185059,311.558807 550.056641,308.226166 549.991455,304.438416 
z"/>
<path fill="#367EB6" opacity="1.000000" stroke="none" 
	d="
M502.457916,259.039917 
	C502.181671,258.726929 502.364716,258.474701 502.812500,258.131775 
	C503.557434,258.167053 504.117950,258.351349 504.895111,258.736389 
	C504.353485,258.972198 503.595184,259.007294 502.457916,259.039917 
z"/>
<path fill="#A4A4A4" opacity="1.000000" stroke="none" 
	d="
M550.637573,269.251526 
	C550.884766,269.525879 550.974243,270.038239 550.981201,270.803772 
	C550.759033,270.534485 550.619446,270.012024 550.637573,269.251526 
z"/>
<path fill="#367EB6" opacity="1.000000" stroke="none" 
	d="
M510.341919,259.909882 
	C510.371155,259.619080 510.555054,259.581238 510.869751,259.874329 
	C510.959869,260.008118 510.704895,260.022614 510.704895,260.022614 
	C510.704895,260.022614 510.455933,259.965729 510.341919,259.909882 
z"/>
<path fill="#367EB6" opacity="1.000000" stroke="none" 
	d="
M506.080811,259.211060 
	C506.171814,259.025574 506.342560,258.999634 506.754639,259.067963 
	C506.717468,259.231720 506.439026,259.301147 506.080811,259.211060 
z"/>
<path fill="#DDA57D" opacity="1.000000" stroke="none" 
	d="
M245.590546,207.020599 
	C244.836212,205.954926 244.414398,204.836227 244.009003,203.359253 
	C246.671265,199.916168 249.317093,196.831375 251.543930,194.235092 
	C253.084076,199.588425 252.014023,202.390884 245.590546,207.020599 
z"/>
<path fill="#DDA57D" opacity="1.000000" stroke="none" 
	d="
M506.486542,242.975128 
	C506.028442,242.540421 505.933014,242.120956 505.764465,241.387421 
	C509.653168,239.179688 511.619843,233.389206 517.406982,235.075531 
	C517.682617,235.155823 517.918945,235.370941 518.318298,235.609848 
	C514.450195,238.099045 510.649689,240.544724 506.486542,242.975128 
z"/>
<path fill="#A4A4A4" opacity="1.000000" stroke="none" 
	d="
M409.717957,371.955780 
	C414.100220,372.503632 414.536163,373.355804 413.336914,378.697754 
	C410.183289,377.560181 408.281372,375.880920 409.717957,371.955780 
z"/>
<path fill="#A4A4A4" opacity="1.000000" stroke="none" 
	d="
M105.368958,372.547424 
	C106.743980,372.399506 108.683090,372.164673 109.044975,372.811829 
	C109.927811,374.390564 110.080193,376.377777 110.526665,378.200531 
	C109.751213,378.503479 108.975761,378.806396 108.200302,379.109314 
	C107.205391,377.026794 106.210480,374.944275 105.368958,372.547424 
z"/>
<path fill="#FDFDFD" opacity="1.000000" stroke="none" 
	d="
M490.914948,240.083344 
	C491.073669,238.614059 491.234436,237.551956 491.395203,236.489868 
	C491.847656,236.430893 492.300110,236.371918 492.752563,236.312958 
	C493.280182,238.994873 493.807770,241.676788 494.335358,244.358719 
	C493.670959,244.565475 493.006531,244.772232 492.342133,244.979004 
	C491.867096,243.482849 491.392029,241.986710 490.914948,240.083344 
z"/>
<path fill="#EEF2F4" opacity="1.000000" stroke="none" 
	d="
M182.352997,102.675430 
	C183.280563,102.284897 184.761246,102.110992 184.802628,102.283134 
	C185.386993,104.713654 185.775742,107.191200 186.343903,110.403641 
	C181.402969,108.918442 182.251312,105.783897 182.352997,102.675430 
z"/>
<path fill="#DDA57D" opacity="1.000000" stroke="none" 
	d="
M191.060181,236.314636 
	C192.372208,234.832108 193.940628,233.830887 195.039139,232.454590 
	C197.374588,229.528534 199.933289,228.500565 203.201797,230.600998 
	C199.716125,233.275696 196.208633,235.967133 192.405426,238.792023 
	C191.774353,238.158981 191.439011,237.392471 191.060181,236.314636 
z"/>
</svg>