<svg width="26" height="24" viewBox="0 0 26 24" fill="none" xmlns="http://www.w3.org/2000/svg">
<path fill-rule="evenodd" clip-rule="evenodd" d="M16.3479 4.0515C17.3849 4.4535 17.7021 5.8535 18.1261 6.3035C18.5501 6.7535 19.1569 6.9065 19.4926 6.9065C21.277 6.9065 22.7235 8.3155 22.7235 10.0525V15.8475C22.7235 18.1775 20.7831 20.0675 18.391 20.0675H8.06275C5.6696 20.0675 3.73022 18.1775 3.73022 15.8475V10.0525C3.73022 8.3155 5.1768 6.9065 6.96114 6.9065C7.29584 6.9065 7.9026 6.7535 8.32763 6.3035C8.75165 5.8535 9.06786 4.4535 10.1048 4.0515C11.1428 3.6495 15.311 3.6495 16.3479 4.0515Z" stroke="#ADA4A5" stroke-width="1.2" stroke-linecap="round" stroke-linejoin="round"/>
<path d="M18.8688 9.5H18.8781" stroke="#ADA4A5" stroke-width="1.2" stroke-linecap="round" stroke-linejoin="round"/>
<path fill-rule="evenodd" clip-rule="evenodd" d="M16.4904 13.1282C16.4904 11.3722 15.0295 9.94922 13.2267 9.94922C11.4238 9.94922 9.96289 11.3722 9.96289 13.1282C9.96289 14.8842 11.4238 16.3072 13.2267 16.3072C15.0295 16.3072 16.4904 14.8842 16.4904 13.1282Z" stroke="#ADA4A5" stroke-width="1.2" stroke-linecap="round" stroke-linejoin="round"/>
</svg>
