<svg width="319" height="522" viewBox="0 0 319 522" fill="none" xmlns="http://www.w3.org/2000/svg">
<g filter="url(#filter0_d_255_3989)">
<rect x="22" y="12" width="275" height="478" rx="22" fill="url(#paint0_linear_255_3989)"/>
</g>
<path d="M108.224 367.228V377H106.264V367.228H108.224ZM119.792 369.132C120.744 369.132 121.51 369.426 122.088 370.014C122.676 370.593 122.97 371.405 122.97 372.45V377H121.01V372.716C121.01 372.109 120.856 371.647 120.548 371.33C120.24 371.003 119.82 370.84 119.288 370.84C118.756 370.84 118.332 371.003 118.014 371.33C117.706 371.647 117.552 372.109 117.552 372.716V377H115.592V372.716C115.592 372.109 115.438 371.647 115.13 371.33C114.822 371.003 114.402 370.84 113.87 370.84C113.329 370.84 112.9 371.003 112.582 371.33C112.274 371.647 112.12 372.109 112.12 372.716V377H110.16V369.244H112.12V370.182C112.372 369.855 112.694 369.599 113.086 369.412C113.488 369.225 113.926 369.132 114.402 369.132C115.009 369.132 115.55 369.263 116.026 369.524C116.502 369.776 116.871 370.14 117.132 370.616C117.384 370.168 117.748 369.809 118.224 369.538C118.71 369.267 119.232 369.132 119.792 369.132ZM126.79 370.364C127.042 370.009 127.388 369.715 127.826 369.482C128.274 369.239 128.783 369.118 129.352 369.118C130.015 369.118 130.612 369.281 131.144 369.608C131.686 369.935 132.11 370.401 132.418 371.008C132.736 371.605 132.894 372.301 132.894 373.094C132.894 373.887 132.736 374.592 132.418 375.208C132.11 375.815 131.686 376.286 131.144 376.622C130.612 376.958 130.015 377.126 129.352 377.126C128.783 377.126 128.279 377.009 127.84 376.776C127.411 376.543 127.061 376.249 126.79 375.894V380.696H124.83V369.244H126.79V370.364ZM130.892 373.094C130.892 372.627 130.794 372.226 130.598 371.89C130.412 371.545 130.16 371.283 129.842 371.106C129.534 370.929 129.198 370.84 128.834 370.84C128.48 370.84 128.144 370.933 127.826 371.12C127.518 371.297 127.266 371.559 127.07 371.904C126.884 372.249 126.79 372.655 126.79 373.122C126.79 373.589 126.884 373.995 127.07 374.34C127.266 374.685 127.518 374.951 127.826 375.138C128.144 375.315 128.48 375.404 128.834 375.404C129.198 375.404 129.534 375.311 129.842 375.124C130.16 374.937 130.412 374.671 130.598 374.326C130.794 373.981 130.892 373.57 130.892 373.094ZM136.279 370.448C136.531 370.037 136.857 369.715 137.259 369.482C137.669 369.249 138.136 369.132 138.659 369.132V371.19H138.141C137.525 371.19 137.058 371.335 136.741 371.624C136.433 371.913 136.279 372.417 136.279 373.136V377H134.319V369.244H136.279V370.448ZM143.423 377.126C142.676 377.126 142.004 376.963 141.407 376.636C140.809 376.3 140.338 375.829 139.993 375.222C139.657 374.615 139.489 373.915 139.489 373.122C139.489 372.329 139.661 371.629 140.007 371.022C140.361 370.415 140.842 369.949 141.449 369.622C142.055 369.286 142.732 369.118 143.479 369.118C144.225 369.118 144.902 369.286 145.509 369.622C146.115 369.949 146.591 370.415 146.937 371.022C147.291 371.629 147.469 372.329 147.469 373.122C147.469 373.915 147.287 374.615 146.923 375.222C146.568 375.829 146.083 376.3 145.467 376.636C144.86 376.963 144.179 377.126 143.423 377.126ZM143.423 375.418C143.777 375.418 144.109 375.334 144.417 375.166C144.734 374.989 144.986 374.727 145.173 374.382C145.359 374.037 145.453 373.617 145.453 373.122C145.453 372.385 145.257 371.82 144.865 371.428C144.482 371.027 144.011 370.826 143.451 370.826C142.891 370.826 142.419 371.027 142.037 371.428C141.663 371.82 141.477 372.385 141.477 373.122C141.477 373.859 141.659 374.429 142.023 374.83C142.396 375.222 142.863 375.418 143.423 375.418ZM152.14 375.194L154.1 369.244H156.186L153.316 377H150.936L148.08 369.244H150.18L152.14 375.194ZM164.497 372.954C164.497 373.234 164.479 373.486 164.441 373.71H158.771C158.818 374.27 159.014 374.709 159.359 375.026C159.705 375.343 160.129 375.502 160.633 375.502C161.361 375.502 161.879 375.189 162.187 374.564H164.301C164.077 375.311 163.648 375.927 163.013 376.412C162.379 376.888 161.599 377.126 160.675 377.126C159.929 377.126 159.257 376.963 158.659 376.636C158.071 376.3 157.609 375.829 157.273 375.222C156.947 374.615 156.783 373.915 156.783 373.122C156.783 372.319 156.947 371.615 157.273 371.008C157.6 370.401 158.057 369.935 158.645 369.608C159.233 369.281 159.91 369.118 160.675 369.118C161.413 369.118 162.071 369.277 162.649 369.594C163.237 369.911 163.69 370.364 164.007 370.952C164.334 371.531 164.497 372.198 164.497 372.954ZM162.467 372.394C162.458 371.89 162.276 371.489 161.921 371.19C161.567 370.882 161.133 370.728 160.619 370.728C160.134 370.728 159.723 370.877 159.387 371.176C159.061 371.465 158.86 371.871 158.785 372.394H162.467ZM172.638 377.098C171.957 377.098 171.341 376.981 170.79 376.748C170.249 376.515 169.819 376.179 169.502 375.74C169.185 375.301 169.021 374.783 169.012 374.186H171.112C171.14 374.587 171.28 374.905 171.532 375.138C171.793 375.371 172.148 375.488 172.596 375.488C173.053 375.488 173.413 375.381 173.674 375.166C173.935 374.942 174.066 374.653 174.066 374.298C174.066 374.009 173.977 373.771 173.8 373.584C173.623 373.397 173.399 373.253 173.128 373.15C172.867 373.038 172.503 372.917 172.036 372.786C171.401 372.599 170.883 372.417 170.482 372.24C170.09 372.053 169.749 371.778 169.46 371.414C169.18 371.041 169.04 370.546 169.04 369.93C169.04 369.351 169.185 368.847 169.474 368.418C169.763 367.989 170.169 367.662 170.692 367.438C171.215 367.205 171.812 367.088 172.484 367.088C173.492 367.088 174.309 367.335 174.934 367.83C175.569 368.315 175.919 368.997 175.984 369.874H173.828C173.809 369.538 173.665 369.263 173.394 369.048C173.133 368.824 172.783 368.712 172.344 368.712C171.961 368.712 171.653 368.81 171.42 369.006C171.196 369.202 171.084 369.487 171.084 369.86C171.084 370.121 171.168 370.341 171.336 370.518C171.513 370.686 171.728 370.826 171.98 370.938C172.241 371.041 172.605 371.162 173.072 371.302C173.707 371.489 174.225 371.675 174.626 371.862C175.027 372.049 175.373 372.329 175.662 372.702C175.951 373.075 176.096 373.565 176.096 374.172C176.096 374.695 175.961 375.18 175.69 375.628C175.419 376.076 175.023 376.435 174.5 376.706C173.977 376.967 173.357 377.098 172.638 377.098ZM182.163 369.132C182.751 369.132 183.274 369.263 183.731 369.524C184.188 369.776 184.543 370.154 184.795 370.658C185.056 371.153 185.187 371.75 185.187 372.45V377H183.227V372.716C183.227 372.1 183.073 371.629 182.765 371.302C182.457 370.966 182.037 370.798 181.505 370.798C180.964 370.798 180.534 370.966 180.217 371.302C179.909 371.629 179.755 372.1 179.755 372.716V377H177.795V366.64H179.755V370.21C180.007 369.874 180.343 369.613 180.763 369.426C181.183 369.23 181.65 369.132 182.163 369.132ZM186.547 373.094C186.547 372.31 186.701 371.615 187.009 371.008C187.326 370.401 187.751 369.935 188.283 369.608C188.824 369.281 189.426 369.118 190.089 369.118C190.668 369.118 191.172 369.235 191.601 369.468C192.04 369.701 192.39 369.995 192.651 370.35V369.244H194.625V377H192.651V375.866C192.399 376.23 192.049 376.533 191.601 376.776C191.162 377.009 190.654 377.126 190.075 377.126C189.422 377.126 188.824 376.958 188.283 376.622C187.751 376.286 187.326 375.815 187.009 375.208C186.701 374.592 186.547 373.887 186.547 373.094ZM192.651 373.122C192.651 372.646 192.558 372.24 192.371 371.904C192.184 371.559 191.932 371.297 191.615 371.12C191.298 370.933 190.957 370.84 190.593 370.84C190.229 370.84 189.893 370.929 189.585 371.106C189.277 371.283 189.025 371.545 188.829 371.89C188.642 372.226 188.549 372.627 188.549 373.094C188.549 373.561 188.642 373.971 188.829 374.326C189.025 374.671 189.277 374.937 189.585 375.124C189.902 375.311 190.238 375.404 190.593 375.404C190.957 375.404 191.298 375.315 191.615 375.138C191.932 374.951 192.184 374.69 192.371 374.354C192.558 374.009 192.651 373.598 192.651 373.122ZM198.499 370.364C198.751 370.009 199.097 369.715 199.535 369.482C199.983 369.239 200.492 369.118 201.061 369.118C201.724 369.118 202.321 369.281 202.853 369.608C203.395 369.935 203.819 370.401 204.127 371.008C204.445 371.605 204.603 372.301 204.603 373.094C204.603 373.887 204.445 374.592 204.127 375.208C203.819 375.815 203.395 376.286 202.853 376.622C202.321 376.958 201.724 377.126 201.061 377.126C200.492 377.126 199.988 377.009 199.549 376.776C199.12 376.543 198.77 376.249 198.499 375.894V380.696H196.539V369.244H198.499V370.364ZM202.601 373.094C202.601 372.627 202.503 372.226 202.307 371.89C202.121 371.545 201.869 371.283 201.551 371.106C201.243 370.929 200.907 370.84 200.543 370.84C200.189 370.84 199.853 370.933 199.535 371.12C199.227 371.297 198.975 371.559 198.779 371.904C198.593 372.249 198.499 372.655 198.499 373.122C198.499 373.589 198.593 373.995 198.779 374.34C198.975 374.685 199.227 374.951 199.535 375.138C199.853 375.315 200.189 375.404 200.543 375.404C200.907 375.404 201.243 375.311 201.551 375.124C201.869 374.937 202.121 374.671 202.307 374.326C202.503 373.981 202.601 373.57 202.601 373.094ZM213.238 372.954C213.238 373.234 213.219 373.486 213.182 373.71H207.512C207.558 374.27 207.754 374.709 208.1 375.026C208.445 375.343 208.87 375.502 209.374 375.502C210.102 375.502 210.62 375.189 210.928 374.564H213.042C212.818 375.311 212.388 375.927 211.754 376.412C211.119 376.888 210.34 377.126 209.416 377.126C208.669 377.126 207.997 376.963 207.4 376.636C206.812 376.3 206.35 375.829 206.014 375.222C205.687 374.615 205.524 373.915 205.524 373.122C205.524 372.319 205.687 371.615 206.014 371.008C206.34 370.401 206.798 369.935 207.386 369.608C207.974 369.281 208.65 369.118 209.416 369.118C210.153 369.118 210.811 369.277 211.39 369.594C211.978 369.911 212.43 370.364 212.748 370.952C213.074 371.531 213.238 372.198 213.238 372.954ZM211.208 372.394C211.198 371.89 211.016 371.489 210.662 371.19C210.307 370.882 209.873 370.728 209.36 370.728C208.874 370.728 208.464 370.877 208.128 371.176C207.801 371.465 207.6 371.871 207.526 372.394H211.208Z" fill="white"/>
<path d="M66.2836 410.636V419H65.1916V410.636H66.2836ZM74.6079 412.304C75.1039 412.304 75.5519 412.412 75.9519 412.628C76.3519 412.836 76.6639 413.152 76.8879 413.576C77.1199 414 77.2359 414.516 77.2359 415.124V419H76.1559V415.28C76.1559 414.624 75.9919 414.124 75.6639 413.78C75.3359 413.428 74.8879 413.252 74.3199 413.252C73.7439 413.252 73.2839 413.432 72.9399 413.792C72.6039 414.152 72.4359 414.676 72.4359 415.364V419H71.3439V410.12H72.4359V413.36C72.6519 413.024 72.9479 412.764 73.3239 412.58C73.7079 412.396 74.1359 412.304 74.6079 412.304ZM78.6117 415.688C78.6117 415.016 78.7477 414.428 79.0197 413.924C79.2917 413.412 79.6637 413.016 80.1357 412.736C80.6157 412.456 81.1477 412.316 81.7317 412.316C82.3077 412.316 82.8077 412.44 83.2317 412.688C83.6557 412.936 83.9717 413.248 84.1797 413.624V412.424H85.2837V419H84.1797V417.776C83.9637 418.16 83.6397 418.48 83.2077 418.736C82.7837 418.984 82.2877 419.108 81.7197 419.108C81.1357 419.108 80.6077 418.964 80.1357 418.676C79.6637 418.388 79.2917 417.984 79.0197 417.464C78.7477 416.944 78.6117 416.352 78.6117 415.688ZM84.1797 415.7C84.1797 415.204 84.0797 414.772 83.8797 414.404C83.6797 414.036 83.4077 413.756 83.0637 413.564C82.7277 413.364 82.3557 413.264 81.9477 413.264C81.5397 413.264 81.1677 413.36 80.8317 413.552C80.4957 413.744 80.2277 414.024 80.0277 414.392C79.8277 414.76 79.7277 415.192 79.7277 415.688C79.7277 416.192 79.8277 416.632 80.0277 417.008C80.2277 417.376 80.4957 417.66 80.8317 417.86C81.1677 418.052 81.5397 418.148 81.9477 418.148C82.3557 418.148 82.7277 418.052 83.0637 417.86C83.4077 417.66 83.6797 417.376 83.8797 417.008C84.0797 416.632 84.1797 416.196 84.1797 415.7ZM89.5771 417.992L91.6171 412.424H92.7811L90.2011 419H88.9291L86.3491 412.424H87.5251L89.5771 417.992ZM99.8556 415.46C99.8556 415.668 99.8436 415.888 99.8196 416.12H94.5636C94.6036 416.768 94.8236 417.276 95.2236 417.644C95.6316 418.004 96.1236 418.184 96.6996 418.184C97.1716 418.184 97.5636 418.076 97.8756 417.86C98.1956 417.636 98.4196 417.34 98.5476 416.972H99.7236C99.5476 417.604 99.1956 418.12 98.6676 418.52C98.1396 418.912 97.4836 419.108 96.6996 419.108C96.0756 419.108 95.5156 418.968 95.0196 418.688C94.5316 418.408 94.1476 418.012 93.8676 417.5C93.5876 416.98 93.4476 416.38 93.4476 415.7C93.4476 415.02 93.5836 414.424 93.8556 413.912C94.1276 413.4 94.5076 413.008 94.9956 412.736C95.4916 412.456 96.0596 412.316 96.6996 412.316C97.3236 412.316 97.8756 412.452 98.3556 412.724C98.8356 412.996 99.2036 413.372 99.4596 413.852C99.7236 414.324 99.8556 414.86 99.8556 415.46ZM98.7276 415.232C98.7276 414.816 98.6356 414.46 98.4516 414.164C98.2676 413.86 98.0156 413.632 97.6956 413.48C97.3836 413.32 97.0356 413.24 96.6516 413.24C96.0996 413.24 95.6276 413.416 95.2356 413.768C94.8516 414.12 94.6316 414.608 94.5756 415.232H98.7276ZM104.088 415.688C104.088 415.016 104.224 414.428 104.496 413.924C104.768 413.412 105.14 413.016 105.612 412.736C106.092 412.456 106.624 412.316 107.208 412.316C107.784 412.316 108.284 412.44 108.708 412.688C109.132 412.936 109.448 413.248 109.656 413.624V412.424H110.76V419H109.656V417.776C109.44 418.16 109.116 418.48 108.684 418.736C108.26 418.984 107.764 419.108 107.196 419.108C106.612 419.108 106.084 418.964 105.612 418.676C105.14 418.388 104.768 417.984 104.496 417.464C104.224 416.944 104.088 416.352 104.088 415.688ZM109.656 415.7C109.656 415.204 109.556 414.772 109.356 414.404C109.156 414.036 108.884 413.756 108.54 413.564C108.204 413.364 107.832 413.264 107.424 413.264C107.016 413.264 106.644 413.36 106.308 413.552C105.972 413.744 105.704 414.024 105.504 414.392C105.304 414.76 105.204 415.192 105.204 415.688C105.204 416.192 105.304 416.632 105.504 417.008C105.704 417.376 105.972 417.66 106.308 417.86C106.644 418.052 107.016 418.148 107.424 418.148C107.832 418.148 108.204 418.052 108.54 417.86C108.884 417.66 109.156 417.376 109.356 417.008C109.556 416.632 109.656 416.196 109.656 415.7ZM116.897 410.12V419H115.805V410.12H116.897ZM121.626 419.108C121.01 419.108 120.45 418.968 119.946 418.688C119.45 418.408 119.058 418.012 118.77 417.5C118.49 416.98 118.35 416.38 118.35 415.7C118.35 415.028 118.494 414.436 118.782 413.924C119.078 413.404 119.478 413.008 119.982 412.736C120.486 412.456 121.05 412.316 121.674 412.316C122.298 412.316 122.862 412.456 123.366 412.736C123.87 413.008 124.266 413.4 124.554 413.912C124.85 414.424 124.998 415.02 124.998 415.7C124.998 416.38 124.846 416.98 124.542 417.5C124.246 418.012 123.842 418.408 123.33 418.688C122.818 418.968 122.25 419.108 121.626 419.108ZM121.626 418.148C122.018 418.148 122.386 418.056 122.73 417.872C123.074 417.688 123.35 417.412 123.558 417.044C123.774 416.676 123.882 416.228 123.882 415.7C123.882 415.172 123.778 414.724 123.57 414.356C123.362 413.988 123.09 413.716 122.754 413.54C122.418 413.356 122.054 413.264 121.662 413.264C121.262 413.264 120.894 413.356 120.558 413.54C120.23 413.716 119.966 413.988 119.766 414.356C119.566 414.724 119.466 415.172 119.466 415.7C119.466 416.236 119.562 416.688 119.754 417.056C119.954 417.424 120.218 417.7 120.546 417.884C120.874 418.06 121.234 418.148 121.626 418.148ZM135.194 412.424L133.142 419H132.014L130.43 413.78L128.846 419H127.718L125.654 412.424H126.77L128.282 417.944L129.914 412.424H131.03L132.626 417.956L134.114 412.424H135.194ZM139.069 415.688C139.069 415.016 139.205 414.428 139.477 413.924C139.749 413.412 140.121 413.016 140.593 412.736C141.073 412.456 141.605 412.316 142.189 412.316C142.765 412.316 143.265 412.44 143.689 412.688C144.113 412.936 144.429 413.248 144.637 413.624V412.424H145.741V419H144.637V417.776C144.421 418.16 144.097 418.48 143.665 418.736C143.241 418.984 142.745 419.108 142.177 419.108C141.593 419.108 141.065 418.964 140.593 418.676C140.121 418.388 139.749 417.984 139.477 417.464C139.205 416.944 139.069 416.352 139.069 415.688ZM144.637 415.7C144.637 415.204 144.537 414.772 144.337 414.404C144.137 414.036 143.865 413.756 143.521 413.564C143.185 413.364 142.813 413.264 142.405 413.264C141.997 413.264 141.625 413.36 141.289 413.552C140.953 413.744 140.685 414.024 140.485 414.392C140.285 414.76 140.185 415.192 140.185 415.688C140.185 416.192 140.285 416.632 140.485 417.008C140.685 417.376 140.953 417.66 141.289 417.86C141.625 418.052 141.997 418.148 142.405 418.148C142.813 418.148 143.185 418.052 143.521 417.86C143.865 417.66 144.137 417.376 144.337 417.008C144.537 416.632 144.637 416.196 144.637 415.7ZM155.494 412.304C156.006 412.304 156.462 412.412 156.862 412.628C157.262 412.836 157.578 413.152 157.81 413.576C158.042 414 158.158 414.516 158.158 415.124V419H157.078V415.28C157.078 414.624 156.914 414.124 156.586 413.78C156.266 413.428 155.83 413.252 155.278 413.252C154.71 413.252 154.258 413.436 153.922 413.804C153.586 414.164 153.418 414.688 153.418 415.376V419H152.338V415.28C152.338 414.624 152.174 414.124 151.846 413.78C151.526 413.428 151.09 413.252 150.538 413.252C149.97 413.252 149.518 413.436 149.182 413.804C148.846 414.164 148.678 414.688 148.678 415.376V419H147.586V412.424H148.678V413.372C148.894 413.028 149.182 412.764 149.542 412.58C149.91 412.396 150.314 412.304 150.754 412.304C151.306 412.304 151.794 412.428 152.218 412.676C152.642 412.924 152.958 413.288 153.166 413.768C153.35 413.304 153.654 412.944 154.078 412.688C154.502 412.432 154.974 412.304 155.494 412.304ZM162.817 419.108C162.201 419.108 161.641 418.968 161.137 418.688C160.641 418.408 160.249 418.012 159.961 417.5C159.681 416.98 159.541 416.38 159.541 415.7C159.541 415.028 159.685 414.436 159.973 413.924C160.269 413.404 160.669 413.008 161.173 412.736C161.677 412.456 162.241 412.316 162.865 412.316C163.489 412.316 164.053 412.456 164.557 412.736C165.061 413.008 165.457 413.4 165.745 413.912C166.041 414.424 166.189 415.02 166.189 415.7C166.189 416.38 166.037 416.98 165.733 417.5C165.437 418.012 165.033 418.408 164.521 418.688C164.009 418.968 163.441 419.108 162.817 419.108ZM162.817 418.148C163.209 418.148 163.577 418.056 163.921 417.872C164.265 417.688 164.541 417.412 164.749 417.044C164.965 416.676 165.073 416.228 165.073 415.7C165.073 415.172 164.969 414.724 164.761 414.356C164.553 413.988 164.281 413.716 163.945 413.54C163.609 413.356 163.245 413.264 162.853 413.264C162.453 413.264 162.085 413.356 161.749 413.54C161.421 413.716 161.157 413.988 160.957 414.356C160.757 414.724 160.657 415.172 160.657 415.7C160.657 416.236 160.753 416.688 160.945 417.056C161.145 417.424 161.409 417.7 161.737 417.884C162.065 418.06 162.425 418.148 162.817 418.148ZM173.457 412.424V419H172.365V418.028C172.157 418.364 171.865 418.628 171.489 418.82C171.121 419.004 170.713 419.096 170.265 419.096C169.753 419.096 169.293 418.992 168.885 418.784C168.477 418.568 168.153 418.248 167.913 417.824C167.681 417.4 167.565 416.884 167.565 416.276V412.424H168.645V416.132C168.645 416.78 168.809 417.28 169.137 417.632C169.465 417.976 169.913 418.148 170.481 418.148C171.065 418.148 171.525 417.968 171.861 417.608C172.197 417.248 172.365 416.724 172.365 416.036V412.424H173.457ZM178.505 412.304C179.305 412.304 179.953 412.548 180.449 413.036C180.945 413.516 181.193 414.212 181.193 415.124V419H180.113V415.28C180.113 414.624 179.949 414.124 179.621 413.78C179.293 413.428 178.845 413.252 178.277 413.252C177.701 413.252 177.241 413.432 176.897 413.792C176.561 414.152 176.393 414.676 176.393 415.364V419H175.301V412.424H176.393V413.36C176.609 413.024 176.901 412.764 177.269 412.58C177.645 412.396 178.057 412.304 178.505 412.304ZM184.309 413.324V417.2C184.309 417.52 184.377 417.748 184.513 417.884C184.649 418.012 184.885 418.076 185.221 418.076H186.025V419H185.041C184.433 419 183.977 418.86 183.673 418.58C183.369 418.3 183.217 417.84 183.217 417.2V413.324H182.365V412.424H183.217V410.768H184.309V412.424H186.025V413.324H184.309ZM193.415 419.108C192.799 419.108 192.239 418.968 191.735 418.688C191.239 418.408 190.847 418.012 190.559 417.5C190.279 416.98 190.139 416.38 190.139 415.7C190.139 415.028 190.283 414.436 190.571 413.924C190.867 413.404 191.267 413.008 191.771 412.736C192.275 412.456 192.839 412.316 193.463 412.316C194.087 412.316 194.651 412.456 195.155 412.736C195.659 413.008 196.055 413.4 196.343 413.912C196.639 414.424 196.787 415.02 196.787 415.7C196.787 416.38 196.635 416.98 196.331 417.5C196.035 418.012 195.631 418.408 195.119 418.688C194.607 418.968 194.039 419.108 193.415 419.108ZM193.415 418.148C193.807 418.148 194.175 418.056 194.519 417.872C194.863 417.688 195.139 417.412 195.347 417.044C195.563 416.676 195.671 416.228 195.671 415.7C195.671 415.172 195.567 414.724 195.359 414.356C195.151 413.988 194.879 413.716 194.543 413.54C194.207 413.356 193.843 413.264 193.451 413.264C193.051 413.264 192.683 413.356 192.347 413.54C192.019 413.716 191.755 413.988 191.555 414.356C191.355 414.724 191.255 415.172 191.255 415.7C191.255 416.236 191.351 416.688 191.543 417.056C191.743 417.424 192.007 417.7 192.335 417.884C192.663 418.06 193.023 418.148 193.415 418.148ZM200.899 413.324H199.519V419H198.427V413.324H197.575V412.424H198.427V411.956C198.427 411.22 198.615 410.684 198.991 410.348C199.375 410.004 199.987 409.832 200.827 409.832V410.744C200.347 410.744 200.007 410.84 199.807 411.032C199.615 411.216 199.519 411.524 199.519 411.956V412.424H200.899V413.324ZM206.463 413.648C206.687 413.256 207.015 412.936 207.447 412.688C207.879 412.44 208.371 412.316 208.923 412.316C209.515 412.316 210.047 412.456 210.519 412.736C210.991 413.016 211.363 413.412 211.635 413.924C211.907 414.428 212.043 415.016 212.043 415.688C212.043 416.352 211.907 416.944 211.635 417.464C211.363 417.984 210.987 418.388 210.507 418.676C210.035 418.964 209.507 419.108 208.923 419.108C208.355 419.108 207.855 418.984 207.423 418.736C206.999 418.488 206.679 418.172 206.463 417.788V419H205.371V410.12H206.463V413.648ZM210.927 415.688C210.927 415.192 210.827 414.76 210.627 414.392C210.427 414.024 210.155 413.744 209.811 413.552C209.475 413.36 209.103 413.264 208.695 413.264C208.295 413.264 207.923 413.364 207.579 413.564C207.243 413.756 206.971 414.04 206.763 414.416C206.563 414.784 206.463 415.212 206.463 415.7C206.463 416.196 206.563 416.632 206.763 417.008C206.971 417.376 207.243 417.66 207.579 417.86C207.923 418.052 208.295 418.148 208.695 418.148C209.103 418.148 209.475 418.052 209.811 417.86C210.155 417.66 210.427 417.376 210.627 417.008C210.827 416.632 210.927 416.192 210.927 415.688ZM216.349 419.108C215.733 419.108 215.173 418.968 214.669 418.688C214.173 418.408 213.781 418.012 213.493 417.5C213.213 416.98 213.073 416.38 213.073 415.7C213.073 415.028 213.217 414.436 213.505 413.924C213.801 413.404 214.201 413.008 214.705 412.736C215.209 412.456 215.773 412.316 216.397 412.316C217.021 412.316 217.585 412.456 218.089 412.736C218.593 413.008 218.989 413.4 219.277 413.912C219.573 414.424 219.721 415.02 219.721 415.7C219.721 416.38 219.569 416.98 219.265 417.5C218.969 418.012 218.565 418.408 218.053 418.688C217.541 418.968 216.973 419.108 216.349 419.108ZM216.349 418.148C216.741 418.148 217.109 418.056 217.453 417.872C217.797 417.688 218.073 417.412 218.281 417.044C218.497 416.676 218.605 416.228 218.605 415.7C218.605 415.172 218.501 414.724 218.293 414.356C218.085 413.988 217.813 413.716 217.477 413.54C217.141 413.356 216.777 413.264 216.385 413.264C215.985 413.264 215.617 413.356 215.281 413.54C214.953 413.716 214.689 413.988 214.489 414.356C214.289 414.724 214.189 415.172 214.189 415.7C214.189 416.236 214.285 416.688 214.477 417.056C214.677 417.424 214.941 417.7 215.269 417.884C215.597 418.06 215.957 418.148 216.349 418.148ZM220.748 415.688C220.748 415.016 220.884 414.428 221.156 413.924C221.428 413.412 221.8 413.016 222.272 412.736C222.752 412.456 223.288 412.316 223.88 412.316C224.392 412.316 224.868 412.436 225.308 412.676C225.748 412.908 226.084 413.216 226.316 413.6V410.12H227.42V419H226.316V417.764C226.1 418.156 225.78 418.48 225.356 418.736C224.932 418.984 224.436 419.108 223.868 419.108C223.284 419.108 222.752 418.964 222.272 418.676C221.8 418.388 221.428 417.984 221.156 417.464C220.884 416.944 220.748 416.352 220.748 415.688ZM226.316 415.7C226.316 415.204 226.216 414.772 226.016 414.404C225.816 414.036 225.544 413.756 225.2 413.564C224.864 413.364 224.492 413.264 224.084 413.264C223.676 413.264 223.304 413.36 222.968 413.552C222.632 413.744 222.364 414.024 222.164 414.392C221.964 414.76 221.864 415.192 221.864 415.688C221.864 416.192 221.964 416.632 222.164 417.008C222.364 417.376 222.632 417.66 222.968 417.86C223.304 418.052 223.676 418.148 224.084 418.148C224.492 418.148 224.864 418.052 225.2 417.86C225.544 417.66 225.816 417.376 226.016 417.008C226.216 416.632 226.316 416.196 226.316 415.7ZM234.93 412.424L230.97 422.096H229.842L231.138 418.928L228.486 412.424H229.698L231.762 417.752L233.802 412.424H234.93ZM241.903 413.324H240.523V419H239.431V413.324H238.579V412.424H239.431V411.956C239.431 411.22 239.619 410.684 239.995 410.348C240.379 410.004 240.991 409.832 241.831 409.832V410.744C241.351 410.744 241.011 410.84 240.811 411.032C240.619 411.216 240.523 411.524 240.523 411.956V412.424H241.903V413.324ZM242.768 415.688C242.768 415.016 242.904 414.428 243.176 413.924C243.448 413.412 243.82 413.016 244.292 412.736C244.772 412.456 245.304 412.316 245.888 412.316C246.464 412.316 246.964 412.44 247.388 412.688C247.812 412.936 248.128 413.248 248.336 413.624V412.424H249.44V419H248.336V417.776C248.12 418.16 247.796 418.48 247.364 418.736C246.94 418.984 246.444 419.108 245.876 419.108C245.292 419.108 244.764 418.964 244.292 418.676C243.82 418.388 243.448 417.984 243.176 417.464C242.904 416.944 242.768 416.352 242.768 415.688ZM248.336 415.7C248.336 415.204 248.236 414.772 248.036 414.404C247.836 414.036 247.564 413.756 247.22 413.564C246.884 413.364 246.512 413.264 246.104 413.264C245.696 413.264 245.324 413.36 244.988 413.552C244.652 413.744 244.384 414.024 244.184 414.392C243.984 414.76 243.884 415.192 243.884 415.688C243.884 416.192 243.984 416.632 244.184 417.008C244.384 417.376 244.652 417.66 244.988 417.86C245.324 418.052 245.696 418.148 246.104 418.148C246.512 418.148 246.884 418.052 247.22 417.86C247.564 417.66 247.836 417.376 248.036 417.008C248.236 416.632 248.336 416.196 248.336 415.7ZM252.617 413.324V417.2C252.617 417.52 252.685 417.748 252.821 417.884C252.957 418.012 253.193 418.076 253.529 418.076H254.333V419H253.349C252.741 419 252.285 418.86 251.981 418.58C251.677 418.3 251.525 417.84 251.525 417.2V413.324H250.673V412.424H251.525V410.768H252.617V412.424H254.333V413.324H252.617ZM68.3812 433.688C68.3812 433.016 68.5172 432.428 68.7892 431.924C69.0612 431.412 69.4332 431.016 69.9052 430.736C70.3852 430.456 70.9172 430.316 71.5012 430.316C72.0772 430.316 72.5772 430.44 73.0012 430.688C73.4252 430.936 73.7412 431.248 73.9492 431.624V430.424H75.0532V437H73.9492V435.776C73.7332 436.16 73.4092 436.48 72.9772 436.736C72.5532 436.984 72.0572 437.108 71.4892 437.108C70.9052 437.108 70.3772 436.964 69.9052 436.676C69.4332 436.388 69.0612 435.984 68.7892 435.464C68.5172 434.944 68.3812 434.352 68.3812 433.688ZM73.9492 433.7C73.9492 433.204 73.8492 432.772 73.6492 432.404C73.4492 432.036 73.1772 431.756 72.8332 431.564C72.4972 431.364 72.1252 431.264 71.7172 431.264C71.3092 431.264 70.9372 431.36 70.6012 431.552C70.2652 431.744 69.9972 432.024 69.7972 432.392C69.5972 432.76 69.4972 433.192 69.4972 433.688C69.4972 434.192 69.5972 434.632 69.7972 435.008C69.9972 435.376 70.2652 435.66 70.6012 435.86C70.9372 436.052 71.3092 436.148 71.7172 436.148C72.1252 436.148 72.4972 436.052 72.8332 435.86C73.1772 435.66 73.4492 435.376 73.6492 435.008C73.8492 434.632 73.9492 434.196 73.9492 433.7ZM80.1026 430.304C80.9026 430.304 81.5506 430.548 82.0466 431.036C82.5426 431.516 82.7906 432.212 82.7906 433.124V437H81.7106V433.28C81.7106 432.624 81.5466 432.124 81.2186 431.78C80.8906 431.428 80.4426 431.252 79.8746 431.252C79.2986 431.252 78.8386 431.432 78.4946 431.792C78.1586 432.152 77.9906 432.676 77.9906 433.364V437H76.8986V430.424H77.9906V431.36C78.2066 431.024 78.4986 430.764 78.8666 430.58C79.2426 430.396 79.6546 430.304 80.1026 430.304ZM84.1664 433.688C84.1664 433.016 84.3024 432.428 84.5744 431.924C84.8464 431.412 85.2184 431.016 85.6904 430.736C86.1704 430.456 86.7064 430.316 87.2984 430.316C87.8104 430.316 88.2864 430.436 88.7264 430.676C89.1664 430.908 89.5024 431.216 89.7344 431.6V428.12H90.8384V437H89.7344V435.764C89.5184 436.156 89.1984 436.48 88.7744 436.736C88.3504 436.984 87.8544 437.108 87.2864 437.108C86.7024 437.108 86.1704 436.964 85.6904 436.676C85.2184 436.388 84.8464 435.984 84.5744 435.464C84.3024 434.944 84.1664 434.352 84.1664 433.688ZM89.7344 433.7C89.7344 433.204 89.6344 432.772 89.4344 432.404C89.2344 432.036 88.9624 431.756 88.6184 431.564C88.2824 431.364 87.9104 431.264 87.5024 431.264C87.0944 431.264 86.7224 431.36 86.3864 431.552C86.0504 431.744 85.7824 432.024 85.5824 432.392C85.3824 432.76 85.2824 433.192 85.2824 433.688C85.2824 434.192 85.3824 434.632 85.5824 435.008C85.7824 435.376 86.0504 435.66 86.3864 435.86C86.7224 436.052 87.0944 436.148 87.5024 436.148C87.9104 436.148 88.2824 436.052 88.6184 435.86C88.9624 435.66 89.2344 435.376 89.4344 435.008C89.6344 434.632 89.7344 434.196 89.7344 433.7ZM99.087 430.304C99.887 430.304 100.535 430.548 101.031 431.036C101.527 431.516 101.775 432.212 101.775 433.124V437H100.695V433.28C100.695 432.624 100.531 432.124 100.203 431.78C99.875 431.428 99.427 431.252 98.859 431.252C98.283 431.252 97.823 431.432 97.479 431.792C97.143 432.152 96.975 432.676 96.975 433.364V437H95.883V430.424H96.975V431.36C97.191 431.024 97.483 430.764 97.851 430.58C98.227 430.396 98.639 430.304 99.087 430.304ZM109.559 433.46C109.559 433.668 109.547 433.888 109.523 434.12H104.267C104.307 434.768 104.527 435.276 104.927 435.644C105.335 436.004 105.827 436.184 106.403 436.184C106.875 436.184 107.267 436.076 107.579 435.86C107.899 435.636 108.123 435.34 108.251 434.972H109.427C109.251 435.604 108.899 436.12 108.371 436.52C107.843 436.912 107.187 437.108 106.403 437.108C105.779 437.108 105.219 436.968 104.723 436.688C104.235 436.408 103.851 436.012 103.571 435.5C103.291 434.98 103.151 434.38 103.151 433.7C103.151 433.02 103.287 432.424 103.559 431.912C103.831 431.4 104.211 431.008 104.699 430.736C105.195 430.456 105.763 430.316 106.403 430.316C107.027 430.316 107.579 430.452 108.059 430.724C108.539 430.996 108.907 431.372 109.163 431.852C109.427 432.324 109.559 432.86 109.559 433.46ZM108.431 433.232C108.431 432.816 108.339 432.46 108.155 432.164C107.971 431.86 107.719 431.632 107.399 431.48C107.087 431.32 106.739 431.24 106.355 431.24C105.803 431.24 105.331 431.416 104.939 431.768C104.555 432.12 104.335 432.608 104.279 433.232H108.431ZM117 433.46C117 433.668 116.988 433.888 116.964 434.12H111.708C111.748 434.768 111.968 435.276 112.368 435.644C112.776 436.004 113.268 436.184 113.844 436.184C114.316 436.184 114.708 436.076 115.02 435.86C115.34 435.636 115.564 435.34 115.692 434.972H116.868C116.692 435.604 116.34 436.12 115.812 436.52C115.284 436.912 114.628 437.108 113.844 437.108C113.22 437.108 112.66 436.968 112.164 436.688C111.676 436.408 111.292 436.012 111.012 435.5C110.732 434.98 110.592 434.38 110.592 433.7C110.592 433.02 110.728 432.424 111 431.912C111.272 431.4 111.652 431.008 112.14 430.736C112.636 430.456 113.204 430.316 113.844 430.316C114.468 430.316 115.02 430.452 115.5 430.724C115.98 430.996 116.348 431.372 116.604 431.852C116.868 432.324 117 432.86 117 433.46ZM115.872 433.232C115.872 432.816 115.78 432.46 115.596 432.164C115.412 431.86 115.16 431.632 114.84 431.48C114.528 431.32 114.18 431.24 113.796 431.24C113.244 431.24 112.772 431.416 112.38 431.768C111.996 432.12 111.776 432.608 111.72 433.232H115.872ZM118.034 433.688C118.034 433.016 118.17 432.428 118.442 431.924C118.714 431.412 119.086 431.016 119.558 430.736C120.038 430.456 120.574 430.316 121.166 430.316C121.678 430.316 122.154 430.436 122.594 430.676C123.034 430.908 123.37 431.216 123.602 431.6V428.12H124.706V437H123.602V435.764C123.386 436.156 123.066 436.48 122.642 436.736C122.218 436.984 121.722 437.108 121.154 437.108C120.57 437.108 120.038 436.964 119.558 436.676C119.086 436.388 118.714 435.984 118.442 435.464C118.17 434.944 118.034 434.352 118.034 433.688ZM123.602 433.7C123.602 433.204 123.502 432.772 123.302 432.404C123.102 432.036 122.83 431.756 122.486 431.564C122.15 431.364 121.778 431.264 121.37 431.264C120.962 431.264 120.59 431.36 120.254 431.552C119.918 431.744 119.65 432.024 119.45 432.392C119.25 432.76 119.15 433.192 119.15 433.688C119.15 434.192 119.25 434.632 119.45 435.008C119.65 435.376 119.918 435.66 120.254 435.86C120.59 436.052 120.962 436.148 121.37 436.148C121.778 436.148 122.15 436.052 122.486 435.86C122.83 435.66 123.102 435.376 123.302 435.008C123.502 434.632 123.602 434.196 123.602 433.7ZM133.83 425.696L130.542 439.04H129.462L132.738 425.696H133.83ZM147.416 430.424L145.364 437H144.236L142.652 431.78L141.068 437H139.94L137.876 430.424H138.992L140.504 435.944L142.136 430.424H143.252L144.848 435.956L146.336 430.424H147.416ZM148.092 433.688C148.092 433.016 148.228 432.428 148.5 431.924C148.772 431.412 149.144 431.016 149.616 430.736C150.096 430.456 150.628 430.316 151.212 430.316C151.788 430.316 152.288 430.44 152.712 430.688C153.136 430.936 153.452 431.248 153.66 431.624V430.424H154.764V437H153.66V435.776C153.444 436.16 153.12 436.48 152.688 436.736C152.264 436.984 151.768 437.108 151.2 437.108C150.616 437.108 150.088 436.964 149.616 436.676C149.144 436.388 148.772 435.984 148.5 435.464C148.228 434.944 148.092 434.352 148.092 433.688ZM153.66 433.7C153.66 433.204 153.56 432.772 153.36 432.404C153.16 432.036 152.888 431.756 152.544 431.564C152.208 431.364 151.836 431.264 151.428 431.264C151.02 431.264 150.648 431.36 150.312 431.552C149.976 431.744 149.708 432.024 149.508 432.392C149.308 432.76 149.208 433.192 149.208 433.688C149.208 434.192 149.308 434.632 149.508 435.008C149.708 435.376 149.976 435.66 150.312 435.86C150.648 436.052 151.02 436.148 151.428 436.148C151.836 436.148 152.208 436.052 152.544 435.86C152.888 435.66 153.16 435.376 153.36 435.008C153.56 434.632 153.66 434.196 153.66 433.7ZM159.814 430.304C160.614 430.304 161.262 430.548 161.758 431.036C162.254 431.516 162.502 432.212 162.502 433.124V437H161.422V433.28C161.422 432.624 161.258 432.124 160.93 431.78C160.602 431.428 160.154 431.252 159.586 431.252C159.01 431.252 158.55 431.432 158.206 431.792C157.87 432.152 157.702 432.676 157.702 433.364V437H156.61V430.424H157.702V431.36C157.918 431.024 158.21 430.764 158.578 430.58C158.954 430.396 159.366 430.304 159.814 430.304ZM165.617 431.324V435.2C165.617 435.52 165.685 435.748 165.821 435.884C165.957 436.012 166.193 436.076 166.529 436.076H167.333V437H166.349C165.741 437 165.285 436.86 164.981 436.58C164.677 436.3 164.525 435.84 164.525 435.2V431.324H163.673V430.424H164.525V428.768H165.617V430.424H167.333V431.324H165.617ZM173.188 431.324V435.2C173.188 435.52 173.256 435.748 173.392 435.884C173.528 436.012 173.764 436.076 174.1 436.076H174.904V437H173.92C173.312 437 172.856 436.86 172.552 436.58C172.248 436.3 172.096 435.84 172.096 435.2V431.324H171.244V430.424H172.096V428.768H173.188V430.424H174.904V431.324H173.188ZM179.095 437.108C178.479 437.108 177.919 436.968 177.415 436.688C176.919 436.408 176.527 436.012 176.239 435.5C175.959 434.98 175.819 434.38 175.819 433.7C175.819 433.028 175.963 432.436 176.251 431.924C176.547 431.404 176.947 431.008 177.451 430.736C177.955 430.456 178.519 430.316 179.143 430.316C179.767 430.316 180.331 430.456 180.835 430.736C181.339 431.008 181.735 431.4 182.023 431.912C182.319 432.424 182.467 433.02 182.467 433.7C182.467 434.38 182.315 434.98 182.011 435.5C181.715 436.012 181.311 436.408 180.799 436.688C180.287 436.968 179.719 437.108 179.095 437.108ZM179.095 436.148C179.487 436.148 179.855 436.056 180.199 435.872C180.543 435.688 180.819 435.412 181.027 435.044C181.243 434.676 181.351 434.228 181.351 433.7C181.351 433.172 181.247 432.724 181.039 432.356C180.831 431.988 180.559 431.716 180.223 431.54C179.887 431.356 179.523 431.264 179.131 431.264C178.731 431.264 178.363 431.356 178.027 431.54C177.699 431.716 177.435 431.988 177.235 432.356C177.035 432.724 176.935 433.172 176.935 433.7C176.935 434.236 177.031 434.688 177.223 435.056C177.423 435.424 177.687 435.7 178.015 435.884C178.343 436.06 178.703 436.148 179.095 436.148ZM188.194 431.648C188.418 431.256 188.746 430.936 189.178 430.688C189.61 430.44 190.102 430.316 190.654 430.316C191.246 430.316 191.778 430.456 192.25 430.736C192.722 431.016 193.094 431.412 193.366 431.924C193.638 432.428 193.774 433.016 193.774 433.688C193.774 434.352 193.638 434.944 193.366 435.464C193.094 435.984 192.718 436.388 192.238 436.676C191.766 436.964 191.238 437.108 190.654 437.108C190.086 437.108 189.586 436.984 189.154 436.736C188.73 436.488 188.41 436.172 188.194 435.788V437H187.102V428.12H188.194V431.648ZM192.658 433.688C192.658 433.192 192.558 432.76 192.358 432.392C192.158 432.024 191.886 431.744 191.542 431.552C191.206 431.36 190.834 431.264 190.426 431.264C190.026 431.264 189.654 431.364 189.31 431.564C188.974 431.756 188.702 432.04 188.494 432.416C188.294 432.784 188.194 433.212 188.194 433.7C188.194 434.196 188.294 434.632 188.494 435.008C188.702 435.376 188.974 435.66 189.31 435.86C189.654 436.052 190.026 436.148 190.426 436.148C190.834 436.148 191.206 436.052 191.542 435.86C191.886 435.66 192.158 435.376 192.358 435.008C192.558 434.632 192.658 434.192 192.658 433.688ZM201.043 430.424V437H199.951V436.028C199.743 436.364 199.451 436.628 199.075 436.82C198.707 437.004 198.299 437.096 197.851 437.096C197.339 437.096 196.879 436.992 196.471 436.784C196.063 436.568 195.739 436.248 195.499 435.824C195.267 435.4 195.151 434.884 195.151 434.276V430.424H196.231V434.132C196.231 434.78 196.395 435.28 196.723 435.632C197.051 435.976 197.499 436.148 198.067 436.148C198.651 436.148 199.111 435.968 199.447 435.608C199.783 435.248 199.951 434.724 199.951 434.036V430.424H201.043ZM203.451 429.356C203.243 429.356 203.067 429.284 202.923 429.14C202.779 428.996 202.707 428.82 202.707 428.612C202.707 428.404 202.779 428.228 202.923 428.084C203.067 427.94 203.243 427.868 203.451 427.868C203.651 427.868 203.819 427.94 203.955 428.084C204.099 428.228 204.171 428.404 204.171 428.612C204.171 428.82 204.099 428.996 203.955 429.14C203.819 429.284 203.651 429.356 203.451 429.356ZM203.979 430.424V437H202.887V430.424H203.979ZM206.932 428.12V437H205.84V428.12H206.932ZM208.385 433.688C208.385 433.016 208.521 432.428 208.793 431.924C209.065 431.412 209.437 431.016 209.909 430.736C210.389 430.456 210.925 430.316 211.517 430.316C212.029 430.316 212.505 430.436 212.945 430.676C213.385 430.908 213.721 431.216 213.953 431.6V428.12H215.057V437H213.953V435.764C213.737 436.156 213.417 436.48 212.993 436.736C212.569 436.984 212.073 437.108 211.505 437.108C210.921 437.108 210.389 436.964 209.909 436.676C209.437 436.388 209.065 435.984 208.793 435.464C208.521 434.944 208.385 434.352 208.385 433.688ZM213.953 433.7C213.953 433.204 213.853 432.772 213.653 432.404C213.453 432.036 213.181 431.756 212.837 431.564C212.501 431.364 212.129 431.264 211.721 431.264C211.313 431.264 210.941 431.36 210.605 431.552C210.269 431.744 210.001 432.024 209.801 432.392C209.601 432.76 209.501 433.192 209.501 433.688C209.501 434.192 209.601 434.632 209.801 435.008C210.001 435.376 210.269 435.66 210.605 435.86C210.941 436.052 211.313 436.148 211.721 436.148C212.129 436.148 212.501 436.052 212.837 435.86C213.181 435.66 213.453 435.376 213.653 435.008C213.853 434.632 213.953 434.196 213.953 433.7ZM228.01 430.304C228.522 430.304 228.978 430.412 229.378 430.628C229.778 430.836 230.094 431.152 230.326 431.576C230.558 432 230.674 432.516 230.674 433.124V437H229.594V433.28C229.594 432.624 229.43 432.124 229.102 431.78C228.782 431.428 228.346 431.252 227.794 431.252C227.226 431.252 226.774 431.436 226.438 431.804C226.102 432.164 225.934 432.688 225.934 433.376V437H224.854V433.28C224.854 432.624 224.69 432.124 224.362 431.78C224.042 431.428 223.606 431.252 223.054 431.252C222.486 431.252 222.034 431.436 221.698 431.804C221.362 432.164 221.194 432.688 221.194 433.376V437H220.102V430.424H221.194V431.372C221.41 431.028 221.698 430.764 222.058 430.58C222.426 430.396 222.83 430.304 223.27 430.304C223.822 430.304 224.31 430.428 224.734 430.676C225.158 430.924 225.474 431.288 225.682 431.768C225.866 431.304 226.17 430.944 226.594 430.688C227.018 430.432 227.49 430.304 228.01 430.304ZM235.333 437.108C234.717 437.108 234.157 436.968 233.653 436.688C233.157 436.408 232.765 436.012 232.477 435.5C232.197 434.98 232.057 434.38 232.057 433.7C232.057 433.028 232.201 432.436 232.489 431.924C232.785 431.404 233.185 431.008 233.689 430.736C234.193 430.456 234.757 430.316 235.381 430.316C236.005 430.316 236.569 430.456 237.073 430.736C237.577 431.008 237.973 431.4 238.261 431.912C238.557 432.424 238.705 433.02 238.705 433.7C238.705 434.38 238.553 434.98 238.249 435.5C237.953 436.012 237.549 436.408 237.037 436.688C236.525 436.968 235.957 437.108 235.333 437.108ZM235.333 436.148C235.725 436.148 236.093 436.056 236.437 435.872C236.781 435.688 237.057 435.412 237.265 435.044C237.481 434.676 237.589 434.228 237.589 433.7C237.589 433.172 237.485 432.724 237.277 432.356C237.069 431.988 236.797 431.716 236.461 431.54C236.125 431.356 235.761 431.264 235.369 431.264C234.969 431.264 234.601 431.356 234.265 431.54C233.937 431.716 233.673 431.988 233.473 432.356C233.273 432.724 233.173 433.172 233.173 433.7C233.173 434.236 233.269 434.688 233.461 435.056C233.661 435.424 233.925 435.7 234.253 435.884C234.581 436.06 234.941 436.148 235.333 436.148ZM241.233 431.492C241.425 431.116 241.697 430.824 242.049 430.616C242.409 430.408 242.845 430.304 243.357 430.304V431.432H243.069C241.845 431.432 241.233 432.096 241.233 433.424V437H240.141V430.424H241.233V431.492ZM250.617 433.46C250.617 433.668 250.605 433.888 250.581 434.12H245.325C245.365 434.768 245.585 435.276 245.985 435.644C246.393 436.004 246.885 436.184 247.461 436.184C247.933 436.184 248.325 436.076 248.637 435.86C248.957 435.636 249.181 435.34 249.309 434.972H250.485C250.309 435.604 249.957 436.12 249.429 436.52C248.901 436.912 248.245 437.108 247.461 437.108C246.837 437.108 246.277 436.968 245.781 436.688C245.293 436.408 244.909 436.012 244.629 435.5C244.349 434.98 244.209 434.38 244.209 433.7C244.209 433.02 244.345 432.424 244.617 431.912C244.889 431.4 245.269 431.008 245.757 430.736C246.253 430.456 246.821 430.316 247.461 430.316C248.085 430.316 248.637 430.452 249.117 430.724C249.597 430.996 249.965 431.372 250.221 431.852C250.485 432.324 250.617 432.86 250.617 433.46ZM249.489 433.232C249.489 432.816 249.397 432.46 249.213 432.164C249.029 431.86 248.777 431.632 248.457 431.48C248.145 431.32 247.797 431.24 247.413 431.24C246.861 431.24 246.389 431.416 245.997 431.768C245.613 432.12 245.393 432.608 245.337 433.232H249.489ZM146.336 448.304C146.848 448.304 147.304 448.412 147.704 448.628C148.104 448.836 148.42 449.152 148.652 449.576C148.884 450 149 450.516 149 451.124V455H147.92V451.28C147.92 450.624 147.756 450.124 147.428 449.78C147.108 449.428 146.672 449.252 146.12 449.252C145.552 449.252 145.1 449.436 144.764 449.804C144.428 450.164 144.26 450.688 144.26 451.376V455H143.18V451.28C143.18 450.624 143.016 450.124 142.688 449.78C142.368 449.428 141.932 449.252 141.38 449.252C140.812 449.252 140.36 449.436 140.024 449.804C139.688 450.164 139.52 450.688 139.52 451.376V455H138.428V448.424H139.52V449.372C139.736 449.028 140.024 448.764 140.384 448.58C140.752 448.396 141.156 448.304 141.596 448.304C142.148 448.304 142.636 448.428 143.06 448.676C143.484 448.924 143.8 449.288 144.008 449.768C144.192 449.304 144.496 448.944 144.92 448.688C145.344 448.432 145.816 448.304 146.336 448.304ZM156.623 448.424V455H155.531V454.028C155.323 454.364 155.031 454.628 154.655 454.82C154.287 455.004 153.879 455.096 153.431 455.096C152.919 455.096 152.459 454.992 152.051 454.784C151.643 454.568 151.319 454.248 151.079 453.824C150.847 453.4 150.731 452.884 150.731 452.276V448.424H151.811V452.132C151.811 452.78 151.975 453.28 152.303 453.632C152.631 453.976 153.079 454.148 153.647 454.148C154.231 454.148 154.691 453.968 155.027 453.608C155.363 453.248 155.531 452.724 155.531 452.036V448.424H156.623ZM160.795 455.108C160.291 455.108 159.839 455.024 159.439 454.856C159.039 454.68 158.723 454.44 158.491 454.136C158.259 453.824 158.131 453.468 158.107 453.068H159.235C159.267 453.396 159.419 453.664 159.691 453.872C159.971 454.08 160.335 454.184 160.783 454.184C161.199 454.184 161.527 454.092 161.767 453.908C162.007 453.724 162.127 453.492 162.127 453.212C162.127 452.924 161.999 452.712 161.743 452.576C161.487 452.432 161.091 452.292 160.555 452.156C160.067 452.028 159.667 451.9 159.355 451.772C159.051 451.636 158.787 451.44 158.563 451.184C158.347 450.92 158.239 450.576 158.239 450.152C158.239 449.816 158.339 449.508 158.539 449.228C158.739 448.948 159.023 448.728 159.391 448.568C159.759 448.4 160.179 448.316 160.651 448.316C161.379 448.316 161.967 448.5 162.415 448.868C162.863 449.236 163.103 449.74 163.135 450.38H162.043C162.019 450.036 161.879 449.76 161.623 449.552C161.375 449.344 161.039 449.24 160.615 449.24C160.223 449.24 159.911 449.324 159.679 449.492C159.447 449.66 159.331 449.88 159.331 450.152C159.331 450.368 159.399 450.548 159.535 450.692C159.679 450.828 159.855 450.94 160.063 451.028C160.279 451.108 160.575 451.2 160.951 451.304C161.423 451.432 161.807 451.56 162.103 451.688C162.399 451.808 162.651 451.992 162.859 452.24C163.075 452.488 163.187 452.812 163.195 453.212C163.195 453.572 163.095 453.896 162.895 454.184C162.695 454.472 162.411 454.7 162.043 454.868C161.683 455.028 161.267 455.108 160.795 455.108ZM164.329 451.7C164.329 451.02 164.465 450.428 164.737 449.924C165.009 449.412 165.385 449.016 165.865 448.736C166.353 448.456 166.909 448.316 167.533 448.316C168.341 448.316 169.005 448.512 169.525 448.904C170.053 449.296 170.401 449.84 170.569 450.536H169.393C169.281 450.136 169.061 449.82 168.733 449.588C168.413 449.356 168.013 449.24 167.533 449.24C166.909 449.24 166.405 449.456 166.021 449.888C165.637 450.312 165.445 450.916 165.445 451.7C165.445 452.492 165.637 453.104 166.021 453.536C166.405 453.968 166.909 454.184 167.533 454.184C168.013 454.184 168.413 454.072 168.733 453.848C169.053 453.624 169.273 453.304 169.393 452.888H170.569C170.393 453.56 170.041 454.1 169.513 454.508C168.985 454.908 168.325 455.108 167.533 455.108C166.909 455.108 166.353 454.968 165.865 454.688C165.385 454.408 165.009 454.012 164.737 453.5C164.465 452.988 164.329 452.388 164.329 451.7ZM173.118 446.12V455H172.026V446.12H173.118ZM180.979 451.46C180.979 451.668 180.967 451.888 180.943 452.12H175.687C175.727 452.768 175.947 453.276 176.347 453.644C176.755 454.004 177.247 454.184 177.823 454.184C178.295 454.184 178.687 454.076 178.999 453.86C179.319 453.636 179.543 453.34 179.671 452.972H180.847C180.671 453.604 180.319 454.12 179.791 454.52C179.263 454.912 178.607 455.108 177.823 455.108C177.199 455.108 176.639 454.968 176.143 454.688C175.655 454.408 175.271 454.012 174.991 453.5C174.711 452.98 174.571 452.38 174.571 451.7C174.571 451.02 174.707 450.424 174.979 449.912C175.251 449.4 175.631 449.008 176.119 448.736C176.615 448.456 177.183 448.316 177.823 448.316C178.447 448.316 178.999 448.452 179.479 448.724C179.959 448.996 180.327 449.372 180.583 449.852C180.847 450.324 180.979 450.86 180.979 451.46ZM179.851 451.232C179.851 450.816 179.759 450.46 179.575 450.164C179.391 449.86 179.139 449.632 178.819 449.48C178.507 449.32 178.159 449.24 177.775 449.24C177.223 449.24 176.751 449.416 176.359 449.768C175.975 450.12 175.755 450.608 175.699 451.232H179.851Z" fill="white"/>
<line x1="135.5" y1="385.5" x2="184.5" y2="385.5" stroke="#F7F8F8" stroke-linecap="round" stroke-linejoin="round"/>
<path d="M155.115 167.128C154.943 170.695 154.499 174.827 153.859 179.395C152.702 187.453 150.929 196.64 148.934 205.57C144.551 226.048 139.33 244.935 139.33 244.935C138.884 256.998 137.558 269.008 135.366 280.862C135.144 282.171 134.923 283.428 134.676 284.711C133.938 288.843 133.15 292.821 132.411 296.49C129.677 309.527 127.19 318.944 127.19 318.944L115.198 316.789C114.632 309.706 114.41 302.931 114.435 296.593C114.435 292.641 114.435 288.894 114.681 285.25C114.681 283.351 114.878 281.504 115.001 279.733C116.405 258.126 119.926 243.806 119.926 240.958C119.926 226.51 120.837 213.91 121.945 203.158C125.048 173.518 130.539 158.07 130.539 158.07C138.296 139.49 149.919 140.774 153.761 154.451C154.871 158.572 155.329 162.854 155.115 167.128Z" fill="#FFEDE5"/>
<path d="M193.259 300.545C193.259 305.677 192.963 311.092 192.52 316.686L180.528 319.073C180.528 319.073 178.41 310.989 175.923 299.39C175.012 295.13 174.051 290.408 173.14 285.43C172.894 284.019 172.623 282.556 172.377 281.119C170.171 269.18 168.838 257.084 168.387 244.935C168.387 244.935 163.118 225.869 158.685 205.288C156.764 196.46 154.991 187.324 153.76 179.343C153.095 174.801 152.677 170.618 152.504 167.077C152.241 162.757 152.665 158.422 153.76 154.246C157.651 140.568 169.249 139.311 177.006 157.864C177.006 157.864 182.473 173.262 185.551 202.721C186.85 215.354 187.533 228.048 187.595 240.752C187.595 243.601 191.141 257.638 192.52 278.937C192.52 280.734 192.742 282.556 192.84 284.429C193.234 289.536 193.333 294.874 193.259 300.545Z" fill="#FFEDE5"/>
<path d="M192.693 279.04C185.952 280.104 179.163 280.798 172.352 281.119C170.155 269.179 168.83 257.084 168.388 244.935C168.388 244.935 163.118 225.869 158.686 205.288C156.765 196.46 154.992 187.324 153.761 179.343C152.603 187.401 150.83 196.588 148.836 205.519C144.551 226.048 139.33 244.935 139.33 244.935C138.883 256.998 137.558 269.008 135.366 280.862C127.978 280.503 120.911 280.015 115.001 279.502C116.404 257.895 119.926 243.575 119.926 240.727C119.926 226.279 120.837 213.679 121.945 202.927C125.048 173.287 130.539 157.839 130.539 157.839C138.296 139.259 149.919 140.543 153.761 154.22C156.716 143.776 164.177 140.568 170.998 147.908C173.544 150.825 175.578 154.187 177.007 157.839C178.538 162.557 179.805 167.363 180.799 172.235C182.97 182.327 184.59 192.54 185.65 202.824C186.949 215.457 187.631 228.15 187.694 240.855C187.718 243.704 191.24 257.766 192.693 279.04Z" fill="#AB8DA8"/>
<path d="M180.897 172.363C174.15 164.69 144.575 162.817 144.575 162.817L171.096 148.164C173.642 151.082 175.676 154.444 177.105 158.095C178.632 162.771 179.898 167.535 180.897 172.363Z" fill="#826B80"/>
<path d="M128.766 331.673C128.78 331.801 128.78 331.93 128.766 332.058C128.372 337.832 123.841 336.959 117.143 337.19C111.799 337.19 108.943 334.085 109.263 330.723C109.368 329.705 109.724 328.732 110.297 327.9C111.822 325.417 112.937 322.684 113.597 319.817C113.887 318.519 114.59 317.361 115.592 316.532C119.802 312.991 123.841 315.711 125.86 317.661C126.763 318.501 127.391 319.614 127.658 320.843C128.417 324.398 128.788 328.031 128.766 331.673Z" fill="#3B2645"/>
<path d="M190.649 337.062C183.778 337.062 179.099 337.883 178.976 331.673V331.134C178.963 327.731 179.327 324.339 180.06 321.023C180.343 319.615 181.051 318.338 182.079 317.379C183.236 315.994 184.829 315.086 186.572 314.817C188.315 314.549 190.093 314.939 191.584 315.916C192.915 316.874 193.861 318.308 194.244 319.945C194.91 322.682 196.009 325.283 197.494 327.644C197.816 328.127 198.073 328.654 198.258 329.209C199.44 333.11 196.657 337.164 190.649 337.062Z" fill="#3B2645"/>
<path d="M166.22 67.8679C166.877 67.0691 167.297 66.0882 167.427 65.0451C167.497 63.3861 167.787 61.7452 168.289 60.1693C168.732 59.4717 169.096 58.7224 169.372 57.9367C169.463 57.5188 169.452 57.0838 169.341 56.6714C169.229 56.259 169.02 55.8823 168.732 55.5758C168.314 55.1396 167.723 54.8316 167.526 54.2414C167.476 53.8668 167.476 53.4868 167.526 53.1123C167.449 52.5573 167.24 52.0312 166.918 51.5827C166.595 51.1341 166.169 50.7776 165.679 50.5461C164.675 50.0354 163.605 49.6809 162.502 49.4939C161.418 49.3534 160.38 48.949 159.473 48.3135C159.1 47.9509 158.696 47.6245 158.267 47.3383C157.45 46.9737 156.541 46.9015 155.681 47.133C154.048 47.4281 152.453 47.9189 150.928 48.5958C150.378 48.8965 149.789 49.1126 149.18 49.2373C148.269 49.2373 147.308 49.0577 146.397 49.2373C145.715 49.4642 145.088 49.8434 144.561 50.3487C144.033 50.854 143.618 51.4731 143.344 52.1628C143.178 52.5604 142.925 52.912 142.605 53.1892C142.203 53.4029 141.771 53.5501 141.325 53.6255C140.761 53.8563 140.26 54.2271 139.865 54.7057C139.47 55.1842 139.194 55.756 139.059 56.3713C138.826 57.6429 138.826 58.949 139.059 60.2206C139.104 61.4778 139.235 62.7299 139.453 63.9673C141.916 74.232 142.63 71.3836 142.63 71.3836L150.017 70.588C153.366 70.2031 156.691 69.7925 160.015 69.305C161.345 69.0997 162.674 68.8174 164.004 68.5864C164.803 68.6393 165.592 68.3835 166.22 67.8679Z" fill="#3B2645"/>
<path d="M141.941 66.9184C141.696 66.5685 141.376 66.2838 141.005 66.0875C140.635 65.8911 140.226 65.7888 139.81 65.7888C139.395 65.7888 138.986 65.8911 138.616 66.0875C138.245 66.2838 137.925 66.5685 137.68 66.9184C135.637 69.6642 139.404 74.617 142.187 74.771C142.256 72.1507 142.174 69.5284 141.941 66.9184Z" fill="#E0855C"/>
<path d="M182.547 96.5579C179.861 103.805 177.696 111.25 176.071 118.832C175.874 119.808 175.726 120.757 175.554 121.681C175.381 122.605 175.307 123.298 175.209 124.042C175.11 124.786 175.209 125.094 175.012 125.813C174.249 133.511 172.82 154.888 172.549 158.532C172.549 158.891 172.549 159.07 172.549 159.07C153.416 165.204 133.149 160.328 133.149 160.328L133.002 159.199C132.558 155.657 128.421 117.78 128.274 116.266C127.412 107.259 126.796 98.9701 126.747 93.8121C126.747 93.0422 127.387 92.606 128.347 92.3237C129.899 91.8618 132.09 91.7848 133.814 91.4768C137.024 90.9177 140.265 90.5663 143.516 90.4247H144.304C144.468 90.4145 144.633 90.4145 144.797 90.4247H145.388L146.004 80.1599H146.964C147.591 80.2612 148.225 80.3127 148.86 80.3139C149.617 80.3252 150.374 80.2823 151.126 80.1856L152.184 80.0573C152.702 80.0573 153.169 79.8776 153.637 79.7493C154.392 79.5679 155.133 79.3277 155.854 79.0308C156.075 78.981 156.29 78.9035 156.494 78.7998H156.691L157.183 78.5689C158.087 78.1598 158.96 77.6794 159.794 77.1318L160.951 76.3106L161.148 76.131C161.305 76.0239 161.453 75.9038 161.591 75.7717L161.862 75.5408C161.862 75.9257 161.862 76.0797 161.862 76.2336C161.647 78.2277 161.532 80.232 161.517 82.2385C161.517 83.7013 161.517 85.164 161.517 86.4471C161.517 88.6284 161.517 90.2194 161.517 90.2194H162.896C162.921 90.2006 162.952 90.1905 162.983 90.1905C163.013 90.1905 163.044 90.2006 163.069 90.2194C165.065 90.2475 167.057 90.4276 169.028 90.7583C172.773 91.271 176.455 92.2001 180.011 93.5298C180.553 93.7608 180.946 93.9661 181.291 94.1457C181.636 94.3253 182.72 96.096 182.547 96.5579Z" fill="#FFEDE5"/>
<path d="M161.961 75.5665C161.681 77.4138 161.012 79.1735 160.002 80.719C158.992 82.2646 157.666 83.5575 156.118 84.5048C154.571 85.4521 152.842 86.0302 151.054 86.1974C149.267 86.3647 147.466 86.1169 145.782 85.472L146.102 80.16C148.907 80.6194 151.774 80.4471 154.509 79.6547C157.245 78.8624 159.786 77.4683 161.961 75.5665Z" fill="#E0855C"/>
<path d="M142.211 59.1942C140.832 60.7852 140.807 64.3266 140.807 68.0475C140.807 79.5698 144.206 83.0598 149.87 83.4447C155.533 83.8296 161.394 81.4431 162.182 70.6137C162.65 65.2504 163.142 60.349 161.222 58.0394C158.439 54.883 146.397 54.3441 142.211 59.1942Z" fill="#FFEDE5"/>
<path d="M161.468 69.2793C161.468 69.2793 163.044 64.4548 165.851 66.8927C168.658 69.3306 165.088 76.6699 160.926 76.2593C160.901 76.2593 160.187 70.9473 161.468 69.2793Z" fill="#FFEDE5"/>
<path d="M164.645 69.0996C164.011 69.3339 163.45 69.7416 163.02 70.2801C162.517 70.7429 162.114 71.3114 161.838 71.9481C161.838 72.1277 162.035 72.2304 162.158 72.1277C162.281 72.0251 162.773 71.3322 163.093 70.973C163.312 71.244 163.591 71.4553 163.906 71.5888C163.962 71.6147 164.024 71.6202 164.083 71.6045C164.142 71.5888 164.194 71.5529 164.231 71.5024C164.268 71.452 164.288 71.39 164.287 71.3266C164.286 71.2631 164.265 71.2018 164.226 71.1526C164.055 70.8884 163.827 70.6689 163.561 70.511C164.014 70.1867 164.442 69.8263 164.842 69.4332C164.869 69.4002 164.886 69.359 164.889 69.3154C164.893 69.2719 164.883 69.2283 164.861 69.1911C164.839 69.1539 164.806 69.1249 164.767 69.1085C164.728 69.092 164.685 69.0889 164.645 69.0996Z" fill="#E0855C"/>
<path d="M145.659 67.6112C145.659 67.6112 144.723 67.9962 144.797 66.2511C144.871 64.5061 145.585 64.8397 145.585 64.8397C145.585 64.8397 146.25 64.8397 146.176 66.1998C146.102 67.5599 145.659 67.6112 145.659 67.6112Z" fill="#3B2645"/>
<path d="M155.337 67.3033C155.337 67.3033 154.401 67.6882 154.499 65.9175C154.598 64.1469 155.263 64.5318 155.263 64.5318C155.263 64.5318 155.928 64.5318 155.878 65.8919C155.829 67.252 155.337 67.3033 155.337 67.3033Z" fill="#3B2645"/>
<path d="M150.189 72.1791C149.697 72.1791 148.589 72.4358 148.343 71.8969C148.408 70.6695 148.615 69.4547 148.958 68.2785C149.357 66.6972 149.678 65.0955 149.919 63.4797C149.919 63.4797 149.919 63.4797 149.746 63.4797C148.848 66.3353 148.173 69.2617 147.727 72.2305C147.715 72.2664 147.711 72.3049 147.717 72.3426C147.722 72.3802 147.736 72.4159 147.758 72.4464C147.78 72.4769 147.809 72.5013 147.842 72.5173C147.876 72.5334 147.912 72.5406 147.949 72.5384C148.663 72.5384 149.352 72.5384 150.066 72.5384C150.337 72.6154 150.386 72.2048 150.189 72.1791Z" fill="#E0855C"/>
<path d="M147.555 62.2992C146.965 62.2476 146.372 62.2476 145.782 62.2992C145.176 62.1509 144.557 62.0649 143.935 62.0426C143.864 62.0435 143.795 62.0656 143.736 62.1064C143.677 62.1472 143.63 62.2048 143.602 62.2725C143.573 62.3401 143.564 62.4149 143.575 62.4879C143.586 62.5609 143.617 62.6291 143.664 62.6842C144.237 63.1056 144.898 63.3769 145.593 63.4752C146.287 63.5735 146.994 63.4958 147.654 63.2487C147.756 63.2144 147.844 63.1442 147.903 63.0501C147.961 62.956 147.987 62.8437 147.976 62.7322C147.964 62.6206 147.916 62.5166 147.839 62.4378C147.763 62.3589 147.662 62.31 147.555 62.2992Z" fill="#3B2645"/>
<path d="M157.947 60.9392C157.117 61.4243 156.206 61.738 155.262 61.863C154.647 61.863 153.908 61.7347 153.416 62.171C153.385 62.2207 153.368 62.2786 153.368 62.3378C153.368 62.3969 153.385 62.4549 153.416 62.5046C154.376 63.9673 157.528 62.248 158.341 61.2215C158.365 61.0418 158.119 60.8622 157.947 60.9392Z" fill="#3B2645"/>
<path d="M153.809 75.1815C152.772 75.0274 151.719 75.0274 150.682 75.1815C149.968 75.1815 148.958 75.0532 148.441 75.669C149.007 76.2079 149.968 75.977 150.682 75.9513C151.722 76.0542 152.769 76.0542 153.809 75.9513C153.907 75.9513 154.001 75.9108 154.07 75.8386C154.14 75.7664 154.179 75.6685 154.179 75.5664C154.179 75.4643 154.14 75.3664 154.07 75.2942C154.001 75.222 153.907 75.1815 153.809 75.1815Z" fill="#E0855C"/>
<path d="M238.126 208.803H65.3811C64.9566 208.803 64.5495 208.628 64.2493 208.315C63.9492 208.002 63.7805 207.578 63.7805 207.135C63.7805 206.693 63.9492 206.269 64.2493 205.956C64.5495 205.643 64.9566 205.467 65.3811 205.467H238.126C238.55 205.467 238.957 205.643 239.257 205.956C239.558 206.269 239.726 206.693 239.726 207.135C239.726 207.578 239.558 208.002 239.257 208.315C238.957 208.628 238.55 208.803 238.126 208.803Z" fill="#3B2645"/>
<path d="M70.8479 215.732C70.1229 215.732 69.4277 215.432 68.9151 214.898C68.4025 214.364 68.1145 213.639 68.1145 212.884V201.31C68.1145 200.555 68.4025 199.83 68.9151 199.296C69.4277 198.762 70.1229 198.462 70.8479 198.462C71.5728 198.462 72.2681 198.762 72.7807 199.296C73.2933 199.83 73.5813 200.555 73.5813 201.31V212.832C73.5912 213.212 73.5277 213.589 73.3945 213.942C73.2612 214.295 73.0611 214.617 72.8059 214.887C72.5508 215.158 72.2459 215.372 71.9094 215.518C71.573 215.663 71.212 215.736 70.8479 215.732Z" fill="#3B2645"/>
<path d="M76.3146 225.817C75.5897 225.817 74.8944 225.517 74.3818 224.983C73.8692 224.449 73.5812 223.724 73.5812 222.969V191.302C73.646 190.59 73.9633 189.928 74.471 189.447C74.9788 188.966 75.6405 188.699 76.3269 188.699C77.0133 188.699 77.6751 188.966 78.1828 189.447C78.6906 189.928 79.0078 190.59 79.0726 191.302V222.969C79.0661 223.727 78.7727 224.451 78.2562 224.984C77.7396 225.518 77.0418 225.817 76.3146 225.817Z" fill="#291B30"/>
<path d="M81.8059 230.59C81.446 230.594 81.0891 230.522 80.756 230.38C80.4229 230.239 80.1202 230.029 79.8658 229.764C79.6113 229.498 79.4101 229.183 79.2739 228.836C79.1377 228.489 79.0692 228.117 79.0725 227.742V187.478C79.0725 186.723 79.3605 185.998 79.8731 185.464C80.3857 184.93 81.0809 184.63 81.8059 184.63C82.5308 184.63 83.2261 184.93 83.7387 185.464C84.2513 185.998 84.5392 186.723 84.5392 187.478V227.742C84.5392 228.497 84.2513 229.222 83.7387 229.756C83.2261 230.29 82.5308 230.59 81.8059 230.59Z" fill="#3B2645"/>
<path d="M230.27 215.732C230.995 215.732 231.69 215.432 232.203 214.898C232.715 214.364 233.003 213.639 233.003 212.884V201.31C233.003 200.555 232.715 199.83 232.203 199.296C231.69 198.762 230.995 198.462 230.27 198.462C229.545 198.462 228.85 198.762 228.337 199.296C227.825 199.83 227.537 200.555 227.537 201.31V212.832C227.53 213.211 227.596 213.587 227.73 213.938C227.865 214.29 228.065 214.61 228.32 214.88C228.574 215.15 228.878 215.364 229.212 215.51C229.547 215.657 229.907 215.732 230.27 215.732Z" fill="#3B2645"/>
<path d="M224.804 225.817C225.529 225.817 226.224 225.517 226.737 224.983C227.249 224.449 227.537 223.724 227.537 222.969V191.302C227.472 190.59 227.155 189.928 226.647 189.447C226.14 188.966 225.478 188.699 224.791 188.699C224.105 188.699 223.443 188.966 222.936 189.447C222.428 189.928 222.111 190.59 222.046 191.302V222.969C222.052 223.727 222.346 224.451 222.862 224.984C223.379 225.518 224.077 225.817 224.804 225.817Z" fill="#291B30"/>
<path d="M219.312 230.59C219.672 230.594 220.029 230.522 220.362 230.38C220.695 230.239 220.998 230.029 221.252 229.764C221.507 229.498 221.708 229.183 221.844 228.836C221.98 228.489 222.049 228.117 222.045 227.742V187.478C222.045 186.723 221.757 185.998 221.245 185.464C220.732 184.93 220.037 184.63 219.312 184.63C218.587 184.63 217.892 184.93 217.379 185.464C216.867 185.998 216.579 186.723 216.579 187.478V227.742C216.579 228.497 216.867 229.222 217.379 229.756C217.892 230.29 218.587 230.59 219.312 230.59Z" fill="#3B2645"/>
<path d="M137.434 113.187C136.425 116.852 135.029 120.389 133.272 123.734C132.558 125.274 129.677 131.792 129.554 132.048C125.072 142.288 118.743 157.402 118.177 159.199C116.773 164.998 113.769 198.744 113.745 198.744C110.666 203.568 104.806 201.31 104.806 201.31C104.806 201.31 104.806 200.284 104.535 198.539C103.87 191.071 102.294 170.079 104.116 157.659C104.633 154.22 106.579 145.88 109.041 136.462C111.011 128.764 111.873 121.45 114.212 113.957C116.183 107.509 119.153 101.441 123.004 95.9934C124.446 94.2782 126.337 93.0386 128.446 92.4264C129.357 92.4264 129.751 93.6582 130.514 94.0174C132.683 95.0727 134.427 96.8896 135.439 99.1498C137.585 103.467 138.287 108.407 137.434 113.187Z" fill="#FFEDE5"/>
<path d="M104.215 204.774C104.215 203.645 104.436 202.49 104.461 201.361C104.461 199.591 104.461 198.436 104.461 198.436C105.514 197.37 106.858 196.669 108.309 196.43C109.759 196.191 111.245 196.426 112.563 197.101C113.156 197.553 113.701 198.069 114.188 198.641C115.173 199.616 116.306 200.386 117.241 201.413C117.728 201.902 118.101 202.501 118.332 203.164C118.562 203.827 118.644 204.535 118.571 205.236C117.404 205.37 116.321 205.935 115.518 206.827C114.606 208.008 115 209.086 114.557 210.394C114.114 211.703 113.03 211.831 112.095 211.985C108.943 212.473 104.436 212.627 104.165 208.393C104.097 207.187 104.113 205.978 104.215 204.774Z" fill="#FFEDE5"/>
<path d="M202.788 198.359C202.641 200.104 202.518 201.13 202.518 201.13C202.518 201.13 196.657 203.466 193.554 198.564C193.554 198.564 190.55 164.921 189.048 159.122C188.801 158.147 186.881 153.399 184.467 147.651C182.054 141.903 174.297 124.324 174.051 123.734C172.284 120.395 170.887 116.856 169.889 113.187C168.955 108.344 169.623 103.315 171.785 98.9189C172.812 96.6686 174.551 94.856 176.711 93.7865C177.473 93.3877 178.321 93.202 179.173 93.2476C179.443 93.2468 179.71 93.299 179.961 93.4016C180.417 93.5331 180.85 93.7411 181.242 94.0175C181.844 94.4563 182.405 94.9547 182.916 95.5059C187.331 100.408 190.593 106.311 192.446 112.751C194.908 120.449 196.361 128.738 198.233 136.154C200.695 145.572 202.616 153.912 203.158 157.351C205.029 169.9 203.429 190.891 202.788 198.359Z" fill="#FFEDE5"/>
<path d="M203.01 204.8C203.01 203.517 202.863 202.234 202.838 201.361C202.838 199.591 202.838 198.436 202.838 198.436C201.791 197.369 200.451 196.667 199.004 196.428C197.557 196.189 196.074 196.424 194.761 197.102C194.165 197.559 193.613 198.074 193.111 198.641C192.151 199.616 190.993 200.386 190.082 201.413C189.591 201.899 189.215 202.497 188.984 203.161C188.753 203.825 188.674 204.535 188.753 205.236C189.882 205.546 190.985 205.95 192.052 206.442C192.963 207.418 192.274 208.29 192.274 209.419C192.274 210.985 193.308 211.524 194.736 211.78L197.494 212.293C198.957 212.66 200.494 212.525 201.878 211.908C202.076 211.79 202.252 211.633 202.395 211.447C202.512 211.259 202.596 211.05 202.641 210.831C203.112 208.86 203.237 206.817 203.01 204.8Z" fill="#FFEDE5"/>
<path d="M176.07 118.833L177.449 158.994C154.696 168.258 130.095 159.609 130.095 159.609L129.554 121.117L128.815 120.886C127.707 120.526 126.525 120.141 125.318 119.628C124.629 119.346 123.915 119.064 123.2 118.704C120.119 117.237 117.118 115.592 114.212 113.777C116.183 107.33 119.152 101.262 123.003 95.8138C124.452 94.1065 126.341 92.8685 128.446 92.2468C129.997 91.8106 132.189 91.7079 133.912 91.4C137.122 90.8408 140.363 90.4894 143.615 90.3478L152.553 113.444C156.381 105.916 159.745 98.1414 162.625 90.1682H162.871C162.896 90.1494 162.927 90.1393 162.958 90.1393C162.988 90.1393 163.019 90.1494 163.044 90.1682C165.04 90.1963 167.032 90.3764 169.003 90.7071C172.758 91.2381 176.448 92.1844 180.01 93.5299C180.466 93.6614 180.899 93.8694 181.291 94.1458C181.894 94.5846 182.454 95.0831 182.965 95.6342C187.38 100.536 190.643 106.439 192.495 112.879C189.532 114.295 186.499 115.545 183.409 116.626C179.321 117.96 176.07 118.833 176.07 118.833Z" fill="#3B2645"/>
<path d="M129.554 107.849V121.117L128.815 120.886C127.707 120.526 126.525 120.141 125.318 119.628C126.924 115.78 128.337 111.849 129.554 107.849Z" fill="#27192E"/>
<path d="M123.275 322.819C121.329 321.69 117.685 320.818 115.887 322.383C115.853 322.446 115.835 322.516 115.835 322.588C115.835 322.661 115.853 322.731 115.887 322.794V322.948C115.887 323.153 116.158 323.204 116.306 323.127C116.454 323.05 116.306 323.127 116.478 323.127C116.899 322.848 117.383 322.689 117.882 322.665C118.519 322.635 119.157 322.695 119.778 322.845C120.933 323.2 122.122 323.415 123.324 323.487C123.409 323.48 123.488 323.438 123.543 323.371C123.599 323.303 123.626 323.216 123.62 323.127C123.613 323.039 123.573 322.957 123.508 322.899C123.444 322.841 123.36 322.813 123.275 322.819Z" fill="#27192E"/>
<path d="M124.531 326.438C123.43 325.508 122.056 325.001 120.64 325.001C119.237 324.651 117.762 324.804 116.454 325.437C116.281 325.591 116.183 325.976 116.454 326.104C117.603 326.412 118.789 326.542 119.975 326.489C121.39 326.897 122.843 327.146 124.309 327.233C124.39 327.218 124.466 327.18 124.528 327.122C124.589 327.064 124.634 326.99 124.657 326.907C124.68 326.825 124.68 326.737 124.658 326.654C124.636 326.571 124.592 326.496 124.531 326.438Z" fill="#27192E"/>
<path d="M190.821 321.434C189.498 320.675 187.984 320.357 186.483 320.522C184.982 320.687 183.565 321.328 182.423 322.358C182.177 322.691 182.423 323.333 182.793 323.281C184.049 323.281 185.255 322.511 186.487 322.383C187.718 322.255 189.072 322.742 190.353 322.588C190.845 322.537 191.288 321.921 190.821 321.434Z" fill="#27192E"/>
<path d="M191.855 324.795C190.243 324.395 188.575 324.3 186.93 324.513C186.35 324.435 185.76 324.486 185.199 324.663C184.639 324.84 184.121 325.139 183.68 325.54C183.335 326.001 183.68 326.874 184.295 326.643C186.758 325.745 189.541 327.079 191.978 326.155C192.112 326.095 192.224 325.992 192.298 325.862C192.372 325.731 192.404 325.58 192.39 325.429C192.377 325.278 192.318 325.135 192.222 325.022C192.125 324.908 191.997 324.829 191.855 324.795Z" fill="#27192E"/>
<path d="M106.874 73.6676C98.5756 75.2586 89.9568 73.9242 81.8798 77.1576C81.3381 77.3886 81.3627 78.3381 82.0276 78.2867C86.9526 78.0045 91.7545 76.978 96.6548 76.67C100.201 76.4391 104.362 77.2346 107.588 75.4126C108.524 74.848 107.835 73.4879 106.874 73.6676Z" fill="#F7F8F8"/>
<path d="M109.878 61.6321C105.832 59.4593 101.653 57.5648 97.3688 55.9608C96.63 55.7041 96.2114 56.8589 96.8516 57.2695C100.719 59.5926 104.715 61.6749 108.819 63.5054C110.026 64.0443 111.11 62.2479 109.878 61.6321Z" fill="#F7F8F8"/>
<defs>
<filter id="filter0_d_255_3989" x="0" y="0" width="319" height="522" filterUnits="userSpaceOnUse" color-interpolation-filters="sRGB">
<feFlood flood-opacity="0" result="BackgroundImageFix"/>
<feColorMatrix in="SourceAlpha" type="matrix" values="0 0 0 0 0 0 0 0 0 0 0 0 0 0 0 0 0 0 127 0" result="hardAlpha"/>
<feOffset dy="10"/>
<feGaussianBlur stdDeviation="11"/>
<feColorMatrix type="matrix" values="0 0 0 0 0.772549 0 0 0 0 0.545098 0 0 0 0 0.94902 0 0 0 0.3 0"/>
<feBlend mode="normal" in2="BackgroundImageFix" result="effect1_dropShadow_255_3989"/>
<feBlend mode="normal" in="SourceGraphic" in2="effect1_dropShadow_255_3989" result="shape"/>
</filter>
<linearGradient id="paint0_linear_255_3989" x1="297" y1="490" x2="-70.9835" y2="473.618" gradientUnits="userSpaceOnUse">
<stop stop-color="#92A3FD"/>
<stop offset="1" stop-color="#9DCEFF"/>
</linearGradient>
</defs>
</svg>
