<svg width="320" height="522" viewBox="0 0 320 522" fill="none" xmlns="http://www.w3.org/2000/svg">
<g filter="url(#filter0_d_265_1592)">
<rect x="22.8267" y="12" width="275" height="478" rx="22" fill="url(#paint0_linear_265_1592)"/>
</g>
<path d="M120.111 375.446H123.331V377H118.151V367.228H120.111V375.446ZM131.787 372.954C131.787 373.234 131.768 373.486 131.731 373.71H126.061C126.108 374.27 126.304 374.709 126.649 375.026C126.994 375.343 127.419 375.502 127.923 375.502C128.651 375.502 129.169 375.189 129.477 374.564H131.591C131.367 375.311 130.938 375.927 130.303 376.412C129.668 376.888 128.889 377.126 127.965 377.126C127.218 377.126 126.546 376.963 125.949 376.636C125.361 376.3 124.899 375.829 124.563 375.222C124.236 374.615 124.073 373.915 124.073 373.122C124.073 372.319 124.236 371.615 124.563 371.008C124.89 370.401 125.347 369.935 125.935 369.608C126.523 369.281 127.2 369.118 127.965 369.118C128.702 369.118 129.36 369.277 129.939 369.594C130.527 369.911 130.98 370.364 131.297 370.952C131.624 371.531 131.787 372.198 131.787 372.954ZM129.757 372.394C129.748 371.89 129.566 371.489 129.211 371.19C128.856 370.882 128.422 370.728 127.909 370.728C127.424 370.728 127.013 370.877 126.677 371.176C126.35 371.465 126.15 371.871 126.075 372.394H129.757ZM132.713 373.094C132.713 372.31 132.867 371.615 133.175 371.008C133.493 370.401 133.917 369.935 134.449 369.608C134.991 369.281 135.593 369.118 136.255 369.118C136.834 369.118 137.338 369.235 137.767 369.468C138.206 369.701 138.556 369.995 138.817 370.35V369.244H140.791V377H138.817V375.866C138.565 376.23 138.215 376.533 137.767 376.776C137.329 377.009 136.82 377.126 136.241 377.126C135.588 377.126 134.991 376.958 134.449 376.622C133.917 376.286 133.493 375.815 133.175 375.208C132.867 374.592 132.713 373.887 132.713 373.094ZM138.817 373.122C138.817 372.646 138.724 372.24 138.537 371.904C138.351 371.559 138.099 371.297 137.781 371.12C137.464 370.933 137.123 370.84 136.759 370.84C136.395 370.84 136.059 370.929 135.751 371.106C135.443 371.283 135.191 371.545 134.995 371.89C134.809 372.226 134.715 372.627 134.715 373.094C134.715 373.561 134.809 373.971 134.995 374.326C135.191 374.671 135.443 374.937 135.751 375.124C136.069 375.311 136.405 375.404 136.759 375.404C137.123 375.404 137.464 375.315 137.781 375.138C138.099 374.951 138.351 374.69 138.537 374.354C138.724 374.009 138.817 373.598 138.817 373.122ZM147.004 369.132C147.928 369.132 148.674 369.426 149.244 370.014C149.813 370.593 150.098 371.405 150.098 372.45V377H148.138V372.716C148.138 372.1 147.984 371.629 147.676 371.302C147.368 370.966 146.948 370.798 146.416 370.798C145.874 370.798 145.445 370.966 145.128 371.302C144.82 371.629 144.666 372.1 144.666 372.716V377H142.706V369.244H144.666V370.21C144.927 369.874 145.258 369.613 145.66 369.426C146.07 369.23 146.518 369.132 147.004 369.132ZM162.816 377L161.752 375.95C160.846 376.762 159.74 377.168 158.434 377.168C157.715 377.168 157.08 377.047 156.53 376.804C155.988 376.552 155.568 376.202 155.27 375.754C154.971 375.297 154.822 374.769 154.822 374.172C154.822 373.528 155.004 372.949 155.368 372.436C155.732 371.923 156.268 371.507 156.978 371.19C156.726 370.882 156.544 370.588 156.432 370.308C156.32 370.019 156.264 369.711 156.264 369.384C156.264 368.936 156.38 368.535 156.614 368.18C156.847 367.816 157.178 367.531 157.608 367.326C158.046 367.121 158.555 367.018 159.134 367.018C159.722 367.018 160.226 367.13 160.646 367.354C161.066 367.578 161.378 367.877 161.584 368.25C161.789 368.623 161.878 369.039 161.85 369.496H159.946C159.955 369.188 159.88 368.955 159.722 368.796C159.563 368.628 159.348 368.544 159.078 368.544C158.816 368.544 158.597 368.623 158.42 368.782C158.252 368.931 158.168 369.127 158.168 369.37C158.168 369.603 158.238 369.837 158.378 370.07C158.518 370.294 158.746 370.574 159.064 370.91L161.528 373.346C161.546 373.327 161.56 373.309 161.57 373.29C161.579 373.271 161.588 373.253 161.598 373.234L162.396 371.904H164.44L163.46 373.626C163.273 373.99 163.072 374.335 162.858 374.662L165.224 377H162.816ZM158.49 375.544C159.255 375.544 159.932 375.273 160.52 374.732L158.112 372.352C157.206 372.753 156.754 373.323 156.754 374.06C156.754 374.48 156.912 374.835 157.23 375.124C157.547 375.404 157.967 375.544 158.49 375.544ZM176.18 367.228V368.81H173.576V377H171.616V368.81H169.012V367.228H176.18ZM181.054 377.126C180.307 377.126 179.635 376.963 179.038 376.636C178.441 376.3 177.969 375.829 177.624 375.222C177.288 374.615 177.12 373.915 177.12 373.122C177.12 372.329 177.293 371.629 177.638 371.022C177.993 370.415 178.473 369.949 179.08 369.622C179.687 369.286 180.363 369.118 181.11 369.118C181.857 369.118 182.533 369.286 183.14 369.622C183.747 369.949 184.223 370.415 184.568 371.022C184.923 371.629 185.1 372.329 185.1 373.122C185.1 373.915 184.918 374.615 184.554 375.222C184.199 375.829 183.714 376.3 183.098 376.636C182.491 376.963 181.81 377.126 181.054 377.126ZM181.054 375.418C181.409 375.418 181.74 375.334 182.048 375.166C182.365 374.989 182.617 374.727 182.804 374.382C182.991 374.037 183.084 373.617 183.084 373.122C183.084 372.385 182.888 371.82 182.496 371.428C182.113 371.027 181.642 370.826 181.082 370.826C180.522 370.826 180.051 371.027 179.668 371.428C179.295 371.82 179.108 372.385 179.108 373.122C179.108 373.859 179.29 374.429 179.654 374.83C180.027 375.222 180.494 375.418 181.054 375.418ZM190.836 369.132C191.76 369.132 192.506 369.426 193.076 370.014C193.645 370.593 193.93 371.405 193.93 372.45V377H191.97V372.716C191.97 372.1 191.816 371.629 191.508 371.302C191.2 370.966 190.78 370.798 190.248 370.798C189.706 370.798 189.277 370.966 188.96 371.302C188.652 371.629 188.498 372.1 188.498 372.716V377H186.538V369.244H188.498V370.21C188.759 369.874 189.09 369.613 189.492 369.426C189.902 369.23 190.35 369.132 190.836 369.132ZM203.004 372.954C203.004 373.234 202.985 373.486 202.948 373.71H197.278C197.324 374.27 197.52 374.709 197.866 375.026C198.211 375.343 198.636 375.502 199.14 375.502C199.868 375.502 200.386 375.189 200.694 374.564H202.808C202.584 375.311 202.154 375.927 201.52 376.412C200.885 376.888 200.106 377.126 199.182 377.126C198.435 377.126 197.763 376.963 197.166 376.636C196.578 376.3 196.116 375.829 195.78 375.222C195.453 374.615 195.29 373.915 195.29 373.122C195.29 372.319 195.453 371.615 195.78 371.008C196.106 370.401 196.564 369.935 197.152 369.608C197.74 369.281 198.416 369.118 199.182 369.118C199.919 369.118 200.577 369.277 201.156 369.594C201.744 369.911 202.196 370.364 202.514 370.952C202.84 371.531 203.004 372.198 203.004 372.954ZM200.974 372.394C200.964 371.89 200.782 371.489 200.428 371.19C200.073 370.882 199.639 370.728 199.126 370.728C198.64 370.728 198.23 370.877 197.894 371.176C197.567 371.465 197.366 371.871 197.292 372.394H200.974Z" fill="white"/>
<path d="M62.3524 410.636V419H61.2604V410.636H62.3524ZM64.3816 410.636H65.5936L64.4416 413.36H63.6736L64.3816 410.636ZM74.7466 412.304C75.2586 412.304 75.7146 412.412 76.1146 412.628C76.5146 412.836 76.8306 413.152 77.0626 413.576C77.2946 414 77.4106 414.516 77.4106 415.124V419H76.3306V415.28C76.3306 414.624 76.1666 414.124 75.8386 413.78C75.5186 413.428 75.0826 413.252 74.5306 413.252C73.9626 413.252 73.5106 413.436 73.1746 413.804C72.8386 414.164 72.6706 414.688 72.6706 415.376V419H71.5906V415.28C71.5906 414.624 71.4266 414.124 71.0986 413.78C70.7786 413.428 70.3426 413.252 69.7906 413.252C69.2226 413.252 68.7706 413.436 68.4346 413.804C68.0986 414.164 67.9306 414.688 67.9306 415.376V419H66.8386V412.424H67.9306V413.372C68.1466 413.028 68.4346 412.764 68.7946 412.58C69.1626 412.396 69.5666 412.304 70.0066 412.304C70.5586 412.304 71.0466 412.428 71.4706 412.676C71.8946 412.924 72.2106 413.288 72.4186 413.768C72.6026 413.304 72.9066 412.944 73.3306 412.688C73.7546 412.432 74.2266 412.304 74.7466 412.304ZM82.9891 413.36H81.7651L82.9171 410.636H83.6971L82.9891 413.36ZM84.9331 413.36H83.7091L84.8611 410.636H85.6411L84.9331 413.36ZM89.2876 419.108C88.7836 419.108 88.3316 419.024 87.9316 418.856C87.5316 418.68 87.2156 418.44 86.9836 418.136C86.7516 417.824 86.6236 417.468 86.5996 417.068H87.7276C87.7596 417.396 87.9116 417.664 88.1836 417.872C88.4636 418.08 88.8276 418.184 89.2756 418.184C89.6916 418.184 90.0196 418.092 90.2596 417.908C90.4996 417.724 90.6196 417.492 90.6196 417.212C90.6196 416.924 90.4916 416.712 90.2356 416.576C89.9796 416.432 89.5836 416.292 89.0476 416.156C88.5596 416.028 88.1596 415.9 87.8476 415.772C87.5436 415.636 87.2796 415.44 87.0556 415.184C86.8396 414.92 86.7316 414.576 86.7316 414.152C86.7316 413.816 86.8316 413.508 87.0316 413.228C87.2316 412.948 87.5156 412.728 87.8836 412.568C88.2516 412.4 88.6716 412.316 89.1436 412.316C89.8716 412.316 90.4596 412.5 90.9076 412.868C91.3556 413.236 91.5956 413.74 91.6276 414.38H90.5356C90.5116 414.036 90.3716 413.76 90.1156 413.552C89.8676 413.344 89.5316 413.24 89.1076 413.24C88.7156 413.24 88.4036 413.324 88.1716 413.492C87.9396 413.66 87.8236 413.88 87.8236 414.152C87.8236 414.368 87.8916 414.548 88.0276 414.692C88.1716 414.828 88.3476 414.94 88.5556 415.028C88.7716 415.108 89.0676 415.2 89.4436 415.304C89.9156 415.432 90.2996 415.56 90.5956 415.688C90.8916 415.808 91.1436 415.992 91.3516 416.24C91.5676 416.488 91.6796 416.812 91.6876 417.212C91.6876 417.572 91.5876 417.896 91.3876 418.184C91.1876 418.472 90.9036 418.7 90.5356 418.868C90.1756 419.028 89.7596 419.108 89.2876 419.108ZM96.9012 419L94.3212 416.096V419H93.2292V410.12H94.3212V415.34L96.8532 412.424H98.3772L95.2812 415.7L98.3892 419H96.9012ZM99.969 411.356C99.761 411.356 99.585 411.284 99.441 411.14C99.297 410.996 99.225 410.82 99.225 410.612C99.225 410.404 99.297 410.228 99.441 410.084C99.585 409.94 99.761 409.868 99.969 409.868C100.169 409.868 100.337 409.94 100.473 410.084C100.617 410.228 100.689 410.404 100.689 410.612C100.689 410.82 100.617 410.996 100.473 411.14C100.337 411.284 100.169 411.356 99.969 411.356ZM100.497 412.424V419H99.405V412.424H100.497ZM105.562 412.304C106.362 412.304 107.01 412.548 107.506 413.036C108.002 413.516 108.25 414.212 108.25 415.124V419H107.17V415.28C107.17 414.624 107.006 414.124 106.678 413.78C106.35 413.428 105.902 413.252 105.334 413.252C104.758 413.252 104.298 413.432 103.954 413.792C103.618 414.152 103.45 414.676 103.45 415.364V419H102.358V412.424H103.45V413.36C103.666 413.024 103.958 412.764 104.326 412.58C104.702 412.396 105.114 412.304 105.562 412.304ZM113.238 412.304C114.038 412.304 114.686 412.548 115.182 413.036C115.678 413.516 115.926 414.212 115.926 415.124V419H114.846V415.28C114.846 414.624 114.682 414.124 114.354 413.78C114.026 413.428 113.578 413.252 113.01 413.252C112.434 413.252 111.974 413.432 111.63 413.792C111.294 414.152 111.126 414.676 111.126 415.364V419H110.034V412.424H111.126V413.36C111.342 413.024 111.634 412.764 112.002 412.58C112.378 412.396 112.79 412.304 113.238 412.304ZM123.374 412.424L119.414 422.096H118.286L119.582 418.928L116.93 412.424H118.142L120.206 417.752L122.246 412.424H123.374ZM130.347 413.324H128.967V419H127.875V413.324H127.023V412.424H127.875V411.956C127.875 411.22 128.063 410.684 128.439 410.348C128.823 410.004 129.435 409.832 130.275 409.832V410.744C129.795 410.744 129.455 410.84 129.255 411.032C129.063 411.216 128.967 411.524 128.967 411.956V412.424H130.347V413.324ZM131.212 415.688C131.212 415.016 131.348 414.428 131.62 413.924C131.892 413.412 132.264 413.016 132.736 412.736C133.216 412.456 133.748 412.316 134.332 412.316C134.908 412.316 135.408 412.44 135.832 412.688C136.256 412.936 136.572 413.248 136.78 413.624V412.424H137.884V419H136.78V417.776C136.564 418.16 136.24 418.48 135.808 418.736C135.384 418.984 134.888 419.108 134.32 419.108C133.736 419.108 133.208 418.964 132.736 418.676C132.264 418.388 131.892 417.984 131.62 417.464C131.348 416.944 131.212 416.352 131.212 415.688ZM136.78 415.7C136.78 415.204 136.68 414.772 136.48 414.404C136.28 414.036 136.008 413.756 135.664 413.564C135.328 413.364 134.956 413.264 134.548 413.264C134.14 413.264 133.768 413.36 133.432 413.552C133.096 413.744 132.828 414.024 132.628 414.392C132.428 414.76 132.328 415.192 132.328 415.688C132.328 416.192 132.428 416.632 132.628 417.008C132.828 417.376 133.096 417.66 133.432 417.86C133.768 418.052 134.14 418.148 134.548 418.148C134.956 418.148 135.328 418.052 135.664 417.86C136.008 417.66 136.28 417.376 136.48 417.008C136.68 416.632 136.78 416.196 136.78 415.7ZM141.061 413.324V417.2C141.061 417.52 141.129 417.748 141.265 417.884C141.401 418.012 141.637 418.076 141.973 418.076H142.777V419H141.793C141.185 419 140.729 418.86 140.425 418.58C140.121 418.3 139.969 417.84 139.969 417.2V413.324H139.117V412.424H139.969V410.768H141.061V412.424H142.777V413.324H141.061ZM144.268 410.636H145.48L144.328 413.36H143.56L144.268 410.636ZM146.212 410.636H147.424L146.272 413.36H145.492L146.212 410.636ZM149.007 419.072C148.799 419.072 148.623 419 148.479 418.856C148.335 418.712 148.263 418.536 148.263 418.328C148.263 418.12 148.335 417.944 148.479 417.8C148.623 417.656 148.799 417.584 149.007 417.584C149.207 417.584 149.375 417.656 149.511 417.8C149.655 417.944 149.727 418.12 149.727 418.328C149.727 418.536 149.655 418.712 149.511 418.856C149.375 419 149.207 419.072 149.007 419.072ZM155.47 410.12V419H154.378V410.12H155.47ZM160.199 419.108C159.583 419.108 159.023 418.968 158.519 418.688C158.023 418.408 157.631 418.012 157.343 417.5C157.063 416.98 156.923 416.38 156.923 415.7C156.923 415.028 157.067 414.436 157.355 413.924C157.651 413.404 158.051 413.008 158.555 412.736C159.059 412.456 159.623 412.316 160.247 412.316C160.871 412.316 161.435 412.456 161.939 412.736C162.443 413.008 162.839 413.4 163.127 413.912C163.423 414.424 163.571 415.02 163.571 415.7C163.571 416.38 163.419 416.98 163.115 417.5C162.819 418.012 162.415 418.408 161.903 418.688C161.391 418.968 160.823 419.108 160.199 419.108ZM160.199 418.148C160.591 418.148 160.959 418.056 161.303 417.872C161.647 417.688 161.923 417.412 162.131 417.044C162.347 416.676 162.455 416.228 162.455 415.7C162.455 415.172 162.351 414.724 162.143 414.356C161.935 413.988 161.663 413.716 161.327 413.54C160.991 413.356 160.627 413.264 160.235 413.264C159.835 413.264 159.467 413.356 159.131 413.54C158.803 413.716 158.539 413.988 158.339 414.356C158.139 414.724 158.039 415.172 158.039 415.7C158.039 416.236 158.135 416.688 158.327 417.056C158.527 417.424 158.791 417.7 159.119 417.884C159.447 418.06 159.807 418.148 160.199 418.148ZM167.875 419.108C167.259 419.108 166.699 418.968 166.195 418.688C165.699 418.408 165.307 418.012 165.019 417.5C164.739 416.98 164.599 416.38 164.599 415.7C164.599 415.028 164.743 414.436 165.031 413.924C165.327 413.404 165.727 413.008 166.231 412.736C166.735 412.456 167.299 412.316 167.923 412.316C168.547 412.316 169.111 412.456 169.615 412.736C170.119 413.008 170.515 413.4 170.803 413.912C171.099 414.424 171.247 415.02 171.247 415.7C171.247 416.38 171.095 416.98 170.791 417.5C170.495 418.012 170.091 418.408 169.579 418.688C169.067 418.968 168.499 419.108 167.875 419.108ZM167.875 418.148C168.267 418.148 168.635 418.056 168.979 417.872C169.323 417.688 169.599 417.412 169.807 417.044C170.023 416.676 170.131 416.228 170.131 415.7C170.131 415.172 170.027 414.724 169.819 414.356C169.611 413.988 169.339 413.716 169.003 413.54C168.667 413.356 168.303 413.264 167.911 413.264C167.511 413.264 167.143 413.356 166.807 413.54C166.479 413.716 166.215 413.988 166.015 414.356C165.815 414.724 165.715 415.172 165.715 415.7C165.715 416.236 165.811 416.688 166.003 417.056C166.203 417.424 166.467 417.7 166.795 417.884C167.123 418.06 167.483 418.148 167.875 418.148ZM176.354 419L173.774 416.096V419H172.682V410.12H173.774V415.34L176.306 412.424H177.83L174.734 415.7L177.842 419H176.354ZM183.389 413.324V417.2C183.389 417.52 183.457 417.748 183.593 417.884C183.729 418.012 183.965 418.076 184.301 418.076H185.105V419H184.121C183.513 419 183.057 418.86 182.753 418.58C182.449 418.3 182.297 417.84 182.297 417.2V413.324H181.445V412.424H182.297V410.768H183.389V412.424H185.105V413.324H183.389ZM189.692 412.304C190.188 412.304 190.636 412.412 191.036 412.628C191.436 412.836 191.748 413.152 191.972 413.576C192.204 414 192.32 414.516 192.32 415.124V419H191.24V415.28C191.24 414.624 191.076 414.124 190.748 413.78C190.42 413.428 189.972 413.252 189.404 413.252C188.828 413.252 188.368 413.432 188.024 413.792C187.688 414.152 187.52 414.676 187.52 415.364V419H186.428V410.12H187.52V413.36C187.736 413.024 188.032 412.764 188.408 412.58C188.792 412.396 189.22 412.304 189.692 412.304ZM194.668 411.356C194.46 411.356 194.284 411.284 194.14 411.14C193.996 410.996 193.924 410.82 193.924 410.612C193.924 410.404 193.996 410.228 194.14 410.084C194.284 409.94 194.46 409.868 194.668 409.868C194.868 409.868 195.036 409.94 195.172 410.084C195.316 410.228 195.388 410.404 195.388 410.612C195.388 410.82 195.316 410.996 195.172 411.14C195.036 411.284 194.868 411.356 194.668 411.356ZM195.196 412.424V419H194.104V412.424H195.196ZM200.261 412.304C201.061 412.304 201.709 412.548 202.205 413.036C202.701 413.516 202.949 414.212 202.949 415.124V419H201.869V415.28C201.869 414.624 201.705 414.124 201.377 413.78C201.049 413.428 200.601 413.252 200.033 413.252C199.457 413.252 198.997 413.432 198.653 413.792C198.317 414.152 198.149 414.676 198.149 415.364V419H197.057V412.424H198.149V413.36C198.365 413.024 198.657 412.764 199.025 412.58C199.401 412.396 199.813 412.304 200.261 412.304ZM209.024 413.648C209.248 413.256 209.576 412.936 210.008 412.688C210.44 412.44 210.932 412.316 211.484 412.316C212.076 412.316 212.608 412.456 213.08 412.736C213.552 413.016 213.924 413.412 214.196 413.924C214.468 414.428 214.604 415.016 214.604 415.688C214.604 416.352 214.468 416.944 214.196 417.464C213.924 417.984 213.548 418.388 213.068 418.676C212.596 418.964 212.068 419.108 211.484 419.108C210.916 419.108 210.416 418.984 209.984 418.736C209.56 418.488 209.24 418.172 209.024 417.788V419H207.932V410.12H209.024V413.648ZM213.488 415.688C213.488 415.192 213.388 414.76 213.188 414.392C212.988 414.024 212.716 413.744 212.372 413.552C212.036 413.36 211.664 413.264 211.256 413.264C210.856 413.264 210.484 413.364 210.14 413.564C209.804 413.756 209.532 414.04 209.324 414.416C209.124 414.784 209.024 415.212 209.024 415.7C209.024 416.196 209.124 416.632 209.324 417.008C209.532 417.376 209.804 417.66 210.14 417.86C210.484 418.052 210.856 418.148 211.256 418.148C211.664 418.148 212.036 418.052 212.372 417.86C212.716 417.66 212.988 417.376 213.188 417.008C213.388 416.632 213.488 416.192 213.488 415.688ZM221.874 412.424V419H220.782V418.028C220.574 418.364 220.282 418.628 219.906 418.82C219.538 419.004 219.13 419.096 218.682 419.096C218.17 419.096 217.71 418.992 217.302 418.784C216.894 418.568 216.57 418.248 216.33 417.824C216.098 417.4 215.982 416.884 215.982 416.276V412.424H217.062V416.132C217.062 416.78 217.226 417.28 217.554 417.632C217.882 417.976 218.33 418.148 218.898 418.148C219.482 418.148 219.942 417.968 220.278 417.608C220.614 417.248 220.782 416.724 220.782 416.036V412.424H221.874ZM225.049 413.324V417.2C225.049 417.52 225.117 417.748 225.253 417.884C225.389 418.012 225.625 418.076 225.961 418.076H226.765V419H225.781C225.173 419 224.717 418.86 224.413 418.58C224.109 418.3 223.957 417.84 223.957 417.2V413.324H223.105V412.424H223.957V410.768H225.049V412.424H226.765V413.324H225.049ZM234.552 412.304C235.048 412.304 235.496 412.412 235.896 412.628C236.296 412.836 236.608 413.152 236.832 413.576C237.064 414 237.18 414.516 237.18 415.124V419H236.1V415.28C236.1 414.624 235.936 414.124 235.608 413.78C235.28 413.428 234.832 413.252 234.264 413.252C233.688 413.252 233.228 413.432 232.884 413.792C232.548 414.152 232.38 414.676 232.38 415.364V419H231.288V410.12H232.38V413.36C232.596 413.024 232.892 412.764 233.268 412.58C233.652 412.396 234.08 412.304 234.552 412.304ZM238.556 415.688C238.556 415.016 238.692 414.428 238.964 413.924C239.236 413.412 239.608 413.016 240.08 412.736C240.56 412.456 241.092 412.316 241.676 412.316C242.252 412.316 242.752 412.44 243.176 412.688C243.6 412.936 243.916 413.248 244.124 413.624V412.424H245.228V419H244.124V417.776C243.908 418.16 243.584 418.48 243.152 418.736C242.728 418.984 242.232 419.108 241.664 419.108C241.08 419.108 240.552 418.964 240.08 418.676C239.608 418.388 239.236 417.984 238.964 417.464C238.692 416.944 238.556 416.352 238.556 415.688ZM244.124 415.7C244.124 415.204 244.024 414.772 243.824 414.404C243.624 414.036 243.352 413.756 243.008 413.564C242.672 413.364 242.3 413.264 241.892 413.264C241.484 413.264 241.112 413.36 240.776 413.552C240.44 413.744 240.172 414.024 239.972 414.392C239.772 414.76 239.672 415.192 239.672 415.688C239.672 416.192 239.772 416.632 239.972 417.008C240.172 417.376 240.44 417.66 240.776 417.86C241.112 418.052 241.484 418.148 241.892 418.148C242.3 418.148 242.672 418.052 243.008 417.86C243.352 417.66 243.624 417.376 243.824 417.008C244.024 416.632 244.124 416.196 244.124 415.7ZM249.521 417.992L251.561 412.424H252.725L250.145 419H248.873L246.293 412.424H247.469L249.521 417.992ZM259.799 415.46C259.799 415.668 259.787 415.888 259.763 416.12H254.507C254.547 416.768 254.767 417.276 255.167 417.644C255.575 418.004 256.067 418.184 256.643 418.184C257.115 418.184 257.507 418.076 257.819 417.86C258.139 417.636 258.363 417.34 258.491 416.972H259.667C259.491 417.604 259.139 418.12 258.611 418.52C258.083 418.912 257.427 419.108 256.643 419.108C256.019 419.108 255.459 418.968 254.963 418.688C254.475 418.408 254.091 418.012 253.811 417.5C253.531 416.98 253.391 416.38 253.391 415.7C253.391 415.02 253.527 414.424 253.799 413.912C254.071 413.4 254.451 413.008 254.939 412.736C255.435 412.456 256.003 412.316 256.643 412.316C257.267 412.316 257.819 412.452 258.299 412.724C258.779 412.996 259.147 413.372 259.403 413.852C259.667 414.324 259.799 414.86 259.799 415.46ZM258.671 415.232C258.671 414.816 258.579 414.46 258.395 414.164C258.211 413.86 257.959 413.632 257.639 413.48C257.327 413.32 256.979 413.24 256.595 413.24C256.043 413.24 255.571 413.416 255.179 413.768C254.795 414.12 254.575 414.608 254.519 415.232H258.671ZM77.1265 430.304C77.9265 430.304 78.5745 430.548 79.0705 431.036C79.5665 431.516 79.8145 432.212 79.8145 433.124V437H78.7345V433.28C78.7345 432.624 78.5705 432.124 78.2425 431.78C77.9145 431.428 77.4665 431.252 76.8985 431.252C76.3225 431.252 75.8625 431.432 75.5185 431.792C75.1825 432.152 75.0145 432.676 75.0145 433.364V437H73.9225V430.424H75.0145V431.36C75.2305 431.024 75.5225 430.764 75.8905 430.58C76.2665 430.396 76.6785 430.304 77.1265 430.304ZM84.4663 437.108C83.8503 437.108 83.2903 436.968 82.7863 436.688C82.2903 436.408 81.8983 436.012 81.6103 435.5C81.3303 434.98 81.1903 434.38 81.1903 433.7C81.1903 433.028 81.3343 432.436 81.6223 431.924C81.9183 431.404 82.3183 431.008 82.8223 430.736C83.3263 430.456 83.8903 430.316 84.5143 430.316C85.1383 430.316 85.7023 430.456 86.2063 430.736C86.7103 431.008 87.1063 431.4 87.3943 431.912C87.6903 432.424 87.8383 433.02 87.8383 433.7C87.8383 434.38 87.6863 434.98 87.3823 435.5C87.0863 436.012 86.6823 436.408 86.1703 436.688C85.6583 436.968 85.0903 437.108 84.4663 437.108ZM84.4663 436.148C84.8583 436.148 85.2263 436.056 85.5703 435.872C85.9143 435.688 86.1903 435.412 86.3983 435.044C86.6143 434.676 86.7223 434.228 86.7223 433.7C86.7223 433.172 86.6183 432.724 86.4103 432.356C86.2023 431.988 85.9303 431.716 85.5943 431.54C85.2583 431.356 84.8943 431.264 84.5023 431.264C84.1023 431.264 83.7343 431.356 83.3983 431.54C83.0703 431.716 82.8063 431.988 82.6063 432.356C82.4063 432.724 82.3063 433.172 82.3063 433.7C82.3063 434.236 82.4023 434.688 82.5943 435.056C82.7943 435.424 83.0583 435.7 83.3863 435.884C83.7143 436.06 84.0743 436.148 84.4663 436.148ZM94.8013 437.108C94.2973 437.108 93.8453 437.024 93.4453 436.856C93.0453 436.68 92.7293 436.44 92.4973 436.136C92.2653 435.824 92.1373 435.468 92.1133 435.068H93.2413C93.2733 435.396 93.4253 435.664 93.6973 435.872C93.9773 436.08 94.3413 436.184 94.7893 436.184C95.2053 436.184 95.5333 436.092 95.7733 435.908C96.0133 435.724 96.1333 435.492 96.1333 435.212C96.1333 434.924 96.0053 434.712 95.7493 434.576C95.4933 434.432 95.0973 434.292 94.5613 434.156C94.0733 434.028 93.6733 433.9 93.3613 433.772C93.0573 433.636 92.7933 433.44 92.5693 433.184C92.3533 432.92 92.2453 432.576 92.2453 432.152C92.2453 431.816 92.3453 431.508 92.5453 431.228C92.7453 430.948 93.0293 430.728 93.3973 430.568C93.7653 430.4 94.1853 430.316 94.6573 430.316C95.3853 430.316 95.9733 430.5 96.4213 430.868C96.8693 431.236 97.1093 431.74 97.1413 432.38H96.0493C96.0253 432.036 95.8853 431.76 95.6293 431.552C95.3813 431.344 95.0453 431.24 94.6213 431.24C94.2293 431.24 93.9173 431.324 93.6853 431.492C93.4533 431.66 93.3373 431.88 93.3373 432.152C93.3373 432.368 93.4053 432.548 93.5413 432.692C93.6853 432.828 93.8613 432.94 94.0693 433.028C94.2853 433.108 94.5813 433.2 94.9573 433.304C95.4293 433.432 95.8133 433.56 96.1093 433.688C96.4053 433.808 96.6573 433.992 96.8653 434.24C97.0813 434.488 97.1933 434.812 97.2013 435.212C97.2013 435.572 97.1013 435.896 96.9013 436.184C96.7013 436.472 96.4173 436.7 96.0493 436.868C95.6893 437.028 95.2733 437.108 94.8013 437.108ZM102.007 430.304C102.503 430.304 102.951 430.412 103.351 430.628C103.751 430.836 104.063 431.152 104.287 431.576C104.519 432 104.635 432.516 104.635 433.124V437H103.555V433.28C103.555 432.624 103.391 432.124 103.063 431.78C102.735 431.428 102.287 431.252 101.719 431.252C101.143 431.252 100.683 431.432 100.339 431.792C100.003 432.152 99.8348 432.676 99.8348 433.364V437H98.7428V428.12H99.8348V431.36C100.051 431.024 100.347 430.764 100.723 430.58C101.107 430.396 101.535 430.304 102.007 430.304ZM106.011 433.688C106.011 433.016 106.147 432.428 106.419 431.924C106.691 431.412 107.063 431.016 107.535 430.736C108.015 430.456 108.547 430.316 109.131 430.316C109.707 430.316 110.207 430.44 110.631 430.688C111.055 430.936 111.371 431.248 111.579 431.624V430.424H112.683V437H111.579V435.776C111.363 436.16 111.039 436.48 110.607 436.736C110.183 436.984 109.687 437.108 109.119 437.108C108.535 437.108 108.007 436.964 107.535 436.676C107.063 436.388 106.691 435.984 106.419 435.464C106.147 434.944 106.011 434.352 106.011 433.688ZM111.579 433.7C111.579 433.204 111.479 432.772 111.279 432.404C111.079 432.036 110.807 431.756 110.463 431.564C110.127 431.364 109.755 431.264 109.347 431.264C108.939 431.264 108.567 431.36 108.231 431.552C107.895 431.744 107.627 432.024 107.427 432.392C107.227 432.76 107.127 433.192 107.127 433.688C107.127 434.192 107.227 434.632 107.427 435.008C107.627 435.376 107.895 435.66 108.231 435.86C108.567 436.052 108.939 436.148 109.347 436.148C109.755 436.148 110.127 436.052 110.463 435.86C110.807 435.66 111.079 435.376 111.279 435.008C111.479 434.632 111.579 434.196 111.579 433.7ZM115.62 431.636C115.836 431.26 116.156 430.948 116.58 430.7C117.012 430.444 117.512 430.316 118.08 430.316C118.664 430.316 119.192 430.456 119.664 430.736C120.144 431.016 120.52 431.412 120.792 431.924C121.064 432.428 121.2 433.016 121.2 433.688C121.2 434.352 121.064 434.944 120.792 435.464C120.52 435.984 120.144 436.388 119.664 436.676C119.192 436.964 118.664 437.108 118.08 437.108C117.52 437.108 117.024 436.984 116.592 436.736C116.168 436.48 115.844 436.164 115.62 435.788V440.12H114.528V430.424H115.62V431.636ZM120.084 433.688C120.084 433.192 119.984 432.76 119.784 432.392C119.584 432.024 119.312 431.744 118.968 431.552C118.632 431.36 118.26 431.264 117.852 431.264C117.452 431.264 117.08 431.364 116.736 431.564C116.4 431.756 116.128 432.04 115.92 432.416C115.72 432.784 115.62 433.212 115.62 433.7C115.62 434.196 115.72 434.632 115.92 435.008C116.128 435.376 116.4 435.66 116.736 435.86C117.08 436.052 117.452 436.148 117.852 436.148C118.26 436.148 118.632 436.052 118.968 435.86C119.312 435.66 119.584 435.376 119.784 435.008C119.984 434.632 120.084 434.192 120.084 433.688ZM128.637 433.46C128.637 433.668 128.625 433.888 128.601 434.12H123.345C123.385 434.768 123.605 435.276 124.005 435.644C124.413 436.004 124.905 436.184 125.481 436.184C125.953 436.184 126.345 436.076 126.657 435.86C126.977 435.636 127.201 435.34 127.329 434.972H128.505C128.329 435.604 127.977 436.12 127.449 436.52C126.921 436.912 126.265 437.108 125.481 437.108C124.857 437.108 124.297 436.968 123.801 436.688C123.313 436.408 122.929 436.012 122.649 435.5C122.369 434.98 122.229 434.38 122.229 433.7C122.229 433.02 122.365 432.424 122.637 431.912C122.909 431.4 123.289 431.008 123.777 430.736C124.273 430.456 124.841 430.316 125.481 430.316C126.105 430.316 126.657 430.452 127.137 430.724C127.617 430.996 127.985 431.372 128.241 431.852C128.505 432.324 128.637 432.86 128.637 433.46ZM127.509 433.232C127.509 432.816 127.417 432.46 127.233 432.164C127.049 431.86 126.797 431.632 126.477 431.48C126.165 431.32 125.817 431.24 125.433 431.24C124.881 431.24 124.409 431.416 124.017 431.768C123.633 432.12 123.413 432.608 123.357 433.232H127.509ZM130.427 437.072C130.219 437.072 130.043 437 129.899 436.856C129.755 436.712 129.683 436.536 129.683 436.328C129.683 436.12 129.755 435.944 129.899 435.8C130.043 435.656 130.219 435.584 130.427 435.584C130.627 435.584 130.795 435.656 130.931 435.8C131.075 435.944 131.147 436.12 131.147 436.328C131.147 436.536 131.075 436.712 130.931 436.856C130.795 437 130.627 437.072 130.427 437.072ZM136.89 428.636V437H135.798V428.636H136.89ZM150.71 430.424L148.658 437H147.53L145.946 431.78L144.362 437H143.234L141.17 430.424H142.286L143.798 435.944L145.43 430.424H146.546L148.142 435.956L149.63 430.424H150.71ZM151.386 433.688C151.386 433.016 151.522 432.428 151.794 431.924C152.066 431.412 152.438 431.016 152.91 430.736C153.39 430.456 153.922 430.316 154.506 430.316C155.082 430.316 155.582 430.44 156.006 430.688C156.43 430.936 156.746 431.248 156.954 431.624V430.424H158.058V437H156.954V435.776C156.738 436.16 156.414 436.48 155.982 436.736C155.558 436.984 155.062 437.108 154.494 437.108C153.91 437.108 153.382 436.964 152.91 436.676C152.438 436.388 152.066 435.984 151.794 435.464C151.522 434.944 151.386 434.352 151.386 433.688ZM156.954 433.7C156.954 433.204 156.854 432.772 156.654 432.404C156.454 432.036 156.182 431.756 155.838 431.564C155.502 431.364 155.13 431.264 154.722 431.264C154.314 431.264 153.942 431.36 153.606 431.552C153.27 431.744 153.002 432.024 152.802 432.392C152.602 432.76 152.502 433.192 152.502 433.688C152.502 434.192 152.602 434.632 152.802 435.008C153.002 435.376 153.27 435.66 153.606 435.86C153.942 436.052 154.314 436.148 154.722 436.148C155.13 436.148 155.502 436.052 155.838 435.86C156.182 435.66 156.454 435.376 156.654 435.008C156.854 434.632 156.954 434.196 156.954 433.7ZM163.107 430.304C163.907 430.304 164.555 430.548 165.051 431.036C165.547 431.516 165.795 432.212 165.795 433.124V437H164.715V433.28C164.715 432.624 164.551 432.124 164.223 431.78C163.895 431.428 163.447 431.252 162.879 431.252C162.303 431.252 161.843 431.432 161.499 431.792C161.163 432.152 160.995 432.676 160.995 433.364V437H159.903V430.424H160.995V431.36C161.211 431.024 161.503 430.764 161.871 430.58C162.247 430.396 162.659 430.304 163.107 430.304ZM168.911 431.324V435.2C168.911 435.52 168.979 435.748 169.115 435.884C169.251 436.012 169.487 436.076 169.823 436.076H170.627V437H169.643C169.035 437 168.579 436.86 168.275 436.58C167.971 436.3 167.819 435.84 167.819 435.2V431.324H166.967V430.424H167.819V428.768H168.911V430.424H170.627V431.324H168.911ZM176.481 431.324V435.2C176.481 435.52 176.549 435.748 176.685 435.884C176.821 436.012 177.057 436.076 177.393 436.076H178.197V437H177.213C176.605 437 176.149 436.86 175.845 436.58C175.541 436.3 175.389 435.84 175.389 435.2V431.324H174.537V430.424H175.389V428.768H176.481V430.424H178.197V431.324H176.481ZM182.388 437.108C181.772 437.108 181.212 436.968 180.708 436.688C180.212 436.408 179.82 436.012 179.532 435.5C179.252 434.98 179.112 434.38 179.112 433.7C179.112 433.028 179.256 432.436 179.544 431.924C179.84 431.404 180.24 431.008 180.744 430.736C181.248 430.456 181.812 430.316 182.436 430.316C183.06 430.316 183.624 430.456 184.128 430.736C184.632 431.008 185.028 431.4 185.316 431.912C185.612 432.424 185.76 433.02 185.76 433.7C185.76 434.38 185.608 434.98 185.304 435.5C185.008 436.012 184.604 436.408 184.092 436.688C183.58 436.968 183.012 437.108 182.388 437.108ZM182.388 436.148C182.78 436.148 183.148 436.056 183.492 435.872C183.836 435.688 184.112 435.412 184.32 435.044C184.536 434.676 184.644 434.228 184.644 433.7C184.644 433.172 184.54 432.724 184.332 432.356C184.124 431.988 183.852 431.716 183.516 431.54C183.18 431.356 182.816 431.264 182.424 431.264C182.024 431.264 181.656 431.356 181.32 431.54C180.992 431.716 180.728 431.988 180.528 432.356C180.328 432.724 180.228 433.172 180.228 433.7C180.228 434.236 180.324 434.688 180.516 435.056C180.716 435.424 180.98 435.7 181.308 435.884C181.636 436.06 181.996 436.148 182.388 436.148ZM189.987 433.688C189.987 433.016 190.123 432.428 190.395 431.924C190.667 431.412 191.039 431.016 191.511 430.736C191.991 430.456 192.523 430.316 193.107 430.316C193.683 430.316 194.183 430.44 194.607 430.688C195.031 430.936 195.347 431.248 195.555 431.624V430.424H196.659V437H195.555V435.776C195.339 436.16 195.015 436.48 194.583 436.736C194.159 436.984 193.663 437.108 193.095 437.108C192.511 437.108 191.983 436.964 191.511 436.676C191.039 436.388 190.667 435.984 190.395 435.464C190.123 434.944 189.987 434.352 189.987 433.688ZM195.555 433.7C195.555 433.204 195.455 432.772 195.255 432.404C195.055 432.036 194.783 431.756 194.439 431.564C194.103 431.364 193.731 431.264 193.323 431.264C192.915 431.264 192.543 431.36 192.207 431.552C191.871 431.744 191.603 432.024 191.403 432.392C191.203 432.76 191.103 433.192 191.103 433.688C191.103 434.192 191.203 434.632 191.403 435.008C191.603 435.376 191.871 435.66 192.207 435.86C192.543 436.052 192.915 436.148 193.323 436.148C193.731 436.148 194.103 436.052 194.439 435.86C194.783 435.66 195.055 435.376 195.255 435.008C195.455 434.632 195.555 434.196 195.555 433.7ZM198.097 433.688C198.097 433.016 198.233 432.428 198.505 431.924C198.777 431.412 199.149 431.016 199.621 430.736C200.101 430.456 200.637 430.316 201.229 430.316C201.741 430.316 202.217 430.436 202.657 430.676C203.097 430.908 203.433 431.216 203.665 431.6V428.12H204.769V437H203.665V435.764C203.449 436.156 203.129 436.48 202.705 436.736C202.281 436.984 201.785 437.108 201.217 437.108C200.633 437.108 200.101 436.964 199.621 436.676C199.149 436.388 198.777 435.984 198.505 435.464C198.233 434.944 198.097 434.352 198.097 433.688ZM203.665 433.7C203.665 433.204 203.565 432.772 203.365 432.404C203.165 432.036 202.893 431.756 202.549 431.564C202.213 431.364 201.841 431.264 201.433 431.264C201.025 431.264 200.653 431.36 200.317 431.552C199.981 431.744 199.713 432.024 199.513 432.392C199.313 432.76 199.213 433.192 199.213 433.688C199.213 434.192 199.313 434.632 199.513 435.008C199.713 435.376 199.981 435.66 200.317 435.86C200.653 436.052 201.025 436.148 201.433 436.148C201.841 436.148 202.213 436.052 202.549 435.86C202.893 435.66 203.165 435.376 203.365 435.008C203.565 434.632 203.665 434.196 203.665 433.7ZM206.206 433.688C206.206 433.016 206.342 432.428 206.614 431.924C206.886 431.412 207.258 431.016 207.73 430.736C208.21 430.456 208.746 430.316 209.338 430.316C209.85 430.316 210.326 430.436 210.766 430.676C211.206 430.908 211.542 431.216 211.774 431.6V428.12H212.878V437H211.774V435.764C211.558 436.156 211.238 436.48 210.814 436.736C210.39 436.984 209.894 437.108 209.326 437.108C208.742 437.108 208.21 436.964 207.73 436.676C207.258 436.388 206.886 435.984 206.614 435.464C206.342 434.944 206.206 434.352 206.206 433.688ZM211.774 433.7C211.774 433.204 211.674 432.772 211.474 432.404C211.274 432.036 211.002 431.756 210.658 431.564C210.322 431.364 209.95 431.264 209.542 431.264C209.134 431.264 208.762 431.36 208.426 431.552C208.09 431.744 207.822 432.024 207.622 432.392C207.422 432.76 207.322 433.192 207.322 433.688C207.322 434.192 207.422 434.632 207.622 435.008C207.822 435.376 208.09 435.66 208.426 435.86C208.762 436.052 209.134 436.148 209.542 436.148C209.95 436.148 210.322 436.052 210.658 435.86C211.002 435.66 211.274 435.376 211.474 435.008C211.674 434.632 211.774 434.196 211.774 433.7ZM219.015 428.12V437H217.923V428.12H219.015ZM226.876 433.46C226.876 433.668 226.864 433.888 226.84 434.12H221.584C221.624 434.768 221.844 435.276 222.244 435.644C222.652 436.004 223.144 436.184 223.72 436.184C224.192 436.184 224.584 436.076 224.896 435.86C225.216 435.636 225.44 435.34 225.568 434.972H226.744C226.568 435.604 226.216 436.12 225.688 436.52C225.16 436.912 224.504 437.108 223.72 437.108C223.096 437.108 222.536 436.968 222.04 436.688C221.552 436.408 221.168 436.012 220.888 435.5C220.608 434.98 220.468 434.38 220.468 433.7C220.468 433.02 220.604 432.424 220.876 431.912C221.148 431.4 221.528 431.008 222.016 430.736C222.512 430.456 223.08 430.316 223.72 430.316C224.344 430.316 224.896 430.452 225.376 430.724C225.856 430.996 226.224 431.372 226.48 431.852C226.744 432.324 226.876 432.86 226.876 433.46ZM225.748 433.232C225.748 432.816 225.656 432.46 225.472 432.164C225.288 431.86 225.036 431.632 224.716 431.48C224.404 431.32 224.056 431.24 223.672 431.24C223.12 431.24 222.648 431.416 222.256 431.768C221.872 432.12 221.652 432.608 221.596 433.232H225.748ZM227.909 433.688C227.909 433.016 228.045 432.428 228.317 431.924C228.589 431.412 228.961 431.016 229.433 430.736C229.913 430.456 230.445 430.316 231.029 430.316C231.605 430.316 232.105 430.44 232.529 430.688C232.953 430.936 233.269 431.248 233.477 431.624V430.424H234.581V437H233.477V435.776C233.261 436.16 232.937 436.48 232.505 436.736C232.081 436.984 231.585 437.108 231.017 437.108C230.433 437.108 229.905 436.964 229.433 436.676C228.961 436.388 228.589 435.984 228.317 435.464C228.045 434.944 227.909 434.352 227.909 433.688ZM233.477 433.7C233.477 433.204 233.377 432.772 233.177 432.404C232.977 432.036 232.705 431.756 232.361 431.564C232.025 431.364 231.653 431.264 231.245 431.264C230.837 431.264 230.465 431.36 230.129 431.552C229.793 431.744 229.525 432.024 229.325 432.392C229.125 432.76 229.025 433.192 229.025 433.688C229.025 434.192 229.125 434.632 229.325 435.008C229.525 435.376 229.793 435.66 230.129 435.86C230.465 436.052 230.837 436.148 231.245 436.148C231.653 436.148 232.025 436.052 232.361 435.86C232.705 435.66 232.977 435.376 233.177 435.008C233.377 434.632 233.477 434.196 233.477 433.7ZM237.518 431.492C237.71 431.116 237.982 430.824 238.334 430.616C238.694 430.408 239.13 430.304 239.642 430.304V431.432H239.354C238.13 431.432 237.518 432.096 237.518 433.424V437H236.426V430.424H237.518V431.492ZM244.107 430.304C244.907 430.304 245.555 430.548 246.051 431.036C246.547 431.516 246.795 432.212 246.795 433.124V437H245.715V433.28C245.715 432.624 245.551 432.124 245.223 431.78C244.895 431.428 244.447 431.252 243.879 431.252C243.303 431.252 242.843 431.432 242.499 431.792C242.163 432.152 241.995 432.676 241.995 433.364V437H240.903V430.424H241.995V431.36C242.211 431.024 242.503 430.764 242.871 430.58C243.247 430.396 243.659 430.304 244.107 430.304ZM99.5551 448.304C100.067 448.304 100.523 448.412 100.923 448.628C101.323 448.836 101.639 449.152 101.871 449.576C102.103 450 102.219 450.516 102.219 451.124V455H101.139V451.28C101.139 450.624 100.975 450.124 100.647 449.78C100.327 449.428 99.8911 449.252 99.3391 449.252C98.7711 449.252 98.3191 449.436 97.9831 449.804C97.6471 450.164 97.4791 450.688 97.4791 451.376V455H96.3991V451.28C96.3991 450.624 96.2351 450.124 95.9071 449.78C95.5871 449.428 95.1511 449.252 94.5991 449.252C94.0311 449.252 93.5791 449.436 93.2431 449.804C92.9071 450.164 92.7391 450.688 92.7391 451.376V455H91.6471V448.424H92.7391V449.372C92.9551 449.028 93.2431 448.764 93.6031 448.58C93.9711 448.396 94.3751 448.304 94.8151 448.304C95.3671 448.304 95.8551 448.428 96.2791 448.676C96.7031 448.924 97.0191 449.288 97.2271 449.768C97.4111 449.304 97.7151 448.944 98.1391 448.688C98.5631 448.432 99.0351 448.304 99.5551 448.304ZM109.842 448.424V455H108.75V454.028C108.542 454.364 108.25 454.628 107.874 454.82C107.506 455.004 107.098 455.096 106.65 455.096C106.138 455.096 105.678 454.992 105.27 454.784C104.862 454.568 104.538 454.248 104.298 453.824C104.066 453.4 103.95 452.884 103.95 452.276V448.424H105.03V452.132C105.03 452.78 105.194 453.28 105.522 453.632C105.85 453.976 106.298 454.148 106.866 454.148C107.45 454.148 107.91 453.968 108.246 453.608C108.582 453.248 108.75 452.724 108.75 452.036V448.424H109.842ZM114.014 455.108C113.51 455.108 113.058 455.024 112.658 454.856C112.258 454.68 111.942 454.44 111.71 454.136C111.478 453.824 111.35 453.468 111.326 453.068H112.454C112.486 453.396 112.638 453.664 112.91 453.872C113.19 454.08 113.554 454.184 114.002 454.184C114.418 454.184 114.746 454.092 114.986 453.908C115.226 453.724 115.346 453.492 115.346 453.212C115.346 452.924 115.218 452.712 114.962 452.576C114.706 452.432 114.31 452.292 113.774 452.156C113.286 452.028 112.886 451.9 112.574 451.772C112.27 451.636 112.006 451.44 111.782 451.184C111.566 450.92 111.458 450.576 111.458 450.152C111.458 449.816 111.558 449.508 111.758 449.228C111.958 448.948 112.242 448.728 112.61 448.568C112.978 448.4 113.398 448.316 113.87 448.316C114.598 448.316 115.186 448.5 115.634 448.868C116.082 449.236 116.322 449.74 116.354 450.38H115.262C115.238 450.036 115.098 449.76 114.842 449.552C114.594 449.344 114.258 449.24 113.834 449.24C113.442 449.24 113.13 449.324 112.898 449.492C112.666 449.66 112.55 449.88 112.55 450.152C112.55 450.368 112.618 450.548 112.754 450.692C112.898 450.828 113.074 450.94 113.282 451.028C113.498 451.108 113.794 451.2 114.17 451.304C114.642 451.432 115.026 451.56 115.322 451.688C115.618 451.808 115.87 451.992 116.078 452.24C116.294 452.488 116.406 452.812 116.414 453.212C116.414 453.572 116.314 453.896 116.114 454.184C115.914 454.472 115.63 454.7 115.262 454.868C114.902 455.028 114.486 455.108 114.014 455.108ZM117.548 451.7C117.548 451.02 117.684 450.428 117.956 449.924C118.228 449.412 118.604 449.016 119.084 448.736C119.572 448.456 120.128 448.316 120.752 448.316C121.56 448.316 122.224 448.512 122.744 448.904C123.272 449.296 123.62 449.84 123.788 450.536H122.612C122.5 450.136 122.28 449.82 121.952 449.588C121.632 449.356 121.232 449.24 120.752 449.24C120.128 449.24 119.624 449.456 119.24 449.888C118.856 450.312 118.664 450.916 118.664 451.7C118.664 452.492 118.856 453.104 119.24 453.536C119.624 453.968 120.128 454.184 120.752 454.184C121.232 454.184 121.632 454.072 121.952 453.848C122.272 453.624 122.492 453.304 122.612 452.888H123.788C123.612 453.56 123.26 454.1 122.732 454.508C122.204 454.908 121.544 455.108 120.752 455.108C120.128 455.108 119.572 454.968 119.084 454.688C118.604 454.408 118.228 454.012 117.956 453.5C117.684 452.988 117.548 452.388 117.548 451.7ZM126.337 446.12V455H125.245V446.12H126.337ZM134.198 451.46C134.198 451.668 134.186 451.888 134.162 452.12H128.906C128.946 452.768 129.166 453.276 129.566 453.644C129.974 454.004 130.466 454.184 131.042 454.184C131.514 454.184 131.906 454.076 132.218 453.86C132.538 453.636 132.762 453.34 132.89 452.972H134.066C133.89 453.604 133.538 454.12 133.01 454.52C132.482 454.912 131.826 455.108 131.042 455.108C130.418 455.108 129.858 454.968 129.362 454.688C128.874 454.408 128.49 454.012 128.21 453.5C127.93 452.98 127.79 452.38 127.79 451.7C127.79 451.02 127.926 450.424 128.198 449.912C128.47 449.4 128.85 449.008 129.338 448.736C129.834 448.456 130.402 448.316 131.042 448.316C131.666 448.316 132.218 448.452 132.698 448.724C133.178 448.996 133.546 449.372 133.802 449.852C134.066 450.324 134.198 450.86 134.198 451.46ZM133.07 451.232C133.07 450.816 132.978 450.46 132.794 450.164C132.61 449.86 132.358 449.632 132.038 449.48C131.726 449.32 131.378 449.24 130.994 449.24C130.442 449.24 129.97 449.416 129.578 449.768C129.194 450.12 128.974 450.608 128.918 451.232H133.07ZM139.403 447.356C139.195 447.356 139.019 447.284 138.875 447.14C138.731 446.996 138.659 446.82 138.659 446.612C138.659 446.404 138.731 446.228 138.875 446.084C139.019 445.94 139.195 445.868 139.403 445.868C139.603 445.868 139.771 445.94 139.907 446.084C140.051 446.228 140.123 446.404 140.123 446.612C140.123 446.82 140.051 446.996 139.907 447.14C139.771 447.284 139.603 447.356 139.403 447.356ZM139.931 448.424V455H138.839V448.424H139.931ZM144.996 448.304C145.796 448.304 146.444 448.548 146.94 449.036C147.436 449.516 147.684 450.212 147.684 451.124V455H146.604V451.28C146.604 450.624 146.44 450.124 146.112 449.78C145.784 449.428 145.336 449.252 144.768 449.252C144.192 449.252 143.732 449.432 143.388 449.792C143.052 450.152 142.884 450.676 142.884 451.364V455H141.792V448.424H142.884V449.36C143.1 449.024 143.392 448.764 143.76 448.58C144.136 448.396 144.548 448.304 144.996 448.304ZM153.999 449.324V453.2C153.999 453.52 154.067 453.748 154.203 453.884C154.339 454.012 154.575 454.076 154.911 454.076H155.715V455H154.731C154.123 455 153.667 454.86 153.363 454.58C153.059 454.3 152.907 453.84 152.907 453.2V449.324H152.055V448.424H152.907V446.768H153.999V448.424H155.715V449.324H153.999ZM160.302 448.304C160.798 448.304 161.246 448.412 161.646 448.628C162.046 448.836 162.358 449.152 162.582 449.576C162.814 450 162.93 450.516 162.93 451.124V455H161.85V451.28C161.85 450.624 161.686 450.124 161.358 449.78C161.03 449.428 160.582 449.252 160.014 449.252C159.438 449.252 158.978 449.432 158.634 449.792C158.298 450.152 158.13 450.676 158.13 451.364V455H157.038V446.12H158.13V449.36C158.346 449.024 158.642 448.764 159.018 448.58C159.402 448.396 159.83 448.304 160.302 448.304ZM170.714 451.46C170.714 451.668 170.702 451.888 170.678 452.12H165.422C165.462 452.768 165.682 453.276 166.082 453.644C166.49 454.004 166.982 454.184 167.558 454.184C168.03 454.184 168.422 454.076 168.734 453.86C169.054 453.636 169.278 453.34 169.406 452.972H170.582C170.406 453.604 170.054 454.12 169.526 454.52C168.998 454.912 168.342 455.108 167.558 455.108C166.934 455.108 166.374 454.968 165.878 454.688C165.39 454.408 165.006 454.012 164.726 453.5C164.446 452.98 164.306 452.38 164.306 451.7C164.306 451.02 164.442 450.424 164.714 449.912C164.986 449.4 165.366 449.008 165.854 448.736C166.35 448.456 166.918 448.316 167.558 448.316C168.182 448.316 168.734 448.452 169.214 448.724C169.694 448.996 170.062 449.372 170.318 449.852C170.582 450.324 170.714 450.86 170.714 451.46ZM169.586 451.232C169.586 450.816 169.494 450.46 169.31 450.164C169.126 449.86 168.874 449.632 168.554 449.48C168.242 449.32 167.894 449.24 167.51 449.24C166.958 449.24 166.486 449.416 166.094 449.768C165.71 450.12 165.49 450.608 165.434 451.232H169.586ZM176.446 449.492C176.638 449.116 176.91 448.824 177.262 448.616C177.622 448.408 178.058 448.304 178.57 448.304V449.432H178.282C177.058 449.432 176.446 450.096 176.446 451.424V455H175.354V448.424H176.446V449.492ZM180.395 447.356C180.187 447.356 180.011 447.284 179.867 447.14C179.723 446.996 179.651 446.82 179.651 446.612C179.651 446.404 179.723 446.228 179.867 446.084C180.011 445.94 180.187 445.868 180.395 445.868C180.595 445.868 180.763 445.94 180.899 446.084C181.043 446.228 181.115 446.404 181.115 446.612C181.115 446.82 181.043 446.996 180.899 447.14C180.763 447.284 180.595 447.356 180.395 447.356ZM180.923 448.424V455H179.831V448.424H180.923ZM185.496 448.316C186.064 448.316 186.56 448.44 186.984 448.688C187.416 448.936 187.736 449.248 187.944 449.624V448.424H189.048V455.144C189.048 455.744 188.92 456.276 188.664 456.74C188.408 457.212 188.04 457.58 187.56 457.844C187.088 458.108 186.536 458.24 185.904 458.24C185.04 458.24 184.32 458.036 183.744 457.628C183.168 457.22 182.828 456.664 182.724 455.96H183.804C183.924 456.36 184.172 456.68 184.548 456.92C184.924 457.168 185.376 457.292 185.904 457.292C186.504 457.292 186.992 457.104 187.368 456.728C187.752 456.352 187.944 455.824 187.944 455.144V453.764C187.728 454.148 187.408 454.468 186.984 454.724C186.56 454.98 186.064 455.108 185.496 455.108C184.912 455.108 184.38 454.964 183.9 454.676C183.428 454.388 183.056 453.984 182.784 453.464C182.512 452.944 182.376 452.352 182.376 451.688C182.376 451.016 182.512 450.428 182.784 449.924C183.056 449.412 183.428 449.016 183.9 448.736C184.38 448.456 184.912 448.316 185.496 448.316ZM187.944 451.7C187.944 451.204 187.844 450.772 187.644 450.404C187.444 450.036 187.172 449.756 186.828 449.564C186.492 449.364 186.12 449.264 185.712 449.264C185.304 449.264 184.932 449.36 184.596 449.552C184.26 449.744 183.992 450.024 183.792 450.392C183.592 450.76 183.492 451.192 183.492 451.688C183.492 452.192 183.592 452.632 183.792 453.008C183.992 453.376 184.26 453.66 184.596 453.86C184.932 454.052 185.304 454.148 185.712 454.148C186.12 454.148 186.492 454.052 186.828 453.86C187.172 453.66 187.444 453.376 187.644 453.008C187.844 452.632 187.944 452.196 187.944 451.7ZM194.157 448.304C194.653 448.304 195.101 448.412 195.501 448.628C195.901 448.836 196.213 449.152 196.437 449.576C196.669 450 196.785 450.516 196.785 451.124V455H195.705V451.28C195.705 450.624 195.541 450.124 195.213 449.78C194.885 449.428 194.437 449.252 193.869 449.252C193.293 449.252 192.833 449.432 192.489 449.792C192.153 450.152 191.985 450.676 191.985 451.364V455H190.893V446.12H191.985V449.36C192.201 449.024 192.497 448.764 192.873 448.58C193.257 448.396 193.685 448.304 194.157 448.304ZM199.901 449.324V453.2C199.901 453.52 199.969 453.748 200.105 453.884C200.241 454.012 200.477 454.076 200.813 454.076H201.617V455H200.633C200.025 455 199.569 454.86 199.265 454.58C198.961 454.3 198.809 453.84 198.809 453.2V449.324H197.957V448.424H198.809V446.768H199.901V448.424H201.617V449.324H199.901ZM214.899 448.424L212.847 455H211.719L210.135 449.78L208.551 455H207.423L205.359 448.424H206.475L207.987 453.944L209.619 448.424H210.735L212.331 453.956L213.819 448.424H214.899ZM215.575 451.688C215.575 451.016 215.711 450.428 215.983 449.924C216.255 449.412 216.627 449.016 217.099 448.736C217.579 448.456 218.111 448.316 218.695 448.316C219.271 448.316 219.771 448.44 220.195 448.688C220.619 448.936 220.935 449.248 221.143 449.624V448.424H222.247V455H221.143V453.776C220.927 454.16 220.603 454.48 220.171 454.736C219.747 454.984 219.251 455.108 218.683 455.108C218.099 455.108 217.571 454.964 217.099 454.676C216.627 454.388 216.255 453.984 215.983 453.464C215.711 452.944 215.575 452.352 215.575 451.688ZM221.143 451.7C221.143 451.204 221.043 450.772 220.843 450.404C220.643 450.036 220.371 449.756 220.027 449.564C219.691 449.364 219.319 449.264 218.911 449.264C218.503 449.264 218.131 449.36 217.795 449.552C217.459 449.744 217.191 450.024 216.991 450.392C216.791 450.76 216.691 451.192 216.691 451.688C216.691 452.192 216.791 452.632 216.991 453.008C217.191 453.376 217.459 453.66 217.795 453.86C218.131 454.052 218.503 454.148 218.911 454.148C219.319 454.148 219.691 454.052 220.027 453.86C220.371 453.66 220.643 453.376 220.843 453.008C221.043 452.632 221.143 452.196 221.143 451.7ZM229.756 448.424L225.796 458.096H224.668L225.964 454.928L223.312 448.424H224.524L226.588 453.752L228.628 448.424H229.756Z" fill="white"/>
<line x1="136.327" y1="385.5" x2="185.327" y2="385.5" stroke="#F7F8F8" stroke-linecap="round" stroke-linejoin="round"/>
<path d="M149.937 342.229C145.465 342.237 141.004 341.743 136.633 340.754C128.992 339.113 121.794 335.721 115.558 330.823C109.322 325.925 104.204 319.642 100.571 312.427C97.6877 305.678 95.5462 298.609 94.1869 291.357L93.8733 289.975C89.3936 270.029 83.7491 248.935 73.3337 229.879C71.6538 226.812 69.8171 223.745 68.0476 220.795C63.7666 214.116 60.142 207.002 57.229 199.561C52.7492 186.802 53.578 174.113 59.6929 165.755C60.4984 164.457 61.5464 163.342 62.7742 162.477C64.002 161.612 65.3842 161.015 66.8381 160.722C67.7239 160.61 68.6224 160.689 69.4777 160.955C70.3331 161.221 71.1271 161.667 71.8106 162.267C72.3438 162.711 72.781 163.269 73.0937 163.902C73.4064 164.535 73.5874 165.231 73.6249 165.943H72.169C72.1339 165.446 72.0003 164.963 71.7766 164.524C71.5529 164.084 71.2441 163.698 70.8698 163.391C70.338 162.929 69.7231 162.584 69.0614 162.374C68.3997 162.165 67.7047 162.097 67.0172 162.173C64.4938 162.774 62.2883 164.367 60.8576 166.621C55.0563 174.605 54.138 186.708 58.6177 198.976C61.5061 206.363 65.1086 213.423 69.3691 220.046C71.1386 223.019 72.9753 226.086 74.6776 229.176C85.1154 248.373 90.8271 269.584 95.3069 289.647L95.6204 291.029C96.9512 298.162 99.0554 305.113 101.892 311.748C105.423 318.759 110.398 324.864 116.46 329.621C122.522 334.378 129.519 337.669 136.946 339.256C151.964 342.367 167.545 340.159 181.228 332.982C186.707 330.43 191.654 326.779 195.788 322.236C199.993 316.916 203.234 310.839 205.352 304.303C209.092 294.049 212.072 283.233 214.759 272.815C218.903 257.27 223.181 241.186 230.438 226.624C232.678 222.364 234.918 218.173 237.292 214.123C241.738 206.854 245.489 199.146 248.492 191.11C251.068 183.478 251.18 177.063 248.85 172.381C248.032 170.819 246.896 169.465 245.522 168.413C244.148 167.361 242.57 166.638 240.899 166.294C239.732 166.005 238.517 166.005 237.351 166.294C236.184 166.583 235.098 167.152 234.179 167.956L233.216 166.809C234.297 165.842 235.578 165.153 236.958 164.795C238.339 164.438 239.78 164.422 241.167 164.749C243.063 165.158 244.85 165.999 246.398 167.213C247.947 168.427 249.22 169.984 250.127 171.772C252.658 176.922 252.546 183.618 249.836 191.671C246.802 199.809 242.99 207.606 238.457 214.942C236.217 218.992 233.753 223.16 231.738 227.374C224.57 241.795 220.314 257.808 216.193 273.26C213.393 283.748 210.504 294.587 206.718 304.888C204.553 311.605 201.228 317.85 196.908 323.313C192.638 328.001 187.532 331.77 181.878 334.41C171.923 339.475 161.009 342.147 149.937 342.229Z" fill="#AB8DA8"/>
<path d="M166.377 69.628C167.536 67.7066 168.199 65.505 168.304 63.2367C168.43 62.218 168.341 61.1827 168.043 60.2038C167.745 59.2249 167.245 58.3262 166.579 57.5712C166.019 57.0093 165.325 56.5645 164.81 55.9558C164.294 55.3471 164.048 54.715 163.622 54.1297C163.161 53.5018 162.567 52.9935 161.888 52.6444C161.208 52.2952 160.46 52.1145 159.703 52.1164C158.157 52.1164 156.522 52.8655 155.223 52.1164C154.417 51.695 153.879 50.8522 152.983 50.3839C152.14 49.9354 151.172 49.8111 150.25 50.0328C149.445 50.3264 148.594 50.4613 147.742 50.4308C146.532 50.2435 145.703 49.1197 144.628 48.4876C144.076 48.1923 143.468 48.0269 142.848 48.003C142.227 47.9791 141.609 48.0974 141.037 48.3494C140.466 48.6015 139.953 48.9813 139.537 49.4621C139.12 49.943 138.809 50.5133 138.625 51.1331C138.479 51.7243 138.479 52.3446 138.625 52.9358C138.872 54.3638 139.813 55.511 139.88 56.9391C139.947 58.3672 139.118 59.608 139.88 60.8722C140.641 62.1364 141.761 62.1832 142.299 63.3772C143.016 64.9925 142.299 67.0995 142.948 68.832C143.284 69.9323 143.464 71.5009 144.449 72.2032C145.815 73.1865 148.794 72.3671 150.43 72.2032L156.768 71.6647C159.568 71.3838 163.018 71.6647 165.549 70.2132C165.854 70.068 166.134 69.8701 166.377 69.628Z" fill="#3B2645"/>
<path d="M144.875 68.5974C144.653 68.2782 144.361 68.0184 144.025 67.8393C143.688 67.6602 143.316 67.5669 142.938 67.5669C142.56 67.5669 142.188 67.6602 141.851 67.8393C141.514 68.0184 141.223 68.2782 141 68.5974C139.052 70.9385 142.344 75.6208 144.875 75.9017C145.023 73.4694 145.023 71.0297 144.875 68.5974Z" fill="#E0855C"/>
<path d="M176.345 107.812C175.755 111.756 174.963 115.663 173.971 119.518C173.814 120.244 173.68 120.946 173.59 121.625C173.501 122.304 173.411 122.819 173.299 123.685C173.299 123.849 173.299 124.036 173.299 124.2C173.299 124.762 173.142 125.347 173.075 125.979L170.253 153.488C152.715 158.521 134.415 153.488 134.415 153.488C134.415 153.488 134.415 153.136 134.415 152.458C134.124 149.344 133.228 139.441 132.332 128.274C132.332 128.274 132.332 128.11 132.332 128.04C132.341 127.868 132.341 127.696 132.332 127.525C131.951 122.842 131.593 117.879 131.302 113.15C130.764 104.933 130.428 97.3475 130.495 92.6418C130.495 90.9094 134.37 91.0967 137.013 90.7221C138.962 90.4412 140.955 90.2539 142.68 90.1602C144.405 90.0666 145.704 90.0198 146.578 90.0198H147.563C147.563 90.0198 147.787 87.3275 147.787 87.3041L148.392 80.7021C148.686 80.7813 148.985 80.8361 149.288 80.866C149.842 80.9745 150.404 81.0372 150.968 81.0533C151.707 81.0533 152.401 81.0533 153.051 81.0533L154.014 80.9362H154.574C155.201 80.8191 155.806 80.6787 156.366 80.5148C156.926 80.3509 157.105 80.2807 157.463 80.1636C159.1 79.6156 160.653 78.8273 162.077 77.8225L162.279 77.682L162.66 77.3777L162.929 77.167C162.929 77.4947 162.929 77.6352 162.929 77.7757C162.749 79.3208 162.548 81.2874 162.458 83.2305C162.458 84.5884 162.324 85.9228 162.279 87.0699C162.234 88.2171 161.876 89.8793 162.66 90.4646C162.94 90.6288 163.242 90.7473 163.556 90.8157C164.785 91.0186 166.03 91.1048 167.274 91.0733C167.655 91.0733 168.036 91.0733 168.416 91.0733C169.371 91.0151 170.328 91.0151 171.283 91.0733C171.951 91.0712 172.612 91.209 173.227 91.4784C173.843 91.7478 174.4 92.1434 174.867 92.6418C175.448 93.5202 175.817 94.5322 175.942 95.5916L176.211 97.5114C176.637 100.928 176.683 104.385 176.345 107.812Z" fill="#FFEDE5"/>
<path d="M162.839 77.0023C162.536 78.6777 161.882 80.2622 160.923 81.6418C159.964 83.0214 158.725 84.1618 157.294 84.9811C155.864 85.8004 154.277 86.2782 152.649 86.3802C151.02 86.4821 149.391 86.2057 147.877 85.5708L148.302 80.7247C150.839 81.2361 153.451 81.1683 155.96 80.5258C158.469 79.8833 160.816 78.6813 162.839 77.0023Z" fill="#E0855C"/>
<path d="M145.324 61.5752C144.025 62.9799 143.913 66.117 143.823 69.5818C143.487 80.1169 146.511 83.3945 151.64 83.9797C156.77 84.565 162.168 82.4814 163.265 72.7424C163.825 67.8494 164.408 63.3779 162.705 61.2474C160.264 58.1103 149.266 57.2675 145.324 61.5752Z" fill="#FFEDE5"/>
<path d="M162.504 71.3145C162.504 71.3145 164.072 66.96 166.558 69.2777C169.044 71.5954 165.617 78.174 161.809 77.6823C161.854 77.6823 161.339 72.8128 162.504 71.3145Z" fill="#FFEDE5"/>
<path d="M165.46 71.2669C164.872 71.4589 164.345 71.8151 163.937 72.297C163.474 72.7009 163.1 73.2039 162.839 73.7719C162.839 73.9358 162.996 74.0529 163.108 73.9358C163.424 73.6091 163.723 73.2653 164.004 72.9057C164.208 73.1412 164.461 73.3253 164.743 73.4442C164.967 73.4442 165.146 73.2335 165.057 73.0462C164.902 72.7983 164.695 72.5902 164.452 72.4375C164.87 72.1576 165.267 71.8446 165.639 71.5011C165.646 71.4729 165.647 71.4434 165.641 71.415C165.635 71.3865 165.623 71.3599 165.606 71.3371C165.588 71.3144 165.566 71.2962 165.541 71.2841C165.515 71.2719 165.488 71.266 165.46 71.2669Z" fill="#E0855C"/>
<path d="M148.235 69.3469C148.235 69.3469 147.361 69.6747 147.496 68.0593C147.63 66.4439 148.235 66.8185 148.235 66.8185C148.235 66.8185 148.84 66.8185 148.75 68.0827C148.661 69.3469 148.235 69.3469 148.235 69.3469Z" fill="#3B2645"/>
<path d="M157.038 69.3469C157.038 69.3469 156.187 69.6747 156.321 68.0593C156.456 66.4439 157.038 66.8185 157.038 66.8185C157.038 66.8185 157.643 66.8185 157.553 68.0827C157.464 69.3469 157.038 69.3469 157.038 69.3469Z" fill="#3B2645"/>
<path d="M149.176 64.4542C148.824 64.2459 148.418 64.1587 148.016 64.2049C147.614 64.2512 147.236 64.4285 146.936 64.7117C146.921 64.7438 146.914 64.7793 146.915 64.815C146.917 64.8507 146.927 64.8854 146.945 64.9158C146.963 64.9463 146.988 64.9714 147.018 64.989C147.048 65.0065 147.081 65.0158 147.115 65.0161C147.429 65.0161 147.698 64.8288 148.011 64.8054C148.34 64.789 148.668 64.8449 148.974 64.9693C149.266 65.0629 149.467 64.5947 149.176 64.4542Z" fill="#3B2645"/>
<path d="M158.359 65.2509C158.001 64.3144 156.455 64.2442 155.783 64.806C155.751 64.8323 155.725 64.866 155.706 64.9045C155.688 64.9431 155.679 64.9855 155.679 65.0284C155.679 65.0714 155.688 65.1138 155.706 65.1524C155.725 65.1909 155.751 65.2246 155.783 65.2509C156.186 65.2859 156.59 65.2859 156.993 65.2509C157.319 65.3057 157.635 65.4081 157.934 65.5552C157.972 65.6142 158.032 65.6547 158.099 65.6679C158.166 65.6811 158.236 65.6658 158.292 65.6254C158.349 65.5851 158.387 65.5229 158.4 65.4527C158.413 65.3824 158.398 65.3098 158.359 65.2509Z" fill="#3B2645"/>
<path d="M150.004 76.8854C151.894 77.1443 153.814 76.8016 155.515 75.9021C155.26 76.5268 154.884 77.089 154.409 77.5527C153.935 78.0163 153.373 78.3712 152.76 78.5944C150.811 79.1563 150.004 76.8854 150.004 76.8854Z" fill="white"/>
<path d="M138.693 92.618C143.844 96.3872 144.315 103.715 141.806 109.568C140.104 113.477 136.946 116.217 135.087 119.916C133.149 123.503 130.9 126.896 128.367 130.053C122.812 137.427 117.526 144.099 115.488 146.628C108.477 155.384 93.7384 166.949 88.4299 170.975C87.2204 171.912 86.5036 172.427 86.5036 172.427C86.5036 172.427 81.4191 169.641 82.7631 164.491C82.7631 164.491 102.922 142.109 105.901 137.544C109.193 131.61 112.184 125.499 114.86 119.237C118.295 112.291 121.871 105.44 125.589 98.6815C127.292 95.5678 129.464 91.6581 133.205 90.9558C134.715 90.7785 136.239 91.1151 137.55 91.9157C137.947 92.121 138.328 92.3557 138.693 92.618Z" fill="#FFEDE5"/>
<path d="M82.7637 164.514C83.3154 164.47 83.8695 164.47 84.4212 164.514C84.4212 164.514 89.2593 167.324 88.4306 170.976C88.4306 170.976 87.9154 171.468 87.1091 172.217C86.3027 172.966 85.4291 173.856 84.3764 174.979C83.3237 176.103 80.927 179.662 79.8967 179.357C79.6565 179.264 79.4467 179.102 79.2919 178.889L77.2088 176.548C76.0441 175.19 74.0954 172.896 75.5737 171.093C74.4986 171.772 71.9899 173.434 70.758 172.638L70.2428 171.772C70.2428 171.772 73.9386 168.892 75.4617 167.464C77.5164 165.664 80.0845 164.626 82.7637 164.514Z" fill="#FFEDE5"/>
<path d="M144.808 128.484C144.801 128.609 144.801 128.734 144.808 128.859C144.808 128.859 145.009 128.859 144.965 128.859L144.808 128.484Z" fill="#D6BED3"/>
<path d="M153.118 204.36C151.057 221.614 148.638 236.621 148.638 236.621C148.974 240.788 149.131 245.306 149.131 249.942C149.131 259.025 148.548 268.671 147.809 277.169C146.869 288.009 145.569 297.233 145.009 301.868V302.453C145.838 333.192 137.461 337.266 133.541 330.547C129.622 323.828 133.541 304.022 133.541 304.022C133.554 303.843 133.554 303.663 133.541 303.483C131.892 294.285 130.793 284.988 130.249 275.647C128.905 253.032 131.212 237.557 130.943 234.748C126.262 185.584 132.802 158.474 132.802 158.474C133.823 154.535 135.667 150.881 138.2 147.775C142.971 142.391 148.705 143.749 152.311 150.327C152.691 151.002 153.035 151.697 153.342 152.411C154.811 156.189 155.645 160.205 155.806 164.28C156.164 174.464 154.798 190.173 153.118 204.36Z" fill="#FFEDE5"/>
<path d="M176.256 274.453C175.735 283.989 174.643 293.481 172.986 302.874L172.784 304.022C172.784 304.022 176.704 323.898 172.784 330.547C168.865 337.195 160.577 333.309 161.316 302.874C161.316 302.734 161.316 302.593 161.316 302.476C160.689 298.075 159.435 288.547 158.449 277.263C157.688 268.694 157.105 259.095 157.105 250.012C157.105 245.33 157.284 240.835 157.62 236.644C157.62 236.644 155.134 221.637 153.141 204.407C151.461 190.196 150.072 174.487 150.654 164.397C150.822 160.32 151.663 156.304 153.141 152.527C153.434 151.792 153.778 151.08 154.171 150.397C158.315 142.882 165.214 142.226 170.298 150.701C171.755 153.158 172.899 155.802 173.703 158.568C173.703 158.568 180.243 185.608 175.562 234.841C175.226 237.604 177.443 252.54 176.256 274.453Z" fill="#FFEDE5"/>
<path d="M82.2259 179.708C82.6721 180.248 83.2264 180.679 83.8496 180.97C84.4727 181.262 85.1495 181.406 85.8321 181.394C86.1447 181.318 86.4394 181.176 86.6982 180.978C86.9571 180.779 87.1747 180.528 87.338 180.239C87.5013 179.95 87.6069 179.63 87.6483 179.297C87.6898 178.964 87.6663 178.626 87.5792 178.303C87.3187 177.591 86.8958 176.956 86.3472 176.454C82.965 172.942 79.4932 169.431 75.9766 166.176C75.3889 165.484 74.6035 165.008 73.7367 164.819C72.9306 164.818 72.1505 165.117 71.5352 165.661C70.92 166.206 70.5095 166.961 70.3769 167.792C70.3769 169.29 71.6089 169.852 72.6168 170.695C75.7974 173.645 78.978 176.735 82.2259 179.708Z" fill="#3B2645"/>
<path d="M81.7328 175.563C81.8722 175.413 81.9858 175.239 82.0687 175.048C82.1255 174.806 82.1288 174.554 82.0783 174.311C82.0279 174.067 81.925 173.839 81.7776 173.644C80.9488 172.216 79.2465 169.921 77.5666 169.711C77.012 169.681 76.4596 169.804 75.9645 170.067C75.4693 170.33 75.0487 170.723 74.7443 171.209C74.2417 171.965 73.922 172.837 73.8128 173.75C73.7035 174.664 73.808 175.591 74.1172 176.453C74.6088 178.004 75.6188 179.317 76.9618 180.152C77.632 180.449 78.386 180.464 79.0664 180.193C79.7467 179.923 80.3008 179.388 80.6128 178.701C80.9488 177.834 80.8368 176.781 81.3744 176.055C81.4763 175.878 81.5965 175.713 81.7328 175.563Z" fill="#FFEDE5"/>
<path d="M167.453 92.6185C162.279 96.3877 161.809 103.715 164.34 109.568C166.02 113.478 169.178 116.217 171.06 119.916C173.013 123.493 175.261 126.885 177.779 130.053C183.334 137.428 188.643 144.1 190.658 146.628C197.692 155.431 212.43 166.949 217.739 170.976L219.687 172.427C219.687 172.427 224.749 169.641 223.405 164.491C223.405 164.491 203.247 142.11 200.268 137.545C196.966 131.616 193.976 125.504 191.308 119.237C187.859 112.214 184.297 105.448 180.557 98.682C178.854 95.5683 176.704 91.6586 172.941 90.9563C171.432 90.7807 169.908 91.1172 168.596 91.9162C168.199 92.1205 167.817 92.3552 167.453 92.6185Z" fill="#FFEDE5"/>
<path d="M223.383 164.514C222.824 164.47 222.263 164.47 221.703 164.514C221.703 164.514 216.865 167.324 217.694 170.976C217.694 170.976 218.232 171.467 219.016 172.216C219.799 172.966 220.718 173.855 221.748 174.979C222.778 176.103 225.22 179.661 226.228 179.357C226.465 179.258 226.673 179.097 226.833 178.889L228.893 176.548C230.08 175.19 232.007 172.895 230.551 171.093C231.604 171.772 234.112 173.434 235.367 172.638L235.792 171.772C235.792 171.772 232.096 168.892 230.551 167.464C228.536 165.686 226.017 164.65 223.383 164.514Z" fill="#FFEDE5"/>
<path d="M223.898 179.708C223.452 180.248 222.898 180.679 222.275 180.97C221.651 181.261 220.975 181.406 220.292 181.394C219.975 181.323 219.676 181.185 219.412 180.989C219.148 180.793 218.925 180.542 218.758 180.253C218.59 179.964 218.48 179.641 218.436 179.306C218.392 178.971 218.414 178.629 218.5 178.303C218.78 177.623 219.209 177.021 219.755 176.547C223.144 173.036 226.609 169.61 230.148 166.27C230.732 165.574 231.519 165.097 232.387 164.912C233.191 164.913 233.968 165.212 234.58 165.757C235.191 166.302 235.597 167.056 235.725 167.885C235.725 169.384 234.515 169.946 233.485 170.788C230.327 173.645 227.146 176.735 223.898 179.708Z" fill="#3B2645"/>
<path d="M224.414 175.563C224.261 175.42 224.139 175.245 224.055 175.048C224.008 174.804 224.011 174.553 224.065 174.31C224.12 174.068 224.223 173.841 224.369 173.644C225.175 172.216 226.877 169.921 228.557 169.711C229.112 169.681 229.664 169.804 230.159 170.067C230.655 170.33 231.075 170.723 231.379 171.209C231.876 171.968 232.187 172.844 232.285 173.758C232.383 174.672 232.264 175.598 231.939 176.453C231.463 178.012 230.449 179.33 229.095 180.152C228.425 180.449 227.671 180.464 226.99 180.193C226.31 179.923 225.756 179.388 225.444 178.701C225.13 177.834 225.242 176.781 224.682 176.055L224.414 175.563Z" fill="#FFEDE5"/>
<path d="M176.592 259.446V261.787C176.592 263.356 176.592 264.971 176.592 266.633V268.53C176.592 270.449 176.458 272.439 176.368 274.476C170.569 276.148 164.597 277.084 158.584 277.262C158.337 274.64 157.844 267.663 157.822 266.891C157.822 265.299 157.486 260.804 157.464 260.195C157.329 256.777 157.24 253.359 157.24 250.011C157.24 245.657 157.396 241.396 157.71 237.439C157.71 237.158 157.71 236.901 157.71 236.643C157.71 236.386 155.224 221.66 153.23 204.406C153.006 206.232 152.782 208.058 152.558 209.814C150.677 224.657 148.683 236.643 148.683 236.643C149.019 240.811 149.176 245.329 149.176 249.964C149.176 253.5 149.176 256.988 148.93 260.687C148.93 261.295 148.482 269.115 148.415 269.864C148.258 272.369 148.056 274.827 147.855 277.192C144.719 277.051 141.628 276.841 138.559 276.56C136.14 276.349 133.094 276.208 130.137 275.764C130.003 273.657 129.913 271.643 129.846 269.677C129.846 269.185 129.846 268.693 129.846 268.202C129.846 266.048 129.846 264.011 129.846 262.045V260.499C129.846 246.312 131.168 236.971 130.966 234.747C126.285 185.584 132.825 158.473 132.825 158.473C133.846 154.534 135.69 150.88 138.223 147.774C140.143 148.085 142.027 148.603 143.845 149.32C146.615 150.076 149.473 150.415 152.334 150.326H154.395C156.881 150.326 159.368 150.022 161.831 149.952H163.489C165.851 149.915 168.21 150.15 170.522 150.654C171.904 153.137 172.973 155.797 173.703 158.567C175.512 167.403 176.576 176.389 176.883 185.42C177.642 201.905 177.2 218.426 175.562 234.841C175.293 236.924 176.48 245.844 176.592 259.446Z" fill="#3B2645"/>
<path d="M144.875 302.453C145.189 314.556 144.091 322.516 142.389 327.315C139.791 334.737 135.669 334.643 133.43 330.64C132.825 329.529 132.408 328.317 132.198 327.058C130.563 318.7 133.43 304.115 133.43 304.115C133.442 303.936 133.442 303.756 133.43 303.576C134.544 304.426 135.807 305.039 137.148 305.379C138.652 305.765 140.235 305.632 141.66 304.999C143.086 304.366 144.276 303.267 145.054 301.867L144.875 302.453Z" fill="#AB8DA8"/>
<path d="M174.128 326.403C173.937 327.89 173.481 329.328 172.784 330.64C170.365 334.76 166.199 334.737 163.623 326.754C162.055 322.072 161.047 314.276 161.383 302.851C163.06 304.426 165.221 305.323 167.476 305.379C169.487 305.186 171.397 304.371 172.963 303.038C173.005 303.404 173.005 303.773 172.963 304.139C172.963 304.139 175.517 317.951 174.128 326.403Z" fill="#AB8DA8"/>
<path d="M141.493 309.64C140.358 308.933 139.062 308.56 137.741 308.56C136.42 308.56 135.124 308.933 133.989 309.64C133.947 309.689 133.919 309.749 133.908 309.814C133.897 309.878 133.903 309.945 133.927 310.006C133.95 310.067 133.989 310.12 134.04 310.158C134.091 310.197 134.151 310.22 134.213 310.225C135.333 310.225 136.453 309.734 137.506 309.757C138.738 309.867 139.955 310.118 141.134 310.506C141.235 310.52 141.338 310.498 141.426 310.445C141.514 310.393 141.584 310.311 141.624 310.214C141.665 310.116 141.674 310.007 141.65 309.904C141.626 309.801 141.571 309.708 141.493 309.64Z" fill="#291B30"/>
<path d="M141.134 313.386C139.222 312.22 136.977 311.798 134.796 312.192C134.056 312.192 134.034 313.479 134.796 313.409C135.849 313.303 136.912 313.351 137.954 313.55C138.917 313.737 139.79 314.158 140.754 314.369C140.872 314.395 140.996 314.377 141.103 314.318C141.21 314.259 141.294 314.162 141.339 314.044C141.385 313.927 141.389 313.797 141.352 313.676C141.314 313.556 141.237 313.453 141.134 313.386Z" fill="#291B30"/>
<path d="M170.79 309.641C169.088 309.032 165.392 308.798 164.071 310.437C163.892 310.647 164.071 311.092 164.317 311.069C165.37 310.928 166.288 310.483 167.386 310.437C168.483 310.39 169.626 310.694 170.656 310.624C170.718 310.633 170.781 310.629 170.841 310.613C170.902 310.597 170.958 310.569 171.008 310.529C171.058 310.49 171.1 310.441 171.132 310.385C171.164 310.329 171.185 310.267 171.194 310.202C171.202 310.138 171.199 310.072 171.183 310.009C171.168 309.946 171.141 309.886 171.103 309.834C171.066 309.782 171.019 309.738 170.965 309.705C170.912 309.672 170.852 309.65 170.79 309.641Z" fill="#291B30"/>
<path d="M171.62 313.596C169.761 312.73 165.124 312.098 164.183 314.72C164.049 315.071 164.475 315.352 164.743 315.188C165.711 314.624 166.79 314.299 167.896 314.239C169.003 314.178 170.108 314.382 171.127 314.837C171.799 315.118 172.314 313.901 171.62 313.596Z" fill="#291B30"/>
<path d="M86.8178 89.8319C86.8178 89.6914 86.549 89.6914 86.5266 89.8319C85.4067 97.8151 86.0563 106.22 86.0563 114.39C86.0563 123.029 85.7875 131.738 86.2803 140.353C86.3014 140.445 86.3516 140.527 86.4227 140.586C86.4938 140.644 86.5817 140.676 86.6722 140.676C86.7627 140.676 86.8506 140.644 86.9217 140.586C86.9928 140.527 87.043 140.445 87.0642 140.353C87.5346 131.738 87.2658 123.029 87.2658 114.39C87.2658 106.407 87.9154 97.8854 86.8178 89.8319Z" fill="#F7F8F8"/>
<path d="M96.6062 92.5477C96.5824 92.4327 96.5216 92.3298 96.434 92.256C96.3464 92.1821 96.2372 92.1418 96.1247 92.1418C96.0121 92.1418 95.903 92.1821 95.8153 92.256C95.7277 92.3298 95.6669 92.4327 95.6431 92.5477C95.6431 100.227 95.1727 108.046 95.6431 115.701C95.6431 115.832 95.6926 115.957 95.7808 116.049C95.8691 116.141 95.9887 116.193 96.1135 116.193C96.2382 116.193 96.3578 116.141 96.4461 116.049C96.5343 115.957 96.5838 115.832 96.5838 115.701C97.099 108.046 96.651 100.227 96.6062 92.5477Z" fill="#F7F8F8"/>
<path d="M196.75 172.942C196.732 172.872 196.693 172.811 196.638 172.768C196.583 172.724 196.517 172.701 196.448 172.701C196.379 172.701 196.312 172.724 196.258 172.768C196.203 172.811 196.164 172.872 196.146 172.942C195.514 182.995 195.387 193.075 195.765 203.142C195.765 213.209 195.765 223.252 196.123 233.319C196.142 233.394 196.184 233.46 196.243 233.508C196.302 233.555 196.374 233.58 196.448 233.58C196.522 233.58 196.594 233.555 196.653 233.508C196.712 233.46 196.754 233.394 196.773 233.319C197.086 223.252 197.086 213.209 197.131 203.142C197.497 193.075 197.37 182.995 196.75 172.942Z" fill="#F7F8F8"/>
<path d="M214.021 114.063C213.951 107.364 213.532 100.674 212.766 94.0228C212.766 93.6248 212.162 93.7419 212.139 94.0228C211.966 101.216 212.168 108.414 212.744 115.585C213.035 122.257 212.968 129.093 213.819 135.695C213.819 136.304 214.805 136.116 214.827 135.554C215.141 128.414 214.424 121.133 214.021 114.063Z" fill="#F7F8F8"/>
<path d="M218.5 117.785C218.484 117.733 218.453 117.687 218.411 117.654C218.368 117.622 218.317 117.604 218.265 117.604C218.212 117.604 218.161 117.622 218.119 117.654C218.077 117.687 218.045 117.733 218.03 117.785C217.436 127.404 217.391 137.05 217.895 146.674C217.881 146.733 217.88 146.794 217.892 146.853C217.905 146.912 217.929 146.968 217.965 147.016C218.001 147.063 218.046 147.102 218.098 147.128C218.15 147.155 218.207 147.168 218.265 147.168C218.323 147.168 218.38 147.155 218.432 147.128C218.484 147.102 218.529 147.063 218.565 147.016C218.6 146.968 218.625 146.912 218.637 146.853C218.649 146.794 218.648 146.733 218.634 146.674C219.138 137.05 219.094 127.404 218.5 117.785Z" fill="#F7F8F8"/>
<path d="M152.446 209.791C152.48 207.968 152.706 206.155 153.118 204.383C152.894 206.209 152.67 208.035 152.446 209.791Z" fill="#291B30"/>
<path d="M176.816 185.42C173.792 166.434 148.818 165.544 148.818 165.544C147.272 157.725 157.352 155.384 157.352 155.384L163.242 150.07C165.604 150.033 167.963 150.268 170.276 150.772C171.735 153.205 172.887 155.826 173.703 158.568C175.475 167.409 176.517 176.393 176.816 185.42Z" fill="#291B30"/>
<path d="M174.06 160.604C153.902 170.507 131.996 161.424 131.996 161.424C133.586 156.741 132.399 132.862 132.287 128.32C132.287 128.32 132.287 128.156 132.287 128.086C132.296 127.914 132.296 127.742 132.287 127.571C136.52 117.317 136.991 97.5577 137.013 90.7684C138.917 90.4641 140.91 90.3002 142.635 90.2065C143.307 97.7918 145.704 117.247 152.378 116.404C159.053 115.561 162.234 98.2366 163.399 90.6514C164.627 90.8667 165.872 90.9529 167.117 90.9089C167.498 90.9089 167.878 90.9089 168.259 90.9089C167.677 101.28 173.187 123.076 173.344 123.685C173.344 123.848 173.344 124.036 173.344 124.2C173.344 124.762 173.187 125.347 173.12 125.979C173.12 125.979 173.12 126.236 173.12 126.377C171.709 139.581 174.06 160.604 174.06 160.604Z" fill="#AB8DA8"/>
<defs>
<filter id="filter0_d_265_1592" x="0.82666" y="0" width="319" height="522" filterUnits="userSpaceOnUse" color-interpolation-filters="sRGB">
<feFlood flood-opacity="0" result="BackgroundImageFix"/>
<feColorMatrix in="SourceAlpha" type="matrix" values="0 0 0 0 0 0 0 0 0 0 0 0 0 0 0 0 0 0 127 0" result="hardAlpha"/>
<feOffset dy="10"/>
<feGaussianBlur stdDeviation="11"/>
<feColorMatrix type="matrix" values="0 0 0 0 0.772549 0 0 0 0 0.545098 0 0 0 0 0.94902 0 0 0 0.3 0"/>
<feBlend mode="normal" in2="BackgroundImageFix" result="effect1_dropShadow_265_1592"/>
<feBlend mode="normal" in="SourceGraphic" in2="effect1_dropShadow_265_1592" result="shape"/>
</filter>
<linearGradient id="paint0_linear_265_1592" x1="297.827" y1="490" x2="-70.1568" y2="473.618" gradientUnits="userSpaceOnUse">
<stop stop-color="#92A3FD"/>
<stop offset="1" stop-color="#9DCEFF"/>
</linearGradient>
</defs>
</svg>
