<svg width="320" height="522" viewBox="0 0 320 522" fill="none" xmlns="http://www.w3.org/2000/svg">
<g filter="url(#filter0_d_265_1753)">
<rect x="22.6533" y="12" width="275" height="478" rx="22" fill="url(#paint0_linear_265_1753)"/>
</g>
<path d="M128.018 375.446H131.238V377H126.058V367.228H128.018V375.446ZM135.928 377.126C135.181 377.126 134.509 376.963 133.912 376.636C133.314 376.3 132.843 375.829 132.498 375.222C132.162 374.615 131.994 373.915 131.994 373.122C131.994 372.329 132.166 371.629 132.512 371.022C132.866 370.415 133.347 369.949 133.954 369.622C134.56 369.286 135.237 369.118 135.984 369.118C136.73 369.118 137.407 369.286 138.014 369.622C138.62 369.949 139.096 370.415 139.442 371.022C139.796 371.629 139.974 372.329 139.974 373.122C139.974 373.915 139.792 374.615 139.428 375.222C139.073 375.829 138.588 376.3 137.972 376.636C137.365 376.963 136.684 377.126 135.928 377.126ZM135.928 375.418C136.282 375.418 136.614 375.334 136.922 375.166C137.239 374.989 137.491 374.727 137.678 374.382C137.864 374.037 137.958 373.617 137.958 373.122C137.958 372.385 137.762 371.82 137.37 371.428C136.987 371.027 136.516 370.826 135.956 370.826C135.396 370.826 134.924 371.027 134.542 371.428C134.168 371.82 133.982 372.385 133.982 373.122C133.982 373.859 134.164 374.429 134.528 374.83C134.901 375.222 135.368 375.418 135.928 375.418ZM144.379 377.126C143.745 377.126 143.175 377.014 142.671 376.79C142.167 376.557 141.766 376.244 141.467 375.852C141.178 375.46 141.019 375.026 140.991 374.55H142.965C143.003 374.849 143.147 375.096 143.399 375.292C143.661 375.488 143.983 375.586 144.365 375.586C144.739 375.586 145.028 375.511 145.233 375.362C145.448 375.213 145.555 375.021 145.555 374.788C145.555 374.536 145.425 374.349 145.163 374.228C144.911 374.097 144.505 373.957 143.945 373.808C143.367 373.668 142.891 373.523 142.517 373.374C142.153 373.225 141.836 372.996 141.565 372.688C141.304 372.38 141.173 371.965 141.173 371.442C141.173 371.013 141.295 370.621 141.537 370.266C141.789 369.911 142.144 369.631 142.601 369.426C143.068 369.221 143.614 369.118 144.239 369.118C145.163 369.118 145.901 369.351 146.451 369.818C147.002 370.275 147.305 370.896 147.361 371.68H145.485C145.457 371.372 145.327 371.129 145.093 370.952C144.869 370.765 144.566 370.672 144.183 370.672C143.829 370.672 143.553 370.737 143.357 370.868C143.171 370.999 143.077 371.181 143.077 371.414C143.077 371.675 143.208 371.876 143.469 372.016C143.731 372.147 144.137 372.282 144.687 372.422C145.247 372.562 145.709 372.707 146.073 372.856C146.437 373.005 146.75 373.239 147.011 373.556C147.282 373.864 147.422 374.275 147.431 374.788C147.431 375.236 147.305 375.637 147.053 375.992C146.811 376.347 146.456 376.627 145.989 376.832C145.532 377.028 144.995 377.126 144.379 377.126ZM156.25 372.954C156.25 373.234 156.232 373.486 156.194 373.71H150.524C150.571 374.27 150.767 374.709 151.112 375.026C151.458 375.343 151.882 375.502 152.386 375.502C153.114 375.502 153.632 375.189 153.94 374.564H156.054C155.83 375.311 155.401 375.927 154.766 376.412C154.132 376.888 153.352 377.126 152.428 377.126C151.682 377.126 151.01 376.963 150.412 376.636C149.824 376.3 149.362 375.829 149.026 375.222C148.7 374.615 148.536 373.915 148.536 373.122C148.536 372.319 148.7 371.615 149.026 371.008C149.353 370.401 149.81 369.935 150.398 369.608C150.986 369.281 151.663 369.118 152.428 369.118C153.166 369.118 153.824 369.277 154.402 369.594C154.99 369.911 155.443 370.364 155.76 370.952C156.087 371.531 156.25 372.198 156.25 372.954ZM154.22 372.394C154.211 371.89 154.029 371.489 153.674 371.19C153.32 370.882 152.886 370.728 152.372 370.728C151.887 370.728 151.476 370.877 151.14 371.176C150.814 371.465 150.613 371.871 150.538 372.394H154.22ZM160.513 373.094C160.513 372.31 160.667 371.615 160.975 371.008C161.292 370.401 161.717 369.935 162.249 369.608C162.79 369.281 163.392 369.118 164.055 369.118C164.633 369.118 165.137 369.235 165.567 369.468C166.005 369.701 166.355 369.995 166.617 370.35V369.244H168.591V377H166.617V375.866C166.365 376.23 166.015 376.533 165.567 376.776C165.128 377.009 164.619 377.126 164.041 377.126C163.387 377.126 162.79 376.958 162.249 376.622C161.717 376.286 161.292 375.815 160.975 375.208C160.667 374.592 160.513 373.887 160.513 373.094ZM166.617 373.122C166.617 372.646 166.523 372.24 166.337 371.904C166.15 371.559 165.898 371.297 165.581 371.12C165.263 370.933 164.923 370.84 164.559 370.84C164.195 370.84 163.859 370.929 163.551 371.106C163.243 371.283 162.991 371.545 162.795 371.89C162.608 372.226 162.515 372.627 162.515 373.094C162.515 373.561 162.608 373.971 162.795 374.326C162.991 374.671 163.243 374.937 163.551 375.124C163.868 375.311 164.204 375.404 164.559 375.404C164.923 375.404 165.263 375.315 165.581 375.138C165.898 374.951 166.15 374.69 166.337 374.354C166.523 374.009 166.617 373.598 166.617 373.122ZM179.875 367.228V368.81H175.801V371.316H178.923V372.87H175.801V377H173.841V367.228H179.875ZM180.761 373.094C180.761 372.31 180.915 371.615 181.223 371.008C181.54 370.401 181.965 369.935 182.497 369.608C183.038 369.281 183.64 369.118 184.303 369.118C184.881 369.118 185.385 369.235 185.815 369.468C186.253 369.701 186.603 369.995 186.865 370.35V369.244H188.839V377H186.865V375.866C186.613 376.23 186.263 376.533 185.815 376.776C185.376 377.009 184.867 377.126 184.289 377.126C183.635 377.126 183.038 376.958 182.497 376.622C181.965 376.286 181.54 375.815 181.223 375.208C180.915 374.592 180.761 373.887 180.761 373.094ZM186.865 373.122C186.865 372.646 186.771 372.24 186.585 371.904C186.398 371.559 186.146 371.297 185.829 371.12C185.511 370.933 185.171 370.84 184.807 370.84C184.443 370.84 184.107 370.929 183.799 371.106C183.491 371.283 183.239 371.545 183.043 371.89C182.856 372.226 182.763 372.627 182.763 373.094C182.763 373.561 182.856 373.971 183.043 374.326C183.239 374.671 183.491 374.937 183.799 375.124C184.116 375.311 184.452 375.404 184.807 375.404C185.171 375.404 185.511 375.315 185.829 375.138C186.146 374.951 186.398 374.69 186.585 374.354C186.771 374.009 186.865 373.598 186.865 373.122ZM193.035 370.854V374.606C193.035 374.867 193.096 375.059 193.217 375.18C193.348 375.292 193.562 375.348 193.861 375.348H194.771V377H193.539C191.887 377 191.061 376.197 191.061 374.592V370.854H190.137V369.244H191.061V367.326H193.035V369.244H194.771V370.854H193.035Z" fill="white"/>
<path d="M60.3217 410.636V419H59.2297V410.636H60.3217ZM68.646 412.304C69.142 412.304 69.59 412.412 69.99 412.628C70.39 412.836 70.702 413.152 70.926 413.576C71.158 414 71.274 414.516 71.274 415.124V419H70.194V415.28C70.194 414.624 70.03 414.124 69.702 413.78C69.374 413.428 68.926 413.252 68.358 413.252C67.782 413.252 67.322 413.432 66.978 413.792C66.642 414.152 66.474 414.676 66.474 415.364V419H65.382V410.12H66.474V413.36C66.69 413.024 66.986 412.764 67.362 412.58C67.746 412.396 68.174 412.304 68.646 412.304ZM72.6498 415.688C72.6498 415.016 72.7858 414.428 73.0578 413.924C73.3298 413.412 73.7018 413.016 74.1738 412.736C74.6538 412.456 75.1858 412.316 75.7698 412.316C76.3458 412.316 76.8458 412.44 77.2698 412.688C77.6938 412.936 78.0098 413.248 78.2178 413.624V412.424H79.3218V419H78.2178V417.776C78.0018 418.16 77.6778 418.48 77.2458 418.736C76.8218 418.984 76.3258 419.108 75.7578 419.108C75.1738 419.108 74.6458 418.964 74.1738 418.676C73.7018 418.388 73.3298 417.984 73.0578 417.464C72.7858 416.944 72.6498 416.352 72.6498 415.688ZM78.2178 415.7C78.2178 415.204 78.1178 414.772 77.9178 414.404C77.7178 414.036 77.4458 413.756 77.1018 413.564C76.7658 413.364 76.3938 413.264 75.9858 413.264C75.5778 413.264 75.2058 413.36 74.8698 413.552C74.5338 413.744 74.2658 414.024 74.0658 414.392C73.8658 414.76 73.7658 415.192 73.7658 415.688C73.7658 416.192 73.8658 416.632 74.0658 417.008C74.2658 417.376 74.5338 417.66 74.8698 417.86C75.2058 418.052 75.5778 418.148 75.9858 418.148C76.3938 418.148 76.7658 418.052 77.1018 417.86C77.4458 417.66 77.7178 417.376 77.9178 417.008C78.1178 416.632 78.2178 416.196 78.2178 415.7ZM83.6152 417.992L85.6552 412.424H86.8192L84.2392 419H82.9672L80.3872 412.424H81.5632L83.6152 417.992ZM93.8937 415.46C93.8937 415.668 93.8817 415.888 93.8577 416.12H88.6017C88.6417 416.768 88.8617 417.276 89.2617 417.644C89.6697 418.004 90.1617 418.184 90.7377 418.184C91.2097 418.184 91.6017 418.076 91.9137 417.86C92.2337 417.636 92.4577 417.34 92.5857 416.972H93.7617C93.5857 417.604 93.2337 418.12 92.7057 418.52C92.1777 418.912 91.5217 419.108 90.7377 419.108C90.1137 419.108 89.5537 418.968 89.0577 418.688C88.5697 418.408 88.1857 418.012 87.9057 417.5C87.6257 416.98 87.4857 416.38 87.4857 415.7C87.4857 415.02 87.6217 414.424 87.8937 413.912C88.1657 413.4 88.5457 413.008 89.0337 412.736C89.5297 412.456 90.0977 412.316 90.7377 412.316C91.3617 412.316 91.9137 412.452 92.3937 412.724C92.8737 412.996 93.2417 413.372 93.4977 413.852C93.7617 414.324 93.8937 414.86 93.8937 415.46ZM92.7657 415.232C92.7657 414.816 92.6737 414.46 92.4897 414.164C92.3057 413.86 92.0537 413.632 91.7337 413.48C91.4217 413.32 91.0737 413.24 90.6897 413.24C90.1377 413.24 89.6657 413.416 89.2737 413.768C88.8897 414.12 88.6697 414.608 88.6137 415.232H92.7657ZM101.402 419.108C100.786 419.108 100.226 418.968 99.7224 418.688C99.2264 418.408 98.8344 418.012 98.5464 417.5C98.2664 416.98 98.1264 416.38 98.1264 415.7C98.1264 415.028 98.2704 414.436 98.5584 413.924C98.8544 413.404 99.2544 413.008 99.7584 412.736C100.262 412.456 100.826 412.316 101.45 412.316C102.074 412.316 102.638 412.456 103.142 412.736C103.646 413.008 104.042 413.4 104.33 413.912C104.626 414.424 104.774 415.02 104.774 415.7C104.774 416.38 104.622 416.98 104.318 417.5C104.022 418.012 103.618 418.408 103.106 418.688C102.594 418.968 102.026 419.108 101.402 419.108ZM101.402 418.148C101.794 418.148 102.162 418.056 102.506 417.872C102.85 417.688 103.126 417.412 103.334 417.044C103.55 416.676 103.658 416.228 103.658 415.7C103.658 415.172 103.554 414.724 103.346 414.356C103.138 413.988 102.866 413.716 102.53 413.54C102.194 413.356 101.83 413.264 101.438 413.264C101.038 413.264 100.67 413.356 100.334 413.54C100.006 413.716 99.7424 413.988 99.5424 414.356C99.3424 414.724 99.2424 415.172 99.2424 415.7C99.2424 416.236 99.3384 416.688 99.5304 417.056C99.7304 417.424 99.9944 417.7 100.322 417.884C100.65 418.06 101.01 418.148 101.402 418.148ZM108.658 417.992L110.698 412.424H111.862L109.282 419H108.01L105.43 412.424H106.606L108.658 417.992ZM118.937 415.46C118.937 415.668 118.925 415.888 118.901 416.12H113.645C113.685 416.768 113.905 417.276 114.305 417.644C114.713 418.004 115.205 418.184 115.781 418.184C116.253 418.184 116.645 418.076 116.957 417.86C117.277 417.636 117.501 417.34 117.629 416.972H118.805C118.629 417.604 118.277 418.12 117.749 418.52C117.221 418.912 116.565 419.108 115.781 419.108C115.157 419.108 114.597 418.968 114.101 418.688C113.613 418.408 113.229 418.012 112.949 417.5C112.669 416.98 112.529 416.38 112.529 415.7C112.529 415.02 112.665 414.424 112.937 413.912C113.209 413.4 113.589 413.008 114.077 412.736C114.573 412.456 115.141 412.316 115.781 412.316C116.405 412.316 116.957 412.452 117.437 412.724C117.917 412.996 118.285 413.372 118.541 413.852C118.805 414.324 118.937 414.86 118.937 415.46ZM117.809 415.232C117.809 414.816 117.717 414.46 117.533 414.164C117.349 413.86 117.097 413.632 116.777 413.48C116.465 413.32 116.117 413.24 115.733 413.24C115.181 413.24 114.709 413.416 114.317 413.768C113.933 414.12 113.713 414.608 113.657 415.232H117.809ZM121.47 413.492C121.662 413.116 121.934 412.824 122.286 412.616C122.646 412.408 123.082 412.304 123.594 412.304V413.432H123.306C122.082 413.432 121.47 414.096 121.47 415.424V419H120.378V412.424H121.47V413.492ZM127.742 418.124C128.758 417.308 129.554 416.64 130.13 416.12C130.706 415.592 131.19 415.044 131.582 414.476C131.982 413.9 132.182 413.336 132.182 412.784C132.182 412.264 132.054 411.856 131.798 411.56C131.55 411.256 131.146 411.104 130.586 411.104C130.042 411.104 129.618 411.276 129.314 411.62C129.018 411.956 128.858 412.408 128.834 412.976H127.778C127.81 412.08 128.082 411.388 128.594 410.9C129.106 410.412 129.766 410.168 130.574 410.168C131.398 410.168 132.05 410.396 132.53 410.852C133.018 411.308 133.262 411.936 133.262 412.736C133.262 413.4 133.062 414.048 132.662 414.68C132.27 415.304 131.822 415.856 131.318 416.336C130.814 416.808 130.17 417.36 129.386 417.992H133.514V418.904H127.742V418.124ZM134.776 414.572C134.776 413.196 135 412.124 135.448 411.356C135.896 410.58 136.68 410.192 137.8 410.192C138.912 410.192 139.692 410.58 140.14 411.356C140.588 412.124 140.812 413.196 140.812 414.572C140.812 415.972 140.588 417.06 140.14 417.836C139.692 418.612 138.912 419 137.8 419C136.68 419 135.896 418.612 135.448 417.836C135 417.06 134.776 415.972 134.776 414.572ZM139.732 414.572C139.732 413.876 139.684 413.288 139.588 412.808C139.5 412.32 139.312 411.928 139.024 411.632C138.744 411.336 138.336 411.188 137.8 411.188C137.256 411.188 136.84 411.336 136.552 411.632C136.272 411.928 136.084 412.32 135.988 412.808C135.9 413.288 135.856 413.876 135.856 414.572C135.856 415.292 135.9 415.896 135.988 416.384C136.084 416.872 136.272 417.264 136.552 417.56C136.84 417.856 137.256 418.004 137.8 418.004C138.336 418.004 138.744 417.856 139.024 417.56C139.312 417.264 139.5 416.872 139.588 416.384C139.684 415.896 139.732 415.292 139.732 414.572ZM146.783 410.12V419H145.691V410.12H146.783ZM149.736 413.648C149.96 413.256 150.288 412.936 150.72 412.688C151.152 412.44 151.644 412.316 152.196 412.316C152.788 412.316 153.32 412.456 153.792 412.736C154.264 413.016 154.636 413.412 154.908 413.924C155.18 414.428 155.316 415.016 155.316 415.688C155.316 416.352 155.18 416.944 154.908 417.464C154.636 417.984 154.26 418.388 153.78 418.676C153.308 418.964 152.78 419.108 152.196 419.108C151.628 419.108 151.128 418.984 150.696 418.736C150.272 418.488 149.952 418.172 149.736 417.788V419H148.644V410.12H149.736V413.648ZM154.2 415.688C154.2 415.192 154.1 414.76 153.9 414.392C153.7 414.024 153.428 413.744 153.084 413.552C152.748 413.36 152.376 413.264 151.968 413.264C151.568 413.264 151.196 413.364 150.852 413.564C150.516 413.756 150.244 414.04 150.036 414.416C149.836 414.784 149.736 415.212 149.736 415.7C149.736 416.196 149.836 416.632 150.036 417.008C150.244 417.376 150.516 417.66 150.852 417.86C151.196 418.052 151.568 418.148 151.968 418.148C152.376 418.148 152.748 418.052 153.084 417.86C153.428 417.66 153.7 417.376 153.9 417.008C154.1 416.632 154.2 416.192 154.2 415.688ZM159.081 419.108C158.577 419.108 158.125 419.024 157.725 418.856C157.325 418.68 157.009 418.44 156.777 418.136C156.545 417.824 156.417 417.468 156.393 417.068H157.521C157.553 417.396 157.705 417.664 157.977 417.872C158.257 418.08 158.621 418.184 159.069 418.184C159.485 418.184 159.813 418.092 160.053 417.908C160.293 417.724 160.413 417.492 160.413 417.212C160.413 416.924 160.285 416.712 160.029 416.576C159.773 416.432 159.377 416.292 158.841 416.156C158.353 416.028 157.953 415.9 157.641 415.772C157.337 415.636 157.073 415.44 156.849 415.184C156.633 414.92 156.525 414.576 156.525 414.152C156.525 413.816 156.625 413.508 156.825 413.228C157.025 412.948 157.309 412.728 157.677 412.568C158.045 412.4 158.465 412.316 158.937 412.316C159.665 412.316 160.253 412.5 160.701 412.868C161.149 413.236 161.389 413.74 161.421 414.38H160.329C160.305 414.036 160.165 413.76 159.909 413.552C159.661 413.344 159.325 413.24 158.901 413.24C158.509 413.24 158.197 413.324 157.965 413.492C157.733 413.66 157.617 413.88 157.617 414.152C157.617 414.368 157.685 414.548 157.821 414.692C157.965 414.828 158.141 414.94 158.349 415.028C158.565 415.108 158.861 415.2 159.237 415.304C159.709 415.432 160.093 415.56 160.389 415.688C160.685 415.808 160.937 415.992 161.145 416.24C161.361 416.488 161.473 416.812 161.481 417.212C161.481 417.572 161.381 417.896 161.181 418.184C160.981 418.472 160.697 418.7 160.329 418.868C159.969 419.028 159.553 419.108 159.081 419.108ZM167.554 413.324V417.2C167.554 417.52 167.622 417.748 167.758 417.884C167.894 418.012 168.13 418.076 168.466 418.076H169.27V419H168.286C167.678 419 167.222 418.86 166.918 418.58C166.614 418.3 166.462 417.84 166.462 417.2V413.324H165.61V412.424H166.462V410.768H167.554V412.424H169.27V413.324H167.554ZM173.461 419.108C172.845 419.108 172.285 418.968 171.781 418.688C171.285 418.408 170.893 418.012 170.605 417.5C170.325 416.98 170.185 416.38 170.185 415.7C170.185 415.028 170.329 414.436 170.617 413.924C170.913 413.404 171.313 413.008 171.817 412.736C172.321 412.456 172.885 412.316 173.509 412.316C174.133 412.316 174.697 412.456 175.201 412.736C175.705 413.008 176.101 413.4 176.389 413.912C176.685 414.424 176.833 415.02 176.833 415.7C176.833 416.38 176.681 416.98 176.377 417.5C176.081 418.012 175.677 418.408 175.165 418.688C174.653 418.968 174.085 419.108 173.461 419.108ZM173.461 418.148C173.853 418.148 174.221 418.056 174.565 417.872C174.909 417.688 175.185 417.412 175.393 417.044C175.609 416.676 175.717 416.228 175.717 415.7C175.717 415.172 175.613 414.724 175.405 414.356C175.197 413.988 174.925 413.716 174.589 413.54C174.253 413.356 173.889 413.264 173.497 413.264C173.097 413.264 172.729 413.356 172.393 413.54C172.065 413.716 171.801 413.988 171.601 414.356C171.401 414.724 171.301 415.172 171.301 415.7C171.301 416.236 171.397 416.688 171.589 417.056C171.789 417.424 172.053 417.7 172.381 417.884C172.709 418.06 173.069 418.148 173.461 418.148ZM182.56 410.12V419H181.468V410.12H182.56ZM187.289 419.108C186.673 419.108 186.113 418.968 185.609 418.688C185.113 418.408 184.721 418.012 184.433 417.5C184.153 416.98 184.013 416.38 184.013 415.7C184.013 415.028 184.157 414.436 184.445 413.924C184.741 413.404 185.141 413.008 185.645 412.736C186.149 412.456 186.713 412.316 187.337 412.316C187.961 412.316 188.525 412.456 189.029 412.736C189.533 413.008 189.929 413.4 190.217 413.912C190.513 414.424 190.661 415.02 190.661 415.7C190.661 416.38 190.509 416.98 190.205 417.5C189.909 418.012 189.505 418.408 188.993 418.688C188.481 418.968 187.913 419.108 187.289 419.108ZM187.289 418.148C187.681 418.148 188.049 418.056 188.393 417.872C188.737 417.688 189.013 417.412 189.221 417.044C189.437 416.676 189.545 416.228 189.545 415.7C189.545 415.172 189.441 414.724 189.233 414.356C189.025 413.988 188.753 413.716 188.417 413.54C188.081 413.356 187.717 413.264 187.325 413.264C186.925 413.264 186.557 413.356 186.221 413.54C185.893 413.716 185.629 413.988 185.429 414.356C185.229 414.724 185.129 415.172 185.129 415.7C185.129 416.236 185.225 416.688 185.417 417.056C185.617 417.424 185.881 417.7 186.209 417.884C186.537 418.06 186.897 418.148 187.289 418.148ZM194.425 419.108C193.921 419.108 193.469 419.024 193.069 418.856C192.669 418.68 192.353 418.44 192.121 418.136C191.889 417.824 191.761 417.468 191.737 417.068H192.865C192.897 417.396 193.049 417.664 193.321 417.872C193.601 418.08 193.965 418.184 194.413 418.184C194.829 418.184 195.157 418.092 195.397 417.908C195.637 417.724 195.757 417.492 195.757 417.212C195.757 416.924 195.629 416.712 195.373 416.576C195.117 416.432 194.721 416.292 194.185 416.156C193.697 416.028 193.297 415.9 192.985 415.772C192.681 415.636 192.417 415.44 192.193 415.184C191.977 414.92 191.869 414.576 191.869 414.152C191.869 413.816 191.969 413.508 192.169 413.228C192.369 412.948 192.653 412.728 193.021 412.568C193.389 412.4 193.809 412.316 194.281 412.316C195.009 412.316 195.597 412.5 196.045 412.868C196.493 413.236 196.733 413.74 196.765 414.38H195.673C195.649 414.036 195.509 413.76 195.253 413.552C195.005 413.344 194.669 413.24 194.245 413.24C193.853 413.24 193.541 413.324 193.309 413.492C193.077 413.66 192.961 413.88 192.961 414.152C192.961 414.368 193.029 414.548 193.165 414.692C193.309 414.828 193.485 414.94 193.693 415.028C193.909 415.108 194.205 415.2 194.581 415.304C195.053 415.432 195.437 415.56 195.733 415.688C196.029 415.808 196.281 415.992 196.489 416.24C196.705 416.488 196.817 416.812 196.825 417.212C196.825 417.572 196.725 417.896 196.525 418.184C196.325 418.472 196.041 418.7 195.673 418.868C195.313 419.028 194.897 419.108 194.425 419.108ZM204.366 415.46C204.366 415.668 204.354 415.888 204.33 416.12H199.074C199.114 416.768 199.334 417.276 199.734 417.644C200.142 418.004 200.634 418.184 201.21 418.184C201.682 418.184 202.074 418.076 202.386 417.86C202.706 417.636 202.93 417.34 203.058 416.972H204.234C204.058 417.604 203.706 418.12 203.178 418.52C202.65 418.912 201.994 419.108 201.21 419.108C200.586 419.108 200.026 418.968 199.53 418.688C199.042 418.408 198.658 418.012 198.378 417.5C198.098 416.98 197.958 416.38 197.958 415.7C197.958 415.02 198.094 414.424 198.366 413.912C198.638 413.4 199.018 413.008 199.506 412.736C200.002 412.456 200.57 412.316 201.21 412.316C201.834 412.316 202.386 412.452 202.866 412.724C203.346 412.996 203.714 413.372 203.97 413.852C204.234 414.324 204.366 414.86 204.366 415.46ZM203.238 415.232C203.238 414.816 203.146 414.46 202.962 414.164C202.778 413.86 202.526 413.632 202.206 413.48C201.894 413.32 201.546 413.24 201.162 413.24C200.61 413.24 200.138 413.416 199.746 413.768C199.362 414.12 199.142 414.608 199.086 415.232H203.238ZM206.156 419.072C205.948 419.072 205.772 419 205.628 418.856C205.484 418.712 205.412 418.536 205.412 418.328C205.412 418.12 205.484 417.944 205.628 417.8C205.772 417.656 205.948 417.584 206.156 417.584C206.356 417.584 206.524 417.656 206.66 417.8C206.804 417.944 206.876 418.12 206.876 418.328C206.876 418.536 206.804 418.712 206.66 418.856C206.524 419 206.356 419.072 206.156 419.072ZM212.619 410.636V419H211.527V410.636H212.619ZM226.439 412.424L224.387 419H223.259L221.675 413.78L220.091 419H218.963L216.899 412.424H218.015L219.527 417.944L221.159 412.424H222.275L223.871 417.956L225.359 412.424H226.439ZM227.115 415.688C227.115 415.016 227.251 414.428 227.523 413.924C227.795 413.412 228.167 413.016 228.639 412.736C229.119 412.456 229.651 412.316 230.235 412.316C230.811 412.316 231.311 412.44 231.735 412.688C232.159 412.936 232.475 413.248 232.683 413.624V412.424H233.787V419H232.683V417.776C232.467 418.16 232.143 418.48 231.711 418.736C231.287 418.984 230.791 419.108 230.223 419.108C229.639 419.108 229.111 418.964 228.639 418.676C228.167 418.388 227.795 417.984 227.523 417.464C227.251 416.944 227.115 416.352 227.115 415.688ZM232.683 415.7C232.683 415.204 232.583 414.772 232.383 414.404C232.183 414.036 231.911 413.756 231.567 413.564C231.231 413.364 230.859 413.264 230.451 413.264C230.043 413.264 229.671 413.36 229.335 413.552C228.999 413.744 228.731 414.024 228.531 414.392C228.331 414.76 228.231 415.192 228.231 415.688C228.231 416.192 228.331 416.632 228.531 417.008C228.731 417.376 228.999 417.66 229.335 417.86C229.671 418.052 230.043 418.148 230.451 418.148C230.859 418.148 231.231 418.052 231.567 417.86C231.911 417.66 232.183 417.376 232.383 417.008C232.583 416.632 232.683 416.196 232.683 415.7ZM238.836 412.304C239.636 412.304 240.284 412.548 240.78 413.036C241.276 413.516 241.524 414.212 241.524 415.124V419H240.444V415.28C240.444 414.624 240.28 414.124 239.952 413.78C239.624 413.428 239.176 413.252 238.608 413.252C238.032 413.252 237.572 413.432 237.228 413.792C236.892 414.152 236.724 414.676 236.724 415.364V419H235.632V412.424H236.724V413.36C236.94 413.024 237.232 412.764 237.6 412.58C237.976 412.396 238.388 412.304 238.836 412.304ZM244.64 413.324V417.2C244.64 417.52 244.708 417.748 244.844 417.884C244.98 418.012 245.216 418.076 245.552 418.076H246.356V419H245.372C244.764 419 244.308 418.86 244.004 418.58C243.7 418.3 243.548 417.84 243.548 417.2V413.324H242.696V412.424H243.548V410.768H244.64V412.424H246.356V413.324H244.64ZM252.21 413.324V417.2C252.21 417.52 252.278 417.748 252.414 417.884C252.55 418.012 252.786 418.076 253.122 418.076H253.926V419H252.942C252.334 419 251.878 418.86 251.574 418.58C251.27 418.3 251.118 417.84 251.118 417.2V413.324H250.266V412.424H251.118V410.768H252.21V412.424H253.926V413.324H252.21ZM258.117 419.108C257.501 419.108 256.941 418.968 256.437 418.688C255.941 418.408 255.549 418.012 255.261 417.5C254.981 416.98 254.841 416.38 254.841 415.7C254.841 415.028 254.985 414.436 255.273 413.924C255.569 413.404 255.969 413.008 256.473 412.736C256.977 412.456 257.541 412.316 258.165 412.316C258.789 412.316 259.353 412.456 259.857 412.736C260.361 413.008 260.757 413.4 261.045 413.912C261.341 414.424 261.489 415.02 261.489 415.7C261.489 416.38 261.337 416.98 261.033 417.5C260.737 418.012 260.333 418.408 259.821 418.688C259.309 418.968 258.741 419.108 258.117 419.108ZM258.117 418.148C258.509 418.148 258.877 418.056 259.221 417.872C259.565 417.688 259.841 417.412 260.049 417.044C260.265 416.676 260.373 416.228 260.373 415.7C260.373 415.172 260.269 414.724 260.061 414.356C259.853 413.988 259.581 413.716 259.245 413.54C258.909 413.356 258.545 413.264 258.153 413.264C257.753 413.264 257.385 413.356 257.049 413.54C256.721 413.716 256.457 413.988 256.257 414.356C256.057 414.724 255.957 415.172 255.957 415.7C255.957 416.236 256.053 416.688 256.245 417.056C256.445 417.424 256.709 417.7 257.037 417.884C257.365 418.06 257.725 418.148 258.117 418.148ZM63.6615 433.688C63.6615 433.016 63.7975 432.428 64.0695 431.924C64.3415 431.412 64.7135 431.016 65.1855 430.736C65.6655 430.456 66.2015 430.316 66.7935 430.316C67.3055 430.316 67.7815 430.436 68.2215 430.676C68.6615 430.908 68.9975 431.216 69.2295 431.6V428.12H70.3335V437H69.2295V435.764C69.0135 436.156 68.6935 436.48 68.2695 436.736C67.8455 436.984 67.3495 437.108 66.7815 437.108C66.1975 437.108 65.6655 436.964 65.1855 436.676C64.7135 436.388 64.3415 435.984 64.0695 435.464C63.7975 434.944 63.6615 434.352 63.6615 433.688ZM69.2295 433.7C69.2295 433.204 69.1295 432.772 68.9295 432.404C68.7295 432.036 68.4575 431.756 68.1135 431.564C67.7775 431.364 67.4055 431.264 66.9975 431.264C66.5895 431.264 66.2175 431.36 65.8815 431.552C65.5455 431.744 65.2775 432.024 65.0775 432.392C64.8775 432.76 64.7775 433.192 64.7775 433.688C64.7775 434.192 64.8775 434.632 65.0775 435.008C65.2775 435.376 65.5455 435.66 65.8815 435.86C66.2175 436.052 66.5895 436.148 66.9975 436.148C67.4055 436.148 67.7775 436.052 68.1135 435.86C68.4575 435.66 68.7295 435.376 68.9295 435.008C69.1295 434.632 69.2295 434.196 69.2295 433.7ZM73.2709 431.492C73.4629 431.116 73.7349 430.824 74.0869 430.616C74.4469 430.408 74.8829 430.304 75.3949 430.304V431.432H75.1069C73.8829 431.432 73.2709 432.096 73.2709 433.424V437H72.1789V430.424H73.2709V431.492ZM79.5234 437.108C78.9074 437.108 78.3474 436.968 77.8434 436.688C77.3474 436.408 76.9554 436.012 76.6674 435.5C76.3874 434.98 76.2474 434.38 76.2474 433.7C76.2474 433.028 76.3914 432.436 76.6794 431.924C76.9754 431.404 77.3754 431.008 77.8794 430.736C78.3834 430.456 78.9474 430.316 79.5714 430.316C80.1954 430.316 80.7594 430.456 81.2634 430.736C81.7674 431.008 82.1634 431.4 82.4514 431.912C82.7474 432.424 82.8954 433.02 82.8954 433.7C82.8954 434.38 82.7434 434.98 82.4394 435.5C82.1434 436.012 81.7394 436.408 81.2274 436.688C80.7154 436.968 80.1474 437.108 79.5234 437.108ZM79.5234 436.148C79.9154 436.148 80.2834 436.056 80.6274 435.872C80.9714 435.688 81.2474 435.412 81.4554 435.044C81.6714 434.676 81.7794 434.228 81.7794 433.7C81.7794 433.172 81.6754 432.724 81.4674 432.356C81.2594 431.988 80.9874 431.716 80.6514 431.54C80.3154 431.356 79.9514 431.264 79.5594 431.264C79.1594 431.264 78.7914 431.356 78.4554 431.54C78.1274 431.716 77.8634 431.988 77.6634 432.356C77.4634 432.724 77.3634 433.172 77.3634 433.7C77.3634 434.236 77.4594 434.688 77.6514 435.056C77.8514 435.424 78.1154 435.7 78.4434 435.884C78.7714 436.06 79.1314 436.148 79.5234 436.148ZM85.4232 431.636C85.6392 431.26 85.9592 430.948 86.3832 430.7C86.8152 430.444 87.3152 430.316 87.8832 430.316C88.4672 430.316 88.9952 430.456 89.4672 430.736C89.9472 431.016 90.3232 431.412 90.5952 431.924C90.8672 432.428 91.0032 433.016 91.0032 433.688C91.0032 434.352 90.8672 434.944 90.5952 435.464C90.3232 435.984 89.9472 436.388 89.4672 436.676C88.9952 436.964 88.4672 437.108 87.8832 437.108C87.3232 437.108 86.8272 436.984 86.3952 436.736C85.9712 436.48 85.6472 436.164 85.4232 435.788V440.12H84.3312V430.424H85.4232V431.636ZM89.8872 433.688C89.8872 433.192 89.7872 432.76 89.5872 432.392C89.3872 432.024 89.1152 431.744 88.7712 431.552C88.4352 431.36 88.0632 431.264 87.6552 431.264C87.2552 431.264 86.8832 431.364 86.5392 431.564C86.2032 431.756 85.9312 432.04 85.7232 432.416C85.5232 432.784 85.4232 433.212 85.4232 433.7C85.4232 434.196 85.5232 434.632 85.7232 435.008C85.9312 435.376 86.2032 435.66 86.5392 435.86C86.8832 436.052 87.2552 436.148 87.6552 436.148C88.0632 436.148 88.4352 436.052 88.7712 435.86C89.1152 435.66 89.3872 435.376 89.5872 435.008C89.7872 434.632 89.8872 434.192 89.8872 433.688ZM95.2318 433.688C95.2318 433.016 95.3678 432.428 95.6398 431.924C95.9118 431.412 96.2838 431.016 96.7558 430.736C97.2358 430.456 97.7678 430.316 98.3518 430.316C98.9278 430.316 99.4278 430.44 99.8518 430.688C100.276 430.936 100.592 431.248 100.8 431.624V430.424H101.904V437H100.8V435.776C100.584 436.16 100.26 436.48 99.8278 436.736C99.4038 436.984 98.9078 437.108 98.3398 437.108C97.7558 437.108 97.2278 436.964 96.7558 436.676C96.2838 436.388 95.9118 435.984 95.6398 435.464C95.3678 434.944 95.2318 434.352 95.2318 433.688ZM100.8 433.7C100.8 433.204 100.7 432.772 100.5 432.404C100.3 432.036 100.028 431.756 99.6838 431.564C99.3478 431.364 98.9758 431.264 98.5678 431.264C98.1598 431.264 97.7878 431.36 97.4518 431.552C97.1158 431.744 96.8478 432.024 96.6478 432.392C96.4478 432.76 96.3478 433.192 96.3478 433.688C96.3478 434.192 96.4478 434.632 96.6478 435.008C96.8478 435.376 97.1158 435.66 97.4518 435.86C97.7878 436.052 98.1598 436.148 98.5678 436.148C98.9758 436.148 99.3478 436.052 99.6838 435.86C100.028 435.66 100.3 435.376 100.5 435.008C100.7 434.632 100.8 434.196 100.8 433.7ZM104.841 428.12V437H103.749V428.12H104.841ZM107.794 428.12V437H106.702V428.12H107.794ZM114.187 431.324V435.2C114.187 435.52 114.255 435.748 114.391 435.884C114.527 436.012 114.763 436.076 115.099 436.076H115.903V437H114.919C114.311 437 113.855 436.86 113.551 436.58C113.247 436.3 113.095 435.84 113.095 435.2V431.324H112.243V430.424H113.095V428.768H114.187V430.424H115.903V431.324H114.187ZM120.49 430.304C120.986 430.304 121.434 430.412 121.834 430.628C122.234 430.836 122.546 431.152 122.77 431.576C123.002 432 123.118 432.516 123.118 433.124V437H122.038V433.28C122.038 432.624 121.874 432.124 121.546 431.78C121.218 431.428 120.77 431.252 120.202 431.252C119.626 431.252 119.166 431.432 118.822 431.792C118.486 432.152 118.318 432.676 118.318 433.364V437H117.226V428.12H118.318V431.36C118.534 431.024 118.83 430.764 119.206 430.58C119.59 430.396 120.018 430.304 120.49 430.304ZM125.466 429.356C125.258 429.356 125.082 429.284 124.938 429.14C124.794 428.996 124.722 428.82 124.722 428.612C124.722 428.404 124.794 428.228 124.938 428.084C125.082 427.94 125.258 427.868 125.466 427.868C125.666 427.868 125.834 427.94 125.97 428.084C126.114 428.228 126.186 428.404 126.186 428.612C126.186 428.82 126.114 428.996 125.97 429.14C125.834 429.284 125.666 429.356 125.466 429.356ZM125.994 430.424V437H124.902V430.424H125.994ZM130.183 437.108C129.679 437.108 129.227 437.024 128.827 436.856C128.427 436.68 128.111 436.44 127.879 436.136C127.647 435.824 127.519 435.468 127.495 435.068H128.623C128.655 435.396 128.807 435.664 129.079 435.872C129.359 436.08 129.723 436.184 130.171 436.184C130.587 436.184 130.915 436.092 131.155 435.908C131.395 435.724 131.515 435.492 131.515 435.212C131.515 434.924 131.387 434.712 131.131 434.576C130.875 434.432 130.479 434.292 129.943 434.156C129.455 434.028 129.055 433.9 128.743 433.772C128.439 433.636 128.175 433.44 127.951 433.184C127.735 432.92 127.627 432.576 127.627 432.152C127.627 431.816 127.727 431.508 127.927 431.228C128.127 430.948 128.411 430.728 128.779 430.568C129.147 430.4 129.567 430.316 130.039 430.316C130.767 430.316 131.355 430.5 131.803 430.868C132.251 431.236 132.491 431.74 132.523 432.38H131.431C131.407 432.036 131.267 431.76 131.011 431.552C130.763 431.344 130.427 431.24 130.003 431.24C129.611 431.24 129.299 431.324 129.067 431.492C128.835 431.66 128.719 431.88 128.719 432.152C128.719 432.368 128.787 432.548 128.923 432.692C129.067 432.828 129.243 432.94 129.451 433.028C129.667 433.108 129.963 433.2 130.339 433.304C130.811 433.432 131.195 433.56 131.491 433.688C131.787 433.808 132.039 433.992 132.247 434.24C132.463 434.488 132.575 434.812 132.583 435.212C132.583 435.572 132.483 435.896 132.283 436.184C132.083 436.472 131.799 436.7 131.431 436.868C131.071 437.028 130.655 437.108 130.183 437.108ZM139.999 431.324H138.619V437H137.527V431.324H136.675V430.424H137.527V429.956C137.527 429.22 137.715 428.684 138.091 428.348C138.475 428.004 139.087 427.832 139.927 427.832V428.744C139.447 428.744 139.107 428.84 138.907 429.032C138.715 429.216 138.619 429.524 138.619 429.956V430.424H139.999V431.324ZM140.865 433.688C140.865 433.016 141.001 432.428 141.273 431.924C141.545 431.412 141.917 431.016 142.389 430.736C142.869 430.456 143.401 430.316 143.985 430.316C144.561 430.316 145.061 430.44 145.485 430.688C145.909 430.936 146.225 431.248 146.433 431.624V430.424H147.537V437H146.433V435.776C146.217 436.16 145.893 436.48 145.461 436.736C145.037 436.984 144.541 437.108 143.973 437.108C143.389 437.108 142.861 436.964 142.389 436.676C141.917 436.388 141.545 435.984 141.273 435.464C141.001 434.944 140.865 434.352 140.865 433.688ZM146.433 433.7C146.433 433.204 146.333 432.772 146.133 432.404C145.933 432.036 145.661 431.756 145.317 431.564C144.981 431.364 144.609 431.264 144.201 431.264C143.793 431.264 143.421 431.36 143.085 431.552C142.749 431.744 142.481 432.024 142.281 432.392C142.081 432.76 141.981 433.192 141.981 433.688C141.981 434.192 142.081 434.632 142.281 435.008C142.481 435.376 142.749 435.66 143.085 435.86C143.421 436.052 143.793 436.148 144.201 436.148C144.609 436.148 144.981 436.052 145.317 435.86C145.661 435.66 145.933 435.376 146.133 435.008C146.333 434.632 146.433 434.196 146.433 433.7ZM150.714 431.324V435.2C150.714 435.52 150.782 435.748 150.918 435.884C151.054 436.012 151.29 436.076 151.626 436.076H152.43V437H151.446C150.838 437 150.382 436.86 150.078 436.58C149.774 436.3 149.622 435.84 149.622 435.2V431.324H148.77V430.424H149.622V428.768H150.714V430.424H152.43V431.324H150.714ZM156.544 433.688C156.544 433.016 156.68 432.428 156.952 431.924C157.224 431.412 157.596 431.016 158.068 430.736C158.548 430.456 159.08 430.316 159.664 430.316C160.24 430.316 160.74 430.44 161.164 430.688C161.588 430.936 161.904 431.248 162.112 431.624V430.424H163.216V437H162.112V435.776C161.896 436.16 161.572 436.48 161.14 436.736C160.716 436.984 160.22 437.108 159.652 437.108C159.068 437.108 158.54 436.964 158.068 436.676C157.596 436.388 157.224 435.984 156.952 435.464C156.68 434.944 156.544 434.352 156.544 433.688ZM162.112 433.7C162.112 433.204 162.012 432.772 161.812 432.404C161.612 432.036 161.34 431.756 160.996 431.564C160.66 431.364 160.288 431.264 159.88 431.264C159.472 431.264 159.1 431.36 158.764 431.552C158.428 431.744 158.16 432.024 157.96 432.392C157.76 432.76 157.66 433.192 157.66 433.688C157.66 434.192 157.76 434.632 157.96 435.008C158.16 435.376 158.428 435.66 158.764 435.86C159.1 436.052 159.472 436.148 159.88 436.148C160.288 436.148 160.66 436.052 160.996 435.86C161.34 435.66 161.612 435.376 161.812 435.008C162.012 434.632 162.112 434.196 162.112 433.7ZM168.266 430.304C169.066 430.304 169.714 430.548 170.21 431.036C170.706 431.516 170.954 432.212 170.954 433.124V437H169.874V433.28C169.874 432.624 169.71 432.124 169.382 431.78C169.054 431.428 168.606 431.252 168.038 431.252C167.462 431.252 167.002 431.432 166.658 431.792C166.322 432.152 166.154 432.676 166.154 433.364V437H165.062V430.424H166.154V431.36C166.37 431.024 166.662 430.764 167.03 430.58C167.406 430.396 167.818 430.304 168.266 430.304ZM172.329 433.688C172.329 433.016 172.465 432.428 172.737 431.924C173.009 431.412 173.381 431.016 173.853 430.736C174.333 430.456 174.869 430.316 175.461 430.316C175.973 430.316 176.449 430.436 176.889 430.676C177.329 430.908 177.665 431.216 177.897 431.6V428.12H179.001V437H177.897V435.764C177.681 436.156 177.361 436.48 176.937 436.736C176.513 436.984 176.017 437.108 175.449 437.108C174.865 437.108 174.333 436.964 173.853 436.676C173.381 436.388 173.009 435.984 172.737 435.464C172.465 434.944 172.329 434.352 172.329 433.688ZM177.897 433.7C177.897 433.204 177.797 432.772 177.597 432.404C177.397 432.036 177.125 431.756 176.781 431.564C176.445 431.364 176.073 431.264 175.665 431.264C175.257 431.264 174.885 431.36 174.549 431.552C174.213 431.744 173.945 432.024 173.745 432.392C173.545 432.76 173.445 433.192 173.445 433.688C173.445 434.192 173.545 434.632 173.745 435.008C173.945 435.376 174.213 435.66 174.549 435.86C174.885 436.052 175.257 436.148 175.665 436.148C176.073 436.148 176.445 436.052 176.781 435.86C177.125 435.66 177.397 435.376 177.597 435.008C177.797 434.632 177.897 434.196 177.897 433.7ZM186.758 430.316C187.326 430.316 187.822 430.44 188.246 430.688C188.678 430.936 188.998 431.248 189.206 431.624V430.424H190.31V437.144C190.31 437.744 190.182 438.276 189.926 438.74C189.67 439.212 189.302 439.58 188.822 439.844C188.35 440.108 187.798 440.24 187.166 440.24C186.302 440.24 185.582 440.036 185.006 439.628C184.43 439.22 184.09 438.664 183.986 437.96H185.066C185.186 438.36 185.434 438.68 185.81 438.92C186.186 439.168 186.638 439.292 187.166 439.292C187.766 439.292 188.254 439.104 188.63 438.728C189.014 438.352 189.206 437.824 189.206 437.144V435.764C188.99 436.148 188.67 436.468 188.246 436.724C187.822 436.98 187.326 437.108 186.758 437.108C186.174 437.108 185.642 436.964 185.162 436.676C184.69 436.388 184.318 435.984 184.046 435.464C183.774 434.944 183.638 434.352 183.638 433.688C183.638 433.016 183.774 432.428 184.046 431.924C184.318 431.412 184.69 431.016 185.162 430.736C185.642 430.456 186.174 430.316 186.758 430.316ZM189.206 433.7C189.206 433.204 189.106 432.772 188.906 432.404C188.706 432.036 188.434 431.756 188.09 431.564C187.754 431.364 187.382 431.264 186.974 431.264C186.566 431.264 186.194 431.36 185.858 431.552C185.522 431.744 185.254 432.024 185.054 432.392C184.854 432.76 184.754 433.192 184.754 433.688C184.754 434.192 184.854 434.632 185.054 435.008C185.254 435.376 185.522 435.66 185.858 435.86C186.194 436.052 186.566 436.148 186.974 436.148C187.382 436.148 187.754 436.052 188.09 435.86C188.434 435.66 188.706 435.376 188.906 435.008C189.106 434.632 189.206 434.196 189.206 433.7ZM191.747 433.688C191.747 433.016 191.883 432.428 192.155 431.924C192.427 431.412 192.799 431.016 193.271 430.736C193.751 430.456 194.283 430.316 194.867 430.316C195.443 430.316 195.943 430.44 196.367 430.688C196.791 430.936 197.107 431.248 197.315 431.624V430.424H198.419V437H197.315V435.776C197.099 436.16 196.775 436.48 196.343 436.736C195.919 436.984 195.423 437.108 194.855 437.108C194.271 437.108 193.743 436.964 193.271 436.676C192.799 436.388 192.427 435.984 192.155 435.464C191.883 434.944 191.747 434.352 191.747 433.688ZM197.315 433.7C197.315 433.204 197.215 432.772 197.015 432.404C196.815 432.036 196.543 431.756 196.199 431.564C195.863 431.364 195.491 431.264 195.083 431.264C194.675 431.264 194.303 431.36 193.967 431.552C193.631 431.744 193.363 432.024 193.163 432.392C192.963 432.76 192.863 433.192 192.863 433.688C192.863 434.192 192.963 434.632 193.163 435.008C193.363 435.376 193.631 435.66 193.967 435.86C194.303 436.052 194.675 436.148 195.083 436.148C195.491 436.148 195.863 436.052 196.199 435.86C196.543 435.66 196.815 435.376 197.015 435.008C197.215 434.632 197.315 434.196 197.315 433.7ZM200.829 429.356C200.621 429.356 200.445 429.284 200.301 429.14C200.157 428.996 200.085 428.82 200.085 428.612C200.085 428.404 200.157 428.228 200.301 428.084C200.445 427.94 200.621 427.868 200.829 427.868C201.029 427.868 201.197 427.94 201.333 428.084C201.477 428.228 201.549 428.404 201.549 428.612C201.549 428.82 201.477 428.996 201.333 429.14C201.197 429.284 201.029 429.356 200.829 429.356ZM201.357 430.424V437H200.265V430.424H201.357ZM206.422 430.304C207.222 430.304 207.87 430.548 208.366 431.036C208.862 431.516 209.11 432.212 209.11 433.124V437H208.03V433.28C208.03 432.624 207.866 432.124 207.538 431.78C207.21 431.428 206.762 431.252 206.194 431.252C205.618 431.252 205.158 431.432 204.814 431.792C204.478 432.152 204.31 432.676 204.31 433.364V437H203.218V430.424H204.31V431.36C204.526 431.024 204.818 430.764 205.186 430.58C205.562 430.396 205.974 430.304 206.422 430.304ZM222.001 430.304C222.513 430.304 222.969 430.412 223.369 430.628C223.769 430.836 224.085 431.152 224.317 431.576C224.549 432 224.665 432.516 224.665 433.124V437H223.585V433.28C223.585 432.624 223.421 432.124 223.093 431.78C222.773 431.428 222.337 431.252 221.785 431.252C221.217 431.252 220.765 431.436 220.429 431.804C220.093 432.164 219.925 432.688 219.925 433.376V437H218.845V433.28C218.845 432.624 218.681 432.124 218.353 431.78C218.033 431.428 217.597 431.252 217.045 431.252C216.477 431.252 216.025 431.436 215.689 431.804C215.353 432.164 215.185 432.688 215.185 433.376V437H214.093V430.424H215.185V431.372C215.401 431.028 215.689 430.764 216.049 430.58C216.417 430.396 216.821 430.304 217.261 430.304C217.813 430.304 218.301 430.428 218.725 430.676C219.149 430.924 219.465 431.288 219.673 431.768C219.857 431.304 220.161 430.944 220.585 430.688C221.009 430.432 221.481 430.304 222.001 430.304ZM232.288 430.424V437H231.196V436.028C230.988 436.364 230.696 436.628 230.32 436.82C229.952 437.004 229.544 437.096 229.096 437.096C228.584 437.096 228.124 436.992 227.716 436.784C227.308 436.568 226.984 436.248 226.744 435.824C226.512 435.4 226.396 434.884 226.396 434.276V430.424H227.476V434.132C227.476 434.78 227.64 435.28 227.968 435.632C228.296 435.976 228.744 436.148 229.312 436.148C229.896 436.148 230.356 435.968 230.692 435.608C231.028 435.248 231.196 434.724 231.196 434.036V430.424H232.288ZM236.46 437.108C235.956 437.108 235.504 437.024 235.104 436.856C234.704 436.68 234.388 436.44 234.156 436.136C233.924 435.824 233.796 435.468 233.772 435.068H234.9C234.932 435.396 235.084 435.664 235.356 435.872C235.636 436.08 236 436.184 236.448 436.184C236.864 436.184 237.192 436.092 237.432 435.908C237.672 435.724 237.792 435.492 237.792 435.212C237.792 434.924 237.664 434.712 237.408 434.576C237.152 434.432 236.756 434.292 236.22 434.156C235.732 434.028 235.332 433.9 235.02 433.772C234.716 433.636 234.452 433.44 234.228 433.184C234.012 432.92 233.904 432.576 233.904 432.152C233.904 431.816 234.004 431.508 234.204 431.228C234.404 430.948 234.688 430.728 235.056 430.568C235.424 430.4 235.844 430.316 236.316 430.316C237.044 430.316 237.632 430.5 238.08 430.868C238.528 431.236 238.768 431.74 238.8 432.38H237.708C237.684 432.036 237.544 431.76 237.288 431.552C237.04 431.344 236.704 431.24 236.28 431.24C235.888 431.24 235.576 431.324 235.344 431.492C235.112 431.66 234.996 431.88 234.996 432.152C234.996 432.368 235.064 432.548 235.2 432.692C235.344 432.828 235.52 432.94 235.728 433.028C235.944 433.108 236.24 433.2 236.616 433.304C237.088 433.432 237.472 433.56 237.768 433.688C238.064 433.808 238.316 433.992 238.524 434.24C238.74 434.488 238.852 434.812 238.86 435.212C238.86 435.572 238.76 435.896 238.56 436.184C238.36 436.472 238.076 436.7 237.708 436.868C237.348 437.028 236.932 437.108 236.46 437.108ZM239.994 433.7C239.994 433.02 240.13 432.428 240.402 431.924C240.674 431.412 241.05 431.016 241.53 430.736C242.018 430.456 242.574 430.316 243.198 430.316C244.006 430.316 244.67 430.512 245.19 430.904C245.718 431.296 246.066 431.84 246.234 432.536H245.058C244.946 432.136 244.726 431.82 244.398 431.588C244.078 431.356 243.678 431.24 243.198 431.24C242.574 431.24 242.07 431.456 241.686 431.888C241.302 432.312 241.11 432.916 241.11 433.7C241.11 434.492 241.302 435.104 241.686 435.536C242.07 435.968 242.574 436.184 243.198 436.184C243.678 436.184 244.078 436.072 244.398 435.848C244.718 435.624 244.938 435.304 245.058 434.888H246.234C246.058 435.56 245.706 436.1 245.178 436.508C244.65 436.908 243.99 437.108 243.198 437.108C242.574 437.108 242.018 436.968 241.53 436.688C241.05 436.408 240.674 436.012 240.402 435.5C240.13 434.988 239.994 434.388 239.994 433.7ZM248.783 428.12V437H247.691V428.12H248.783ZM256.644 433.46C256.644 433.668 256.632 433.888 256.608 434.12H251.352C251.392 434.768 251.612 435.276 252.012 435.644C252.42 436.004 252.912 436.184 253.488 436.184C253.96 436.184 254.352 436.076 254.664 435.86C254.984 435.636 255.208 435.34 255.336 434.972H256.512C256.336 435.604 255.984 436.12 255.456 436.52C254.928 436.912 254.272 437.108 253.488 437.108C252.864 437.108 252.304 436.968 251.808 436.688C251.32 436.408 250.936 436.012 250.656 435.5C250.376 434.98 250.236 434.38 250.236 433.7C250.236 433.02 250.372 432.424 250.644 431.912C250.916 431.4 251.296 431.008 251.784 430.736C252.28 430.456 252.848 430.316 253.488 430.316C254.112 430.316 254.664 430.452 255.144 430.724C255.624 430.996 255.992 431.372 256.248 431.852C256.512 432.324 256.644 432.86 256.644 433.46ZM255.516 433.232C255.516 432.816 255.424 432.46 255.24 432.164C255.056 431.86 254.804 431.632 254.484 431.48C254.172 431.32 253.824 431.24 253.44 431.24C252.888 431.24 252.416 431.416 252.024 431.768C251.64 432.12 251.42 432.608 251.364 433.232H255.516ZM152.479 448.304C152.991 448.304 153.447 448.412 153.847 448.628C154.247 448.836 154.563 449.152 154.795 449.576C155.027 450 155.143 450.516 155.143 451.124V455H154.063V451.28C154.063 450.624 153.899 450.124 153.571 449.78C153.251 449.428 152.815 449.252 152.263 449.252C151.695 449.252 151.243 449.436 150.907 449.804C150.571 450.164 150.403 450.688 150.403 451.376V455H149.323V451.28C149.323 450.624 149.159 450.124 148.831 449.78C148.511 449.428 148.075 449.252 147.523 449.252C146.955 449.252 146.503 449.436 146.167 449.804C145.831 450.164 145.663 450.688 145.663 451.376V455H144.571V448.424H145.663V449.372C145.879 449.028 146.167 448.764 146.527 448.58C146.895 448.396 147.299 448.304 147.739 448.304C148.291 448.304 148.779 448.428 149.203 448.676C149.627 448.924 149.943 449.288 150.151 449.768C150.335 449.304 150.639 448.944 151.063 448.688C151.487 448.432 151.959 448.304 152.479 448.304ZM156.527 451.688C156.527 451.016 156.663 450.428 156.935 449.924C157.207 449.412 157.579 449.016 158.051 448.736C158.531 448.456 159.063 448.316 159.647 448.316C160.223 448.316 160.723 448.44 161.147 448.688C161.571 448.936 161.887 449.248 162.095 449.624V448.424H163.199V455H162.095V453.776C161.879 454.16 161.555 454.48 161.123 454.736C160.699 454.984 160.203 455.108 159.635 455.108C159.051 455.108 158.523 454.964 158.051 454.676C157.579 454.388 157.207 453.984 156.935 453.464C156.663 452.944 156.527 452.352 156.527 451.688ZM162.095 451.7C162.095 451.204 161.995 450.772 161.795 450.404C161.595 450.036 161.323 449.756 160.979 449.564C160.643 449.364 160.271 449.264 159.863 449.264C159.455 449.264 159.083 449.36 158.747 449.552C158.411 449.744 158.143 450.024 157.943 450.392C157.743 450.76 157.643 451.192 157.643 451.688C157.643 452.192 157.743 452.632 157.943 453.008C158.143 453.376 158.411 453.66 158.747 453.86C159.083 454.052 159.455 454.148 159.863 454.148C160.271 454.148 160.643 454.052 160.979 453.86C161.323 453.66 161.595 453.376 161.795 453.008C161.995 452.632 162.095 452.196 162.095 451.7ZM167.372 455.108C166.868 455.108 166.416 455.024 166.016 454.856C165.616 454.68 165.3 454.44 165.068 454.136C164.836 453.824 164.708 453.468 164.684 453.068H165.812C165.844 453.396 165.996 453.664 166.268 453.872C166.548 454.08 166.912 454.184 167.36 454.184C167.776 454.184 168.104 454.092 168.344 453.908C168.584 453.724 168.704 453.492 168.704 453.212C168.704 452.924 168.576 452.712 168.32 452.576C168.064 452.432 167.668 452.292 167.132 452.156C166.644 452.028 166.244 451.9 165.932 451.772C165.628 451.636 165.364 451.44 165.14 451.184C164.924 450.92 164.816 450.576 164.816 450.152C164.816 449.816 164.916 449.508 165.116 449.228C165.316 448.948 165.6 448.728 165.968 448.568C166.336 448.4 166.756 448.316 167.228 448.316C167.956 448.316 168.544 448.5 168.992 448.868C169.44 449.236 169.68 449.74 169.712 450.38H168.62C168.596 450.036 168.456 449.76 168.2 449.552C167.952 449.344 167.616 449.24 167.192 449.24C166.8 449.24 166.488 449.324 166.256 449.492C166.024 449.66 165.908 449.88 165.908 450.152C165.908 450.368 165.976 450.548 166.112 450.692C166.256 450.828 166.432 450.94 166.64 451.028C166.856 451.108 167.152 451.2 167.528 451.304C168 451.432 168.384 451.56 168.68 451.688C168.976 451.808 169.228 451.992 169.436 452.24C169.652 452.488 169.764 452.812 169.772 453.212C169.772 453.572 169.672 453.896 169.472 454.184C169.272 454.472 168.988 454.7 168.62 454.868C168.26 455.028 167.844 455.108 167.372 455.108ZM173.642 455.108C173.138 455.108 172.686 455.024 172.286 454.856C171.886 454.68 171.57 454.44 171.338 454.136C171.106 453.824 170.978 453.468 170.954 453.068H172.082C172.114 453.396 172.266 453.664 172.538 453.872C172.818 454.08 173.182 454.184 173.63 454.184C174.046 454.184 174.374 454.092 174.614 453.908C174.854 453.724 174.974 453.492 174.974 453.212C174.974 452.924 174.846 452.712 174.59 452.576C174.334 452.432 173.938 452.292 173.402 452.156C172.914 452.028 172.514 451.9 172.202 451.772C171.898 451.636 171.634 451.44 171.41 451.184C171.194 450.92 171.086 450.576 171.086 450.152C171.086 449.816 171.186 449.508 171.386 449.228C171.586 448.948 171.87 448.728 172.238 448.568C172.606 448.4 173.026 448.316 173.498 448.316C174.226 448.316 174.814 448.5 175.262 448.868C175.71 449.236 175.95 449.74 175.982 450.38H174.89C174.866 450.036 174.726 449.76 174.47 449.552C174.222 449.344 173.886 449.24 173.462 449.24C173.07 449.24 172.758 449.324 172.526 449.492C172.294 449.66 172.178 449.88 172.178 450.152C172.178 450.368 172.246 450.548 172.382 450.692C172.526 450.828 172.702 450.94 172.91 451.028C173.126 451.108 173.422 451.2 173.798 451.304C174.27 451.432 174.654 451.56 174.95 451.688C175.246 451.808 175.498 451.992 175.706 452.24C175.922 452.488 176.034 452.812 176.042 453.212C176.042 453.572 175.942 453.896 175.742 454.184C175.542 454.472 175.258 454.7 174.89 454.868C174.53 455.028 174.114 455.108 173.642 455.108Z" fill="white"/>
<line x1="136.153" y1="385.5" x2="185.153" y2="385.5" stroke="#F7F8F8" stroke-linecap="round" stroke-linejoin="round"/>
<path d="M261.699 267.273C261.517 270.812 260.895 278.081 256.202 278.081H255.969C255.383 278.025 254.812 277.86 254.283 277.594C254.039 277.48 253.805 277.344 253.583 277.189C252.487 276.254 251.636 275.046 251.11 273.675C250.584 272.305 250.4 270.818 250.576 269.353C250.603 268.445 250.516 267.536 250.316 266.651C250.24 266.23 250.136 265.815 250.005 265.408C249.994 265.328 249.994 265.246 250.005 265.165C249.798 264.679 249.616 264.301 249.435 263.949C249.329 263.733 249.208 263.525 249.072 263.328C249.09 263.275 249.09 263.218 249.072 263.166C249 263.038 248.913 262.92 248.812 262.815C248.536 262.424 248.223 262.062 247.879 261.734L247.724 261.572C247.335 261.22 246.972 260.869 246.609 260.572C245.234 259.356 244.016 258.518 244.171 256.978C244.379 253.358 246.764 248.683 250.057 249.71C250.057 249.71 250.887 245.387 248.605 244.306C247.153 243.55 248.605 243.144 249.487 243.063C250.99 242.928 252.494 243.55 254.102 243.415C254.201 243.319 254.305 243.229 254.413 243.144C255.049 243.05 255.695 243.05 256.332 243.144H256.487C257.177 243.298 257.82 243.625 258.362 244.096C258.904 244.566 259.329 245.167 259.598 245.846C260.047 247.221 260.274 248.663 260.273 250.115C260.532 255.979 262.01 261.356 261.699 267.273Z" fill="#3B2645"/>
<path d="M252.027 259.356C251.82 259.923 251.379 260.167 250.913 260.491C250.374 260.885 249.863 261.318 249.383 261.788C249.111 262.084 248.859 262.4 248.631 262.733C248.354 262.342 248.042 261.981 247.698 261.653L247.542 261.491C247.718 261.236 247.908 260.992 248.112 260.761C248.89 259.869 250.42 258.221 251.664 258.626C251.803 258.676 251.919 258.779 251.986 258.915C252.054 259.051 252.069 259.209 252.027 259.356Z" fill="#E8CEE5"/>
<path d="M253.22 262.49C252.204 263.494 251.102 264.398 249.927 265.192C249.72 264.706 249.538 264.328 249.357 263.976C250.25 262.862 251.488 262.108 252.857 261.842C252.927 261.848 252.995 261.872 253.055 261.911C253.115 261.951 253.164 262.005 253.2 262.068C253.235 262.132 253.256 262.203 253.259 262.277C253.263 262.35 253.249 262.423 253.22 262.49Z" fill="#E8CEE5"/>
<path d="M261.698 267.273C261.517 270.812 260.894 278.081 256.201 278.081H255.968C255.383 278.025 254.812 277.86 254.283 277.594C261.205 274.892 259.676 265.381 259.028 258.681C258.966 253.406 258.153 248.17 256.616 243.144C257.284 243.314 257.903 243.648 258.422 244.118C258.941 244.588 259.344 245.18 259.598 245.846C260.046 247.221 260.274 248.663 260.272 250.115C260.531 255.979 262.009 261.355 261.698 267.273Z" fill="#E8CEE5"/>
<path d="M122.182 123.691C122.182 123.691 121.481 126.906 120.315 131.797C117.912 142.223 114.739 152.44 110.825 162.356C109.756 164.992 108.389 167.486 106.755 169.786C99.4688 179.405 70.1705 157.384 66.4369 154.52C66.1907 154.323 65.8917 154.209 65.5812 154.196C63.507 154.196 55.2101 153.737 55.3916 147.765C55.5472 141.254 59.8512 133.067 69.263 142.361C75.0708 148.063 95.5796 155.142 95.5796 155.142L102.243 110.127C102.327 109.573 102.555 109.053 102.901 108.624C103.248 108.194 103.701 107.872 104.21 107.691C104.72 107.51 105.268 107.478 105.794 107.598C106.32 107.718 106.804 107.985 107.195 108.371C110.851 111.91 116.503 117.612 122.182 123.691Z" fill="#FFEDE5"/>
<path d="M120.288 131.689C117.899 142.151 114.735 152.404 110.825 162.356C110.695 149.387 110.41 131.527 110.41 131.527C111.945 130.716 113.647 130.307 115.368 130.336C117.089 130.364 118.778 130.828 120.288 131.689Z" fill="#E0855C"/>
<path d="M143.649 202.75C138.23 206.749 132.189 210.613 126.174 214.423C123.296 216.233 120.548 218.043 117.955 219.826C110.315 225.114 102.958 230.833 95.9164 236.957C98.9499 240.74 102.113 249.44 104.965 259.329C110.695 279.215 115.336 303.992 115.336 303.992C110.151 308.937 105.769 306.694 105.769 306.694C101.698 298.588 92.9347 281.053 85.5453 264.922C78.6225 249.926 72.9184 235.957 73.4889 231.526C74.0593 227.095 85.26 214.287 96.8238 201.967C109.788 188.457 123.063 175.433 123.063 175.433C128.037 169.878 133.675 165.011 139.838 160.951C146.035 157.141 152.802 154.953 157.987 158.519C160.63 160.46 162.617 163.221 163.666 166.409C163.857 166.876 164.021 167.354 164.158 167.841C168.125 180.999 157.858 192.348 143.649 202.75Z" fill="#FFEDE5"/>
<path d="M248.631 256.33C234.371 257.032 219.566 258.735 207.562 259.707C197.19 260.572 188.997 260.95 185.056 259.707C177.278 257.384 164.859 238.416 156.536 224.582C151.635 216.314 148.109 209.856 148.109 209.856C148.109 209.856 146.061 207.154 143.572 202.75C137.012 191.321 127.445 169.462 146.165 163.545C154.202 161.005 159.647 162.896 163.977 167.841C169.785 174.461 173.596 186.538 179.015 200.994L193.924 239.605C198.313 238.649 202.793 238.223 207.276 238.335C221.516 238.91 235.67 240.919 249.539 244.333C253.998 250.115 248.631 256.33 248.631 256.33Z" fill="#FFEDE5"/>
<path d="M116.762 81.4594C122.233 79.8923 127.678 78.2171 133.071 76.3798C136.234 75.299 139.708 75.2449 140.849 71.4352C141.281 69.8582 141.364 68.1993 141.09 66.5843C140.816 64.9692 140.193 63.4403 139.267 62.1134C137.466 59.7522 134.939 58.1108 132.111 57.4661C129.299 56.8446 126.393 56.8446 123.581 57.4661C121.552 57.7334 119.6 58.4445 117.853 59.5527C116.106 60.6609 114.603 62.1412 113.443 63.8967C112.203 66.4771 111.716 69.3799 112.043 72.2458C112.262 74.7586 113.082 77.174 114.429 79.2708C114.61 79.5681 115.829 82.1619 116.451 81.9728C116.633 81.8647 116.736 81.4864 116.762 81.4594Z" fill="#3B2645"/>
<path d="M115.31 76.9471C114.985 76.6438 114.596 76.4247 114.174 76.3078C113.752 76.1908 113.309 76.1792 112.883 76.274C112.456 76.3688 112.056 76.5672 111.717 76.8532C111.377 77.1392 111.107 77.5046 110.929 77.9198C109.295 81.1622 114.118 85.5934 116.996 85.1881C116.601 82.4069 116.038 79.6544 115.31 76.9471Z" fill="#E0855C"/>
<path d="M162.758 99.6976C161.149 108.694 160.239 117.811 160.036 126.96C160.036 127.852 160.036 128.636 160.036 129.419C160.373 135.066 163.147 161.68 163.666 165.868C163.666 166.22 163.666 166.409 163.666 166.409C146.216 175.866 126.044 175.46 123.478 175.433H123.192C123.1 175.049 122.987 174.67 122.855 174.299C121.3 169.408 115.284 149.278 110.436 131.527C110.436 131.256 110.28 131.013 110.203 130.716C107.61 121.583 103.954 114.504 102.969 109.29C102.606 107.317 108.569 105.047 111.473 103.886C111.888 103.697 112.329 103.561 112.795 103.399C115.077 102.562 117.436 101.859 119.329 101.346L123.244 100.4L122.026 89.5923H123.063C123.715 89.5633 124.364 89.4911 125.007 89.3762C125.805 89.2406 126.593 89.0511 127.367 88.8088L128.456 88.4575L129.882 87.8361C130.642 87.5033 131.378 87.1151 132.086 86.6742C132.245 86.6022 132.401 86.521 132.552 86.431C132.576 86.4453 132.603 86.4528 132.63 86.4528C132.657 86.4528 132.684 86.4453 132.708 86.431L133.201 86.1068C134.071 85.5105 134.887 84.8322 135.638 84.0803C136.053 83.675 136.416 83.3238 136.701 82.9996L136.882 82.7834C137.019 82.6541 137.14 82.509 137.245 82.3511C137.345 82.2557 137.433 82.1466 137.505 82.0269V82.27C137.505 82.4321 137.505 82.5943 137.505 82.7834C137.505 84.5667 137.868 86.8093 138.231 89.0519C138.438 90.592 138.671 92.1051 138.905 93.4291C139.32 95.6987 139.657 97.3469 139.657 97.3469C140.127 97.2284 140.603 97.1382 141.083 97.0767H141.238H142.016C143.846 96.7934 145.69 96.622 147.539 96.5634C148.316 96.5634 149.068 96.5634 149.794 96.5634C153.898 96.6302 157.97 97.3313 161.877 98.6439C162.113 98.696 162.328 98.827 162.487 99.0171C162.646 99.2072 162.741 99.4461 162.758 99.6976Z" fill="#FFEDE5"/>
<path d="M137.738 81.9187C137.788 83.8935 137.418 85.8554 136.653 87.6629C135.888 89.4704 134.747 91.0783 133.314 92.3708C131.88 93.6632 130.189 94.6079 128.362 95.1367C126.536 95.6654 124.619 95.7651 122.751 95.4285L122.129 89.8354C125.125 89.7692 128.072 89.0272 130.766 87.6605C133.461 86.2938 135.839 84.3349 137.738 81.9187Z" fill="#E0855C"/>
<path d="M114.196 68.8953C113.055 70.8137 113.677 74.2992 114.351 78.3251C116.425 90.2948 120.574 93.2399 126.537 92.5914C132.501 91.943 138.101 88.2683 137.09 76.9741C136.597 71.3271 136.234 66.1663 133.823 64.1399C130.219 61.2217 117.67 63.0591 114.196 68.8953Z" fill="#FFEDE5"/>
<path d="M135.975 75.6232C135.975 75.6232 136.727 70.2193 140.072 72.2728C143.416 74.3262 141.057 82.5672 136.649 83.0806C136.649 82.9184 134.938 77.5416 135.975 75.6232Z" fill="#FFEDE5"/>
<path d="M119.303 76.9201C119.303 76.9201 118.396 77.5416 118.162 75.6773C117.929 73.8129 118.707 74.0831 118.707 74.0831C118.707 74.0831 119.381 73.921 119.588 75.38C119.796 76.8391 119.303 76.9201 119.303 76.9201Z" fill="#3B2645"/>
<path d="M129.286 74.7045C129.286 74.7045 128.378 75.2989 128.145 73.4616C127.911 71.6243 128.689 71.8675 128.689 71.8675C128.689 71.8675 129.363 71.7053 129.571 73.1644C129.778 74.6234 129.286 74.7045 129.286 74.7045Z" fill="#3B2645"/>
<path d="M124.774 80.7839C124.281 80.7839 123.192 81.3784 122.829 80.7839C122.673 79.5011 122.673 78.2029 122.829 76.9201C122.967 75.2039 123.011 73.4808 122.959 71.7594C122.959 71.7594 122.803 71.7594 122.777 71.7594C122.328 74.9162 122.128 78.1063 122.181 81.2973C122.174 81.3395 122.178 81.3829 122.192 81.4231C122.206 81.4633 122.23 81.499 122.262 81.5264C122.293 81.5538 122.331 81.5721 122.372 81.5793C122.412 81.5865 122.454 81.5824 122.492 81.5675C123.218 81.4054 123.97 81.4054 124.696 81.2433C125.033 81.1892 125.033 80.7569 124.774 80.7839Z" fill="#E0855C"/>
<path d="M119.251 71.165C118.447 70.9488 117.125 71.165 116.658 72.0296C116.64 72.0685 116.633 72.1122 116.639 72.155C116.645 72.1978 116.663 72.2379 116.691 72.2699C116.719 72.3019 116.756 72.3244 116.796 72.3346C116.836 72.3447 116.879 72.342 116.918 72.3268C117.255 72.3268 117.54 71.9756 117.877 71.8675C118.253 71.7867 118.641 71.7867 119.018 71.8675C119.107 71.8998 119.205 71.8937 119.29 71.8506C119.375 71.8075 119.44 71.731 119.471 71.6378C119.502 71.5447 119.497 71.4425 119.455 71.3539C119.414 71.2652 119.34 71.1972 119.251 71.165Z" fill="#3B2645"/>
<path d="M129.804 69.7599C129.6 69.5593 129.359 69.4033 129.096 69.3013C128.833 69.1992 128.553 69.1531 128.273 69.1657C127.992 69.1783 127.717 69.2493 127.464 69.3746C127.21 69.4999 126.983 69.6768 126.796 69.895C126.77 69.9416 126.755 69.9943 126.754 70.0483C126.752 70.1023 126.763 70.1558 126.786 70.2042C126.809 70.2525 126.844 70.294 126.886 70.3249C126.929 70.3559 126.978 70.3753 127.03 70.3813C127.486 70.3213 127.937 70.2219 128.378 70.0841C128.756 70.0294 129.14 70.0294 129.519 70.0841C129.726 70.2192 129.959 69.949 129.804 69.7599Z" fill="#3B2645"/>
<path d="M127.911 82.7024C126.796 83.2968 126.2 84.1884 124.878 84.4316C124.232 84.6079 123.553 84.6079 122.907 84.4316C122.544 84.4316 122.544 84.2425 122.181 84.2695C122.155 84.2723 122.129 84.2812 122.106 84.2956C122.083 84.31 122.063 84.3295 122.048 84.3528C122.034 84.376 122.024 84.4024 122.02 84.4301C122.016 84.4577 122.018 84.4859 122.026 84.5127C122.337 85.6745 124.1 85.4854 124.956 85.3503C125.632 85.2737 126.28 85.0271 126.845 84.6318C127.409 84.2364 127.873 83.7041 128.197 83.0806C128.274 82.8645 128.093 82.6213 127.911 82.7024Z" fill="#E0855C"/>
<path d="M183.111 211.315C182.333 211.91 181.607 212.477 180.856 212.991C180.104 213.504 179.663 213.855 179.067 214.26C172.265 219.166 164.626 222.669 156.561 224.582C151.635 216.314 148.109 209.856 148.109 209.856C148.109 209.856 146.06 207.154 143.571 202.75C138.153 206.749 132.111 210.613 126.096 214.423C123.218 216.233 120.47 218.043 117.877 219.827C115.414 218.286 113.184 216.746 111.162 215.26C105.86 211.492 101.049 207.023 96.8496 201.967C109.814 188.457 123.089 175.433 123.089 175.433C128.063 169.878 133.701 165.011 139.864 160.951C145.698 158.89 151.868 158.063 158.013 158.519C160.646 160.464 162.624 163.225 163.665 166.409C163.857 166.876 164.021 167.354 164.158 167.841C169.966 174.461 173.777 186.538 179.196 200.994C180.57 204.615 181.815 208.019 183.111 211.315Z" fill="#AB8DA8"/>
<path d="M115.285 303.992C110.099 308.937 105.717 306.694 105.717 306.694C101.647 298.588 92.8831 281.053 85.4937 264.922C92.1602 263.815 98.6899 261.949 104.965 259.356C110.695 279.215 115.285 303.992 115.285 303.992Z" fill="#E8CEE5"/>
<path d="M118.007 307.613C118.046 307.864 118.046 308.119 118.007 308.37C117.825 309.561 117.224 310.64 116.322 311.396C115.189 312.252 113.939 312.926 112.614 313.395C107.428 315.584 102.995 318.799 97.4982 320.231C94.2313 321.123 87.4641 322.744 85.9603 318.097C85.955 318.016 85.955 317.934 85.9603 317.853C85.8993 317.378 85.8993 316.897 85.9603 316.421C85.9867 316.02 86.0475 315.622 86.1418 315.233C86.6344 313.449 88.1642 311.234 92.3645 309.829C93.2001 309.562 94.0012 309.19 94.7498 308.721C95.1 308.518 95.4377 308.292 95.761 308.045L95.9684 307.856C96.3527 307.539 96.7085 307.186 97.0315 306.802L97.3685 306.397L97.4982 306.235L97.8612 305.641C98.0677 305.313 98.2497 304.97 98.4056 304.614C98.6908 303.992 98.8983 303.479 99.0798 303.02C99.7279 301.29 100.169 299.885 101.673 299.507C105.043 298.588 110.021 299.507 110.151 303.074C110.151 303.074 114.351 302.56 114.688 299.939C114.922 298.264 115.777 299.561 116.114 300.426C116.685 301.885 116.607 303.56 117.229 305.073C117.229 305.289 117.411 305.451 117.488 305.668C117.799 306.258 118.018 306.897 118.137 307.559C118.096 307.584 118.053 307.602 118.007 307.613Z" fill="#3B2645"/>
<path d="M248.631 256.33C234.371 257.032 219.566 258.735 207.562 259.707C208.43 255.265 208.752 250.725 208.521 246.198C208.484 243.512 208.118 240.843 207.432 238.254C221.672 238.829 235.825 240.837 249.694 244.252C253.998 250.115 248.631 256.33 248.631 256.33Z" fill="#E8CEE5"/>
<path d="M99.5723 312.017C98.4314 310.774 97.3943 309.45 96.2017 308.234L95.8127 307.856C96.197 307.539 96.5528 307.186 96.8758 306.802C97.0313 306.964 97.161 307.127 97.3165 307.262C98.5083 308.418 99.5775 309.704 100.506 311.098C100.895 311.72 100.091 312.585 99.5723 312.017Z" fill="#E8CEE5"/>
<path d="M102.606 308.423C102.646 308.528 102.655 308.643 102.633 308.753C102.61 308.864 102.556 308.964 102.478 309.043C102.4 309.121 102.302 309.173 102.195 309.193C102.089 309.213 101.979 309.199 101.88 309.153C100.73 308.358 99.6542 307.453 98.6648 306.451C98.3611 306.177 98.0406 305.925 97.7055 305.694C97.912 305.367 98.0941 305.024 98.25 304.668C98.6348 304.824 98.9935 305.043 99.313 305.316C100.664 306.016 101.804 307.091 102.606 308.423Z" fill="#E8CEE5"/>
<path d="M117.981 308.37C117.799 309.561 117.198 310.64 116.296 311.396C115.163 312.252 113.913 312.926 112.588 313.395C107.403 315.584 102.969 318.799 97.4723 320.231C94.2054 321.123 87.4382 322.744 85.9344 318.097C85.9291 318.016 85.9291 317.934 85.9344 317.853C85.8734 317.378 85.8734 316.897 85.9344 316.421C92.4423 320.988 98.6909 316.827 105.302 314.611C110.125 312.963 114.999 311.99 117.981 308.37Z" fill="#E8CEE5"/>
<path d="M180.856 212.99C180.26 213.45 179.663 213.855 179.067 214.26C172.74 198.4 167.01 182.08 158.61 167.49C158.169 166.733 159.18 165.922 159.699 166.679C164.884 174.109 168.073 183.296 171.729 191.645C174.841 198.616 178.004 205.776 180.856 212.99Z" fill="#E8CEE5"/>
<path d="M143.649 202.75C138.231 206.749 132.189 210.613 126.174 214.423C123.296 216.233 120.548 218.043 117.955 219.827C115.492 218.286 113.262 216.746 111.24 215.26C129.804 204.236 143.286 202.777 143.649 202.75Z" fill="#826B80"/>
<path d="M163.665 166.409C146.216 175.866 126.044 175.514 123.477 175.433H123.192L122.855 174.38C121.3 169.489 115.284 149.36 110.436 131.608C113.029 122.529 113.029 108.452 112.795 103.561C115.077 102.724 117.436 102.021 119.329 101.508C119.459 106.263 120.677 118.125 129.441 118.449C139.812 118.827 141.808 103.534 142.171 96.8336C144.001 96.5502 145.845 96.3788 147.694 96.3202C148.472 96.3202 149.224 96.3202 149.95 96.3202C149.408 100.819 149.557 105.38 150.39 109.83C151.767 117.26 155.129 124.134 160.087 129.662C160.243 132.526 160.995 140.632 161.773 148.576C162.551 156.52 163.665 166.409 163.665 166.409Z" fill="#3B2645"/>
<path d="M160.113 129.662C160.113 132.364 160.995 140.47 161.773 148.576C154.088 137.307 150.088 123.76 150.364 109.938C151.767 117.333 155.136 124.167 160.087 129.662H160.113Z" fill="#291B30"/>
<path d="M72.1667 145.496C71.1556 149.305 69.3406 152.737 68.2517 156.466C67.6813 158.411 70.3259 159.168 71.3889 157.979C73.9565 154.546 75.7309 150.542 76.5745 146.279C77.2227 143.442 72.9187 142.686 72.1667 145.496Z" fill="#AB8DA8"/>
<path d="M117.903 95.6988C118.525 96.5905 119.173 97.4011 119.822 98.2387C120.069 98.5264 120.294 98.8335 120.496 99.1573C124.437 104.885 125.111 111.478 127.081 117.828L127.782 116.693C127.211 114.207 126.718 111.721 126.07 109.29C126.675 105.505 128.162 101.933 130.4 98.8871C132.152 97.0796 133.74 95.1079 135.145 92.9969C136.315 90.7274 136.996 88.2194 137.141 85.6476C137.194 83.1429 137.659 80.6662 138.516 78.3253C138.611 78.1289 138.681 77.9198 138.723 77.7038C138.731 77.4259 138.674 77.1501 138.557 76.9004C138.439 76.6508 138.265 76.4349 138.049 76.2718C137.887 76.128 137.689 76.0344 137.478 76.0016C137.37 75.9882 137.259 76.0094 137.162 76.0625C137.065 76.1155 136.985 76.1979 136.934 76.2988C136.907 76.4416 136.907 76.5883 136.934 76.7311C136.99 78.3122 136.903 79.8953 136.675 81.4595C136.519 83.1077 136.441 84.7829 136.26 86.4581C135.812 90.3011 134.098 93.863 131.411 96.5364C128.348 99.6158 126.343 103.661 125.707 108.047C125.097 105.776 124.226 103.589 123.115 101.535C121.585 98.8331 119.511 96.4554 117.929 93.8075C116.783 91.963 115.983 89.9095 115.57 87.7551C115.283 86.7646 115.135 85.7363 115.129 84.7019C115.129 83.6751 115.595 81.6216 114.973 80.757C114.014 79.406 113.651 80.9732 113.781 81.9189C114.092 83.9723 114.066 86.0529 114.481 88.0793C115.048 90.5337 116.041 92.8594 117.41 94.9423L117.903 95.6988Z" fill="#AB8DA8"/>
<path d="M139.215 147.901C137.608 149.846 137.919 153.304 137.971 155.574C138.226 157.553 138.339 159.549 138.308 161.545C138.296 162.408 138.102 163.257 137.739 164.032C137.376 164.808 136.853 165.49 136.208 166.031C135.702 166.273 135.156 166.41 134.6 166.436C134.113 166.544 133.61 166.544 133.122 166.436C132.429 166.132 131.834 165.625 131.411 164.977C129.596 162.599 129.959 160.492 129.83 157.655C129.816 156.449 129.563 155.26 129.085 154.163C128.608 153.065 127.916 152.083 127.055 151.278C122.311 146.09 124.8 141.659 126.226 135.85C128.067 128.338 128.818 118.692 125.655 111.532C126.325 116.194 126.697 120.897 126.77 125.609C126.38 130.713 125.396 135.749 123.84 140.605C123.301 141.958 123.024 143.409 123.024 144.874C123.024 146.34 123.301 147.79 123.84 149.143C124.417 150.141 125.123 151.051 125.94 151.845C128.533 154.547 128.533 157.087 128.818 160.789C129.104 164.491 132.889 169.759 137.063 166.652C137.864 165.908 138.481 164.976 138.865 163.932C139.248 162.888 139.386 161.764 139.267 160.654C139.267 158.708 138.878 156.79 138.775 154.845C138.61 153.204 138.68 151.546 138.982 149.927C139.062 149.604 139.203 149.301 139.397 149.035C139.793 148.587 140.323 148.292 140.901 148.198C141.194 148.063 141.515 148.008 141.834 148.036C142.245 148.083 142.629 148.274 142.923 148.576C143.643 149.46 144.229 150.453 144.66 151.521C144.66 151.764 144.842 152.278 145.101 152.386C145.36 152.494 145.775 152.251 145.697 151.899C145.049 149.197 142.249 144.28 139.215 147.901Z" fill="#AB8DA8"/>
<path d="M149.291 149.199L143.444 152.175C142.054 152.883 141.478 154.63 142.156 156.078L149.291 171.301C149.969 172.749 151.646 173.35 153.036 172.642L158.883 169.666C160.273 168.959 160.849 167.212 160.171 165.763L153.036 150.541C152.358 149.093 150.681 148.492 149.291 149.199Z" fill="#E8CEE5"/>
<path d="M160.84 98.4277C161.248 98.3385 161.671 98.3533 162.073 98.4709C162.475 98.5885 162.843 98.8054 163.147 99.1032C168.333 104.21 193.146 129.77 195.349 140.902C197.657 152.548 163.795 161.491 159.44 162.518C159.143 162.587 158.879 162.759 158.688 163.004C157.391 164.572 151.946 170.651 147.772 166.868C143.598 163.086 139.994 154.277 152.517 152.737C160.165 151.791 177.952 140.335 177.952 140.335L156.587 123.286C156.587 123.286 149.639 100.995 160.84 98.4277Z" fill="#FFEDE5"/>
<path d="M188.426 239.659C178.237 239.037 167.918 239.659 157.728 239.659C147.538 239.659 137.193 239.253 127.03 240.01C126.984 240.027 126.944 240.058 126.916 240.099C126.888 240.14 126.873 240.189 126.873 240.24C126.873 240.29 126.888 240.339 126.916 240.381C126.944 240.422 126.984 240.453 127.03 240.469C137.193 241.226 147.538 240.767 157.728 240.794C167.918 240.821 178.237 241.388 188.426 240.794C188.571 240.794 188.709 240.734 188.811 240.627C188.914 240.521 188.971 240.377 188.971 240.226C188.971 240.076 188.914 239.931 188.811 239.825C188.709 239.719 188.571 239.659 188.426 239.659Z" fill="#F7F8F8"/>
<path d="M261.906 196.833C250.627 196.211 239.245 196.644 227.966 196.644C216.688 196.644 205.228 195.914 194.027 196.968C193.917 196.968 193.811 197.013 193.734 197.095C193.656 197.176 193.612 197.286 193.612 197.4C193.612 197.515 193.656 197.625 193.734 197.706C193.811 197.787 193.917 197.833 194.027 197.833C205.228 198.859 216.74 198.103 227.966 198.13C239.193 198.157 250.627 198.562 261.906 197.968C262.05 197.968 262.189 197.908 262.291 197.801C262.393 197.695 262.45 197.551 262.45 197.4C262.45 197.25 262.393 197.105 262.291 196.999C262.189 196.893 262.05 196.833 261.906 196.833Z" fill="#F7F8F8"/>
<path d="M88.9937 181.567C81.345 181.08 73.5667 181.432 65.8921 181.567C58.1823 181.233 50.4605 181.359 42.7645 181.945C42.7026 181.945 42.6433 181.971 42.5995 182.016C42.5557 182.062 42.5312 182.124 42.5312 182.188C42.5312 182.253 42.5557 182.315 42.5995 182.36C42.6433 182.406 42.7026 182.431 42.7645 182.431C50.461 183.004 58.1821 183.13 65.8921 182.81C73.6704 182.81 81.4487 183.161 88.9937 182.81C89.1518 182.81 89.3035 182.744 89.4153 182.628C89.5272 182.511 89.59 182.353 89.59 182.188C89.59 182.023 89.5272 181.865 89.4153 181.749C89.3035 181.632 89.1518 181.567 88.9937 181.567Z" fill="#F7F8F8"/>
<path d="M96.7718 187.484C88.5642 186.7 80.3006 186.809 72.1145 187.808C72.1145 187.808 72.1145 188.051 72.1145 188.079C80.3023 189.056 88.5646 189.155 96.7718 188.376C96.8674 188.351 96.9522 188.294 97.0129 188.213C97.0735 188.132 97.1065 188.032 97.1065 187.93C97.1065 187.827 97.0735 187.728 97.0129 187.647C96.9522 187.566 96.8674 187.509 96.7718 187.484Z" fill="#F7F8F8"/>
<path d="M232.063 81.0271C221.38 80.4057 210.569 80.838 199.86 80.865C189.152 80.892 178.34 80.4868 167.658 81.2703C167.576 81.2703 167.496 81.3045 167.438 81.3653C167.38 81.4261 167.347 81.5086 167.347 81.5946C167.347 81.6805 167.38 81.763 167.438 81.8238C167.496 81.8846 167.576 81.9188 167.658 81.9188C178.34 82.7024 189.178 82.3241 199.86 82.3511C210.543 82.3781 221.38 82.8104 232.063 82.189C232.19 82.1602 232.304 82.0869 232.386 81.9812C232.468 81.8755 232.512 81.7438 232.512 81.6081C232.512 81.4723 232.468 81.3406 232.386 81.2349C232.304 81.1293 232.19 81.0559 232.063 81.0271Z" fill="#F7F8F8"/>
<defs>
<filter id="filter0_d_265_1753" x="0.65332" y="0" width="319" height="522" filterUnits="userSpaceOnUse" color-interpolation-filters="sRGB">
<feFlood flood-opacity="0" result="BackgroundImageFix"/>
<feColorMatrix in="SourceAlpha" type="matrix" values="0 0 0 0 0 0 0 0 0 0 0 0 0 0 0 0 0 0 127 0" result="hardAlpha"/>
<feOffset dy="10"/>
<feGaussianBlur stdDeviation="11"/>
<feColorMatrix type="matrix" values="0 0 0 0 0.772549 0 0 0 0 0.545098 0 0 0 0 0.94902 0 0 0 0.3 0"/>
<feBlend mode="normal" in2="BackgroundImageFix" result="effect1_dropShadow_265_1753"/>
<feBlend mode="normal" in="SourceGraphic" in2="effect1_dropShadow_265_1753" result="shape"/>
</filter>
<linearGradient id="paint0_linear_265_1753" x1="297.653" y1="490" x2="-70.3302" y2="473.618" gradientUnits="userSpaceOnUse">
<stop stop-color="#92A3FD"/>
<stop offset="1" stop-color="#9DCEFF"/>
</linearGradient>
</defs>
</svg>
