<svg version="1.1" id="Layer_1" xmlns="http://www.w3.org/2000/svg" xmlns:xlink="http://www.w3.org/1999/xlink" x="0px" y="0px"
	 width="100%" viewBox="0 0 572 545" enable-background="new 0 0 572 545" xml:space="preserve">
<path fill="#FFFFFF" opacity="1.000000" stroke="none" 
	d="
M573.000000,210.000000 
	C573.000000,322.333344 573.000000,434.166656 573.000000,546.000000 
	C382.333344,546.000000 191.666672,546.000000 1.000000,546.000000 
	C1.000000,364.333344 1.000000,182.666672 1.000000,1.000000 
	C191.666672,1.000000 382.333344,1.000000 573.000000,1.000000 
	C573.000000,70.500000 573.000000,140.000000 573.000000,210.000000 
M161.996887,175.013153 
	C161.996887,175.013153 162.015991,175.075806 162.535614,175.192001 
	C162.705093,175.139282 162.874557,175.086578 163.576309,174.622589 
	C163.711884,173.745636 163.847443,172.868698 164.400909,171.733429 
	C164.656754,171.520386 164.860260,171.265549 165.561661,170.636505 
	C165.087097,169.415146 164.612534,168.193802 163.875153,166.444458 
	C163.299500,165.925720 162.723862,165.406998 161.648590,164.345474 
	C160.691452,164.136749 159.734329,163.928040 159.019760,163.080826 
	C160.784882,158.096329 163.439056,153.224564 164.089081,148.098663 
	C164.893585,141.754593 164.035385,135.199677 164.008972,127.956024 
	C164.599060,124.232300 165.338272,120.524689 165.742767,116.780907 
	C166.289886,111.717079 165.971313,106.648712 161.377945,103.415398 
	C157.936417,100.992867 154.020279,99.244560 149.746445,96.744713 
	C147.482971,95.491699 145.219513,94.238686 142.981476,93.047462 
	C142.981476,93.047462 143.048264,93.045486 143.324448,92.402306 
	C143.186890,92.213837 143.049347,92.025375 142.624893,91.238228 
	C142.404617,90.163406 142.184326,89.088577 142.077499,87.191643 
	C142.125900,85.817093 142.174316,84.442551 142.960617,83.046120 
	C149.940109,81.882599 151.316620,75.941498 151.842758,70.759865 
	C153.259186,56.810333 155.163010,42.758156 152.156082,28.134819 
	C156.047165,20.144913 153.459595,14.815492 144.839325,14.286482 
	C138.918747,13.923147 132.673279,13.700350 127.031143,15.171611 
	C118.758011,17.328936 110.586250,20.423962 107.466125,30.084938 
	C103.270660,43.075554 105.577118,54.856785 113.003349,66.852615 
	C114.246635,74.336594 111.908752,80.317062 105.708702,84.831879 
	C104.278831,85.873093 103.246536,87.460266 101.502823,89.194023 
	C100.563110,90.128342 99.623390,91.062653 98.022247,92.103104 
	C93.840736,94.491562 89.703041,96.961029 85.468521,99.251503 
	C76.840988,103.918175 71.731476,111.121117 70.013458,120.687103 
	C68.700844,127.995735 67.590256,135.163559 63.718185,141.892075 
	C60.826347,146.917221 59.616890,152.972839 58.055702,158.678329 
	C57.100513,162.169159 56.655354,165.848785 56.403404,169.472977 
	C55.797863,178.183273 55.431877,186.910370 54.988983,195.631699 
	C54.829330,198.775620 56.340252,200.680008 59.416607,201.297684 
	C62.489151,201.914597 65.559807,202.896347 68.652435,202.985626 
	C75.638824,203.187347 82.638260,202.937302 89.552567,203.826096 
	C89.038673,210.551743 88.524773,217.277405 87.581535,224.580856 
	C86.258095,228.861557 84.962860,233.151230 83.606369,237.421432 
	C77.370583,257.051544 77.211441,276.553741 83.995033,296.178711 
	C89.853119,313.126190 95.244324,330.249939 95.317451,348.722168 
	C98.019493,348.899841 100.461220,349.060394 102.885796,350.043610 
	C103.137375,351.507507 103.261436,353.007294 103.661354,354.429474 
	C106.153061,363.290527 106.676437,371.634399 101.172401,380.028778 
	C91.850876,394.245331 89.264977,410.287628 89.999207,427.107056 
	C90.606499,441.018677 90.634422,454.955597 90.216499,468.994354 
	C87.980446,471.422821 84.231758,473.615784 83.809746,476.326630 
	C82.797630,482.828125 79.819206,488.049988 76.475594,493.411896 
	C71.786629,500.931213 72.790535,503.805054 80.446388,508.068634 
	C84.914299,510.556793 90.070419,512.480469 93.508583,516.024414 
	C105.273865,528.151550 119.782066,527.232971 134.373184,525.281494 
	C136.890213,524.944824 139.914703,520.960327 140.745575,518.093140 
	C141.293182,516.203369 138.941986,512.326355 136.841187,511.005981 
	C124.778610,503.424469 116.138573,493.487549 112.793587,479.373932 
	C112.067978,476.312347 110.287201,474.760162 106.969109,475.089172 
	C108.515900,465.622253 109.200447,455.912445 111.784813,446.737793 
	C117.576660,426.176453 123.917259,405.746338 130.802307,385.524261 
	C135.517380,371.675690 140.028488,357.902008 141.627167,342.828003 
	C145.413589,341.193756 149.168106,339.479523 152.996964,337.951599 
	C155.845444,336.814880 156.947052,335.159760 156.551880,331.889496 
	C155.878601,326.317596 155.716904,320.675201 155.564819,315.056305 
	C155.533798,313.910706 156.493881,312.738281 157.593002,312.036285 
	C164.306335,316.281403 166.819748,316.109863 173.043823,310.909821 
	C174.544968,309.655640 175.971893,308.312622 178.145859,307.104309 
	C183.493988,308.917236 189.431839,309.679138 193.070663,315.047760 
	C191.926468,316.350647 191.039185,317.324158 190.192123,318.331512 
	C184.246658,325.402191 179.334824,332.976135 178.138443,342.441162 
	C177.746704,345.540405 178.004730,349.253571 176.376465,351.567902 
	C170.868774,359.396271 164.648468,366.723328 158.068024,374.441956 
	C154.391251,377.621002 150.727692,380.815491 147.033081,383.973633 
	C144.569199,386.079773 142.333893,388.679443 139.512390,390.091034 
	C134.588303,392.554626 133.234695,394.420471 134.461243,399.851013 
	C135.923660,406.325928 139.364883,411.488983 145.232391,414.707397 
	C149.416687,417.002533 151.805420,420.192413 153.186386,424.859802 
	C154.325012,428.708130 156.131424,433.279999 159.141907,435.457092 
	C164.984528,439.682343 171.700668,442.900665 178.431122,445.597046 
	C181.070435,446.654419 185.292862,446.069305 187.677795,444.516907 
	C188.945999,443.691467 188.057083,439.171631 187.704147,436.374634 
	C187.482834,434.620789 186.302246,433.011017 185.806702,431.264343 
	C184.418427,426.370880 183.162415,421.439911 181.942535,415.612061 
	C181.959564,410.694489 182.398056,405.728363 181.839294,400.877136 
	C181.490921,397.852386 181.852615,393.583893 177.000000,393.000000 
	C177.000000,393.000000 176.982788,393.020966 177.001205,392.190491 
	C177.007278,390.809509 177.013351,389.428528 177.205002,387.591156 
	C177.381393,387.295837 177.632446,387.092834 178.652527,386.896301 
	C179.106918,385.943329 179.561310,384.990356 180.297211,383.427582 
	C186.855942,376.155060 193.674545,369.097839 199.916534,361.562927 
	C211.123993,348.034058 222.539261,334.617584 232.796997,320.382629 
	C239.687485,310.820465 240.530945,299.764404 232.775681,289.775391 
	C228.317322,284.032928 223.371155,278.501709 217.858215,273.796814 
	C213.182755,269.806610 207.378479,267.139069 201.945511,263.211304 
	C200.056961,261.912354 198.220520,260.528809 196.271622,259.327789 
	C180.824524,249.808746 164.675797,241.185684 153.930954,224.916641 
	C154.575729,210.981781 155.220505,197.046906 156.477615,182.800964 
	C157.643372,181.200333 158.809113,179.599701 160.224564,177.490738 
	C160.503601,177.004837 160.782639,176.518936 161.010376,175.998489 
	C161.010376,175.998489 161.008942,176.060287 161.553848,175.931091 
	C161.723343,175.626022 161.892853,175.320953 161.996887,175.013153 
M446.304993,346.581207 
	C448.126526,351.429779 449.948059,356.278320 451.812775,361.856384 
	C450.429352,364.690369 449.045959,367.524323 446.932190,370.380554 
	C443.143250,371.757355 438.315491,372.127441 435.792480,374.730988 
	C431.242615,379.426239 428.166168,385.525848 424.293427,390.908783 
	C421.522003,394.760895 421.306458,398.449768 423.871460,402.463257 
	C429.064362,410.588684 434.153381,418.780487 439.062042,427.732025 
	C436.043671,441.030334 433.025269,454.328613 429.269073,467.785797 
	C427.615936,469.453613 424.669464,471.026978 424.539520,472.806061 
	C424.046417,479.557465 421.356964,485.046661 417.642212,490.554626 
	C413.333862,496.942749 414.428528,501.079559 421.262909,504.864410 
	C425.517517,507.220551 430.484863,508.278290 435.106506,509.988495 
	C437.085876,510.720947 439.610413,511.115082 440.828125,512.557190 
	C444.422119,516.813477 449.138306,518.696106 454.234985,519.592041 
	C460.440277,520.682800 466.738068,521.529968 473.024414,521.788940 
	C478.208313,522.002502 481.773438,518.702209 482.656921,514.061401 
	C483.570312,509.263214 480.455109,507.138153 476.791077,505.428345 
	C474.532227,504.374237 472.172272,503.507233 470.003113,502.295898 
	C462.808350,498.277893 457.150513,493.145386 455.562317,484.375458 
	C454.765778,479.977081 454.119690,474.957794 448.905090,472.254608 
	C453.264893,462.389221 457.624725,452.523804 462.794464,442.728760 
	C465.890594,443.303925 469.027130,444.461304 472.068756,444.250336 
	C474.109009,444.108826 477.203033,442.420227 477.758209,440.740509 
	C479.436340,435.663513 479.981659,430.330109 475.846466,425.710968 
	C474.197968,423.869598 472.983124,421.640076 471.889832,418.953156 
	C475.277893,408.729034 478.067993,398.253418 482.230957,388.355225 
	C486.002869,379.386719 486.686157,370.424316 485.972748,360.382599 
	C496.054932,350.315338 506.017578,340.124573 516.253784,330.216461 
	C526.014282,320.768768 531.669983,309.787415 531.208801,295.874817 
	C531.067383,291.608490 529.637268,288.491638 526.264099,286.180450 
	C514.943665,278.423981 503.590363,270.715393 491.876282,262.454010 
	C490.370758,261.272125 488.865265,260.090271 487.275665,258.132172 
	C486.503723,255.757614 485.731781,253.383057 485.020813,250.217392 
	C482.675720,242.015961 480.330627,233.814529 478.104919,224.750061 
	C478.582458,212.026077 479.059998,199.302109 480.216949,186.993439 
	C490.408600,194.229797 496.280182,193.588013 505.340424,185.304138 
	C515.412781,176.094910 521.326233,164.233734 527.896667,152.657089 
	C530.410950,148.227036 534.233215,144.180099 538.306274,141.066391 
	C547.715332,133.873581 554.947876,125.829277 554.499023,112.439087 
	C554.656067,109.286652 557.345947,105.971024 553.923584,102.278366 
	C553.302917,100.217514 552.682251,98.156662 551.782593,95.169556 
	C550.231506,97.308067 549.454102,98.379967 548.453613,99.759308 
	C548.047607,97.558411 547.741821,95.900894 547.261658,93.298424 
	C539.816223,100.187294 538.355591,110.980354 528.319397,114.760574 
	C527.939453,114.781128 527.559570,114.801682 527.112000,114.021545 
	C527.838623,109.537529 529.488281,104.871819 524.300476,100.310806 
	C523.465698,104.536018 523.495422,108.031296 522.091858,110.800049 
	C518.026611,118.819580 518.752808,127.062744 519.550842,135.503357 
	C519.744019,137.546051 518.907593,140.406525 517.475098,141.753571 
	C512.227783,146.687881 506.529449,151.142517 500.290649,155.895660 
	C498.795471,155.639511 497.300262,155.383347 495.910095,154.276566 
	C494.012573,145.943634 492.115051,137.610718 490.037170,128.384125 
	C489.694611,124.938416 489.352051,121.492706 489.037292,117.146187 
	C488.696655,100.502983 483.662354,93.472916 469.122833,89.744408 
	C467.454315,89.119766 465.785767,88.495132 463.776459,87.326637 
	C462.281860,86.128784 460.787231,84.930931 459.202026,83.148994 
	C459.117249,82.762985 459.032471,82.376968 459.124420,81.302345 
	C464.201172,79.412178 466.766998,75.317902 467.949402,70.424835 
	C468.832306,66.771133 469.158417,62.948353 469.395660,59.179665 
	C470.090179,48.147034 471.215027,37.077957 468.560852,25.735527 
	C472.844849,18.178864 470.126221,12.456600 461.559662,11.855129 
	C456.127258,11.473715 450.516510,11.331693 445.192108,12.262561 
	C437.600464,13.589814 429.655792,16.345709 426.000519,23.379585 
	C419.191437,36.482426 420.366516,50.580227 429.895874,64.269005 
	C428.636230,69.860085 430.203156,76.403625 424.140167,80.359833 
	C421.390564,82.153992 418.912384,84.364067 415.709686,86.862984 
	C414.662506,87.594093 413.615326,88.325195 412.026733,89.347527 
	C407.134125,93.309769 402.343018,97.406075 397.326416,101.204559 
	C388.592255,107.817917 381.529449,115.728607 379.705200,126.806244 
	C378.380707,134.848984 374.417053,141.559921 371.290497,148.797760 
	C364.562042,164.373703 364.324097,181.392395 362.233276,197.905258 
	C359.911713,216.240417 365.826141,233.679276 369.877502,251.284821 
	C371.683014,259.130951 373.020721,267.149628 373.718323,275.164215 
	C374.231354,281.058014 373.359283,287.072327 372.986938,293.956726 
	C373.005035,298.370453 372.876373,302.792572 373.127319,307.193024 
	C373.206573,308.583008 374.301392,309.915131 374.980255,312.003265 
	C375.837982,315.019928 375.771637,319.117493 380.957611,317.534363 
	C380.957611,317.534363 381.059418,317.961487 381.109192,318.707916 
	C382.000641,319.422546 382.892059,320.137177 383.783508,320.851807 
	C384.193695,319.896759 384.686768,318.967499 384.993713,317.980316 
	C385.402527,316.665588 385.666473,315.305786 386.167969,314.510437 
	C386.471802,314.994568 386.775665,315.478668 387.459656,316.572571 
	C388.295990,316.160034 389.781921,315.843842 389.859833,315.318756 
	C390.267120,312.572968 390.594727,309.758270 390.436584,306.996948 
	C390.044708,300.155090 388.668488,293.197815 394.037384,287.082214 
	C395.858795,290.400085 397.489807,293.371185 399.120819,296.342285 
	C399.627838,296.064728 400.134827,295.787201 400.641815,295.509644 
	C400.437866,285.143311 400.538788,274.740417 391.642395,266.923920 
	C389.747864,265.259338 387.452209,262.931335 387.202454,260.700592 
	C385.820068,248.352539 384.895508,235.948059 384.052124,223.546722 
	C383.522614,215.760818 383.336395,207.948196 383.158295,200.143860 
	C383.106262,197.863190 382.815002,194.971603 384.003632,193.389374 
	C388.350616,187.603012 393.275726,182.250931 398.418640,177.336563 
	C405.231750,192.746399 409.686096,208.585846 406.957092,226.505493 
	C406.081940,231.074432 405.013275,235.616196 404.367493,240.217316 
	C402.308319,254.888550 402.164825,269.409424 412.703125,281.340240 
	C420.599182,290.279602 429.291077,298.515991 437.647888,307.855988 
	C439.267670,319.517303 440.951324,331.170441 442.454620,342.846741 
	C442.763916,345.249146 443.434662,346.534882 446.304993,346.581207 
z"/>
<path fill="#292929" opacity="1.000000" stroke="none" 
	d="
M102.902946,349.220947 
	C100.461220,349.060394 98.019493,348.899841 95.317451,348.722168 
	C95.244324,330.249939 89.853119,313.126190 83.995033,296.178711 
	C77.211441,276.553741 77.370583,257.051544 83.606369,237.421432 
	C84.962860,233.151230 86.258095,228.861557 88.141609,224.420685 
	C98.090302,225.847000 107.466034,228.623032 116.870743,228.724960 
	C129.187820,228.858459 141.527771,226.880341 153.857880,225.810516 
	C164.675797,241.185684 180.824524,249.808746 196.271622,259.327789 
	C198.220520,260.528809 200.056961,261.912354 201.642609,263.586914 
	C187.646561,271.341644 179.546036,283.829315 171.785660,296.564545 
	C170.470459,298.722839 170.040787,301.420776 168.883377,304.035522 
	C166.765518,307.043396 164.966278,309.885132 162.619156,313.592194 
	C161.875458,311.331421 161.162003,310.019348 161.040848,308.654663 
	C160.280991,300.095703 159.769943,291.513519 158.926132,282.963715 
	C158.570816,279.363525 160.238724,277.455994 163.134567,275.944824 
	C166.911072,273.974121 170.602005,271.839417 174.329773,269.775269 
	C174.226532,269.493805 174.123276,269.212372 174.020035,268.930939 
	C169.232040,270.019897 164.444031,271.108826 159.176926,272.306732 
	C160.247818,266.490875 161.119858,261.754883 161.991913,257.018890 
	C161.371964,256.884857 160.752014,256.750854 160.132065,256.616821 
	C158.432510,264.591034 156.025833,272.495056 155.225525,280.558533 
	C154.366714,289.211365 154.917892,298.016144 155.100037,306.749512 
	C155.133881,308.371552 156.334808,309.969269 156.997101,311.578217 
	C156.493881,312.738281 155.533798,313.910706 155.564819,315.056305 
	C155.716904,320.675201 155.878601,326.317596 156.551880,331.889496 
	C156.947052,335.159760 155.845444,336.814880 152.996964,337.951599 
	C149.168106,339.479523 145.413589,341.193756 140.930710,342.986938 
	C127.790482,345.170898 115.346718,347.195923 102.902946,349.220947 
z"/>
<path fill="#1F75BA" opacity="1.000000" stroke="none" 
	d="
M464.117249,87.870491 
	C465.785767,88.495132 467.454315,89.119766 469.474792,90.281693 
	C470.806549,92.352066 471.721924,93.931084 472.776947,95.410530 
	C478.167938,102.970161 483.595001,110.504089 489.009460,118.046997 
	C489.352051,121.492706 489.694611,124.938416 490.058167,129.263626 
	C490.359711,140.386978 489.594849,150.212891 483.927734,159.433228 
	C481.380066,163.578278 480.831329,169.108948 480.020569,174.115341 
	C479.360870,178.188828 479.662354,182.417999 479.537567,186.578125 
	C479.059998,199.302109 478.582458,212.026077 477.607971,225.244263 
	C469.368134,226.502274 461.612915,228.003784 453.884979,227.874634 
	C438.323608,227.614578 422.777100,226.466583 407.224457,225.684921 
	C409.686096,208.585846 405.231750,192.746399 398.253113,176.701752 
	C400.717834,170.907257 403.348053,165.747589 406.371307,160.643600 
	C408.814728,160.415863 410.865112,160.132431 413.072021,160.168640 
	C421.828888,167.328659 435.802216,169.215729 445.319855,163.973419 
	C434.314545,164.528412 424.678650,163.938400 417.023804,156.604279 
	C419.118591,153.034561 421.767944,149.996124 422.893005,146.471176 
	C428.862152,127.769638 426.690521,110.067200 415.419891,93.722992 
	C414.386536,92.224503 413.514893,90.614517 412.568146,89.056305 
	C413.615326,88.325195 414.662506,87.594093 416.328339,86.755188 
	C422.193939,92.315392 427.472168,97.954865 432.678192,103.660202 
	C437.017883,108.416138 440.845551,113.745872 445.684204,117.910263 
	C450.629944,122.166763 456.601105,120.786972 462.055908,118.106537 
	C467.160614,115.598145 468.300598,111.061821 467.470428,105.918945 
	C466.495575,99.879730 465.247070,93.884689 464.117249,87.870491 
M461.383484,142.118530 
	C462.109924,139.018280 463.024536,135.876450 460.041595,133.595810 
	C459.492981,133.749649 458.944366,133.903488 458.395752,134.057327 
	C459.284668,136.947403 460.173584,139.837463 461.383484,142.118530 
z"/>
<path fill="#FCCBA3" opacity="1.000000" stroke="none" 
	d="
M405.978271,160.587906 
	C403.348053,165.747589 400.717834,170.907257 398.035339,176.401093 
	C393.275726,182.250931 388.350616,187.603012 384.003632,193.389374 
	C382.815002,194.971603 383.106262,197.863190 383.158295,200.143860 
	C383.336395,207.948196 383.522614,215.760818 384.052124,223.546722 
	C384.895508,235.948059 385.820068,248.352539 387.202454,260.700592 
	C387.452209,262.931335 389.747864,265.259338 391.642395,266.923920 
	C400.538788,274.740417 400.437866,285.143311 400.641815,295.509644 
	C400.134827,295.787201 399.627838,296.064728 399.120819,296.342285 
	C397.489807,293.371185 395.858795,290.400085 394.037384,287.082214 
	C388.668488,293.197815 390.044708,300.155090 390.436584,306.996948 
	C390.594727,309.758270 390.267120,312.572968 389.859833,315.318756 
	C389.781921,315.843842 388.295990,316.160034 387.534363,316.012451 
	C387.141846,310.660706 386.674622,305.869049 386.207367,301.077393 
	C385.670929,301.142761 385.134491,301.208099 384.598083,301.273468 
	C385.062927,305.504089 385.527771,309.734711 385.992615,313.965332 
	C385.666473,315.305786 385.402527,316.665588 384.993713,317.980316 
	C384.686768,318.967499 384.193695,319.896759 383.783508,320.851807 
	C382.892059,320.137177 382.000641,319.422546 381.370544,318.041351 
	C381.408203,310.186768 381.184509,302.998749 380.960815,295.810699 
	C380.217468,295.860046 379.474152,295.909393 378.730804,295.958740 
	C379.466156,303.004395 380.201508,310.050079 380.936890,317.095764 
	C375.771637,319.117493 375.837982,315.019928 374.981079,311.143188 
	C374.988922,305.830231 375.138794,301.370148 374.915497,296.928833 
	C374.848846,295.603210 373.737244,294.330109 373.104431,293.032959 
	C373.359283,287.072327 374.231354,281.058014 373.718323,275.164215 
	C373.020721,267.149628 371.683014,259.130951 369.877502,251.284821 
	C365.826141,233.679276 359.911713,216.240417 362.233276,197.905258 
	C364.324097,181.392395 364.562042,164.373703 371.290497,148.797760 
	C374.417053,141.559921 378.380707,134.848984 379.705200,126.806244 
	C381.529449,115.728607 388.592255,107.817917 397.326416,101.204559 
	C402.343018,97.406075 407.134125,93.309769 412.297424,89.201920 
	C413.514893,90.614517 414.386536,92.224503 415.419891,93.722992 
	C426.690521,110.067200 428.862152,127.769638 422.893005,146.471176 
	C421.767944,149.996124 419.118591,153.034561 416.796753,156.624435 
	C416.420898,156.951370 415.969513,157.012054 415.656525,156.841400 
	C411.163239,151.986008 412.532837,146.193115 412.967957,140.223999 
	C407.479248,143.776886 404.985870,147.774216 405.949951,153.624512 
	C406.322601,155.885788 405.989716,158.263336 405.978271,160.587906 
M364.645020,198.725174 
	C364.645020,203.282791 364.645020,207.840408 364.645020,212.398026 
	C365.288757,212.384995 365.932526,212.371979 366.576263,212.358963 
	C366.295959,207.272690 366.015625,202.186432 365.735321,197.100143 
	C365.449036,197.408279 365.162750,197.716431 364.645020,198.725174 
z"/>
<path fill="#292929" opacity="1.000000" stroke="none" 
	d="
M407.090759,226.095215 
	C422.777100,226.466583 438.323608,227.614578 453.884979,227.874634 
	C461.612915,228.003784 469.368134,226.502274 477.548279,225.675781 
	C480.330627,233.814529 482.675720,242.015961 484.571350,250.623322 
	C476.382507,249.334396 468.643127,247.639572 460.903748,245.944733 
	C468.903992,252.277924 477.923584,256.042145 487.359741,258.908386 
	C488.865265,260.090271 490.370758,261.272125 491.834900,262.992249 
	C490.068756,264.506775 488.400757,265.604797 486.609985,266.439545 
	C475.618134,271.563416 469.524048,280.326935 468.158203,292.173096 
	C467.499847,297.883026 467.913147,303.716492 467.681152,309.841797 
	C467.258301,315.853119 466.995575,321.516693 466.708405,327.706573 
	C456.681488,320.589325 447.155060,313.827332 437.628632,307.065369 
	C429.291077,298.515991 420.599182,290.279602 412.703125,281.340240 
	C402.164825,269.409424 402.308319,254.888550 404.367493,240.217316 
	C405.013275,235.616196 406.081940,231.074432 407.090759,226.095215 
M457.843231,245.254181 
	C457.898468,245.416245 457.953705,245.578308 458.008972,245.740356 
	C458.062714,245.577988 458.116425,245.415634 457.843231,245.254181 
z"/>
<path fill="#FBCAA3" opacity="1.000000" stroke="none" 
	d="
M163.983002,171.991745 
	C163.847443,172.868698 163.711884,173.745636 163.204193,174.660461 
	C162.560043,174.824142 162.288025,174.949966 162.015991,175.075806 
	C162.015991,175.075806 161.996887,175.013153 161.789764,175.115768 
	C161.391418,175.499023 161.200180,175.779648 161.008942,176.060287 
	C161.008942,176.060287 161.010376,175.998489 160.637207,175.996490 
	C155.696945,177.619583 151.129868,179.244675 146.562775,180.869766 
	C146.802383,181.490585 147.041992,182.111404 147.281601,182.732224 
	C151.512680,181.154495 155.743774,179.576782 159.974869,177.999054 
	C158.809113,179.599701 157.643372,181.200333 155.865646,183.090637 
	C152.077682,185.466080 148.456070,187.106186 145.825104,189.737000 
	C141.334839,194.227020 136.095108,194.997864 130.277115,194.534866 
	C128.464493,194.390625 126.544342,193.871185 124.848099,194.268768 
	C113.083740,197.026154 101.365456,199.980133 89.632385,202.871033 
	C82.638260,202.937302 75.638824,203.187347 68.652435,202.985626 
	C65.559807,202.896347 62.489151,201.914597 59.416607,201.297684 
	C56.340252,200.680008 54.829330,198.775620 54.988983,195.631699 
	C55.431877,186.910370 55.797863,178.183273 56.403404,169.472977 
	C56.655354,165.848785 57.100513,162.169159 58.055702,158.678329 
	C59.616890,152.972839 60.826347,146.917221 63.718185,141.892075 
	C67.590256,135.163559 68.700844,127.995735 70.013458,120.687103 
	C71.731476,111.121117 76.840988,103.918175 85.468521,99.251503 
	C89.703041,96.961029 93.840736,94.491562 98.496841,92.374695 
	C103.038193,100.200409 108.066605,107.407372 110.948158,115.389366 
	C115.359756,127.609650 115.432442,139.849869 104.639671,149.891663 
	C103.898804,149.986481 103.476364,150.042892 102.907043,149.736206 
	C102.760162,146.106216 102.760162,142.839325 102.760162,139.836624 
	C96.577454,142.529724 95.378784,144.548065 95.945389,152.418427 
	C95.281235,156.215195 95.267014,159.879440 93.893730,162.932358 
	C92.381477,166.294220 89.620300,169.094299 87.101288,172.209595 
	C86.665352,172.639709 86.531334,172.999344 86.439133,173.425079 
	C86.480957,173.491180 86.448235,173.644165 86.110352,173.429855 
	C80.818878,171.996414 75.964737,171.363770 70.689491,176.076813 
	C76.525093,176.076813 81.130508,176.076813 86.099060,176.185669 
	C98.198914,181.485046 110.330978,179.073532 122.314880,177.821075 
	C124.564438,177.585953 127.533592,175.372116 128.504288,173.293289 
	C132.788773,164.117599 141.923904,161.947647 150.235458,157.308640 
	C150.137436,159.509247 150.056625,161.323349 149.949890,163.719315 
	C152.920609,163.719315 155.848892,163.719315 158.777191,163.719315 
	C159.734329,163.928040 160.691452,164.136749 161.481506,164.678009 
	C157.094803,165.910095 152.875183,166.809647 148.655548,167.709198 
	C148.720383,168.067825 148.785202,168.426437 148.850037,168.785065 
	C153.946014,168.180847 159.041992,167.576645 164.137970,166.972443 
	C164.612534,168.193802 165.087097,169.415146 165.020355,170.519470 
	C157.525787,169.364044 151.861923,173.004807 145.888702,175.521820 
	C151.920135,174.345123 157.951584,173.168427 163.983002,171.991745 
z"/>
<path fill="#FCCAA2" opacity="1.000000" stroke="none" 
	d="
M467.841217,309.494019 
	C467.913147,303.716492 467.499847,297.883026 468.158203,292.173096 
	C469.524048,280.326935 475.618134,271.563416 486.609985,266.439545 
	C488.400757,265.604797 490.068756,264.506775 492.021545,263.259460 
	C503.590363,270.715393 514.943665,278.423981 526.264099,286.180450 
	C529.637268,288.491638 531.067383,291.608490 531.208801,295.874817 
	C531.669983,309.787415 526.014282,320.768768 516.253784,330.216461 
	C506.017578,340.124573 496.054932,350.315338 485.540314,360.751190 
	C479.665588,365.653137 474.130951,370.081787 468.821533,374.765747 
	C466.314148,376.977753 464.238312,379.678986 461.629089,382.151978 
	C460.221649,382.423126 459.152100,382.700836 457.658081,382.989868 
	C451.412842,383.779053 448.039154,380.258240 445.097412,375.741577 
	C445.985046,373.731781 446.823792,372.045044 447.662537,370.358276 
	C449.045959,367.524323 450.429352,364.690369 452.157654,361.412964 
	C456.305267,353.905426 460.108063,346.841370 464.104431,339.496704 
	C465.554596,336.383362 466.868164,333.574280 468.056274,330.713104 
	C470.886230,323.898224 474.280518,317.602295 482.244476,314.918823 
	C486.896790,314.041565 491.140900,313.168549 495.384979,312.295502 
	C488.302673,309.831268 481.213043,309.011139 473.631897,311.024139 
	C471.464264,310.512024 469.652740,310.003021 467.841217,309.494019 
z"/>
<path fill="#FDCAA3" opacity="1.000000" stroke="none" 
	d="
M169.201996,303.869385 
	C170.040787,301.420776 170.470459,298.722839 171.785660,296.564545 
	C179.546036,283.829315 187.646561,271.341644 201.706711,263.924408 
	C207.378479,267.139069 213.182755,269.806610 217.858215,273.796814 
	C223.371155,278.501709 228.317322,284.032928 232.775681,289.775391 
	C240.530945,299.764404 239.687485,310.820465 232.796997,320.382629 
	C222.539261,334.617584 211.123993,348.034058 199.916534,361.562927 
	C193.674545,369.097839 186.855942,376.155060 179.865753,383.861206 
	C178.942261,385.190613 178.450211,386.086365 177.958160,386.982147 
	C177.632446,387.092834 177.381393,387.295837 176.822205,387.946594 
	C175.933670,389.388275 175.427917,390.474548 174.584473,391.618042 
	C173.791290,391.686707 173.335846,391.698181 172.632355,391.504089 
	C165.231812,388.729584 161.610275,382.632385 157.853027,376.452179 
	C158.163956,375.541290 158.432251,374.891663 158.700531,374.242004 
	C164.648468,366.723328 170.868774,359.396271 176.376465,351.567902 
	C178.004730,349.253571 177.746704,345.540405 178.138443,342.441162 
	C179.334824,332.976135 184.246658,325.402191 190.192123,318.331512 
	C191.039185,317.324158 191.926468,316.350647 193.070663,315.047760 
	C189.431839,309.679138 183.493988,308.917236 177.571594,306.754059 
	C174.398880,305.558990 171.800446,304.714172 169.201996,303.869385 
M202.010208,343.461945 
	C203.891830,339.777679 205.773453,336.093414 207.655075,332.409149 
	C207.301483,332.295532 206.947906,332.181915 206.594330,332.068298 
	C201.635422,337.853455 196.676514,343.638641 191.717621,349.423828 
	C191.904968,349.677765 192.092316,349.931671 192.279663,350.185608 
	C195.351852,348.115784 198.424026,346.045929 202.010208,343.461945 
z"/>
<path fill="#FCCBA3" opacity="1.000000" stroke="none" 
	d="
M102.894371,349.632263 
	C115.346718,347.195923 127.790482,345.170898 140.609863,343.175385 
	C140.028488,357.902008 135.517380,371.675690 130.802307,385.524261 
	C123.917259,405.746338 117.576660,426.176453 111.784813,446.737793 
	C109.200447,455.912445 108.515900,465.622253 106.839180,475.745728 
	C106.259377,476.922150 105.809502,477.442017 104.888962,477.963562 
	C100.092392,477.260498 95.766487,476.555725 91.353416,475.475037 
	C91.352356,474.596558 91.438477,474.093964 91.555817,473.576294 
	C91.587044,473.561188 91.510017,473.417664 91.372452,472.980713 
	C91.129608,471.322968 91.024330,470.102112 90.919044,468.881287 
	C90.634422,454.955597 90.606499,441.018677 89.999207,427.107056 
	C89.264977,410.287628 91.850876,394.245331 101.172401,380.028778 
	C106.676437,371.634399 106.153061,363.290527 103.661354,354.429474 
	C103.261436,353.007294 103.137375,351.507507 102.894371,349.632263 
M103.620583,411.689362 
	C108.464294,405.020386 109.684135,397.641327 107.486404,389.583527 
	C105.994347,397.058319 104.502289,404.533142 102.725670,412.101318 
	C102.814590,412.064270 102.903519,412.027252 103.620583,411.689362 
z"/>
<path fill="#2176BA" opacity="1.000000" stroke="none" 
	d="
M87.403214,172.139114 
	C89.620300,169.094299 92.381477,166.294220 93.893730,162.932358 
	C95.267014,159.879440 95.281235,156.215195 96.197426,152.422470 
	C96.663582,152.063736 96.826927,152.102982 97.212463,152.389130 
	C104.162376,158.082581 111.660324,161.019653 119.864449,160.550842 
	C114.878716,156.972824 109.918404,153.413025 104.958092,149.853241 
	C115.432442,139.849869 115.359756,127.609650 110.948158,115.389366 
	C108.066605,107.407372 103.038193,100.200409 98.827553,92.321625 
	C99.623390,91.062653 100.563110,90.128342 102.092804,89.106247 
	C107.138000,94.112991 112.034882,98.893272 115.938606,104.380150 
	C121.022118,111.525269 127.072731,117.160873 135.317001,120.187477 
	C143.269547,123.106964 147.892883,120.120247 148.759644,111.660858 
	C149.479904,104.630905 146.431122,98.732651 142.956039,92.985664 
	C145.219513,94.238686 147.482971,95.491699 150.115082,97.268021 
	C154.954315,108.106171 159.424911,118.421013 163.895508,128.735855 
	C164.035385,135.199677 164.893585,141.754593 164.089081,148.098663 
	C163.439056,153.224564 160.784882,158.096329 158.898468,163.400070 
	C155.848892,163.719315 152.920609,163.719315 149.949890,163.719315 
	C150.056625,161.323349 150.137436,159.509247 150.235458,157.308640 
	C141.923904,161.947647 132.788773,164.117599 128.504288,173.293289 
	C127.533592,175.372116 124.564438,177.585953 122.314880,177.821075 
	C110.330978,179.073532 98.198914,181.485046 86.153763,175.864944 
	C86.046280,174.838303 86.247261,174.241226 86.448242,173.644165 
	C86.448235,173.644165 86.480957,173.491180 86.719734,173.354095 
	C87.106750,172.857727 87.254990,172.498428 87.403214,172.139114 
z"/>
<path fill="#FBC9A2" opacity="1.000000" stroke="none" 
	d="
M463.946838,87.598564 
	C465.247070,93.884689 466.495575,99.879730 467.470428,105.918945 
	C468.300598,111.061821 467.160614,115.598145 462.055908,118.106537 
	C456.601105,120.786972 450.629944,122.166763 445.684204,117.910263 
	C440.845551,113.745872 437.017883,108.416138 432.678192,103.660202 
	C427.472168,97.954865 422.193939,92.315392 416.629028,86.516434 
	C418.912384,84.364067 421.390564,82.153992 424.140167,80.359833 
	C430.203156,76.403625 428.636230,69.860085 429.958008,63.488220 
	C429.479950,60.427963 428.903961,58.156239 428.409119,55.866970 
	C427.855774,53.307106 427.141083,50.745800 426.981720,48.155270 
	C426.919342,47.142044 427.990692,45.428223 428.882690,45.161819 
	C429.802917,44.886978 431.388641,45.722172 432.227509,46.539463 
	C433.710541,47.984325 434.848083,49.783810 436.243042,51.580112 
	C438.735535,46.174477 441.122650,41.309258 443.238220,36.328686 
	C445.767914,30.373190 449.144135,26.169542 456.581390,26.915564 
	C460.329010,27.291485 464.195923,26.478287 468.008881,26.202785 
	C471.215027,37.077957 470.090179,48.147034 469.395660,59.179665 
	C469.158417,62.948353 468.832306,66.771133 467.949402,70.424835 
	C466.766998,75.317902 464.201172,79.412178 458.761475,81.436050 
	C457.527008,80.857964 456.756256,79.929176 455.767426,79.469757 
	C449.546021,76.579109 443.276154,73.792801 436.961731,70.822983 
	C436.801331,70.626076 436.701416,70.578201 436.601532,70.530327 
	C436.724426,70.694954 436.847290,70.859589 436.975586,71.417816 
	C438.502380,77.794037 440.023743,83.776672 441.545105,89.759315 
	C441.734039,89.727509 441.922974,89.695702 442.111938,89.663895 
	C441.884979,86.283989 441.658051,82.904091 441.371460,78.635582 
	C443.311310,79.487144 444.718323,80.089592 446.112671,80.719963 
	C449.261749,82.143631 452.337341,83.776772 455.590637,84.894493 
	C456.575409,85.232819 458.045044,84.159706 459.292603,83.733078 
	C460.787231,84.930931 462.281860,86.128784 463.946838,87.598564 
M435.731049,68.187988 
	C435.620636,68.030029 435.510254,67.872063 435.399841,67.714104 
	C435.421295,67.935806 435.442780,68.157509 435.731049,68.187988 
z"/>
<path fill="#FBC9A2" opacity="1.000000" stroke="none" 
	d="
M142.968750,93.016563 
	C146.431122,98.732651 149.479904,104.630905 148.759644,111.660858 
	C147.892883,120.120247 143.269547,123.106964 135.317001,120.187477 
	C127.072731,117.160873 121.022118,111.525269 115.938606,104.380150 
	C112.034882,98.893272 107.138000,94.112991 102.357040,88.907333 
	C103.246536,87.460266 104.278831,85.873093 105.708702,84.831879 
	C111.908752,80.317062 114.246635,74.336594 113.217842,66.080109 
	C112.958549,63.022293 112.524307,60.727882 112.000443,58.454121 
	C111.415947,55.917252 110.437378,53.420364 110.263863,50.863087 
	C110.187836,49.742672 111.454308,48.077717 112.552284,47.503532 
	C113.196457,47.166664 114.938637,48.262470 115.778534,49.115784 
	C117.207367,50.567444 118.314079,52.336170 119.687447,54.144573 
	C122.168884,48.732628 124.490524,43.874958 126.634041,38.939915 
	C129.079514,33.309681 132.185989,28.970255 139.355606,29.421427 
	C143.469299,29.680294 147.640701,29.022102 151.786133,28.776756 
	C155.163010,42.758156 153.259186,56.810333 151.842758,70.759865 
	C151.316620,75.941498 149.940109,81.882599 142.224243,82.908485 
	C134.847580,80.299110 128.207306,77.827377 121.156265,75.202736 
	C122.266182,80.184196 123.256233,84.627686 124.246284,89.071175 
	C124.441681,89.053055 124.637085,89.034943 124.832481,89.016830 
	C124.949226,86.625748 125.065971,84.234665 125.185677,81.782921 
	C130.906265,83.907326 136.435150,85.960541 141.964050,88.013756 
	C142.184326,89.088577 142.404617,90.163406 142.669495,91.702164 
	C142.825485,92.459236 142.936874,92.752365 143.048264,93.045486 
	C143.048264,93.045486 142.981476,93.047462 142.968750,93.016563 
M120.615379,73.529572 
	C120.615379,73.529572 120.453285,73.434578 120.453285,73.434578 
	C120.453285,73.434578 120.474976,73.625427 120.615379,73.529572 
z"/>
<path fill="#FCCBA4" opacity="1.000000" stroke="none" 
	d="
M479.877258,186.785782 
	C479.662354,182.417999 479.360870,178.188828 480.020569,174.115341 
	C480.831329,169.108948 481.380066,163.578278 483.927734,159.433228 
	C489.594849,150.212891 490.359711,140.386978 490.148315,129.710449 
	C492.115051,137.610718 494.012573,145.943634 495.577271,154.850098 
	C491.079590,159.915741 488.278870,165.068161 487.003296,171.852249 
	C492.039062,166.069336 496.520020,160.923569 501.000946,155.777802 
	C506.529449,151.142517 512.227783,146.687881 517.475098,141.753571 
	C518.907593,140.406525 519.744019,137.546051 519.550842,135.503357 
	C518.752808,127.062744 518.026611,118.819580 522.091858,110.800049 
	C523.495422,108.031296 523.465698,104.536018 524.300476,100.310806 
	C529.488281,104.871819 527.838623,109.537529 526.873108,114.641876 
	C527.825439,119.212715 529.016602,123.163216 530.207825,127.113716 
	C530.594604,127.026802 530.981445,126.939888 531.368286,126.852966 
	C530.541016,122.796738 529.713806,118.740501 528.886597,114.684265 
	C538.355591,110.980354 539.816223,100.187294 547.261658,93.298424 
	C547.741821,95.900894 548.047607,97.558411 548.453613,99.759308 
	C549.454102,98.379967 550.231506,97.308067 551.782593,95.169556 
	C552.682251,98.156662 553.302917,100.217514 553.613037,102.816833 
	C547.007629,108.191589 550.898743,115.574036 548.784180,121.509758 
	C550.011597,120.348038 550.390747,118.880646 551.084534,117.581284 
	C551.936096,115.986481 553.050598,114.532097 554.051453,113.017014 
	C554.947876,125.829277 547.715332,133.873581 538.306274,141.066391 
	C534.233215,144.180099 530.410950,148.227036 527.896667,152.657089 
	C521.326233,164.233734 515.412781,176.094910 505.340424,185.304138 
	C496.280182,193.588013 490.408600,194.229797 479.877258,186.785782 
z"/>
<path fill="#2176BB" opacity="1.000000" stroke="none" 
	d="
M447.297363,370.369415 
	C446.823792,372.045044 445.985046,373.731781 444.798035,375.931396 
	C444.034088,377.332275 443.297791,378.209015 443.266113,379.110504 
	C443.188049,381.334625 442.587738,384.571289 443.754669,385.556641 
	C445.342621,386.897552 448.521484,387.187225 450.757721,386.709259 
	C453.346863,386.155853 455.653351,384.280182 458.082550,382.978577 
	C459.152100,382.700836 460.221649,382.423126 461.822540,382.436096 
	C467.077209,385.909241 466.608612,390.537292 465.876740,395.263885 
	C464.503754,404.131409 465.680206,412.414307 471.570862,419.587250 
	C472.983124,421.640076 474.197968,423.869598 475.846466,425.710968 
	C479.981659,430.330109 479.436340,435.663513 477.758209,440.740509 
	C477.203033,442.420227 474.109009,444.108826 472.068756,444.250336 
	C469.027130,444.461304 465.890594,443.303925 462.141541,442.480408 
	C452.947357,438.792267 445.469055,433.808655 439.285248,426.944916 
	C434.153381,418.780487 429.064362,410.588684 423.871460,402.463257 
	C421.306458,398.449768 421.522003,394.760895 424.293427,390.908783 
	C428.166168,385.525848 431.242615,379.426239 435.792480,374.730988 
	C438.315491,372.127441 443.143250,371.757355 447.297363,370.369415 
z"/>
<path fill="#1F75BA" opacity="1.000000" stroke="none" 
	d="
M89.592476,203.348572 
	C101.365456,199.980133 113.083740,197.026154 124.848099,194.268768 
	C126.544342,193.871185 128.464493,194.390625 130.277115,194.534866 
	C136.095108,194.997864 141.334839,194.227020 145.825104,189.737000 
	C148.456070,187.106186 152.077682,185.466080 155.559479,183.246185 
	C155.220505,197.046906 154.575729,210.981781 153.894409,225.363586 
	C141.527771,226.880341 129.187820,228.858459 116.870743,228.724960 
	C107.466034,228.623032 98.090302,225.847000 88.356277,224.131775 
	C88.524773,217.277405 89.038673,210.551743 89.592476,203.348572 
z"/>
<path fill="#2176BB" opacity="1.000000" stroke="none" 
	d="
M90.567772,468.937805 
	C91.024330,470.102112 91.129608,471.322968 91.318329,473.027161 
	C91.401779,473.510498 91.524590,473.591370 91.524590,473.591370 
	C91.438477,474.093964 91.352356,474.596558 91.280830,475.903320 
	C91.496056,478.692810 91.589447,480.696075 91.918556,482.659821 
	C92.725296,487.473511 94.143211,488.229309 98.091621,485.292786 
	C100.821632,483.262390 102.957985,480.433807 105.359619,477.961884 
	C105.809502,477.442017 106.259377,476.922150 106.843033,476.179077 
	C110.287201,474.760162 112.067978,476.312347 112.793587,479.373932 
	C116.138573,493.487549 124.778610,503.424469 136.841187,511.005981 
	C138.941986,512.326355 141.293182,516.203369 140.745575,518.093140 
	C139.914703,520.960327 136.890213,524.944824 134.373184,525.281494 
	C119.782066,527.232971 105.273865,528.151550 93.508583,516.024414 
	C90.070419,512.480469 84.914299,510.556793 80.446388,508.068634 
	C72.790535,503.805054 71.786629,500.931213 76.475594,493.411896 
	C79.819206,488.049988 82.797630,482.828125 83.809746,476.326630 
	C84.231758,473.615784 87.980446,471.422821 90.567772,468.937805 
z"/>
<path fill="#2176BB" opacity="1.000000" stroke="none" 
	d="
M158.384277,374.341980 
	C158.432251,374.891663 158.163956,375.541290 157.533112,376.652527 
	C154.750275,380.512024 153.818497,389.280853 155.963135,391.649109 
	C159.624878,395.692413 164.244583,395.243042 168.876068,393.680176 
	C170.273376,393.208679 171.549026,392.376587 172.880386,391.709625 
	C173.335846,391.698181 173.791290,391.686707 174.828613,391.829102 
	C175.934570,392.328949 176.458679,392.674957 176.982788,393.020966 
	C176.982788,393.020966 177.000000,393.000000 177.122650,393.357422 
	C178.134155,396.805481 179.250732,399.852234 179.857285,402.997345 
	C180.719498,407.468231 181.206741,412.011444 181.854202,416.523743 
	C183.162415,421.439911 184.418427,426.370880 185.806702,431.264343 
	C186.302246,433.011017 187.482834,434.620789 187.704147,436.374634 
	C188.057083,439.171631 188.945999,443.691467 187.677795,444.516907 
	C185.292862,446.069305 181.070435,446.654419 178.431122,445.597046 
	C171.700668,442.900665 164.984528,439.682343 159.141907,435.457092 
	C156.131424,433.279999 154.325012,428.708130 153.186386,424.859802 
	C151.805420,420.192413 149.416687,417.002533 145.232391,414.707397 
	C139.364883,411.488983 135.923660,406.325928 134.461243,399.851013 
	C133.234695,394.420471 134.588303,392.554626 139.512390,390.091034 
	C142.333893,388.679443 144.569199,386.079773 147.033081,383.973633 
	C150.727692,380.815491 154.391251,377.621002 158.384277,374.341980 
z"/>
<path fill="#2176BB" opacity="1.000000" stroke="none" 
	d="
M448.814178,472.995392 
	C454.119690,474.957794 454.765778,479.977081 455.562317,484.375458 
	C457.150513,493.145386 462.808350,498.277893 470.003113,502.295898 
	C472.172272,503.507233 474.532227,504.374237 476.791077,505.428345 
	C480.455109,507.138153 483.570312,509.263214 482.656921,514.061401 
	C481.773438,518.702209 478.208313,522.002502 473.024414,521.788940 
	C466.738068,521.529968 460.440277,520.682800 454.234985,519.592041 
	C449.138306,518.696106 444.422119,516.813477 440.828125,512.557190 
	C439.610413,511.115082 437.085876,510.720947 435.106506,509.988495 
	C430.484863,508.278290 425.517517,507.220551 421.262909,504.864410 
	C414.428528,501.079559 413.333862,496.942749 417.642212,490.554626 
	C421.356964,485.046661 424.046417,479.557465 424.539520,472.806061 
	C424.669464,471.026978 427.615936,469.453613 429.655396,468.132202 
	C429.921173,469.601471 429.800629,470.724304 429.456024,472.121338 
	C426.878510,476.482544 428.339935,480.363922 430.877716,483.383636 
	C432.087738,484.823425 435.295624,485.285309 437.481506,485.059082 
	C442.147369,484.576263 441.182037,479.925690 442.767761,476.781494 
	C444.926117,475.373169 446.870148,474.184265 448.814178,472.995392 
z"/>
<path fill="#2E2D2D" opacity="1.000000" stroke="none" 
	d="
M468.284851,25.969156 
	C464.195923,26.478287 460.329010,27.291485 456.581390,26.915564 
	C449.144135,26.169542 445.767914,30.373190 443.238220,36.328686 
	C441.122650,41.309258 438.735535,46.174477 436.243042,51.580112 
	C434.848083,49.783810 433.710541,47.984325 432.227509,46.539463 
	C431.388641,45.722172 429.802917,44.886978 428.882690,45.161819 
	C427.990692,45.428223 426.919342,47.142044 426.981720,48.155270 
	C427.141083,50.745800 427.855774,53.307106 428.409119,55.866970 
	C428.903961,58.156239 429.479950,60.427963 429.999023,63.099068 
	C420.366516,50.580227 419.191437,36.482426 426.000519,23.379585 
	C429.655792,16.345709 437.600464,13.589814 445.192108,12.262561 
	C450.516510,11.331693 456.127258,11.473715 461.559662,11.855129 
	C470.126221,12.456600 472.844849,18.178864 468.284851,25.969156 
z"/>
<path fill="#2E2D2D" opacity="1.000000" stroke="none" 
	d="
M151.971100,28.455788 
	C147.640701,29.022102 143.469299,29.680294 139.355606,29.421427 
	C132.185989,28.970255 129.079514,33.309681 126.634041,38.939915 
	C124.490524,43.874958 122.168884,48.732628 119.687447,54.144573 
	C118.314079,52.336170 117.207367,50.567444 115.778534,49.115784 
	C114.938637,48.262470 113.196457,47.166664 112.552284,47.503532 
	C111.454308,48.077717 110.187836,49.742672 110.263863,50.863087 
	C110.437378,53.420364 111.415947,55.917252 112.000443,58.454121 
	C112.524307,60.727882 112.958549,63.022293 113.245346,65.617378 
	C105.577118,54.856785 103.270660,43.075554 107.466125,30.084938 
	C110.586250,20.423962 118.758011,17.328936 127.031143,15.171611 
	C132.673279,13.700350 138.918747,13.923147 144.839325,14.286482 
	C153.459595,14.815492 156.047165,20.144913 151.971100,28.455788 
z"/>
<path fill="#F2BB96" opacity="1.000000" stroke="none" 
	d="
M429.680115,471.847137 
	C429.800629,470.724304 429.921173,469.601471 430.024292,468.052795 
	C433.025269,454.328613 436.043671,441.030334 439.173645,427.338470 
	C445.469055,433.808655 452.947357,438.792267 461.736572,442.445251 
	C457.624725,452.523804 453.264893,462.389221 448.859619,472.625000 
	C446.870148,474.184265 444.926117,475.373169 442.343628,476.738770 
	C437.696808,475.226044 433.688446,473.536591 429.680115,471.847137 
z"/>
<path fill="#080707" opacity="1.000000" stroke="none" 
	d="
M481.836243,314.923065 
	C474.280518,317.602295 470.886230,323.898224 468.056274,330.713104 
	C466.868164,333.574280 465.554596,336.383362 463.717957,339.521515 
	C457.440857,341.845825 451.743896,343.864716 446.046936,345.883606 
	C443.434662,346.534882 442.763916,345.249146 442.454620,342.846741 
	C440.951324,331.170441 439.267670,319.517303 437.638245,307.460693 
	C447.155060,313.827332 456.681488,320.589325 466.708405,327.706573 
	C466.995575,321.516693 467.258301,315.853119 467.681152,309.841797 
	C469.652740,310.003021 471.464264,310.512024 473.862122,311.287628 
	C476.911041,312.677185 479.373627,313.800110 481.836243,314.923065 
z"/>
<path fill="#F2BB96" opacity="1.000000" stroke="none" 
	d="
M471.730347,419.270203 
	C465.680206,412.414307 464.503754,404.131409 465.876740,395.263885 
	C466.608612,390.537292 467.077209,385.909241 462.160431,382.442688 
	C464.238312,379.678986 466.314148,376.977753 468.821533,374.765747 
	C474.130951,370.081787 479.665588,365.653137 485.431702,361.087219 
	C486.686157,370.424316 486.002869,379.386719 482.230957,388.355225 
	C478.067993,398.253418 475.277893,408.729034 471.730347,419.270203 
z"/>
<path fill="#080707" opacity="1.000000" stroke="none" 
	d="
M168.883392,304.035522 
	C171.800446,304.714172 174.398880,305.558990 177.215118,306.707153 
	C175.971893,308.312622 174.544968,309.655640 173.043823,310.909821 
	C166.819748,316.109863 164.306335,316.281403 157.295044,311.807251 
	C156.334808,309.969269 155.133881,308.371552 155.100037,306.749512 
	C154.917892,298.016144 154.366714,289.211365 155.225525,280.558533 
	C156.025833,272.495056 158.432510,264.591034 160.132065,256.616821 
	C160.752014,256.750854 161.371964,256.884857 161.991913,257.018890 
	C161.119858,261.754883 160.247818,266.490875 159.176926,272.306732 
	C164.444031,271.108826 169.232040,270.019897 174.020035,268.930939 
	C174.123276,269.212372 174.226532,269.493805 174.329773,269.775269 
	C170.602005,271.839417 166.911072,273.974121 163.134567,275.944824 
	C160.238724,277.455994 158.570816,279.363525 158.926132,282.963715 
	C159.769943,291.513519 160.280991,300.095703 161.040848,308.654663 
	C161.162003,310.019348 161.875458,311.331421 162.619156,313.592194 
	C164.966278,309.885132 166.765518,307.043396 168.883392,304.035522 
z"/>
<path fill="#F2BB96" opacity="1.000000" stroke="none" 
	d="
M446.175964,346.232422 
	C451.743896,343.864716 457.440857,341.845825 463.524353,339.802094 
	C460.108063,346.841370 456.305267,353.905426 452.136047,361.048187 
	C449.948059,356.278320 448.126526,351.429779 446.175964,346.232422 
z"/>
<path fill="#FBCAA3" opacity="1.000000" stroke="none" 
	d="
M489.023376,117.596596 
	C483.595001,110.504089 478.167938,102.970161 472.776947,95.410530 
	C471.721924,93.931084 470.806549,92.352066 469.753662,90.467339 
	C483.662354,93.472916 488.696655,100.502983 489.023376,117.596596 
z"/>
<path fill="#FCCBA4" opacity="1.000000" stroke="none" 
	d="
M163.952240,128.345947 
	C159.424911,118.421013 154.954315,108.106171 150.399597,97.493690 
	C154.020279,99.244560 157.936417,100.992867 161.377945,103.415398 
	C165.971313,106.648712 166.289886,111.717079 165.742767,116.780907 
	C165.338272,120.524689 164.599060,124.232300 163.952240,128.345947 
z"/>
<path fill="#E0A882" opacity="1.000000" stroke="none" 
	d="
M459.247314,83.441040 
	C458.045044,84.159706 456.575409,85.232819 455.590637,84.894493 
	C452.337341,83.776772 449.261749,82.143631 446.112671,80.719963 
	C444.718323,80.089592 443.311310,79.487144 441.371460,78.635582 
	C441.658051,82.904091 441.884979,86.283989 442.111938,89.663895 
	C441.922974,89.695702 441.734039,89.727509 441.545105,89.759315 
	C440.023743,83.776672 438.502380,77.794037 436.989807,71.405884 
	C436.998566,71.000366 437.022278,70.972015 437.022278,70.972015 
	C443.276154,73.792801 449.546021,76.579109 455.767426,79.469757 
	C456.756256,79.929176 457.527008,80.857964 458.673126,81.780357 
	C459.032471,82.376968 459.117249,82.762985 459.247314,83.441040 
z"/>
<path fill="#080707" opacity="1.000000" stroke="none" 
	d="
M487.317688,258.520264 
	C477.923584,256.042145 468.903992,252.277924 460.903748,245.944733 
	C468.643127,247.639572 476.382507,249.334396 484.540863,251.018860 
	C485.731781,253.383057 486.503723,255.757614 487.317688,258.520264 
z"/>
<path fill="#E0A882" opacity="1.000000" stroke="none" 
	d="
M142.020782,87.602699 
	C136.435150,85.960541 130.906265,83.907326 125.185677,81.782921 
	C125.065971,84.234665 124.949226,86.625748 124.832481,89.016830 
	C124.637085,89.034943 124.441681,89.053055 124.246284,89.071175 
	C123.256233,84.627686 122.266182,80.184196 121.156265,75.202736 
	C128.207306,77.827377 134.847580,80.299110 141.855286,82.919426 
	C142.174316,84.442551 142.125900,85.817093 142.020782,87.602699 
z"/>
<path fill="#F2BB96" opacity="1.000000" stroke="none" 
	d="
M554.275269,112.728058 
	C553.050598,114.532097 551.936096,115.986481 551.084534,117.581284 
	C550.390747,118.880646 550.011597,120.348038 548.784180,121.509758 
	C550.898743,115.574036 547.007629,108.191589 553.598267,103.203201 
	C557.345947,105.971024 554.656067,109.286652 554.275269,112.728058 
z"/>
<path fill="#E0A882" opacity="1.000000" stroke="none" 
	d="
M500.645813,155.836731 
	C496.520020,160.923569 492.039062,166.069336 487.003296,171.852249 
	C488.278870,165.068161 491.079590,159.915741 495.524750,155.275391 
	C497.300262,155.383347 498.795471,155.639511 500.645813,155.836731 
z"/>
<path fill="#F4F8F5" opacity="1.000000" stroke="none" 
	d="
M181.898376,416.067902 
	C181.206741,412.011444 180.719498,407.468231 179.857285,402.997345 
	C179.250732,399.852234 178.134155,396.805481 177.112244,393.366058 
	C181.852615,393.583893 181.490921,397.852386 181.839294,400.877136 
	C182.398056,405.728363 181.959564,410.694489 181.898376,416.067902 
z"/>
<path fill="#F2BB96" opacity="1.000000" stroke="none" 
	d="
M380.947266,317.315063 
	C380.201508,310.050079 379.466156,303.004395 378.730804,295.958740 
	C379.474152,295.909393 380.217468,295.860046 380.960815,295.810699 
	C381.184509,302.998749 381.408203,310.186768 381.345642,317.668152 
	C381.059418,317.961487 380.957611,317.534363 380.947266,317.315063 
z"/>
<path fill="#E0A882" opacity="1.000000" stroke="none" 
	d="
M164.191956,171.862579 
	C157.951584,173.168427 151.920135,174.345123 145.888702,175.521820 
	C151.861923,173.004807 157.525787,169.364044 164.745239,170.685669 
	C164.860260,171.265549 164.656754,171.520386 164.191956,171.862579 
z"/>
<path fill="#F2BB96" opacity="1.000000" stroke="none" 
	d="
M373.045685,293.494843 
	C373.737244,294.330109 374.848846,295.603210 374.915497,296.928833 
	C375.138794,301.370148 374.988922,305.830231 374.956696,310.778412 
	C374.301392,309.915131 373.206573,308.583008 373.127319,307.193024 
	C372.876373,302.792572 373.005035,298.370453 373.045685,293.494843 
z"/>
<path fill="#E0A882" opacity="1.000000" stroke="none" 
	d="
M160.099716,177.744904 
	C155.743774,179.576782 151.512680,181.154495 147.281601,182.732224 
	C147.041992,182.111404 146.802383,181.490585 146.562775,180.869766 
	C151.129868,179.244675 155.696945,177.619583 160.662857,176.013763 
	C160.782639,176.518936 160.503601,177.004837 160.099716,177.744904 
z"/>
<path fill="#E0A882" opacity="1.000000" stroke="none" 
	d="
M164.006561,166.708450 
	C159.041992,167.576645 153.946014,168.180847 148.850037,168.785065 
	C148.785202,168.426437 148.720383,168.067825 148.655548,167.709198 
	C152.875183,166.809647 157.094803,165.910095 161.731323,164.949402 
	C162.723862,165.406998 163.299500,165.925720 164.006561,166.708450 
z"/>
<path fill="#F2BB96" opacity="1.000000" stroke="none" 
	d="
M528.603027,114.722420 
	C529.713806,118.740501 530.541016,122.796738 531.368286,126.852966 
	C530.981445,126.939888 530.594604,127.026802 530.207825,127.113716 
	C529.016602,123.163216 527.825439,119.212715 526.906921,115.042229 
	C527.559570,114.801682 527.939453,114.781128 528.603027,114.722420 
z"/>
<path fill="#F2BB96" opacity="1.000000" stroke="none" 
	d="
M386.080292,314.237885 
	C385.527771,309.734711 385.062927,305.504089 384.598083,301.273468 
	C385.134491,301.208099 385.670929,301.142761 386.207367,301.077393 
	C386.674622,305.869049 387.141846,310.660706 387.344299,315.707581 
	C386.775665,315.478668 386.471802,314.994568 386.080292,314.237885 
z"/>
<path fill="#F4F8F5" opacity="1.000000" stroke="none" 
	d="
M176.992004,392.605713 
	C176.458679,392.674957 175.934570,392.328949 175.166321,391.771851 
	C175.427917,390.474548 175.933670,389.388275 176.729431,388.174774 
	C177.013351,389.428528 177.007278,390.809509 176.992004,392.605713 
z"/>
<path fill="#F4F8F5" opacity="1.000000" stroke="none" 
	d="
M178.305328,386.939209 
	C178.450211,386.086365 178.942261,385.190613 179.725006,384.166107 
	C179.561310,384.990356 179.106918,385.943329 178.305328,386.939209 
z"/>
<path fill="#E0A882" opacity="1.000000" stroke="none" 
	d="
M162.275803,175.133911 
	C162.288025,174.949966 162.560043,174.824142 162.938049,174.866089 
	C162.874557,175.086578 162.705093,175.139282 162.275803,175.133911 
z"/>
<path fill="#E0A882" opacity="1.000000" stroke="none" 
	d="
M161.281403,175.995697 
	C161.200180,175.779648 161.391418,175.499023 161.822510,175.117126 
	C161.892853,175.320953 161.723343,175.626022 161.281403,175.995697 
z"/>
<path fill="#2176BA" opacity="1.000000" stroke="none" 
	d="
M143.186356,92.723892 
	C142.936874,92.752365 142.825485,92.459236 142.812958,92.001511 
	C143.049347,92.025375 143.186890,92.213837 143.186356,92.723892 
z"/>
<path fill="#E0A882" opacity="1.000000" stroke="none" 
	d="
M406.371307,160.643600 
	C405.989716,158.263336 406.322601,155.885788 405.949951,153.624512 
	C404.985870,147.774216 407.479248,143.776886 412.967957,140.223999 
	C412.532837,146.193115 411.163239,151.986008 415.519226,157.110870 
	C414.768463,158.317017 413.841980,159.083008 412.915497,159.848999 
	C410.865112,160.132431 408.814728,160.415863 406.371307,160.643600 
z"/>
<path fill="#1A699F" opacity="1.000000" stroke="none" 
	d="
M413.072021,160.168640 
	C413.841980,159.083008 414.768463,158.317017 415.832214,157.281525 
	C415.969513,157.012054 416.420898,156.951370 416.647949,156.931213 
	C424.678650,163.938400 434.314545,164.528412 445.319855,163.973419 
	C435.802216,169.215729 421.828888,167.328659 413.072021,160.168640 
z"/>
<path fill="#1A699F" opacity="1.000000" stroke="none" 
	d="
M461.223022,142.423035 
	C460.173584,139.837463 459.284668,136.947403 458.395752,134.057327 
	C458.944366,133.903488 459.492981,133.749649 460.041595,133.595810 
	C463.024536,135.876450 462.109924,139.018280 461.223022,142.423035 
z"/>
<path fill="#F2BB96" opacity="1.000000" stroke="none" 
	d="
M364.760742,198.374878 
	C365.162750,197.716431 365.449036,197.408279 365.735321,197.100159 
	C366.015625,202.186432 366.295959,207.272690 366.576263,212.358963 
	C365.932526,212.371979 365.288757,212.384995 364.645020,212.398026 
	C364.645020,207.840408 364.645020,203.282791 364.760742,198.374878 
z"/>
<path fill="#080707" opacity="1.000000" stroke="none" 
	d="
M458.006714,245.253723 
	C458.116425,245.415634 458.062714,245.577988 458.008972,245.740356 
	C457.953705,245.578308 457.898468,245.416245 458.006714,245.253723 
z"/>
<path fill="#1A699F" opacity="1.000000" stroke="none" 
	d="
M104.639671,149.891663 
	C109.918404,153.413025 114.878716,156.972824 119.864449,160.550842 
	C111.660324,161.019653 104.162376,158.082581 97.560143,152.260773 
	C99.475060,151.290100 101.264488,150.694702 103.053917,150.099304 
	C103.476364,150.042892 103.898804,149.986481 104.639671,149.891663 
z"/>
<path fill="#E0A882" opacity="1.000000" stroke="none" 
	d="
M102.907043,149.736206 
	C101.264488,150.694702 99.475060,151.290100 97.337952,152.013885 
	C96.826927,152.102982 96.663582,152.063736 96.248207,152.020447 
	C95.378784,144.548065 96.577454,142.529724 102.760162,139.836624 
	C102.760162,142.839325 102.760162,146.106216 102.907043,149.736206 
z"/>
<path fill="#F2BB96" opacity="1.000000" stroke="none" 
	d="
M86.110352,173.429855 
	C86.247261,174.241226 86.046280,174.838303 85.790611,175.756088 
	C81.130508,176.076813 76.525093,176.076813 70.689491,176.076813 
	C75.964737,171.363770 80.818878,171.996414 86.110352,173.429855 
z"/>
<path fill="#F2BB96" opacity="1.000000" stroke="none" 
	d="
M87.101295,172.209595 
	C87.254990,172.498428 87.106750,172.857727 86.677917,173.287994 
	C86.531334,172.999344 86.665352,172.639709 87.101295,172.209595 
z"/>
<path fill="#F4F8F5" opacity="1.000000" stroke="none" 
	d="
M457.658081,382.989868 
	C455.653351,384.280182 453.346863,386.155853 450.757721,386.709259 
	C448.521484,387.187225 445.342621,386.897552 443.754669,385.556641 
	C442.587738,384.571289 443.188049,381.334625 443.266113,379.110504 
	C443.297791,378.209015 444.034088,377.332275 444.749146,376.254456 
	C448.039154,380.258240 451.412842,383.779053 457.658081,382.989868 
z"/>
<path fill="#E0A882" opacity="1.000000" stroke="none" 
	d="
M482.244476,314.918823 
	C479.373627,313.800110 476.911041,312.677185 474.218201,311.290741 
	C481.213043,309.011139 488.302673,309.831268 495.384979,312.295502 
	C491.140900,313.168549 486.896790,314.041565 482.244476,314.918823 
z"/>
<path fill="#F4F8F5" opacity="1.000000" stroke="none" 
	d="
M172.632355,391.504089 
	C171.549026,392.376587 170.273376,393.208679 168.876068,393.680176 
	C164.244583,395.243042 159.624878,395.692413 155.963135,391.649109 
	C153.818497,389.280853 154.750275,380.512024 157.490479,376.913757 
	C161.610275,382.632385 165.231812,388.729584 172.632355,391.504089 
z"/>
<path fill="#E0A882" opacity="1.000000" stroke="none" 
	d="
M201.753204,343.718994 
	C198.424026,346.045929 195.351852,348.115784 192.279663,350.185608 
	C192.092316,349.931671 191.904968,349.677765 191.717621,349.423828 
	C196.676514,343.638641 201.635422,337.853455 206.594330,332.068298 
	C206.947906,332.181915 207.301483,332.295532 207.655075,332.409149 
	C205.773453,336.093414 203.891830,339.777679 201.753204,343.718994 
z"/>
<path fill="#F4F8F5" opacity="1.000000" stroke="none" 
	d="
M104.888954,477.963562 
	C102.957985,480.433807 100.821632,483.262390 98.091621,485.292786 
	C94.143211,488.229309 92.725296,487.473511 91.918556,482.659821 
	C91.589447,480.696075 91.496056,478.692810 91.368004,476.279236 
	C95.766487,476.555725 100.092392,477.260498 104.888954,477.963562 
z"/>
<path fill="#E0A882" opacity="1.000000" stroke="none" 
	d="
M103.010231,412.007965 
	C104.502289,404.533142 105.994347,397.058319 107.486404,389.583527 
	C109.684135,397.641327 108.464294,405.020386 103.310356,411.844666 
	C103.000130,412.000000 103.010231,412.007965 103.010231,412.007965 
z"/>
<path fill="#F4F8F5" opacity="1.000000" stroke="none" 
	d="
M91.555817,473.576294 
	C91.524590,473.591370 91.401779,473.510498 91.455902,473.464081 
	C91.510017,473.417664 91.587044,473.561188 91.555817,473.576294 
z"/>
<path fill="#E0A882" opacity="1.000000" stroke="none" 
	d="
M102.996284,411.995117 
	C102.903519,412.027252 102.814590,412.064270 102.867950,412.054626 
	C103.010231,412.007965 103.000130,412.000000 102.996284,411.995117 
z"/>
<path fill="#E0A882" opacity="1.000000" stroke="none" 
	d="
M435.597656,68.283600 
	C435.442780,68.157509 435.421295,67.935806 435.399841,67.714104 
	C435.510254,67.872063 435.620636,68.030029 435.597656,68.283600 
z"/>
<path fill="#E0A882" opacity="1.000000" stroke="none" 
	d="
M436.984375,71.012299 
	C436.847290,70.859589 436.724426,70.694954 436.601532,70.530327 
	C436.701416,70.578201 436.801331,70.626076 436.961731,70.822983 
	C437.022278,70.972015 436.998566,71.000366 436.984375,71.012299 
z"/>
<path fill="#E0A882" opacity="1.000000" stroke="none" 
	d="
M120.545181,73.577499 
	C120.474976,73.625427 120.453285,73.434578 120.453285,73.434578 
	C120.453285,73.434578 120.615379,73.529572 120.545181,73.577499 
z"/>
<path fill="#F4F8F5" opacity="1.000000" stroke="none" 
	d="
M429.456024,472.121338 
	C433.688446,473.536591 437.696808,475.226044 442.129272,476.958221 
	C441.182037,479.925690 442.147369,484.576263 437.481506,485.059082 
	C435.295624,485.285309 432.087738,484.823425 430.877716,483.383636 
	C428.339935,480.363922 426.878510,476.482544 429.456024,472.121338 
z"/>
</svg>