<svg version="1.1" id="Layer_1" xmlns="http://www.w3.org/2000/svg" xmlns:xlink="http://www.w3.org/1999/xlink" x="0px" y="0px"
	 width="100%" viewBox="0 0 682 507" enable-background="new 0 0 682 507" xml:space="preserve">
<path fill="#FFFFFF" opacity="1.000000" stroke="none" 
	d="
M401.000000,508.000000 
	C267.333344,508.000000 134.166672,508.000000 1.000000,508.000000 
	C1.000000,339.000000 1.000000,170.000000 1.000000,1.000000 
	C228.333328,1.000000 455.666656,1.000000 683.000000,1.000000 
	C683.000000,170.000000 683.000000,339.000000 683.000000,508.000000 
	C589.166687,508.000000 495.333344,508.000000 401.000000,508.000000 
M647.605896,363.788910 
	C647.043579,363.546753 646.481262,363.304596 645.984985,363.000885 
	C645.984985,363.000885 645.948792,363.083557 645.907043,362.328186 
	C645.270569,359.886566 644.634033,357.444946 643.990234,354.091125 
	C645.026489,347.408478 646.034973,340.721344 647.105042,334.044128 
	C649.038940,321.976929 651.724426,309.979187 652.804382,297.837555 
	C654.597900,277.672424 636.897583,263.912048 617.919800,258.276672 
	C605.061890,251.590134 591.720581,246.409103 577.316956,243.969498 
	C562.953064,241.536606 548.684021,238.543411 534.105347,235.131775 
	C532.113708,233.991531 530.062073,232.943619 528.140625,231.695328 
	C519.056763,225.793961 510.008453,219.837799 501.311310,213.289017 
	C505.207062,204.829163 506.641327,196.103516 505.252838,186.758041 
	C503.532715,175.180298 502.477478,163.505280 500.979584,151.892334 
	C500.327881,146.839828 499.513306,141.785431 498.367371,136.825562 
	C497.031128,131.042145 495.251556,125.361153 494.377655,119.735687 
	C495.258301,119.590370 496.138916,119.445045 497.813202,119.283638 
	C503.180542,118.768082 506.710480,115.604263 508.817291,110.977722 
	C512.748169,102.345551 510.248657,88.710945 503.541168,81.996002 
	C499.552612,78.003014 494.851532,75.849068 488.379395,78.087715 
	C481.871063,81.411720 479.052795,86.928009 478.406189,94.409149 
	C478.194763,94.761734 477.983368,95.114311 477.234100,95.033989 
	C470.583893,85.907471 465.655334,83.603516 457.332825,86.037590 
	C452.312897,88.242065 449.494598,92.251732 447.389160,97.066147 
	C442.709625,91.944397 437.526886,88.300087 429.420227,91.205376 
	C421.848389,94.265617 419.388763,100.736084 417.471985,108.140915 
	C416.580109,108.487923 415.688263,108.834938 414.253326,108.760880 
	C413.454834,107.318825 412.725342,105.833191 411.846405,104.441971 
	C407.038269,96.831215 399.020782,93.652122 390.421082,96.257622 
	C387.346924,98.934921 383.387390,101.073341 381.367401,104.392242 
	C375.684662,113.729057 377.426147,129.334579 384.423370,137.775543 
	C388.195282,142.325745 392.922485,145.105072 399.817078,144.795837 
	C403.523529,143.172150 407.229950,141.548462 410.916779,140.784592 
	C410.367218,152.391937 406.450348,163.778320 408.920837,175.607819 
	C409.720367,179.436401 409.615692,183.453827 409.205994,187.347015 
	C405.039276,187.440964 403.178894,190.179703 401.949280,193.657745 
	C398.555206,203.258179 401.898224,211.674622 406.246948,220.559662 
	C404.079315,222.045715 401.906464,223.524231 399.745239,225.019531 
	C396.214386,227.462448 395.329437,230.800568 398.262115,233.688187 
	C401.829315,237.200485 406.070099,240.028641 410.298065,243.741074 
	C416.163727,248.535706 422.029388,253.330338 428.161987,258.645905 
	C428.777588,259.098969 429.393158,259.552002 430.050232,260.536926 
	C430.086395,260.711029 430.122589,260.885162 429.561523,261.475861 
	C428.179413,262.043762 426.795410,262.607056 425.415497,263.180267 
	C414.676392,267.641266 412.606262,272.572876 416.775787,283.415680 
	C418.724426,288.483032 420.495758,293.618530 422.515900,299.187469 
	C409.002960,304.330994 395.880524,309.325897 382.863556,314.280640 
	C383.591736,324.383972 386.610809,326.261200 395.692230,322.610504 
	C395.846375,322.548523 395.990723,322.462067 396.145233,322.401276 
	C408.663208,317.479004 421.259796,312.743713 433.655426,307.530640 
	C437.678497,305.838684 440.643829,306.442078 444.204346,308.540497 
	C473.406433,325.751129 502.705719,342.796906 532.015015,360.765991 
	C532.296570,362.897186 532.438477,365.057892 532.882019,367.154785 
	C535.899292,381.417084 538.980164,395.665924 542.014099,410.784882 
	C542.336182,414.841766 542.658264,418.898621 542.779846,423.662567 
	C538.105103,434.342194 540.480530,445.607758 540.078430,456.639832 
	C540.056824,457.233856 540.523193,457.869293 540.832092,458.448242 
	C547.899597,471.692413 565.285278,476.819672 578.365540,469.698486 
	C582.251770,467.582703 583.141663,464.866333 581.182190,461.102325 
	C579.189453,457.274506 577.334961,453.337067 574.957764,449.754242 
	C568.369080,439.823883 562.578308,429.666229 562.940613,416.412567 
	C562.477478,415.651093 562.073242,414.278320 561.541687,414.227051 
	C558.029602,413.888550 557.904358,411.478607 557.924133,408.055237 
	C557.949463,404.640167 557.974854,401.225128 558.626526,398.140869 
	C565.645081,402.728394 572.663574,407.315918 579.768188,411.959686 
	C584.845520,407.754089 589.664124,403.762756 594.934387,399.397308 
	C590.027039,396.405243 584.952087,394.165283 585.050964,387.654022 
	C585.134583,382.151550 582.409851,377.861511 578.422546,374.254211 
	C577.242004,373.186218 576.246948,371.913300 575.134216,370.698608 
	C576.597229,369.348419 577.807739,368.432159 578.768372,367.303192 
	C580.831238,364.878754 580.149353,359.038696 577.314941,357.793610 
	C573.405945,356.076447 572.877869,352.976410 572.687500,350.789307 
	C575.973633,347.811890 578.548462,345.478973 581.905029,342.946960 
	C586.507019,344.933563 590.531189,343.392334 594.443115,340.951355 
	C599.933411,337.525574 605.526733,334.259766 610.943909,330.723175 
	C616.495483,327.098907 616.460815,322.099060 610.748596,318.622101 
	C602.529236,313.619049 594.163025,308.854187 585.802002,304.088409 
	C580.904358,301.296722 575.868652,298.748260 570.943665,296.003235 
	C566.077698,293.291016 561.272766,290.469086 556.020935,287.454102 
	C557.170471,287.104431 557.640015,286.961578 558.842163,286.958496 
	C562.540771,288.403687 566.151611,290.161957 569.956421,291.228058 
	C577.569397,293.361237 585.288574,295.115387 593.450012,297.608124 
	C601.171021,299.448090 608.942566,301.111023 616.566772,303.289764 
	C617.953857,303.686096 619.533569,306.124084 619.666931,307.732178 
	C620.318604,315.591858 620.088440,323.537964 620.983215,331.360474 
	C621.880127,339.201965 623.737305,346.933594 625.060669,355.694305 
	C624.690735,360.427124 624.320801,365.159943 623.950500,369.974548 
	C623.950500,369.974548 623.878357,369.936066 623.116394,369.980927 
	C622.429138,371.361847 621.741943,372.742767 621.053955,374.924591 
	C620.294067,380.188446 619.482483,385.445496 618.789673,390.718170 
	C618.172180,395.417450 620.271362,397.626404 625.036987,398.362305 
	C632.217834,399.471069 639.291321,401.262207 646.425537,402.687927 
	C655.149780,404.431305 663.929260,405.412476 672.578186,402.503723 
	C680.847290,399.722717 682.001526,394.856384 675.310608,389.148560 
	C669.896057,384.529724 663.843445,380.586182 657.767517,376.839905 
	C653.445312,374.174927 650.234619,370.929321 649.200623,365.814392 
	C648.645752,365.382629 648.090820,364.950897 647.553467,364.479797 
	C647.553467,364.479797 647.583435,364.448853 647.605896,363.788910 
M50.979469,76.012184 
	C50.347401,76.382896 49.715332,76.753609 48.411343,77.237381 
	C41.118702,81.404144 39.288406,88.262634 38.570862,96.211937 
	C38.002365,96.534492 37.433868,96.857048 36.300526,96.809952 
	C28.933558,87.494865 21.947336,84.996796 12.882758,88.739357 
	C9.839618,92.075821 5.676748,94.924980 3.971352,98.843636 
	C-0.463624,109.034302 4.058395,125.025970 12.647711,131.965607 
	C16.944582,135.437241 21.782196,137.690063 28.373562,135.388855 
	C29.578629,135.126801 30.783697,134.864761 31.982174,135.551178 
	C31.733698,138.350037 31.288788,141.147736 31.272106,143.947983 
	C31.212534,153.947433 28.899092,164.237442 35.572948,173.340607 
	C39.455338,178.636200 41.310162,179.485245 47.186596,176.323318 
	C53.856735,172.734299 60.325623,168.771271 67.189705,165.655838 
	C68.843842,170.106567 70.497978,174.557297 72.211273,179.167206 
	C58.563015,184.362106 45.422756,189.363632 32.413948,194.315125 
	C33.736706,204.459702 36.248543,206.066360 45.078529,202.639359 
	C58.085384,197.591232 71.064072,192.469040 84.013069,187.274475 
	C86.949501,186.096512 89.340630,185.818695 92.364471,187.660645 
	C104.996552,195.355362 117.827957,202.724228 130.619171,210.155960 
	C147.705612,220.083237 164.822556,229.958023 181.940964,240.763641 
	C182.102890,243.065125 181.984863,245.427811 182.472290,247.658142 
	C185.565399,261.811523 188.792313,275.935638 191.990189,290.933685 
	C192.307419,294.821045 192.624649,298.708435 192.669998,303.110168 
	C192.423065,303.408905 192.176132,303.707672 191.453735,304.404816 
	C191.379440,304.803772 191.305161,305.202728 191.182831,306.379303 
	C190.664017,316.304962 190.132538,326.230011 189.656525,336.157715 
	C189.626709,336.779694 189.961136,337.455322 190.242889,338.050720 
	C196.605972,351.497437 215.792969,357.136902 228.563110,349.406952 
	C231.850876,347.416840 232.896271,344.937805 231.033005,341.492981 
	C228.341049,336.516113 226.008209,331.278107 222.777771,326.673737 
	C216.584991,317.847107 212.538834,308.462769 212.894318,296.702057 
	C211.513138,295.624146 210.131943,294.546265 208.209976,293.046326 
	C208.011215,292.336975 207.550003,290.691010 207.096344,288.132294 
	C207.115982,285.098114 207.135635,282.063965 207.873337,278.999451 
	C208.352753,278.952728 208.832184,278.906006 209.950043,279.050293 
	C215.475891,282.756622 220.944031,286.554840 226.576263,290.091736 
	C227.703110,290.799347 229.969620,291.205322 230.833557,290.565704 
	C235.441574,287.154114 239.770981,283.366150 244.278976,279.640442 
	C236.181000,273.294891 236.334885,273.256897 234.070007,264.083282 
	C233.423645,261.465271 231.817902,258.988434 230.255692,256.719879 
	C228.779526,254.576324 226.782440,252.791519 224.875580,250.696289 
	C226.201431,249.451843 227.352905,248.509521 228.338181,247.417267 
	C230.348877,245.188263 229.845718,238.804321 227.251175,237.841690 
	C223.178604,236.330658 222.594757,233.178207 222.238831,230.871948 
	C225.551971,227.849854 228.251480,225.387482 231.758698,222.794952 
	C235.580475,224.647888 239.087616,223.948364 242.582855,221.749115 
	C248.637070,217.939743 254.872009,214.414398 260.879883,210.535629 
	C265.954712,207.259216 265.983368,202.251617 260.949127,199.017380 
	C255.632950,195.601990 250.167419,192.407318 244.667755,189.291626 
	C232.556320,182.430191 220.382324,175.679153 207.824127,168.653870 
	C208.893555,168.274445 209.493149,168.061707 210.848633,167.970306 
	C212.931000,168.783249 214.966537,169.756454 217.104004,170.380783 
	C225.412811,172.807663 233.753998,175.123779 242.716827,177.840271 
	C249.805008,179.490463 256.828827,181.579941 264.004761,182.631165 
	C268.531158,183.294235 269.149109,185.313034 269.124084,189.213303 
	C269.081635,195.827301 269.149536,202.515350 270.074890,209.044144 
	C271.300476,217.691269 273.395508,226.215134 275.038940,235.752991 
	C274.450165,240.543777 276.936310,246.097137 271.407379,249.711258 
	C270.809967,250.101761 271.128662,251.893768 270.992554,253.828720 
	C270.062408,259.396057 268.981812,264.943695 268.249512,270.536896 
	C267.657654,275.056976 269.526276,277.521698 274.455414,278.213318 
	C281.316010,279.175995 288.053436,280.992828 294.863953,282.341339 
	C305.045593,284.357361 315.289246,285.940887 325.159637,281.210419 
	C329.945953,278.916534 330.808685,275.472076 327.139526,271.657257 
	C323.268616,267.632660 318.802582,264.034943 314.128296,260.963287 
	C307.461853,256.582520 300.266876,252.983261 297.132385,244.898376 
	C296.810303,244.067551 295.741730,243.526108 294.902008,242.081207 
	C294.548157,239.962311 294.194305,237.843414 293.873596,234.831696 
	C296.110291,220.471512 298.462616,206.127975 300.531494,191.743652 
	C301.467834,185.233673 303.150665,178.451309 302.225830,172.124176 
	C299.385071,152.689819 284.902313,144.350189 267.722992,138.261429 
	C254.002029,131.406296 239.952240,125.828857 224.540558,123.636375 
	C211.582214,121.792908 198.820312,118.568588 186.037964,115.041061 
	C186.650970,107.279732 184.814651,100.002861 181.986832,92.836388 
	C180.611420,89.350685 179.892670,85.605865 179.313385,81.885551 
	C179.639450,81.855865 179.877182,81.695358 180.823318,81.376938 
	C186.109726,80.711464 189.945892,77.771896 191.666473,72.940086 
	C195.363647,62.557583 193.494247,52.825890 186.377548,44.478836 
	C182.758926,40.234631 177.886581,38.109535 171.349655,40.065067 
	C164.199554,42.611477 162.561188,48.925987 160.425232,54.818790 
	C154.047302,47.809654 148.095947,46.289894 140.780930,49.967739 
	C135.885330,53.213558 133.466522,57.833618 132.912567,63.630699 
	C132.172272,71.377907 134.461975,78.343849 137.256653,84.940338 
	C127.357132,81.361099 117.602638,82.213837 107.188126,85.941505 
	C105.219238,86.246925 103.250351,86.552338 101.152016,86.898201 
	C101.152016,86.898201 101.171120,86.763939 101.021317,86.095886 
	C96.945641,83.882584 94.166946,80.725494 92.951981,76.098305 
	C91.936150,72.229530 89.072647,70.516724 84.685791,70.201744 
	C83.121201,69.263321 81.658569,67.952728 79.964066,67.488464 
	C78.177895,66.999092 76.102882,66.986008 74.274490,67.357529 
	C71.147903,67.992828 68.115204,69.090218 64.472221,69.511871 
	C56.520405,66.347237 53.842384,67.678291 50.979469,76.012184 
z"/>
<path fill="#292929" opacity="1.000000" stroke="none" 
	d="
M534.373413,235.795868 
	C548.684021,238.543411 562.953064,241.536606 577.316956,243.969498 
	C591.720581,246.409103 605.061890,251.590134 617.748352,258.699036 
	C604.455505,268.563446 597.712158,282.146973 592.963867,297.026001 
	C585.288574,295.115387 577.569397,293.361237 569.956421,291.228058 
	C566.151611,290.161957 562.540771,288.403687 558.439636,286.558899 
	C553.372009,283.659485 552.010193,284.306641 551.959106,289.065979 
	C551.945129,290.370789 551.989014,291.676178 551.595276,293.038635 
	C534.140991,293.556610 523.921204,302.453796 519.584534,318.638794 
	C519.457397,319.113312 519.195557,319.551697 518.634888,319.995972 
	C509.985443,316.582916 503.534271,310.847992 497.894165,303.646606 
	C496.193085,299.892426 494.561462,296.486298 492.965393,292.693604 
	C490.305298,284.927368 487.609619,277.547699 485.056824,269.827942 
	C488.754242,258.986633 494.979919,251.668503 506.191925,248.119858 
	C515.912231,245.043365 525.003906,239.980682 534.373413,235.795868 
z"/>
<path fill="#292929" opacity="1.000000" stroke="none" 
	d="
M185.971436,115.955566 
	C198.820312,118.568588 211.582214,121.792908 224.540558,123.636375 
	C239.952240,125.828857 254.002029,131.406296 267.534058,138.653687 
	C264.492950,141.568069 261.418091,143.882050 258.829803,146.650833 
	C250.598770,155.455750 246.259247,166.437988 242.083130,177.481110 
	C233.753998,175.123779 225.412811,172.807663 217.104004,170.380783 
	C214.966537,169.756454 212.931000,168.783249 210.428894,167.642365 
	C201.659058,162.944870 201.658737,162.944870 201.840652,172.295532 
	C201.843872,172.460632 201.887573,172.624954 201.501556,172.859299 
	C184.420959,173.618454 173.776474,181.894836 169.402725,198.080368 
	C169.229919,198.719894 168.949570,199.330338 168.363419,199.948105 
	C165.292145,198.437393 162.385818,197.193176 159.903214,195.371490 
	C155.432220,192.090759 151.215088,188.464066 147.013428,184.599335 
	C145.694016,180.541153 144.253082,176.865540 142.846436,172.811127 
	C140.179535,165.251450 137.478363,158.070602 134.896896,150.548798 
	C136.078262,147.769073 137.109222,145.316376 138.207382,142.894135 
	C141.529892,135.565475 147.594803,131.897614 154.926926,129.101044 
	C164.947876,125.278877 174.589386,120.461845 184.656525,116.070419 
	C185.270126,116.031555 185.620789,115.993568 185.971436,115.955566 
z"/>
<path fill="#545655" opacity="1.000000" stroke="none" 
	d="
M497.963623,303.994720 
	C503.534271,310.847992 509.985443,316.582916 518.768250,320.305603 
	C524.023987,324.452484 528.946411,328.101624 533.448975,332.210968 
	C534.835571,333.476471 535.922058,336.105438 535.691895,337.926331 
	C534.761475,345.287445 533.263733,352.576874 531.975464,359.892761 
	C502.705719,342.796906 473.406433,325.751129 444.204346,308.540497 
	C440.643829,306.442078 437.678497,305.838684 433.655426,307.530640 
	C421.259796,312.743713 408.663208,317.479004 396.145233,322.401276 
	C395.990723,322.462067 395.846375,322.548523 395.692230,322.610504 
	C386.610809,326.261200 383.591736,324.383972 382.863556,314.280640 
	C395.880524,309.325897 409.002960,304.330994 422.515900,299.187469 
	C420.495758,293.618530 418.724426,288.483032 416.775787,283.415680 
	C412.606262,272.572876 414.676392,267.641266 425.415497,263.180267 
	C426.795410,262.607056 428.179413,262.043762 430.220856,261.325439 
	C434.557465,262.118317 438.234741,263.061615 442.046844,264.197571 
	C442.393066,264.632538 442.650818,264.805878 443.228912,264.944885 
	C443.687012,264.979523 443.871094,264.979584 444.027893,264.991760 
	C444.000641,265.003876 443.992645,264.944733 444.169189,265.239868 
	C451.484100,269.664795 458.675568,273.706299 465.742554,277.954773 
	C470.641479,280.899841 475.368988,284.130127 479.933960,287.483276 
	C472.377960,291.322968 465.061066,294.912384 456.823456,298.953461 
	C466.544617,304.138397 475.109009,308.813995 483.816895,313.205048 
	C484.825073,313.713440 486.925903,313.038666 488.010773,312.229492 
	C491.458008,309.658325 494.664246,306.764099 497.963623,303.994720 
M457.239929,278.154175 
	C449.269043,277.633911 441.298126,277.113647 432.117035,276.514404 
	C435.252167,281.124969 437.523407,284.465088 439.880157,287.930939 
	C445.966736,284.724731 451.546906,281.785278 457.239929,278.154175 
M495.666687,322.529449 
	C498.960876,325.183655 502.255035,327.837860 505.851929,330.735962 
	C507.617035,328.737518 508.959167,327.217957 510.405365,325.580597 
	C508.541901,323.832794 507.127655,322.450348 505.651733,321.137268 
	C504.072540,319.732300 502.435150,318.392670 500.638000,316.867371 
	C498.902954,318.725098 497.441803,320.289581 495.666687,322.529449 
M524.555298,343.862518 
	C526.028503,344.810211 527.501709,345.757935 528.970276,346.702637 
	C530.954102,343.587616 526.882751,338.624298 518.337219,333.291107 
	C517.492188,334.610931 516.646423,335.931976 515.677124,337.445923 
	C518.668030,339.584564 521.341003,341.495819 524.555298,343.862518 
z"/>
<path fill="#555655" opacity="1.000000" stroke="none" 
	d="
M146.891907,184.981888 
	C151.215088,188.464066 155.432220,192.090759 159.903214,195.371490 
	C162.385818,197.193176 165.292145,198.437393 168.491272,200.279175 
	C173.737320,204.453568 178.417038,208.400269 183.298187,212.079712 
	C185.598343,213.813568 186.106796,215.410202 185.471313,218.348114 
	C183.937103,225.440918 183.065308,232.677017 181.926407,239.855331 
	C164.822556,229.958023 147.705612,220.083237 130.619171,210.155960 
	C117.827957,202.724228 104.996552,195.355362 92.364471,187.660645 
	C89.340630,185.818695 86.949501,186.096512 84.013069,187.274475 
	C71.064072,192.469040 58.085384,197.591232 45.078529,202.639359 
	C36.248543,206.066360 33.736706,204.459702 32.413948,194.315125 
	C45.422756,189.363632 58.563015,184.362106 72.211273,179.167206 
	C70.497978,174.557297 68.843842,170.106567 67.105881,164.966431 
	C70.716820,157.908508 74.411568,151.540009 78.501991,145.124710 
	C79.954033,144.978409 81.010406,144.878906 82.494186,144.852295 
	C85.910294,144.796036 88.898994,144.666901 92.133118,144.657990 
	C92.909172,144.905014 93.439804,145.031815 94.146286,145.439957 
	C102.642044,150.530243 111.018250,155.245468 119.254898,160.193024 
	C122.686768,162.254456 125.821381,164.810776 128.914642,167.437775 
	C121.599289,171.369141 114.460464,175.004791 106.625435,178.994995 
	C113.409782,182.624268 119.375320,185.848770 125.371315,189.015564 
	C135.258224,194.237366 135.256729,194.210007 143.634033,187.166107 
	C144.628860,186.329636 145.801620,185.704819 146.891907,184.981888 
M85.953278,162.696945 
	C87.061081,164.305466 88.168877,165.914001 89.468933,167.801697 
	C95.650162,164.659286 101.488457,161.691208 107.326759,158.723129 
	C107.279602,158.410507 107.232452,158.097870 107.185295,157.785233 
	C99.061813,157.355820 90.938332,156.926392 81.968895,156.452240 
	C83.470886,158.828033 84.504265,160.462601 85.953278,162.696945 
M146.821991,200.496765 
	C146.870605,201.791321 146.392593,203.694305 147.060974,204.272827 
	C149.653793,206.517029 152.611267,208.339935 155.723984,210.523849 
	C157.245956,208.798737 158.606674,207.256393 160.168686,205.485886 
	C156.741196,202.443741 153.684021,199.730301 150.529037,196.930054 
	C149.289459,198.102829 148.335556,199.005310 146.821991,200.496765 
M173.208374,217.206024 
	C171.715973,215.894958 170.223557,214.583908 168.472763,213.045853 
	C167.330887,214.445251 166.317215,215.687515 165.047577,217.243515 
	C169.048187,220.099213 172.756973,222.847977 176.596756,225.399582 
	C177.339615,225.893234 178.594406,225.616455 179.613052,225.695068 
	C179.382385,224.589188 179.497482,223.184280 178.851624,222.437469 
	C177.341843,220.691711 175.466843,219.261826 173.208374,217.206024 
z"/>
<path fill="#1E73BA" opacity="1.000000" stroke="none" 
	d="
M93.970436,145.158630 
	C93.439804,145.031815 92.909172,144.905014 92.124451,144.166687 
	C92.209404,137.410995 93.029869,131.247665 92.785843,125.126770 
	C92.299484,112.927734 86.405121,106.873245 74.121544,104.638672 
	C74.633156,102.722160 75.157814,101.172318 76.149040,99.504013 
	C85.834816,99.207855 95.069931,99.292114 104.266014,98.733589 
	C108.396652,98.482704 112.836395,97.684456 116.434013,95.796883 
	C120.450073,93.689758 119.769852,89.812492 115.536308,88.106415 
	C113.103188,87.125893 110.479012,86.619453 107.940842,85.899605 
	C117.602638,82.213837 127.357132,81.361099 137.798676,85.278107 
	C141.851547,88.034111 145.362396,90.452332 149.092285,93.143631 
	C154.854568,97.351898 160.397812,101.287086 166.128098,105.499496 
	C172.341278,109.208252 178.367416,112.639778 184.393570,116.071304 
	C174.589386,120.461845 164.947876,125.278877 154.926926,129.101044 
	C147.594803,131.897614 141.529892,135.565475 138.207382,142.894135 
	C137.109222,145.316376 136.078262,147.769073 134.504883,150.553070 
	C130.904175,150.413422 127.820885,149.888397 124.725204,149.451080 
	C114.476021,148.003235 104.222374,146.587006 93.970436,145.158630 
z"/>
<path fill="#1E73BA" opacity="1.000000" stroke="none" 
	d="
M442.954926,264.910278 
	C442.650818,264.805878 442.393066,264.632538 442.070679,263.763641 
	C442.212036,261.323486 442.651428,259.513550 442.686310,257.695831 
	C442.912659,245.892105 445.691589,233.222839 432.274536,226.049210 
	C432.602966,223.387482 432.907318,220.921188 433.658508,218.370987 
	C441.747986,218.275223 449.406342,218.545044 457.026001,218.120636 
	C460.336884,217.936234 463.965149,216.953674 466.737762,215.205307 
	C470.403137,212.893967 469.672333,209.526947 465.643005,207.768066 
	C463.396423,206.787399 461.089783,205.944366 459.170227,204.890182 
	C462.338959,204.007782 465.147614,203.274506 468.194275,202.613617 
	C468.827118,202.693863 469.069275,202.505478 469.127716,202.125916 
	C469.096802,202.130966 469.114594,202.191360 469.561859,202.283356 
	C479.969452,200.995132 488.689240,203.683411 496.249207,210.296082 
	C497.731964,211.593048 499.377167,212.704285 500.947449,213.901169 
	C510.008453,219.837799 519.056763,225.793961 528.140625,231.695328 
	C530.062073,232.943619 532.113708,233.991531 534.239380,235.463821 
	C525.003906,239.980682 515.912231,245.043365 506.191925,248.119858 
	C494.979919,251.668503 488.754242,258.986633 484.614746,269.784485 
	C481.084473,269.799072 478.126892,269.608917 475.196045,269.218170 
	C464.790009,267.830658 454.393036,266.374725 443.992645,264.944733 
	C443.992645,264.944733 444.000641,265.003876 443.941040,264.820190 
	C443.572571,264.727783 443.263763,264.819031 442.954926,264.910278 
z"/>
<path fill="#FBCAA6" opacity="1.000000" stroke="none" 
	d="
M531.995239,360.329376 
	C533.263733,352.576874 534.761475,345.287445 535.691895,337.926331 
	C535.922058,336.105438 534.835571,333.476471 533.448975,332.210968 
	C528.946411,328.101624 524.023987,324.452484 519.129883,320.316528 
	C519.195557,319.551697 519.457397,319.113312 519.584534,318.638794 
	C523.921204,302.453796 534.140991,293.556610 551.722534,293.347534 
	C564.069092,304.997833 569.943848,318.369629 565.893311,335.348328 
	C564.448364,342.627289 562.875305,349.518402 561.887695,356.492371 
	C560.451904,366.630432 559.352478,376.819305 558.290955,387.005402 
	C557.918640,390.578247 558.081604,394.206909 558.000122,397.810059 
	C557.974854,401.225128 557.949463,404.640167 557.510071,408.520538 
	C552.077515,409.296936 547.058960,409.608032 542.040466,409.919128 
	C538.980164,395.665924 535.899292,381.417084 532.882019,367.154785 
	C532.438477,365.057892 532.296570,362.897186 531.995239,360.329376 
z"/>
<path fill="#FBCAA6" opacity="1.000000" stroke="none" 
	d="
M181.933685,240.309479 
	C183.065308,232.677017 183.937103,225.440918 185.471313,218.348114 
	C186.106796,215.410202 185.598343,213.813568 183.298187,212.079712 
	C178.417038,208.400269 173.737320,204.453568 168.847168,200.285370 
	C168.949570,199.330338 169.229919,198.719894 169.402725,198.080368 
	C173.776474,181.894836 184.420959,173.618454 201.602142,173.199524 
	C213.167450,185.073349 220.082962,198.043320 215.480865,215.014679 
	C214.093735,220.097229 212.532913,224.842270 211.924271,229.706436 
	C210.447784,241.506317 209.322220,253.353302 208.251999,265.199097 
	C207.873276,269.391022 208.064880,273.634491 207.788544,278.000122 
	C207.439087,278.440460 207.297165,278.735107 207.155273,279.029785 
	C207.135635,282.063965 207.115982,285.098114 206.646637,288.586853 
	C201.456314,289.384064 196.715714,289.726715 191.975113,290.069397 
	C188.792313,275.935638 185.565399,261.811523 182.472290,247.658142 
	C181.984863,245.427811 182.102890,243.065125 181.933685,240.309479 
z"/>
<path fill="#FCCBA7" opacity="1.000000" stroke="none" 
	d="
M593.206909,297.317078 
	C597.712158,282.146973 604.455505,268.563446 617.917786,259.010559 
	C636.897583,263.912048 654.597900,277.672424 652.804382,297.837555 
	C651.724426,309.979187 649.038940,321.976929 647.105042,334.044128 
	C646.034973,340.721344 645.026489,347.408478 643.526245,354.569397 
	C637.099426,354.936218 631.136536,354.824799 625.173645,354.713379 
	C623.737305,346.933594 621.880127,339.201965 620.983215,331.360474 
	C620.088440,323.537964 620.318604,315.591858 619.666931,307.732178 
	C619.533569,306.124084 617.953857,303.686096 616.566772,303.289764 
	C608.942566,301.111023 601.171021,299.448090 593.206909,297.317078 
z"/>
<path fill="#FCCBA7" opacity="1.000000" stroke="none" 
	d="
M242.399979,177.660690 
	C246.259247,166.437988 250.598770,155.455750 258.829803,146.650833 
	C261.418091,143.882050 264.492950,141.568069 267.686005,138.958557 
	C284.902313,144.350189 299.385071,152.689819 302.225830,172.124176 
	C303.150665,178.451309 301.467834,185.233673 300.531494,191.743652 
	C298.462616,206.127975 296.110291,220.471512 293.455383,235.329651 
	C287.063721,235.482376 281.090332,235.137177 275.116882,234.791962 
	C273.395508,226.215134 271.300476,217.691269 270.074890,209.044144 
	C269.149536,202.515350 269.081635,195.827301 269.124084,189.213303 
	C269.149109,185.313034 268.531158,183.294235 264.004761,182.631165 
	C256.828827,181.579941 249.805008,179.490463 242.399979,177.660690 
z"/>
<path fill="#FBCBA7" opacity="1.000000" stroke="none" 
	d="
M433.211670,218.454880 
	C432.907318,220.921188 432.602966,223.387482 432.274536,226.049210 
	C445.691589,233.222839 442.912659,245.892105 442.686310,257.695831 
	C442.651428,259.513550 442.212036,261.323486 441.935852,263.570953 
	C438.234741,263.061615 434.557465,262.118317 430.519470,261.117188 
	C430.122589,260.885162 430.086395,260.711029 430.181030,259.903534 
	C431.627136,254.527374 431.428497,250.193893 426.942871,246.859039 
	C426.798828,246.662903 426.707947,246.612717 426.617065,246.562546 
	C426.746399,246.706955 426.875732,246.851379 427.006927,247.412201 
	C427.304230,251.260727 427.599640,254.692856 427.895081,258.124969 
	C422.029388,253.330338 416.163727,248.535706 410.113403,243.037689 
	C407.936920,236.450821 407.110046,230.550232 408.785492,224.370438 
	C409.320587,222.396667 408.791718,220.134430 408.739899,217.543488 
	C408.742706,213.390762 408.755249,209.698700 408.860474,205.761703 
	C408.902649,205.349594 408.852173,205.182449 408.824005,204.567047 
	C409.205719,198.540817 409.565155,192.962845 409.924622,187.384872 
	C409.615692,183.453827 409.720367,179.436401 408.920837,175.607819 
	C406.450348,163.778320 410.367218,152.391937 411.049988,140.032654 
	C413.154572,133.863647 415.126007,128.446579 417.455688,122.976952 
	C420.958008,121.507805 425.310394,120.870483 426.879150,118.437935 
	C428.231354,116.341179 426.410370,112.199982 426.000244,108.961662 
	C425.958954,108.635475 425.972778,108.302299 426.028992,107.659782 
	C426.423462,107.019218 426.954376,106.355339 427.046936,106.411690 
	C430.823273,108.709969 434.135773,111.875519 433.667206,116.396729 
	C433.314026,119.804672 431.235626,123.147308 429.458130,126.251595 
	C428.391785,128.113892 426.427948,129.462296 424.602173,131.333649 
	C424.708252,137.692719 424.710785,143.810104 425.529388,149.816223 
	C427.128418,161.548264 429.048553,173.242889 431.186493,184.888611 
	C431.531342,186.767365 433.686188,188.313843 434.959351,190.394745 
	C434.278137,192.606583 433.132111,194.427383 433.095215,196.270386 
	C432.947235,203.661469 433.143005,211.059448 433.211670,218.454880 
M417.001678,196.030212 
	C416.599152,195.557175 416.196625,195.084122 415.811218,194.631195 
	C416.127747,201.488968 416.437500,208.199463 416.772186,215.450836 
	C419.567505,208.906433 419.671417,202.839508 417.001678,196.030212 
z"/>
<path fill="#FACBA7" opacity="1.000000" stroke="none" 
	d="
M74.134598,105.005341 
	C86.405121,106.873245 92.299484,112.927734 92.785843,125.126770 
	C93.029869,131.247665 92.209404,137.410995 91.879028,144.046448 
	C88.898994,144.666901 85.910294,144.796036 82.483749,144.444977 
	C81.926064,138.207962 80.036438,133.160934 75.920715,128.744385 
	C75.612480,128.248154 75.346664,128.069077 74.961433,127.836761 
	C74.810837,127.634819 74.713303,127.584610 74.615761,127.534401 
	C74.740166,127.694275 74.864578,127.854141 75.086502,128.238708 
	C75.369980,128.751633 75.628220,128.941666 75.955002,129.445923 
	C76.669617,134.962738 77.387970,140.067123 78.106323,145.171509 
	C74.411568,151.540009 70.716820,157.908508 66.952034,164.623932 
	C60.325623,168.771271 53.856735,172.734299 47.186596,176.323318 
	C41.310162,179.485245 39.455338,178.636200 35.572948,173.340607 
	C28.899092,164.237442 31.212534,153.947433 31.272106,143.947983 
	C31.288788,141.147736 31.733698,138.350037 32.172752,134.827728 
	C41.790836,128.522827 42.329967,119.529556 41.954674,109.933426 
	C43.555538,109.038605 44.776936,108.220268 46.046528,107.485168 
	C50.732521,104.771942 51.018200,103.258331 48.194759,98.572418 
	C47.413723,97.276184 47.365002,95.538696 47.147068,93.723389 
	C57.953728,97.877670 58.378231,108.509010 52.410648,113.176453 
	C50.963528,114.308289 50.131996,116.227188 48.653923,117.877838 
	C47.621494,118.647629 46.306225,119.411507 46.384254,119.986198 
	C47.108929,125.323502 48.073460,130.628250 48.850105,136.283356 
	C49.563290,141.786957 50.298450,146.969009 51.330292,152.091309 
	C51.484756,152.858124 53.000134,153.823273 53.937038,153.882019 
	C59.363056,154.222290 63.748737,151.826385 66.784943,147.559357 
	C69.629585,143.561569 72.504997,139.244934 69.360840,133.383728 
	C67.679573,142.883011 63.813019,150.004501 53.349754,152.027313 
	C52.857811,149.098740 52.635998,146.466812 51.936810,143.968475 
	C51.169708,141.227493 49.962502,138.609680 49.091904,135.632324 
	C51.757782,130.645966 54.278820,125.965477 57.182816,121.218956 
	C58.076519,121.067650 58.587265,120.982376 59.443859,120.935211 
	C60.621140,120.655212 61.452568,120.337120 62.453701,120.047081 
	C62.623402,120.075127 62.960178,120.004982 63.321953,120.002716 
	C70.452408,117.291611 73.780373,112.184753 74.134598,105.005341 
z"/>
<path fill="#FBCBA8" opacity="1.000000" stroke="none" 
	d="
M501.129395,213.595093 
	C499.377167,212.704285 497.731964,211.593048 496.249207,210.296082 
	C488.689240,203.683411 479.969452,200.995132 469.702057,201.963898 
	C472.172943,200.062897 475.114685,198.804108 477.664734,196.993591 
	C479.094147,195.978699 480.719452,194.099686 480.811401,192.525589 
	C481.420563,182.098038 481.705658,171.649109 481.938110,161.203629 
	C482.000153,158.414780 481.214447,155.601517 481.328308,152.820358 
	C481.755280,142.391861 482.509491,131.975464 482.822906,121.544991 
	C482.868042,120.042000 481.172943,118.486717 480.310608,116.553253 
	C482.208313,108.918068 479.920013,102.201172 477.771973,95.466888 
	C477.983368,95.114311 478.194763,94.761734 478.913788,94.471466 
	C481.253021,95.433937 483.084686,96.334106 484.942230,97.587128 
	C485.676697,101.207527 486.850311,104.022362 490.969360,104.447792 
	C491.386383,107.277916 491.673584,109.707130 492.102509,112.111061 
	C492.552307,114.631920 493.138031,117.128510 493.664368,119.635712 
	C495.251556,125.361153 497.031128,131.042145 498.367371,136.825562 
	C499.513306,141.785431 500.327881,146.839828 500.979584,151.892334 
	C502.477478,163.505280 503.532715,175.180298 505.252838,186.758041 
	C506.641327,196.103516 505.207062,204.829163 501.129395,213.595093 
M489.627014,195.688797 
	C495.549042,187.319183 495.446136,176.318604 490.068176,172.329681 
	C490.068176,177.471283 490.172211,183.092316 490.019806,188.706375 
	C489.953583,191.146561 489.360138,193.572418 488.719116,196.098068 
	C488.811279,196.063492 488.903442,196.028900 489.627014,195.688797 
z"/>
<path fill="#818281" opacity="1.000000" stroke="none" 
	d="
M215.740265,214.731369 
	C220.082962,198.043320 213.167450,185.073349 202.012970,173.129852 
	C201.887573,172.624954 201.843872,172.460632 201.840652,172.295532 
	C201.658737,162.944870 201.659058,162.944870 210.050964,167.581696 
	C209.493149,168.061707 208.893555,168.274445 207.824127,168.653870 
	C220.382324,175.679153 232.556320,182.430191 244.667755,189.291626 
	C250.167419,192.407318 255.632950,195.601990 260.949127,199.017380 
	C265.983368,202.251617 265.954712,207.259216 260.879883,210.535629 
	C254.872009,214.414398 248.637070,217.939743 242.582855,221.749115 
	C239.087616,223.948364 235.580475,224.647888 231.201126,222.558197 
	C225.675797,219.791428 220.708023,217.261398 215.740265,214.731369 
z"/>
<path fill="#818281" opacity="1.000000" stroke="none" 
	d="
M566.026855,334.997498 
	C569.943848,318.369629 564.069092,304.997833 552.133545,293.290222 
	C551.989014,291.676178 551.945129,290.370789 551.959106,289.065979 
	C552.010193,284.306641 553.372009,283.659485 558.073364,286.489044 
	C557.640015,286.961578 557.170471,287.104431 556.020935,287.454102 
	C561.272766,290.469086 566.077698,293.291016 570.943665,296.003235 
	C575.868652,298.748260 580.904358,301.296722 585.802002,304.088409 
	C594.163025,308.854187 602.529236,313.619049 610.748596,318.622101 
	C616.460815,322.099060 616.495483,327.098907 610.943909,330.723175 
	C605.526733,334.259766 599.933411,337.525574 594.443115,340.951355 
	C590.531189,343.392334 586.507019,344.933563 581.351135,342.727539 
	C575.873779,340.004578 570.950317,337.501038 566.026855,334.997498 
z"/>
<path fill="#2075BB" opacity="1.000000" stroke="none" 
	d="
M295.019562,242.850388 
	C295.741730,243.526108 296.810303,244.067551 297.132385,244.898376 
	C300.266876,252.983261 307.461853,256.582520 314.128296,260.963287 
	C318.802582,264.034943 323.268616,267.632660 327.139526,271.657257 
	C330.808685,275.472076 329.945953,278.916534 325.159637,281.210419 
	C315.289246,285.940887 305.045593,284.357361 294.863953,282.341339 
	C288.053436,280.992828 281.316010,279.175995 274.455414,278.213318 
	C269.526276,277.521698 267.657654,275.056976 268.249512,270.536896 
	C268.981812,264.943695 270.062408,259.396057 271.278809,253.176239 
	C273.184204,249.025970 276.361755,250.737228 278.915070,250.240540 
	C281.146088,249.806564 285.002899,249.211716 285.186829,248.167511 
	C286.307648,241.804443 290.334106,241.966766 295.019562,242.850388 
z"/>
<path fill="#2075BB" opacity="1.000000" stroke="none" 
	d="
M648.610107,366.135864 
	C650.234619,370.929321 653.445312,374.174927 657.767517,376.839905 
	C663.843445,380.586182 669.896057,384.529724 675.310608,389.148560 
	C682.001526,394.856384 680.847290,399.722717 672.578186,402.503723 
	C663.929260,405.412476 655.149780,404.431305 646.425537,402.687927 
	C639.291321,401.262207 632.217834,399.471069 625.036987,398.362305 
	C620.271362,397.626404 618.172180,395.417450 618.789673,390.718170 
	C619.482483,385.445496 620.294067,380.188446 621.270386,374.290588 
	C622.283997,372.416443 623.081177,371.176270 623.878418,369.936096 
	C623.878357,369.936066 623.950500,369.974548 624.408081,370.003296 
	C625.520935,370.093292 626.175049,370.188507 626.831604,370.210327 
	C631.453735,370.363708 636.242004,371.004883 637.269104,364.375488 
	C637.401428,363.521179 639.718994,362.627899 641.114197,362.447540 
	C642.672241,362.246094 644.332825,362.837311 645.948792,363.083557 
	C645.948792,363.083557 645.984985,363.000885 646.098145,363.269287 
	C646.668701,363.841431 647.126038,364.145142 647.583435,364.448853 
	C647.583435,364.448853 647.553467,364.479797 647.608276,364.738922 
	C647.978760,365.377319 648.294434,365.756592 648.610107,366.135864 
z"/>
<path fill="#2075BB" opacity="1.000000" stroke="none" 
	d="
M212.786346,297.513763 
	C212.538834,308.462769 216.584991,317.847107 222.777771,326.673737 
	C226.008209,331.278107 228.341049,336.516113 231.033005,341.492981 
	C232.896271,344.937805 231.850876,347.416840 228.563110,349.406952 
	C215.792969,357.136902 196.605972,351.497437 190.242889,338.050720 
	C189.961136,337.455322 189.626709,336.779694 189.656525,336.157715 
	C190.132538,326.230011 190.664017,316.304962 191.447296,305.791718 
	C191.784241,304.804901 191.856720,304.405640 191.929199,304.006409 
	C192.176132,303.707672 192.423065,303.408905 193.255051,302.865723 
	C197.309433,302.170929 201.852371,304.882812 203.885025,300.123199 
	C205.981415,295.214355 208.874908,295.153748 212.786346,297.513763 
z"/>
<path fill="#2075BB" opacity="1.000000" stroke="none" 
	d="
M562.893921,417.205841 
	C562.578308,429.666229 568.369080,439.823883 574.957764,449.754242 
	C577.334961,453.337067 579.189453,457.274506 581.182190,461.102325 
	C583.141663,464.866333 582.251770,467.582703 578.365540,469.698486 
	C565.285278,476.819672 547.899597,471.692413 540.832092,458.448242 
	C540.523193,457.869293 540.056824,457.233856 540.078430,456.639832 
	C540.480530,445.607758 538.105103,434.342194 543.327637,423.248779 
	C545.683044,422.852570 547.591309,423.241669 549.270874,422.786804 
	C551.074280,422.298401 553.532471,421.418640 554.184265,420.007385 
	C556.233337,415.570679 559.019043,415.116669 562.893921,417.205841 
z"/>
<path fill="#545655" opacity="1.000000" stroke="none" 
	d="
M565.893311,335.348328 
	C570.950317,337.501038 575.873779,340.004578 580.960266,342.827087 
	C578.548462,345.478973 575.973633,347.811890 572.687500,350.789307 
	C572.877869,352.976410 573.405945,356.076447 577.314941,357.793610 
	C580.149353,359.038696 580.831238,364.878754 578.768372,367.303192 
	C577.807739,368.432159 576.597229,369.348419 575.134216,370.698608 
	C576.246948,371.913300 577.242004,373.186218 578.422546,374.254211 
	C582.409851,377.861511 585.134583,382.151550 585.050964,387.654022 
	C584.952087,394.165283 590.027039,396.405243 594.934387,399.397308 
	C589.664124,403.762756 584.845520,407.754089 579.768188,411.959686 
	C572.663574,407.315918 565.645081,402.728394 558.313354,397.975464 
	C558.081604,394.206909 557.918640,390.578247 558.290955,387.005402 
	C559.352478,376.819305 560.451904,366.630432 561.887695,356.492371 
	C562.875305,349.518402 564.448364,342.627289 565.893311,335.348328 
z"/>
<path fill="#545655" opacity="1.000000" stroke="none" 
	d="
M215.480865,215.014679 
	C220.708023,217.261398 225.675797,219.791428 230.797272,222.623291 
	C228.251480,225.387482 225.551971,227.849854 222.238831,230.871948 
	C222.594757,233.178207 223.178604,236.330658 227.251175,237.841690 
	C229.845718,238.804321 230.348877,245.188263 228.338181,247.417267 
	C227.352905,248.509521 226.201431,249.451843 224.875580,250.696289 
	C226.782440,252.791519 228.779526,254.576324 230.255692,256.719879 
	C231.817902,258.988434 233.423645,261.465271 234.070007,264.083282 
	C236.334885,273.256897 236.181000,273.294891 244.278976,279.640442 
	C239.770981,283.366150 235.441574,287.154114 230.833557,290.565704 
	C229.969620,291.205322 227.703110,290.799347 226.576263,290.091736 
	C220.944031,286.554840 215.475891,282.756622 209.487335,278.704620 
	C208.681793,278.190765 208.338943,278.022614 207.996109,277.854431 
	C208.064880,273.634491 207.873276,269.391022 208.251999,265.199097 
	C209.322220,253.353302 210.447784,241.506317 211.924271,229.706436 
	C212.532913,224.842270 214.093735,220.097229 215.480865,215.014679 
z"/>
<path fill="#939393" opacity="1.000000" stroke="none" 
	d="
M399.078522,144.777710 
	C392.922485,145.105072 388.195282,142.325745 384.423370,137.775543 
	C377.426147,129.334579 375.684662,113.729057 381.367401,104.392242 
	C383.387390,101.073341 387.346924,98.934921 391.005310,96.472305 
	C394.403503,97.941292 397.775909,98.581696 399.940033,100.550346 
	C413.174011,112.589027 412.873413,131.298233 399.575775,143.419617 
	C399.259888,143.707596 399.237701,144.317795 399.078522,144.777710 
M392.848480,116.468048 
	C391.264740,117.066116 388.473938,117.473885 388.343536,118.301086 
	C388.054199,120.136269 388.865173,122.298157 389.745300,124.069603 
	C390.003876,124.590164 392.850311,124.652809 393.052887,124.228813 
	C393.889282,122.478195 394.257263,120.475281 394.579987,118.529030 
	C394.654907,118.077240 393.874268,117.483597 392.848480,116.468048 
z"/>
<path fill="#939393" opacity="1.000000" stroke="none" 
	d="
M27.491291,135.077652 
	C21.782196,137.690063 16.944582,135.437241 12.647711,131.965607 
	C4.058395,125.025970 -0.463624,109.034302 3.971352,98.843636 
	C5.676748,94.924980 9.839618,92.075821 13.521876,89.013245 
	C25.456406,90.232925 30.131529,98.214180 33.292908,107.573975 
	C36.749329,117.807281 35.577385,127.208359 27.491291,135.077652 
M19.802233,111.928513 
	C18.119104,110.722389 16.435978,109.516273 14.752848,108.310150 
	C13.921196,109.954407 12.065284,111.972183 12.496902,113.155762 
	C13.151479,114.950722 15.395832,116.165932 16.964802,117.627441 
	C17.950392,115.978142 18.935982,114.328842 19.802233,111.928513 
z"/>
<path fill="#939393" opacity="1.000000" stroke="none" 
	d="
M148.873260,92.870560 
	C145.362396,90.452332 141.851547,88.034111 138.192841,85.320839 
	C134.461975,78.343849 132.172272,71.377907 132.912567,63.630699 
	C133.466522,57.833618 135.885330,53.213558 141.546021,49.956799 
	C145.749741,51.370888 150.019287,51.956482 152.468613,54.380970 
	C159.356186,61.198681 164.001251,75.160629 158.451752,86.039215 
	C157.422043,88.057739 156.176041,89.965912 154.646088,92.059921 
	C152.465942,92.420067 150.669601,92.645317 148.873260,92.870560 
M146.060608,75.294563 
	C148.853973,72.784065 148.834702,70.080795 145.969788,67.883530 
	C145.250000,67.331490 142.626236,67.948318 141.997620,68.828217 
	C139.784195,71.926437 141.957199,73.906685 144.463150,75.530029 
	C144.700165,75.683571 145.093918,75.595192 146.060608,75.294563 
z"/>
<path fill="#939393" opacity="1.000000" stroke="none" 
	d="
M448.035889,97.376190 
	C449.494598,92.251732 452.312897,88.242065 457.894958,86.323196 
	C461.185516,88.101852 464.348480,89.122932 466.569061,91.167526 
	C477.694183,101.411041 477.748932,117.872917 466.659119,129.716751 
	C459.921448,130.149506 455.791077,126.297318 451.958374,121.486298 
	C452.028320,117.351952 452.665558,113.533150 452.028259,109.940437 
	C451.267456,105.651253 449.415314,101.555641 448.035889,97.376190 
M457.959625,112.269890 
	C461.663635,112.938812 462.427612,110.413048 461.823822,107.876602 
	C461.482269,106.441757 459.374878,105.427246 458.062897,104.223389 
	C457.396729,106.055756 456.588867,107.855232 456.151337,109.740662 
	C456.021240,110.301155 456.931549,111.103081 457.959625,112.269890 
z"/>
<path fill="#939392" opacity="1.000000" stroke="none" 
	d="
M49.017399,117.784172 
	C50.131996,116.227188 50.963528,114.308289 52.410648,113.176453 
	C58.378231,108.509010 57.953728,97.877670 46.816444,93.883942 
	C43.939499,94.873123 41.559959,95.421478 39.180420,95.969833 
	C39.288406,88.262634 41.118702,81.404144 48.987907,77.450745 
	C52.959953,79.184319 56.932343,80.035866 59.630775,82.363998 
	C65.241776,87.204994 67.406548,93.888329 68.138237,101.310165 
	C68.836136,108.389381 66.113609,114.174614 62.960178,120.004982 
	C62.960178,120.004982 62.623402,120.075127 62.098358,120.032288 
	C60.748215,120.291992 59.923111,120.594543 59.098007,120.897102 
	C58.587265,120.982376 58.076519,121.067650 56.848106,121.104156 
	C53.759434,119.964981 51.388416,118.874573 49.017399,117.784172 
z"/>
<path fill="#939392" opacity="1.000000" stroke="none" 
	d="
M424.867493,131.041656 
	C426.427948,129.462296 428.391785,128.113892 429.458130,126.251595 
	C431.235626,123.147308 433.314026,119.804672 433.667206,116.396729 
	C434.135773,111.875519 430.823273,108.709969 427.046936,106.411690 
	C426.954376,106.355339 426.423462,107.019218 425.642517,107.661598 
	C422.854309,107.999146 420.520508,108.022293 418.186737,108.045441 
	C419.388763,100.736084 421.848389,94.265617 430.013306,91.437454 
	C439.419128,93.654091 445.245850,101.736160 446.065308,112.238792 
	C446.796539,121.610741 443.929260,129.371338 436.678345,135.838409 
	C432.475494,134.315308 428.671478,132.678497 424.867493,131.041656 
z"/>
<path fill="#E6B899" opacity="1.000000" stroke="none" 
	d="
M107.564484,85.920555 
	C110.479012,86.619453 113.103188,87.125893 115.536308,88.106415 
	C119.769852,89.812492 120.450073,93.689758 116.434013,95.796883 
	C112.836395,97.684456 108.396652,98.482704 104.266014,98.733589 
	C95.069931,99.292114 85.834816,99.207855 75.853195,99.273010 
	C74.157509,96.091599 73.224243,93.022728 72.629440,89.910141 
	C75.002914,87.649979 77.457916,85.685852 78.976028,83.158882 
	C81.345024,79.215553 83.078827,74.890633 85.081772,70.727402 
	C89.072647,70.516724 91.936150,72.229530 92.951981,76.098305 
	C94.166946,80.725494 96.945641,83.882584 100.693802,86.514938 
	C95.974998,88.184898 91.583710,89.435814 87.192421,90.686737 
	C87.683937,90.019920 88.175453,89.353111 88.666969,88.686295 
	C89.164810,90.604248 89.662651,92.522202 90.207336,94.620605 
	C94.503853,91.608795 97.892662,89.233276 101.281464,86.857758 
	C103.250351,86.552338 105.219238,86.246925 107.564484,85.920555 
z"/>
<path fill="#939392" opacity="1.000000" stroke="none" 
	d="
M160.958344,55.264778 
	C162.561188,48.925987 164.199554,42.611477 171.892136,40.357086 
	C189.632431,49.449387 193.153931,68.353302 180.026596,81.404022 
	C179.877182,81.695358 179.639450,81.855865 178.834503,81.695831 
	C176.876343,76.666489 175.397064,71.826866 174.146713,66.707962 
	C177.116714,65.050003 177.789291,62.828751 176.470367,60.224838 
	C175.071243,57.462612 172.906754,58.078419 170.534790,59.129463 
	C169.087799,59.770641 167.341965,59.737347 165.385635,60.035114 
	C163.680069,58.463753 162.319199,56.864265 160.958344,55.264778 
z"/>
<path fill="#939392" opacity="1.000000" stroke="none" 
	d="
M484.916321,97.234268 
	C483.084686,96.334106 481.253021,95.433937 479.164093,94.282852 
	C479.052795,86.928009 481.871063,81.411720 488.943787,78.362671 
	C506.265533,84.583290 510.350922,106.699066 497.019562,119.299721 
	C496.138916,119.445045 495.258301,119.590370 494.020996,119.685699 
	C493.138031,117.128510 492.552307,114.631920 492.102509,112.111061 
	C491.673584,109.707130 491.386383,107.277916 491.360596,104.397156 
	C492.330994,101.836365 492.977600,99.738235 493.624237,97.640106 
	C491.852661,97.236473 490.096802,96.651222 488.303741,96.496384 
	C487.204041,96.401421 486.047394,96.965912 484.916321,97.234268 
z"/>
<path fill="#FBCBA8" opacity="1.000000" stroke="none" 
	d="
M173.917770,66.987251 
	C175.397064,71.826866 176.876343,76.666489 178.616150,81.742226 
	C179.892670,85.605865 180.611420,89.350685 181.986832,92.836388 
	C184.814651,100.002861 186.650970,107.279732 186.004700,115.498322 
	C185.620789,115.993568 185.270126,116.031555 184.656525,116.070419 
	C178.367416,112.639778 172.341278,109.208252 166.271133,105.123856 
	C169.120728,95.669586 168.729446,86.794273 166.802856,77.446899 
	C166.734589,74.390114 166.688782,71.771362 167.009369,69.006958 
	C169.556427,68.236626 171.737106,67.611938 173.917770,66.987251 
M178.982162,100.804779 
	C177.640060,97.221222 176.297943,93.637665 174.955841,90.054108 
	C174.245163,90.378296 173.534500,90.702477 172.823822,91.026665 
	C174.867386,94.505333 176.910965,97.984009 178.982162,100.804779 
M172.412445,88.486427 
	C172.412445,88.486427 172.523483,88.419548 172.412445,88.486427 
z"/>
<path fill="#6B6B6A" opacity="1.000000" stroke="none" 
	d="
M399.447815,144.786774 
	C399.237701,144.317795 399.259888,143.707596 399.575775,143.419617 
	C412.873413,131.298233 413.174011,112.589027 399.940033,100.550346 
	C397.775909,98.581696 394.403503,97.941292 391.350067,96.430664 
	C399.020782,93.652122 407.038269,96.831215 411.846405,104.441971 
	C412.725342,105.833191 413.454834,107.318825 414.566650,109.371964 
	C415.619141,114.331879 416.358307,118.680695 417.097443,123.029518 
	C415.126007,128.446579 413.154572,133.863647 411.059784,139.602737 
	C407.229950,141.548462 403.523529,143.172150 399.447815,144.786774 
z"/>
<path fill="#6A6A69" opacity="1.000000" stroke="none" 
	d="
M27.932426,135.233246 
	C35.577385,127.208359 36.749329,117.807281 33.292908,107.573975 
	C30.131529,98.214180 25.456406,90.232925 13.865988,88.984825 
	C21.947336,84.996796 28.933558,87.494865 36.668640,97.339417 
	C38.556946,101.928619 40.077133,105.988365 41.597321,110.048111 
	C42.329967,119.529556 41.790836,128.522827 32.176044,134.353500 
	C30.783697,134.864761 29.578629,135.126801 27.932426,135.233246 
z"/>
<path fill="#FACBA7" opacity="1.000000" stroke="none" 
	d="
M84.883781,70.464569 
	C83.078827,74.890633 81.345024,79.215553 78.976028,83.158882 
	C77.457916,85.685852 75.002914,87.649979 72.432228,89.611038 
	C68.235336,84.889000 64.574120,80.422340 61.098137,75.683167 
	C62.536613,73.604950 63.789845,71.799240 65.043076,69.993546 
	C68.115204,69.090218 71.147903,67.992828 74.274490,67.357529 
	C76.102882,66.986008 78.177895,66.999092 79.964066,67.488464 
	C81.658569,67.952728 83.121201,69.263321 84.883781,70.464569 
z"/>
<path fill="#6A6A69" opacity="1.000000" stroke="none" 
	d="
M437.077209,135.724670 
	C443.929260,129.371338 446.796539,121.610741 446.065308,112.238792 
	C445.245850,101.736160 439.419128,93.654091 430.363464,91.427299 
	C437.526886,88.300087 442.709625,91.944397 447.712524,97.221169 
	C449.415314,101.555641 451.267456,105.651253 452.028259,109.940437 
	C452.665558,113.533150 452.028320,117.351952 451.788391,121.806374 
	C449.419891,129.856262 445.162048,134.901581 437.077209,135.724670 
z"/>
<path fill="#6A6A69" opacity="1.000000" stroke="none" 
	d="
M60.912895,75.955688 
	C64.574120,80.422340 68.235336,84.889000 72.093765,89.654762 
	C73.224243,93.022728 74.157509,96.091599 75.386627,99.391464 
	C75.157814,101.172318 74.633156,102.722160 74.121544,104.638672 
	C73.780373,112.184753 70.452408,117.291611 63.321953,120.002716 
	C66.113609,114.174614 68.836136,108.389381 68.138237,101.310165 
	C67.406548,93.888329 65.241776,87.204994 59.630775,82.363998 
	C56.932343,80.035866 52.959953,79.184319 49.323868,77.394211 
	C49.715332,76.753609 50.347401,76.382896 51.732742,75.998779 
	C55.294975,75.975479 58.103935,75.965584 60.912895,75.955688 
z"/>
<path fill="#6B6B6A" opacity="1.000000" stroke="none" 
	d="
M466.975037,129.572144 
	C477.748932,117.872917 477.694183,101.411041 466.569061,91.167526 
	C464.348480,89.122932 461.185516,88.101852 458.249878,86.335678 
	C465.655334,83.603516 470.583893,85.907471 477.503021,95.250435 
	C479.920013,102.201172 482.208313,108.918068 480.203217,116.923721 
	C478.277496,124.492554 474.052246,128.604553 466.975037,129.572144 
z"/>
<path fill="#6B6B6A" opacity="1.000000" stroke="none" 
	d="
M166.642944,69.152603 
	C166.688782,71.771362 166.734589,74.390114 166.590637,77.735687 
	C165.086319,85.041153 161.893372,90.033241 155.029877,91.925018 
	C156.176041,89.965912 157.422043,88.057739 158.451752,86.039215 
	C164.001251,75.160629 159.356186,61.198681 152.468613,54.380970 
	C150.019287,51.956482 145.749741,51.370888 141.868896,49.956558 
	C148.095947,46.289894 154.047302,47.809654 160.691788,55.041786 
	C162.319199,56.864265 163.680069,58.463753 165.441010,60.422638 
	C166.108368,63.572231 166.375656,66.362419 166.642944,69.152603 
z"/>
<path fill="#6B6B6A" opacity="1.000000" stroke="none" 
	d="
M497.416382,119.291679 
	C510.350922,106.699066 506.265533,84.583290 489.292725,78.377357 
	C494.851532,75.849068 499.552612,78.003014 503.541168,81.996002 
	C510.248657,88.710945 512.748169,102.345551 508.817291,110.977722 
	C506.710480,115.604263 503.180542,118.768082 497.416382,119.291679 
z"/>
<path fill="#6B6B6A" opacity="1.000000" stroke="none" 
	d="
M180.424957,81.390480 
	C193.153931,68.353302 189.632431,49.449387 172.248077,40.373352 
	C177.886581,38.109535 182.758926,40.234631 186.377548,44.478836 
	C193.494247,52.825890 195.363647,62.557583 191.666473,72.940086 
	C189.945892,77.771896 186.109726,80.711464 180.424957,81.390480 
z"/>
<path fill="#EFF2F2" opacity="1.000000" stroke="none" 
	d="
M294.960785,242.465790 
	C290.334106,241.966766 286.307648,241.804443 285.186829,248.167511 
	C285.002899,249.211716 281.146088,249.806564 278.915070,250.240540 
	C276.361755,250.737228 273.184204,249.025970 271.293701,252.779724 
	C271.128662,251.893768 270.809967,250.101761 271.407379,249.711258 
	C276.936310,246.097137 274.450165,240.543777 275.077942,235.272476 
	C281.090332,235.137177 287.063721,235.482376 293.438782,235.776062 
	C294.194305,237.843414 294.548157,239.962311 294.960785,242.465790 
z"/>
<path fill="#EFF2F2" opacity="1.000000" stroke="none" 
	d="
M645.927917,362.705872 
	C644.332825,362.837311 642.672241,362.246094 641.114197,362.447540 
	C639.718994,362.627899 637.401428,363.521179 637.269104,364.375488 
	C636.242004,371.004883 631.453735,370.363708 626.831604,370.210327 
	C626.175049,370.188507 625.520935,370.093292 624.408264,369.962402 
	C624.320801,365.159943 624.690735,360.427124 625.117188,355.203827 
	C631.136536,354.824799 637.099426,354.936218 643.529907,355.025482 
	C644.634033,357.444946 645.270569,359.886566 645.927917,362.705872 
z"/>
<path fill="#31302F" opacity="1.000000" stroke="none" 
	d="
M409.565308,187.365936 
	C409.565155,192.962845 409.205719,198.540817 408.692596,204.657288 
	C408.380859,205.539139 408.457153,205.809433 408.767792,206.006653 
	C408.755249,209.698700 408.742706,213.390762 408.581604,217.742554 
	C407.802399,218.889847 407.171692,219.377411 406.540985,219.864990 
	C401.898224,211.674622 398.555206,203.258179 401.949280,193.657745 
	C403.178894,190.179703 405.039276,187.440964 409.565308,187.365936 
z"/>
<path fill="#EFF2F2" opacity="1.000000" stroke="none" 
	d="
M562.917236,416.809204 
	C559.019043,415.116669 556.233337,415.570679 554.184265,420.007385 
	C553.532471,421.418640 551.074280,422.298401 549.270874,422.786804 
	C547.591309,423.241669 545.683044,422.852570 543.427856,422.895264 
	C542.658264,418.898621 542.336182,414.841766 542.027283,410.352020 
	C547.058960,409.608032 552.077515,409.296936 557.512695,408.932190 
	C557.904358,411.478607 558.029602,413.888550 561.541687,414.227051 
	C562.073242,414.278320 562.477478,415.651093 562.917236,416.809204 
z"/>
<path fill="#EFF2F2" opacity="1.000000" stroke="none" 
	d="
M212.840332,297.107910 
	C208.874908,295.153748 205.981415,295.214355 203.885025,300.123199 
	C201.852371,304.882812 197.309433,302.170929 193.390991,302.608521 
	C192.624649,298.708435 192.307419,294.821045 191.982651,290.501526 
	C196.715714,289.726715 201.456314,289.384064 206.642853,289.043213 
	C207.550003,290.691010 208.011215,292.336975 208.209976,293.046326 
	C210.131943,294.546265 211.513138,295.624146 212.840332,297.107910 
z"/>
<path fill="#818281" opacity="1.000000" stroke="none" 
	d="
M406.393982,220.212326 
	C407.171692,219.377411 407.802399,218.889847 408.591370,218.203217 
	C408.791718,220.134430 409.320587,222.396667 408.785492,224.370438 
	C407.110046,230.550232 407.936920,236.450821 409.974121,242.743530 
	C406.070099,240.028641 401.829315,237.200485 398.262115,233.688187 
	C395.329437,230.800568 396.214386,227.462448 399.745239,225.019531 
	C401.906464,223.524231 404.079315,222.045715 406.393982,220.212326 
z"/>
<path fill="#E4B493" opacity="1.000000" stroke="none" 
	d="
M417.455688,122.976952 
	C416.358307,118.680695 415.619141,114.331879 414.838196,109.582504 
	C415.688263,108.834938 416.580109,108.487923 417.829346,108.093178 
	C420.520508,108.022293 422.854309,107.999146 425.574524,107.974182 
	C425.972778,108.302299 425.958954,108.635475 426.000244,108.961662 
	C426.410370,112.199982 428.231354,116.341179 426.879150,118.437935 
	C425.310394,120.870483 420.958008,121.507805 417.455688,122.976952 
z"/>
<path fill="#E4B493" opacity="1.000000" stroke="none" 
	d="
M41.954674,109.933426 
	C40.077133,105.988365 38.556946,101.928619 36.951065,97.524246 
	C37.433868,96.857048 38.002365,96.534492 38.875641,96.090881 
	C41.559959,95.421478 43.939499,94.873123 46.649662,94.164215 
	C47.365002,95.538696 47.413723,97.276184 48.194759,98.572418 
	C51.018200,103.258331 50.732521,104.771942 46.046528,107.485168 
	C44.776936,108.220268 43.555538,109.038605 41.954674,109.933426 
z"/>
<path fill="#31302F" opacity="1.000000" stroke="none" 
	d="
M61.098137,75.683167 
	C58.103935,75.965584 55.294975,75.975479 52.005466,75.966217 
	C53.842384,67.678291 56.520405,66.347237 64.757645,69.752701 
	C63.789845,71.799240 62.536613,73.604950 61.098137,75.683167 
z"/>
<path fill="#DFAA87" opacity="1.000000" stroke="none" 
	d="
M426.996033,247.005005 
	C431.428497,250.193893 431.627136,254.527374 430.160278,259.637604 
	C429.393158,259.552002 428.777588,259.098969 428.028534,258.385437 
	C427.599640,254.692856 427.304230,251.260727 427.004395,247.414307 
	C427.000000,247.000000 426.996033,247.005005 426.996033,247.005005 
z"/>
<path fill="#EFF2F2" opacity="1.000000" stroke="none" 
	d="
M623.497437,369.958496 
	C623.081177,371.176270 622.283997,372.416443 621.270752,373.890137 
	C621.741943,372.742767 622.429138,371.361847 623.497437,369.958496 
z"/>
<path fill="#EFF2F2" opacity="1.000000" stroke="none" 
	d="
M648.905396,365.975128 
	C648.294434,365.756592 647.978760,365.377319 647.599487,364.758606 
	C648.090820,364.950897 648.645752,365.382629 648.905396,365.975128 
z"/>
<path fill="#EFF2F2" opacity="1.000000" stroke="none" 
	d="
M207.788544,278.000122 
	C208.338943,278.022614 208.681793,278.190765 209.168121,278.609131 
	C208.832184,278.906006 208.352753,278.952728 207.514297,279.014618 
	C207.297165,278.735107 207.439087,278.440460 207.788544,278.000122 
z"/>
<path fill="#EFF2F2" opacity="1.000000" stroke="none" 
	d="
M647.594666,364.118896 
	C647.126038,364.145142 646.668701,363.841431 646.065125,363.300049 
	C646.481262,363.304596 647.043579,363.546753 647.594666,364.118896 
z"/>
<path fill="#EFF2F2" opacity="1.000000" stroke="none" 
	d="
M191.691467,304.205627 
	C191.856720,304.405640 191.784241,304.804901 191.471313,305.402893 
	C191.305161,305.202728 191.379440,304.803772 191.691467,304.205627 
z"/>
<path fill="#FAFAFA" opacity="1.000000" stroke="none" 
	d="
M497.894165,303.646606 
	C494.664246,306.764099 491.458008,309.658325 488.010773,312.229492 
	C486.925903,313.038666 484.825073,313.713440 483.816895,313.205048 
	C475.109009,308.813995 466.544617,304.138397 456.823456,298.953461 
	C465.061066,294.912384 472.377960,291.322968 480.283234,287.487305 
	C484.891022,289.187439 488.910400,291.133820 492.929810,293.080200 
	C494.561462,296.486298 496.193085,299.892426 497.894165,303.646606 
z"/>
<path fill="#7D8080" opacity="1.000000" stroke="none" 
	d="
M492.965393,292.693604 
	C488.910400,291.133820 484.891022,289.187439 480.522339,287.237000 
	C475.368988,284.130127 470.641479,280.899841 465.742554,277.954773 
	C458.675568,273.706299 451.484100,269.664795 444.169189,265.239868 
	C454.393036,266.374725 464.790009,267.830658 475.196045,269.218170 
	C478.126892,269.608917 481.084473,269.799072 484.471863,270.124634 
	C487.609619,277.547699 490.305298,284.927368 492.965393,292.693604 
z"/>
<path fill="#FAFAFA" opacity="1.000000" stroke="none" 
	d="
M147.013428,184.599335 
	C145.801620,185.704819 144.628860,186.329636 143.634033,187.166107 
	C135.256729,194.210007 135.258224,194.237366 125.371315,189.015564 
	C119.375320,185.848770 113.409782,182.624268 106.625435,178.994995 
	C114.460464,175.004791 121.599289,171.369141 129.282898,167.430725 
	C134.155838,169.148621 138.483994,171.169281 142.812164,173.189926 
	C144.253082,176.865540 145.694016,180.541153 147.013428,184.599335 
z"/>
<path fill="#7D8080" opacity="1.000000" stroke="none" 
	d="
M142.846436,172.811127 
	C138.483994,171.169281 134.155838,169.148621 129.459412,167.135025 
	C125.821381,164.810776 122.686768,162.254456 119.254898,160.193024 
	C111.018250,155.245468 102.642044,150.530243 94.146286,145.439957 
	C104.222374,146.587006 114.476021,148.003235 124.725204,149.451080 
	C127.820885,149.888397 130.904175,150.413422 134.385162,150.894012 
	C137.478363,158.070602 140.179535,165.251450 142.846436,172.811127 
z"/>
<path fill="#EFF2F2" opacity="1.000000" stroke="none" 
	d="
M457.183502,278.500000 
	C451.546906,281.785278 445.966736,284.724731 439.880157,287.930939 
	C437.523407,284.465088 435.252167,281.124969 432.117035,276.514404 
	C441.298126,277.113647 449.269043,277.633911 457.183502,278.500000 
z"/>
<path fill="#EFF2F2" opacity="1.000000" stroke="none" 
	d="
M495.823669,322.191742 
	C497.441803,320.289581 498.902954,318.725098 500.638000,316.867371 
	C502.435150,318.392670 504.072540,319.732300 505.651733,321.137268 
	C507.127655,322.450348 508.541901,323.832794 510.405365,325.580597 
	C508.959167,327.217957 507.617035,328.737518 505.851929,330.735962 
	C502.255035,327.837860 498.960876,325.183655 495.823669,322.191742 
z"/>
<path fill="#EFF2F2" opacity="1.000000" stroke="none" 
	d="
M524.284668,343.634796 
	C521.341003,341.495819 518.668030,339.584564 515.677124,337.445923 
	C516.646423,335.931976 517.492188,334.610931 518.337219,333.291107 
	C526.882751,338.624298 530.954102,343.587616 528.970276,346.702637 
	C527.501709,345.757935 526.028503,344.810211 524.284668,343.634796 
z"/>
<path fill="#7D8080" opacity="1.000000" stroke="none" 
	d="
M443.228912,264.944885 
	C443.263763,264.819031 443.572571,264.727783 443.968292,264.808044 
	C443.871094,264.979584 443.687012,264.979523 443.228912,264.944885 
z"/>
<path fill="#EFF2F2" opacity="1.000000" stroke="none" 
	d="
M85.745468,162.397049 
	C84.504265,160.462601 83.470886,158.828033 81.968895,156.452240 
	C90.938332,156.926392 99.061813,157.355820 107.185295,157.785233 
	C107.232452,158.097870 107.279602,158.410507 107.326759,158.723129 
	C101.488457,161.691208 95.650162,164.659286 89.468933,167.801697 
	C88.168877,165.914001 87.061081,164.305466 85.745468,162.397049 
z"/>
<path fill="#EFF2F2" opacity="1.000000" stroke="none" 
	d="
M147.101822,200.202286 
	C148.335556,199.005310 149.289459,198.102829 150.529037,196.930054 
	C153.684021,199.730301 156.741196,202.443741 160.168686,205.485886 
	C158.606674,207.256393 157.245956,208.798737 155.723984,210.523849 
	C152.611267,208.339935 149.653793,206.517029 147.060974,204.272827 
	C146.392593,203.694305 146.870605,201.791321 147.101822,200.202286 
z"/>
<path fill="#EFF2F2" opacity="1.000000" stroke="none" 
	d="
M173.474060,217.455017 
	C175.466843,219.261826 177.341843,220.691711 178.851624,222.437469 
	C179.497482,223.184280 179.382385,224.589188 179.613052,225.695068 
	C178.594406,225.616455 177.339615,225.893234 176.596756,225.399582 
	C172.756973,222.847977 169.048187,220.099213 165.047577,217.243515 
	C166.317215,215.687515 167.330887,214.445251 168.472763,213.045853 
	C170.223557,214.583908 171.715973,215.894958 173.474060,217.455017 
z"/>
<path fill="#DFAA87" opacity="1.000000" stroke="none" 
	d="
M78.501991,145.124710 
	C77.387970,140.067123 76.669617,134.962738 75.974007,129.429626 
	C75.996742,129.000900 76.029495,128.963043 76.029495,128.963043 
	C80.036438,133.160934 81.926064,138.207962 82.056351,144.372086 
	C81.010406,144.878906 79.954033,144.978409 78.501991,145.124710 
z"/>
<path fill="#FAFAFA" opacity="1.000000" stroke="none" 
	d="
M154.646072,92.059914 
	C161.893372,90.033241 165.086319,85.041153 166.613083,78.173706 
	C168.729446,86.794273 169.120728,95.669586 166.084106,104.846634 
	C160.397812,101.287086 154.854568,97.351898 149.092285,93.143631 
	C150.669601,92.645317 152.465942,92.420067 154.646072,92.059914 
z"/>
<path fill="#FEFEFD" opacity="1.000000" stroke="none" 
	d="
M466.659119,129.716751 
	C474.052246,128.604553 478.277496,124.492554 480.175781,117.326096 
	C481.172943,118.486717 482.868042,120.042000 482.822906,121.544991 
	C482.509491,131.975464 481.755280,142.391861 481.328308,152.820358 
	C481.214447,155.601517 482.000153,158.414780 481.938110,161.203629 
	C481.705658,171.649109 481.420563,182.098038 480.811401,192.525589 
	C480.719452,194.099686 479.094147,195.978699 477.664734,196.993591 
	C475.114685,198.804108 472.172943,200.062897 469.254791,201.871887 
	C469.114594,202.191360 469.096802,202.130966 468.902527,202.104263 
	C468.394165,202.129318 468.143524,202.283875 467.956299,202.541229 
	C465.147614,203.274506 462.338959,204.007782 458.792664,204.871307 
	C451.579681,206.843216 446.192200,204.273941 443.948547,198.000870 
	C442.383606,193.625412 440.048096,190.370758 435.004364,190.013916 
	C433.686188,188.313843 431.531342,186.767365 431.186493,184.888611 
	C429.048553,173.242889 427.128418,161.548264 425.529388,149.816223 
	C424.710785,143.810104 424.708252,137.692719 424.602173,131.333649 
	C428.671478,132.678497 432.475494,134.315308 436.678345,135.838409 
	C445.162048,134.901581 449.419891,129.856262 451.791321,122.222015 
	C455.791077,126.297318 459.921448,130.149506 466.659119,129.716751 
z"/>
<path fill="#E6B899" opacity="1.000000" stroke="none" 
	d="
M434.959351,190.394745 
	C440.048096,190.370758 442.383606,193.625412 443.948547,198.000870 
	C446.192200,204.273941 451.579681,206.843216 458.432617,205.020432 
	C461.089783,205.944366 463.396423,206.787399 465.643005,207.768066 
	C469.672333,209.526947 470.403137,212.893967 466.737762,215.205307 
	C463.965149,216.953674 460.336884,217.936234 457.026001,218.120636 
	C449.406342,218.545044 441.747986,218.275223 433.658508,218.370987 
	C433.143005,211.059448 432.947235,203.661469 433.095215,196.270386 
	C433.132111,194.427383 434.278137,192.606583 434.959351,190.394745 
M436.776428,215.005402 
	C440.551910,212.935074 444.327423,210.864731 448.102936,208.794388 
	C447.806458,208.241013 447.510010,207.687637 447.213531,207.134262 
	C444.210571,208.314316 441.207611,209.494370 438.204681,210.674408 
	C438.493073,210.833038 438.781464,210.991669 439.069885,211.150284 
	C438.046997,212.433868 437.024109,213.717453 435.723816,215.108994 
	C435.815460,215.072250 435.907135,215.035507 436.776428,215.005402 
M451.586578,207.516907 
	C451.586578,207.516907 451.475128,207.582947 451.586578,207.516907 
z"/>
<path fill="#FBCBA8" opacity="1.000000" stroke="none" 
	d="
M468.194275,202.613617 
	C468.143524,202.283875 468.394165,202.129318 468.933411,202.099213 
	C469.069275,202.505478 468.827118,202.693863 468.194275,202.613617 
z"/>
<path fill="#E6B899" opacity="1.000000" stroke="none" 
	d="
M417.152649,196.365875 
	C419.671417,202.839508 419.567505,208.906433 416.772186,215.450836 
	C416.437500,208.199463 416.127747,201.488968 415.811218,194.631195 
	C416.196625,195.084122 416.599152,195.557175 417.152649,196.365875 
z"/>
<path fill="#818281" opacity="1.000000" stroke="none" 
	d="
M408.860474,205.761703 
	C408.457153,205.809433 408.380859,205.539139 408.670319,205.105560 
	C408.852173,205.182449 408.902649,205.349594 408.860474,205.761703 
z"/>
<path fill="#DFAA87" opacity="1.000000" stroke="none" 
	d="
M427.002533,246.997894 
	C426.875732,246.851379 426.746399,246.706955 426.617065,246.562546 
	C426.707947,246.612717 426.798828,246.662903 426.942871,246.859039 
	C426.996033,247.005005 427.000000,247.000000 427.002533,246.997894 
z"/>
<path fill="#FAFAFA" opacity="1.000000" stroke="none" 
	d="
M48.653923,117.877838 
	C51.388416,118.874573 53.759434,119.964981 56.465153,121.170189 
	C54.278820,125.965477 51.757782,130.645966 49.106407,135.661835 
	C48.976070,135.997208 48.968403,135.942429 48.968403,135.942429 
	C48.073460,130.628250 47.108929,125.323502 46.384254,119.986198 
	C46.306225,119.411507 47.621494,118.647629 48.653923,117.877838 
z"/>
<path fill="#E6B899" opacity="1.000000" stroke="none" 
	d="
M48.961571,135.967697 
	C49.962502,138.609680 51.169708,141.227493 51.936810,143.968475 
	C52.635998,146.466812 52.857811,149.098740 53.349754,152.027313 
	C63.813019,150.004501 67.679573,142.883011 69.360840,133.383728 
	C72.504997,139.244934 69.629585,143.561569 66.784943,147.559357 
	C63.748737,151.826385 59.363056,154.222290 53.937038,153.882019 
	C53.000134,153.823273 51.484756,152.858124 51.330292,152.091309 
	C50.298450,146.969009 49.563290,141.786957 48.850105,136.283356 
	C48.968403,135.942429 48.976070,135.997208 48.961571,135.967697 
z"/>
<path fill="#6A6A69" opacity="1.000000" stroke="none" 
	d="
M59.443855,120.935196 
	C59.923111,120.594543 60.748215,120.291992 61.928658,120.004242 
	C61.452568,120.337120 60.621140,120.655212 59.443855,120.935196 
z"/>
<path fill="#DFAA87" opacity="1.000000" stroke="none" 
	d="
M74.988991,128.014008 
	C74.864578,127.854141 74.740166,127.694275 74.615761,127.534401 
	C74.713303,127.584610 74.810837,127.634819 74.954231,127.842514 
	C75.000084,128.000000 74.988991,128.014008 74.988991,128.014008 
z"/>
<path fill="#DFAA87" opacity="1.000000" stroke="none" 
	d="
M75.977737,129.017181 
	C75.628220,128.941666 75.369980,128.751633 75.086502,128.238708 
	C74.988991,128.014008 75.000084,128.000000 75.007286,127.994247 
	C75.346664,128.069077 75.612480,128.248154 75.920715,128.744385 
	C76.029495,128.963043 75.996742,129.000900 75.977737,129.017181 
z"/>
<path fill="#DFAA87" opacity="1.000000" stroke="none" 
	d="
M489.006104,196.004791 
	C489.360138,193.572418 489.953583,191.146561 490.019806,188.706375 
	C490.172211,183.092316 490.068176,177.471283 490.068176,172.329681 
	C495.446136,176.318604 495.549042,187.319183 489.313507,195.844391 
	C489.000000,196.000000 489.006104,196.004791 489.006104,196.004791 
z"/>
<path fill="#CFCDCA" opacity="1.000000" stroke="none" 
	d="
M484.942230,97.587128 
	C486.047394,96.965912 487.204041,96.401421 488.303741,96.496384 
	C490.096802,96.651222 491.852661,97.236473 493.624237,97.640106 
	C492.977600,99.738235 492.330994,101.836365 491.293121,103.985123 
	C486.850311,104.022362 485.676697,101.207527 484.942230,97.587128 
z"/>
<path fill="#DFAA87" opacity="1.000000" stroke="none" 
	d="
M488.997803,195.997162 
	C488.903442,196.028900 488.811279,196.063492 488.862610,196.051422 
	C489.006104,196.004791 489.000000,196.000000 488.997803,195.997162 
z"/>
<path fill="#CFCDCA" opacity="1.000000" stroke="none" 
	d="
M393.167908,116.711639 
	C393.874268,117.483597 394.654907,118.077240 394.579987,118.529030 
	C394.257263,120.475281 393.889282,122.478195 393.052887,124.228813 
	C392.850311,124.652809 390.003876,124.590164 389.745300,124.069603 
	C388.865173,122.298157 388.054199,120.136269 388.343536,118.301086 
	C388.473938,117.473885 391.264740,117.066116 393.167908,116.711639 
z"/>
<path fill="#CFCDCA" opacity="1.000000" stroke="none" 
	d="
M19.861904,112.304031 
	C18.935982,114.328842 17.950392,115.978142 16.964802,117.627441 
	C15.395832,116.165932 13.151479,114.950722 12.496902,113.155762 
	C12.065284,111.972183 13.921196,109.954407 14.752848,108.310150 
	C16.435978,109.516273 18.119104,110.722389 19.861904,112.304031 
z"/>
<path fill="#CFCDCA" opacity="1.000000" stroke="none" 
	d="
M145.737762,75.456848 
	C145.093918,75.595192 144.700165,75.683571 144.463150,75.530029 
	C141.957199,73.906685 139.784195,71.926437 141.997620,68.828217 
	C142.626236,67.948318 145.250000,67.331490 145.969788,67.883530 
	C148.834702,70.080795 148.853973,72.784065 145.737762,75.456848 
z"/>
<path fill="#CFCDCA" opacity="1.000000" stroke="none" 
	d="
M457.662415,112.032135 
	C456.931549,111.103081 456.021240,110.301155 456.151337,109.740662 
	C456.588867,107.855232 457.396729,106.055756 458.062897,104.223389 
	C459.374878,105.427246 461.482269,106.441757 461.823822,107.876602 
	C462.427612,110.413048 461.663635,112.938812 457.662415,112.032135 
z"/>
<path fill="#DFAA87" opacity="1.000000" stroke="none" 
	d="
M101.216743,86.877983 
	C97.892662,89.233276 94.503853,91.608795 90.207336,94.620605 
	C89.662651,92.522202 89.164810,90.604248 88.666969,88.686295 
	C88.175453,89.353111 87.683937,90.019920 87.192421,90.686737 
	C91.583710,89.435814 95.974998,88.184898 100.768707,86.848961 
	C101.171120,86.763939 101.152016,86.898201 101.216743,86.877983 
z"/>
<path fill="#CFCDCA" opacity="1.000000" stroke="none" 
	d="
M167.009354,69.006958 
	C166.375656,66.362419 166.108368,63.572231 165.785706,60.394516 
	C167.341965,59.737347 169.087799,59.770641 170.534790,59.129463 
	C172.906754,58.078419 175.071243,57.462612 176.470367,60.224838 
	C177.789291,62.828751 177.116714,65.050003 174.146713,66.707962 
	C171.737106,67.611938 169.556427,68.236626 167.009354,69.006958 
z"/>
<path fill="#E6B899" opacity="1.000000" stroke="none" 
	d="
M178.968353,101.133728 
	C176.910965,97.984009 174.867386,94.505333 172.823822,91.026665 
	C173.534500,90.702477 174.245163,90.378296 174.955841,90.054108 
	C176.297943,93.637665 177.640060,97.221222 178.968353,101.133728 
z"/>
<path fill="#E6B899" opacity="1.000000" stroke="none" 
	d="
M172.467957,88.452988 
	C172.523483,88.419548 172.412445,88.486427 172.467957,88.452988 
z"/>
<path fill="#DFAA87" opacity="1.000000" stroke="none" 
	d="
M436.001221,215.001038 
	C437.024109,213.717453 438.046997,212.433868 439.069885,211.150284 
	C438.781464,210.991669 438.493073,210.833038 438.204681,210.674408 
	C441.207611,209.494370 444.210571,208.314316 447.213531,207.134262 
	C447.510010,207.687637 447.806458,208.241013 448.102936,208.794388 
	C444.327423,210.864731 440.551910,212.935074 436.388214,215.002701 
	C436.000000,215.000000 436.001221,215.001038 436.001221,215.001038 
z"/>
<path fill="#DFAA87" opacity="1.000000" stroke="none" 
	d="
M451.530853,207.549927 
	C451.475128,207.582947 451.586578,207.516907 451.530853,207.549927 
z"/>
<path fill="#DFAA87" opacity="1.000000" stroke="none" 
	d="
M435.999390,214.999390 
	C435.907135,215.035507 435.815460,215.072250 435.862518,215.055023 
	C436.001221,215.001038 436.000000,215.000000 435.999390,214.999390 
z"/>
</svg>