<svg width="375" height="350" viewBox="0 0 375 350" fill="none" xmlns="http://www.w3.org/2000/svg">
<path fill-rule="evenodd" clip-rule="evenodd" d="M186.418 337.733C168.057 334.451 152.191 323.255 133.64 321.323C104.431 318.283 61.6928 348.531 46.667 323.185C30.2989 295.575 89.2261 266.471 82.4976 235.055C75.9011 204.254 18.2844 202.988 14.2336 171.747C10.8809 145.889 44.3622 128.313 67.0038 115.561C87.2949 104.133 111.654 104.26 134.911 103.782C152.574 103.419 169.117 116.701 186.418 113.106C209.893 108.227 225.354 79.7067 249.324 80.0023C272.009 80.282 306.755 91.8041 307.04 114.593C307.461 148.173 238.678 165.165 250.784 196.469C265.667 234.956 339.169 215.256 359.781 250.977C373.031 273.939 342.4 303.001 321.953 319.808C302.064 336.155 274.567 338.591 249.089 341.961C228.067 344.742 207.293 341.465 186.418 337.733Z" fill="url(#paint0_linear_255_4390)"/>
<mask id="mask0_255_4390" style="mask-type:alpha" maskUnits="userSpaceOnUse" x="0" y="0" width="375" height="350">
<rect width="375" height="350" rx="30" fill="#C4C4C4"/>
</mask>
<g mask="url(#mask0_255_4390)">
<path d="M203.087 105.783C203.087 105.783 220.81 110.14 227.827 118.549C234.843 126.957 232.431 148.629 230.602 161.105C228.773 173.581 223.869 182.6 229.672 186.957C235.474 191.314 237.555 187.278 237.555 187.278C237.555 187.278 229.672 200.976 221.362 202.857C213.052 204.738 201.494 194.127 199.665 184.786C197.836 175.446 196.606 161.41 198.088 151.748C199.571 142.086 202.472 138.806 203.938 132.262C205.405 125.719 204.238 114.819 204.238 114.819L203.087 105.783Z" fill="#3B2645"/>
<path d="M177.417 342.134C212.861 342.134 241.593 317.581 241.593 287.295C241.593 257.008 212.861 232.455 177.417 232.455C141.974 232.455 113.242 257.008 113.242 287.295C113.242 317.581 141.974 342.134 177.417 342.134Z" fill="#AB8DA8"/>
<path d="M122.987 158.34L121.584 157.391L115.04 147.391L120.275 136.62L132.038 135.832L133.441 136.797L122.987 158.34Z" fill="#393762"/>
<path d="M134.749 157.568L122.986 158.34L116.443 148.34L121.662 137.568L133.44 136.796L139.968 146.796L134.749 157.568Z" fill="#636183"/>
<path d="M163.069 153.79C160.128 157.098 157.616 160.778 155.595 164.739C151.621 172.134 141.577 182.423 139.717 184.514C138.84 185.637 137.717 186.535 136.437 187.134C134.665 181.845 133.264 176.435 132.243 170.944C131.312 164.514 129.909 151.877 129.909 151.877L133.646 144.256C133.646 144.256 130.603 138.051 129.436 137.6C128.269 137.15 125.936 137.825 122.435 140.928C118.935 144.031 117.516 147.118 119.155 150.912C120.795 154.706 124.296 158.533 123.886 164.723C123.476 170.912 123.665 192.6 125.762 199.739C127.859 206.877 127.639 206.893 130.493 206.893C133.347 206.893 141.53 203.308 150.124 198.854C155.157 196.291 159.429 192.406 162.501 187.6L163.069 153.79Z" fill="#FFEDE5"/>
<path d="M180.823 149.99C176.902 149.31 172.891 149.387 168.997 150.215C163.195 151.646 160.183 155.424 159.016 162.289C157.849 169.154 153.687 177.675 156.478 184.106C159.268 190.536 161.807 195.472 162.044 200.665C162.157 205.622 161.93 210.58 161.366 215.504C160.904 216.488 160.378 217.439 159.789 218.35C159.789 218.35 159.316 222.128 147.711 218.816C136.105 215.504 121.268 216.453 105.957 220.006C90.6466 223.559 82.5262 226.437 81.8324 231.598C81.1386 236.758 81.1386 268.961 82.5262 278.43C83.3065 284.806 83.1524 291.265 82.0689 297.594C78.2234 300.323 74.0998 302.619 69.7699 304.443C63.2736 307.048 59.5681 308.462 60.7192 310.874C61.8702 313.286 66.2852 313.72 71.8513 313.72C77.4174 313.72 85.0806 313.253 85.0806 313.253C85.0806 313.253 78.1269 317.739 73.4754 320.81C68.8239 323.88 64.4404 324.604 66.5218 327.916C68.6031 331.228 88.5968 330.279 93.4375 330.279C98.2783 330.279 103.876 328.382 104.333 326.26C104.79 324.138 102.946 316.79 102.946 313.961C102.946 311.131 102.252 298.575 105.027 292.9C107.802 287.225 111.996 270.665 111.76 264.282C111.523 257.9 111.066 253.88 111.066 253.88C111.066 253.88 137.714 257.61 148.121 261.389C158.527 265.167 181.753 268.253 192.665 262.819C203.576 257.385 207.975 250.745 206.351 241.292C204.727 231.839 200.312 225.681 201.479 214.556C202.646 203.43 202.63 192.562 205.421 187.128C208.212 181.694 214.472 171.983 213.999 165.601C213.526 159.218 201.936 152.739 196.134 150.456C190.331 148.173 180.823 149.99 180.823 149.99Z" fill="#FFEDE5"/>
<path d="M81.7695 232.166C81.0757 237.359 81.0757 269.53 82.4633 278.999C83.2437 285.375 83.0896 291.834 82.006 298.163C78.1606 300.892 74.0369 303.188 69.7071 305.012C63.2107 307.616 59.5053 309.031 60.6563 311.443C61.8074 313.854 66.2224 314.288 71.7884 314.288C76.5188 314.288 82.7156 313.951 84.4974 313.838C85.6169 313.469 87.8086 312.681 87.8086 312.231C87.8086 311.78 89.6535 294.546 89.89 277.922C90.1265 261.298 91.9871 242.102 91.9871 242.102L89.9057 233.581C87.9961 231.752 85.939 230.091 83.7563 228.613C82.6953 229.515 81.9897 230.776 81.7695 232.166Z" fill="#FFEDE5"/>
<path d="M87.3356 305.961C87.3356 305.961 86.6418 304.353 85.475 301.234C85.2695 300.424 84.8279 299.697 84.2085 299.149C83.5891 298.601 82.8211 298.257 82.006 298.163C78.1606 300.892 74.0369 303.188 69.7071 305.012C63.2107 307.616 59.5053 309.031 60.6563 311.443C61.8074 313.854 66.2224 314.288 71.7884 314.288C76.5188 314.288 82.7156 313.951 84.4973 313.838C85.6169 313.469 87.8086 312.681 87.8086 312.231C87.8086 311.973 88.0294 309.658 88.3447 306.073L87.3356 305.961Z" fill="#3B2645"/>
<path d="M176.882 226.716C170.906 223.509 165.704 218.99 161.65 213.484C161.524 214.883 161.413 215.864 161.35 216.073C160.889 217.057 160.362 218.008 159.773 218.918C159.773 218.918 159.3 222.697 147.695 219.385C136.09 216.073 121.252 217.021 105.942 220.574C90.6311 224.127 82.5107 227.005 81.8169 232.166C81.8169 232.407 81.8169 232.713 81.7223 233.066C82.6155 234.394 83.5788 235.671 84.6078 236.893C86.628 239.201 89.1573 240.986 91.9872 242.102C92.6967 245.414 97.096 255.816 103.592 255.816C110.089 255.816 111.019 254.401 111.019 254.401C111.019 254.401 137.714 258.179 148.121 261.957C158.528 265.735 181.754 268.822 192.665 263.388C203.577 257.954 207.976 251.314 206.352 241.861C205.63 238.229 204.666 234.651 203.466 231.153C196.402 231.539 185.018 231.298 176.882 226.716Z" fill="#3B2645"/>
<path d="M161.365 216.073C160.904 217.057 160.377 218.008 159.789 218.919C159.789 218.919 159.316 222.697 147.71 219.385C136.105 216.073 121.268 217.022 105.957 220.575C90.6465 224.128 82.526 227.006 81.8322 232.166C81.6903 233.211 81.5799 235.382 81.5011 238.163C84.5517 240.478 88.1926 241.845 91.9867 242.102C93.6465 239.18 96.0417 236.763 98.9247 235.101C101.808 233.439 105.074 232.592 108.385 232.649C120.117 232.649 169.707 233.581 169.707 233.581L176.329 218.195C176.329 218.195 168.445 212.52 161.965 208.822C161.76 212.456 161.476 215.671 161.365 216.073Z" fill="#3B2645"/>
<path d="M201.573 217.311C202.173 214.69 213.999 200.832 215.181 196.009C216.364 191.186 220.7 176.507 216.758 168.067C212.816 159.626 207.881 157.616 207.881 157.616C204.259 154.902 200.317 152.661 196.149 150.944C190.362 148.581 180.839 150.478 180.839 150.478C176.918 149.799 172.906 149.875 169.013 150.703C163.21 152.134 160.198 155.912 159.032 162.777C157.865 169.642 153.686 178.243 156.477 184.674C159.268 191.105 161.807 196.041 162.043 201.234C162.157 206.19 161.93 211.149 161.365 216.073C160.904 217.057 160.377 218.008 159.789 218.919V219.015C161.507 222.633 165.449 230.269 169.785 233.581C173.856 233.708 177.77 235.207 180.917 237.842C185.648 242.102 191.372 243.034 197.631 243.034C200.602 242.913 203.542 242.372 206.367 241.427C204.79 233.002 201.148 227.134 201.4 217.842C201.492 217.678 201.551 217.498 201.573 217.311Z" fill="#AB8DA8"/>
<path d="M199.051 136.266C199.051 136.266 204.869 127.15 205.799 119.353C206.73 111.555 205.342 104.288 196.985 99.7226C188.628 95.1566 176.329 99.7226 172.624 104.288C168.918 108.854 169.376 117.536 168.445 119.433C167.515 121.33 163.336 124.401 163.81 125.591C164.283 126.78 167.294 128.404 167.294 128.404L168.871 135.735C169.328 137.874 170.716 140.703 172.34 140.703C174.547 140.469 176.738 140.093 178.899 139.578C178.899 139.578 179.357 146.973 177.985 149.948C176.14 153.967 166.632 178.05 170.81 180.494C174.989 182.938 192.665 164.031 197.758 160.012C202.851 155.993 196.181 151.025 196.181 151.025C196.181 151.025 193.895 150.928 194.825 145.012C195.233 141.696 196.721 138.616 199.051 136.266Z" fill="#FFEDE5"/>
<path d="M93.3745 330.8C98.2468 330.8 103.813 328.903 104.27 326.781C104.649 325.076 103.545 320.076 103.072 316.668C102.111 317.019 101.109 317.235 100.092 317.311C97.6018 317.398 95.1114 317.16 92.6807 316.604C92.6257 315.624 92.3903 314.665 91.9869 313.774C91.2931 312.166 87.8242 312.166 87.8242 312.166L83.9926 313.871H85.0333C85.0333 313.871 78.0796 318.356 73.4281 321.427C68.7766 324.498 64.3931 325.221 66.4745 328.533C68.5558 331.845 88.5022 330.8 93.3745 330.8Z" fill="#3B2645"/>
<path d="M208.796 120.993C209.71 113.195 205.342 104.288 196.985 99.7226C190 95.9605 180.287 98.5007 175.084 102.054C176.124 102.246 177.06 102.817 177.717 103.661C181.076 107.407 179.294 114.256 182.306 117.375C185.317 120.494 186.878 119.562 186.878 119.562C186.878 119.562 190.253 113.951 191.766 119.562C193.28 125.173 191.167 127.6 189.638 128.276C188.549 128.693 187.425 129.005 186.279 129.208C186.279 129.208 194.478 136.587 199.051 136.33C199.051 136.266 207.865 128.806 208.796 120.993Z" fill="#3B2645"/>
<path d="M127.008 161.716L125.62 160.751L119.076 150.751L124.296 139.98L136.058 139.208L137.462 140.156L127.008 161.716Z" fill="#393762"/>
<path d="M138.786 160.928L127.007 161.716L120.479 151.7L125.698 140.928L137.461 140.156L144.005 150.156L138.786 160.928Z" fill="#636183"/>
<path d="M220.637 251.314C218.998 247.381 218.048 243.186 217.83 238.918C217.83 234.562 212.926 223.324 212.926 220.832C213.59 211.042 214.769 201.296 216.458 191.636C219.139 182.439 218.918 172.488 216.758 168.066C214.597 163.645 205.909 164.449 203.544 171.684C201.179 178.918 201.321 192.954 201.321 192.954C200.532 199.256 199.996 213.308 199.744 221.748C199.571 229.256 201.132 236.828 204.664 242.23C209.662 249.883 212.027 259.915 213.557 259.915C215.086 259.915 223.191 258.886 223.191 258.886C223.191 258.886 223.617 258.034 220.637 251.314Z" fill="#FFEDE5"/>
<path d="M225.005 267.086C225.005 267.086 226.582 258.372 226.235 256.491C225.888 254.61 220.732 255.88 218.588 255.88C216.443 255.88 214.93 255.559 215.229 256.813C215.529 258.067 219.818 258.42 219.818 258.42L221.394 259.031L225.005 267.086Z" fill="#FFEDE5"/>
<path d="M235.49 260.912H204.017V265.269H235.49V260.912Z" fill="#636183"/>
<path d="M247.095 251.266H233.346V274.32H247.095V251.266Z" fill="#636183"/>
<path d="M204.617 251.266H190.867V274.32H204.617V251.266Z" fill="#636183"/>
<path d="M209.82 257.487L211.539 266.04C211.652 266.612 211.962 267.123 212.414 267.48C212.865 267.837 213.428 268.017 213.999 267.986C216.143 267.857 219.47 267.664 221.425 267.455C224.484 267.15 225.399 268.082 225.714 265.848C225.856 264.722 226.093 262.632 226.298 260.864C226.338 260.476 226.297 260.085 226.177 259.715C226.056 259.346 225.859 259.007 225.599 258.722C225.339 258.437 225.021 258.212 224.669 258.063C224.316 257.914 223.936 257.843 223.554 257.857C221.173 257.857 218.177 258.05 217.452 258.05C216.238 258.114 212.264 254.69 209.82 257.487Z" fill="#FFEDE5"/>
</g>
<defs>
<linearGradient id="paint0_linear_255_4390" x1="14" y1="80" x2="477.048" y2="127.548" gradientUnits="userSpaceOnUse">
<stop stop-color="#92A3FD"/>
<stop offset="1" stop-color="#9DCEFF"/>
</linearGradient>
</defs>
</svg>
