<svg width="375" height="370" viewBox="0 0 375 370" fill="none" xmlns="http://www.w3.org/2000/svg">
<rect width="376" height="370" transform="matrix(1 0 0 -1 0 370)" fill="url(#paint0_linear_1521_1802)"/>
<path d="M61.863 235.883C61.863 237.217 61.403 238.329 60.483 239.218C59.5784 240.092 58.1907 240.529 56.32 240.529H53.238V247.222H51.145V231.191H56.32C58.1294 231.191 59.5017 231.628 60.437 232.502C61.3877 233.376 61.863 234.503 61.863 235.883ZM56.32 238.804C57.4854 238.804 58.344 238.551 58.896 238.045C59.448 237.539 59.724 236.819 59.724 235.883C59.724 233.905 58.5894 232.916 56.32 232.916H53.238V238.804H56.32ZM63.6824 240.874C63.6824 239.586 63.943 238.459 64.4644 237.493C64.9857 236.512 65.6987 235.753 66.6034 235.216C67.5234 234.68 68.543 234.411 69.6624 234.411C70.7664 234.411 71.7247 234.649 72.5374 235.124C73.35 235.6 73.9557 236.198 74.3544 236.918V234.618H76.4704V247.222H74.3544V244.876C73.9404 245.612 73.3194 246.226 72.4914 246.716C71.6787 247.192 70.728 247.429 69.6394 247.429C68.52 247.429 67.508 247.153 66.6034 246.601C65.6987 246.049 64.9857 245.275 64.4644 244.278C63.943 243.282 63.6824 242.147 63.6824 240.874ZM74.3544 240.897C74.3544 239.947 74.1627 239.119 73.7794 238.413C73.396 237.708 72.8747 237.171 72.2154 236.803C71.5714 236.42 70.8584 236.228 70.0764 236.228C69.2944 236.228 68.5814 236.412 67.9374 236.78C67.2934 237.148 66.7797 237.685 66.3964 238.39C66.013 239.096 65.8214 239.924 65.8214 240.874C65.8214 241.84 66.013 242.684 66.3964 243.404C66.7797 244.11 67.2934 244.654 67.9374 245.037C68.5814 245.405 69.2944 245.589 70.0764 245.589C70.8584 245.589 71.5714 245.405 72.2154 245.037C72.8747 244.654 73.396 244.11 73.7794 243.404C74.1627 242.684 74.3544 241.848 74.3544 240.897ZM84.4693 247.429C83.5033 247.429 82.637 247.268 81.8703 246.946C81.1037 246.609 80.498 246.149 80.0533 245.566C79.6087 244.968 79.3633 244.286 79.3173 243.519H81.4793C81.5407 244.148 81.832 244.662 82.3533 245.06C82.89 245.459 83.5877 245.658 84.4463 245.658C85.2437 245.658 85.8723 245.482 86.3323 245.129C86.7923 244.777 87.0223 244.332 87.0223 243.795C87.0223 243.243 86.777 242.837 86.2863 242.576C85.7957 242.3 85.0367 242.032 84.0093 241.771C83.074 241.526 82.3073 241.281 81.7093 241.035C81.1267 240.775 80.6207 240.399 80.1913 239.908C79.7773 239.402 79.5703 238.743 79.5703 237.93C79.5703 237.286 79.762 236.696 80.1453 236.159C80.5287 235.623 81.073 235.201 81.7783 234.894C82.4837 234.572 83.2887 234.411 84.1933 234.411C85.5887 234.411 86.7157 234.764 87.5743 235.469C88.433 236.175 88.893 237.141 88.9543 238.367H86.8613C86.8153 237.708 86.547 237.179 86.0563 236.78C85.581 236.382 84.937 236.182 84.1243 236.182C83.373 236.182 82.775 236.343 82.3303 236.665C81.8857 236.987 81.6633 237.409 81.6633 237.93C81.6633 238.344 81.7937 238.689 82.0543 238.965C82.3303 239.226 82.6677 239.441 83.0663 239.609C83.4803 239.763 84.0477 239.939 84.7683 240.138C85.673 240.384 86.409 240.629 86.9763 240.874C87.5437 241.104 88.0267 241.457 88.4253 241.932C88.8393 242.408 89.054 243.029 89.0693 243.795C89.0693 244.485 88.8777 245.106 88.4943 245.658C88.111 246.21 87.5667 246.647 86.8613 246.969C86.1713 247.276 85.374 247.429 84.4693 247.429ZM96.4859 247.429C95.5199 247.429 94.6536 247.268 93.8869 246.946C93.1203 246.609 92.5146 246.149 92.0699 245.566C91.6253 244.968 91.3799 244.286 91.3339 243.519H93.4959C93.5573 244.148 93.8486 244.662 94.3699 245.06C94.9066 245.459 95.6043 245.658 96.4629 245.658C97.2603 245.658 97.8889 245.482 98.3489 245.129C98.8089 244.777 99.0389 244.332 99.0389 243.795C99.0389 243.243 98.7936 242.837 98.3029 242.576C97.8123 242.3 97.0533 242.032 96.0259 241.771C95.0906 241.526 94.3239 241.281 93.7259 241.035C93.1433 240.775 92.6373 240.399 92.2079 239.908C91.7939 239.402 91.5869 238.743 91.5869 237.93C91.5869 237.286 91.7786 236.696 92.1619 236.159C92.5453 235.623 93.0896 235.201 93.7949 234.894C94.5003 234.572 95.3053 234.411 96.2099 234.411C97.6053 234.411 98.7323 234.764 99.5909 235.469C100.45 236.175 100.91 237.141 100.971 238.367H98.8779C98.8319 237.708 98.5636 237.179 98.0729 236.78C97.5976 236.382 96.9536 236.182 96.1409 236.182C95.3896 236.182 94.7916 236.343 94.3469 236.665C93.9023 236.987 93.6799 237.409 93.6799 237.93C93.6799 238.344 93.8103 238.689 94.0709 238.965C94.3469 239.226 94.6843 239.441 95.0829 239.609C95.4969 239.763 96.0643 239.939 96.7849 240.138C97.6896 240.384 98.4256 240.629 98.9929 240.874C99.5603 241.104 100.043 241.457 100.442 241.932C100.856 242.408 101.071 243.029 101.086 243.795C101.086 244.485 100.894 245.106 100.511 245.658C100.128 246.21 99.5833 246.647 98.8779 246.969C98.1879 247.276 97.3906 247.429 96.4859 247.429ZM120.831 234.618L116.898 247.222H114.736L111.7 237.217L108.664 247.222H106.502L102.546 234.618H104.685L107.583 245.198L110.711 234.618H112.85L115.909 245.221L118.761 234.618H120.831ZM128.405 247.429C127.224 247.429 126.151 247.161 125.185 246.624C124.234 246.088 123.483 245.329 122.931 244.347C122.394 243.351 122.126 242.201 122.126 240.897C122.126 239.609 122.402 238.475 122.954 237.493C123.521 236.497 124.288 235.738 125.254 235.216C126.22 234.68 127.301 234.411 128.497 234.411C129.693 234.411 130.774 234.68 131.74 235.216C132.706 235.738 133.465 236.489 134.017 237.47C134.584 238.452 134.868 239.594 134.868 240.897C134.868 242.201 134.576 243.351 133.994 244.347C133.426 245.329 132.652 246.088 131.671 246.624C130.689 247.161 129.601 247.429 128.405 247.429ZM128.405 245.589C129.156 245.589 129.861 245.413 130.521 245.06C131.18 244.708 131.709 244.179 132.108 243.473C132.522 242.768 132.729 241.909 132.729 240.897C132.729 239.885 132.529 239.027 132.131 238.321C131.732 237.616 131.211 237.095 130.567 236.757C129.923 236.405 129.225 236.228 128.474 236.228C127.707 236.228 127.002 236.405 126.358 236.757C125.729 237.095 125.223 237.616 124.84 238.321C124.456 239.027 124.265 239.885 124.265 240.897C124.265 241.925 124.449 242.791 124.817 243.496C125.2 244.202 125.706 244.731 126.335 245.083C126.963 245.421 127.653 245.589 128.405 245.589ZM139.713 236.665C140.081 235.945 140.602 235.385 141.277 234.986C141.967 234.588 142.802 234.388 143.784 234.388V236.55H143.232C140.886 236.55 139.713 237.823 139.713 240.368V247.222H137.62V234.618H139.713V236.665ZM145.418 240.874C145.418 239.586 145.678 238.459 146.2 237.493C146.721 236.512 147.434 235.753 148.339 235.216C149.259 234.68 150.286 234.411 151.421 234.411C152.402 234.411 153.314 234.641 154.158 235.101C155.001 235.546 155.645 236.136 156.09 236.872V230.202H158.206V247.222H156.09V244.853C155.676 245.605 155.062 246.226 154.25 246.716C153.437 247.192 152.486 247.429 151.398 247.429C150.278 247.429 149.259 247.153 148.339 246.601C147.434 246.049 146.721 245.275 146.2 244.278C145.678 243.282 145.418 242.147 145.418 240.874ZM156.09 240.897C156.09 239.947 155.898 239.119 155.515 238.413C155.131 237.708 154.61 237.171 153.951 236.803C153.307 236.42 152.594 236.228 151.812 236.228C151.03 236.228 150.317 236.412 149.673 236.78C149.029 237.148 148.515 237.685 148.132 238.39C147.748 239.096 147.557 239.924 147.557 240.874C147.557 241.84 147.748 242.684 148.132 243.404C148.515 244.11 149.029 244.654 149.673 245.037C150.317 245.405 151.03 245.589 151.812 245.589C152.594 245.589 153.307 245.405 153.951 245.037C154.61 244.654 155.131 244.11 155.515 243.404C155.898 242.684 156.09 241.848 156.09 240.897ZM169.968 236.665C170.336 235.945 170.857 235.385 171.532 234.986C172.222 234.588 173.057 234.388 174.039 234.388V236.55H173.487C171.141 236.55 169.968 237.823 169.968 240.368V247.222H167.875V234.618H169.968V236.665ZM187.955 240.437C187.955 240.836 187.932 241.258 187.886 241.702H177.812C177.888 242.944 178.31 243.918 179.077 244.623C179.859 245.313 180.802 245.658 181.906 245.658C182.81 245.658 183.562 245.451 184.16 245.037C184.773 244.608 185.202 244.041 185.448 243.335H187.702C187.364 244.547 186.69 245.536 185.678 246.302C184.666 247.054 183.408 247.429 181.906 247.429C180.71 247.429 179.636 247.161 178.686 246.624C177.75 246.088 177.014 245.329 176.478 244.347C175.941 243.351 175.673 242.201 175.673 240.897C175.673 239.594 175.933 238.452 176.455 237.47C176.976 236.489 177.704 235.738 178.64 235.216C179.59 234.68 180.679 234.411 181.906 234.411C183.102 234.411 184.16 234.672 185.08 235.193C186 235.715 186.705 236.435 187.196 237.355C187.702 238.26 187.955 239.287 187.955 240.437ZM185.793 240C185.793 239.203 185.616 238.521 185.264 237.953C184.911 237.371 184.428 236.934 183.815 236.642C183.217 236.336 182.55 236.182 181.814 236.182C180.756 236.182 179.851 236.52 179.1 237.194C178.364 237.869 177.942 238.804 177.835 240H185.793ZM195.179 247.429C194.213 247.429 193.347 247.268 192.58 246.946C191.814 246.609 191.208 246.149 190.763 245.566C190.319 244.968 190.073 244.286 190.027 243.519H192.189C192.251 244.148 192.542 244.662 193.063 245.06C193.6 245.459 194.298 245.658 195.156 245.658C195.954 245.658 196.582 245.482 197.042 245.129C197.502 244.777 197.732 244.332 197.732 243.795C197.732 243.243 197.487 242.837 196.996 242.576C196.506 242.3 195.747 242.032 194.719 241.771C193.784 241.526 193.017 241.281 192.419 241.035C191.837 240.775 191.331 240.399 190.901 239.908C190.487 239.402 190.28 238.743 190.28 237.93C190.28 237.286 190.472 236.696 190.855 236.159C191.239 235.623 191.783 235.201 192.488 234.894C193.194 234.572 193.999 234.411 194.903 234.411C196.299 234.411 197.426 234.764 198.284 235.469C199.143 236.175 199.603 237.141 199.664 238.367H197.571C197.525 237.708 197.257 237.179 196.766 236.78C196.291 236.382 195.647 236.182 194.834 236.182C194.083 236.182 193.485 236.343 193.04 236.665C192.596 236.987 192.373 237.409 192.373 237.93C192.373 238.344 192.504 238.689 192.764 238.965C193.04 239.226 193.378 239.441 193.776 239.609C194.19 239.763 194.758 239.939 195.478 240.138C196.383 240.384 197.119 240.629 197.686 240.874C198.254 241.104 198.737 241.457 199.135 241.932C199.549 242.408 199.764 243.029 199.779 243.795C199.779 244.485 199.588 245.106 199.204 245.658C198.821 246.21 198.277 246.647 197.571 246.969C196.881 247.276 196.084 247.429 195.179 247.429ZM214.234 240.437C214.234 240.836 214.211 241.258 214.165 241.702H204.091C204.168 242.944 204.589 243.918 205.356 244.623C206.138 245.313 207.081 245.658 208.185 245.658C209.09 245.658 209.841 245.451 210.439 245.037C211.052 244.608 211.482 244.041 211.727 243.335H213.981C213.644 244.547 212.969 245.536 211.957 246.302C210.945 247.054 209.688 247.429 208.185 247.429C206.989 247.429 205.916 247.161 204.965 246.624C204.03 246.088 203.294 245.329 202.757 244.347C202.22 243.351 201.952 242.201 201.952 240.897C201.952 239.594 202.213 238.452 202.734 237.47C203.255 236.489 203.984 235.738 204.919 235.216C205.87 234.68 206.958 234.411 208.185 234.411C209.381 234.411 210.439 234.672 211.359 235.193C212.279 235.715 212.984 236.435 213.475 237.355C213.981 238.26 214.234 239.287 214.234 240.437ZM212.072 240C212.072 239.203 211.896 238.521 211.543 237.953C211.19 237.371 210.707 236.934 210.094 236.642C209.496 236.336 208.829 236.182 208.093 236.182C207.035 236.182 206.13 236.52 205.379 237.194C204.643 237.869 204.221 238.804 204.114 240H212.072ZM219.55 236.343V243.772C219.55 244.386 219.68 244.823 219.941 245.083C220.201 245.329 220.654 245.451 221.298 245.451H222.839V247.222H220.953C219.787 247.222 218.913 246.954 218.331 246.417C217.748 245.881 217.457 244.999 217.457 243.772V236.343H215.824V234.618H217.457V231.444H219.55V234.618H222.839V236.343H219.55ZM235.968 247.429C235.002 247.429 234.136 247.268 233.369 246.946C232.603 246.609 231.997 246.149 231.552 245.566C231.108 244.968 230.862 244.286 230.816 243.519H232.978C233.04 244.148 233.331 244.662 233.852 245.06C234.389 245.459 235.087 245.658 235.945 245.658C236.743 245.658 237.371 245.482 237.831 245.129C238.291 244.777 238.521 244.332 238.521 243.795C238.521 243.243 238.276 242.837 237.785 242.576C237.295 242.3 236.536 242.032 235.508 241.771C234.573 241.526 233.806 241.281 233.208 241.035C232.626 240.775 232.12 240.399 231.69 239.908C231.276 239.402 231.069 238.743 231.069 237.93C231.069 237.286 231.261 236.696 231.644 236.159C232.028 235.623 232.572 235.201 233.277 234.894C233.983 234.572 234.788 234.411 235.692 234.411C237.088 234.411 238.215 234.764 239.073 235.469C239.932 236.175 240.392 237.141 240.453 238.367H238.36C238.314 237.708 238.046 237.179 237.555 236.78C237.08 236.382 236.436 236.182 235.623 236.182C234.872 236.182 234.274 236.343 233.829 236.665C233.385 236.987 233.162 237.409 233.162 237.93C233.162 238.344 233.293 238.689 233.553 238.965C233.829 239.226 234.167 239.441 234.565 239.609C234.979 239.763 235.547 239.939 236.267 240.138C237.172 240.384 237.908 240.629 238.475 240.874C239.043 241.104 239.526 241.457 239.924 241.932C240.338 242.408 240.553 243.029 240.568 243.795C240.568 244.485 240.377 245.106 239.993 245.658C239.61 246.21 239.066 246.647 238.36 246.969C237.67 247.276 236.873 247.429 235.968 247.429ZM254.701 234.618V247.222H252.608V245.359C252.209 246.003 251.65 246.509 250.929 246.877C250.224 247.23 249.442 247.406 248.583 247.406C247.602 247.406 246.72 247.207 245.938 246.808C245.156 246.394 244.535 245.781 244.075 244.968C243.63 244.156 243.408 243.167 243.408 242.001V234.618H245.478V241.725C245.478 242.967 245.792 243.926 246.421 244.6C247.05 245.26 247.908 245.589 248.997 245.589C250.116 245.589 250.998 245.244 251.642 244.554C252.286 243.864 252.608 242.86 252.608 241.541V234.618H254.701ZM257.453 240.897C257.453 239.594 257.714 238.459 258.235 237.493C258.756 236.512 259.477 235.753 260.397 235.216C261.332 234.68 262.398 234.411 263.594 234.411C265.143 234.411 266.415 234.787 267.412 235.538C268.424 236.29 269.091 237.332 269.413 238.666H267.159C266.944 237.9 266.523 237.294 265.894 236.849C265.281 236.405 264.514 236.182 263.594 236.182C262.398 236.182 261.432 236.596 260.696 237.424C259.96 238.237 259.592 239.395 259.592 240.897C259.592 242.415 259.96 243.588 260.696 244.416C261.432 245.244 262.398 245.658 263.594 245.658C264.514 245.658 265.281 245.444 265.894 245.014C266.507 244.585 266.929 243.972 267.159 243.174H269.413C269.076 244.462 268.401 245.497 267.389 246.279C266.377 247.046 265.112 247.429 263.594 247.429C262.398 247.429 261.332 247.161 260.397 246.624C259.477 246.088 258.756 245.329 258.235 244.347C257.714 243.366 257.453 242.216 257.453 240.897ZM271.424 240.897C271.424 239.594 271.684 238.459 272.206 237.493C272.727 236.512 273.448 235.753 274.368 235.216C275.303 234.68 276.369 234.411 277.565 234.411C279.113 234.411 280.386 234.787 281.383 235.538C282.395 236.29 283.062 237.332 283.384 238.666H281.13C280.915 237.9 280.493 237.294 279.865 236.849C279.251 236.405 278.485 236.182 277.565 236.182C276.369 236.182 275.403 236.596 274.667 237.424C273.931 238.237 273.563 239.395 273.563 240.897C273.563 242.415 273.931 243.588 274.667 244.416C275.403 245.244 276.369 245.658 277.565 245.658C278.485 245.658 279.251 245.444 279.865 245.014C280.478 244.585 280.9 243.972 281.13 243.174H283.384C283.046 244.462 282.372 245.497 281.36 246.279C280.348 247.046 279.083 247.429 277.565 247.429C276.369 247.429 275.303 247.161 274.368 246.624C273.448 246.088 272.727 245.329 272.206 244.347C271.684 243.366 271.424 242.216 271.424 240.897ZM297.676 240.437C297.676 240.836 297.653 241.258 297.607 241.702H287.533C287.61 242.944 288.032 243.918 288.798 244.623C289.58 245.313 290.523 245.658 291.627 245.658C292.532 245.658 293.283 245.451 293.881 245.037C294.495 244.608 294.924 244.041 295.169 243.335H297.423C297.086 244.547 296.411 245.536 295.399 246.302C294.387 247.054 293.13 247.429 291.627 247.429C290.431 247.429 289.358 247.161 288.407 246.624C287.472 246.088 286.736 245.329 286.199 244.347C285.663 243.351 285.394 242.201 285.394 240.897C285.394 239.594 285.655 238.452 286.176 237.47C286.698 236.489 287.426 235.738 288.361 235.216C289.312 234.68 290.401 234.411 291.627 234.411C292.823 234.411 293.881 234.672 294.801 235.193C295.721 235.715 296.427 236.435 296.917 237.355C297.423 238.26 297.676 239.287 297.676 240.437ZM295.514 240C295.514 239.203 295.338 238.521 294.985 237.953C294.633 237.371 294.15 236.934 293.536 236.642C292.938 236.336 292.271 236.182 291.535 236.182C290.477 236.182 289.573 236.52 288.821 237.194C288.085 237.869 287.664 238.804 287.556 240H295.514ZM304.901 247.429C303.935 247.429 303.069 247.268 302.302 246.946C301.535 246.609 300.93 246.149 300.485 245.566C300.04 244.968 299.795 244.286 299.749 243.519H301.911C301.972 244.148 302.264 244.662 302.785 245.06C303.322 245.459 304.019 245.658 304.878 245.658C305.675 245.658 306.304 245.482 306.764 245.129C307.224 244.777 307.454 244.332 307.454 243.795C307.454 243.243 307.209 242.837 306.718 242.576C306.227 242.3 305.468 242.032 304.441 241.771C303.506 241.526 302.739 241.281 302.141 241.035C301.558 240.775 301.052 240.399 300.623 239.908C300.209 239.402 300.002 238.743 300.002 237.93C300.002 237.286 300.194 236.696 300.577 236.159C300.96 235.623 301.505 235.201 302.21 234.894C302.915 234.572 303.72 234.411 304.625 234.411C306.02 234.411 307.147 234.764 308.006 235.469C308.865 236.175 309.325 237.141 309.386 238.367H307.293C307.247 237.708 306.979 237.179 306.488 236.78C306.013 236.382 305.369 236.182 304.556 236.182C303.805 236.182 303.207 236.343 302.762 236.665C302.317 236.987 302.095 237.409 302.095 237.93C302.095 238.344 302.225 238.689 302.486 238.965C302.762 239.226 303.099 239.441 303.498 239.609C303.912 239.763 304.479 239.939 305.2 240.138C306.105 240.384 306.841 240.629 307.408 240.874C307.975 241.104 308.458 241.457 308.857 241.932C309.271 242.408 309.486 243.029 309.501 243.795C309.501 244.485 309.309 245.106 308.926 245.658C308.543 246.21 307.998 246.647 307.293 246.969C306.603 247.276 305.806 247.429 304.901 247.429ZM317.585 236.343H314.94V247.222H312.847V236.343H311.214V234.618H312.847V233.721C312.847 232.311 313.207 231.283 313.928 230.639C314.664 229.98 315.837 229.65 317.447 229.65V231.398C316.527 231.398 315.875 231.582 315.492 231.95C315.124 232.303 314.94 232.893 314.94 233.721V234.618H317.585V236.343ZM331.203 234.618V247.222H329.11V245.359C328.711 246.003 328.152 246.509 327.431 246.877C326.726 247.23 325.944 247.406 325.085 247.406C324.104 247.406 323.222 247.207 322.44 246.808C321.658 246.394 321.037 245.781 320.577 244.968C320.132 244.156 319.91 243.167 319.91 242.001V234.618H321.98V241.725C321.98 242.967 322.294 243.926 322.923 244.6C323.552 245.26 324.41 245.589 325.499 245.589C326.618 245.589 327.5 245.244 328.144 244.554C328.788 243.864 329.11 242.86 329.11 241.541V234.618H331.203ZM336.83 230.202V247.222H334.737V230.202H336.83Z" fill="white"/>
<path d="M122.562 196.53C122.562 194.49 123.022 192.66 123.942 191.04C124.862 189.4 126.112 188.12 127.692 187.2C129.292 186.28 131.062 185.82 133.002 185.82C135.282 185.82 137.272 186.37 138.972 187.47C140.672 188.57 141.912 190.13 142.692 192.15H139.422C138.842 190.89 138.002 189.92 136.902 189.24C135.822 188.56 134.522 188.22 133.002 188.22C131.542 188.22 130.232 188.56 129.072 189.24C127.912 189.92 127.002 190.89 126.342 192.15C125.682 193.39 125.352 194.85 125.352 196.53C125.352 198.19 125.682 199.65 126.342 200.91C127.002 202.15 127.912 203.11 129.072 203.79C130.232 204.47 131.542 204.81 133.002 204.81C134.522 204.81 135.822 204.48 136.902 203.82C138.002 203.14 138.842 202.17 139.422 200.91H142.692C141.912 202.91 140.672 204.46 138.972 205.56C137.272 206.64 135.282 207.18 133.002 207.18C131.062 207.18 129.292 206.73 127.692 205.83C126.112 204.91 124.862 203.64 123.942 202.02C123.022 200.4 122.562 198.57 122.562 196.53ZM153.926 207.27C152.386 207.27 150.986 206.92 149.726 206.22C148.486 205.52 147.506 204.53 146.786 203.25C146.086 201.95 145.736 200.45 145.736 198.75C145.736 197.07 146.096 195.59 146.816 194.31C147.556 193.01 148.556 192.02 149.816 191.34C151.076 190.64 152.486 190.29 154.046 190.29C155.606 190.29 157.016 190.64 158.276 191.34C159.536 192.02 160.526 193 161.246 194.28C161.986 195.56 162.356 197.05 162.356 198.75C162.356 200.45 161.976 201.95 161.216 203.25C160.476 204.53 159.466 205.52 158.186 206.22C156.906 206.92 155.486 207.27 153.926 207.27ZM153.926 204.87C154.906 204.87 155.826 204.64 156.686 204.18C157.546 203.72 158.236 203.03 158.756 202.11C159.296 201.19 159.566 200.07 159.566 198.75C159.566 197.43 159.306 196.31 158.786 195.39C158.266 194.47 157.586 193.79 156.746 193.35C155.906 192.89 154.996 192.66 154.016 192.66C153.016 192.66 152.096 192.89 151.256 193.35C150.436 193.79 149.776 194.47 149.276 195.39C148.776 196.31 148.526 197.43 148.526 198.75C148.526 200.09 148.766 201.22 149.246 202.14C149.746 203.06 150.406 203.75 151.226 204.21C152.046 204.65 152.946 204.87 153.926 204.87ZM173.955 190.26C175.955 190.26 177.575 190.87 178.815 192.09C180.055 193.29 180.675 195.03 180.675 197.31V207H177.975V197.7C177.975 196.06 177.565 194.81 176.745 193.95C175.925 193.07 174.805 192.63 173.385 192.63C171.945 192.63 170.795 193.08 169.935 193.98C169.095 194.88 168.675 196.19 168.675 197.91V207H165.945V190.56H168.675V192.9C169.215 192.06 169.945 191.41 170.865 190.95C171.805 190.49 172.835 190.26 173.955 190.26ZM191.915 190.29C193.335 190.29 194.575 190.6 195.635 191.22C196.715 191.84 197.515 192.62 198.035 193.56V190.56H200.795V207.36C200.795 208.86 200.475 210.19 199.835 211.35C199.195 212.53 198.275 213.45 197.075 214.11C195.895 214.77 194.515 215.1 192.935 215.1C190.775 215.1 188.975 214.59 187.535 213.57C186.095 212.55 185.245 211.16 184.985 209.4H187.685C187.985 210.4 188.605 211.2 189.545 211.8C190.485 212.42 191.615 212.73 192.935 212.73C194.435 212.73 195.655 212.26 196.595 211.32C197.555 210.38 198.035 209.06 198.035 207.36V203.91C197.495 204.87 196.695 205.67 195.635 206.31C194.575 206.95 193.335 207.27 191.915 207.27C190.455 207.27 189.125 206.91 187.925 206.19C186.745 205.47 185.815 204.46 185.135 203.16C184.455 201.86 184.115 200.38 184.115 198.72C184.115 197.04 184.455 195.57 185.135 194.31C185.815 193.03 186.745 192.04 187.925 191.34C189.125 190.64 190.455 190.29 191.915 190.29ZM198.035 198.75C198.035 197.51 197.785 196.43 197.285 195.51C196.785 194.59 196.105 193.89 195.245 193.41C194.405 192.91 193.475 192.66 192.455 192.66C191.435 192.66 190.505 192.9 189.665 193.38C188.825 193.86 188.155 194.56 187.655 195.48C187.155 196.4 186.905 197.48 186.905 198.72C186.905 199.98 187.155 201.08 187.655 202.02C188.155 202.94 188.825 203.65 189.665 204.15C190.505 204.63 191.435 204.87 192.455 204.87C193.475 204.87 194.405 204.63 195.245 204.15C196.105 203.65 196.785 202.94 197.285 202.02C197.785 201.08 198.035 199.99 198.035 198.75ZM208.138 193.23C208.618 192.29 209.298 191.56 210.178 191.04C211.078 190.52 212.168 190.26 213.448 190.26V193.08H212.728C209.668 193.08 208.138 194.74 208.138 198.06V207H205.408V190.56H208.138V193.23ZM215.58 198.72C215.58 197.04 215.92 195.57 216.6 194.31C217.28 193.03 218.21 192.04 219.39 191.34C220.59 190.64 221.92 190.29 223.38 190.29C224.82 190.29 226.07 190.6 227.13 191.22C228.19 191.84 228.98 192.62 229.5 193.56V190.56H232.26V207H229.5V203.94C228.96 204.9 228.15 205.7 227.07 206.34C226.01 206.96 224.77 207.27 223.35 207.27C221.89 207.27 220.57 206.91 219.39 206.19C218.21 205.47 217.28 204.46 216.6 203.16C215.92 201.86 215.58 200.38 215.58 198.72ZM229.5 198.75C229.5 197.51 229.25 196.43 228.75 195.51C228.25 194.59 227.57 193.89 226.71 193.41C225.87 192.91 224.94 192.66 223.92 192.66C222.9 192.66 221.97 192.9 221.13 193.38C220.29 193.86 219.62 194.56 219.12 195.48C218.62 196.4 218.37 197.48 218.37 198.72C218.37 199.98 218.62 201.08 219.12 202.02C219.62 202.94 220.29 203.65 221.13 204.15C221.97 204.63 222.9 204.87 223.92 204.87C224.94 204.87 225.87 204.63 226.71 204.15C227.57 203.65 228.25 202.94 228.75 202.02C229.25 201.08 229.5 199.99 229.5 198.75ZM240.203 192.81V202.5C240.203 203.3 240.373 203.87 240.713 204.21C241.053 204.53 241.643 204.69 242.483 204.69H244.493V207H242.033C240.513 207 239.373 206.65 238.613 205.95C237.853 205.25 237.473 204.1 237.473 202.5V192.81H235.343V190.56H237.473V186.42H240.203V190.56H244.493V192.81H240.203ZM253.621 207.27C252.361 207.27 251.231 207.06 250.231 206.64C249.231 206.2 248.441 205.6 247.861 204.84C247.281 204.06 246.961 203.17 246.901 202.17H249.721C249.801 202.99 250.181 203.66 250.861 204.18C251.561 204.7 252.471 204.96 253.591 204.96C254.631 204.96 255.451 204.73 256.051 204.27C256.651 203.81 256.951 203.23 256.951 202.53C256.951 201.81 256.631 201.28 255.991 200.94C255.351 200.58 254.361 200.23 253.021 199.89C251.801 199.57 250.801 199.25 250.021 198.93C249.261 198.59 248.601 198.1 248.041 197.46C247.501 196.8 247.231 195.94 247.231 194.88C247.231 194.04 247.481 193.27 247.981 192.57C248.481 191.87 249.191 191.32 250.111 190.92C251.031 190.5 252.081 190.29 253.261 190.29C255.081 190.29 256.551 190.75 257.671 191.67C258.791 192.59 259.391 193.85 259.471 195.45H256.741C256.681 194.59 256.331 193.9 255.691 193.38C255.071 192.86 254.231 192.6 253.171 192.6C252.191 192.6 251.411 192.81 250.831 193.23C250.251 193.65 249.961 194.2 249.961 194.88C249.961 195.42 250.131 195.87 250.471 196.23C250.831 196.57 251.271 196.85 251.791 197.07C252.331 197.27 253.071 197.5 254.011 197.76C255.191 198.08 256.151 198.4 256.891 198.72C257.631 199.02 258.261 199.48 258.781 200.1C259.321 200.72 259.601 201.53 259.621 202.53C259.621 203.43 259.371 204.24 258.871 204.96C258.371 205.68 257.661 206.25 256.741 206.67C255.841 207.07 254.801 207.27 253.621 207.27ZM267.015 186.09L266.685 201.09H264.405L264.075 186.09H267.015ZM265.665 207.18C265.145 207.18 264.705 207 264.345 206.64C263.985 206.28 263.805 205.84 263.805 205.32C263.805 204.8 263.985 204.36 264.345 204C264.705 203.64 265.145 203.46 265.665 203.46C266.165 203.46 266.585 203.64 266.925 204C267.285 204.36 267.465 204.8 267.465 205.32C267.465 205.84 267.285 206.28 266.925 206.64C266.585 207 266.165 207.18 265.665 207.18Z" fill="url(#paint1_linear_1521_1802)"/>
<circle cx="205" cy="75" r="67" fill="url(#paint2_linear_1521_1802)"/>
<ellipse cx="125" cy="118.5" rx="5" ry="5.5" fill="url(#paint3_linear_1521_1802)"/>
<ellipse cx="273.5" cy="142" rx="2.5" ry="2" fill="url(#paint4_linear_1521_1802)"/>
<path d="M200.023 93.1179C198.602 93.1179 197.181 92.5089 196.369 91.291L185.002 76.6763C183.378 74.6465 183.784 71.8048 185.814 70.1809C187.844 68.557 190.685 68.963 192.309 70.9928L200.023 80.939L217.073 58.8139C218.697 56.7841 221.539 56.3781 223.569 58.002C225.598 59.6259 226.004 62.4676 224.381 64.4974L203.676 91.291C202.661 92.3059 201.444 93.1179 200.023 93.1179Z" fill="white"/>
<circle cx="233.5" cy="85.5" r="2.5" fill="white"/>
<circle cx="185" cy="107" r="2" fill="white"/>
<defs>
<linearGradient id="paint0_linear_1521_1802" x1="188" y1="0" x2="188" y2="370" gradientUnits="userSpaceOnUse">
<stop stop-color="#0D0D0D"/>
<stop offset="1" stop-opacity="0"/>
</linearGradient>
<linearGradient id="paint1_linear_1521_1802" x1="388.44" y1="195.056" x2="143.502" y2="141.696" gradientUnits="userSpaceOnUse">
<stop stop-color="#C58BF2"/>
<stop offset="1" stop-color="#92A3FD"/>
</linearGradient>
<linearGradient id="paint2_linear_1521_1802" x1="272" y1="142" x2="93.4057" y2="128.18" gradientUnits="userSpaceOnUse">
<stop stop-color="#C58BF2"/>
<stop offset="1" stop-color="#EEA4CE"/>
</linearGradient>
<linearGradient id="paint3_linear_1521_1802" x1="120" y1="112.325" x2="131.591" y2="113.957" gradientUnits="userSpaceOnUse">
<stop stop-color="#53E88B"/>
<stop offset="1" stop-color="#15BE77"/>
</linearGradient>
<linearGradient id="paint4_linear_1521_1802" x1="271" y1="139.754" x2="276.697" y2="140.858" gradientUnits="userSpaceOnUse">
<stop stop-color="#53E88B"/>
<stop offset="1" stop-color="#15BE77"/>
</linearGradient>
</defs>
</svg>
