<svg width="28" height="27" viewBox="0 0 28 27" fill="none" xmlns="http://www.w3.org/2000/svg">
<path d="M23 5H4.33333C3.05 5 2.01167 6.0125 2.01167 7.25L2 20.75C2 21.9875 3.05 23 4.33333 23H23C24.2833 23 25.3333 21.9875 25.3333 20.75V7.25C25.3333 6.0125 24.2833 5 23 5ZM22.5333 9.78125L14.285 14.7537C13.9117 14.9787 13.4217 14.9787 13.0483 14.7537L4.8 9.78125C4.68302 9.71792 4.58057 9.63237 4.49887 9.52976C4.41717 9.42715 4.35791 9.30962 4.32467 9.18429C4.29144 9.05896 4.28492 8.92843 4.30552 8.80059C4.32611 8.67276 4.37339 8.55029 4.4445 8.44059C4.5156 8.33089 4.60905 8.23624 4.71918 8.16237C4.82932 8.0885 4.95385 8.03695 5.08524 8.01084C5.21664 7.98472 5.35216 7.98459 5.48361 8.01044C5.61506 8.0363 5.73971 8.0876 5.85 8.16125L13.6667 12.875L21.4833 8.16125C21.5936 8.0876 21.7183 8.0363 21.8497 8.01044C21.9812 7.98459 22.1167 7.98472 22.2481 8.01084C22.3795 8.03695 22.504 8.0885 22.6142 8.16237C22.7243 8.23624 22.8177 8.33089 22.8888 8.44059C22.9599 8.55029 23.0072 8.67276 23.0278 8.80059C23.0484 8.92843 23.0419 9.05896 23.0087 9.18429C22.9754 9.30962 22.9162 9.42715 22.8345 9.52976C22.7528 9.63237 22.6503 9.71792 22.5333 9.78125Z" fill="url(#paint0_linear_1057_1991)"/>
<defs>
<linearGradient id="paint0_linear_1057_1991" x1="44.7778" y1="39.6667" x2="-11.5277" y2="34.1214" gradientUnits="userSpaceOnUse">
<stop stop-color="#CC8FED"/>
<stop offset="1" stop-color="#9DCEFF"/>
</linearGradient>
</defs>
</svg>
