<svg width="26" height="25" viewBox="0 0 26 25" fill="none" xmlns="http://www.w3.org/2000/svg">
<g clip-path="url(#clip0_1056_1876)">
<path d="M13.5 25C20.4036 25 26 19.4036 26 12.5C26 5.59644 20.4036 0 13.5 0C6.59644 0 1 5.59644 1 12.5C1 19.4036 6.59644 25 13.5 25Z" fill="#3C5A9A"/>
<path d="M17.2385 3.83691H14.4694C12.8262 3.83691 10.9984 4.52804 10.9984 6.91C11.0065 7.73997 10.9984 8.53483 10.9984 9.4294H9.09741V12.4545H11.0573V21.1632H14.6586V12.397H17.0356L17.2506 9.42091H14.5965C14.5965 9.42091 14.6025 8.09702 14.5965 7.71255C14.5965 6.77125 15.576 6.82516 15.6349 6.82516C16.101 6.82516 17.0072 6.82651 17.2399 6.82516V3.83691H17.2385Z" fill="white"/>
</g>
<defs>
<clipPath id="clip0_1056_1876">
<rect width="25" height="25" fill="white" transform="translate(0.674072)"/>
</clipPath>
</defs>
</svg>
