<svg width="148" height="24" viewBox="0 0 148 24" fill="none" xmlns="http://www.w3.org/2000/svg">
<circle cx="4" cy="12" r="4" fill="white"/>
<circle cx="16" cy="12" r="4" fill="white"/>
<circle cx="28" cy="12" r="4" fill="white"/>
<circle cx="40" cy="12" r="4" fill="white"/>
<path d="M65.256 19.68C64.4027 19.68 63.6133 19.5307 62.888 19.232C62.1627 18.9387 61.5307 18.528 60.992 18C60.4533 17.4667 60.032 16.84 59.728 16.12C59.4293 15.4 59.28 14.616 59.28 13.768C59.28 12.8667 59.4267 12.0453 59.72 11.304C60.0133 10.5573 60.4267 9.91467 60.96 9.376C61.4987 8.832 62.136 8.41333 62.872 8.12C63.608 7.82667 64.416 7.68 65.296 7.68C66.304 7.68 67.184 7.84267 67.936 8.168C68.6933 8.488 69.3173 8.92533 69.808 9.48C70.2987 10.0293 70.656 10.648 70.88 11.336C71.1093 12.024 71.2053 12.736 71.168 13.472C71.1147 14.48 70.8747 15.24 70.448 15.752C70.0267 16.264 69.4373 16.52 68.68 16.52C68.1893 16.52 67.7627 16.4053 67.4 16.176C67.0373 15.9467 66.7947 15.624 66.672 15.208L67.056 15.248C66.8693 15.6267 66.5893 15.9013 66.216 16.072C65.848 16.2427 65.464 16.328 65.064 16.328C64.5787 16.328 64.152 16.224 63.784 16.016C63.4213 15.8027 63.136 15.5093 62.928 15.136C62.7253 14.7627 62.624 14.3307 62.624 13.84C62.624 13.328 62.7307 12.8853 62.944 12.512C63.1573 12.1387 63.4507 11.8507 63.824 11.648C64.1973 11.4453 64.6187 11.344 65.088 11.344C65.4347 11.344 65.792 11.416 66.16 11.56C66.5333 11.704 66.8187 11.9387 67.016 12.264L66.704 12.616V11.568H67.552L67.544 14.168C67.544 14.5627 67.6347 14.8853 67.816 15.136C68.0027 15.3813 68.3093 15.504 68.736 15.504C69.024 15.504 69.264 15.424 69.456 15.264C69.6533 15.104 69.8053 14.88 69.912 14.592C70.0187 14.2987 70.08 13.9547 70.096 13.56C70.128 12.7493 70.024 12.04 69.784 11.432C69.544 10.824 69.2027 10.3173 68.76 9.912C68.3173 9.50133 67.8027 9.19467 67.216 8.992C66.6347 8.78933 66.0133 8.688 65.352 8.688C64.552 8.688 63.84 8.82133 63.216 9.088C62.5973 9.35467 62.072 9.72267 61.64 10.192C61.2133 10.6613 60.8907 11.2027 60.672 11.816C60.4533 12.424 60.3493 13.072 60.36 13.76C60.3653 14.4693 60.4933 15.1253 60.744 15.728C61 16.3253 61.352 16.8453 61.8 17.288C62.248 17.7253 62.7707 18.064 63.368 18.304C63.9653 18.5493 64.6133 18.672 65.312 18.672C65.7653 18.672 66.2187 18.6133 66.672 18.496C67.1307 18.3787 67.5387 18.216 67.896 18.008L68.272 18.904C67.808 19.1653 67.32 19.36 66.808 19.488C66.296 19.616 65.7787 19.68 65.256 19.68ZM65.128 15.304C65.544 15.304 65.8827 15.184 66.144 14.944C66.4107 14.704 66.544 14.3333 66.544 13.832C66.544 13.3413 66.416 12.9707 66.16 12.72C65.9093 12.4693 65.5733 12.344 65.152 12.344C64.672 12.344 64.304 12.4747 64.048 12.736C63.7973 12.9973 63.672 13.3627 63.672 13.832C63.672 14.3067 63.8027 14.672 64.064 14.928C64.3253 15.1787 64.68 15.304 65.128 15.304ZM77.0051 22.08C76.5625 22.08 76.1251 22.0133 75.6931 21.88C75.2665 21.752 74.8718 21.5467 74.5091 21.264C74.1465 20.9867 73.8425 20.624 73.5971 20.176L74.6611 19.584C74.9011 20.064 75.2371 20.408 75.6691 20.616C76.1065 20.8293 76.5518 20.936 77.0051 20.936C77.6291 20.936 78.1331 20.8187 78.5171 20.584C78.9065 20.3547 79.1891 20.0133 79.3651 19.56C79.5411 19.1067 79.6265 18.5413 79.6211 17.864V15.56H79.7571V9.36H80.8051V17.88C80.8051 18.1253 80.7971 18.36 80.7811 18.584C80.7705 18.8133 80.7465 19.0373 80.7091 19.256C80.6078 19.9013 80.3971 20.432 80.0771 20.848C79.7625 21.264 79.3465 21.5733 78.8291 21.776C78.3171 21.9787 77.7091 22.08 77.0051 22.08ZM76.9251 18.24C76.1198 18.24 75.4318 18.04 74.8611 17.64C74.2905 17.2347 73.8531 16.688 73.5491 16C73.2451 15.312 73.0931 14.536 73.0931 13.672C73.0931 12.8133 73.2425 12.04 73.5411 11.352C73.8451 10.664 74.2798 10.12 74.8451 9.72C75.4105 9.32 76.0878 9.12 76.8771 9.12C77.6878 9.12 78.3705 9.31733 78.9251 9.712C79.4798 10.1067 79.8985 10.648 80.1811 11.336C80.4691 12.0187 80.6131 12.7973 80.6131 13.672C80.6131 14.5307 80.4718 15.3067 80.1891 16C79.9065 16.688 79.4905 17.2347 78.9411 17.64C78.3918 18.04 77.7198 18.24 76.9251 18.24ZM77.0451 17.144C77.6585 17.144 78.1651 16.9947 78.5651 16.696C78.9651 16.3973 79.2638 15.9867 79.4611 15.464C79.6585 14.936 79.7571 14.3387 79.7571 13.672C79.7571 12.9947 79.6585 12.3973 79.4611 11.88C79.2638 11.3573 78.9651 10.9493 78.5651 10.656C78.1705 10.3627 77.6718 10.216 77.0691 10.216C76.4505 10.216 75.9385 10.368 75.5331 10.672C75.1278 10.976 74.8265 11.3893 74.6291 11.912C74.4371 12.4347 74.3411 13.0213 74.3411 13.672C74.3411 14.328 74.4398 14.92 74.6371 15.448C74.8398 15.9707 75.1411 16.384 75.5411 16.688C75.9411 16.992 76.4425 17.144 77.0451 17.144ZM93.3459 18L93.3539 12.328C93.3539 11.6613 93.1672 11.1387 92.7939 10.76C92.4259 10.376 91.9565 10.184 91.3859 10.184C91.0605 10.184 90.7432 10.2587 90.4339 10.408C90.1245 10.5573 89.8685 10.7973 89.6659 11.128C89.4685 11.4587 89.3699 11.8907 89.3699 12.424L88.6739 12.224C88.6579 11.6053 88.7779 11.064 89.0339 10.6C89.2952 10.136 89.6525 9.776 90.1059 9.52C90.5645 9.25867 91.0819 9.128 91.6579 9.128C92.5272 9.128 93.2232 9.39733 93.7459 9.936C94.2685 10.4693 94.5299 11.192 94.5299 12.104L94.5219 18H93.3459ZM83.0339 18V9.36H84.0899V11.488H84.2179V18H83.0339ZM88.2019 18L88.2099 12.408C88.2099 11.72 88.0259 11.1787 87.6579 10.784C87.2952 10.384 86.8152 10.184 86.2179 10.184C85.6205 10.184 85.1379 10.3893 84.7699 10.8C84.4019 11.2053 84.2179 11.7467 84.2179 12.424L83.5139 12.04C83.5139 11.4853 83.6445 10.9893 83.9059 10.552C84.1672 10.1093 84.5245 9.76267 84.9779 9.512C85.4312 9.256 85.9459 9.128 86.5219 9.128C87.0712 9.128 87.5592 9.24533 87.9859 9.48C88.4179 9.71467 88.7565 10.056 89.0019 10.504C89.2472 10.952 89.3699 11.496 89.3699 12.136L89.3619 18H88.2019ZM99.0764 18.24C98.4257 18.24 97.879 18.1227 97.4364 17.888C96.999 17.6533 96.671 17.3413 96.4524 16.952C96.2337 16.5627 96.1244 16.1387 96.1244 15.68C96.1244 15.2107 96.2177 14.8107 96.4044 14.48C96.5964 14.144 96.855 13.8693 97.1804 13.656C97.511 13.4427 97.8924 13.28 98.3244 13.168C98.7617 13.0613 99.2444 12.968 99.7724 12.888C100.306 12.8027 100.826 12.7307 101.332 12.672C101.844 12.608 102.292 12.5467 102.676 12.488L102.26 12.744C102.276 11.8907 102.111 11.2587 101.764 10.848C101.418 10.4373 100.815 10.232 99.9564 10.232C99.3644 10.232 98.863 10.3653 98.4524 10.632C98.047 10.8987 97.7617 11.32 97.5964 11.896L96.4524 11.56C96.6497 10.7867 97.047 10.1867 97.6444 9.76C98.2417 9.33333 99.0177 9.12 99.9724 9.12C100.762 9.12 101.431 9.26933 101.98 9.568C102.535 9.86133 102.927 10.288 103.156 10.848C103.263 11.0987 103.332 11.3787 103.364 11.688C103.396 11.9973 103.412 12.312 103.412 12.632V18H102.364V15.832L102.668 15.96C102.375 16.7013 101.919 17.2667 101.3 17.656C100.682 18.0453 99.9404 18.24 99.0764 18.24ZM99.2124 17.224C99.7617 17.224 100.242 17.1253 100.652 16.928C101.063 16.7307 101.394 16.4613 101.644 16.12C101.895 15.7733 102.058 15.384 102.132 14.952C102.196 14.6747 102.231 14.3707 102.236 14.04C102.242 13.704 102.244 13.4533 102.244 13.288L102.692 13.52C102.292 13.5733 101.858 13.6267 101.388 13.68C100.924 13.7333 100.466 13.7947 100.012 13.864C99.5644 13.9333 99.159 14.016 98.7964 14.112C98.551 14.1813 98.3137 14.28 98.0844 14.408C97.855 14.5307 97.6657 14.696 97.5164 14.904C97.3724 15.112 97.3004 15.3707 97.3004 15.68C97.3004 15.9307 97.3617 16.1733 97.4844 16.408C97.6124 16.6427 97.815 16.8373 98.0924 16.992C98.375 17.1467 98.7484 17.224 99.2124 17.224ZM105.655 7.72V6.4H106.831V7.72H105.655ZM105.655 18V9.36H106.831V18H105.655ZM109.389 18V6.24H110.565V18H109.389ZM113.188 18V16.632H114.556V18H113.188ZM120.61 18.24C119.741 18.24 119.005 18.0453 118.402 17.656C117.8 17.2667 117.341 16.7307 117.026 16.048C116.717 15.36 116.557 14.5707 116.546 13.68C116.557 12.7733 116.722 11.9787 117.042 11.296C117.362 10.608 117.824 10.0747 118.426 9.696C119.029 9.312 119.76 9.12 120.618 9.12C121.493 9.12 122.253 9.33333 122.898 9.76C123.549 10.1867 123.994 10.7707 124.234 11.512L123.082 11.88C122.88 11.3627 122.557 10.9627 122.114 10.68C121.677 10.392 121.176 10.248 120.61 10.248C119.976 10.248 119.45 10.3947 119.034 10.688C118.618 10.976 118.309 11.3787 118.106 11.896C117.904 12.4133 117.8 13.008 117.794 13.68C117.805 14.7147 118.045 15.5467 118.514 16.176C118.984 16.8 119.682 17.112 120.61 17.112C121.197 17.112 121.696 16.9787 122.106 16.712C122.522 16.44 122.837 16.0453 123.05 15.528L124.234 15.88C123.914 16.648 123.445 17.2347 122.826 17.64C122.208 18.04 121.469 18.24 120.61 18.24ZM129.259 18.24C128.401 18.24 127.667 18.0453 127.059 17.656C126.451 17.2667 125.985 16.728 125.659 16.04C125.334 15.352 125.171 14.5627 125.171 13.672C125.171 12.7653 125.337 11.9707 125.667 11.288C125.998 10.6053 126.467 10.0747 127.075 9.696C127.689 9.312 128.417 9.12 129.259 9.12C130.123 9.12 130.859 9.31467 131.467 9.704C132.081 10.088 132.547 10.624 132.867 11.312C133.193 11.9947 133.355 12.7813 133.355 13.672C133.355 14.5787 133.193 15.376 132.867 16.064C132.542 16.7467 132.073 17.28 131.459 17.664C130.846 18.048 130.113 18.24 129.259 18.24ZM129.259 17.112C130.219 17.112 130.934 16.7947 131.403 16.16C131.873 15.52 132.107 14.6907 132.107 13.672C132.107 12.6267 131.87 11.7947 131.395 11.176C130.926 10.5573 130.214 10.248 129.259 10.248C128.614 10.248 128.081 10.3947 127.659 10.688C127.243 10.976 126.931 11.3787 126.723 11.896C126.521 12.408 126.419 13 126.419 13.672C126.419 14.712 126.659 15.5467 127.139 16.176C127.619 16.8 128.326 17.112 129.259 17.112ZM145.424 18L145.432 12.328C145.432 11.6613 145.245 11.1387 144.872 10.76C144.504 10.376 144.035 10.184 143.464 10.184C143.139 10.184 142.821 10.2587 142.512 10.408C142.203 10.5573 141.947 10.7973 141.744 11.128C141.547 11.4587 141.448 11.8907 141.448 12.424L140.752 12.224C140.736 11.6053 140.856 11.064 141.112 10.6C141.373 10.136 141.731 9.776 142.184 9.52C142.643 9.25867 143.16 9.128 143.736 9.128C144.605 9.128 145.301 9.39733 145.824 9.936C146.347 10.4693 146.608 11.192 146.608 12.104L146.6 18H145.424ZM135.112 18V9.36H136.168V11.488H136.296V18H135.112ZM140.28 18L140.288 12.408C140.288 11.72 140.104 11.1787 139.736 10.784C139.373 10.384 138.893 10.184 138.296 10.184C137.699 10.184 137.216 10.3893 136.848 10.8C136.48 11.2053 136.296 11.7467 136.296 12.424L135.592 12.04C135.592 11.4853 135.723 10.9893 135.984 10.552C136.245 10.1093 136.603 9.76267 137.056 9.512C137.509 9.256 138.024 9.128 138.6 9.128C139.149 9.128 139.637 9.24533 140.064 9.48C140.496 9.71467 140.835 10.056 141.08 10.504C141.325 10.952 141.448 11.496 141.448 12.136L141.44 18H140.28Z" fill="white"/>
</svg>
