<svg width="26" height="25" viewBox="0 0 26 25" fill="none" xmlns="http://www.w3.org/2000/svg">
<g clip-path="url(#clip0_1056_1883)">
<path d="M25.0661 12.7339C25.0661 11.7097 24.983 10.9622 24.8033 10.1871H13.1196V14.81H19.9777C19.8395 15.9589 19.0928 17.689 17.4336 18.8516L17.4103 19.0064L21.1045 21.8712L21.3604 21.8968C23.711 19.7237 25.0661 16.5264 25.0661 12.7339Z" fill="#4285F4"/>
<path d="M13.1195 24.9141C16.4794 24.9141 19.3001 23.8068 21.3604 21.8967L17.4335 18.8516C16.3827 19.5852 14.9723 20.0973 13.1195 20.0973C9.82876 20.0973 7.03575 17.9243 6.04012 14.9208L5.89418 14.9332L2.05292 17.909L2.00269 18.0488C4.04904 22.1181 8.25243 24.9141 13.1195 24.9141Z" fill="#34A853"/>
<path d="M6.04031 14.9208C5.77761 14.1457 5.62557 13.3152 5.62557 12.457C5.62557 11.5988 5.77761 10.7684 6.02649 9.99331L6.01953 9.82823L2.13014 6.80457L2.00289 6.86516C1.15948 8.5538 0.675537 10.4501 0.675537 12.457C0.675537 14.464 1.15948 16.3602 2.00289 18.0488L6.04031 14.9208Z" fill="#FBBC05"/>
<path d="M13.1195 4.8167C15.4562 4.8167 17.0325 5.8271 17.9313 6.67147L21.4433 3.23884C19.2863 1.23187 16.4794 0 13.1195 0C8.25242 0 4.04904 2.7959 2.00269 6.86517L6.02629 9.99332C7.03574 6.98979 9.82875 4.8167 13.1195 4.8167Z" fill="#EB4335"/>
</g>
<defs>
<clipPath id="clip0_1056_1883">
<rect width="24.4048" height="25" fill="white" transform="translate(0.674072)"/>
</clipPath>
</defs>
</svg>
