<svg width="26" height="31" viewBox="0 0 26 31" fill="none" xmlns="http://www.w3.org/2000/svg">
<ellipse cx="13.12" cy="29" rx="2.05333" ry="2" fill="url(#paint0_linear_1652_1145)"/>
<path fill-rule="evenodd" clip-rule="evenodd" d="M10.2014 20.7714V17.7047C10.2014 16.9246 10.8543 16.2908 11.6632 16.2856H14.6262C15.439 16.2856 16.0979 16.9209 16.0979 17.7047V17.7047V20.7809C16.0977 21.4432 16.6459 21.9845 17.3325 22H19.3078C21.277 22 22.8734 20.4607 22.8734 18.5618V18.5618V9.83784C22.8629 9.09083 22.4991 8.38935 21.8857 7.93303L15.13 2.6853C13.9464 1.77157 12.264 1.77157 11.0805 2.6853L4.35438 7.94256C3.73862 8.39702 3.37428 9.09967 3.3667 9.84736V18.5618C3.3667 20.4607 4.96304 22 6.93222 22H8.90758C9.61125 22 10.1817 21.4499 10.1817 20.7714V20.7714" fill="url(#paint1_linear_1652_1145)"/>
<defs>
<linearGradient id="paint0_linear_1652_1145" x1="15.1733" y1="31" x2="9.70174" y2="30.5653" gradientUnits="userSpaceOnUse">
<stop stop-color="#C58BF2"/>
<stop offset="1" stop-color="#EEA4CE"/>
</linearGradient>
<linearGradient id="paint1_linear_1652_1145" x1="35.5682" y1="12" x2="5.75149" y2="10.6341" gradientUnits="userSpaceOnUse">
<stop stop-color="#C58BF2"/>
<stop offset="1" stop-color="#92A3FD"/>
</linearGradient>
</defs>
</svg>
