<svg version="1.1" id="Layer_1" xmlns="http://www.w3.org/2000/svg" xmlns:xlink="http://www.w3.org/1999/xlink" x="0px" y="0px"
	 width="100%" viewBox="0 0 647 513" enable-background="new 0 0 647 513" xml:space="preserve">
<path fill="#FFFFFF" opacity="1.000000" stroke="none" 
	d="
M433.000000,514.000000 
	C288.666656,514.000000 144.833328,514.000000 1.000000,514.000000 
	C1.000000,343.000000 1.000000,172.000000 1.000000,1.000000 
	C216.666672,1.000000 432.333344,1.000000 648.000000,1.000000 
	C648.000000,172.000000 648.000000,343.000000 648.000000,514.000000 
	C576.500000,514.000000 505.000000,514.000000 433.000000,514.000000 
M611.086670,197.087723 
	C611.086670,197.087723 611.101929,197.190948 611.853699,197.160095 
	C623.132446,193.016678 631.295959,179.136490 630.782043,164.976532 
	C630.234924,149.900070 620.686401,137.187500 606.297974,132.996048 
	C598.919067,131.957794 591.566772,131.116745 584.196716,135.976395 
	C581.484741,135.136383 578.772705,134.296387 575.423218,133.055466 
	C571.616699,132.703201 567.810242,132.350952 563.963318,131.210098 
	C562.011047,126.142593 560.940186,120.459106 557.920166,116.137894 
	C551.928162,107.564392 543.582275,101.421982 533.865601,97.264534 
	C524.520508,93.266090 507.815308,95.541115 502.075226,103.865036 
	C495.476166,113.434639 491.121948,124.552818 485.814056,135.009201 
	C485.679352,135.274536 485.794098,135.666504 485.194275,136.292313 
	C480.037109,138.925873 474.879974,141.559448 468.896210,144.079681 
	C466.926483,144.088272 464.956787,144.096848 462.185883,143.984497 
	C451.958374,142.730530 442.238495,145.112717 432.620789,148.153015 
	C421.536652,151.656891 419.508881,159.219330 419.291656,170.172028 
	C417.871429,173.689178 415.893005,177.088882 415.124115,180.743103 
	C410.996338,200.360535 407.169617,220.041290 403.010742,240.456528 
	C401.337585,247.446426 399.471405,254.397354 398.049530,261.437988 
	C396.806885,267.591187 396.064240,273.845367 395.003571,280.911652 
	C394.816162,289.599823 394.628723,298.288025 394.009186,307.569855 
	C389.105408,313.574860 388.649994,320.685425 388.066101,327.944153 
	C383.049683,329.208069 378.033234,330.472015 372.271027,331.956665 
	C371.071411,335.670349 370.277039,339.582886 368.575775,343.050446 
	C366.112091,348.072083 367.762726,350.488159 372.564850,352.393341 
	C381.778503,356.048798 390.837524,360.094025 399.722809,364.715576 
	C398.050232,372.768433 396.377655,380.821259 394.651825,389.130493 
	C401.197266,389.130493 407.113556,389.130493 413.943909,389.324066 
	C415.898315,389.336365 417.852692,389.358276 419.807098,389.359253 
	C427.829681,389.363281 427.829681,389.360931 430.664124,382.088013 
	C433.489532,383.606049 436.314911,385.124115 439.540466,387.193726 
	C441.497253,387.823151 443.463531,389.021118 445.409271,388.988647 
	C457.024597,388.794647 468.638916,388.402222 480.245544,387.893097 
	C485.034760,387.683014 489.804016,387.017914 495.267731,386.871918 
	C496.522736,386.844849 497.777710,386.817810 499.864960,386.934906 
	C505.926849,388.665771 508.591431,383.093506 513.287537,381.502563 
	C527.137817,386.204010 540.965393,390.543793 556.009155,389.049500 
	C567.547363,387.903381 579.173523,387.601105 590.767944,387.091064 
	C593.707092,386.961792 595.065674,385.901611 594.956177,382.927063 
	C594.864441,380.435608 595.087463,377.926544 594.899780,375.445831 
	C594.427856,369.208221 592.270996,364.073151 586.461853,360.608185 
	C581.811890,357.834656 577.672241,354.200226 573.333435,350.911957 
	C569.439575,347.960876 565.582825,344.960785 561.614807,341.239410 
	C548.055115,330.196442 534.495361,319.153503 521.409729,307.479736 
	C523.502747,306.999359 525.581482,306.442505 527.690918,306.050537 
	C546.890137,302.483124 566.132507,299.133331 585.277893,295.298676 
	C592.319336,293.888306 597.108276,284.256653 595.275940,276.178711 
	C593.164673,271.142303 591.053467,266.105896 588.963379,260.207825 
	C589.988953,254.702805 591.612122,249.230789 591.918457,243.686035 
	C592.601440,231.322205 592.588562,218.920898 592.957275,206.537796 
	C593.019287,204.453094 593.571777,202.382996 594.698059,200.304489 
	C598.482544,200.088989 602.267090,199.873489 606.706848,199.529999 
	C608.200684,198.723740 609.694519,197.917465 611.086670,197.087723 
M71.961693,394.953552 
	C76.807549,394.953552 81.653404,394.953552 85.665131,394.953552 
	C87.043900,391.904724 88.007553,389.773865 89.480415,388.138824 
	C91.988708,389.484894 94.497009,390.830933 97.351357,392.823059 
	C99.269539,393.541901 101.194580,394.891541 103.104736,394.870789 
	C111.543556,394.779114 119.979980,394.333374 128.413651,393.938354 
	C136.681763,393.551147 144.945496,393.070282 153.873993,392.676910 
	C154.933243,392.553558 155.992493,392.430206 157.894608,392.536224 
	C163.797241,394.166992 166.581772,389.054199 171.317795,387.078430 
	C175.898834,388.537842 180.436981,390.154114 185.070587,391.421295 
	C192.725296,393.514587 200.296448,395.716583 208.499710,395.002716 
	C220.222382,393.982605 231.998291,393.501556 243.761261,393.039673 
	C253.815079,392.644867 252.810028,394.126526 253.011536,383.395752 
	C253.173416,374.774750 250.294449,368.258728 241.842178,364.798676 
	C239.769424,363.950134 238.009171,362.241028 236.240158,360.765839 
	C230.767670,356.201965 225.360199,351.560211 219.634903,346.359009 
	C206.380386,335.642487 193.125854,324.925964 180.193909,313.467682 
	C181.201141,312.985138 182.162949,312.246002 183.222397,312.058472 
	C199.200104,309.230682 215.190674,306.475372 231.859436,303.900269 
	C238.659180,306.931885 245.458923,309.963501 252.133270,313.833496 
	C248.558197,331.240570 256.877502,351.633514 271.654816,361.490814 
	C277.905762,365.660522 284.639069,367.339050 292.732300,364.869843 
	C299.558136,362.309326 303.567108,357.127747 304.927124,350.268677 
	C305.850098,345.613892 305.554230,340.717377 306.524323,335.932617 
	C307.004242,335.955658 307.484161,335.978699 308.351013,336.555176 
	C311.552979,338.554413 314.611450,340.847260 317.984741,342.495941 
	C326.853973,346.830750 333.945801,345.716492 341.694580,338.983521 
	C346.191284,334.604218 348.497375,329.158051 348.870392,323.008667 
	C349.899902,306.036163 343.306885,292.594879 329.328735,283.007874 
	C323.273529,278.854889 316.483459,276.836517 308.301270,278.969482 
	C297.608856,282.378876 293.577911,290.385376 292.416504,301.018188 
	C290.239624,301.986023 288.062744,302.953857 285.218964,303.775055 
	C282.482391,302.498932 279.745850,301.222778 276.743378,299.338593 
	C274.743927,297.112793 272.789673,294.844299 270.737091,292.668610 
	C262.084595,283.496979 253.584656,274.170319 244.653290,265.277618 
	C240.322617,260.965698 236.876602,256.460449 234.620529,250.684097 
	C231.366913,242.353775 228.000198,233.905685 223.325470,226.346603 
	C219.944687,220.879791 218.996902,215.618378 218.860275,209.530121 
	C218.678650,201.436081 216.593704,193.777390 210.971100,187.472382 
	C205.488297,181.324112 198.661118,177.421906 191.210556,174.377075 
	C192.078430,173.619492 192.962555,172.192322 193.811523,172.212936 
	C199.337708,172.347153 199.684738,168.561264 200.038483,164.589493 
	C200.343765,161.161850 201.367691,158.300491 204.747360,156.365677 
	C206.582443,155.315094 207.682632,152.980789 209.868286,151.169250 
	C218.422028,149.077347 223.037689,144.452850 221.863205,137.327637 
	C220.972610,131.924667 219.107971,126.196510 216.038834,121.741455 
	C210.012375,112.993698 201.485870,106.853951 191.586990,102.689545 
	C180.423111,97.992958 162.872879,103.069450 156.764954,113.563728 
	C152.186234,121.430618 148.454910,129.795471 144.480377,138.003555 
	C143.948883,139.101212 144.205658,140.580566 143.423218,142.108994 
	C138.156128,144.619110 132.889053,147.129227 126.838554,149.570358 
	C125.022331,149.538666 123.206116,149.506958 120.566734,149.237747 
	C119.714188,149.236938 118.861633,149.236145 117.158340,149.078369 
	C115.435196,149.139709 113.712059,149.201050 111.417015,149.170334 
	C110.937798,149.434540 110.458580,149.698746 109.134056,149.940750 
	C106.169411,150.298676 103.160133,150.442596 100.247543,151.050125 
	C84.228401,154.391525 78.215744,158.517456 77.479057,173.820923 
	C75.951271,178.179611 73.907143,182.432114 72.985039,186.915375 
	C68.978706,206.394104 65.299370,225.940079 61.184029,246.225204 
	C56.796265,255.155746 56.106907,264.854126 55.236828,275.266296 
	C53.062626,287.727081 50.852730,300.185577 52.290455,313.477112 
	C46.945484,319.017761 46.885929,325.972687 46.230564,333.013428 
	C40.788017,334.596619 35.345470,336.179779 29.462635,338.400177 
	C28.416924,342.213318 27.646236,346.131012 26.247414,349.809875 
	C24.875095,353.419037 25.301659,355.631836 29.154753,357.154999 
	C38.826015,360.978210 48.404984,365.034851 57.924675,369.782990 
	C56.220387,378.006439 54.516098,386.229858 52.738628,394.806427 
	C59.174385,394.806427 65.108978,394.806427 71.961693,394.953552 
z"/>
<path fill="#FCCAA2" opacity="1.000000" stroke="none" 
	d="
M419.961365,169.901962 
	C419.508881,159.219330 421.536652,151.656891 432.620789,148.153015 
	C442.238495,145.112717 451.958374,142.730530 462.620636,144.422195 
	C465.609192,154.296600 468.513031,163.655945 470.619995,173.191376 
	C472.801422,183.063873 471.383301,192.384018 463.598206,199.680069 
	C463.023651,194.103867 461.952698,188.962280 464.382751,183.631119 
	C465.620453,180.915771 464.599426,177.170853 464.599426,173.891342 
	C463.125977,176.758591 462.870636,179.903976 461.605743,182.570450 
	C459.628113,186.739380 457.717896,190.549210 459.856720,195.356018 
	C460.632629,197.099823 459.981476,199.478592 459.981476,201.762543 
	C455.537048,201.450668 451.821869,201.189957 448.106659,200.929260 
	C448.065430,201.246490 448.024200,201.563721 447.982941,201.880951 
	C451.633575,203.248810 455.284180,204.616669 459.179657,206.214661 
	C464.278290,209.928040 469.064453,213.510513 474.000122,216.873550 
	C483.801056,223.551666 492.214355,222.042664 499.196686,213.020020 
	C500.551086,211.269852 503.480835,209.877304 505.717102,209.828079 
	C513.270020,209.661880 521.425110,208.539474 526.255188,217.096039 
	C526.722290,217.420441 526.911926,217.674606 526.876587,218.316711 
	C526.500305,219.589066 525.766663,220.975632 526.134583,221.394455 
	C529.432190,225.148163 527.907288,229.184952 527.130981,233.585205 
	C525.703613,235.928162 524.413574,239.413864 522.790955,239.576263 
	C516.274597,240.228409 509.655212,239.851578 503.010773,239.515350 
	C499.498932,234.351181 494.851624,233.979630 491.455231,238.393982 
	C493.989166,238.906006 496.453827,239.404053 498.610840,240.082428 
	C483.983521,246.826965 469.138397,249.949814 453.382599,247.135986 
	C445.590668,245.744415 437.796265,244.366409 429.666443,242.833588 
	C423.602661,241.805542 419.409241,238.601471 416.160522,233.529251 
	C416.004669,230.252106 416.275970,227.320297 415.591339,224.631882 
	C411.826141,209.846619 414.593231,195.670441 418.822693,181.481415 
	C419.910278,177.832657 419.619141,173.772903 419.961365,169.901962 
M430.238464,175.437836 
	C430.601837,175.417297 430.965179,175.396759 431.328552,175.376221 
	C430.895050,175.241409 430.461517,175.106598 429.955170,174.260849 
	C428.071594,170.514633 426.188049,166.768417 424.218323,162.850845 
	C423.429596,168.366272 423.767059,173.117691 430.238464,175.437836 
M443.657684,226.793106 
	C441.590271,224.343353 439.522858,221.893600 436.677368,218.521866 
	C437.277466,221.647232 436.985291,224.865005 438.454559,226.495926 
	C440.046478,228.262924 443.280304,228.550705 445.798096,229.483582 
	C445.986237,228.994080 446.174347,228.504593 446.362488,228.015091 
	C445.692841,227.668396 445.023193,227.321701 443.657684,226.793106 
M488.263123,239.625778 
	C485.819122,239.774323 483.375122,239.922882 480.931152,240.071442 
	C480.971313,240.445312 481.011505,240.819199 481.051697,241.193069 
	C483.366425,240.887772 485.681122,240.582489 488.263123,239.625778 
z"/>
<path fill="#FCCAA2" opacity="1.000000" stroke="none" 
	d="
M111.988907,149.262390 
	C113.712059,149.201050 115.435196,149.139709 117.630783,149.495987 
	C118.721024,154.051453 118.879066,158.456436 124.170471,160.315948 
	C126.045227,168.025681 128.025955,175.364914 129.299774,182.824829 
	C130.815735,191.702713 127.899612,199.412613 121.497437,205.634888 
	C121.430664,203.760406 122.103310,201.961121 121.609085,200.579117 
	C120.305290,196.933365 121.007355,193.789841 122.211830,190.231766 
	C123.390526,186.749817 123.221886,182.811768 123.644638,179.073914 
	C119.509384,188.239624 115.178024,197.292374 118.585510,207.820648 
	C112.963493,207.001755 108.564835,206.361038 104.166168,205.720337 
	C104.114670,206.030487 104.063164,206.340637 104.011658,206.650803 
	C108.406929,208.405609 112.802208,210.160416 117.492691,212.066895 
	C122.631050,215.691864 127.396133,219.280792 132.333923,222.613876 
	C142.031830,229.160156 150.482361,227.734436 157.193909,218.378998 
	C159.190414,215.596008 161.534195,214.513596 164.837418,215.162735 
	C166.294830,215.449127 167.915512,215.981476 169.252975,215.622681 
	C176.686264,213.628616 180.659500,217.863861 183.996933,223.818573 
	C184.066528,225.527039 183.603287,227.387604 184.299240,228.075531 
	C188.351364,232.081039 185.904251,236.282486 185.079498,240.463394 
	C184.984329,240.945908 185.018021,241.453857 184.862549,242.268616 
	C183.414917,243.522919 182.152939,245.160156 180.768585,245.271118 
	C175.188416,245.718445 169.570496,245.694565 163.749603,245.601624 
	C160.422806,243.481339 158.216400,239.661697 153.552658,241.252380 
	C147.534775,243.304947 141.426407,245.092239 135.357010,246.993774 
	C140.258835,246.826996 144.953415,245.492630 149.740585,244.782043 
	C151.727570,244.487091 153.912430,245.525070 155.683777,246.117798 
	C140.189117,252.945496 124.603149,256.055420 108.067764,252.276581 
	C101.987228,250.886993 95.780838,250.048126 89.336243,248.768784 
	C83.452812,246.747711 77.184616,245.993652 74.529526,239.086914 
	C74.135750,235.106079 74.222282,231.376740 73.357231,227.882996 
	C70.422935,216.032028 72.056023,204.510605 75.341003,193.082443 
	C77.203842,186.601776 79.911079,180.279678 77.924171,173.315643 
	C78.215744,158.517456 84.228401,154.391525 100.247543,151.050125 
	C103.160133,150.442596 106.169411,150.298676 109.713402,150.180145 
	C110.858139,150.033829 111.423523,149.648102 111.988907,149.262390 
M95.003250,229.365356 
	C96.466995,233.852570 99.991425,235.573517 103.707825,234.245285 
	C101.119652,231.549026 98.295517,228.606934 95.379303,225.568924 
	C95.974686,225.008743 95.423958,225.280029 95.333809,225.660446 
	C95.110031,226.604813 95.096481,227.598969 95.003250,229.365356 
M83.866043,170.917343 
	C83.505280,170.231918 83.144524,169.546494 82.579384,168.472763 
	C81.263184,176.663162 83.815498,180.714661 89.755058,181.354340 
	C87.953087,178.290924 85.990509,174.954483 83.866043,170.917343 
z"/>
<path fill="#979796" opacity="1.000000" stroke="none" 
	d="
M430.002991,242.982269 
	C437.796265,244.366409 445.590668,245.744415 453.382599,247.135986 
	C469.138397,249.949814 483.983521,246.826965 499.027527,240.107788 
	C500.859222,239.920197 501.966583,239.887634 503.073914,239.855072 
	C509.655212,239.851578 516.274597,240.228409 522.790955,239.576263 
	C524.413574,239.413864 525.703613,235.928162 527.470032,233.589783 
	C528.388123,234.131973 529.187988,234.981293 529.546326,235.987762 
	C534.206299,249.078629 542.531738,259.652924 552.060303,269.497162 
	C558.703491,276.360474 565.893616,280.781677 576.088806,279.056488 
	C582.786377,277.923126 585.464233,276.312592 587.056641,269.631134 
	C587.734009,266.788879 588.316589,263.924011 588.942261,261.069458 
	C591.053467,266.105896 593.164673,271.142303 594.888550,276.705658 
	C589.638428,283.247040 583.264282,286.109009 575.637390,287.056854 
	C563.814453,288.526276 552.093140,290.899200 540.248291,292.086029 
	C520.315979,294.083252 500.324188,295.496460 480.350098,297.062195 
	C470.914703,297.801788 463.605713,293.191986 457.545380,286.732239 
	C453.719971,282.654663 450.537933,277.873169 447.607208,273.077454 
	C441.548096,263.162476 435.849731,253.027023 430.002991,242.982269 
z"/>
<path fill="#F2B994" opacity="1.000000" stroke="none" 
	d="
M184.991959,241.950012 
	C185.018021,241.453857 184.984329,240.945908 185.079498,240.463394 
	C185.904251,236.282486 188.351364,232.081039 184.299240,228.075531 
	C183.603287,227.387604 184.066528,225.527039 184.274139,223.645386 
	C184.802872,222.728333 185.051773,222.374039 185.613129,221.946930 
	C189.391922,218.810883 192.858261,215.747620 196.993820,212.092972 
	C194.692520,212.092972 192.883759,211.743195 191.285294,212.173874 
	C188.806824,212.841675 186.471725,214.041550 183.963623,214.633789 
	C182.135895,204.015961 180.420380,193.780212 178.882339,183.214264 
	C182.996216,180.271164 186.932632,177.658249 190.869049,175.045334 
	C198.661118,177.421906 205.488297,181.324112 210.971100,187.472382 
	C216.593704,193.777390 218.678650,201.436081 218.860275,209.530121 
	C218.996902,215.618378 219.944687,220.879791 223.325470,226.346603 
	C228.000198,233.905685 231.366913,242.353775 234.620529,250.684097 
	C236.876602,256.460449 240.322617,260.965698 244.653290,265.277618 
	C253.584656,274.170319 262.084595,283.496979 270.737091,292.668610 
	C272.789673,294.844299 274.743927,297.112793 276.479248,299.691284 
	C269.972900,299.188049 263.915344,299.124451 258.704620,304.165283 
	C256.345306,307.184875 254.301987,310.089996 252.258652,312.995148 
	C245.458923,309.963501 238.659180,306.931885 231.421677,303.493958 
	C228.036346,300.380096 225.088776,297.672607 221.978241,294.668030 
	C207.453583,280.800537 197.603943,264.125122 188.845032,246.673431 
	C187.955399,244.900848 186.294800,243.515213 184.991959,241.950012 
M212.106796,253.280426 
	C212.193344,253.330002 212.279877,253.379578 212.366409,253.429153 
	C212.244675,253.285706 212.122940,253.142242 211.931335,252.303406 
	C206.228027,243.681763 200.524734,235.060104 194.004868,225.204041 
	C194.918106,228.904892 195.170563,231.370697 196.122559,233.527786 
	C199.616547,241.444550 204.138779,248.606720 212.106796,253.280426 
M230.727676,253.473312 
	C230.727676,252.627914 230.727676,251.782516 230.727676,250.672424 
	C227.400772,253.877075 223.812729,256.712769 228.463654,260.997589 
	C229.115799,258.702972 229.765137,256.418182 230.727676,253.473312 
z"/>
<path fill="#F1B993" opacity="1.000000" stroke="none" 
	d="
M588.952759,260.638641 
	C588.316589,263.924011 587.734009,266.788879 587.056641,269.631134 
	C585.464233,276.312592 582.786377,277.923126 576.088806,279.056488 
	C565.893616,280.781677 558.703491,276.360474 552.060303,269.497162 
	C542.531738,259.652924 534.206299,249.078629 529.546326,235.987762 
	C529.187988,234.981293 528.388123,234.131973 527.454468,233.205017 
	C527.907288,229.184952 529.432190,225.148163 526.134583,221.394455 
	C525.766663,220.975632 526.500305,219.589066 527.141724,218.125961 
	C528.436646,216.573273 529.312988,215.545959 530.574768,214.066772 
	C532.990295,237.618683 536.719849,244.191330 546.604614,242.216583 
	C540.794189,238.240784 535.647949,233.545959 535.522095,226.473419 
	C535.405823,219.934021 529.508728,212.173065 538.653809,206.542953 
	C536.759521,206.083786 534.900879,205.634354 533.410217,206.183670 
	C530.842896,207.129715 528.504761,208.697556 525.940552,209.627045 
	C523.983093,198.629211 522.155579,188.008774 520.683105,177.225357 
	C526.285889,172.705063 531.533630,168.347763 536.871338,164.432281 
	C537.017151,182.804245 544.992493,194.502335 561.037598,200.656952 
	C560.870117,205.085968 560.714355,209.064240 560.244324,212.977768 
	C558.798096,212.659866 557.666138,212.406708 556.534119,212.153534 
	C556.202271,212.400879 555.870361,212.648224 555.538513,212.895554 
	C561.816833,218.786850 561.733826,224.715714 558.488525,232.196182 
	C556.200073,237.471130 557.182495,244.165115 556.704590,250.225525 
	C557.316528,250.272614 557.928467,250.319687 558.540344,250.366760 
	C558.873901,247.212036 558.888855,243.982880 559.605103,240.917572 
	C561.258484,233.841125 563.252075,226.844177 565.408569,219.667847 
	C567.967285,213.283432 570.225159,207.046158 572.550537,200.552841 
	C573.420471,200.053818 574.222900,199.810822 575.406006,199.455383 
	C583.538086,197.137268 589.535095,192.555206 594.349915,186.106934 
	C594.549377,188.525940 594.378601,190.733948 594.252747,192.944534 
	C594.113037,195.397202 594.014221,197.852173 593.897583,200.306152 
	C593.571777,202.382996 593.019287,204.453094 592.957275,206.537796 
	C592.588562,218.920898 592.601440,231.322205 591.918457,243.686035 
	C591.612122,249.230789 589.988953,254.702805 588.952759,260.638641 
M553.594482,209.517410 
	C553.594482,209.517410 553.481201,209.584885 553.594482,209.517410 
z"/>
<path fill="#CECECC" opacity="1.000000" stroke="none" 
	d="
M429.666443,242.833572 
	C435.849731,253.027023 441.548096,263.162476 447.607208,273.077454 
	C450.537933,277.873169 453.719971,282.654663 457.545380,286.732239 
	C463.605713,293.191986 470.914703,297.801788 480.350098,297.062195 
	C500.324188,295.496460 520.315979,294.083252 540.248291,292.086029 
	C552.093140,290.899200 563.814453,288.526276 575.637390,287.056854 
	C583.264282,286.109009 589.638428,283.247040 594.829285,277.125977 
	C597.108276,284.256653 592.319336,293.888306 585.277893,295.298676 
	C566.132507,299.133331 546.890137,302.483124 527.690918,306.050537 
	C525.581482,306.442505 523.502747,306.999359 520.817383,307.739380 
	C513.496216,309.058502 506.767426,310.117981 499.620422,311.118591 
	C496.152893,311.429321 493.103516,311.798920 489.636841,312.132141 
	C485.278107,312.527863 481.336700,312.959991 476.942566,313.288391 
	C470.669983,311.962524 464.741699,311.107971 459.056030,309.430847 
	C450.846985,307.009369 443.955353,302.390076 439.847412,294.617035 
	C435.348480,286.104156 431.362671,277.319397 426.835205,268.822601 
	C423.624878,262.797607 419.853241,257.083313 412.969788,252.534744 
	C412.969788,261.616974 412.961243,269.563110 412.971680,277.509247 
	C412.989319,290.925201 411.795258,304.497772 417.582672,317.203613 
	C404.385132,318.075958 401.923309,316.416840 398.126160,304.065186 
	C397.781036,297.003540 397.523315,290.351257 397.001862,283.719727 
	C396.902527,282.456085 395.761230,281.274414 395.100677,280.054932 
	C396.064240,273.845367 396.806885,267.591187 398.049530,261.437988 
	C399.471405,254.397354 401.337585,247.446426 403.447571,240.062332 
	C407.971771,237.774414 412.059082,235.880676 416.146393,233.986938 
	C419.409241,238.601471 423.602661,241.805542 429.666443,242.833572 
z"/>
<path fill="#292929" opacity="1.000000" stroke="none" 
	d="
M97.005295,392.177002 
	C94.497009,390.830933 91.988708,389.484894 89.019859,387.637817 
	C83.755768,384.060333 78.952225,380.983826 74.080872,377.581421 
	C73.328613,376.169067 72.644157,375.082611 71.904770,373.740051 
	C71.565575,373.302002 71.281311,373.120056 71.014191,372.971558 
	C71.031334,373.005005 71.101089,372.977081 71.102493,372.607819 
	C68.421844,369.265015 66.287216,365.102112 62.944637,363.563538 
	C55.816929,360.282623 51.973301,354.935852 49.622578,347.517029 
	C48.784042,342.376923 47.926231,337.684662 47.068420,332.992401 
	C46.885929,325.972687 46.945484,319.017761 52.762459,313.034027 
	C54.216881,311.679474 55.199306,310.768005 56.367668,310.170593 
	C58.920292,320.259064 62.021095,322.967651 70.984818,323.031433 
	C72.646072,323.043243 74.308212,322.931671 76.434402,322.943481 
	C85.694359,322.662811 94.492096,322.364105 103.284714,321.955383 
	C112.559631,321.524292 121.829681,320.988281 131.483093,320.544312 
	C132.874817,320.437408 133.885284,320.284271 134.947784,320.660492 
	C134.620789,330.482635 134.241776,339.775391 133.541107,348.990631 
	C129.679276,344.552612 123.380234,341.343170 127.142395,333.951630 
	C127.193314,333.938690 127.097992,333.971161 126.657776,334.140198 
	C122.898674,334.812347 119.484467,335.347961 117.601219,335.643402 
	C119.789040,338.179199 122.869141,341.196960 125.278587,344.678802 
	C128.430862,349.234161 131.053101,354.156311 133.949905,359.271912 
	C133.994537,360.095642 133.992599,360.568115 133.524231,361.052673 
	C126.750046,361.392029 120.389969,361.318817 114.146057,362.134613 
	C103.089348,363.579193 96.566513,370.434845 96.126747,380.784241 
	C95.966202,384.562561 96.686729,388.378326 97.005295,392.177002 
z"/>
<path fill="#292929" opacity="1.000000" stroke="none" 
	d="
M398.121948,304.481781 
	C401.923309,316.416840 404.385132,318.075958 418.043762,317.278748 
	C438.303986,316.457123 457.646454,315.646301 477.020966,315.315186 
	C476.625702,324.898254 476.198395,334.001709 475.446228,343.037659 
	C467.960297,337.225555 466.980865,334.985565 469.163239,328.956635 
	C469.198273,328.924072 469.090210,328.950928 468.575653,328.978302 
	C465.443298,329.458282 462.717407,329.937805 459.719086,330.465240 
	C466.268555,334.645599 468.570770,341.715302 472.046814,348.010376 
	C473.020599,349.773834 474.499786,351.258209 475.831787,353.307373 
	C475.939728,354.337830 475.962982,354.931488 475.557312,355.475067 
	C472.830627,355.387299 470.532898,355.349609 468.022522,355.201050 
	C467.462097,355.034241 467.173157,355.139648 466.538513,355.474670 
	C464.767334,355.620148 463.400757,355.697266 461.925568,355.635803 
	C461.533722,355.617188 461.250519,355.737183 460.557068,355.917664 
	C443.633881,357.737061 436.579590,365.646515 438.085205,380.795898 
	C438.280426,382.760193 438.781097,384.694153 439.140320,386.642151 
	C436.314911,385.124115 433.489532,383.606049 430.130249,381.729614 
	C425.111969,378.555695 420.627502,375.740143 416.083405,372.584717 
	C415.126709,370.450623 414.229675,368.656433 413.226257,366.520752 
	C410.158661,363.201294 407.707794,359.056580 404.128723,357.491089 
	C396.927429,354.341064 393.755096,348.754944 391.521790,341.529541 
	C390.612213,336.724426 389.774353,332.352417 388.936493,327.980377 
	C388.649994,320.685425 389.105408,313.574860 394.536133,307.250244 
	C396.082672,306.114349 397.102295,305.298065 398.121948,304.481781 
M456.621918,329.479431 
	C456.837921,329.533203 457.053955,329.586975 457.269958,329.640717 
	C457.132385,329.510406 456.994781,329.380096 456.621918,329.479431 
z"/>
<path fill="#CECECC" opacity="1.000000" stroke="none" 
	d="
M134.895767,320.131134 
	C133.885284,320.284271 132.874817,320.437408 131.459076,320.179932 
	C130.034164,319.167511 129.072800,318.187866 127.986168,318.020233 
	C109.726105,315.203369 97.897873,304.979736 91.161469,287.800110 
	C88.044121,279.850067 83.265991,272.522308 78.923187,265.098267 
	C77.511147,262.684326 75.091507,260.859833 73.132721,258.765778 
	C72.684853,258.944946 72.236992,259.124115 71.789124,259.303284 
	C71.532974,261.148438 71.067154,262.992218 71.054825,264.838989 
	C70.977058,276.482361 70.571587,288.148071 71.160393,299.761475 
	C71.481400,306.092865 73.528465,312.339294 74.834648,318.616211 
	C75.133644,320.053040 75.587410,321.457611 75.969940,322.877045 
	C74.308212,322.931671 72.646072,323.043243 70.984818,323.031433 
	C62.021095,322.967651 58.920292,320.259064 56.370453,309.710327 
	C55.894054,297.467224 55.600815,285.998444 55.307579,274.529694 
	C56.106907,264.854126 56.796265,255.155746 61.631378,245.822479 
	C66.243736,243.428619 70.408745,241.437500 74.573746,239.446381 
	C77.184616,245.993652 83.452812,246.747711 89.478554,249.111496 
	C90.839088,251.216263 91.746170,252.798386 92.686790,254.360306 
	C99.448601,265.588745 105.772697,277.114136 113.112923,287.951141 
	C119.989944,298.104279 129.573441,304.187073 142.630814,303.108063 
	C149.568939,302.534729 156.586365,302.792328 163.495758,302.024750 
	C183.064178,299.850952 202.595367,297.342010 222.141220,294.965088 
	C225.088776,297.672607 228.036346,300.380096 231.081055,303.395325 
	C215.190674,306.475372 199.200104,309.230682 183.222397,312.058472 
	C182.162949,312.246002 181.201141,312.985138 179.645538,313.759094 
	C177.358047,313.809479 175.541199,313.122406 173.894089,313.409424 
	C168.528061,314.344421 163.224045,315.635284 157.474091,316.734314 
	C154.054077,317.181732 151.056122,317.683990 147.641571,318.153748 
	C143.115234,318.791229 139.005508,319.461182 134.895767,320.131134 
z"/>
<path fill="#FBC9A2" opacity="1.000000" stroke="none" 
	d="
M191.039795,174.711212 
	C186.932632,177.658249 182.996216,180.271164 178.566467,183.026932 
	C176.683807,182.677505 175.294464,182.185242 173.687286,181.464874 
	C164.185287,176.837952 157.962875,170.472641 160.335815,157.967041 
	C155.855820,167.451706 152.050842,175.507263 148.245880,183.562836 
	C148.604614,183.740616 148.963348,183.918411 149.322083,184.096191 
	C152.031067,179.772247 154.740036,175.448303 157.030441,171.792480 
	C160.882660,176.194138 164.089767,180.002701 167.469147,183.651718 
	C168.894165,185.190460 170.682449,186.392822 172.409698,188.145630 
	C172.849579,195.500443 170.026642,201.371338 166.494873,207.131683 
	C162.337662,213.912109 155.706772,214.658615 151.152939,207.959229 
	C147.845428,203.093399 145.250641,197.609314 143.130844,192.096069 
	C137.724457,178.034866 132.762039,163.802963 127.621979,149.639343 
	C132.889053,147.129227 138.156128,144.619110 144.194794,141.937592 
	C150.021408,141.204712 155.883286,143.177368 158.716782,136.192322 
	C159.269455,134.829865 163.397919,134.339874 165.742035,134.611740 
	C166.509659,134.700775 167.070084,138.451035 167.315811,140.574326 
	C167.513687,142.284088 167.094711,144.065247 166.857056,146.926926 
	C172.640152,144.325363 177.823074,142.639954 182.278900,139.809799 
	C186.847610,136.907959 191.348999,137.742828 194.981720,139.873886 
	C200.137909,142.898651 204.444626,147.371490 209.114334,151.225540 
	C207.682632,152.980789 206.582443,155.315094 204.747360,156.365677 
	C201.367691,158.300491 200.343765,161.161850 200.038483,164.589493 
	C199.684738,168.561264 199.337708,172.347153 193.811523,172.212936 
	C192.962555,172.192322 192.078430,173.619492 191.039795,174.711212 
M145.157349,187.949966 
	C144.616058,187.875473 144.074768,187.800980 143.533478,187.726486 
	C144.392075,189.047165 145.514816,189.627213 146.593277,190.280380 
	C147.715393,190.960007 148.889465,191.599884 149.877014,192.447922 
	C155.257263,197.068192 156.304077,196.869019 160.287338,190.028152 
	C159.308640,190.110474 158.254501,189.873474 157.772598,190.293320 
	C154.957504,192.745880 152.468399,191.994873 149.818344,189.988464 
	C148.663177,189.113876 147.160461,188.698334 145.157349,187.949966 
z"/>
<path fill="#FBC9A2" opacity="1.000000" stroke="none" 
	d="
M536.781372,163.990448 
	C531.533630,168.347763 526.285889,172.705063 520.367920,177.138931 
	C518.185486,176.844299 516.673279,176.473114 514.848999,175.937592 
	C505.598419,170.850494 499.298096,164.436493 501.899628,153.207596 
	C498.503662,160.366241 495.107697,167.524887 491.711731,174.683533 
	C491.974335,174.779221 492.236969,174.874924 492.499573,174.970627 
	C495.067963,171.828003 497.636353,168.685379 500.556000,165.112976 
	C501.956696,173.636169 507.852661,177.529221 514.227539,181.488678 
	C514.960022,189.487823 512.010925,195.848007 508.075226,202.034698 
	C504.191559,208.139572 498.513336,209.217606 494.040924,203.438797 
	C490.443481,198.790604 487.570679,193.343094 485.450165,187.836731 
	C479.894196,173.409561 474.925537,158.756226 469.722839,144.193024 
	C474.879974,141.559448 480.037109,138.925873 485.966309,136.181030 
	C490.370819,136.069748 494.003296,136.069748 497.326904,136.069748 
	C498.367645,134.002899 498.738770,131.868866 499.934875,131.191467 
	C502.187012,129.915939 504.914886,129.480377 507.444977,128.695633 
	C508.059906,130.740997 508.927124,132.752136 509.210846,134.842453 
	C509.442413,136.548706 508.976929,138.349564 508.802063,140.315491 
	C510.140076,140.315491 511.047333,140.575378 511.691528,140.273651 
	C516.149658,138.185669 520.465027,135.765106 525.012695,133.908157 
	C527.150940,133.035065 529.697693,132.948471 532.067566,132.898483 
	C538.085999,132.771530 540.125244,139.219147 545.075928,141.357635 
	C542.335144,149.147064 539.558228,156.568771 536.781372,163.990448 
M488.762024,183.574265 
	C488.404327,183.591324 488.046600,183.608398 487.688904,183.625458 
	C488.123077,183.753128 488.557281,183.880798 489.285980,184.615936 
	C495.821716,191.636566 495.821716,191.636566 503.335022,184.115891 
	C502.480743,184.115891 501.554535,183.841919 501.259918,184.157486 
	C497.588104,188.091339 494.057892,186.385147 490.466644,184.072510 
	C490.110199,183.842957 489.498688,184.009415 488.762024,183.574265 
M491.753937,177.820023 
	C491.588654,177.875992 491.423340,177.931961 491.258057,177.987930 
	C491.424042,178.041794 491.590027,178.095657 491.753937,177.820023 
z"/>
<path fill="#404241" opacity="1.000000" stroke="none" 
	d="
M536.871338,164.432281 
	C539.558228,156.568771 542.335144,149.147064 545.422363,141.312927 
	C551.823059,137.933228 557.913391,134.965958 564.003723,131.998688 
	C567.810242,132.350952 571.616699,132.703201 575.863464,133.591721 
	C576.789368,134.564117 577.217529,135.098114 577.768982,135.422226 
	C596.398560,146.370605 599.015991,173.683914 586.750122,189.183380 
	C583.560608,193.213684 578.971497,196.136368 575.025269,199.567810 
	C574.222900,199.810822 573.420471,200.053818 572.111938,200.370270 
	C568.087036,200.364578 564.568237,200.285385 561.049438,200.206192 
	C544.992493,194.502335 537.017151,182.804245 536.871338,164.432281 
M559.834961,172.004776 
	C560.825073,171.938553 561.920166,172.124252 562.787170,171.762802 
	C566.700439,170.131302 567.934692,166.556076 566.701660,163.158218 
	C565.859619,160.837952 563.060974,158.097015 560.758789,157.691299 
	C556.905762,157.012299 554.920349,160.496857 554.349121,163.945007 
	C553.739075,167.627106 555.695618,170.286942 559.834961,172.004776 
z"/>
<path fill="#2A2929" opacity="1.000000" stroke="none" 
	d="
M500.038635,311.177429 
	C506.767426,310.117981 513.496216,309.058502 520.580322,308.054810 
	C534.495361,319.153503 548.055115,330.196442 561.265503,341.645264 
	C555.254883,346.023254 549.308167,349.649811 543.992493,354.040527 
	C533.421143,362.772552 523.197083,371.925079 512.829590,380.903931 
	C508.591431,383.093506 505.926849,388.665771 499.439209,386.407806 
	C499.037018,376.905670 499.060547,367.930603 499.538086,358.971069 
	C512.475098,359.225586 524.514709,357.061829 537.348816,352.611023 
	C523.751770,353.470795 511.404724,354.251526 499.040863,354.596619 
	C499.062561,352.418152 499.101074,350.675293 499.537109,348.941467 
	C511.888641,347.412842 523.842712,345.875153 535.796753,344.337463 
	C535.768494,343.964172 535.740234,343.590851 535.711975,343.217560 
	C523.523865,344.168213 511.335754,345.118896 499.109985,345.620605 
	C499.372101,342.113342 499.671936,339.055084 500.409729,335.999329 
	C507.904175,335.653259 514.729248,334.608582 520.627319,330.078461 
	C513.528137,331.082306 506.761169,332.039154 499.990479,332.527710 
	C500.004089,325.098724 500.021362,318.138092 500.038635,311.177429 
M523.591858,328.517944 
	C523.591858,328.517944 523.475403,328.587463 523.591858,328.517944 
z"/>
<path fill="#2A2929" opacity="1.000000" stroke="none" 
	d="
M157.896164,316.789185 
	C163.224045,315.635284 168.528061,314.344421 173.894089,313.409424 
	C175.541199,313.122406 177.358047,313.809479 179.484253,314.129974 
	C193.125854,324.925964 206.380386,335.642487 219.480377,346.825439 
	C214.307846,350.790039 209.020859,353.963348 204.325287,357.850983 
	C192.943527,367.274384 181.837143,377.030365 170.619781,386.652344 
	C166.581772,389.054199 163.797241,394.166992 157.453308,391.932495 
	C157.028519,382.208008 157.045044,373.087250 157.523438,363.981018 
	C170.899704,364.753326 183.354431,362.884888 195.094376,358.236298 
	C182.525696,358.841309 169.829636,359.452454 157.100296,359.660004 
	C157.344406,357.499023 157.621796,355.741669 158.351776,353.991791 
	C169.169785,352.849762 179.535217,351.700195 189.997360,350.539948 
	C184.411423,348.164612 166.693817,349.015106 157.635834,351.747223 
	C157.581039,347.978271 157.782974,344.494263 158.441635,341.011230 
	C166.281494,341.523132 173.095001,340.050842 178.799805,335.792572 
	C172.007141,336.520203 165.018387,337.268829 158.016815,337.547974 
	C157.968048,330.315399 157.932114,323.552277 157.896164,316.789185 
z"/>
<path fill="#2B2B2B" opacity="1.000000" stroke="none" 
	d="
M209.491302,151.197388 
	C204.444626,147.371490 200.137909,142.898651 194.981720,139.873886 
	C191.348999,137.742828 186.847610,136.907959 182.278900,139.809799 
	C177.823074,142.639954 172.640152,144.325363 166.857056,146.926926 
	C167.094711,144.065247 167.513687,142.284088 167.315811,140.574326 
	C167.070084,138.451035 166.509659,134.700775 165.742035,134.611740 
	C163.397919,134.339874 159.269455,134.829865 158.716782,136.192322 
	C155.883286,143.177368 150.021408,141.204712 144.531876,141.824677 
	C144.205658,140.580566 143.948883,139.101212 144.480377,138.003555 
	C148.454910,129.795471 152.186234,121.430618 156.764954,113.563728 
	C162.872879,103.069450 180.423111,97.992958 191.586990,102.689545 
	C201.485870,106.853951 210.012375,112.993698 216.038834,121.741455 
	C219.107971,126.196510 220.972610,131.924667 221.863205,137.327637 
	C223.037689,144.452850 218.422028,149.077347 209.491302,151.197388 
z"/>
<path fill="#FCCAA3" opacity="1.000000" stroke="none" 
	d="
M170.968796,386.865387 
	C181.837143,377.030365 192.943527,367.274384 204.325287,357.850983 
	C209.020859,353.963348 214.307846,350.790039 219.626678,347.120270 
	C225.360199,351.560211 230.767670,356.201965 236.240158,360.765839 
	C238.009171,362.241028 239.769424,363.950134 241.842178,364.798676 
	C250.294449,368.258728 253.173416,374.774750 253.011536,383.395752 
	C252.810028,394.126526 253.815079,392.644867 243.761261,393.039673 
	C231.998291,393.501556 220.222382,393.982605 208.499710,395.002716 
	C200.296448,395.716583 192.725296,393.514587 185.070587,391.421295 
	C180.436981,390.154114 175.898834,388.537842 170.968796,386.865387 
M205.893936,376.696198 
	C205.798660,376.650085 205.703384,376.603973 205.608109,376.557861 
	C205.731979,376.710602 205.855850,376.863342 206.041641,377.711639 
	C211.605286,385.997345 222.818024,389.205170 230.704300,385.270233 
	C225.208435,383.649780 219.200439,381.975037 213.262238,380.081421 
	C210.770264,379.286774 208.426056,378.028778 205.893936,376.696198 
M203.488083,375.588104 
	C203.488083,375.588104 203.420273,375.476410 203.488083,375.588104 
z"/>
<path fill="#FCCAA3" opacity="1.000000" stroke="none" 
	d="
M513.058533,381.203247 
	C523.197083,371.925079 533.421143,362.772552 543.992493,354.040527 
	C549.308167,349.649811 555.254883,346.023254 561.312988,342.016724 
	C565.582825,344.960785 569.439575,347.960876 573.333435,350.911957 
	C577.672241,354.200226 581.811890,357.834656 586.461853,360.608185 
	C592.270996,364.073151 594.427856,369.208221 594.899780,375.445831 
	C595.087463,377.926544 594.864441,380.435608 594.956177,382.927063 
	C595.065674,385.901611 593.707092,386.961792 590.767944,387.091064 
	C579.173523,387.601105 567.547363,387.903381 556.009155,389.049500 
	C540.965393,390.543793 527.137817,386.204010 513.058533,381.203247 
M549.053894,374.529205 
	C555.867432,380.255859 563.443420,382.577972 571.840515,380.339508 
	C563.385193,377.256348 554.848633,374.143555 545.978516,370.909119 
	C546.923889,372.057159 547.735657,373.042877 549.053894,374.529205 
z"/>
<path fill="#2B2A2A" opacity="1.000000" stroke="none" 
	d="
M563.983521,131.604385 
	C557.913391,134.965958 551.823059,137.933228 545.386292,140.945206 
	C540.125244,139.219147 538.085999,132.771530 532.067566,132.898483 
	C529.697693,132.948471 527.150940,133.035065 525.012695,133.908157 
	C520.465027,135.765106 516.149658,138.185669 511.691528,140.273651 
	C511.047333,140.575378 510.140076,140.315491 508.802063,140.315491 
	C508.976929,138.349564 509.442413,136.548706 509.210846,134.842453 
	C508.927124,132.752136 508.059906,130.740997 507.444977,128.695633 
	C504.914886,129.480377 502.187012,129.915939 499.934875,131.191467 
	C498.738770,131.868866 498.367645,134.002899 497.326904,136.069748 
	C494.003296,136.069748 490.370819,136.069748 486.265442,136.034576 
	C485.794098,135.666504 485.679352,135.274536 485.814056,135.009201 
	C491.121948,124.552818 495.476166,113.434639 502.075226,103.865036 
	C507.815308,95.541115 524.520508,93.266090 533.865601,97.264534 
	C543.582275,101.421982 551.928162,107.564392 557.920166,116.137894 
	C560.940186,120.459106 562.011047,126.142593 563.983521,131.604385 
z"/>
<path fill="#414241" opacity="1.000000" stroke="none" 
	d="
M252.195953,313.414307 
	C254.301987,310.089996 256.345306,307.184875 258.945312,304.429779 
	C263.378387,304.733673 267.723480,303.795593 271.052551,305.224548 
	C288.355957,312.651672 295.592987,327.254272 298.013672,344.997803 
	C299.048492,352.582947 295.509521,358.706573 292.026947,364.887512 
	C284.639069,367.339050 277.905762,365.660522 271.654816,361.490814 
	C256.877502,351.633514 248.558197,331.240570 252.195953,313.414307 
M275.269592,331.367218 
	C274.188690,330.126373 273.294495,328.149353 271.983246,327.816803 
	C270.002899,327.314606 267.731689,327.959412 265.584076,328.116760 
	C266.083954,331.542816 265.817749,335.389465 267.378815,338.232971 
	C268.276764,339.868622 272.750183,341.183350 274.526215,340.343079 
	C277.913361,338.740479 277.162750,335.113556 275.269592,331.367218 
z"/>
<path fill="#414241" opacity="1.000000" stroke="none" 
	d="
M341.069641,339.259949 
	C333.945801,345.716492 326.853973,346.830750 317.984741,342.495941 
	C314.611450,340.847260 311.552979,338.554413 308.327820,335.988892 
	C309.582855,334.638519 310.861084,333.854401 312.480957,333.019775 
	C314.437958,331.900940 315.921631,330.455658 317.693909,329.836945 
	C322.461761,328.172363 322.682678,324.771912 321.646179,320.749420 
	C321.241791,319.180115 320.666718,317.654846 320.507263,315.994385 
	C323.168274,312.521759 321.640442,310.123627 318.853088,307.632568 
	C318.970215,302.316833 316.534485,300.528564 311.725952,300.753754 
	C305.552521,301.042908 299.357361,300.868164 293.171539,300.893219 
	C293.577911,290.385376 297.608856,282.378876 308.914154,279.286804 
	C313.004242,280.603577 316.882996,280.927795 319.891022,282.716339 
	C335.044678,291.726654 343.479126,305.162384 343.859924,322.895905 
	C343.976562,328.328094 342.056854,333.804047 341.069641,339.259949 
z"/>
<path fill="#2476B9" opacity="1.000000" stroke="none" 
	d="
M127.230270,149.604858 
	C132.762039,163.802963 137.724457,178.034866 143.130844,192.096069 
	C145.250641,197.609314 147.845428,203.093399 151.152939,207.959229 
	C155.706772,214.658615 162.337662,213.912109 166.494873,207.131683 
	C170.026642,201.371338 172.849579,195.500443 172.589600,187.792053 
	C173.078644,185.258255 173.491882,183.475601 173.905121,181.692963 
	C175.294464,182.185242 176.683807,182.677505 178.389008,183.357117 
	C180.420380,193.780212 182.135895,204.015961 183.924347,215.028778 
	C184.431763,217.877151 184.866226,219.948441 185.300690,222.019745 
	C185.051773,222.374039 184.802872,222.728333 184.276764,223.255814 
	C180.659500,217.863861 176.686264,213.628616 169.252975,215.622681 
	C167.915512,215.981476 166.294830,215.449127 164.837418,215.162735 
	C161.534195,214.513596 159.190414,215.596008 157.193909,218.378998 
	C150.482361,227.734436 142.031830,229.160156 132.333923,222.613876 
	C127.396133,219.280792 122.631050,215.691864 117.583885,211.764038 
	C118.821579,209.506424 120.263290,207.703354 121.705002,205.900284 
	C127.899612,199.412613 130.815735,191.702713 129.299774,182.824829 
	C128.025955,175.364914 126.045227,168.025681 124.182831,159.939301 
	C123.122108,155.988800 122.256004,152.732025 121.389893,149.475250 
	C123.206116,149.506958 125.022331,149.538666 127.230270,149.604858 
z"/>
<path fill="#2476B9" opacity="1.000000" stroke="none" 
	d="
M469.309540,144.136353 
	C474.925537,158.756226 479.894196,173.409561 485.450165,187.836731 
	C487.570679,193.343094 490.443481,198.790604 494.040924,203.438797 
	C498.513336,209.217606 504.191559,208.139572 508.075226,202.034698 
	C512.010925,195.848007 514.960022,189.487823 514.443970,181.200775 
	C514.792053,179.010071 514.976562,177.556000 515.161133,176.101929 
	C516.673279,176.473114 518.185486,176.844299 520.012817,177.301910 
	C522.155579,188.008774 523.983093,198.629211 525.904968,210.061981 
	C526.015930,212.907028 526.032593,214.939774 526.049194,216.972504 
	C521.425110,208.539474 513.270020,209.661880 505.717102,209.828079 
	C503.480835,209.877304 500.551086,211.269852 499.196686,213.020020 
	C492.214355,222.042664 483.801056,223.551666 474.000122,216.873550 
	C469.064453,213.510513 464.278290,209.928040 459.324402,205.919617 
	C460.768738,203.589767 462.313202,201.785095 463.857666,199.980423 
	C471.383301,192.384018 472.801422,183.063873 470.619995,173.191376 
	C468.513031,163.655945 465.609192,154.296600 463.021240,144.482666 
	C464.956787,144.096848 466.926483,144.088272 469.309540,144.136353 
z"/>
<path fill="#FBC9A2" opacity="1.000000" stroke="none" 
	d="
M97.178329,392.500031 
	C96.686729,388.378326 95.966202,384.562561 96.126747,380.784241 
	C96.566513,370.434845 103.089348,363.579193 114.146057,362.134613 
	C120.389969,361.318817 126.750046,361.392029 133.668579,361.351074 
	C138.155609,366.144531 142.031876,370.651733 145.936310,375.515503 
	C148.380051,381.458221 150.795609,387.044342 153.211151,392.630493 
	C144.945496,393.070282 136.681763,393.551147 128.413651,393.938354 
	C119.979980,394.333374 111.543556,394.779114 103.104736,394.870789 
	C101.194580,394.891541 99.269539,393.541901 97.178329,392.500031 
z"/>
<path fill="#FCC9A2" opacity="1.000000" stroke="none" 
	d="
M468.235138,355.311951 
	C470.532898,355.349609 472.830627,355.387299 475.691589,355.746948 
	C479.811615,360.056152 483.368469,364.043365 487.026245,368.376312 
	C489.612244,374.667999 492.097290,380.613892 494.582336,386.559753 
	C489.804016,387.017914 485.034760,387.683014 480.245544,387.893097 
	C468.638916,388.402222 457.024597,388.794647 445.409271,388.988647 
	C443.463531,389.021118 441.497253,387.823151 439.340393,386.917938 
	C438.781097,384.694153 438.280426,382.760193 438.085205,380.795898 
	C436.579590,365.646515 443.633881,357.737061 460.829803,355.975830 
	C461.686554,355.907135 461.860382,355.840790 462.034180,355.774414 
	C463.400757,355.697266 464.767334,355.620148 466.746582,355.609558 
	C467.724854,355.731873 468.016815,355.610504 468.235138,355.311951 
z"/>
<path fill="#404241" opacity="1.000000" stroke="none" 
	d="
M594.297852,200.305328 
	C594.014221,197.852173 594.113037,195.397202 594.252747,192.944534 
	C594.378601,190.733948 594.549377,188.525940 594.370972,185.778320 
	C594.710938,184.159439 595.380249,183.079041 596.401855,181.980026 
	C599.757019,177.667923 603.256836,173.631165 605.640564,169.017761 
	C608.808960,162.885803 603.771484,154.076599 596.772095,152.799316 
	C594.385986,146.912476 591.631104,141.731598 586.219971,138.400116 
	C585.543274,137.983459 585.375671,136.739853 584.972168,135.879425 
	C591.566772,131.116745 598.919067,131.957794 606.750244,133.510651 
	C607.580139,134.545990 607.841858,135.302277 608.352234,135.553467 
	C626.908142,144.686234 630.354919,174.174637 617.764526,188.905914 
	C615.463013,191.598709 613.318726,194.425827 611.101929,197.190948 
	C611.101929,197.190948 611.086670,197.087723 610.773438,197.056381 
	C608.990723,197.902695 607.521118,198.780334 606.051575,199.657990 
	C602.267090,199.873489 598.482544,200.088989 594.297852,200.305328 
z"/>
<path fill="#434544" opacity="1.000000" stroke="none" 
	d="
M494.925049,386.715851 
	C492.097290,380.613892 489.612244,374.667999 487.348267,368.110596 
	C488.034363,363.092377 488.760803,358.694885 488.916229,354.277283 
	C489.410034,340.245087 489.690948,326.205353 490.054199,312.168518 
	C493.103516,311.798920 496.152893,311.429321 499.620422,311.118591 
	C500.021362,318.138092 500.004089,325.098724 499.975098,332.902679 
	C499.966187,334.496246 499.968994,335.246521 499.971802,335.996796 
	C499.671936,339.055084 499.372101,342.113342 499.073486,345.977112 
	C499.096313,347.499176 499.117950,348.215820 499.139587,348.932434 
	C499.101074,350.675293 499.062561,352.418152 499.024170,354.988708 
	C499.044250,356.862793 499.064178,357.909180 499.084076,358.955566 
	C499.060547,367.930603 499.037018,376.905670 499.023102,386.335724 
	C497.777710,386.817810 496.522736,386.844849 494.925049,386.715851 
z"/>
<path fill="#444545" opacity="1.000000" stroke="none" 
	d="
M153.542572,392.653687 
	C150.795609,387.044342 148.380051,381.458221 145.981689,375.050720 
	C146.685318,355.548340 147.371735,336.867279 148.058167,318.186218 
	C151.056122,317.683990 154.054077,317.181732 157.474091,316.734314 
	C157.932114,323.552277 157.968048,330.315399 157.996124,337.921295 
	C157.987137,339.512817 157.986038,340.261505 157.984924,341.010223 
	C157.782974,344.494263 157.581039,347.978271 157.646057,352.072205 
	C157.908417,353.116150 157.903793,353.550232 157.899185,353.984283 
	C157.621796,355.741669 157.344406,357.499023 157.063232,360.048096 
	C157.060150,361.882019 157.060867,362.924255 157.061584,363.966492 
	C157.045044,373.087250 157.028519,382.208008 157.031860,391.817810 
	C155.992493,392.430206 154.933243,392.553558 153.542572,392.653687 
z"/>
<path fill="#1B1A1A" opacity="1.000000" stroke="none" 
	d="
M292.379639,364.878662 
	C295.509521,358.706573 299.048492,352.582947 298.013672,344.997803 
	C295.592987,327.254272 288.355957,312.651672 271.052551,305.224548 
	C267.723480,303.795593 263.378387,304.733673 259.261292,304.315338 
	C263.915344,299.124451 269.972900,299.188049 276.612183,299.995300 
	C279.745850,301.222778 282.482391,302.498932 285.700989,304.165680 
	C289.607056,307.614838 293.031097,310.673340 296.460052,313.735046 
	C296.464966,313.738190 296.402161,313.822144 296.503662,314.191650 
	C299.671265,321.683746 302.737366,328.806366 305.803467,335.928986 
	C305.554230,340.717377 305.850098,345.613892 304.927124,350.268677 
	C303.567108,357.127747 299.558136,362.309326 292.379639,364.878662 
z"/>
<path fill="#979696" opacity="1.000000" stroke="none" 
	d="
M391.593475,341.962646 
	C393.755096,348.754944 396.927429,354.341064 404.128723,357.491089 
	C407.707794,359.056580 410.158661,363.201294 412.979065,366.785706 
	C408.545746,366.253998 404.253235,365.115784 399.960693,363.977570 
	C390.837524,360.094025 381.778503,356.048798 372.564850,352.393341 
	C367.762726,350.488159 366.112091,348.072083 368.575775,343.050446 
	C370.277039,339.582886 371.071411,335.670349 372.743347,332.193939 
	C379.341614,335.608368 385.467560,338.785492 391.593475,341.962646 
z"/>
<path fill="#979796" opacity="1.000000" stroke="none" 
	d="
M49.603302,347.964905 
	C51.973301,354.935852 55.816929,360.282623 62.944637,363.563538 
	C66.287216,365.102112 68.421844,369.265015 70.707169,372.631409 
	C66.213951,371.682159 62.117466,370.339996 58.020973,368.997864 
	C48.404984,365.034851 38.826015,360.978210 29.154753,357.154999 
	C25.301659,355.631836 24.875095,353.419037 26.247414,349.809875 
	C27.646236,346.131012 28.416924,342.213318 30.007473,338.239807 
	C36.902641,341.374573 43.252968,344.669739 49.603302,347.964905 
z"/>
<path fill="#2C7AB9" opacity="1.000000" stroke="none" 
	d="
M74.529526,239.086914 
	C70.408745,241.437500 66.243736,243.428619 61.789963,245.440674 
	C65.299370,225.940079 68.978706,206.394104 72.985039,186.915375 
	C73.907143,182.432114 75.951271,178.179611 77.701614,173.568283 
	C79.911079,180.279678 77.203842,186.601776 75.341003,193.082443 
	C72.056023,204.510605 70.422935,216.032028 73.357231,227.882996 
	C74.222282,231.376740 74.135750,235.106079 74.529526,239.086914 
z"/>
<path fill="#2C7AB9" opacity="1.000000" stroke="none" 
	d="
M416.160522,233.529266 
	C412.059082,235.880676 407.971771,237.774414 403.561707,239.684174 
	C407.169617,220.041290 410.996338,200.360535 415.124115,180.743103 
	C415.893005,177.088882 417.871429,173.689178 419.626526,170.036987 
	C419.619141,173.772903 419.910278,177.832657 418.822693,181.481415 
	C414.593231,195.670441 411.826141,209.846619 415.591339,224.631882 
	C416.275970,227.320297 416.004669,230.252106 416.160522,233.529266 
z"/>
<path fill="#656766" opacity="1.000000" stroke="none" 
	d="
M399.841736,364.346558 
	C404.253235,365.115784 408.545746,366.253998 413.085449,367.127258 
	C414.229675,368.656433 415.126709,370.450623 415.889526,372.944336 
	C414.846832,378.806122 413.938324,383.968292 413.029846,389.130493 
	C407.113556,389.130493 401.197266,389.130493 394.651825,389.130493 
	C396.377655,380.821259 398.050232,372.768433 399.841736,364.346558 
z"/>
<path fill="#656766" opacity="1.000000" stroke="none" 
	d="
M57.972828,369.390411 
	C62.117466,370.339996 66.213951,371.682159 70.705765,373.000671 
	C71.101089,372.977081 71.031334,373.005005 71.109642,373.199707 
	C71.387207,373.669342 71.644463,373.869934 71.959702,373.996155 
	C72.644157,375.082611 73.328613,376.169067 74.014984,377.993805 
	C73.025787,384.090210 72.034683,389.448334 71.043579,394.806427 
	C65.108978,394.806427 59.174385,394.806427 52.738628,394.806427 
	C54.516098,386.229858 56.220387,378.006439 57.972828,369.390411 
z"/>
<path fill="#212121" opacity="1.000000" stroke="none" 
	d="
M341.382111,339.121735 
	C342.056854,333.804047 343.976562,328.328094 343.859924,322.895905 
	C343.479126,305.162384 335.044678,291.726654 319.891022,282.716339 
	C316.882996,280.927795 313.004242,280.603577 309.279053,279.331970 
	C316.483459,276.836517 323.273529,278.854889 329.328735,283.007874 
	C343.306885,292.594879 349.899902,306.036163 348.870392,323.008667 
	C348.497375,329.158051 346.191284,334.604218 341.382111,339.121735 
z"/>
<path fill="#212121" opacity="1.000000" stroke="none" 
	d="
M611.477783,197.175507 
	C613.318726,194.425827 615.463013,191.598709 617.764526,188.905914 
	C630.354919,174.174637 626.908142,144.686234 608.352234,135.553467 
	C607.841858,135.302277 607.580139,134.545990 607.130249,133.708176 
	C620.686401,137.187500 630.234924,149.900070 630.782043,164.976532 
	C631.295959,179.136490 623.132446,193.016678 611.477783,197.175507 
z"/>
<path fill="#1B1A1A" opacity="1.000000" stroke="none" 
	d="
M584.584473,135.927902 
	C585.375671,136.739853 585.543274,137.983459 586.219971,138.400116 
	C591.631104,141.731598 594.385986,146.912476 596.748779,153.196899 
	C597.697388,156.475616 599.138245,159.218597 598.919678,161.822296 
	C598.352417,168.580429 597.055359,175.277313 596.049561,181.998657 
	C595.380249,183.079041 594.710938,184.159439 594.020508,185.568451 
	C589.535095,192.555206 583.538086,197.137268 575.406006,199.455383 
	C578.971497,196.136368 583.560608,193.213684 586.750122,189.183380 
	C599.015991,173.683914 596.398560,146.370605 577.768982,135.422226 
	C577.217529,135.098114 576.789368,134.564117 576.182251,133.792175 
	C578.772705,134.296387 581.484741,135.136383 584.584473,135.927902 
z"/>
<path fill="#EDB692" opacity="1.000000" stroke="none" 
	d="
M296.455139,313.731873 
	C293.031097,310.673340 289.607056,307.614838 286.034424,304.239014 
	C288.062744,302.953857 290.239624,301.986023 292.794006,300.955688 
	C299.357361,300.868164 305.552521,301.042908 311.725952,300.753754 
	C316.534485,300.528564 318.970215,302.316833 318.596741,307.761719 
	C317.622467,308.877228 316.867950,309.466003 315.717133,310.031097 
	C310.892731,310.005005 309.046326,307.481293 308.129547,303.127136 
	C307.564697,304.835205 306.999878,306.543274 306.599762,307.753235 
	C302.422455,308.781342 298.545685,309.621643 296.455139,313.731873 
z"/>
<path fill="#434544" opacity="1.000000" stroke="none" 
	d="
M71.502640,394.880005 
	C72.034683,389.448334 73.025787,384.090210 74.082787,378.319702 
	C78.952225,380.983826 83.755768,384.060333 88.765251,387.389893 
	C88.007553,389.773865 87.043900,391.904724 85.665131,394.953552 
	C81.653404,394.953552 76.807549,394.953552 71.502640,394.880005 
z"/>
<path fill="#444545" opacity="1.000000" stroke="none" 
	d="
M413.486877,389.227295 
	C413.938324,383.968292 414.846832,378.806122 415.949188,373.284271 
	C420.627502,375.740143 425.111969,378.555695 429.784912,381.644287 
	C427.829681,389.360931 427.829681,389.363281 419.807098,389.359253 
	C417.852692,389.358276 415.898315,389.336365 413.486877,389.227295 
z"/>
<path fill="#CECECC" opacity="1.000000" stroke="none" 
	d="
M49.622574,347.517029 
	C43.252968,344.669739 36.902641,341.374573 30.227617,337.921173 
	C35.345470,336.179779 40.788017,334.596619 46.649490,333.002930 
	C47.926231,337.684662 48.784042,342.376923 49.622574,347.517029 
z"/>
<path fill="#CECECC" opacity="1.000000" stroke="none" 
	d="
M391.521790,341.529541 
	C385.467560,338.785492 379.341614,335.608368 373.116241,332.083588 
	C378.033234,330.472015 383.049683,329.208069 388.501282,327.962280 
	C389.774353,332.352417 390.612213,336.724426 391.521790,341.529541 
z"/>
<path fill="#3B83BD" opacity="1.000000" stroke="none" 
	d="
M55.272202,274.898010 
	C55.600815,285.998444 55.894054,297.467224 56.184509,309.396271 
	C55.199306,310.768005 54.216881,311.679474 53.017391,312.752045 
	C50.852730,300.185577 53.062626,287.727081 55.272202,274.898010 
z"/>
<path fill="#E8B28C" opacity="1.000000" stroke="none" 
	d="
M306.163879,335.930786 
	C302.737366,328.806366 299.671265,321.683746 296.982635,314.250488 
	C298.921906,313.957916 300.483704,313.975952 302.256287,314.102600 
	C302.728271,314.409760 302.905914,314.666168 303.003723,315.337189 
	C303.673889,316.462616 304.340302,317.231323 305.003357,318.000000 
	C305.000000,318.000000 305.000000,317.993378 305.003723,318.373291 
	C306.537933,323.007935 308.047302,327.270569 309.645020,331.499847 
	C309.754456,331.789581 310.524811,331.829651 311.119080,332.223877 
	C311.546661,332.664703 311.842987,332.867462 312.139282,333.070251 
	C310.861084,333.854401 309.582855,334.638519 308.134338,335.712189 
	C307.484161,335.978699 307.004242,335.955658 306.163879,335.930786 
z"/>
<path fill="#3B83BD" opacity="1.000000" stroke="none" 
	d="
M398.126160,304.065186 
	C397.102295,305.298065 396.082672,306.114349 394.752197,306.953430 
	C394.628723,298.288025 394.816162,289.599823 395.052124,280.483276 
	C395.761230,281.274414 396.902527,282.456085 397.001862,283.719727 
	C397.523315,290.351257 397.781036,297.003540 398.126160,304.065186 
z"/>
<path fill="#FBC9A2" opacity="1.000000" stroke="none" 
	d="
M120.978317,149.356506 
	C122.256004,152.732025 123.122108,155.988800 123.975845,159.622223 
	C118.879066,158.456436 118.721024,154.051453 118.056160,149.574478 
	C118.861633,149.236145 119.714188,149.236938 120.978317,149.356506 
z"/>
<path fill="#212121" opacity="1.000000" stroke="none" 
	d="
M606.379211,199.593994 
	C607.521118,198.780334 608.990723,197.902695 610.824341,197.068115 
	C609.694519,197.917465 608.200684,198.723740 606.379211,199.593994 
z"/>
<path fill="#FBC9A2" opacity="1.000000" stroke="none" 
	d="
M111.702957,149.216370 
	C111.423523,149.648102 110.858139,150.033829 110.136055,150.191254 
	C110.458580,149.698746 110.937798,149.434540 111.702957,149.216370 
z"/>
<path fill="#E4AC88" opacity="1.000000" stroke="none" 
	d="
M526.255188,217.096039 
	C526.032593,214.939774 526.015930,212.907028 526.034912,210.439362 
	C528.504761,208.697556 530.842896,207.129715 533.410217,206.183670 
	C534.900879,205.634354 536.759521,206.083786 538.653809,206.542953 
	C529.508728,212.173065 535.405823,219.934021 535.522095,226.473419 
	C535.647949,233.545959 540.794189,238.240784 546.604614,242.216583 
	C536.719849,244.191330 532.990295,237.618683 530.574768,214.066772 
	C529.312988,215.545959 528.436646,216.573273 527.295227,217.791351 
	C526.911926,217.674606 526.722290,217.420441 526.255188,217.096039 
z"/>
<path fill="#E3B08D" opacity="1.000000" stroke="none" 
	d="
M463.598206,199.680069 
	C462.313202,201.785095 460.768738,203.589767 459.079529,205.689484 
	C455.284180,204.616669 451.633575,203.248810 447.982941,201.880951 
	C448.024200,201.563721 448.065430,201.246490 448.106659,200.929260 
	C451.821869,201.189957 455.537048,201.450668 459.981476,201.762543 
	C459.981476,199.478592 460.632629,197.099823 459.856720,195.356018 
	C457.717896,190.549210 459.628113,186.739380 461.605743,182.570450 
	C462.870636,179.903976 463.125977,176.758591 464.599426,173.891342 
	C464.599426,177.170853 465.620453,180.915771 464.382751,183.631119 
	C461.952698,188.962280 463.023651,194.103867 463.598206,199.680069 
z"/>
<path fill="#E8B28C" opacity="1.000000" stroke="none" 
	d="
M503.010773,239.515350 
	C501.966583,239.887634 500.859222,239.920197 499.335205,239.927429 
	C496.453827,239.404053 493.989166,238.906006 491.455231,238.393982 
	C494.851624,233.979630 499.498932,234.351181 503.010773,239.515350 
z"/>
<path fill="#E8B28C" opacity="1.000000" stroke="none" 
	d="
M444.005615,226.884064 
	C445.023193,227.321701 445.692841,227.668396 446.362488,228.015091 
	C446.174347,228.504593 445.986237,228.994080 445.798096,229.483582 
	C443.280304,228.550705 440.046478,228.262924 438.454559,226.495926 
	C436.985291,224.865005 437.277466,221.647232 436.677368,218.521866 
	C439.522858,221.893600 441.590271,224.343353 444.005615,226.884064 
z"/>
<path fill="#E8B28C" opacity="1.000000" stroke="none" 
	d="
M429.982758,175.024445 
	C423.767059,173.117691 423.429596,168.366272 424.218323,162.850845 
	C426.188049,166.768417 428.071594,170.514633 429.979309,174.628799 
	C430.003448,174.996750 429.982758,175.024445 429.982758,175.024445 
z"/>
<path fill="#E8B28C" opacity="1.000000" stroke="none" 
	d="
M488.129486,239.951492 
	C485.681122,240.582489 483.366425,240.887772 481.051697,241.193069 
	C481.011505,240.819199 480.971313,240.445312 480.931152,240.071442 
	C483.375122,239.922882 485.819122,239.774323 488.129486,239.951492 
z"/>
<path fill="#E8B28C" opacity="1.000000" stroke="none" 
	d="
M430.015747,174.984283 
	C430.461517,175.106598 430.895050,175.241409 431.328552,175.376221 
	C430.965179,175.396759 430.601837,175.417297 430.110596,175.231140 
	C429.982758,175.024445 430.003448,174.996750 430.015747,174.984283 
z"/>
<path fill="#979696" opacity="1.000000" stroke="none" 
	d="
M221.978241,294.667999 
	C202.595367,297.342010 183.064178,299.850952 163.495758,302.024750 
	C156.586365,302.792328 149.568939,302.534729 142.630814,303.108063 
	C129.573441,304.187073 119.989944,298.104279 113.112923,287.951141 
	C105.772697,277.114136 99.448601,265.588745 92.686790,254.360306 
	C91.746170,252.798386 90.839088,251.216263 89.774170,249.300781 
	C95.780838,250.048126 101.987228,250.886993 108.067764,252.276581 
	C124.603149,256.055420 140.189117,252.945496 156.020721,246.011078 
	C159.109650,245.777222 161.538071,245.810959 163.966507,245.844696 
	C169.570496,245.694565 175.188416,245.718445 180.768585,245.271118 
	C182.152939,245.160156 183.414917,243.522919 184.862549,242.268616 
	C186.294800,243.515213 187.955399,244.900848 188.845032,246.673431 
	C197.603943,264.125122 207.453583,280.800537 221.978241,294.667999 
z"/>
<path fill="#E3B08D" opacity="1.000000" stroke="none" 
	d="
M121.497444,205.634888 
	C120.263290,207.703354 118.821579,209.506424 117.288673,211.612366 
	C112.802208,210.160416 108.406929,208.405609 104.011658,206.650803 
	C104.063164,206.340637 104.114670,206.030487 104.166168,205.720337 
	C108.564835,206.361038 112.963493,207.001755 118.585510,207.820648 
	C115.178024,197.292374 119.509384,188.239624 123.644638,179.073914 
	C123.221886,182.811768 123.390526,186.749817 122.211830,190.231766 
	C121.007355,193.789841 120.305290,196.933365 121.609085,200.579117 
	C122.103310,201.961121 121.430664,203.760406 121.497444,205.634888 
z"/>
<path fill="#E8B28C" opacity="1.000000" stroke="none" 
	d="
M163.749603,245.601624 
	C161.538071,245.810959 159.109650,245.777222 156.344254,245.850174 
	C153.912430,245.525070 151.727570,244.487091 149.740585,244.782043 
	C144.953415,245.492630 140.258835,246.826996 135.357010,246.993774 
	C141.426407,245.092239 147.534775,243.304947 153.552658,241.252380 
	C158.216400,239.661697 160.422806,243.481339 163.749603,245.601624 
z"/>
<path fill="#E8B28C" opacity="1.000000" stroke="none" 
	d="
M95.000870,228.969238 
	C95.096481,227.598969 95.110031,226.604813 95.333809,225.660446 
	C95.423958,225.280029 95.974686,225.008743 95.379303,225.568924 
	C98.295517,228.606934 101.119652,231.549026 103.707825,234.245285 
	C99.991425,235.573517 96.466995,233.852570 95.000870,228.969238 
z"/>
<path fill="#E8B28C" opacity="1.000000" stroke="none" 
	d="
M83.946991,171.267685 
	C85.990509,174.954483 87.953087,178.290924 89.755058,181.354340 
	C83.815498,180.714661 81.263184,176.663162 82.579384,168.472763 
	C83.144524,169.546494 83.505280,170.231918 83.946991,171.267685 
z"/>
<path fill="#E8B28C" opacity="1.000000" stroke="none" 
	d="
M211.998779,253.001221 
	C204.138779,248.606720 199.616547,241.444550 196.122559,233.527786 
	C195.170563,231.370697 194.918106,228.904892 194.004868,225.204041 
	C200.524734,235.060104 206.228027,243.681763 211.965668,252.651703 
	C212.000000,253.000000 211.998779,253.001221 211.998779,253.001221 
z"/>
<path fill="#E0A783" opacity="1.000000" stroke="none" 
	d="
M185.613129,221.946930 
	C184.866226,219.948441 184.431763,217.877151 184.036560,215.410858 
	C186.471725,214.041550 188.806824,212.841675 191.285294,212.173874 
	C192.883759,211.743195 194.692520,212.092972 196.993820,212.092972 
	C192.858261,215.747620 189.391922,218.810883 185.613129,221.946930 
z"/>
<path fill="#E0A783" opacity="1.000000" stroke="none" 
	d="
M230.571075,253.803345 
	C229.765137,256.418182 229.115799,258.702972 228.463654,260.997589 
	C223.812729,256.712769 227.400772,253.877075 230.727676,250.672424 
	C230.727676,251.782516 230.727676,252.627914 230.571075,253.803345 
z"/>
<path fill="#E8B28C" opacity="1.000000" stroke="none" 
	d="
M212.000610,252.999390 
	C212.122940,253.142242 212.244675,253.285706 212.366425,253.429153 
	C212.279877,253.379578 212.193344,253.330002 212.052795,253.140823 
	C211.998779,253.001221 212.000000,253.000000 212.000610,252.999390 
z"/>
<path fill="#FFFFFF" opacity="1.000000" stroke="none" 
	d="
M561.037598,200.656952 
	C564.568237,200.285385 568.087036,200.364578 572.044434,200.626312 
	C570.225159,207.046158 567.967285,213.283432 565.231262,219.391754 
	C563.354919,217.189377 561.956787,215.115936 560.558594,213.042511 
	C560.714355,209.064240 560.870117,205.085968 561.037598,200.656952 
z"/>
<path fill="#E0A783" opacity="1.000000" stroke="none" 
	d="
M560.244324,212.977768 
	C561.956787,215.115936 563.354919,217.189377 564.930420,219.538895 
	C563.252075,226.844177 561.258484,233.841125 559.605103,240.917572 
	C558.888855,243.982880 558.873901,247.212036 558.540344,250.366760 
	C557.928467,250.319687 557.316528,250.272614 556.704590,250.225525 
	C557.182495,244.165115 556.200073,237.471130 558.488525,232.196182 
	C561.733826,224.715714 561.816833,218.786850 555.538513,212.895554 
	C555.870361,212.648224 556.202271,212.400879 556.534119,212.153534 
	C557.666138,212.406708 558.798096,212.659866 560.244324,212.977768 
z"/>
<path fill="#E0A783" opacity="1.000000" stroke="none" 
	d="
M553.537842,209.551147 
	C553.481201,209.584885 553.594482,209.517410 553.537842,209.551147 
z"/>
<path fill="#B0B0B0" opacity="1.000000" stroke="none" 
	d="
M476.988922,314.835510 
	C457.646454,315.646301 438.303986,316.457123 418.500427,317.192810 
	C411.795258,304.497772 412.989319,290.925201 412.971680,277.509247 
	C412.961243,269.563110 412.969788,261.616974 412.969788,252.534744 
	C419.853241,257.083313 423.624878,262.797607 426.835205,268.822601 
	C431.362671,277.319397 435.348480,286.104156 439.847412,294.617035 
	C443.955353,302.390076 450.846985,307.009369 459.056030,309.430847 
	C464.741699,311.107971 470.669983,311.962524 476.848267,313.520874 
	C477.134064,314.183228 477.061493,314.509369 476.988922,314.835510 
z"/>
<path fill="#646564" opacity="1.000000" stroke="none" 
	d="
M477.020966,315.315186 
	C477.061493,314.509369 477.134064,314.183228 477.300964,313.624603 
	C481.336700,312.959991 485.278107,312.527863 489.636871,312.132141 
	C489.690948,326.205353 489.410034,340.245087 488.916229,354.277283 
	C488.760803,358.694885 488.034363,363.092377 487.247314,367.764832 
	C483.368469,364.043365 479.811615,360.056152 476.120483,355.797058 
	C475.962982,354.931488 475.939728,354.337830 475.886536,352.869019 
	C475.828094,349.030945 475.799591,346.068054 475.771088,343.105133 
	C476.198395,334.001709 476.625702,324.898254 477.020966,315.315186 
z"/>
<path fill="#B0B0B0" opacity="1.000000" stroke="none" 
	d="
M76.434402,322.943481 
	C75.587410,321.457611 75.133644,320.053040 74.834648,318.616211 
	C73.528465,312.339294 71.481400,306.092865 71.160393,299.761475 
	C70.571587,288.148071 70.977058,276.482361 71.054825,264.838989 
	C71.067154,262.992218 71.532974,261.148438 71.789124,259.303284 
	C72.236992,259.124115 72.684853,258.944946 73.132721,258.765778 
	C75.091507,260.859833 77.511147,262.684326 78.923187,265.098267 
	C83.265991,272.522308 88.044121,279.850067 91.161469,287.800110 
	C97.897873,304.979736 109.726105,315.203369 127.986168,318.020233 
	C129.072800,318.187866 130.034164,319.167511 131.077820,320.133698 
	C121.829681,320.988281 112.559631,321.524292 103.284714,321.955383 
	C94.492096,322.364105 85.694359,322.662811 76.434402,322.943481 
z"/>
<path fill="#646564" opacity="1.000000" stroke="none" 
	d="
M147.641571,318.153778 
	C147.371735,336.867279 146.685318,355.548340 145.953522,374.694153 
	C142.031876,370.651733 138.155609,366.144531 134.135010,361.338928 
	C133.992599,360.568115 133.994537,360.095642 133.983810,358.826904 
	C133.935028,355.043121 133.898895,352.055634 133.862778,349.068176 
	C134.241776,339.775391 134.620789,330.482635 134.947784,320.660492 
	C139.005508,319.461182 143.115234,318.791229 147.641571,318.153778 
z"/>
<path fill="#070707" opacity="1.000000" stroke="none" 
	d="
M133.541107,348.990631 
	C133.898895,352.055634 133.935028,355.043121 133.937241,358.475616 
	C131.053101,354.156311 128.430862,349.234161 125.278587,344.678802 
	C122.869141,341.196960 119.789040,338.179199 117.601219,335.643402 
	C119.484467,335.347961 122.898674,334.812347 126.656441,334.138367 
	C127.000000,334.000000 126.996170,333.997040 126.996170,333.997040 
	C123.380234,341.343170 129.679276,344.552612 133.541107,348.990631 
z"/>
<path fill="#070707" opacity="1.000000" stroke="none" 
	d="
M127.001335,334.001831 
	C127.097992,333.971161 127.193314,333.938690 127.142395,333.951630 
	C126.996170,333.997040 127.000000,334.000000 127.001335,334.001831 
z"/>
<path fill="#979796" opacity="1.000000" stroke="none" 
	d="
M71.904778,373.740051 
	C71.644463,373.869934 71.387207,373.669342 71.092499,373.166260 
	C71.281311,373.120056 71.565575,373.302002 71.904778,373.740051 
z"/>
<path fill="#070707" opacity="1.000000" stroke="none" 
	d="
M475.446228,343.037659 
	C475.799591,346.068054 475.828094,349.030945 475.801849,352.432251 
	C474.499786,351.258209 473.020599,349.773834 472.046814,348.010376 
	C468.570770,341.715302 466.268555,334.645599 459.719086,330.465240 
	C462.717407,329.937805 465.443298,329.458282 468.584290,328.988861 
	C468.999390,328.998932 469.020111,329.016052 469.020111,329.016052 
	C466.980865,334.985565 467.960297,337.225555 475.446228,343.037659 
z"/>
<path fill="#070707" opacity="1.000000" stroke="none" 
	d="
M456.739563,329.364624 
	C456.994781,329.380096 457.132385,329.510406 457.269958,329.640747 
	C457.053955,329.586975 456.837921,329.533203 456.739563,329.364624 
z"/>
<path fill="#646564" opacity="1.000000" stroke="none" 
	d="
M461.925568,355.635803 
	C461.860382,355.840790 461.686554,355.907135 461.240021,355.915344 
	C461.250519,355.737183 461.533722,355.617188 461.925568,355.635803 
z"/>
<path fill="#646564" opacity="1.000000" stroke="none" 
	d="
M468.022522,355.201050 
	C468.016815,355.610504 467.724854,355.731873 467.151184,355.541199 
	C467.173157,355.139648 467.462097,355.034241 468.022522,355.201050 
z"/>
<path fill="#070707" opacity="1.000000" stroke="none" 
	d="
M468.990753,328.988373 
	C469.090210,328.950928 469.198273,328.924072 469.163239,328.956635 
	C469.020111,329.016052 468.999390,328.998932 468.990753,328.988373 
z"/>
<path fill="#E3B08D" opacity="1.000000" stroke="none" 
	d="
M173.687286,181.464874 
	C173.491882,183.475601 173.078644,185.258255 172.485504,187.394485 
	C170.682449,186.392822 168.894165,185.190460 167.469147,183.651718 
	C164.089767,180.002701 160.882660,176.194138 157.030441,171.792480 
	C154.740036,175.448303 152.031067,179.772247 149.322083,184.096191 
	C148.963348,183.918411 148.604614,183.740616 148.245880,183.562836 
	C152.050842,175.507263 155.855820,167.451706 160.335815,157.967041 
	C157.962875,170.472641 164.185287,176.837952 173.687286,181.464874 
z"/>
<path fill="#E8B28C" opacity="1.000000" stroke="none" 
	d="
M145.486465,188.012146 
	C147.160461,188.698334 148.663177,189.113876 149.818344,189.988464 
	C152.468399,191.994873 154.957504,192.745880 157.772598,190.293320 
	C158.254501,189.873474 159.308640,190.110474 160.287338,190.028152 
	C156.304077,196.869019 155.257263,197.068192 149.877014,192.447922 
	C148.889465,191.599884 147.715393,190.960007 146.593277,190.280380 
	C145.514816,189.627213 144.392075,189.047165 143.533478,187.726486 
	C144.074768,187.800980 144.616058,187.875473 145.486465,188.012146 
z"/>
<path fill="#E3B08D" opacity="1.000000" stroke="none" 
	d="
M514.848999,175.937592 
	C514.976562,177.556000 514.792053,179.010071 514.391113,180.752045 
	C507.852661,177.529221 501.956696,173.636169 500.556000,165.112976 
	C497.636353,168.685379 495.067963,171.828003 492.499573,174.970627 
	C492.236969,174.874924 491.974335,174.779221 491.711731,174.683533 
	C495.107697,167.524887 498.503662,160.366241 501.899628,153.207596 
	C499.298096,164.436493 505.598419,170.850494 514.848999,175.937592 
z"/>
<path fill="#E8B28C" opacity="1.000000" stroke="none" 
	d="
M489.005554,183.992065 
	C489.498688,184.009415 490.110199,183.842957 490.466644,184.072510 
	C494.057892,186.385147 497.588104,188.091339 501.259918,184.157486 
	C501.554535,183.841919 502.480743,184.115891 503.335022,184.115891 
	C495.821716,191.636566 495.821716,191.636566 489.142822,184.308136 
	C488.999695,184.000320 489.005554,183.992065 489.005554,183.992065 
z"/>
<path fill="#E8B28C" opacity="1.000000" stroke="none" 
	d="
M488.995575,184.004395 
	C488.557281,183.880798 488.123077,183.753128 487.688904,183.625458 
	C488.046600,183.608398 488.404327,183.591324 488.883789,183.783173 
	C489.005554,183.992065 488.999695,184.000320 488.995575,184.004395 
z"/>
<path fill="#E3B08D" opacity="1.000000" stroke="none" 
	d="
M491.754974,177.984772 
	C491.590027,178.095657 491.424042,178.041794 491.258057,177.987930 
	C491.423340,177.931961 491.588654,177.875992 491.754974,177.984772 
z"/>
<path fill="#929292" opacity="1.000000" stroke="none" 
	d="
M559.444092,171.938324 
	C555.695618,170.286942 553.739075,167.627106 554.349121,163.945007 
	C554.920349,160.496857 556.905762,157.012299 560.758789,157.691299 
	C563.060974,158.097015 565.859619,160.837952 566.701660,163.158218 
	C567.934692,166.556076 566.700439,170.131302 562.787170,171.762802 
	C561.920166,172.124252 560.825073,171.938553 559.444092,171.938324 
M562.456543,163.178513 
	C560.428467,161.380737 558.723145,161.759567 558.234802,164.354202 
	C558.046021,165.356918 559.364990,166.643448 559.997131,167.800690 
	C560.934692,166.489136 561.872253,165.177582 562.456543,163.178513 
z"/>
<path fill="#1B1A1A" opacity="1.000000" stroke="none" 
	d="
M499.538086,358.971069 
	C499.064178,357.909180 499.044250,356.862793 499.041016,355.424316 
	C511.404724,354.251526 523.751770,353.470795 537.348816,352.611023 
	C524.514709,357.061829 512.475098,359.225586 499.538086,358.971069 
z"/>
<path fill="#1B1A1A" opacity="1.000000" stroke="none" 
	d="
M499.537109,348.941467 
	C499.117950,348.215820 499.096313,347.499176 499.111176,346.426086 
	C511.335754,345.118896 523.523865,344.168213 535.711975,343.217560 
	C535.740234,343.590851 535.768494,343.964172 535.796753,344.337463 
	C523.842712,345.875153 511.888641,347.412842 499.537109,348.941467 
z"/>
<path fill="#1B1A1A" opacity="1.000000" stroke="none" 
	d="
M500.409760,335.999329 
	C499.968994,335.246521 499.966187,334.496246 499.978760,333.371002 
	C506.761169,332.039154 513.528137,331.082306 520.627319,330.078461 
	C514.729248,334.608582 507.904175,335.653259 500.409760,335.999329 
z"/>
<path fill="#1B1A1A" opacity="1.000000" stroke="none" 
	d="
M523.533630,328.552704 
	C523.475403,328.587463 523.591858,328.517944 523.533630,328.552704 
z"/>
<path fill="#1B1A1A" opacity="1.000000" stroke="none" 
	d="
M157.523422,363.981018 
	C157.060867,362.924255 157.060150,361.882019 157.096497,360.451691 
	C169.829636,359.452454 182.525696,358.841309 195.094376,358.236298 
	C183.354431,362.884888 170.899704,364.753326 157.523422,363.981018 
z"/>
<path fill="#1B1A1A" opacity="1.000000" stroke="none" 
	d="
M158.351776,353.991791 
	C157.903793,353.550232 157.908417,353.116150 157.902802,352.357117 
	C166.693817,349.015106 184.411423,348.164612 189.997360,350.539948 
	C179.535217,351.700195 169.169785,352.849762 158.351776,353.991791 
z"/>
<path fill="#1B1A1A" opacity="1.000000" stroke="none" 
	d="
M158.441635,341.011230 
	C157.986038,340.261505 157.987137,339.512817 158.008942,338.390808 
	C165.018387,337.268829 172.007141,336.520203 178.799805,335.792572 
	C173.095001,340.050842 166.281494,341.523132 158.441635,341.011230 
z"/>
<path fill="#E8B28C" opacity="1.000000" stroke="none" 
	d="
M206.014648,376.981476 
	C208.426056,378.028778 210.770264,379.286774 213.262238,380.081421 
	C219.200439,381.975037 225.208435,383.649780 230.704300,385.270233 
	C222.818024,389.205170 211.605286,385.997345 206.020416,377.356079 
	C205.999176,377.000549 206.014648,376.981476 206.014648,376.981476 
z"/>
<path fill="#E8B28C" opacity="1.000000" stroke="none" 
	d="
M203.454178,375.532257 
	C203.420273,375.476410 203.488083,375.588104 203.454178,375.532257 
z"/>
<path fill="#E8B28C" opacity="1.000000" stroke="none" 
	d="
M205.989441,377.008301 
	C205.855850,376.863342 205.731979,376.710602 205.608109,376.557861 
	C205.703384,376.603973 205.798660,376.650085 205.954285,376.838837 
	C206.014648,376.981476 205.999176,377.000549 205.989441,377.008301 
z"/>
<path fill="#E8B28C" opacity="1.000000" stroke="none" 
	d="
M548.800659,374.278900 
	C547.735657,373.042877 546.923889,372.057159 545.978516,370.909119 
	C554.848633,374.143555 563.385193,377.256348 571.840515,380.339508 
	C563.443420,382.577972 555.867432,380.255859 548.800659,374.278900 
z"/>
<path fill="#929292" opacity="1.000000" stroke="none" 
	d="
M275.446777,331.706085 
	C277.162750,335.113556 277.913361,338.740479 274.526215,340.343079 
	C272.750183,341.183350 268.276764,339.868622 267.378815,338.232971 
	C265.817749,335.389465 266.083954,331.542816 265.584076,328.116760 
	C267.731689,327.959412 270.002899,327.314606 271.983246,327.816803 
	C273.294495,328.149353 274.188690,330.126373 275.446777,331.706085 
M270.534241,337.890503 
	C273.748444,337.018097 273.372192,334.906372 271.757294,333.104004 
	C271.135040,332.409485 269.253265,332.843445 267.945343,332.763275 
	C268.563324,334.439056 269.181335,336.114838 270.534241,337.890503 
z"/>
<path fill="#EDB692" opacity="1.000000" stroke="none" 
	d="
M312.480957,333.019775 
	C311.842987,332.867462 311.546661,332.664703 311.120728,331.813507 
	C310.928711,325.894562 308.921936,321.508423 305.000000,317.993378 
	C305.000000,317.993378 305.000000,318.000000 304.973755,317.679016 
	C304.298309,316.565521 303.649170,315.772980 303.000000,314.980469 
	C302.905914,314.666168 302.728271,314.409760 302.249023,313.735931 
	C304.330963,307.845795 306.018341,314.360992 308.408936,313.407867 
	C309.799194,308.592194 313.302368,312.419434 316.103027,312.263916 
	C317.566864,313.736115 318.868134,314.922821 320.169373,316.109497 
	C320.666718,317.654846 321.241791,319.180115 321.646179,320.749420 
	C322.682678,324.771912 322.461761,328.172363 317.693909,329.836945 
	C315.921631,330.455658 314.437958,331.900940 312.480957,333.019775 
M314.777649,325.448608 
	C315.163635,325.448669 315.549622,325.448761 315.935608,325.448853 
	C315.638550,324.786621 315.341522,324.124359 315.044464,323.462128 
	C314.862457,323.949738 314.680420,324.437378 314.777649,325.448608 
M309.389526,316.201691 
	C309.785767,316.207062 310.182007,316.212433 310.578217,316.217834 
	C310.578583,316.053101 310.590698,315.745544 310.577606,315.744446 
	C310.183411,315.712067 309.786743,315.709839 309.389526,316.201691 
M312.206818,319.618866 
	C312.209259,319.220123 312.216278,318.821106 312.193207,318.423859 
	C312.192474,318.410980 311.883698,318.416016 311.718475,318.412689 
	C311.714508,318.811646 311.710541,319.210632 312.206818,319.618866 
z"/>
<path fill="#979796" opacity="1.000000" stroke="none" 
	d="
M320.507263,315.994385 
	C318.868134,314.922821 317.566864,313.736115 316.143616,311.944366 
	C316.052216,310.911102 316.082825,310.482941 316.113464,310.054749 
	C316.867950,309.466003 317.622467,308.877228 318.633301,308.159302 
	C321.640442,310.123627 323.168274,312.521759 320.507263,315.994385 
z"/>
<path fill="#E3B08D" opacity="1.000000" stroke="none" 
	d="
M596.401794,181.980026 
	C597.055359,175.277313 598.352417,168.580429 598.919678,161.822296 
	C599.138245,159.218597 597.697388,156.475616 597.035889,153.398499 
	C603.771484,154.076599 608.808960,162.885803 605.640564,169.017761 
	C603.256836,173.631165 599.757019,177.667923 596.401794,181.980026 
z"/>
<path fill="#E0A783" opacity="1.000000" stroke="none" 
	d="
M315.717133,310.031097 
	C316.082825,310.482941 316.052216,310.911102 315.981018,311.658813 
	C313.302368,312.419434 309.799194,308.592194 308.408936,313.407867 
	C306.018341,314.360992 304.330963,307.845795 302.038239,313.627319 
	C300.483704,313.975952 298.921906,313.957916 296.881104,313.880981 
	C296.402161,313.822144 296.464966,313.738190 296.460052,313.735046 
	C298.545685,309.621643 302.422455,308.781342 306.599762,307.753235 
	C306.999878,306.543274 307.564697,304.835205 308.129547,303.127136 
	C309.046326,307.481293 310.892731,310.005005 315.717133,310.031097 
z"/>
<path fill="#E0A783" opacity="1.000000" stroke="none" 
	d="
M305.003723,318.373291 
	C308.921936,321.508423 310.928711,325.894562 310.989441,331.575470 
	C310.524811,331.829651 309.754456,331.789581 309.645020,331.499847 
	C308.047302,327.270569 306.537933,323.007935 305.003723,318.373291 
z"/>
<path fill="#E0A783" opacity="1.000000" stroke="none" 
	d="
M303.003723,315.337189 
	C303.649170,315.772980 304.298309,316.565521 304.977112,317.679016 
	C304.340302,317.231323 303.673889,316.462616 303.003723,315.337189 
z"/>
<path fill="#B0B0B0" opacity="1.000000" stroke="none" 
	d="
M562.633179,163.522278 
	C561.872253,165.177582 560.934692,166.489136 559.997131,167.800690 
	C559.364990,166.643448 558.046021,165.356918 558.234802,164.354202 
	C558.723145,161.759567 560.428467,161.380737 562.633179,163.522278 
z"/>
<path fill="#B0B0B0" opacity="1.000000" stroke="none" 
	d="
M270.166809,337.840576 
	C269.181335,336.114838 268.563324,334.439056 267.945343,332.763245 
	C269.253265,332.843445 271.135040,332.409485 271.757294,333.104004 
	C273.372192,334.906372 273.748444,337.018097 270.166809,337.840576 
z"/>
<path fill="#E0A783" opacity="1.000000" stroke="none" 
	d="
M314.638000,325.186798 
	C314.680420,324.437378 314.862457,323.949738 315.044464,323.462128 
	C315.341522,324.124359 315.638550,324.786621 315.935608,325.448853 
	C315.549622,325.448761 315.163635,325.448669 314.638000,325.186798 
z"/>
<path fill="#E0A783" opacity="1.000000" stroke="none" 
	d="
M309.389984,315.952332 
	C309.786743,315.709839 310.183411,315.712067 310.577606,315.744446 
	C310.590698,315.745544 310.578583,316.053101 310.578247,316.217834 
	C310.182007,316.212433 309.785767,316.207062 309.389984,315.952332 
z"/>
<path fill="#E0A783" opacity="1.000000" stroke="none" 
	d="
M311.956696,319.614227 
	C311.710541,319.210632 311.714508,318.811646 311.718475,318.412689 
	C311.883698,318.416016 312.192474,318.410980 312.193207,318.423859 
	C312.216278,318.821106 312.209259,319.220123 311.956696,319.614227 
z"/>
</svg>