<svg version="1.1" id="Layer_1" xmlns="http://www.w3.org/2000/svg" xmlns:xlink="http://www.w3.org/1999/xlink" x="0px" y="0px"
	 width="100%" viewBox="0 0 602 546" enable-background="new 0 0 602 546" xml:space="preserve">
<path fill="#FFFFFF" opacity="1.000000" stroke="none" 
	d="
M357.000000,547.000000 
	C238.000000,547.000000 119.500000,547.000000 1.000000,547.000000 
	C1.000000,365.000000 1.000000,183.000000 1.000000,1.000000 
	C201.666672,1.000000 402.333344,1.000000 603.000000,1.000000 
	C603.000000,183.000000 603.000000,365.000000 603.000000,547.000000 
	C521.166687,547.000000 439.333344,547.000000 357.000000,547.000000 
M586.264343,248.187943 
	C585.856323,248.125244 585.448364,248.062546 584.997070,247.180161 
	C583.586914,241.926376 582.646729,236.489410 580.682861,231.451477 
	C573.351624,212.644226 555.208069,200.459717 536.106934,201.380325 
	C528.904968,202.906891 521.071716,203.120422 514.625671,206.219376 
	C498.695831,213.877731 491.716888,228.326324 488.022034,245.004471 
	C482.197205,243.880447 476.762512,244.703598 470.965576,248.142548 
	C466.335114,248.152435 461.704681,248.162323 456.350586,247.972641 
	C450.855591,245.697891 451.811646,239.994827 450.033844,235.074570 
	C450.607483,227.174423 452.194153,219.186417 451.518341,211.394653 
	C450.493225,199.575531 438.866302,192.291473 427.222229,194.935806 
	C425.601959,195.303772 423.994354,195.780899 422.353180,195.995209 
	C410.941345,197.485443 408.265656,200.463394 407.334076,211.885788 
	C399.835815,207.369553 391.725494,205.479370 382.162292,206.109238 
	C371.378479,206.608856 362.530640,211.122803 356.023285,219.622955 
	C344.933533,234.108871 342.943970,250.307739 348.892090,267.257294 
	C353.885986,281.487701 363.301758,291.355743 379.624298,294.059540 
	C380.083832,294.037567 380.543335,294.015564 381.558105,294.232422 
	C382.352814,294.277283 383.147522,294.322144 384.754333,294.740082 
	C394.882660,295.033203 404.222565,292.856262 412.606567,286.582764 
	C412.740845,287.223633 412.906433,287.859711 413.004730,288.506042 
	C415.023407,301.776672 417.282593,314.879425 427.546387,324.948029 
	C430.947876,328.284821 434.160797,330.365875 439.431061,328.343750 
	C440.406464,329.912415 441.381897,331.481110 441.383667,333.188629 
	C437.286438,333.201172 433.189209,333.213745 428.155914,333.067719 
	C421.992279,333.074371 415.793274,332.672821 409.674988,333.203064 
	C403.603943,333.729187 397.471344,334.696747 391.626434,336.377319 
	C384.960541,338.293945 383.176361,341.688202 382.942444,348.650726 
	C382.669922,356.762665 385.544556,364.052643 390.491272,369.858368 
	C403.945129,385.648529 418.079071,400.859253 432.073792,416.950897 
	C433.371307,419.939911 434.668793,422.928925 435.676514,426.525635 
	C431.854950,432.094360 426.816528,435.865295 420.115845,437.338348 
	C415.743164,438.299622 411.295074,439.145538 407.124969,440.698822 
	C405.217712,441.409180 402.779907,443.558289 402.558777,445.305054 
	C402.162262,448.437225 403.513672,451.622253 407.391785,452.373810 
	C409.176666,452.719727 411.012726,453.016266 412.821014,452.992157 
	C426.113159,452.815094 439.404480,452.566925 452.695282,452.302002 
	C455.524170,452.245636 458.349915,452.028625 461.177094,451.885651 
	C459.736206,453.205933 458.225647,453.810791 456.656830,454.121063 
	C452.188843,455.004669 451.960938,457.550659 453.727905,461.047089 
	C455.697113,464.943787 458.989655,466.518066 463.151215,466.210297 
	C477.373199,465.158508 491.595306,464.083038 505.788208,462.713928 
	C506.811615,462.615234 508.464172,460.005035 508.346466,458.695404 
	C507.872101,453.417908 506.705170,448.207367 506.014313,442.943176 
	C505.511780,439.114258 503.822876,436.400818 499.967102,434.395844 
	C498.349457,430.609619 496.731781,426.823425 495.099426,422.201355 
	C494.551392,419.787445 493.996643,417.375061 493.456604,414.959381 
	C491.295074,405.290771 489.138092,395.621124 487.772156,386.024658 
	C502.377777,389.927643 515.253113,386.344635 525.954102,376.085236 
	C534.525818,367.867279 536.045410,356.421021 530.533997,346.320160 
	C528.002930,341.681549 524.642090,337.495728 522.336060,332.805603 
	C525.707886,330.956573 527.589478,328.119171 526.757324,324.305939 
	C525.368835,317.943909 523.590942,311.666840 522.778931,305.599792 
	C525.514404,306.036957 528.249939,306.474121 531.631470,307.174408 
	C532.086243,307.119354 532.541077,307.064301 533.482117,307.206299 
	C534.339417,307.171783 535.196716,307.137268 536.940491,307.390594 
	C545.024170,307.491882 552.917969,306.633636 560.092957,302.498627 
	C575.675232,293.518433 582.736572,279.228302 586.001221,262.043365 
	C592.778503,261.829742 595.985413,259.287659 595.571106,254.457275 
	C595.195129,250.073944 592.228271,247.985367 586.264343,248.187943 
M299.946014,97.036415 
	C305.839996,95.838524 308.163086,93.203384 307.332428,88.657845 
	C306.418427,83.656281 304.661163,82.585838 298.121613,83.361168 
	C297.431152,83.228958 296.740692,83.096741 295.886841,82.244957 
	C287.840149,57.786465 268.200714,44.567959 243.158508,47.237118 
	C226.866135,48.805408 215.434784,57.409897 207.959091,71.657570 
	C202.968994,81.167999 201.346832,91.413719 200.759445,101.987663 
	C194.407135,101.769943 188.725021,103.100349 184.141968,108.904076 
	C181.398727,109.583000 178.655487,110.261925 175.123901,110.944893 
	C174.597565,110.982346 174.071228,111.019806 172.908310,110.726143 
	C171.267624,110.341995 169.626938,109.957848 167.610413,109.064491 
	C165.378098,104.361046 163.145782,99.657600 161.240173,94.290367 
	C164.576202,86.354538 164.686661,78.087013 163.391022,69.790009 
	C161.758987,59.338909 151.423157,51.999508 140.940628,53.573448 
	C138.640839,53.918762 136.365173,54.647785 134.063538,54.718845 
	C124.757912,55.006149 118.673218,60.084980 120.019127,71.879494 
	C120.173172,75.826897 120.310837,79.775024 120.486763,83.721451 
	C120.613014,86.553391 120.790421,89.383057 120.229462,91.997269 
	C112.781792,88.656914 105.096756,87.023903 96.194199,88.632683 
	C83.868172,89.903030 74.783440,96.100159 68.596581,106.740295 
	C57.794090,125.318398 61.603317,151.905655 77.364937,166.403503 
	C86.298477,174.620728 96.766533,178.323853 109.807152,176.102921 
	C114.578949,174.658112 119.350746,173.213303 124.733414,172.297775 
	C127.529884,191.748734 133.529190,210.337112 139.784119,229.656601 
	C139.224899,242.926636 138.168365,256.199402 138.240723,269.465973 
	C138.319382,283.885895 139.421036,298.301392 140.142487,312.715546 
	C140.269852,315.260193 140.848450,317.695343 144.036819,318.937714 
	C145.338806,328.423065 147.548584,337.888214 147.760513,347.397858 
	C148.255508,369.609222 147.790878,391.841949 147.268433,414.674683 
	C146.520050,417.726685 145.771683,420.778687 144.471161,424.250122 
	C142.929977,425.689972 141.034058,426.897400 139.911270,428.611328 
	C135.850784,434.809540 130.233002,438.539429 123.061668,440.023926 
	C119.158707,440.831879 115.156082,441.262360 111.347466,442.373810 
	C109.686745,442.858459 107.387726,444.495422 107.215157,445.844086 
	C107.024994,447.330231 108.697746,449.333618 110.019653,450.648621 
	C111.132896,451.756073 112.839043,452.605988 114.399536,452.864319 
	C119.938202,453.781219 125.509949,454.794769 131.100571,455.032196 
	C139.524872,455.389984 147.975616,455.125458 156.398544,455.125458 
	C158.036331,462.045258 163.581543,465.287231 169.441406,465.735138 
	C179.789032,466.526031 190.302399,466.223358 200.668869,465.401123 
	C211.764511,464.520996 211.975098,464.007477 211.059280,453.052399 
	C210.673889,448.442352 208.983383,443.941406 207.724930,438.594543 
	C207.138702,434.041534 206.552460,429.488495 205.991043,424.006592 
	C206.050110,416.857117 205.673111,409.671967 206.254227,402.565155 
	C207.698807,384.898499 207.357910,367.451752 201.686951,350.448364 
	C198.462494,340.780426 196.112396,330.997955 197.947281,320.674133 
	C202.381683,320.029449 207.244858,320.260681 209.719635,314.198883 
	C208.780716,290.251190 208.252518,266.275940 206.648743,242.372849 
	C206.177078,235.342880 202.658249,228.517380 200.430435,221.015579 
	C198.010468,215.041595 195.237946,209.182709 193.242645,203.070099 
	C188.851669,189.618347 191.104523,175.867645 192.597534,162.523514 
	C196.251587,167.452286 199.462555,172.807007 203.680038,177.194122 
	C208.208542,181.904785 213.424393,186.084167 218.829575,189.779770 
	C222.836594,192.519455 230.814957,189.336639 231.378098,184.687698 
	C232.444183,175.886917 233.710678,166.977219 227.627075,158.856979 
	C223.205368,152.955017 219.856445,146.249329 216.735062,139.990952 
	C217.525894,140.524109 218.351196,141.012955 219.102295,141.597198 
	C227.898758,148.439545 237.519760,153.079956 249.873047,153.069901 
	C259.508789,153.119797 268.839966,151.697708 276.905487,146.034195 
	C293.933594,134.077286 299.552216,116.913261 298.905518,97.229088 
	C298.905518,97.229088 299.209808,97.164238 299.946014,97.036415 
z"/>
<path fill="#3B3B3B" opacity="1.000000" stroke="none" 
	d="
M585.172119,262.079041 
	C582.736572,279.228302 575.675232,293.518433 560.092957,302.498627 
	C552.917969,306.633636 545.024170,307.491882 536.315674,306.984711 
	C534.792480,306.722290 533.894165,306.865753 532.995850,307.009216 
	C532.541077,307.064301 532.086243,307.119354 531.249878,306.698364 
	C529.980408,305.541992 529.190125,304.611786 528.189209,304.220825 
	C520.024475,301.031616 513.766724,295.440430 508.750916,288.475708 
	C498.342590,274.023132 495.484619,257.713348 499.438843,240.706055 
	C503.554016,223.006516 512.961182,209.068115 531.661133,203.612732 
	C533.458313,203.088425 535.183899,202.319031 536.942749,201.663422 
	C555.208069,200.459717 573.351624,212.644226 580.682861,231.451477 
	C582.646729,236.489410 583.586914,241.926376 584.550354,247.650238 
	C573.912964,248.066025 563.722229,248.011749 553.415405,247.602295 
	C551.252441,242.813171 547.814941,240.433029 542.947693,241.334229 
	C537.960388,242.257660 535.445862,245.895325 534.495911,250.701675 
	C533.364929,256.423676 535.968872,262.102112 540.644775,264.143463 
	C544.904968,266.003326 548.700928,264.685883 552.609985,260.075867 
	C563.591370,260.370514 574.121643,260.736633 584.745972,261.365967 
	C584.950745,261.779205 585.061462,261.929138 585.172119,262.079041 
z"/>
<path fill="#3B3B3B" opacity="1.000000" stroke="none" 
	d="
M298.757812,96.955208 
	C299.552216,116.913261 293.933594,134.077286 276.905487,146.034195 
	C268.839966,151.697708 259.508789,153.119797 249.344955,152.613098 
	C248.314957,151.786575 247.864639,151.227692 247.303635,151.074753 
	C232.446625,147.024582 222.808243,137.269745 216.651764,123.492760 
	C211.560898,112.100410 209.806442,100.217911 212.135925,88.067482 
	C215.353516,71.284737 223.399719,57.715611 239.854599,50.474960 
	C241.392761,49.798122 242.602539,48.375004 243.964798,47.298386 
	C268.200714,44.567959 287.840149,57.786465 295.757080,82.918686 
	C284.811890,85.669960 273.996460,87.747520 263.010803,89.511505 
	C259.371704,85.380745 255.211075,84.590363 250.764252,87.021027 
	C246.467392,89.369705 244.654053,95.383530 246.085037,101.093666 
	C247.271759,105.829086 251.435333,109.838593 255.741058,109.795807 
	C260.814240,109.745399 263.968079,106.876953 265.765686,102.020020 
	C277.025391,100.314049 287.891602,98.634628 298.757812,96.955208 
z"/>
<path fill="#1E1E1E" opacity="1.000000" stroke="none" 
	d="
M144.050079,318.120728 
	C140.848450,317.695343 140.269852,315.260193 140.142487,312.715546 
	C139.421036,298.301392 138.319382,283.885895 138.240723,269.465973 
	C138.168365,256.199402 139.224899,242.926636 140.339447,229.227631 
	C152.330551,228.147095 163.819763,227.969543 175.184586,226.688538 
	C183.717880,225.726685 192.091324,223.346756 200.535934,221.598160 
	C202.658249,228.517380 206.177078,235.342880 206.648743,242.372849 
	C208.252518,266.275940 208.780716,290.251190 209.190414,314.623291 
	C204.693619,314.718811 200.726059,314.389954 196.359238,314.140228 
	C186.637848,315.556335 177.315720,316.893311 167.687408,318.166687 
	C166.567169,318.156586 165.753113,318.210083 164.956482,317.888977 
	C162.254105,304.625610 159.721207,291.691589 156.623367,278.894318 
	C156.129395,276.853729 153.099762,275.426941 151.242401,273.716400 
	C150.852554,274.086639 150.462708,274.456909 150.072845,274.827148 
	C151.041168,277.108124 152.531952,279.310211 152.890182,281.683258 
	C154.756317,294.045258 156.334259,306.450714 157.559982,318.910278 
	C152.755020,318.693207 148.402542,318.406982 144.050079,318.120728 
M148.484818,273.609161 
	C148.484818,273.609161 148.398483,273.475403 148.484818,273.609161 
z"/>
<path fill="#1B74BA" opacity="1.000000" stroke="none" 
	d="
M200.483185,221.306870 
	C192.091324,223.346756 183.717880,225.726685 175.184586,226.688538 
	C163.819763,227.969543 152.330551,228.147095 140.424088,228.804840 
	C133.529190,210.337112 127.529884,191.748734 124.372635,171.652740 
	C120.304573,161.094543 121.352173,151.722000 127.016319,142.771667 
	C128.319489,140.712433 129.126358,138.339111 130.446304,135.948212 
	C131.886414,133.901154 133.041840,132.016205 134.465302,129.932709 
	C135.455322,128.129669 136.177292,126.525185 137.158020,124.722687 
	C138.392670,123.436752 139.368561,122.348839 140.344452,121.260918 
	C140.739853,121.550385 141.135254,121.839851 141.530655,122.129318 
	C140.097183,124.856606 138.579422,127.543526 137.249969,130.320618 
	C135.244522,134.509750 132.986908,138.641937 131.612274,143.040756 
	C130.981354,145.059708 131.428589,148.599533 132.797394,149.708237 
	C134.031357,150.707703 137.455582,149.855881 139.427841,148.859039 
	C141.540161,147.791412 143.445587,145.849030 144.817276,143.858414 
	C152.643295,132.501175 160.283142,121.015648 167.986252,109.573708 
	C169.626938,109.957848 171.267624,110.341995 173.220078,111.274261 
	C171.481766,123.340706 169.473831,134.860626 172.053925,146.903839 
	C165.448959,155.769241 155.364731,157.410477 146.009079,160.411789 
	C148.829742,161.013046 151.450974,161.354599 154.083267,161.515900 
	C162.868958,162.054260 170.533157,159.232773 177.548203,153.760498 
	C182.231628,156.244171 186.602112,158.590820 191.160095,161.140442 
	C191.582748,161.629120 191.817902,161.914810 192.053040,162.200500 
	C191.104523,175.867645 188.851669,189.618347 193.242645,203.070099 
	C195.237946,209.182709 198.010468,215.041595 200.483185,221.306870 
z"/>
<path fill="#3B3B3B" opacity="1.000000" stroke="none" 
	d="
M130.161621,136.110336 
	C129.126358,138.339111 128.319489,140.712433 127.016319,142.771667 
	C121.352173,151.722000 120.304573,161.094543 124.067200,171.388123 
	C119.350746,173.213303 114.578949,174.658112 109.111198,175.755402 
	C104.077698,174.507462 99.373184,174.396225 95.462532,172.577774 
	C71.236412,161.312546 63.774055,127.504784 77.150475,105.347778 
	C81.836464,97.585800 89.273438,93.011009 96.943344,88.759949 
	C105.096756,87.023903 112.781792,88.656914 120.552765,92.515419 
	C121.057587,94.269691 121.139862,96.555397 121.435608,96.583366 
	C125.413925,96.959518 124.972321,100.421844 126.059380,102.796524 
	C127.013718,104.881279 128.003616,106.949753 129.039093,109.263908 
	C129.100388,109.502403 129.506104,109.779533 129.506104,109.779533 
	C129.506104,109.779533 129.977936,109.642639 130.353149,109.663147 
	C131.201660,109.528473 131.674927,109.373299 132.536652,109.374916 
	C134.602463,109.705673 136.279846,109.879631 138.051544,110.405548 
	C138.759964,112.701767 139.374069,114.646042 140.071838,116.855202 
	C133.781952,115.692108 129.688217,118.068588 126.155373,122.606491 
	C121.245445,123.370323 116.729294,124.083633 112.099686,124.463333 
	C108.373436,120.808601 105.284370,122.158241 102.806534,125.482498 
	C100.174042,129.014236 101.157051,134.399475 104.604500,137.140747 
	C108.070114,139.896484 110.664070,139.375854 114.528000,134.988586 
	C119.179787,133.567749 123.542870,132.365250 127.947205,131.500885 
	C128.712845,133.262802 129.437225,134.686569 130.161621,136.110336 
z"/>
<path fill="#3B3B3B" opacity="1.000000" stroke="none" 
	d="
M381.002869,293.993591 
	C380.543335,294.015564 380.083832,294.037567 379.254761,293.593506 
	C377.503357,292.050598 376.215393,290.816864 374.723389,289.924194 
	C368.502991,286.202484 363.433563,281.311066 360.014648,274.938385 
	C352.726654,261.353973 351.809113,247.084198 357.047943,232.732864 
	C361.569305,220.346909 369.637726,211.140198 383.155151,207.918655 
	C383.235291,207.899551 383.059479,206.806412 383.003174,206.214813 
	C391.725494,205.479370 399.835815,207.369553 407.714294,212.348999 
	C408.093353,213.059357 408.092194,213.306488 408.194275,213.964874 
	C408.930817,222.240326 409.564178,230.104553 410.219849,238.245499 
	C411.037445,238.793228 412.503845,239.775604 412.974213,240.090714 
	C409.086060,242.684143 405.618439,244.997086 401.772308,247.252884 
	C400.016449,246.716370 398.639069,246.237015 397.068268,245.444656 
	C392.711395,242.044464 389.738159,242.132004 387.011597,245.422012 
	C384.006927,249.047638 384.187347,254.752426 387.730865,257.510193 
	C391.120819,260.148438 394.463165,259.807922 397.496490,256.037811 
	C399.451874,255.929626 401.107208,256.022614 402.882935,256.445557 
	C409.783997,265.358154 411.680847,275.455811 412.075134,286.019592 
	C404.222565,292.856262 394.882660,295.033203 384.245239,294.289612 
	C382.825043,293.890625 381.913971,293.942108 381.002869,293.993591 
z"/>
<path fill="#1D75BA" opacity="1.000000" stroke="none" 
	d="
M442.357300,333.049774 
	C441.381897,331.481110 440.406464,329.912415 439.069519,327.836304 
	C433.781281,320.477631 428.841034,313.636047 423.932098,306.772125 
	C419.928375,301.173981 417.886383,294.956573 418.868927,288.075073 
	C419.776489,281.719086 421.081665,275.419830 422.446198,268.811768 
	C423.457703,263.440857 424.234741,258.353729 425.365784,253.239441 
	C426.605835,255.010620 428.398773,256.902191 428.225128,258.591675 
	C427.344635,267.158539 425.679749,275.649261 424.938629,284.222778 
	C424.758453,286.306885 426.574341,289.824280 428.297455,290.465485 
	C430.100372,291.136383 433.010559,289.354401 435.209290,288.208221 
	C436.237610,287.672150 437.035858,286.205688 437.419067,284.996338 
	C441.549530,271.962036 449.191467,260.919067 457.367645,249.907593 
	C460.202576,249.567032 462.623322,249.514801 462.836029,253.309067 
	C458.748779,265.950653 458.279816,278.111481 464.093689,290.348114 
	C464.686768,291.768951 465.231201,292.882996 465.457397,294.061462 
	C460.856140,297.418640 456.573181,300.711304 452.290192,304.003967 
	C452.498169,304.423004 452.706116,304.842041 452.914093,305.261078 
	C458.299164,302.836517 463.684265,300.411957 469.380432,298.116486 
	C473.138855,300.052429 476.586151,301.859283 480.341248,303.829956 
	C481.867706,305.102905 483.164978,306.137878 484.292236,307.333160 
	C491.710449,315.198944 499.091949,323.099243 506.128021,331.228516 
	C496.018433,332.966400 486.266296,334.464111 476.081146,335.913025 
	C466.729431,336.895538 457.810730,337.926849 448.708374,338.700439 
	C446.468903,336.645111 444.413086,334.847443 442.357300,333.049774 
z"/>
<path fill="#F0BF9D" opacity="1.000000" stroke="none" 
	d="
M431.943451,416.299652 
	C418.079071,400.859253 403.945129,385.648529 390.491272,369.858368 
	C385.544556,364.052643 382.669922,356.762665 382.942444,348.650726 
	C383.176361,341.688202 384.960541,338.293945 391.626434,336.377319 
	C397.471344,334.696747 403.603943,333.729187 409.674988,333.203064 
	C415.793274,332.672821 421.992279,333.074371 428.671814,333.478149 
	C432.131165,338.905518 435.074646,343.922516 438.021057,349.400635 
	C437.540222,355.433655 438.122467,360.852509 440.940582,365.773895 
	C443.137054,369.609589 445.628113,373.276581 447.618988,376.992493 
	C443.324432,376.299469 439.399109,375.632507 435.192383,374.790710 
	C433.295380,373.941315 431.679871,373.266754 429.894775,372.371582 
	C428.766205,372.113312 427.807220,372.075623 426.560333,371.865173 
	C420.162445,365.934418 411.969269,365.365082 404.448212,362.931030 
	C409.800385,367.134796 415.534821,370.590302 421.234894,374.101501 
	C425.961548,377.013062 430.647766,379.990265 435.606201,383.149841 
	C439.302185,389.962769 442.767090,396.552185 446.176727,403.170135 
	C448.206055,407.108917 450.148407,411.092499 451.694641,415.052826 
	C444.820770,415.466370 438.382111,415.882996 431.943451,416.299652 
M402.522064,361.412170 
	C402.522064,361.412170 402.590363,361.523102 402.522064,361.412170 
z"/>
<path fill="#FBCBA6" opacity="1.000000" stroke="none" 
	d="
M447.988251,377.018524 
	C445.628113,373.276581 443.137054,369.609589 440.940582,365.773895 
	C438.122467,360.852509 437.540222,355.433655 438.346436,349.318359 
	C442.076630,345.502686 445.484314,342.230408 448.891998,338.958130 
	C457.810730,337.926849 466.729431,336.895538 476.294617,336.210968 
	C477.997955,337.601227 479.145569,338.568420 480.097504,339.700226 
	C488.315735,349.471741 492.702820,360.160034 487.554016,372.956573 
	C482.995697,370.241577 479.790863,365.439026 474.099854,366.265137 
	C477.589935,370.506439 481.079437,374.747009 484.599915,379.369263 
	C485.413757,381.817932 486.196594,383.884888 486.979431,385.951874 
	C489.138092,395.621124 491.295074,405.290771 493.456604,414.959381 
	C493.996643,417.375061 494.551392,419.787445 494.626770,422.616180 
	C488.096741,423.056183 482.039398,423.081360 475.716736,422.880096 
	C474.611023,421.030396 473.870300,419.345795 472.914398,417.793701 
	C465.359924,405.527252 457.764404,393.286011 450.068787,380.719238 
	C449.300110,379.273804 448.644196,378.146149 447.988251,377.018524 
z"/>
<path fill="#F7C9A6" opacity="1.000000" stroke="none" 
	d="
M457.068848,250.001038 
	C449.191467,260.919067 441.549530,271.962036 437.419067,284.996338 
	C437.035858,286.205688 436.237610,287.672150 435.209290,288.208221 
	C433.010559,289.354401 430.100372,291.136383 428.297455,290.465485 
	C426.574341,289.824280 424.758453,286.306885 424.938629,284.222778 
	C425.679749,275.649261 427.344635,267.158539 428.225128,258.591675 
	C428.398773,256.902191 426.605835,255.010620 425.346497,253.153671 
	C424.973114,253.095078 424.968353,252.920074 425.144104,252.633392 
	C427.890045,248.905869 430.460266,245.465057 433.176208,241.958832 
	C433.204987,241.917252 433.088043,241.941086 432.634155,242.011993 
	C429.485962,244.538269 426.583374,246.924545 423.914185,249.548279 
	C423.006531,250.440475 422.687012,251.931030 421.946777,253.515335 
	C421.264069,258.971863 418.693176,264.117157 422.211700,269.095581 
	C421.081665,275.419830 419.776489,281.719086 418.868927,288.075073 
	C417.886383,294.956573 419.928375,301.173981 423.932098,306.772125 
	C428.841034,313.636047 433.781281,320.477631 438.778076,327.651794 
	C434.160797,330.365875 430.947876,328.284821 427.546387,324.948029 
	C417.282593,314.879425 415.023407,301.776672 413.004730,288.506042 
	C412.906433,287.859711 412.740845,287.223633 412.340851,286.301178 
	C411.680847,275.455811 409.783997,265.358154 403.131409,256.143707 
	C404.969269,255.631454 406.725525,256.053009 408.377716,255.798584 
	C410.756531,255.432266 413.419647,255.075607 415.267212,253.748383 
	C416.477631,252.878815 416.461212,250.301453 416.994263,248.488953 
	C413.806152,248.725525 411.966858,250.087280 409.970123,250.382004 
	C406.987122,250.822296 402.700165,253.447403 402.150818,247.310043 
	C405.618439,244.997086 409.086060,242.684143 412.974213,240.090714 
	C412.503845,239.775604 411.037445,238.793228 410.219849,238.245499 
	C409.564178,230.104553 408.930817,222.240326 408.552216,213.787140 
	C411.003174,212.470978 413.184143,211.693268 415.398499,211.026321 
	C421.234497,209.268585 423.867432,211.177231 425.117157,217.162491 
	C425.647583,219.702667 427.413422,221.984894 428.617767,224.384369 
	C429.067535,224.182953 429.517303,223.981537 429.967072,223.780106 
	C430.062347,222.979141 429.906891,222.015839 430.300385,221.407898 
	C431.440063,219.647278 432.800323,218.029449 434.074036,216.355560 
	C435.486420,218.015884 437.131073,219.539932 438.217590,221.391479 
	C438.799377,222.382965 438.366241,223.943619 438.491577,225.237671 
	C438.593414,226.288574 438.472168,227.815903 439.091888,228.286499 
	C442.584686,230.938950 446.271515,233.335876 449.892212,235.819916 
	C451.811646,239.994827 450.855591,245.697891 456.693665,248.376526 
	C457.047424,249.187286 457.058136,249.594162 457.068848,250.001038 
M435.885437,236.844666 
	C435.885437,235.608444 435.885437,234.372223 435.885437,233.136002 
	C435.674500,233.153656 435.463562,233.171310 435.252625,233.188965 
	C434.882904,234.588348 434.513214,235.987732 434.143494,237.387115 
	C434.647064,237.420670 435.150604,237.454224 435.885437,236.844666 
z"/>
<path fill="#FBCBA7" opacity="1.000000" stroke="none" 
	d="
M192.325287,162.362000 
	C191.817902,161.914810 191.582748,161.629120 191.030899,160.832642 
	C186.481888,154.482498 182.249573,148.643143 178.133453,142.964127 
	C176.498505,144.267395 174.789291,145.629868 172.864227,146.877258 
	C172.648376,146.762177 172.202026,146.561859 172.202026,146.561859 
	C169.473831,134.860626 171.481766,123.340706 173.538361,111.439819 
	C174.071228,111.019806 174.597565,110.982346 175.766754,111.212448 
	C178.924606,112.440262 181.439590,113.400520 184.667984,114.633156 
	C184.794067,112.024521 184.871216,110.428421 184.948364,108.832329 
	C188.725021,103.100349 194.407135,101.769943 201.292358,102.353722 
	C201.793015,103.446838 201.760788,104.173897 201.389069,104.963470 
	C199.507065,106.417854 197.883621,107.731277 196.440475,109.219521 
	C194.134827,111.597214 191.949005,114.091064 189.676544,116.575127 
	C191.318634,117.125359 193.761475,117.943901 196.682358,118.922638 
	C196.225159,113.860802 198.586990,111.864540 203.117798,112.328491 
	C205.234482,121.124046 208.859970,128.752228 214.243195,135.578308 
	C215.172241,136.756363 215.450394,138.447723 216.029190,139.901993 
	C219.856445,146.249329 223.205368,152.955017 227.627075,158.856979 
	C233.710678,166.977219 232.444183,175.886917 231.378098,184.687698 
	C230.814957,189.336639 222.836594,192.519455 218.829575,189.779770 
	C213.424393,186.084167 208.208542,181.904785 203.680038,177.194122 
	C199.462555,172.807007 196.251587,167.452286 192.325287,162.362000 
M192.930984,129.295319 
	C191.586395,128.217300 190.241791,127.139267 188.897202,126.061241 
	C188.590881,126.558159 188.284576,127.055077 187.978271,127.551987 
	C189.640076,128.379959 191.301895,129.207916 193.299133,130.671738 
	C194.201065,132.755173 195.377502,134.765274 195.957047,136.934830 
	C198.374466,145.984497 200.387558,155.148453 203.037308,164.126358 
	C203.973175,167.297226 206.303558,170.056488 208.100998,173.304749 
	C208.195358,173.356201 208.289703,173.407669 208.384064,173.459122 
	C208.257263,173.305145 208.130463,173.151154 207.999451,172.214645 
	C204.341064,159.233536 200.767227,146.227127 196.900940,133.308212 
	C196.488541,131.930237 194.367538,131.063614 192.930984,129.295319 
M185.577133,121.328369 
	C185.319702,121.140175 185.074265,120.930428 184.797852,120.776268 
	C184.709641,120.727089 184.539169,120.825432 184.406342,120.856285 
	C184.889404,122.382210 185.372452,123.908134 185.855499,125.434067 
	C186.244766,125.271492 186.634033,125.108917 187.023300,124.946350 
	C186.651810,123.925354 186.280319,122.904358 185.577133,121.328369 
M183.277649,117.835930 
	C183.382751,117.989159 183.487854,118.142395 183.592957,118.295631 
	C183.573837,118.081696 183.554703,117.867752 183.277649,117.835930 
z"/>
<path fill="#FCCBA7" opacity="1.000000" stroke="none" 
	d="
M167.993576,318.230255 
	C177.315720,316.893311 186.637848,315.556335 196.464325,314.459900 
	C197.064621,315.138702 197.160599,315.576935 197.147583,316.404602 
	C197.155502,317.848572 197.272400,318.903137 197.362762,320.149292 
	C197.336227,320.340881 197.167053,320.688782 197.167053,320.688782 
	C196.112396,330.997955 198.462494,340.780426 201.686951,350.448364 
	C207.357910,367.451752 207.698807,384.898499 206.254227,402.565155 
	C205.673111,409.671967 206.050110,416.857117 205.514771,424.497498 
	C199.376404,424.960175 193.714310,424.931976 188.035797,424.457153 
	C187.936157,421.353668 188.111008,418.658936 187.727127,416.046234 
	C185.540131,401.162354 183.459869,386.255768 180.850403,371.443726 
	C179.402191,363.223328 176.994598,355.171906 174.992676,346.654907 
	C172.732910,338.980957 170.398483,331.724976 168.335175,324.392670 
	C167.791168,322.459564 168.084656,320.290802 167.993576,318.230255 
z"/>
<path fill="#1E77BB" opacity="1.000000" stroke="none" 
	d="
M500.070953,435.154144 
	C503.822876,436.400818 505.511780,439.114258 506.014313,442.943176 
	C506.705170,448.207367 507.872101,453.417908 508.346466,458.695404 
	C508.464172,460.005035 506.811615,462.615234 505.788208,462.713928 
	C491.595306,464.083038 477.373199,465.158508 463.151215,466.210297 
	C458.989655,466.518066 455.697113,464.943787 453.727905,461.047089 
	C451.960938,457.550659 452.188843,455.004669 456.656830,454.121063 
	C458.225647,453.810791 459.736206,453.205933 461.177094,451.885651 
	C458.349915,452.028625 455.524170,452.245636 452.695282,452.302002 
	C439.404480,452.566925 426.113159,452.815094 412.821014,452.992157 
	C411.012726,453.016266 409.176666,452.719727 407.391785,452.373810 
	C403.513672,451.622253 402.162262,448.437225 402.558777,445.305054 
	C402.779907,443.558289 405.217712,441.409180 407.124969,440.698822 
	C411.295074,439.145538 415.743164,438.299622 420.115845,437.338348 
	C426.816528,435.865295 431.854950,432.094360 436.169342,426.266052 
	C440.974182,428.728394 445.290070,431.444305 449.597168,434.173950 
	C454.236115,437.113922 458.546722,435.444916 460.222839,430.059174 
	C460.446655,429.339935 460.740234,428.642487 461.250732,428.175171 
	C464.170746,434.533691 466.841522,440.652008 469.573120,446.909637 
	C472.630310,443.405884 475.828552,439.740448 479.454102,436.028625 
	C484.509521,434.740479 487.907501,437.288727 491.207581,439.827606 
	C494.338684,442.236450 497.458221,442.435944 500.907379,440.682129 
	C500.607941,438.703033 500.339447,436.928589 500.070953,435.154144 
z"/>
<path fill="#F9CAA6" opacity="1.000000" stroke="none" 
	d="
M464.045074,290.041290 
	C458.279816,278.111481 458.748779,265.950653 463.136200,253.160095 
	C467.027679,252.475967 469.929199,251.258606 471.871460,248.240280 
	C476.762512,244.703598 482.197205,243.880447 488.476868,245.371979 
	C488.698517,246.863770 488.465332,247.988052 487.852478,249.092926 
	C484.948303,251.362320 482.423737,253.651154 479.517395,255.943542 
	C477.640900,256.057648 476.146179,256.168213 473.374695,256.373169 
	C476.745758,258.749817 478.933350,260.292114 481.734894,262.267242 
	C481.881805,259.627563 481.981079,257.843964 482.510315,256.030334 
	C484.668823,255.975067 486.397400,255.949875 488.241577,256.324280 
	C488.572174,258.707672 488.682770,260.709259 489.018280,262.672424 
	C492.445465,282.727325 502.193054,297.920929 521.976990,305.354004 
	C523.590942,311.666840 525.368835,317.943909 526.757324,324.305939 
	C527.589478,328.119171 525.707886,330.956573 521.562927,332.944275 
	C516.021667,332.384705 511.253571,331.686493 506.485443,330.988312 
	C499.091949,323.099243 491.710449,315.198944 484.292236,307.333160 
	C483.164978,306.137878 481.867706,305.102905 480.332581,303.482849 
	C478.176819,299.704529 476.689758,296.161255 474.403839,293.243896 
	C471.886078,290.030731 468.419189,288.111481 464.045074,290.041290 
M499.105927,320.304413 
	C499.201660,320.353455 499.297363,320.402496 499.393066,320.451538 
	C499.264648,320.298981 499.136230,320.146423 499.014374,319.238220 
	C498.943054,318.746338 498.975220,318.209869 498.785400,317.769012 
	C493.351135,305.146667 488.290283,292.340240 482.254669,280.011200 
	C479.697906,274.788452 475.085907,270.571838 471.408051,265.897949 
	C471.044006,266.143463 470.679993,266.389008 470.315948,266.634552 
	C470.487488,267.183014 470.579071,267.773529 470.842285,268.273773 
	C476.153198,278.368103 481.402313,288.496246 486.837891,298.523224 
	C490.758667,305.755798 494.933075,312.850922 499.105927,320.304413 
M469.606750,263.221313 
	C469.289703,262.094543 468.972687,260.967773 468.655670,259.841003 
	C468.350525,259.946930 468.045410,260.052856 467.740295,260.158752 
	C468.199585,261.311676 468.658905,262.464600 469.606750,263.221313 
z"/>
<path fill="#20201F" opacity="1.000000" stroke="none" 
	d="
M506.128021,331.228516 
	C511.253571,331.686493 516.021667,332.384705 521.223694,333.093750 
	C524.642090,337.495728 528.002930,341.681549 530.533997,346.320160 
	C536.045410,356.421021 534.525818,367.867279 525.954102,376.085236 
	C515.253113,386.344635 502.377777,389.927643 487.375793,385.988281 
	C486.196594,383.884888 485.413757,381.817932 484.852692,379.123047 
	C486.014648,376.660400 486.954865,374.825653 487.895081,372.990936 
	C492.702820,360.160034 488.315735,349.471741 480.097504,339.700226 
	C479.145569,338.568420 477.997955,337.601227 476.727600,336.259766 
	C486.266296,334.464111 496.018433,332.966400 506.128021,331.228516 
z"/>
<path fill="#1E77BB" opacity="1.000000" stroke="none" 
	d="
M207.886169,439.390869 
	C208.983383,443.941406 210.673889,448.442352 211.059280,453.052399 
	C211.975098,464.007477 211.764511,464.520996 200.668869,465.401123 
	C190.302399,466.223358 179.789032,466.526031 169.441406,465.735138 
	C163.581543,465.287231 158.036331,462.045258 156.398544,455.125458 
	C147.975616,455.125458 139.524872,455.389984 131.100571,455.032196 
	C125.509949,454.794769 119.938202,453.781219 114.399536,452.864319 
	C112.839043,452.605988 111.132896,451.756073 110.019653,450.648621 
	C108.697746,449.333618 107.024994,447.330231 107.215157,445.844086 
	C107.387726,444.495422 109.686745,442.858459 111.347466,442.373810 
	C115.156082,441.262360 119.158707,440.831879 123.061668,440.023926 
	C130.233002,438.539429 135.850784,434.809540 139.911270,428.611328 
	C141.034058,426.897400 142.929977,425.689972 145.105865,424.101624 
	C146.002075,426.042053 145.549881,428.681458 146.657593,430.117737 
	C150.112045,434.596527 155.470261,434.484436 160.608093,435.125793 
	C164.990250,435.672760 164.378357,431.981812 166.197266,430.409668 
	C167.363083,432.459747 168.830917,434.164978 169.102936,436.043335 
	C169.754349,440.541473 169.843277,445.121002 170.180496,449.973267 
	C176.093262,448.586029 178.937515,444.302216 182.224655,440.382324 
	C183.648972,438.683868 186.024551,437.783142 188.295685,436.691528 
	C190.997330,438.592224 194.048004,439.863525 195.596375,442.151489 
	C198.333618,446.196167 201.718338,447.346344 206.074509,446.825348 
	C206.703293,444.245056 207.294724,441.817963 207.886169,439.390869 
z"/>
<path fill="#F7C9A6" opacity="1.000000" stroke="none" 
	d="
M128.977798,109.025414 
	C128.003616,106.949753 127.013718,104.881279 126.059380,102.796524 
	C124.972321,100.421844 125.413925,96.959518 121.435608,96.583366 
	C121.139862,96.555397 121.057587,94.269691 120.910538,92.623657 
	C120.790421,89.383057 120.613014,86.553391 120.486763,83.721451 
	C120.310837,79.775024 120.173172,75.826897 120.478088,71.463234 
	C122.710892,70.667778 124.495972,70.334312 126.256607,69.901451 
	C133.801331,68.046593 135.586609,69.376091 137.020096,76.944382 
	C137.447418,79.200562 139.211487,81.203560 140.363083,83.322563 
	C141.834045,81.362892 141.746796,79.802322 142.344421,78.575348 
	C142.927734,77.377769 144.119293,75.850113 145.211838,75.701363 
	C146.325821,75.549690 147.988663,76.636307 148.779419,77.665962 
	C149.619461,78.759781 149.976074,80.402138 150.095123,81.842064 
	C150.649429,88.546021 153.848846,92.513008 160.913483,94.954155 
	C163.145782,99.657600 165.378098,104.361046 167.798340,109.319099 
	C160.283142,121.015648 152.643295,132.501175 144.817276,143.858414 
	C143.445587,145.849030 141.540161,147.791412 139.427841,148.859039 
	C137.455582,149.855881 134.031357,150.707703 132.797394,149.708237 
	C131.428589,148.599533 130.981354,145.059708 131.612274,143.040756 
	C132.986908,138.641937 135.244522,134.509750 137.249969,130.320618 
	C138.579422,127.543526 140.097183,124.856606 141.530655,122.129318 
	C141.135254,121.839851 140.739853,121.550385 140.344452,121.260918 
	C139.368561,122.348839 138.392670,123.436752 136.781219,124.771706 
	C128.197098,128.159454 127.738365,128.041718 126.549149,122.555969 
	C129.688217,118.068588 133.781952,115.692108 140.071838,116.855202 
	C139.374069,114.646042 138.759964,112.701767 138.254333,110.132690 
	C143.579559,104.530518 147.665955,99.059349 146.590546,91.322884 
	C145.078033,99.957680 140.445297,106.034119 132.148209,109.218124 
	C131.674927,109.373299 131.201660,109.528473 130.234589,109.494598 
	C129.521240,109.117546 129.266891,109.024170 128.977798,109.025414 
z"/>
<path fill="#F0BF9D" opacity="1.000000" stroke="none" 
	d="
M144.043457,318.529236 
	C148.402542,318.406982 152.755020,318.693207 157.799240,319.000793 
	C158.651978,319.077972 158.812958,319.133881 159.023743,319.524658 
	C164.343887,324.773499 166.179047,331.263702 167.126984,338.043640 
	C167.995346,344.254364 168.373260,350.532440 169.175247,356.754028 
	C170.843964,369.699493 170.146713,382.511871 167.829071,395.335297 
	C166.539658,402.469574 165.942581,409.728973 164.590057,416.962952 
	C158.669388,416.017975 153.192154,415.042023 147.714920,414.066040 
	C147.790878,391.841949 148.255508,369.609222 147.760513,347.397858 
	C147.548584,337.888214 145.338806,328.423065 144.043457,318.529236 
z"/>
<path fill="#232222" opacity="1.000000" stroke="none" 
	d="
M522.377930,305.476898 
	C502.193054,297.920929 492.445465,282.727325 489.018280,262.672424 
	C488.682770,260.709259 488.572174,258.707672 488.310577,255.902893 
	C488.253357,253.092041 488.242767,251.102188 488.232178,249.112350 
	C488.465332,247.988052 488.698517,246.863770 488.856628,245.405075 
	C491.716888,228.326324 498.695831,213.877731 514.625671,206.219376 
	C521.071716,203.120422 528.904968,202.906891 536.524841,201.521881 
	C535.183899,202.319031 533.458313,203.088425 531.661133,203.612732 
	C512.961182,209.068115 503.554016,223.006516 499.438843,240.706055 
	C495.484619,257.713348 498.342590,274.023132 508.750916,288.475708 
	C513.766724,295.440430 520.024475,301.031616 528.189209,304.220825 
	C529.190125,304.611786 529.980408,305.541992 530.926880,306.566772 
	C528.249939,306.474121 525.514404,306.036957 522.377930,305.476898 
z"/>
<path fill="#232222" opacity="1.000000" stroke="none" 
	d="
M201.728546,104.900955 
	C201.760788,104.173897 201.793015,103.446838 201.705856,102.377838 
	C201.346832,91.413719 202.968994,81.167999 207.959091,71.657570 
	C215.434784,57.409897 226.866135,48.805408 243.561646,47.267754 
	C242.602539,48.375004 241.392761,49.798122 239.854599,50.474960 
	C223.399719,57.715611 215.353516,71.284737 212.135925,88.067482 
	C209.806442,100.217911 211.560898,112.100410 216.651764,123.492760 
	C222.808243,137.269745 232.446625,147.024582 247.303635,151.074753 
	C247.864639,151.227692 248.314957,151.786575 248.897186,152.504700 
	C237.519760,153.079956 227.898758,148.439545 219.102295,141.597198 
	C218.351196,141.012955 217.525894,140.524109 216.382126,139.946472 
	C215.450394,138.447723 215.172241,136.756363 214.243195,135.578308 
	C208.859970,128.752228 205.234482,121.124046 203.139572,111.932938 
	C202.592712,109.087364 202.160629,106.994164 201.728546,104.900955 
z"/>
<path fill="#2D2D2C" opacity="1.000000" stroke="none" 
	d="
M161.076828,94.622261 
	C153.848846,92.513008 150.649429,88.546021 150.095123,81.842064 
	C149.976074,80.402138 149.619461,78.759781 148.779419,77.665962 
	C147.988663,76.636307 146.325821,75.549690 145.211838,75.701363 
	C144.119293,75.850113 142.927734,77.377769 142.344421,78.575348 
	C141.746796,79.802322 141.834045,81.362892 140.363083,83.322563 
	C139.211487,81.203560 137.447418,79.200562 137.020096,76.944382 
	C135.586609,69.376091 133.801331,68.046593 126.256607,69.901451 
	C124.495972,70.334312 122.710892,70.667778 120.540115,71.001091 
	C118.673218,60.084980 124.757912,55.006149 134.063538,54.718845 
	C136.365173,54.647785 138.640839,53.918762 140.940628,53.573448 
	C151.423157,51.999508 161.758987,59.338909 163.391022,69.790009 
	C164.686661,78.087013 164.576202,86.354538 161.076828,94.622261 
z"/>
<path fill="#2D2D2C" opacity="1.000000" stroke="none" 
	d="
M449.963013,235.447235 
	C446.271515,233.335876 442.584686,230.938950 439.091888,228.286499 
	C438.472168,227.815903 438.593414,226.288574 438.491577,225.237671 
	C438.366241,223.943619 438.799377,222.382965 438.217590,221.391479 
	C437.131073,219.539932 435.486420,218.015884 434.074036,216.355560 
	C432.800323,218.029449 431.440063,219.647278 430.300385,221.407898 
	C429.906891,222.015839 430.062347,222.979141 429.967072,223.780106 
	C429.517303,223.981537 429.067535,224.182953 428.617767,224.384369 
	C427.413422,221.984894 425.647583,219.702667 425.117157,217.162491 
	C423.867432,211.177231 421.234497,209.268585 415.398499,211.026321 
	C413.184143,211.693268 411.003174,212.470978 408.449036,213.375916 
	C408.092194,213.306488 408.093353,213.059357 408.060364,212.443069 
	C408.265656,200.463394 410.941345,197.485443 422.353180,195.995209 
	C423.994354,195.780899 425.601959,195.303772 427.222229,194.935806 
	C438.866302,192.291473 450.493225,199.575531 451.518341,211.394653 
	C452.194153,219.186417 450.607483,227.174423 449.963013,235.447235 
z"/>
<path fill="#242424" opacity="1.000000" stroke="none" 
	d="
M96.568771,88.696320 
	C89.273438,93.011009 81.836464,97.585800 77.150475,105.347778 
	C63.774055,127.504784 71.236412,161.312546 95.462532,172.577774 
	C99.373184,174.396225 104.077698,174.507462 108.698814,175.686066 
	C96.766533,178.323853 86.298477,174.620728 77.364937,166.403503 
	C61.603317,151.905655 57.794090,125.318398 68.596581,106.740295 
	C74.783440,96.100159 83.868172,89.903030 96.568771,88.696320 
z"/>
<path fill="#242424" opacity="1.000000" stroke="none" 
	d="
M382.582764,206.162018 
	C383.059479,206.806412 383.235291,207.899551 383.155151,207.918655 
	C369.637726,211.140198 361.569305,220.346909 357.047943,232.732864 
	C351.809113,247.084198 352.726654,261.353973 360.014648,274.938385 
	C363.433563,281.311066 368.502991,286.202484 374.723389,289.924194 
	C376.215393,290.816864 377.503357,292.050598 378.929901,293.465698 
	C363.301758,291.355743 353.885986,281.487701 348.892090,267.257294 
	C342.943970,250.307739 344.933533,234.108871 356.023285,219.622955 
	C362.530640,211.122803 371.378479,206.608856 382.582764,206.162018 
z"/>
<path fill="#9F9F9F" opacity="1.000000" stroke="none" 
	d="
M298.831665,97.092148 
	C287.891602,98.634628 277.025391,100.314049 265.324615,102.006943 
	C263.334778,102.073532 262.077362,101.849197 261.042847,102.230186 
	C257.504883,103.533119 255.069977,102.498428 254.195892,98.904556 
	C253.285889,95.162926 254.526993,92.444252 258.710052,91.560150 
	C260.253662,91.233894 261.693726,90.417778 263.181030,89.825081 
	C273.996460,87.747520 284.811890,85.669960 295.838776,83.278473 
	C296.740692,83.096741 297.431152,83.228958 298.441010,83.747772 
	C295.235260,88.604416 297.559814,92.872696 299.209808,97.164238 
	C299.209808,97.164238 298.905518,97.229088 298.831665,97.092148 
z"/>
<path fill="#9F9F9F" opacity="1.000000" stroke="none" 
	d="
M584.651978,261.102722 
	C574.121643,260.736633 563.591370,260.370514 552.325378,259.771912 
	C549.975342,259.359650 548.343689,258.936768 546.750122,259.049896 
	C543.226685,259.299988 541.205872,257.561890 541.187317,254.325272 
	C541.168274,251.005981 542.594238,248.173233 546.620483,248.022812 
	C548.921753,247.936844 551.227722,247.975143 553.531555,247.957489 
	C563.722229,248.011749 573.912964,248.066025 584.572021,248.060074 
	C585.448364,248.062546 585.856323,248.125244 586.547180,248.611023 
	C586.255798,251.964005 585.665710,254.890961 585.115601,257.825409 
	C584.912476,258.908752 584.803772,260.009766 584.651978,261.102722 
z"/>
<path fill="#EEEFEF" opacity="1.000000" stroke="none" 
	d="
M461.001526,427.934967 
	C460.740234,428.642487 460.446655,429.339935 460.222839,430.059174 
	C458.546722,435.444916 454.236115,437.113922 449.597168,434.173950 
	C445.290070,431.444305 440.974182,428.728394 436.314209,425.962219 
	C434.668793,422.928925 433.371307,419.939911 432.008606,416.625275 
	C438.382111,415.882996 444.820770,415.466370 451.986389,415.204865 
	C455.476074,419.551666 458.238831,423.743317 461.001526,427.934967 
z"/>
<path fill="#EEEFEF" opacity="1.000000" stroke="none" 
	d="
M147.491669,414.370361 
	C153.192154,415.042023 158.669388,416.017975 164.909424,417.005920 
	C166.100693,416.986206 166.529144,416.954559 166.974548,417.366119 
	C166.646194,421.920746 166.300888,426.032135 165.955597,430.143555 
	C164.378357,431.981812 164.990250,435.672760 160.608093,435.125793 
	C155.470261,434.484436 150.112045,434.596527 146.657593,430.117737 
	C145.549881,428.681458 146.002075,426.042053 145.381943,423.891907 
	C145.771683,420.778687 146.520050,417.726685 147.491669,414.370361 
z"/>
<path fill="#EEEFEF" opacity="1.000000" stroke="none" 
	d="
M207.805542,438.992706 
	C207.294724,441.817963 206.703293,444.245056 206.074509,446.825348 
	C201.718338,447.346344 198.333618,446.196167 195.596375,442.151489 
	C194.048004,439.863525 190.997330,438.592224 188.301208,436.263275 
	C188.003479,432.076935 188.027847,428.490356 188.052231,424.903748 
	C193.714310,424.931976 199.376404,424.960175 205.502350,424.961945 
	C206.552460,429.488495 207.138702,434.041534 207.805542,438.992706 
z"/>
<path fill="#EEEFEF" opacity="1.000000" stroke="none" 
	d="
M500.019043,434.774994 
	C500.339447,436.928589 500.607941,438.703033 500.907379,440.682129 
	C497.458221,442.435944 494.338684,442.236450 491.207581,439.827606 
	C487.907501,437.288727 484.509521,434.740479 479.445007,435.613037 
	C477.999725,431.198029 476.990875,427.152313 475.982025,423.106567 
	C482.039398,423.081360 488.096741,423.056183 494.634094,423.034119 
	C496.731781,426.823425 498.349457,430.609619 500.019043,434.774994 
z"/>
<path fill="#2D2D2C" opacity="1.000000" stroke="none" 
	d="
M448.708374,338.700439 
	C445.484314,342.230408 442.076630,345.502686 438.343506,348.857239 
	C435.074646,343.922516 432.131165,338.905518 429.139832,333.557434 
	C433.189209,333.213745 437.286438,333.201172 441.870483,333.119202 
	C444.413086,334.847443 446.468903,336.645111 448.708374,338.700439 
z"/>
<path fill="#BCBCBC" opacity="1.000000" stroke="none" 
	d="
M584.745972,261.365967 
	C584.803772,260.009766 584.912476,258.908752 585.115601,257.825409 
	C585.665710,254.890961 586.255798,251.964005 586.848633,248.682037 
	C592.228271,247.985367 595.195129,250.073944 595.571106,254.457275 
	C595.985413,259.287659 592.778503,261.829742 585.586670,262.061218 
	C585.061462,261.929138 584.950745,261.779205 584.745972,261.365967 
z"/>
<path fill="#BCBCBC" opacity="1.000000" stroke="none" 
	d="
M299.577911,97.100327 
	C297.559814,92.872696 295.235260,88.604416 298.788574,83.802437 
	C304.661163,82.585838 306.418427,83.656281 307.332428,88.657845 
	C308.163086,93.203384 305.839996,95.838524 299.577911,97.100327 
z"/>
<path fill="#050404" opacity="1.000000" stroke="none" 
	d="
M197.256561,316.015198 
	C197.160599,315.576935 197.064621,315.138702 196.863556,314.380768 
	C200.726059,314.389954 204.693619,314.718811 209.051788,315.047211 
	C207.244858,320.260681 202.381683,320.029449 197.557159,320.681458 
	C197.167053,320.688782 197.336227,320.340881 197.549194,319.903625 
	C197.593628,318.316010 197.425095,317.165588 197.256561,316.015198 
z"/>
<path fill="#A8A29E" opacity="1.000000" stroke="none" 
	d="
M471.418518,248.191406 
	C469.929199,251.258606 467.027679,252.475967 463.275146,252.808228 
	C462.623322,249.514801 460.202576,249.567032 457.367645,249.907593 
	C457.058136,249.594162 457.047424,249.187286 457.055481,248.476318 
	C461.704681,248.162323 466.335114,248.152435 471.418518,248.191406 
z"/>
<path fill="#A8A29E" opacity="1.000000" stroke="none" 
	d="
M184.545166,108.868202 
	C184.871216,110.428421 184.794067,112.024521 184.667984,114.633156 
	C181.439590,113.400520 178.924606,112.440262 176.160919,111.210434 
	C178.655487,110.261925 181.398727,109.583000 184.545166,108.868202 
z"/>
<path fill="#232222" opacity="1.000000" stroke="none" 
	d="
M533.239014,307.107758 
	C533.894165,306.865753 534.792480,306.722290 535.872437,306.840790 
	C535.196716,307.137268 534.339417,307.171783 533.239014,307.107758 
z"/>
<path fill="#242424" opacity="1.000000" stroke="none" 
	d="
M381.280487,294.113007 
	C381.913971,293.942108 382.825043,293.890625 383.839172,294.103088 
	C383.147522,294.322144 382.352814,294.277283 381.280487,294.113007 
z"/>
<path fill="#CBCCCC" opacity="1.000000" stroke="none" 
	d="
M553.415405,247.602295 
	C551.227722,247.975143 548.921753,247.936844 546.620483,248.022812 
	C542.594238,248.173233 541.168274,251.005981 541.187317,254.325272 
	C541.205872,257.561890 543.226685,259.299988 546.750122,259.049896 
	C548.343689,258.936768 549.975342,259.359650 551.874268,259.843353 
	C548.700928,264.685883 544.904968,266.003326 540.644775,264.143463 
	C535.968872,262.102112 533.364929,256.423676 534.495911,250.701675 
	C535.445862,245.895325 537.960388,242.257660 542.947693,241.334229 
	C547.814941,240.433029 551.252441,242.813171 553.415405,247.602295 
z"/>
<path fill="#CBCCCC" opacity="1.000000" stroke="none" 
	d="
M263.010803,89.511505 
	C261.693726,90.417778 260.253662,91.233894 258.710052,91.560150 
	C254.526993,92.444252 253.285889,95.162926 254.195892,98.904556 
	C255.069977,102.498428 257.504883,103.533119 261.042847,102.230186 
	C262.077362,101.849197 263.334778,102.073532 264.931122,102.033493 
	C263.968079,106.876953 260.814240,109.745399 255.741058,109.795807 
	C251.435333,109.838593 247.271759,105.829086 246.085037,101.093666 
	C244.654053,95.383530 246.467392,89.369705 250.764252,87.021027 
	C255.211075,84.590363 259.371704,85.380745 263.010803,89.511505 
z"/>
<path fill="#DDA885" opacity="1.000000" stroke="none" 
	d="
M166.957581,416.922913 
	C166.529144,416.954559 166.100693,416.986206 165.352875,416.974915 
	C165.942581,409.728973 166.539658,402.469574 167.829071,395.335297 
	C170.146713,382.511871 170.843964,369.699493 169.175247,356.754028 
	C168.373260,350.532440 167.995346,344.254364 167.126984,338.043640 
	C166.179047,331.263702 164.343887,324.773499 159.359268,319.432617 
	C160.104141,318.944946 160.563278,318.884186 161.347137,318.900604 
	C162.099838,318.879333 162.527817,318.780884 163.302643,318.705261 
	C164.079330,318.573242 164.509186,318.418396 164.939041,318.263580 
	C165.753113,318.210083 166.567169,318.156586 167.687408,318.166687 
	C168.084656,320.290802 167.791168,322.459564 168.335175,324.392670 
	C170.398483,331.724976 172.732910,338.980957 174.910095,347.059631 
	C174.567535,351.652893 174.228317,355.448944 174.004181,359.251740 
	C173.379440,369.851685 173.285126,380.510712 172.056625,391.038513 
	C171.040497,399.746399 168.707260,408.300598 166.957581,416.922913 
z"/>
<path fill="#050404" opacity="1.000000" stroke="none" 
	d="
M164.956482,317.888977 
	C164.509186,318.418396 164.079330,318.573242 163.144531,318.524933 
	C162.100540,318.489014 161.561478,318.656219 161.022415,318.823425 
	C160.563278,318.884186 160.104141,318.944946 159.309479,319.097717 
	C158.812958,319.133881 158.651978,319.077972 158.251740,318.931580 
	C156.334259,306.450714 154.756317,294.045258 152.890182,281.683258 
	C152.531952,279.310211 151.041168,277.108124 150.072845,274.827148 
	C150.462708,274.456909 150.852554,274.086639 151.242401,273.716400 
	C153.099762,275.426941 156.129395,276.853729 156.623367,278.894318 
	C159.721207,291.691589 162.254105,304.625610 164.956482,317.888977 
z"/>
<path fill="#050404" opacity="1.000000" stroke="none" 
	d="
M148.441650,273.542297 
	C148.398483,273.475403 148.484818,273.609161 148.441650,273.542297 
z"/>
<path fill="#9F9F9F" opacity="1.000000" stroke="none" 
	d="
M126.155373,122.606491 
	C127.738365,128.041718 128.197098,128.159454 136.522461,124.969727 
	C136.177292,126.525185 135.455322,128.129669 134.240784,129.649139 
	C131.800797,130.097015 129.853378,130.629883 127.905960,131.162750 
	C123.542870,132.365250 119.179787,133.567749 114.293457,134.691238 
	C112.831406,134.469894 111.725479,133.936829 110.983315,134.254272 
	C108.094421,135.489899 106.588516,133.780167 106.492828,131.582397 
	C106.425606,130.038239 107.908409,128.277054 109.033623,126.882797 
	C109.791458,125.943779 111.132820,125.475700 112.213142,124.796951 
	C116.729294,124.083633 121.245445,123.370323 126.155373,122.606491 
z"/>
<path fill="#196EA2" opacity="1.000000" stroke="none" 
	d="
M172.053925,146.903839 
	C172.202026,146.561859 172.648376,146.762177 172.934692,147.201538 
	C174.559113,149.635101 175.897186,151.629288 177.235275,153.623489 
	C170.533157,159.232773 162.868958,162.054260 154.083267,161.515900 
	C151.450974,161.354599 148.829742,161.013046 146.009079,160.411789 
	C155.364731,157.410477 165.448959,155.769241 172.053925,146.903839 
z"/>
<path fill="#E5B593" opacity="1.000000" stroke="none" 
	d="
M177.548203,153.760498 
	C175.897186,151.629288 174.559113,149.635101 173.150543,147.316620 
	C174.789291,145.629868 176.498505,144.267395 178.133453,142.964127 
	C182.249573,148.643143 186.481888,154.482498 190.843414,160.629669 
	C186.602112,158.590820 182.231628,156.244171 177.548203,153.760498 
z"/>
<path fill="#F0BF9D" opacity="1.000000" stroke="none" 
	d="
M127.947205,131.500885 
	C129.853378,130.629883 131.800797,130.097015 133.972733,129.847702 
	C133.041840,132.016205 131.886414,133.901154 130.446304,135.948212 
	C129.437225,134.686569 128.712845,133.262802 127.947205,131.500885 
z"/>
<path fill="#CBCCCC" opacity="1.000000" stroke="none" 
	d="
M112.099686,124.463326 
	C111.132820,125.475700 109.791458,125.943779 109.033623,126.882797 
	C107.908409,128.277054 106.425606,130.038239 106.492828,131.582397 
	C106.588516,133.780167 108.094421,135.489899 110.983315,134.254272 
	C111.725479,133.936829 112.831406,134.469894 114.004761,134.909592 
	C110.664070,139.375854 108.070114,139.896484 104.604500,137.140747 
	C101.157051,134.399475 100.174042,129.014236 102.806534,125.482498 
	C105.284370,122.158241 108.373436,120.808601 112.099686,124.463326 
z"/>
<path fill="#DDA885" opacity="1.000000" stroke="none" 
	d="
M132.536652,109.374916 
	C140.445297,106.034119 145.078033,99.957680 146.590546,91.322884 
	C147.665955,99.059349 143.579559,104.530518 138.160019,109.780739 
	C136.279846,109.879631 134.602463,109.705673 132.536652,109.374916 
z"/>
<path fill="#DDA885" opacity="1.000000" stroke="none" 
	d="
M129.039093,109.263908 
	C129.266891,109.024170 129.521240,109.117546 129.859375,109.474091 
	C129.977936,109.642639 129.506104,109.779533 129.506104,109.779533 
	C129.506104,109.779533 129.100388,109.502403 129.039093,109.263908 
z"/>
<path fill="#A8A29E" opacity="1.000000" stroke="none" 
	d="
M401.772308,247.252884 
	C402.700165,253.447403 406.987122,250.822296 409.970123,250.382004 
	C411.966858,250.087280 413.806152,248.725525 416.994263,248.488953 
	C416.461212,250.301453 416.477631,252.878815 415.267212,253.748383 
	C413.419647,255.075607 410.756531,255.432266 408.377716,255.798584 
	C406.725525,256.053009 404.969269,255.631454 403.011017,255.813751 
	C401.107208,256.022614 399.451874,255.929626 397.397675,255.652252 
	C396.554474,255.044067 396.152924,254.318130 395.658508,254.248108 
	C393.366730,253.923477 390.435822,253.846451 391.256836,250.655792 
	C391.652161,249.119583 394.194275,248.134628 395.766693,246.903168 
	C396.260925,246.516098 396.763153,246.139206 397.261719,245.757660 
	C398.639069,246.237015 400.016449,246.716370 401.772308,247.252884 
z"/>
<path fill="#CBCCCC" opacity="1.000000" stroke="none" 
	d="
M397.068268,245.444656 
	C396.763153,246.139206 396.260925,246.516098 395.766693,246.903168 
	C394.194275,248.134628 391.652161,249.119583 391.256836,250.655792 
	C390.435822,253.846451 393.366730,253.923477 395.658508,254.248108 
	C396.152924,254.318130 396.554474,255.044067 397.097626,255.853439 
	C394.463165,259.807922 391.120819,260.148438 387.730865,257.510193 
	C384.187347,254.752426 384.006927,249.047638 387.011597,245.422012 
	C389.738159,242.132004 392.711395,242.044464 397.068268,245.444656 
z"/>
<path fill="#E5B593" opacity="1.000000" stroke="none" 
	d="
M464.093689,290.348114 
	C468.419189,288.111481 471.886078,290.030731 474.403839,293.243896 
	C476.689758,296.161255 478.176819,299.704529 480.024780,303.319000 
	C476.586151,301.859283 473.138855,300.052429 469.259125,297.813660 
	C467.809692,296.253510 466.792664,295.125244 465.775635,293.997009 
	C465.231201,292.882996 464.686768,291.768951 464.093689,290.348114 
z"/>
<path fill="#196EA2" opacity="1.000000" stroke="none" 
	d="
M465.457397,294.061462 
	C466.792664,295.125244 467.809692,296.253510 468.948029,297.684570 
	C463.684265,300.411957 458.299164,302.836517 452.914093,305.261078 
	C452.706116,304.842041 452.498169,304.423004 452.290192,304.003967 
	C456.573181,300.711304 460.856140,297.418640 465.457397,294.061462 
z"/>
<path fill="#3B3B3B" opacity="1.000000" stroke="none" 
	d="
M422.446198,268.811768 
	C418.693176,264.117157 421.264069,258.971863 422.304230,253.468246 
	C423.531921,253.009369 424.250122,252.964737 424.968353,252.920074 
	C424.968353,252.920074 424.973114,253.095078 424.992432,253.180847 
	C424.234741,258.353729 423.457703,263.440857 422.446198,268.811768 
z"/>
<path fill="#FCFDFB" opacity="1.000000" stroke="none" 
	d="
M475.716736,422.880096 
	C476.990875,427.152313 477.999725,431.198029 479.017700,435.659363 
	C475.828552,439.740448 472.630310,443.405884 469.573120,446.909637 
	C466.841522,440.652008 464.170746,434.533691 461.250763,428.175171 
	C458.238831,423.743317 455.476074,419.551666 452.421570,415.207977 
	C450.148407,411.092499 448.206055,407.108917 446.176727,403.170135 
	C442.767090,396.552185 439.302185,389.962769 435.491760,382.842590 
	C434.745789,381.546204 434.368530,380.768524 433.911011,379.783478 
	C433.671143,379.312500 433.446442,379.128326 432.957764,378.766479 
	C431.776428,377.114716 430.794006,375.720062 429.887695,373.893982 
	C429.997284,373.172455 430.030792,372.882324 430.064331,372.592163 
	C431.679871,373.266754 433.295380,373.941315 435.368835,375.112915 
	C441.387878,382.859070 443.288574,383.577667 450.181519,381.037048 
	C457.764404,393.286011 465.359924,405.527252 472.914398,417.793701 
	C473.870300,419.345795 474.611023,421.030396 475.716736,422.880096 
z"/>
<path fill="#DDA885" opacity="1.000000" stroke="none" 
	d="
M433.991302,379.990845 
	C434.368530,380.768524 434.745789,381.546204 435.237457,382.631134 
	C430.647766,379.990265 425.961548,377.013062 421.234894,374.101501 
	C415.534821,370.590302 409.800385,367.134796 404.448212,362.931030 
	C411.969269,365.365082 420.162445,365.934418 426.743225,372.128693 
	C428.079895,373.151794 428.945740,373.738586 429.811615,374.325409 
	C430.794006,375.720062 431.776428,377.114716 433.019440,378.982483 
	C433.453186,379.718964 433.690277,379.897369 433.991302,379.990845 
z"/>
<path fill="#1E1E1E" opacity="1.000000" stroke="none" 
	d="
M450.068787,380.719238 
	C443.288574,383.577667 441.387878,382.859070 435.650269,375.287720 
	C439.399109,375.632507 443.324432,376.299469 447.618988,376.992493 
	C448.644196,378.146149 449.300110,379.273804 450.068787,380.719238 
z"/>
<path fill="#EEEFEF" opacity="1.000000" stroke="none" 
	d="
M429.887695,373.893982 
	C428.945740,373.738586 428.079895,373.151794 427.031128,372.301453 
	C427.807220,372.075623 428.766205,372.113312 429.894775,372.371582 
	C430.030792,372.882324 429.997284,373.172455 429.887695,373.893982 
z"/>
<path fill="#DDA885" opacity="1.000000" stroke="none" 
	d="
M402.556213,361.467651 
	C402.590363,361.523102 402.522064,361.412170 402.556213,361.467651 
z"/>
<path fill="#DDA885" opacity="1.000000" stroke="none" 
	d="
M487.554016,372.956573 
	C486.954865,374.825653 486.014648,376.660400 484.821716,378.741364 
	C481.079437,374.747009 477.589935,370.506439 474.099854,366.265137 
	C479.790863,365.439026 482.995697,370.241577 487.554016,372.956573 
z"/>
<path fill="#DDA885" opacity="1.000000" stroke="none" 
	d="
M425.144104,252.633392 
	C424.250122,252.964737 423.531921,253.009369 422.456238,253.101105 
	C422.687012,251.931030 423.006531,250.440475 423.914185,249.548279 
	C426.583374,246.924545 429.485962,244.538269 432.647827,242.028015 
	C432.998505,241.996994 433.030487,242.024246 433.030457,242.024231 
	C430.460266,245.465057 427.890045,248.905869 425.144104,252.633392 
z"/>
<path fill="#DDA885" opacity="1.000000" stroke="none" 
	d="
M435.769806,237.166214 
	C435.150604,237.454224 434.647064,237.420670 434.143494,237.387115 
	C434.513214,235.987732 434.882904,234.588348 435.252625,233.188965 
	C435.463562,233.171310 435.674500,233.153656 435.885437,233.136002 
	C435.885437,234.372223 435.885437,235.608444 435.769806,237.166214 
z"/>
<path fill="#DDA885" opacity="1.000000" stroke="none" 
	d="
M432.984802,241.980957 
	C433.088043,241.941086 433.204987,241.917252 433.176208,241.958832 
	C433.030487,242.024246 432.998505,241.996994 432.984802,241.980957 
z"/>
<path fill="#DDA885" opacity="1.000000" stroke="none" 
	d="
M207.997253,173.003662 
	C206.303558,170.056488 203.973175,167.297226 203.037308,164.126358 
	C200.387558,155.148453 198.374466,145.984497 195.957047,136.934830 
	C195.377502,134.765274 194.201065,132.755173 193.150421,130.334930 
	C193.001709,129.998108 193.039169,129.959763 193.039169,129.959763 
	C194.367538,131.063614 196.488541,131.930237 196.900940,133.308212 
	C200.767227,146.227127 204.341064,159.233536 207.999725,172.607330 
	C208.000000,173.000000 207.997269,173.003662 207.997253,173.003662 
z"/>
<path fill="#A8A29E" opacity="1.000000" stroke="none" 
	d="
M201.389069,104.963470 
	C202.160629,106.994164 202.592712,109.087364 203.003036,111.576134 
	C198.586990,111.864540 196.225159,113.860802 196.682358,118.922638 
	C193.761475,117.943901 191.318634,117.125359 189.676544,116.575127 
	C191.949005,114.091064 194.134827,111.597214 196.440475,109.219521 
	C197.883621,107.731277 199.507065,106.417854 201.389069,104.963470 
z"/>
<path fill="#DDA885" opacity="1.000000" stroke="none" 
	d="
M192.982712,130.016998 
	C191.301895,129.207916 189.640076,128.379959 187.978271,127.551987 
	C188.284576,127.055077 188.590881,126.558159 188.897202,126.061241 
	C190.241791,127.139267 191.586395,128.217300 192.985077,129.627533 
	C193.039169,129.959763 193.001709,129.998108 192.982712,130.016998 
z"/>
<path fill="#DDA885" opacity="1.000000" stroke="none" 
	d="
M185.742981,121.605865 
	C186.280319,122.904358 186.651810,123.925354 187.023300,124.946350 
	C186.634033,125.108917 186.244766,125.271492 185.855499,125.434067 
	C185.372452,123.908134 184.889404,122.382210 184.406342,120.856277 
	C184.539169,120.825432 184.709641,120.727089 184.797852,120.776268 
	C185.074265,120.930428 185.319702,121.140175 185.742981,121.605865 
z"/>
<path fill="#DDA885" opacity="1.000000" stroke="none" 
	d="
M183.406616,117.744873 
	C183.554703,117.867752 183.573837,118.081696 183.592957,118.295631 
	C183.487854,118.142395 183.382751,117.989159 183.406616,117.744873 
z"/>
<path fill="#DDA885" opacity="1.000000" stroke="none" 
	d="
M208.001831,172.998581 
	C208.130463,173.151154 208.257263,173.305145 208.384064,173.459122 
	C208.289703,173.407669 208.195358,173.356201 208.049133,173.154205 
	C207.997269,173.003662 208.000000,173.000000 208.001831,172.998581 
z"/>
<path fill="#FCFDFB" opacity="1.000000" stroke="none" 
	d="
M166.974533,417.366119 
	C168.707260,408.300598 171.040497,399.746399 172.056625,391.038513 
	C173.285126,380.510712 173.379440,369.851685 174.004181,359.251740 
	C174.228317,355.448944 174.567535,351.652893 174.936829,347.449036 
	C176.994598,355.171906 179.402191,363.223328 180.850403,371.443726 
	C183.459869,386.255768 185.540131,401.162354 187.727127,416.046234 
	C188.111008,418.658936 187.936157,421.353668 188.035797,424.457153 
	C188.027847,428.490356 188.003479,432.076935 187.973572,436.091797 
	C186.024551,437.783142 183.648972,438.683868 182.224655,440.382324 
	C178.937515,444.302216 176.093262,448.586029 170.180496,449.973267 
	C169.843277,445.121002 169.754349,440.541473 169.102936,436.043335 
	C168.830917,434.164978 167.363083,432.459747 166.197266,430.409668 
	C166.300888,426.032135 166.646194,421.920746 166.974533,417.366119 
z"/>
<path fill="#1E1E1E" opacity="1.000000" stroke="none" 
	d="
M197.147583,316.404602 
	C197.425095,317.165588 197.593628,318.316010 197.575745,319.712036 
	C197.272400,318.903137 197.155502,317.848572 197.147583,316.404602 
z"/>
<path fill="#DDA885" opacity="1.000000" stroke="none" 
	d="
M498.994385,320.007324 
	C494.933075,312.850922 490.758667,305.755798 486.837891,298.523224 
	C481.402313,288.496246 476.153198,278.368103 470.842285,268.273773 
	C470.579071,267.773529 470.487488,267.183014 470.315948,266.634552 
	C470.679993,266.389008 471.044006,266.143463 471.408051,265.897949 
	C475.085907,270.571838 479.697906,274.788452 482.254669,280.011200 
	C488.290283,292.340240 493.351135,305.146667 498.785400,317.769012 
	C498.975220,318.209869 498.943054,318.746338 499.007202,319.619110 
	C499.000000,320.000000 498.994385,320.007324 498.994385,320.007324 
z"/>
<path fill="#A8A29E" opacity="1.000000" stroke="none" 
	d="
M487.852509,249.092926 
	C488.242767,251.102188 488.253357,253.092041 488.194946,255.503265 
	C486.397400,255.949875 484.668823,255.975067 482.147217,255.998169 
	C480.869141,255.977386 480.384155,255.958679 479.899170,255.939987 
	C482.423737,253.651154 484.948303,251.362320 487.852509,249.092926 
z"/>
<path fill="#DDA885" opacity="1.000000" stroke="none" 
	d="
M479.517395,255.943542 
	C480.384155,255.958679 480.869141,255.977386 481.717224,256.028229 
	C481.981079,257.843964 481.881805,259.627563 481.734894,262.267242 
	C478.933350,260.292114 476.745758,258.749817 473.374695,256.373169 
	C476.146179,256.168213 477.640900,256.057648 479.517395,255.943542 
z"/>
<path fill="#DDA885" opacity="1.000000" stroke="none" 
	d="
M469.362488,263.419434 
	C468.658905,262.464600 468.199585,261.311676 467.740295,260.158752 
	C468.045410,260.052856 468.350525,259.946930 468.655670,259.841003 
	C468.972687,260.967773 469.289703,262.094543 469.362488,263.419434 
z"/>
<path fill="#DDA885" opacity="1.000000" stroke="none" 
	d="
M499.003906,319.996948 
	C499.136230,320.146423 499.264648,320.298981 499.393066,320.451538 
	C499.297363,320.402496 499.201660,320.353455 499.050171,320.155884 
	C498.994385,320.007324 499.000000,320.000000 499.003906,319.996948 
z"/>
<path fill="#1E1E1E" opacity="1.000000" stroke="none" 
	d="
M161.347137,318.900604 
	C161.561478,318.656219 162.100540,318.489014 162.797699,318.502106 
	C162.527817,318.780884 162.099838,318.879333 161.347137,318.900604 
z"/>
<path fill="#EEEFEF" opacity="1.000000" stroke="none" 
	d="
M433.911011,379.783478 
	C433.690277,379.897369 433.453186,379.718964 433.218323,379.239594 
	C433.446442,379.128326 433.671143,379.312500 433.911011,379.783478 
z"/>
</svg>