<svg width="28" height="28" viewBox="0 0 28 28" fill="none" xmlns="http://www.w3.org/2000/svg">
<path d="M22.2482 5.75173C20.334 3.82498 17.8075 2.62648 15.1043 2.36285C12.4011 2.09922 9.69063 2.78697 7.44018 4.30755C5.18972 5.82813 3.5403 8.08624 2.77629 10.6926C2.01227 13.2989 2.18153 16.0901 3.25489 18.5851C3.36677 18.817 3.40347 19.078 3.35989 19.3317L2.33323 24.2667C2.29367 24.4559 2.30175 24.652 2.35673 24.8373C2.41172 25.0226 2.51188 25.1914 2.64823 25.3284C2.76 25.4394 2.89308 25.5265 3.03945 25.5847C3.18582 25.6428 3.34245 25.6707 3.49989 25.6667H3.73323L8.72656 24.6634C8.98034 24.6329 9.2377 24.6691 9.47323 24.7684C11.9681 25.8418 14.7594 26.011 17.3657 25.247C19.972 24.483 22.2302 22.8336 23.7507 20.5831C25.2713 18.3327 25.9591 15.6222 25.6954 12.919C25.4318 10.2158 24.2333 7.68932 22.3066 5.77507L22.2482 5.75173ZM9.33323 15.1667C9.10248 15.1667 8.87692 15.0983 8.68506 14.9701C8.4932 14.8419 8.34367 14.6597 8.25537 14.4465C8.16706 14.2333 8.14396 13.9988 8.18898 13.7725C8.23399 13.5461 8.34511 13.3383 8.50827 13.1751C8.67143 13.0119 8.87931 12.9008 9.10562 12.8558C9.33193 12.8108 9.56651 12.8339 9.77969 12.9222C9.99287 13.0105 10.1751 13.16 10.3033 13.3519C10.4315 13.5438 10.4999 13.7693 10.4999 14.0001C10.4999 14.3095 10.377 14.6062 10.1582 14.825C9.93939 15.0438 9.64265 15.1667 9.33323 15.1667ZM13.9999 15.1667C13.7691 15.1667 13.5436 15.0983 13.3517 14.9701C13.1599 14.8419 13.0103 14.6597 12.922 14.4465C12.8337 14.2333 12.8106 13.9988 12.8556 13.7725C12.9007 13.5461 13.0118 13.3383 13.1749 13.1751C13.3381 13.0119 13.546 12.9008 13.7723 12.8558C13.9986 12.8108 14.2332 12.8339 14.4464 12.9222C14.6595 13.0105 14.8417 13.16 14.9699 13.3519C15.0981 13.5438 15.1666 13.7693 15.1666 14.0001C15.1666 14.3095 15.0436 14.6062 14.8249 14.825C14.6061 15.0438 14.3093 15.1667 13.9999 15.1667ZM18.6666 15.1667C18.4358 15.1667 18.2102 15.0983 18.0184 14.9701C17.8265 14.8419 17.677 14.6597 17.5887 14.4465C17.5004 14.2333 17.4773 13.9988 17.5223 13.7725C17.5673 13.5461 17.6784 13.3383 17.8416 13.1751C18.0048 13.0119 18.2126 12.9008 18.439 12.8558C18.6653 12.8108 18.8998 12.8339 19.113 12.9222C19.3262 13.0105 19.5084 13.16 19.6366 13.3519C19.7648 13.5438 19.8332 13.7693 19.8332 14.0001C19.8332 14.3095 19.7103 14.6062 19.4915 14.825C19.2727 15.0438 18.976 15.1667 18.6666 15.1667Z" fill="url(#paint0_linear_1057_1972)"/>
<defs>
<linearGradient id="paint0_linear_1057_1972" x1="45.2884" y1="47.3944" x2="-11.5074" y2="43.0729" gradientUnits="userSpaceOnUse">
<stop stop-color="#CC8FED"/>
<stop offset="1" stop-color="#9DCEFF"/>
</linearGradient>
</defs>
</svg>
