<svg version="1.1" id="Layer_1" xmlns="http://www.w3.org/2000/svg" xmlns:xlink="http://www.w3.org/1999/xlink" x="0px" y="0px"
	 width="100%" viewBox="0 0 308 310" enable-background="new 0 0 308 310" xml:space="preserve">
<path fill="#FEFEFE" opacity="1.000000" stroke="none" 
	d="
M181.000000,311.000000 
	C120.666695,311.000000 60.833389,311.000000 1.000064,311.000000 
	C1.000043,207.666748 1.000043,104.333488 1.000021,1.000175 
	C103.666542,1.000117 206.333084,1.000117 308.999725,1.000058 
	C308.999817,104.333160 308.999817,207.666321 308.999908,310.999756 
	C266.500000,311.000000 224.000000,311.000000 181.000000,311.000000 
M64.024971,88.697800 
	C64.334625,89.806412 64.644272,90.915024 64.949287,92.772766 
	C65.037834,93.515297 65.126381,94.257828 65.155296,95.656342 
	C65.777336,96.767654 66.399376,97.878975 67.061684,99.715080 
	C69.860153,106.787018 71.450356,107.808434 77.686249,106.034927 
	C78.441940,105.351860 79.197632,104.668785 80.486504,103.641212 
	C80.686523,102.837997 80.886536,102.034790 81.624908,100.868912 
	C82.394012,100.510826 83.163116,100.152748 84.021774,100.754105 
	C84.108185,115.168030 84.194595,129.581955 84.094353,144.838654 
	C83.617699,147.745468 85.320206,148.079178 87.643196,148.066193 
	C98.934387,148.003036 110.227409,147.934128 121.516785,148.087494 
	C124.731323,148.131149 125.763512,147.008591 125.377144,143.406494 
	C125.990852,137.599274 126.604561,131.792038 127.575104,125.341499 
	C127.599121,124.857269 127.623138,124.373047 128.162140,123.382721 
	C128.884644,121.009186 129.592407,118.631042 130.332306,116.262939 
	C133.142242,107.269447 135.962585,98.279198 139.034363,88.447479 
	C139.133545,82.198303 139.449936,75.941162 139.220947,69.704033 
	C139.134003,67.335388 138.190109,64.769577 136.937637,62.721100 
	C134.511047,58.752316 130.327682,58.924751 126.251175,58.982479 
	C120.358345,59.065918 118.859283,57.695229 119.070389,51.722225 
	C119.172279,48.838974 120.283279,45.991390 121.255775,42.423733 
	C121.608078,40.309216 122.509422,38.108673 122.194473,36.098705 
	C121.601105,32.311710 121.392395,27.636223 119.077995,25.119345 
	C114.243324,19.861742 107.239555,18.810871 100.271225,19.905046 
	C92.396179,21.141596 89.720909,25.634598 91.993584,33.768242 
	C92.233688,36.369839 92.091537,39.078995 92.787506,41.552315 
	C94.671692,48.248264 96.911873,54.844044 98.169014,61.568367 
	C96.499008,61.805706 94.829010,62.043049 92.264870,62.068829 
	C88.391411,62.114830 84.237381,60.733017 80.465103,63.748215 
	C80.079536,61.346607 79.208519,58.905510 79.400070,56.550850 
	C79.959663,49.672157 81.180038,42.841526 81.574471,35.959560 
	C81.660362,34.460938 79.542229,31.672247 78.166527,31.485411 
	C74.864273,31.036919 71.400101,31.780586 67.329437,32.078381 
	C65.046242,33.005173 63.375126,34.215275 65.084740,37.668961 
	C65.772705,39.113670 66.460670,40.558380 67.162178,42.774452 
	C67.784836,46.118404 68.865509,49.454506 68.923019,52.808151 
	C69.009750,57.865059 68.381859,62.934227 67.940361,68.561707 
	C67.600418,69.243469 67.260483,69.925232 66.267616,70.734795 
	C65.828911,70.794861 65.390198,70.854919 64.107323,70.922279 
	C54.653858,72.380859 45.236851,74.185356 35.735203,75.186768 
	C28.351772,75.964928 20.839603,75.481506 13.436594,76.141457 
	C11.525258,76.311844 9.120078,78.331039 8.219537,80.137840 
	C7.485518,81.610535 8.658670,84.033791 9.212150,86.460037 
	C9.415850,86.721878 9.675779,86.903084 10.281889,87.634506 
	C14.528337,91.503799 19.448027,92.099350 22.257217,87.986328 
	C25.807863,82.787720 30.279009,83.982925 34.957642,84.440140 
	C43.964043,85.320274 52.973377,86.170395 62.571316,87.124916 
	C63.077984,87.404541 63.584648,87.684174 64.024971,88.697800 
M200.794220,167.608490 
	C200.745636,168.047089 200.697052,168.485703 200.255539,169.433289 
	C200.158035,170.281158 200.060532,171.129028 199.407211,172.401306 
	C197.937119,178.076416 196.088867,183.686569 195.099976,189.444321 
	C194.045685,195.582733 193.505356,201.852188 193.328598,208.081131 
	C193.235214,211.372086 194.392914,214.698517 194.956802,218.908188 
	C195.031525,221.603790 195.106247,224.299377 195.077301,227.845261 
	C195.489792,229.889252 195.902267,231.933258 196.182510,234.741501 
	C196.209656,235.503372 196.236786,236.265228 196.274170,237.830002 
	C196.463333,239.941071 196.652496,242.052139 196.485794,244.370010 
	C196.684677,244.943649 196.883560,245.517303 197.328400,246.889954 
	C197.784607,249.333954 198.240814,251.777969 198.465881,254.307587 
	C198.465881,254.307587 198.507233,254.652420 198.507233,254.652420 
	C198.507233,254.652420 198.826385,254.759476 199.068512,255.585007 
	C199.314774,256.408813 199.561050,257.232635 199.577194,258.245422 
	C199.548996,258.495300 199.660629,258.629944 200.120544,259.442932 
	C201.786011,267.652466 203.451477,275.862030 204.901154,284.675232 
	C205.655945,286.127228 206.387238,288.830566 207.169052,288.845245 
	C220.867340,289.102661 234.571808,289.031250 248.403488,289.031250 
	C248.577103,288.268646 248.854416,287.642120 248.828598,287.028320 
	C248.787613,286.053528 248.544205,285.087250 248.667068,283.211639 
	C248.662781,281.225098 248.698166,279.237579 248.647736,277.252197 
	C248.341553,265.198883 247.020386,253.109543 250.657532,241.246384 
	C251.405258,238.807587 251.270233,236.098145 252.018387,232.729172 
	C252.666290,227.485565 253.314194,222.241959 254.269882,216.428207 
	C254.492493,215.610107 254.715088,214.792007 255.500366,213.592834 
	C259.626953,206.906357 263.581360,200.152466 264.312958,191.314606 
	C264.524475,189.535751 264.735962,187.756897 265.515564,185.460373 
	C266.014099,180.703598 266.552185,175.950546 266.998505,171.188873 
	C267.350189,167.437042 265.878235,164.949860 261.842316,164.811981 
	C253.213837,164.517258 244.506119,163.553543 235.972275,164.360107 
	C228.220978,165.092682 221.406952,164.449753 214.474335,160.667755 
	C211.492538,159.041046 206.924683,157.575760 203.621094,162.359680 
	C203.343506,162.803680 203.065918,163.247696 202.172058,163.978806 
	C201.744354,164.970261 201.316635,165.961716 200.794220,167.608490 
M91.023003,249.796036 
	C91.463936,251.489166 91.904869,253.182297 92.254944,255.576096 
	C92.477425,256.731812 92.699905,257.887512 92.585167,259.620850 
	C93.479927,264.732666 94.374687,269.844482 95.160049,275.894501 
	C95.431915,278.709015 95.703789,281.523529 95.651718,285.035980 
	C94.893585,288.289703 96.114815,289.454773 99.495438,289.417542 
	C112.408394,289.275330 125.323906,289.374664 138.238312,289.334961 
	C139.141647,289.332184 140.043762,288.931427 141.168640,288.662598 
	C140.960434,286.941254 140.783569,285.479126 140.928391,283.205292 
	C140.514618,278.899414 140.100845,274.593506 139.929489,269.490234 
	C139.589005,267.992981 139.248520,266.495758 138.743835,264.253540 
	C138.561966,262.492645 138.380096,260.731750 138.716461,258.352203 
	C138.414108,254.561981 138.111755,250.771774 137.654221,246.195374 
	C137.572128,243.164764 137.490021,240.134140 137.948456,237.062180 
	C138.300064,236.973785 138.651688,236.885406 139.509323,237.359756 
	C141.843384,244.556320 144.224747,251.738007 146.492157,258.955505 
	C147.681976,262.742828 148.664902,266.594910 149.754089,270.414093 
	C151.514420,276.586639 153.500656,282.705109 154.978775,288.944244 
	C156.027588,293.371185 159.327515,291.935120 161.741394,291.696625 
	C162.850586,291.587006 164.666290,289.156708 164.584091,287.880310 
	C163.345581,268.645233 159.009293,249.927551 154.042465,231.402542 
	C151.969070,223.669296 147.777313,216.529999 145.182983,208.904831 
	C140.434097,194.947174 131.422836,191.493195 117.929489,193.366074 
	C116.689323,193.617325 115.449158,193.868576 113.367157,194.029755 
	C110.251701,193.347931 107.136253,192.666107 103.583656,191.491196 
	C102.409454,190.859619 101.235252,190.228043 99.875130,188.980850 
	C98.248970,186.988281 96.760590,184.858429 94.954163,183.045486 
	C93.438248,181.524094 91.551476,180.372223 89.359451,178.604004 
	C85.930618,176.077499 82.501778,173.550995 78.978729,170.248978 
	C75.722946,166.325409 71.885155,168.004105 67.263535,169.034271 
	C63.270634,168.452118 60.170246,169.962326 57.565239,172.942719 
	C52.148178,179.140366 45.843639,184.740112 41.390476,191.556793 
	C35.989464,199.824387 31.686827,208.905548 27.746536,217.997681 
	C25.114134,224.071884 26.915012,227.504913 32.838596,229.281174 
	C44.288208,232.714462 56.022682,233.646622 67.678635,230.492477 
	C73.328278,228.963654 78.354485,227.860535 82.289764,233.598083 
	C82.761688,234.286163 83.970505,234.468811 84.914558,235.683472 
	C86.952507,240.072922 88.990456,244.462357 90.981682,248.958511 
	C90.981682,248.958511 91.088104,249.005859 91.023003,249.796036 
M204.224640,140.944366 
	C203.967896,142.379379 203.711151,143.814407 203.398056,145.564362 
	C217.492401,145.564362 231.209198,145.564362 245.477814,145.564362 
	C245.292755,143.585663 245.127701,141.821030 245.264511,139.048431 
	C245.228622,137.997818 245.192719,136.947205 245.233276,135.980072 
	C245.233276,135.980072 245.155731,136.135544 245.112350,135.084167 
	C245.928955,128.482712 246.745560,121.881256 248.269592,115.686890 
	C255.881302,122.690483 263.493011,129.694077 272.044067,137.561935 
	C271.527191,135.401169 271.227661,134.149109 271.785431,132.935959 
	C277.973419,133.020660 288.486694,124.155083 288.588898,118.110786 
	C288.636505,115.295883 286.798676,112.494064 286.119751,109.614563 
	C281.969604,92.012642 270.583710,79.148544 257.760162,67.554550 
	C252.500412,62.799114 247.209000,57.152676 239.340179,56.328979 
	C234.568405,55.829479 229.777756,55.510220 224.325607,54.919666 
	C224.115570,54.820747 223.905548,54.721825 223.713287,54.444584 
	C223.713287,54.444584 223.475708,54.367855 223.475708,54.367855 
	C223.475708,54.367855 223.368301,54.563107 222.524704,54.673569 
	C221.675827,54.716682 220.826935,54.759792 219.505936,54.332657 
	C215.986618,52.215660 212.467316,50.098660 208.972183,47.151512 
	C206.926743,32.561993 202.805161,28.100433 189.594345,26.175211 
	C182.034317,25.073484 170.072800,37.847828 171.905411,45.399277 
	C172.252991,46.831444 174.526764,47.796146 175.895187,49.722752 
	C179.656219,56.113506 182.627167,62.952442 189.885574,66.727493 
	C193.126816,68.413239 195.405426,71.794083 199.420227,68.469475 
	C199.567337,68.347649 201.040207,69.826813 201.180527,70.800949 
	C200.660461,71.551041 200.023285,72.245804 199.638763,73.059914 
	C196.376434,79.967087 199.924591,86.359734 201.132523,93.598114 
	C201.228622,94.035828 201.324722,94.473541 201.224152,95.620407 
	C201.599701,96.708832 201.975235,97.797249 202.357971,99.599854 
	C202.531647,100.039124 202.705338,100.478394 202.622955,101.499352 
	C203.792618,103.053169 204.962265,104.606987 206.586685,106.669678 
	C206.789108,106.773499 206.991531,106.877312 207.287308,107.831108 
	C207.477173,114.577179 207.667038,121.323250 207.522903,128.688721 
	C207.441483,129.147995 207.360062,129.607254 206.699661,130.515015 
	C205.968430,133.760452 205.237213,137.005905 204.224640,140.944366 
z"/>
<path fill="#1F75B8" opacity="1.000000" stroke="none" 
	d="
M196.841675,244.163208 
	C196.652496,242.052139 196.463333,239.941071 196.502823,237.262329 
	C197.280121,235.904419 197.828751,235.114166 198.554169,234.261948 
	C198.730942,234.199982 198.989883,233.929276 199.258606,233.855347 
	C199.784454,233.311142 200.041580,232.840866 200.314056,232.333252 
	C200.329422,232.295929 200.389069,232.241531 200.627899,232.162964 
	C201.042419,231.804825 201.218124,231.525238 201.576782,231.127808 
	C201.982880,230.807877 202.126007,230.559677 202.480362,230.150513 
	C203.153564,229.347687 203.535507,228.659683 204.046204,227.832520 
	C204.174942,227.693375 204.300339,227.335556 204.527069,227.197083 
	C204.865143,226.731842 204.976486,226.405045 205.201508,225.929184 
	C205.315170,225.780106 205.372177,225.409515 205.593826,225.259125 
	C205.939697,224.781647 206.063919,224.454559 206.410370,223.919220 
	C206.784973,223.138138 206.937332,222.565338 207.226151,221.896942 
	C207.362610,221.801361 207.429932,221.475006 207.719421,221.293243 
	C208.669449,219.413834 209.330002,217.716171 210.085510,215.831390 
	C210.180450,215.644287 210.219711,215.226486 210.500580,215.021774 
	C212.085052,212.097275 213.388641,209.377487 215.333786,205.319168 
	C216.350845,208.199188 216.887833,209.661179 217.384506,211.136749 
	C219.106079,216.251266 220.813644,221.370514 222.564453,226.755554 
	C222.765366,227.342361 222.928375,227.661575 223.096039,228.306305 
	C224.021942,229.457962 224.943222,230.284088 225.893829,231.086914 
	C225.923157,231.063614 225.915710,231.138168 226.055191,231.408585 
	C226.758072,231.849335 227.321457,232.019684 228.140991,232.323563 
	C228.589661,232.459671 228.782196,232.462265 229.187836,232.617661 
	C230.139084,232.138474 230.877228,231.506470 231.780838,230.721924 
	C231.946304,230.569412 232.118317,230.153519 232.412003,230.062943 
	C233.067307,229.300766 233.428909,228.629166 233.924774,227.792328 
	C234.059006,227.627090 234.175018,227.217422 234.480957,226.988464 
	C234.993744,224.201065 235.303772,221.645767 235.381454,219.083405 
	C235.479752,215.841385 235.388977,212.593643 235.698013,209.310669 
	C236.970428,208.890320 237.924576,208.507690 238.932404,208.118500 
	C238.986069,208.111923 238.879990,208.095276 239.019653,208.401749 
	C241.446381,212.134430 243.733444,215.560638 245.989594,219.332092 
	C246.471298,220.822418 246.983932,221.967499 247.504517,223.511780 
	C248.855667,227.111801 250.198883,230.312637 251.542084,233.513458 
	C251.270233,236.098145 251.405258,238.807587 250.657532,241.246384 
	C247.020386,253.109543 248.341553,265.198883 248.647736,277.252197 
	C248.698166,279.237579 248.662781,281.225098 248.132874,283.672668 
	C233.435196,286.097382 219.274445,286.200287 205.116959,284.071564 
	C203.451477,275.862030 201.786011,267.652466 200.079742,258.946899 
	C200.038956,258.450897 199.807312,258.056458 199.807312,258.056458 
	C199.561050,257.232635 199.314774,256.408813 198.994995,255.020630 
	C198.921478,254.456238 198.697021,254.221970 198.697021,254.221970 
	C198.240814,251.777969 197.784607,249.333954 197.387466,246.260651 
	C197.244919,245.141968 197.043289,244.652588 196.841675,244.163208 
z"/>
<path fill="#1D75B9" opacity="1.000000" stroke="none" 
	d="
M95.975647,284.338074 
	C95.703789,281.523529 95.431915,278.709015 95.454048,275.112183 
	C94.806160,269.234314 93.864273,264.138794 92.922386,259.043243 
	C92.699905,257.887512 92.477425,256.731812 92.517960,254.948593 
	C92.216690,252.549347 91.652397,250.777603 91.088104,249.005859 
	C91.088104,249.005859 90.981682,248.958511 91.016769,248.526276 
	C90.086197,242.782974 85.765358,238.253281 87.365707,232.204193 
	C87.348358,232.067795 87.480095,231.826431 87.875595,231.755035 
	C92.334473,226.110794 92.167061,218.121719 87.811050,214.813171 
	C87.638649,214.252350 87.577568,213.920258 87.657585,213.201477 
	C88.488495,211.867813 89.178314,210.920837 90.005966,210.096100 
	C90.143806,210.218323 90.292931,210.555237 90.324089,210.872986 
	C90.717003,211.362152 91.078758,211.533569 91.602295,211.707672 
	C91.764076,211.710342 92.087639,211.704742 92.094742,211.957001 
	C92.148575,212.370880 92.195297,212.532501 92.213959,213.050110 
	C93.269836,214.098022 94.353767,214.789917 95.424149,215.526459 
	C95.410614,215.571106 95.503441,215.561630 95.479202,215.890427 
	C96.026161,216.407471 96.597359,216.595718 97.079102,216.880219 
	C96.989639,216.976486 97.156731,216.772644 97.234497,217.068634 
	C97.849457,217.595276 98.386650,217.825928 98.950073,218.025558 
	C98.976303,217.994537 98.945816,218.069275 99.013855,218.402405 
	C99.824081,219.074036 100.566269,219.412552 101.572235,219.799042 
	C102.307922,220.090958 102.779816,220.334915 103.357086,220.949631 
	C108.559525,224.097473 111.494949,223.693085 114.783524,219.740662 
	C114.798615,219.718475 114.745285,219.712448 115.080696,219.771973 
	C115.985229,218.612015 116.554359,217.392517 117.144165,215.820541 
	C117.293701,215.017227 117.422569,214.566391 117.776352,214.033569 
	C117.873947,213.243164 117.746628,212.534729 117.514778,211.834900 
	C117.410248,211.843521 117.202820,211.874756 117.270584,211.672882 
	C117.338348,211.470993 117.211372,211.064468 117.242111,210.654297 
	C117.252518,209.150879 117.232178,208.057617 117.440781,206.740250 
	C117.920334,205.638748 118.170952,204.761353 118.506126,203.587982 
	C120.599091,211.889771 123.485130,219.063095 131.203293,223.475082 
	C133.090607,224.553955 133.922684,227.639923 135.002151,229.915878 
	C135.757553,231.508621 136.108704,233.293106 136.747116,235.354095 
	C137.038513,236.178680 137.223221,236.641113 137.407913,237.103531 
	C137.490021,240.134140 137.572128,243.164764 137.537338,246.936005 
	C137.679718,251.441376 137.938980,255.206116 138.198227,258.970856 
	C138.380096,260.731750 138.561966,262.492645 138.659729,264.871948 
	C138.946091,267.089447 139.316574,268.688538 139.687073,270.287628 
	C140.100845,274.593506 140.514618,278.899414 140.327240,283.613251 
	C125.142616,284.126831 110.559135,284.232452 95.975647,284.338074 
z"/>
<path fill="#1E74B3" opacity="1.000000" stroke="none" 
	d="
M219.978058,54.802906 
	C220.826935,54.759792 221.675827,54.716682 223.010468,54.719425 
	C223.496216,54.765282 223.695526,54.622906 223.695526,54.622906 
	C223.905548,54.721825 224.115570,54.820747 224.673172,55.467682 
	C224.571091,65.079803 225.559967,73.854866 230.178558,82.246529 
	C234.765869,90.736412 239.061157,92.540184 249.237289,90.717606 
	C249.945358,91.347023 250.320404,91.740738 250.532990,92.552322 
	C250.256775,95.680260 250.143051,98.390320 249.805740,101.424347 
	C248.908813,106.258804 248.235504,110.769310 247.562164,115.279808 
	C246.745560,121.881256 245.928955,128.482712 245.128174,135.570343 
	C245.143982,136.056534 245.156830,135.896591 245.156830,135.896591 
	C245.192719,136.947205 245.228622,137.997818 244.684479,139.572113 
	C233.268631,140.391769 222.433823,140.746338 211.596085,140.928497 
	C209.696823,140.960403 207.785400,140.268463 205.903687,139.515930 
	C206.378067,136.102859 206.828354,133.084702 207.278625,130.066528 
	C207.360062,129.607254 207.441483,129.147995 207.968170,128.194931 
	C208.904724,122.196098 209.594604,116.696556 209.747421,111.182129 
	C209.785538,109.806442 208.091736,108.382751 207.193954,106.981117 
	C206.991531,106.877312 206.789108,106.773499 206.330978,106.116669 
	C205.009857,104.014999 203.944427,102.466331 202.879013,100.917664 
	C202.705338,100.478394 202.531647,100.039124 202.558151,99.012543 
	C202.312485,97.253906 201.866638,96.082588 201.420807,94.911263 
	C201.324722,94.473541 201.228622,94.035828 201.422699,92.956894 
	C201.791260,89.395096 201.924377,86.474663 201.932007,83.553909 
	C201.939117,80.833542 203.324387,81.111427 205.172577,82.208961 
	C205.513596,82.673721 205.748978,82.911087 206.148590,83.416122 
	C206.914703,83.756577 207.516571,83.829369 208.511383,83.870941 
	C213.726898,83.753204 216.902405,81.078651 217.779968,75.345016 
	C218.820786,68.544807 219.271576,61.654285 219.978058,54.802906 
z"/>
<path fill="#1A74BB" opacity="1.000000" stroke="none" 
	d="
M127.647156,123.888817 
	C127.623138,124.373047 127.599121,124.857269 127.087646,125.778366 
	C125.740753,130.136475 124.517433,134.023407 124.143295,137.990402 
	C123.870766,140.880005 123.225983,142.119934 120.107262,142.072830 
	C109.969101,141.919678 99.826576,141.942490 89.687317,142.049133 
	C86.871872,142.078751 85.878815,141.046021 85.933174,138.261810 
	C86.062935,131.614899 86.033539,124.963058 85.959267,118.314415 
	C85.848068,108.359261 85.643257,98.405136 85.487068,88.295792 
	C85.495880,88.141006 85.669334,87.883980 86.077965,87.872139 
	C88.876801,87.228554 91.288574,86.666855 93.649414,85.939774 
	C95.152351,85.476906 96.579720,84.768707 98.367615,84.084213 
	C99.139809,84.041565 99.585342,84.085228 100.217918,84.455948 
	C103.079475,84.968597 105.757530,85.113853 108.427742,85.348488 
	C113.370720,85.782829 118.371231,85.944695 123.222885,86.872887 
	C125.608780,87.329346 127.658531,89.364418 129.965164,90.465675 
	C132.098450,91.484154 134.371506,92.209839 136.612946,93.076042 
	C135.670471,94.968849 134.760147,96.380669 134.235107,97.923592 
	C131.944321,104.655548 129.646347,111.390327 127.628281,118.206192 
	C127.113152,119.946014 127.613419,121.986481 127.647156,123.888817 
z"/>
<path fill="#F8CBA9" opacity="1.000000" stroke="none" 
	d="
M100.030884,84.128883 
	C99.585342,84.085228 99.139809,84.041565 97.922432,83.951614 
	C93.592567,84.055138 90.034546,84.204941 86.100372,84.236961 
	C82.336624,81.013268 79.203827,73.357895 81.350700,71.657021 
	C83.697464,69.797791 87.511787,69.783607 90.693520,68.993652 
	C91.163422,68.876991 91.672180,68.916840 92.390472,68.890038 
	C92.617981,68.895790 93.047531,69.046341 93.246094,69.300896 
	C94.637215,69.183990 95.829765,68.812531 97.347504,68.284714 
	C99.774208,66.245277 101.790504,64.345039 99.010864,61.479549 
	C96.911873,54.844044 94.671692,48.248264 92.787506,41.552315 
	C92.091537,39.078995 92.233688,36.369839 92.321442,33.070450 
	C97.360771,31.497818 102.060799,30.119419 106.789711,30.011978 
	C108.524445,29.972565 110.717995,32.686501 111.982620,34.616100 
	C113.103722,36.326702 113.227127,38.691177 113.622864,40.148129 
	C114.732483,38.271252 115.631256,36.751011 116.689354,34.961281 
	C118.953346,39.313580 119.945358,41.220615 120.937363,43.127655 
	C120.283279,45.991390 119.172279,48.838974 119.070389,51.722225 
	C118.859283,57.695229 120.358345,59.065918 126.251175,58.982479 
	C130.327682,58.924751 134.511047,58.752316 136.937637,62.721100 
	C138.190109,64.769577 139.134003,67.335388 139.220947,69.704033 
	C139.449936,75.941162 139.133545,82.198303 138.473785,88.835342 
	C133.980179,88.404755 128.436142,88.903778 126.458847,86.485939 
	C122.667259,81.849586 118.837410,82.196091 114.140800,82.902573 
	C111.855629,83.246330 109.492027,83.068825 106.760315,83.070557 
	C105.816772,83.069351 105.276840,83.124863 104.399216,83.250732 
	C103.146179,83.280586 102.230843,83.240082 101.084656,83.159042 
	C100.533020,83.136032 100.248436,83.246590 99.973373,83.621429 
	C99.946693,83.792664 100.030884,84.128883 100.030884,84.128883 
M115.904274,53.842430 
	C115.703964,53.468788 115.503654,53.095150 115.303345,52.721512 
	C111.294205,55.849022 107.285057,58.976528 102.163139,62.972103 
	C109.622154,62.807316 113.220818,59.454021 115.904274,53.842430 
z"/>
<path fill="#FBCDAA" opacity="1.000000" stroke="none" 
	d="
M87.516495,213.588181 
	C87.577568,213.920258 87.638649,214.252350 87.729065,215.037613 
	C87.758415,215.490799 87.706696,215.966400 87.495819,216.265869 
	C87.507668,219.704697 87.730377,222.844055 87.638435,225.852966 
	C85.442451,224.874344 83.561111,224.026169 81.679779,223.178009 
	C81.395874,223.689423 81.111977,224.200836 80.828072,224.712250 
	C82.969696,226.142075 85.111320,227.571899 87.256836,229.288086 
	C87.333847,230.325104 87.406975,231.075775 87.480095,231.826431 
	C87.480095,231.826431 87.348358,232.067795 87.096130,232.339386 
	C86.175201,233.369232 85.506485,234.127472 84.837769,234.885727 
	C83.970505,234.468811 82.761688,234.286163 82.289764,233.598083 
	C78.354485,227.860535 73.328278,228.963654 67.678635,230.492477 
	C56.022682,233.646622 44.288208,232.714462 32.838596,229.281174 
	C26.915012,227.504913 25.114134,224.071884 27.746536,217.997681 
	C31.686827,208.905548 35.989464,199.824387 41.390476,191.556793 
	C45.843639,184.740112 52.148178,179.140366 57.565239,172.942719 
	C60.170246,169.962326 63.270634,168.452118 67.907318,169.314575 
	C69.576714,170.021286 70.602318,170.447723 71.960411,171.012375 
	C70.227188,171.923920 69.108780,172.512115 67.687653,173.245056 
	C62.178955,175.464264 61.603111,180.462555 59.729652,184.917572 
	C57.159184,186.430649 53.852551,187.446716 53.005825,189.484756 
	C49.812851,197.170197 47.419865,205.187988 44.443676,213.912994 
	C52.549629,214.166138 59.228115,213.660248 65.890793,211.212631 
	C71.075096,209.308121 76.623085,208.393616 82.061584,207.353424 
	C82.754883,208.103439 83.396034,208.539169 84.020126,208.988678 
	C84.003075,209.002472 84.027573,208.967819 84.025276,209.273483 
	C84.374229,210.032120 84.725471,210.485092 85.039795,210.964645 
	C85.002869,210.991226 85.084694,210.952728 85.070236,211.268539 
	C85.449600,212.013763 85.843422,212.443176 86.452354,212.990753 
	C86.921829,213.319427 87.204842,213.479187 87.516495,213.588181 
M79.424721,222.487991 
	C79.424721,222.487991 79.526222,222.432709 79.424721,222.487991 
z"/>
<path fill="#F7C9A7" opacity="1.000000" stroke="none" 
	d="
M230.220047,81.892288 
	C225.559967,73.854866 224.571091,65.079803 225.008148,55.562843 
	C229.777756,55.510220 234.568405,55.829479 239.340179,56.328979 
	C247.209000,57.152676 252.500412,62.799114 257.760162,67.554550 
	C270.583710,79.148544 281.969604,92.012642 286.119751,109.614563 
	C286.798676,112.494064 288.636505,115.295883 288.588898,118.110786 
	C288.486694,124.155083 277.973419,133.020660 271.258057,132.632477 
	C272.478760,130.580048 274.829163,129.115128 275.821869,127.009995 
	C277.052979,124.399292 277.362122,121.277740 277.643738,118.336090 
	C277.744080,117.288208 276.599609,116.121140 276.000458,114.643158 
	C270.459656,103.574821 264.194702,93.724785 250.695465,92.134453 
	C250.320404,91.740738 249.945358,91.347023 248.998642,90.520462 
	C245.713440,88.656212 243.065308,87.078117 240.269348,85.831612 
	C236.986633,84.368103 233.575485,83.192665 230.220047,81.892288 
M253.129272,80.978302 
	C257.076019,79.824844 257.855225,77.111458 257.960449,73.409233 
	C254.346420,76.154488 251.532318,78.292122 248.432358,80.646889 
	C249.844101,80.779221 251.089554,80.895958 253.129272,80.978302 
z"/>
<path fill="#F9CDAB" opacity="1.000000" stroke="none" 
	d="
M118.570671,193.478912 
	C131.422836,191.493195 140.434097,194.947174 145.182983,208.904831 
	C147.777313,216.529999 151.969070,223.669296 154.042465,231.402542 
	C159.009293,249.927551 163.345581,268.645233 164.584091,287.880310 
	C164.666290,289.156708 162.850586,291.587006 161.741394,291.696625 
	C159.327515,291.935120 156.027588,293.371185 154.978775,288.944244 
	C153.500656,282.705109 151.514420,276.586639 149.754089,270.414093 
	C148.664902,266.594910 147.681976,262.742828 146.492157,258.955505 
	C144.224747,251.738007 141.843384,244.556320 139.259888,236.677597 
	C138.257721,232.654541 137.504990,229.313644 136.577835,225.697937 
	C134.570496,223.890686 132.511017,222.557159 130.953278,220.783081 
	C127.992325,217.410919 124.435165,214.161316 122.744415,210.174316 
	C120.532074,204.957382 119.888878,199.075027 118.570671,193.478912 
z"/>
<path fill="#F1C7A7" opacity="1.000000" stroke="none" 
	d="
M205.984344,83.148453 
	C205.748978,82.911087 205.513596,82.673721 205.198639,81.821838 
	C204.044449,77.658173 202.969833,74.109024 201.895233,70.559868 
	C201.040207,69.826813 199.567337,68.347649 199.420227,68.469475 
	C195.405426,71.794083 193.126816,68.413239 189.885574,66.727493 
	C182.627167,62.952442 179.656219,56.113506 176.006836,49.016933 
	C176.687469,47.705296 177.244492,47.087708 177.827316,46.495518 
	C182.692093,41.552521 183.514389,41.616776 188.558334,46.446411 
	C189.715195,47.554119 191.442032,48.066544 193.925934,49.400280 
	C193.376999,47.529099 193.019989,46.935680 193.076599,46.384777 
	C193.228348,44.908356 193.557281,43.450138 193.815811,41.984692 
	C195.286423,42.505428 196.916275,42.788494 198.172119,43.629822 
	C199.019897,44.197758 199.135803,45.782749 199.944427,46.502068 
	C201.171234,47.593346 202.635559,48.832306 204.147293,49.071632 
	C205.652298,49.309891 207.340271,48.392387 208.948013,47.981659 
	C212.467316,50.098660 215.986618,52.215660 219.742004,54.567780 
	C219.271576,61.654285 218.820786,68.544807 217.779968,75.345016 
	C216.902405,81.078651 213.726898,83.753204 208.278503,83.692566 
	C207.096573,83.413086 206.540451,83.280769 205.984344,83.148453 
M202.459473,66.755898 
	C204.869919,63.199284 204.609711,57.863155 200.791641,53.360809 
	C201.140533,58.610615 201.403076,62.561134 202.459473,66.755898 
M200.404526,52.486828 
	C200.404526,52.486828 200.527161,52.410500 200.404526,52.486828 
z"/>
<path fill="#F7C6A2" opacity="1.000000" stroke="none" 
	d="
M264.947449,185.978058 
	C264.735962,187.756897 264.524475,189.535751 263.788116,191.714478 
	C260.830292,194.411194 258.428040,197.515564 255.677155,191.458389 
	C255.242111,191.919235 254.807083,192.380081 254.372055,192.840927 
	C255.825546,196.310837 257.279053,199.780746 258.993652,203.873932 
	C255.485382,206.154953 250.184616,208.304825 254.937683,213.973923 
	C254.715088,214.792007 254.492493,215.610107 253.742538,216.794678 
	C252.803680,218.627686 252.254562,220.071991 252.013489,221.566010 
	C251.667664,223.709274 251.034607,224.775803 248.977386,222.526855 
	C249.316422,218.740616 249.656570,215.369049 250.130112,211.943970 
	C250.176483,211.928040 250.089447,211.965622 249.769424,212.015076 
	C249.536423,212.026917 249.070007,212.040497 248.700775,211.993362 
	C245.181015,210.662582 242.030502,209.378922 238.879990,208.095276 
	C238.879990,208.095276 238.986069,208.111923 239.056793,207.822937 
	C238.593582,207.041779 237.935699,206.046631 237.546616,206.142456 
	C235.626343,206.615570 233.777252,207.377563 231.575317,208.033661 
	C230.498001,207.686279 229.748398,207.342911 229.262024,206.785706 
	C228.887726,204.858063 228.250198,203.144226 227.612671,201.430389 
	C226.731415,201.969635 225.850143,202.508865 224.674545,202.893311 
	C223.475464,202.240646 222.570694,201.742752 221.384003,201.089737 
	C222.138870,207.501328 225.849503,210.746338 231.992737,210.880066 
	C232.006851,210.906387 232.011169,210.965958 231.859100,211.317413 
	C230.852127,214.457535 229.997223,217.246216 229.465881,218.979431 
	C226.048935,217.799179 223.505096,216.920517 220.972717,216.029526 
	C220.984177,216.017212 220.967865,216.015198 220.980499,215.601593 
	C221.112366,213.926498 220.978409,212.572647 221.398590,211.420990 
	C222.627762,208.051956 221.053513,207.018784 218.011780,206.592117 
	C217.963211,205.477280 217.942368,204.733475 217.916351,203.617401 
	C217.926987,202.501160 217.942795,201.757187 218.214600,201.008331 
	C218.641327,201.002106 218.812042,201.000763 219.209946,200.859589 
	C219.301971,200.155457 219.166779,199.591141 219.059937,198.668762 
	C221.296066,195.499451 222.924850,192.695801 220.297653,189.124832 
	C220.000305,188.720642 221.411499,187.059464 222.280548,186.118774 
	C223.071655,186.174896 223.612656,186.093399 224.434906,185.967468 
	C224.803955,185.279694 224.891708,184.636383 225.049591,183.715057 
	C225.340637,182.928406 225.561569,182.419769 226.119598,182.051514 
	C228.934708,184.448593 232.220352,186.289246 233.658859,189.081512 
	C235.038818,191.760132 234.503128,195.425644 234.809296,198.657440 
	C235.254990,198.646530 235.700668,198.635635 236.146362,198.624725 
	C236.886765,197.158936 237.627167,195.693161 238.422684,194.118240 
	C241.709351,195.326324 240.310928,202.602142 245.592636,199.342300 
	C247.079941,198.424362 247.112808,195.149918 247.841675,192.650742 
	C247.903152,191.226303 247.935730,190.107452 248.358292,188.948425 
	C250.340912,188.581039 251.960083,188.347565 253.520432,187.906204 
	C256.372711,187.099442 258.745453,186.260635 257.265869,182.169586 
	C255.051697,176.047394 254.431015,175.334946 249.696472,177.052185 
	C249.219040,177.000626 249.030106,176.963486 248.725250,176.630005 
	C248.285385,175.596100 247.961441,174.858566 247.960022,173.946426 
	C252.348419,171.874512 256.357910,169.825058 260.550995,168.270920 
	C261.079620,168.074982 263.714508,171.054810 263.443207,171.596481 
	C260.826965,176.820160 262.423706,181.407028 264.947449,185.978058 
M243.432938,203.704056 
	C243.705338,203.989563 243.977737,204.275085 244.250137,204.560593 
	C244.368256,204.447556 244.595337,204.242554 244.588730,204.234772 
	C244.334564,203.933640 244.059052,203.650513 243.432938,203.704056 
z"/>
<path fill="#FBCDAA" opacity="1.000000" stroke="none" 
	d="
M77.049866,106.130630 
	C71.450356,107.808434 69.860153,106.787018 67.295532,99.149124 
	C66.757896,97.388901 65.986412,96.194633 65.214928,95.000359 
	C65.126381,94.257828 65.037834,93.515297 65.222733,92.186699 
	C65.310631,90.380577 65.125084,89.160530 64.952896,87.525757 
	C64.643066,85.069008 64.319878,83.026978 64.021835,80.667770 
	C64.364227,79.568954 64.681473,78.787323 65.335510,77.818161 
	C66.088387,75.289421 66.504456,72.948204 66.920532,70.606995 
	C67.260483,69.925232 67.600418,69.243469 68.365433,68.206085 
	C72.479279,59.710621 71.972672,51.507755 69.042244,43.316025 
	C68.831833,42.727852 67.799042,42.433865 67.148628,42.003094 
	C66.460670,40.558380 65.772705,39.113670 65.330017,37.131657 
	C66.383957,35.077297 67.192612,33.560242 68.001266,32.043190 
	C71.400101,31.780586 74.864273,31.036919 78.166527,31.485411 
	C79.542229,31.672247 81.660362,34.460938 81.574471,35.959560 
	C81.180038,42.841526 79.959663,49.672157 79.400070,56.550850 
	C79.208519,58.905510 80.079536,61.346607 80.678833,64.393448 
	C80.598701,66.988441 80.011581,68.945541 80.060143,70.886734 
	C80.313248,81.003914 80.728035,91.117035 81.086555,101.231575 
	C80.886536,102.034790 80.686523,102.837997 79.864243,103.824028 
	C78.511276,104.714767 77.780571,105.422699 77.049866,106.130630 
z"/>
<path fill="#FDCBA4" opacity="1.000000" stroke="none" 
	d="
M210.219711,215.226486 
	C210.219711,215.226486 210.180450,215.644287 209.768555,215.981506 
	C208.714417,218.037491 208.072174,219.756256 207.429932,221.475006 
	C207.429932,221.475006 207.362610,221.801361 206.834183,221.895691 
	C205.077133,222.101532 203.848526,222.213043 202.332611,222.350632 
	C203.007462,223.814316 203.516525,224.918381 204.063141,226.357239 
	C204.167236,226.906540 204.233795,227.121048 204.300339,227.335556 
	C204.300339,227.335556 204.174942,227.693375 203.742645,227.824860 
	C202.907547,227.989944 202.504745,228.023529 201.697495,228.040558 
	C199.255692,227.681000 197.218338,227.337982 195.180969,226.994980 
	C195.106247,224.299377 195.031525,221.603790 195.271164,218.165192 
	C195.724335,211.973770 195.815903,206.523499 196.031158,201.078110 
	C196.094513,199.475388 196.409164,197.863174 196.779099,196.295532 
	C198.075668,190.801178 199.711060,185.370010 200.669540,179.820175 
	C201.101166,177.320969 200.238449,174.598221 199.963028,171.976898 
	C200.060532,171.129028 200.158035,170.281158 200.844757,169.182358 
	C204.292084,167.288345 207.150223,165.645279 210.343292,164.001617 
	C211.125305,163.997070 211.572357,163.993088 212.284119,164.203796 
	C214.391754,167.280899 216.234680,170.143311 218.031616,173.298248 
	C217.636154,174.051895 217.286652,174.513046 216.578705,175.058899 
	C214.814255,176.761978 213.408234,178.380341 211.882629,179.741318 
	C211.256958,179.293854 210.750854,179.103775 210.244766,178.913696 
	C210.489136,179.608505 210.733505,180.303329 211.022659,181.372803 
	C212.021179,185.159927 212.974945,188.572372 213.520035,191.988800 
	C211.180527,192.821167 209.249664,193.649567 207.318802,194.477951 
	C208.202835,195.985840 209.086868,197.493729 209.999954,199.313904 
	C210.084183,200.039734 210.139374,200.453262 209.835999,200.926727 
	C208.205658,202.511063 206.933884,204.035446 205.060715,206.280670 
	C207.998123,205.651489 209.504517,205.328827 211.001465,205.374832 
	C210.679031,207.844971 210.366089,209.946411 210.041595,212.447037 
	C210.093277,213.639633 210.156494,214.433060 210.219711,215.226486 
z"/>
<path fill="#FACEAD" opacity="1.000000" stroke="none" 
	d="
M64.998718,78.005684 
	C64.681473,78.787323 64.364227,79.568954 63.983925,81.026993 
	C63.274410,83.479919 62.627956,85.256447 61.981499,87.032974 
	C52.973377,86.170395 43.964043,85.320274 34.957642,84.440140 
	C30.279009,83.982925 25.807863,82.787720 22.257217,87.986328 
	C19.448027,92.099350 14.528337,91.503799 10.545151,87.317108 
	C12.939749,87.530579 15.071085,88.061455 17.201952,88.592209 
	C17.802841,85.592613 14.703375,80.339706 11.716402,80.340294 
	C7.724717,80.341080 9.447180,83.885826 8.986160,86.035561 
	C8.658670,84.033791 7.485518,81.610535 8.219537,80.137840 
	C9.120078,78.331039 11.525258,76.311844 13.436594,76.141457 
	C20.839603,75.481506 28.351772,75.964928 35.735203,75.186768 
	C45.236851,74.185356 54.653858,72.380859 64.545731,71.365051 
	C64.989006,73.873779 64.993866,75.939728 64.998718,78.005684 
z"/>
<path fill="#32302E" opacity="1.000000" stroke="none" 
	d="
M208.960098,47.566586 
	C207.340271,48.392387 205.652298,49.309891 204.147293,49.071632 
	C202.635559,48.832306 201.171234,47.593346 199.944427,46.502068 
	C199.135803,45.782749 199.019897,44.197758 198.172119,43.629822 
	C196.916275,42.788494 195.286423,42.505428 193.815811,41.984692 
	C193.557281,43.450138 193.228348,44.908356 193.076599,46.384777 
	C193.019989,46.935680 193.376999,47.529099 193.925934,49.400280 
	C191.442032,48.066544 189.715195,47.554119 188.558334,46.446411 
	C183.514389,41.616776 182.692093,41.552521 177.827316,46.495518 
	C177.244492,47.087708 176.687469,47.705296 176.015137,48.643829 
	C174.526764,47.796146 172.252991,46.831444 171.905411,45.399277 
	C170.072800,37.847828 182.034317,25.073484 189.594345,26.175211 
	C202.805161,28.100433 206.926743,32.561993 208.960098,47.566586 
z"/>
<path fill="#FCCBA6" opacity="1.000000" stroke="none" 
	d="
M89.828888,179.056763 
	C91.551476,180.372223 93.438248,181.524094 94.954163,183.045486 
	C96.760590,184.858429 98.248970,186.988281 99.939651,189.753113 
	C100.106056,191.836700 100.067970,193.177078 100.333076,194.454544 
	C101.797157,201.509445 100.374290,203.400238 93.340271,204.097046 
	C92.171883,204.212784 91.103973,205.342773 89.726166,206.013123 
	C89.287239,206.031723 89.111763,206.041306 88.721542,206.161896 
	C88.218964,206.457184 88.032219,206.714767 87.684738,206.875488 
	C86.677567,206.357834 85.932205,206.010376 85.165131,205.500198 
	C85.143417,205.337479 85.101540,205.010544 85.004921,204.737854 
	C84.606735,203.973816 84.305168,203.482468 83.926163,202.620407 
	C81.615349,200.818619 77.945129,199.774582 77.434624,197.879410 
	C76.205826,193.317764 73.664673,192.612534 69.887779,193.097916 
	C69.956673,193.049332 69.854523,193.183472 69.905052,192.792297 
	C71.240654,188.529007 72.525726,184.656906 73.828156,180.853607 
	C73.845512,180.922424 73.744888,180.822311 74.115646,180.836060 
	C74.985214,179.881165 75.484016,178.912491 76.095840,177.658493 
	C76.731590,177.076660 77.254326,176.780167 78.025414,176.862076 
	C79.744164,177.417587 81.214561,177.594696 83.004272,177.798828 
	C85.492027,178.236160 87.660454,178.646469 89.828888,179.056763 
z"/>
<path fill="#F4CBAC" opacity="1.000000" stroke="none" 
	d="
M88.936287,206.050873 
	C89.111763,206.041306 89.287239,206.031723 90.117508,206.019806 
	C97.405479,207.503418 101.957848,205.703125 103.561295,200.330215 
	C104.336166,197.733780 103.905579,194.777588 104.020798,191.984283 
	C107.136253,192.666107 110.251701,193.347931 113.782074,194.465393 
	C115.201942,198.922134 116.206894,202.943237 117.211838,206.964355 
	C117.232178,208.057617 117.252518,209.150879 117.040970,210.698364 
	C116.729156,211.261185 116.649231,211.369781 116.569305,211.478394 
	C116.780479,211.610504 116.991653,211.742630 117.202820,211.874756 
	C117.202820,211.874756 117.410248,211.843521 117.348541,212.201630 
	C117.375038,213.078354 117.463242,213.596939 117.551437,214.115540 
	C117.422569,214.566391 117.293701,215.017227 116.951012,215.780182 
	C116.737190,216.092285 116.350990,216.169739 116.029190,216.263672 
	C115.501183,216.960159 115.294975,217.562744 114.989868,218.369171 
	C114.890968,218.573013 114.583801,218.906143 114.149567,218.919632 
	C108.753151,218.318634 103.790985,217.704147 98.553185,217.016754 
	C97.903946,216.886780 97.530342,216.829712 97.156731,216.772644 
	C97.156731,216.772644 96.989639,216.976486 96.962524,216.629730 
	C96.458084,216.042526 95.980759,215.802078 95.503433,215.561646 
	C95.503441,215.561630 95.410614,215.571106 95.381500,215.278076 
	C95.219749,214.670776 95.087120,214.356491 95.145416,213.886047 
	C94.253441,213.054840 93.170540,212.379791 92.087639,211.704742 
	C92.087639,211.704742 91.764076,211.710342 91.480659,211.454163 
	C90.895805,210.983749 90.594368,210.769485 90.292931,210.555237 
	C90.292931,210.555237 90.143806,210.218323 90.158638,210.163605 
	C90.173470,210.108902 90.485413,209.992096 90.561890,209.832214 
	C90.396156,209.476105 90.153938,209.279892 89.954010,209.041504 
	C89.996292,208.999313 89.905556,209.078079 89.914658,208.753082 
	C89.594604,207.635681 89.265442,206.843277 88.936287,206.050873 
z"/>
<path fill="#E8BC9D" opacity="1.000000" stroke="none" 
	d="
M276.023376,115.008476 
	C276.599609,116.121140 277.744080,117.288208 277.643738,118.336090 
	C277.362122,121.277740 277.052979,124.399292 275.821869,127.009995 
	C274.829163,129.115128 272.478760,130.580048 270.829437,132.613022 
	C271.227661,134.149109 271.527191,135.401169 272.044067,137.561935 
	C263.493011,129.694077 255.881302,122.690483 247.915894,115.483353 
	C248.235504,110.769310 248.908813,106.258804 250.146423,101.429367 
	C255.228165,105.885460 259.858154,110.560333 264.227142,115.467567 
	C267.660767,119.324211 273.631714,119.229645 276.023376,115.008476 
z"/>
<path fill="#363331" opacity="1.000000" stroke="none" 
	d="
M121.096573,42.775692 
	C119.945358,41.220615 118.953346,39.313580 116.689354,34.961281 
	C115.631256,36.751011 114.732483,38.271252 113.622864,40.148129 
	C113.227127,38.691177 113.103722,36.326702 111.982620,34.616100 
	C110.717995,32.686501 108.524445,29.972565 106.789711,30.011978 
	C102.060799,30.119419 97.360771,31.497818 92.356186,32.616730 
	C89.720909,25.634598 92.396179,21.141596 100.271225,19.905046 
	C107.239555,18.810871 114.243324,19.861742 119.077995,25.119345 
	C121.392395,27.636223 121.601105,32.311710 122.194473,36.098705 
	C122.509422,38.108673 121.608078,40.309216 121.096573,42.775692 
z"/>
<path fill="#F6CCAB" opacity="1.000000" stroke="none" 
	d="
M265.231506,185.719208 
	C262.423706,181.407028 260.826965,176.820160 263.443207,171.596481 
	C263.714508,171.054810 261.079620,168.074982 260.550995,168.270920 
	C256.357910,169.825058 252.348419,171.874512 247.719666,173.728470 
	C243.480118,171.784882 239.989761,169.113327 236.082092,168.169556 
	C230.555099,166.834717 225.073639,168.505295 219.934067,170.927704 
	C217.538116,167.729614 215.267212,164.873703 212.752502,161.738571 
	C210.337952,161.966934 208.167206,162.474503 205.720581,162.869812 
	C204.918472,162.470230 204.392242,162.182907 203.865997,161.895599 
	C206.924683,157.575760 211.492538,159.041046 214.474335,160.667755 
	C221.406952,164.449753 228.220978,165.092682 235.972275,164.360107 
	C244.506119,163.553543 253.213837,164.517258 261.842316,164.811981 
	C265.878235,164.949860 267.350189,167.437042 266.998505,171.188873 
	C266.552185,175.950546 266.014099,180.703598 265.231506,185.719208 
z"/>
<path fill="#3C3631" opacity="1.000000" stroke="none" 
	d="
M89.594170,178.830383 
	C87.660454,178.646469 85.492027,178.236160 82.800369,177.497574 
	C80.777107,176.940750 79.277084,176.712204 77.777054,176.483673 
	C77.254326,176.780167 76.731590,177.076660 75.795151,177.783508 
	C74.835922,179.070023 74.290405,179.946167 73.744888,180.822311 
	C73.744888,180.822311 73.845512,180.922424 73.517258,181.014038 
	C71.706421,183.576416 69.898811,185.922882 68.885216,188.573029 
	C68.413673,189.805923 69.483437,191.628311 69.854523,193.183472 
	C69.854523,193.183472 69.956673,193.049332 70.042358,193.399292 
	C72.021225,195.794998 73.914406,197.840759 75.435020,199.898987 
	C67.359726,197.612228 61.916164,193.066208 60.122959,184.889801 
	C61.603111,180.462555 62.178955,175.464264 68.121216,173.291138 
	C72.262642,172.469833 75.667793,171.747162 79.072937,171.024490 
	C82.501778,173.550995 85.930618,176.077499 89.594170,178.830383 
z"/>
<path fill="#3D78A4" opacity="1.000000" stroke="none" 
	d="
M85.478256,88.450577 
	C85.643257,98.405136 85.848068,108.359261 85.959267,118.314415 
	C86.033539,124.963058 86.062935,131.614899 85.933174,138.261810 
	C85.878815,141.046021 86.871872,142.078751 89.687317,142.049133 
	C99.826576,141.942490 109.969101,141.919678 120.107262,142.072830 
	C123.225983,142.119934 123.870766,140.880005 124.143295,137.990402 
	C124.517433,134.023407 125.740753,130.136475 126.909225,126.100029 
	C126.604561,131.792038 125.990852,137.599274 124.740257,143.670776 
	C110.829247,143.955322 97.555130,143.975601 84.281006,143.995880 
	C84.194595,129.581955 84.108185,115.168030 84.071465,99.864937 
	C84.573524,95.467369 85.025887,91.958977 85.478256,88.450577 
z"/>
<path fill="#303F4B" opacity="1.000000" stroke="none" 
	d="
M205.009064,284.373413 
	C219.274445,286.200287 233.435196,286.097382 247.992554,284.125549 
	C248.544205,285.087250 248.787613,286.053528 248.828598,287.028320 
	C248.854416,287.642120 248.577103,288.268646 248.403488,289.031250 
	C234.571808,289.031250 220.867340,289.102661 207.169052,288.845245 
	C206.387238,288.830566 205.655945,286.127228 205.009064,284.373413 
z"/>
<path fill="#323B42" opacity="1.000000" stroke="none" 
	d="
M205.879593,139.910843 
	C207.785400,140.268463 209.696823,140.960403 211.596085,140.928497 
	C222.433823,140.746338 233.268631,140.391769 244.533554,140.076080 
	C245.127701,141.821030 245.292755,143.585663 245.477814,145.564362 
	C231.209198,145.564362 217.492401,145.564362 203.398056,145.564362 
	C203.711151,143.814407 203.967896,142.379379 204.605438,140.596359 
	C205.275589,140.113586 205.573380,140.001083 205.879593,139.910843 
z"/>
<path fill="#263641" opacity="1.000000" stroke="none" 
	d="
M95.813683,284.687012 
	C110.559135,284.232452 125.142616,284.126831 140.166412,284.019104 
	C140.783569,285.479126 140.960434,286.941254 141.168640,288.662598 
	C140.043762,288.931427 139.141647,289.332184 138.238312,289.334961 
	C125.323906,289.374664 112.408394,289.275330 99.495438,289.417542 
	C96.114815,289.454773 94.893585,288.289703 95.813683,284.687012 
z"/>
<path fill="#3D78A4" opacity="1.000000" stroke="none" 
	d="
M101.315506,83.199577 
	C102.230843,83.240082 103.146179,83.280586 104.617233,83.421738 
	C105.836609,83.390686 106.500267,83.258987 107.163933,83.127289 
	C109.492027,83.068825 111.855629,83.246330 114.140800,82.902573 
	C118.837410,82.196091 122.667259,81.849586 126.458847,86.485939 
	C128.436142,88.903778 133.980179,88.404755 138.346115,89.255478 
	C135.962585,98.279198 133.142242,107.269447 130.332306,116.262939 
	C129.592407,118.631042 128.884644,121.009186 127.904648,123.635773 
	C127.613419,121.986481 127.113152,119.946014 127.628281,118.206192 
	C129.646347,111.390327 131.944321,104.655548 134.235107,97.923592 
	C134.760147,96.380669 135.670471,94.968849 136.612946,93.076042 
	C134.371506,92.209839 132.098450,91.484154 129.965164,90.465675 
	C127.658531,89.364418 125.608780,87.329346 123.222885,86.872887 
	C118.371231,85.944695 113.370720,85.782829 108.427742,85.348488 
	C105.757530,85.113853 103.079475,84.968597 100.217918,84.455948 
	C100.030884,84.128883 99.946693,83.792664 100.201385,83.718185 
	C100.815056,83.636162 101.101540,83.488121 101.315506,83.199577 
z"/>
<path fill="#DCBCA4" opacity="1.000000" stroke="none" 
	d="
M85.487068,88.295792 
	C85.025887,91.958977 84.573524,95.467369 84.026688,99.385216 
	C83.163116,100.152748 82.394012,100.510826 81.355728,101.050247 
	C80.728035,91.117035 80.313248,81.003914 80.060143,70.886734 
	C80.011581,68.945541 80.598701,66.988441 80.971474,64.655579 
	C84.237381,60.733017 88.391411,62.114830 92.689552,62.543331 
	C92.797142,64.973320 92.480049,66.928802 92.162964,68.884285 
	C91.672180,68.916840 91.163422,68.876991 90.693520,68.993652 
	C87.511787,69.783607 83.697464,69.797791 81.350700,71.657021 
	C79.203827,73.357895 82.336624,81.013268 85.978455,84.578285 
	C86.044907,85.986252 85.857117,86.935112 85.669334,87.883980 
	C85.669334,87.883980 85.495880,88.141006 85.487068,88.295792 
z"/>
<path fill="#2C353C" opacity="1.000000" stroke="none" 
	d="
M84.187683,144.417267 
	C97.555130,143.975601 110.829247,143.955322 124.573891,143.970703 
	C125.763512,147.008591 124.731323,148.131149 121.516785,148.087494 
	C110.227409,147.934128 98.934387,148.003036 87.643196,148.066193 
	C85.320206,148.079178 83.617699,147.745468 84.187683,144.417267 
z"/>
<path fill="#F6CCAB" opacity="1.000000" stroke="none" 
	d="
M199.685120,172.189102 
	C200.238449,174.598221 201.101166,177.320969 200.669540,179.820175 
	C199.711060,185.370010 198.075668,190.801178 196.779099,196.295532 
	C196.409164,197.863174 196.094513,199.475388 196.031158,201.078110 
	C195.815903,206.523499 195.724335,211.973770 195.285645,217.715561 
	C194.392914,214.698517 193.235214,211.372086 193.328598,208.081131 
	C193.505356,201.852188 194.045685,195.582733 195.099976,189.444321 
	C196.088867,183.686569 197.937119,178.076416 199.685120,172.189102 
z"/>
<path fill="#5484A9" opacity="1.000000" stroke="none" 
	d="
M117.440773,206.740250 
	C116.206894,202.943237 115.201942,198.922134 114.202988,194.510437 
	C115.449158,193.868576 116.689323,193.617325 118.250076,193.422485 
	C119.888878,199.075027 120.532074,204.957382 122.744415,210.174316 
	C124.435165,214.161316 127.992325,217.410919 130.953278,220.783081 
	C132.511017,222.557159 134.570496,223.890686 136.560516,226.154175 
	C136.691879,229.587463 136.666138,232.289703 136.640411,234.991943 
	C136.108704,233.293106 135.757553,231.508621 135.002151,229.915878 
	C133.922684,227.639923 133.090607,224.553955 131.203293,223.475082 
	C123.485130,219.063095 120.599091,211.889771 118.506126,203.587982 
	C118.170952,204.761353 117.920334,205.638748 117.440773,206.740250 
z"/>
<path fill="#F6CCAB" opacity="1.000000" stroke="none" 
	d="
M255.219025,213.783386 
	C250.184616,208.304825 255.485382,206.154953 258.993652,203.873932 
	C257.279053,199.780746 255.825546,196.310837 254.372055,192.840927 
	C254.807083,192.380081 255.242111,191.919235 255.677155,191.458389 
	C258.428040,197.515564 260.830292,194.411194 263.610229,192.055786 
	C263.581360,200.152466 259.626953,206.906357 255.219025,213.783386 
z"/>
<path fill="#588CAF" opacity="1.000000" stroke="none" 
	d="
M201.537872,70.680405 
	C202.969833,74.109024 204.044449,77.658173 205.093002,81.594444 
	C203.324387,81.111427 201.939117,80.833542 201.932007,83.553909 
	C201.924377,86.474663 201.791260,89.395096 201.454407,92.620468 
	C199.924591,86.359734 196.376434,79.967087 199.638763,73.059914 
	C200.023285,72.245804 200.660461,71.551041 201.537872,70.680405 
z"/>
<path fill="#E4B390" opacity="1.000000" stroke="none" 
	d="
M103.802223,191.737732 
	C103.905579,194.777588 104.336166,197.733780 103.561295,200.330215 
	C101.957848,205.703125 97.405479,207.503418 90.380966,206.010773 
	C91.103973,205.342773 92.171883,204.212784 93.340271,204.097046 
	C100.374290,203.400238 101.797157,201.509445 100.333076,194.454544 
	C100.067970,193.177078 100.106056,191.836700 100.032608,190.060913 
	C101.235252,190.228043 102.409454,190.859619 103.802223,191.737732 
z"/>
<path fill="#FACEAD" opacity="1.000000" stroke="none" 
	d="
M67.155403,42.388771 
	C67.799042,42.433865 68.831833,42.727852 69.042244,43.316025 
	C71.972672,51.507755 72.479279,59.710621 68.424103,67.924324 
	C68.381859,62.934227 69.009750,57.865059 68.923019,52.808151 
	C68.865509,49.454506 67.784836,46.118404 67.155403,42.388771 
z"/>
<path fill="#F7C6A2" opacity="1.000000" stroke="none" 
	d="
M9.099155,86.247803 
	C9.447180,83.885826 7.724717,80.341080 11.716402,80.340294 
	C14.703375,80.339706 17.802841,85.592613 17.201952,88.592209 
	C15.071085,88.061455 12.939749,87.530579 10.400175,87.001678 
	C9.675779,86.903084 9.415850,86.721878 9.099155,86.247803 
z"/>
<path fill="#F6CCAB" opacity="1.000000" stroke="none" 
	d="
M248.978531,222.941528 
	C251.034607,224.775803 251.667664,223.709274 252.013489,221.566010 
	C252.254562,220.071991 252.803680,218.627686 253.588654,217.079758 
	C253.314194,222.241959 252.666290,227.485565 251.780243,233.121307 
	C250.198883,230.312637 248.855667,227.111801 247.876801,223.477112 
	C248.486954,223.009338 248.732742,222.975433 248.978531,222.941528 
z"/>
<path fill="#3D78A4" opacity="1.000000" stroke="none" 
	d="
M92.390472,68.890038 
	C92.480049,66.928802 92.797142,64.973320 93.136620,62.649109 
	C94.829010,62.043049 96.499008,61.805706 98.589935,61.523956 
	C101.790504,64.345039 99.774208,66.245277 97.018738,68.195976 
	C95.259041,68.524513 94.153282,68.785431 93.047531,69.046341 
	C93.047531,69.046341 92.617981,68.895790 92.390472,68.890038 
z"/>
<path fill="#588CAF" opacity="1.000000" stroke="none" 
	d="
M207.240631,107.406113 
	C208.091736,108.382751 209.785538,109.806442 209.747421,111.182129 
	C209.594604,116.696556 208.904724,122.196098 208.135162,127.885239 
	C207.667038,121.323250 207.477173,114.577179 207.240631,107.406113 
z"/>
<path fill="#DCBCA4" opacity="1.000000" stroke="none" 
	d="
M79.025833,170.636734 
	C75.667793,171.747162 72.262642,172.469833 68.423935,173.146408 
	C69.108780,172.512115 70.227188,171.923920 71.960411,171.012375 
	C70.602318,170.447723 69.576714,170.021286 68.328499,169.357147 
	C71.885155,168.004105 75.722946,166.325409 79.025833,170.636734 
z"/>
<path fill="#F6CCAB" opacity="1.000000" stroke="none" 
	d="
M195.129135,227.420120 
	C197.218338,227.337982 199.255692,227.681000 201.675964,228.408844 
	C202.102280,229.284225 202.145691,229.774780 202.189102,230.265320 
	C202.126007,230.559677 201.982880,230.807877 201.294708,231.153107 
	C200.682800,231.611374 200.535934,231.926453 200.389069,232.241531 
	C200.389069,232.241531 200.329422,232.295929 200.015747,232.348770 
	C199.464691,232.910843 199.227295,233.420059 198.989899,233.929276 
	C198.989883,233.929276 198.730942,234.199982 198.215988,234.162079 
	C197.238937,234.075211 196.776855,234.026230 196.314758,233.977249 
	C195.902267,231.933258 195.489792,229.889252 195.129135,227.420120 
z"/>
<path fill="#5484A9" opacity="1.000000" stroke="none" 
	d="
M92.753777,259.332031 
	C93.864273,264.138794 94.806160,269.234314 95.508743,274.643066 
	C94.374687,269.844482 93.479927,264.732666 92.753777,259.332031 
z"/>
<path fill="#5484A9" opacity="1.000000" stroke="none" 
	d="
M84.876160,235.284607 
	C85.506485,234.127472 86.175201,233.369232 87.113480,232.475784 
	C85.765358,238.253281 90.086197,242.782974 91.040131,248.472931 
	C88.990456,244.462357 86.952507,240.072922 84.876160,235.284607 
z"/>
<path fill="#EDBD97" opacity="1.000000" stroke="none" 
	d="
M203.743546,162.127640 
	C204.392242,162.182907 204.918472,162.470230 206.087296,162.874329 
	C207.822693,163.328156 208.915527,163.665176 210.008347,164.002197 
	C207.150223,165.645279 204.292084,167.288345 201.041214,168.927856 
	C200.697052,168.485703 200.745636,168.047089 201.217407,167.241516 
	C202.023163,165.813583 202.405746,164.752655 202.788330,163.691711 
	C203.065918,163.247696 203.343506,162.803680 203.743546,162.127640 
z"/>
<path fill="#CDD8DE" opacity="1.000000" stroke="none" 
	d="
M138.457336,258.661530 
	C137.938980,255.206116 137.679718,251.441376 137.614929,247.329102 
	C138.111755,250.771774 138.414108,254.561981 138.457336,258.661530 
z"/>
<path fill="#588CAF" opacity="1.000000" stroke="none" 
	d="
M205.903687,139.515930 
	C205.573380,140.001083 205.275589,140.113586 204.746109,140.249847 
	C205.237213,137.005905 205.968430,133.760452 206.989136,130.290771 
	C206.828354,133.084702 206.378067,136.102859 205.903687,139.515930 
z"/>
<path fill="#CDD8DE" opacity="1.000000" stroke="none" 
	d="
M136.747116,235.354095 
	C136.666138,232.289703 136.691879,229.587463 136.734940,226.428986 
	C137.504990,229.313644 138.257721,232.654541 139.006866,236.396240 
	C138.651688,236.885406 138.300064,236.973785 137.678192,237.082855 
	C137.223221,236.641113 137.038513,236.178680 136.747116,235.354095 
z"/>
<path fill="#EDBD97" opacity="1.000000" stroke="none" 
	d="
M62.276405,87.078949 
	C62.627956,85.256447 63.274410,83.479919 63.958778,81.344177 
	C64.319878,83.026978 64.643066,85.069008 64.741203,87.532700 
	C64.516151,87.954369 64.091316,87.963799 64.091316,87.963799 
	C63.584648,87.684174 63.077984,87.404541 62.276405,87.078949 
z"/>
<path fill="#588CAF" opacity="1.000000" stroke="none" 
	d="
M202.750977,101.208511 
	C203.944427,102.466331 205.009857,104.014999 206.103607,105.862244 
	C204.962265,104.606987 203.792618,103.053169 202.750977,101.208511 
z"/>
<path fill="#EDBD97" opacity="1.000000" stroke="none" 
	d="
M65.335510,77.818161 
	C64.993866,75.939728 64.989006,73.873779 64.967819,71.361404 
	C65.390198,70.854919 65.828911,70.794861 66.594070,70.670898 
	C66.504456,72.948204 66.088387,75.289421 65.335510,77.818161 
z"/>
<path fill="#5484A9" opacity="1.000000" stroke="none" 
	d="
M91.055557,249.400940 
	C91.652397,250.777603 92.216690,252.549347 92.563393,254.598267 
	C91.904869,253.182297 91.463936,251.489166 91.055557,249.400940 
z"/>
<path fill="#FACEAD" opacity="1.000000" stroke="none" 
	d="
M67.665352,32.060783 
	C67.192612,33.560242 66.383957,35.077297 65.318161,36.786785 
	C63.375126,34.215275 65.046242,33.005173 67.665352,32.060783 
z"/>
<path fill="#FACEAD" opacity="1.000000" stroke="none" 
	d="
M65.185112,95.328354 
	C65.986412,96.194633 66.757896,97.388901 67.275398,98.786728 
	C66.399376,97.878975 65.777336,96.767654 65.185112,95.328354 
z"/>
<path fill="#FACEAD" opacity="1.000000" stroke="none" 
	d="
M64.058144,88.330795 
	C64.091316,87.963799 64.516151,87.954369 64.727844,87.947418 
	C65.125084,89.160530 65.310631,90.380577 65.225052,91.812134 
	C64.644272,90.915024 64.334625,89.806412 64.058144,88.330795 
z"/>
<path fill="#588CAF" opacity="1.000000" stroke="none" 
	d="
M201.322479,95.265839 
	C201.866638,96.082588 202.312485,97.253906 202.554565,98.655449 
	C201.975235,97.797249 201.599701,96.708832 201.322479,95.265839 
z"/>
<path fill="#CDD8DE" opacity="1.000000" stroke="none" 
	d="
M139.808289,269.888916 
	C139.316574,268.688538 138.946091,267.089447 138.741821,265.244446 
	C139.248520,266.495758 139.589005,267.992981 139.808289,269.888916 
z"/>
<path fill="#F6CCAB" opacity="1.000000" stroke="none" 
	d="
M202.480194,163.835266 
	C202.405746,164.752655 202.023163,165.813583 201.264740,166.913849 
	C201.316635,165.961716 201.744354,164.970261 202.480194,163.835266 
z"/>
<path fill="#C7B2A6" opacity="1.000000" stroke="none" 
	d="
M196.248627,234.359375 
	C196.776855,234.026230 197.238937,234.075211 198.039215,234.224060 
	C197.828751,235.114166 197.280121,235.904419 196.497696,236.860870 
	C196.236786,236.265228 196.209656,235.503372 196.248627,234.359375 
z"/>
<path fill="#FACEAD" opacity="1.000000" stroke="none" 
	d="
M77.368057,106.082779 
	C77.780571,105.422699 78.511276,104.714767 79.597649,103.996277 
	C79.197632,104.668785 78.441940,105.351860 77.368057,106.082779 
z"/>
<path fill="#C7B2A6" opacity="1.000000" stroke="none" 
	d="
M196.663727,244.266602 
	C197.043289,244.652588 197.244919,245.141968 197.264481,245.861145 
	C196.883560,245.517303 196.684677,244.943649 196.663727,244.266602 
z"/>
<path fill="#323B42" opacity="1.000000" stroke="none" 
	d="
M245.195053,135.938324 
	C245.156830,135.896591 245.143982,136.056534 245.149857,136.096039 
	C245.155731,136.135544 245.233276,135.980072 245.195053,135.938324 
z"/>
<path fill="#C7B2A6" opacity="1.000000" stroke="none" 
	d="
M198.581451,254.264771 
	C198.697021,254.221970 198.921478,254.456238 198.873932,254.607849 
	C198.826385,254.759476 198.507233,254.652420 198.507233,254.652420 
	C198.507233,254.652420 198.465881,254.307587 198.581451,254.264771 
z"/>
<path fill="#C7B2A6" opacity="1.000000" stroke="none" 
	d="
M199.692261,258.150940 
	C199.807312,258.056458 200.038956,258.450897 199.975525,258.550110 
	C199.660629,258.629944 199.548996,258.495300 199.692261,258.150940 
z"/>
<path fill="#F1C7A7" opacity="1.000000" stroke="none" 
	d="
M223.704407,54.533745 
	C223.695526,54.622906 223.496216,54.765282 223.432251,54.664192 
	C223.368301,54.563107 223.475708,54.367855 223.475708,54.367855 
	C223.475708,54.367855 223.713287,54.444584 223.704407,54.533745 
z"/>
<path fill="#F6CCAB" opacity="1.000000" stroke="none" 
	d="
M220.961258,216.041840 
	C223.505096,216.920517 226.048935,217.799179 229.465881,218.979431 
	C229.997223,217.246216 230.852127,214.457535 232.145630,211.586166 
	C233.114487,216.741455 233.644745,221.979446 234.175018,227.217422 
	C234.175018,227.217422 234.059006,227.627090 233.611511,227.847534 
	C232.815460,228.763153 232.466888,229.458344 232.118317,230.153519 
	C232.118317,230.153519 231.946304,230.569412 231.447922,230.753479 
	C230.291275,231.446640 229.633011,231.955750 228.974747,232.464844 
	C228.782196,232.462265 228.589661,232.459671 228.020752,232.033966 
	C227.068161,231.453293 226.491928,231.295731 225.915710,231.138168 
	C225.915710,231.138168 225.923157,231.063614 225.908783,230.745392 
	C224.960068,229.611725 224.025726,228.796249 223.091400,227.980789 
	C222.928375,227.661575 222.765366,227.342361 222.685791,226.347763 
	C222.166580,222.462204 221.563919,219.252014 220.961258,216.041840 
z"/>
<path fill="#C7B2A6" opacity="1.000000" stroke="none" 
	d="
M220.972717,216.029526 
	C221.563919,219.252014 222.166580,222.462204 222.647888,226.080170 
	C220.813644,221.370514 219.106079,216.251266 217.384506,211.136749 
	C216.887833,209.661179 216.350845,208.199188 215.333786,205.319168 
	C213.388641,209.377487 212.085052,212.097275 210.500580,215.021774 
	C210.156494,214.433060 210.093277,213.639633 210.316956,212.218826 
	C210.739563,209.396347 210.875244,207.201248 211.010925,205.006149 
	C209.504517,205.328827 207.998123,205.651489 205.060715,206.280670 
	C206.933884,204.035446 208.205658,202.511063 210.120178,201.129822 
	C213.149124,202.178543 215.535309,203.084122 217.921509,203.989685 
	C217.942368,204.733475 217.963211,205.477280 218.005051,206.980728 
	C219.006653,210.498657 219.987259,213.256927 220.967865,216.015198 
	C220.967865,216.015198 220.984177,216.017212 220.972717,216.029526 
z"/>
<path fill="#F6CCAB" opacity="1.000000" stroke="none" 
	d="
M239.019653,208.401749 
	C242.030502,209.378922 245.181015,210.662582 248.674683,212.376434 
	C248.018723,214.866714 247.019623,216.926773 246.020508,218.986832 
	C243.733444,215.560638 241.446381,212.134430 239.019653,208.401749 
z"/>
<path fill="#C7B2A6" opacity="1.000000" stroke="none" 
	d="
M234.480957,226.988464 
	C233.644745,221.979446 233.114487,216.741455 232.297699,211.234711 
	C232.011169,210.965958 232.006851,210.906387 232.000671,210.591599 
	C231.998367,209.889709 232.002228,209.502625 232.430481,209.088272 
	C233.696487,209.156799 234.538132,209.252563 235.379761,209.348358 
	C235.388977,212.593643 235.479752,215.841385 235.381454,219.083405 
	C235.303772,221.645767 234.993744,224.201065 234.480957,226.988464 
z"/>
<path fill="#D1B49D" opacity="1.000000" stroke="none" 
	d="
M245.989594,219.332092 
	C247.019623,216.926773 248.018723,214.866714 249.043915,212.423569 
	C249.070007,212.040497 249.536423,212.026917 249.768219,212.013458 
	C250.000000,212.000000 249.996735,211.997498 249.996735,211.997498 
	C249.656570,215.369049 249.316422,218.740616 248.977386,222.526855 
	C248.732742,222.975433 248.486954,223.009338 247.868866,223.077911 
	C246.983932,221.967499 246.471298,220.822418 245.989594,219.332092 
z"/>
<path fill="#F6CCAB" opacity="1.000000" stroke="none" 
	d="
M235.698029,209.310654 
	C234.538132,209.252563 233.696487,209.156799 232.408905,208.817719 
	C231.942963,208.395493 231.923004,208.216568 231.903030,208.037628 
	C233.777252,207.377563 235.626343,206.615570 237.546616,206.142456 
	C237.935699,206.046631 238.593582,207.041779 239.003128,207.829514 
	C237.924576,208.507690 236.970428,208.890320 235.698029,209.310654 
z"/>
<path fill="#F6CCAB" opacity="1.000000" stroke="none" 
	d="
M204.025589,226.022446 
	C203.516525,224.918381 203.007462,223.814316 202.332611,222.350632 
	C203.848526,222.213043 205.077133,222.101532 206.697723,221.991272 
	C206.937332,222.565338 206.784973,223.138138 206.135162,224.021454 
	C205.549210,224.691147 205.460693,225.050323 205.372177,225.409515 
	C205.372177,225.409515 205.315170,225.780106 204.936523,225.901703 
	C204.380447,226.022995 204.203018,226.022720 204.025589,226.022446 
z"/>
<path fill="#C7B2A6" opacity="1.000000" stroke="none" 
	d="
M207.719421,221.293243 
	C208.072174,219.756256 208.714417,218.037491 209.673615,216.168625 
	C209.330002,217.716171 208.669449,219.413834 207.719421,221.293243 
z"/>
<path fill="#C7B2A6" opacity="1.000000" stroke="none" 
	d="
M223.096039,228.306305 
	C224.025726,228.796249 224.960068,229.611725 225.879456,230.768707 
	C224.943222,230.284088 224.021942,229.457962 223.096039,228.306305 
z"/>
<path fill="#C7B2A6" opacity="1.000000" stroke="none" 
	d="
M229.187836,232.617661 
	C229.633011,231.955750 230.291275,231.446640 231.282455,230.905991 
	C230.877228,231.506470 230.139084,232.138474 229.187836,232.617661 
z"/>
<path fill="#C7B2A6" opacity="1.000000" stroke="none" 
	d="
M232.412003,230.062943 
	C232.466888,229.458344 232.815460,228.763153 233.477280,228.012772 
	C233.428909,228.629166 233.067307,229.300766 232.412003,230.062943 
z"/>
<path fill="#C7B2A6" opacity="1.000000" stroke="none" 
	d="
M202.480362,230.150513 
	C202.145691,229.774780 202.102280,229.284225 202.080383,228.425400 
	C202.504745,228.023529 202.907547,227.989944 203.613922,227.964020 
	C203.535507,228.659683 203.153564,229.347687 202.480362,230.150513 
z"/>
<path fill="#C7B2A6" opacity="1.000000" stroke="none" 
	d="
M226.055191,231.408585 
	C226.491928,231.295731 227.068161,231.453293 227.764618,231.900452 
	C227.321457,232.019684 226.758072,231.849335 226.055191,231.408585 
z"/>
<path fill="#C7B2A6" opacity="1.000000" stroke="none" 
	d="
M199.258606,233.855347 
	C199.227295,233.420059 199.464691,232.910843 200.000397,232.386108 
	C200.041580,232.840866 199.784454,233.311142 199.258606,233.855347 
z"/>
<path fill="#C7B2A6" opacity="1.000000" stroke="none" 
	d="
M200.627899,232.162964 
	C200.535934,231.926453 200.682800,231.611374 201.111755,231.270966 
	C201.218124,231.525238 201.042419,231.804825 200.627899,232.162964 
z"/>
<path fill="#C7B2A6" opacity="1.000000" stroke="none" 
	d="
M204.063141,226.357239 
	C204.203018,226.022720 204.380447,226.022995 204.822861,226.050781 
	C204.976486,226.405045 204.865143,226.731842 204.527069,227.197083 
	C204.233795,227.121048 204.167236,226.906540 204.063141,226.357239 
z"/>
<path fill="#C7B2A6" opacity="1.000000" stroke="none" 
	d="
M205.593826,225.259125 
	C205.460693,225.050323 205.549210,224.691147 205.912918,224.229706 
	C206.063919,224.454559 205.939697,224.781647 205.593826,225.259125 
z"/>
<path fill="#5484A9" opacity="1.000000" stroke="none" 
	d="
M87.706696,215.966400 
	C87.706696,215.966400 87.758415,215.490799 87.840393,215.266357 
	C92.167061,218.121719 92.334473,226.110794 87.875595,231.755035 
	C87.406975,231.075775 87.333847,230.325104 87.469559,229.140503 
	C87.823044,228.212418 87.967705,227.718246 88.384232,226.963745 
	C90.897072,222.898270 89.833015,219.385376 87.706696,215.966400 
z"/>
<path fill="#C2BFBB" opacity="1.000000" stroke="none" 
	d="
M98.828812,217.089661 
	C103.790985,217.704147 108.753151,218.318634 114.207642,219.117828 
	C114.699966,219.302551 114.745285,219.712448 114.745285,219.712448 
	C114.745285,219.712448 114.798615,219.718475 114.388184,219.797592 
	C110.402405,220.110748 106.827065,220.344803 103.251717,220.578857 
	C102.779816,220.334915 102.307922,220.090958 101.387764,219.563980 
	C100.274940,218.877060 99.610382,218.473160 98.945816,218.069275 
	C98.945816,218.069275 98.976303,217.994537 98.937073,217.782684 
	C98.897842,217.570816 98.828812,217.089661 98.828812,217.089661 
z"/>
<path fill="#5484A9" opacity="1.000000" stroke="none" 
	d="
M85.186844,205.662918 
	C85.932205,206.010376 86.677567,206.357834 87.784988,207.153015 
	C88.733215,208.093170 89.319382,208.585632 89.905556,209.078079 
	C89.905556,209.078079 89.996292,208.999313 90.039482,209.305054 
	C90.216919,209.737900 90.351166,209.865005 90.485413,209.992096 
	C90.485413,209.992096 90.173470,210.108902 90.020798,210.041382 
	C89.178314,210.920837 88.488495,211.867813 87.657585,213.201477 
	C87.204842,213.479187 86.921829,213.319427 86.403824,212.698700 
	C85.788345,211.843231 85.436523,211.397980 85.084702,210.952728 
	C85.084694,210.952728 85.002869,210.991226 85.035660,210.663910 
	C84.721489,209.880341 84.374535,209.424072 84.027573,208.967819 
	C84.027573,208.967819 84.003075,209.002472 83.966461,208.580200 
	C83.713890,207.653076 83.497925,207.148209 83.450325,206.454681 
	C83.741684,206.150742 83.864670,206.035446 84.298813,205.908844 
	C84.802269,205.819305 84.994560,205.741104 85.186844,205.662918 
z"/>
<path fill="#5484A9" opacity="1.000000" stroke="none" 
	d="
M103.357086,220.949631 
	C106.827065,220.344803 110.402405,220.110748 114.373093,219.819794 
	C111.494949,223.693085 108.559525,224.097473 103.357086,220.949631 
z"/>
<path fill="#5484A9" opacity="1.000000" stroke="none" 
	d="
M115.080696,219.771973 
	C114.745285,219.712448 114.699966,219.302551 114.641884,219.104340 
	C114.583801,218.906143 114.890968,218.573013 115.250542,218.203369 
	C115.857071,217.279068 116.104034,216.724411 116.350998,216.169739 
	C116.350990,216.169739 116.737190,216.092285 116.930344,216.132645 
	C116.554359,217.392517 115.985229,218.612015 115.080696,219.771973 
z"/>
<path fill="#C2BFBB" opacity="1.000000" stroke="none" 
	d="
M92.094742,211.957001 
	C93.170540,212.379791 94.253441,213.054840 94.858513,213.779114 
	C93.667793,213.450256 92.954903,213.072189 92.242020,212.694107 
	C92.195297,212.532501 92.148575,212.370880 92.094742,211.957001 
z"/>
<path fill="#5484A9" opacity="1.000000" stroke="none" 
	d="
M92.213959,213.050110 
	C92.954903,213.072189 93.667793,213.450256 94.667587,213.935272 
	C95.087120,214.356491 95.219749,214.670776 95.395035,215.233429 
	C94.353767,214.789917 93.269836,214.098022 92.213959,213.050110 
z"/>
<path fill="#5484A9" opacity="1.000000" stroke="none" 
	d="
M117.776352,214.033569 
	C117.463242,213.596939 117.375038,213.078354 117.453064,212.193024 
	C117.746628,212.534729 117.873947,213.243164 117.776352,214.033569 
z"/>
<path fill="#5484A9" opacity="1.000000" stroke="none" 
	d="
M99.013855,218.402405 
	C99.610382,218.473160 100.274940,218.877060 101.123978,219.515991 
	C100.566269,219.412552 99.824081,219.074036 99.013855,218.402405 
z"/>
<path fill="#5484A9" opacity="1.000000" stroke="none" 
	d="
M98.553185,217.016754 
	C98.828812,217.089661 98.897842,217.570816 98.910843,217.813690 
	C98.386650,217.825928 97.849457,217.595276 97.234497,217.068634 
	C97.530342,216.829712 97.903946,216.886780 98.553185,217.016754 
z"/>
<path fill="#5484A9" opacity="1.000000" stroke="none" 
	d="
M95.479202,215.890442 
	C95.980759,215.802078 96.458084,216.042526 97.051979,216.533478 
	C96.597359,216.595718 96.026161,216.407471 95.479202,215.890442 
z"/>
<path fill="#C2BFBB" opacity="1.000000" stroke="none" 
	d="
M117.270584,211.672867 
	C116.991653,211.742630 116.780479,211.610504 116.569305,211.478394 
	C116.649231,211.369781 116.729156,211.261185 117.010223,211.108521 
	C117.211372,211.064468 117.338348,211.470993 117.270584,211.672867 
z"/>
<path fill="#5484A9" opacity="1.000000" stroke="none" 
	d="
M90.324089,210.872986 
	C90.594368,210.769485 90.895805,210.983749 91.318878,211.451492 
	C91.078758,211.533569 90.717003,211.362152 90.324089,210.872986 
z"/>
<path fill="#FDFAF7" opacity="1.000000" stroke="none" 
	d="
M276.000458,114.643158 
	C273.631714,119.229645 267.660767,119.324211 264.227142,115.467567 
	C259.858154,110.560333 255.228165,105.885460 250.370026,101.105408 
	C250.143051,98.390320 250.256775,95.680260 250.532990,92.552322 
	C264.194702,93.724785 270.459656,103.574821 276.000458,114.643158 
z"/>
<path fill="#C4A38B" opacity="1.000000" stroke="none" 
	d="
M230.178558,82.246529 
	C233.575485,83.192665 236.986633,84.368103 240.269348,85.831612 
	C243.065308,87.078117 245.713440,88.656212 248.665619,90.284760 
	C239.061157,92.540184 234.765869,90.736412 230.178558,82.246529 
z"/>
<path fill="#588CAF" opacity="1.000000" stroke="none" 
	d="
M206.148590,83.416122 
	C206.540451,83.280769 207.096573,83.413086 207.885559,83.723778 
	C207.516571,83.829369 206.914703,83.756577 206.148590,83.416122 
z"/>
<path fill="#3D78A4" opacity="1.000000" stroke="none" 
	d="
M86.077965,87.872139 
	C85.857117,86.935112 86.044907,85.986252 86.354599,84.696060 
	C90.034546,84.204941 93.592567,84.055138 97.595779,84.037926 
	C96.579720,84.768707 95.152351,85.476906 93.649414,85.939774 
	C91.288574,86.666855 88.876801,87.228554 86.077965,87.872139 
z"/>
<path fill="#D8AF8F" opacity="1.000000" stroke="none" 
	d="
M115.828186,54.162453 
	C113.220818,59.454021 109.622154,62.807316 102.163139,62.972103 
	C107.285057,58.976528 111.294205,55.849022 115.303345,52.721512 
	C115.503654,53.095150 115.703964,53.468788 115.828186,54.162453 
z"/>
<path fill="#DCBCA4" opacity="1.000000" stroke="none" 
	d="
M93.246094,69.300896 
	C94.153282,68.785431 95.259041,68.524513 96.693558,68.352333 
	C95.829765,68.812531 94.637215,69.183990 93.246094,69.300896 
z"/>
<path fill="#DCBCA4" opacity="1.000000" stroke="none" 
	d="
M106.760315,83.070557 
	C106.500267,83.258987 105.836609,83.390686 104.954926,83.351379 
	C105.276840,83.124863 105.816772,83.069351 106.760315,83.070557 
z"/>
<path fill="#DCBCA4" opacity="1.000000" stroke="none" 
	d="
M101.084656,83.159042 
	C101.101540,83.488121 100.815056,83.636162 100.228058,83.546951 
	C100.248436,83.246590 100.533020,83.136032 101.084656,83.159042 
z"/>
<path fill="#FDFBF9" opacity="1.000000" stroke="none" 
	d="
M83.987648,205.920166 
	C83.864670,206.035446 83.741684,206.150742 83.240326,206.519562 
	C82.583382,206.879730 82.299210,206.968399 82.009430,207.039108 
	C76.623085,208.393616 71.075096,209.308121 65.890793,211.212631 
	C59.228115,213.660248 52.549629,214.166138 44.443676,213.912994 
	C47.419865,205.187988 49.812851,197.170197 53.005825,189.484756 
	C53.852551,187.446716 57.159184,186.430649 59.729652,184.917572 
	C61.916164,193.066208 67.359726,197.612228 75.517075,200.272614 
	C78.649002,201.419540 81.326302,202.205338 84.003601,202.991119 
	C84.305168,203.482468 84.606735,203.973816 84.771576,204.827835 
	C84.333328,205.357681 84.117599,205.600906 83.987648,205.920166 
z"/>
<path fill="#CDAB98" opacity="1.000000" stroke="none" 
	d="
M88.112366,227.224091 
	C87.967705,227.718246 87.823044,228.212418 87.465668,228.854141 
	C85.111320,227.571899 82.969696,226.142075 80.828072,224.712250 
	C81.111977,224.200836 81.395874,223.689423 81.679779,223.178009 
	C83.561111,224.026169 85.442451,224.874344 87.674324,226.163727 
	C88.054024,226.811325 88.083191,227.017715 88.112366,227.224091 
z"/>
<path fill="#C2BFBB" opacity="1.000000" stroke="none" 
	d="
M88.384239,226.963745 
	C88.083191,227.017715 88.054024,226.811325 87.988976,226.294189 
	C87.730377,222.844055 87.507668,219.704697 87.495819,216.265869 
	C89.833015,219.385376 90.897072,222.898270 88.384239,226.963745 
z"/>
<path fill="#C2BFBB" opacity="1.000000" stroke="none" 
	d="
M82.061584,207.353424 
	C82.299210,206.968399 82.583382,206.879730 83.071945,206.708221 
	C83.497925,207.148209 83.713890,207.653076 83.983521,208.566422 
	C83.396034,208.539169 82.754883,208.103439 82.061584,207.353424 
z"/>
<path fill="#C2BFBB" opacity="1.000000" stroke="none" 
	d="
M85.070236,211.268539 
	C85.436523,211.397980 85.788345,211.843231 86.188705,212.580536 
	C85.843422,212.443176 85.449600,212.013763 85.070236,211.268539 
z"/>
<path fill="#C2BFBB" opacity="1.000000" stroke="none" 
	d="
M84.025276,209.273483 
	C84.374535,209.424072 84.721489,209.880341 85.072586,210.637329 
	C84.725471,210.485092 84.374229,210.032120 84.025276,209.273483 
z"/>
<path fill="#CDAB98" opacity="1.000000" stroke="none" 
	d="
M79.475471,222.460358 
	C79.526222,222.432709 79.424721,222.487991 79.475471,222.460358 
z"/>
<path fill="#E5AF8A" opacity="1.000000" stroke="none" 
	d="
M252.732147,80.995499 
	C251.089554,80.895958 249.844101,80.779221 248.432358,80.646889 
	C251.532318,78.292122 254.346420,76.154488 257.960449,73.409233 
	C257.855225,77.111458 257.076019,79.824844 252.732147,80.995499 
z"/>
<path fill="#E5AF8A" opacity="1.000000" stroke="none" 
	d="
M202.062546,66.633774 
	C201.403076,62.561134 201.140533,58.610615 200.791641,53.360809 
	C204.609711,57.863155 204.869919,63.199284 202.062546,66.633774 
z"/>
<path fill="#E5AF8A" opacity="1.000000" stroke="none" 
	d="
M200.465851,52.448662 
	C200.527161,52.410500 200.404526,52.486828 200.465851,52.448662 
z"/>
<path fill="#342F2A" opacity="1.000000" stroke="none" 
	d="
M220.059097,171.269867 
	C225.073639,168.505295 230.555099,166.834717 236.082092,168.169556 
	C239.989761,169.113327 243.480118,171.784882 247.397125,173.903061 
	C247.961441,174.858566 248.285385,175.596100 248.415344,176.779572 
	C247.479919,178.850967 246.738480,180.476456 245.762894,181.801483 
	C241.597931,180.351120 237.686066,179.130432 233.730789,178.071915 
	C230.049866,177.086838 227.298691,178.285538 225.782501,181.911148 
	C225.561569,182.419769 225.340637,182.928406 224.750610,183.821594 
	C224.305542,184.808075 224.229584,185.410004 224.153641,186.011902 
	C223.612656,186.093399 223.071655,186.174896 222.250748,185.741318 
	C220.040253,185.226257 218.109680,185.226257 215.797424,185.226257 
	C216.111465,182.401413 216.524292,178.687790 216.937134,174.974182 
	C217.286652,174.513046 217.636154,174.051895 218.291641,173.219086 
	C219.084778,172.321564 219.571930,171.795715 220.059097,171.269867 
z"/>
<path fill="#F6CCAB" opacity="1.000000" stroke="none" 
	d="
M226.119598,182.051514 
	C227.298691,178.285538 230.049866,177.086838 233.730789,178.071915 
	C237.686066,179.130432 241.597931,180.351120 245.789642,182.237061 
	C245.654022,186.643234 245.257507,190.313370 244.576050,194.150024 
	C243.869888,195.315277 243.448654,196.314011 243.027420,197.312744 
	C243.528275,197.518097 244.029144,197.723465 244.529999,197.928833 
	C245.042892,196.635498 245.555786,195.342178 246.298248,193.927582 
	C246.956131,193.522980 247.384445,193.239639 247.812775,192.956314 
	C247.112808,195.149918 247.079941,198.424362 245.592636,199.342300 
	C240.310928,202.602142 241.709351,195.326324 238.422684,194.118240 
	C237.627167,195.693161 236.886765,197.158936 236.146362,198.624725 
	C235.700668,198.635635 235.254990,198.646530 234.809296,198.657440 
	C234.503128,195.425644 235.038818,191.760132 233.658859,189.081512 
	C232.220352,186.289246 228.934708,184.448593 226.119598,182.051514 
z"/>
<path fill="#E2BC9E" opacity="1.000000" stroke="none" 
	d="
M216.578705,175.058899 
	C216.524292,178.687790 216.111465,182.401413 215.797424,185.226257 
	C218.109680,185.226257 220.040253,185.226257 222.000626,185.603714 
	C221.411499,187.059464 220.000305,188.720642 220.297653,189.124832 
	C222.924850,192.695801 221.296066,195.499451 219.049683,198.997055 
	C219.001633,200.122086 218.992188,200.560745 218.982758,200.999420 
	C218.812042,201.000763 218.641327,201.002106 218.061325,200.694901 
	C216.464264,198.130646 215.276505,195.874924 214.063385,193.348633 
	C214.001602,192.713654 213.965149,192.349243 213.928696,191.984833 
	C212.974945,188.572372 212.021179,185.159927 211.245880,181.265717 
	C211.705078,180.587067 211.897690,180.325302 212.002213,179.998703 
	C213.408234,178.380341 214.814255,176.761978 216.578705,175.058899 
z"/>
<path fill="#F6CCAB" opacity="1.000000" stroke="none" 
	d="
M249.984955,177.066620 
	C254.431015,175.334946 255.051697,176.047394 257.265869,182.169586 
	C258.745453,186.260635 256.372711,187.099442 253.520432,187.906204 
	C251.960083,188.347565 250.340912,188.581039 248.359055,188.566162 
	C249.006531,186.248337 249.643707,183.860306 251.165741,182.385483 
	C254.046646,179.593964 252.543121,178.350906 249.984955,177.066620 
z"/>
<path fill="#FDF4EB" opacity="1.000000" stroke="none" 
	d="
M214.088745,193.619202 
	C215.276505,195.874924 216.464264,198.130646 217.805298,200.699799 
	C217.942795,201.757187 217.926987,202.501160 217.916351,203.617401 
	C215.535309,203.084122 213.149124,202.178543 210.478745,201.069885 
	C210.139374,200.453262 210.084183,200.039734 210.167542,199.009323 
	C211.566971,196.801361 212.827850,195.210281 214.088745,193.619202 
z"/>
<path fill="#F9F1E8" opacity="1.000000" stroke="none" 
	d="
M249.696472,177.052185 
	C252.543121,178.350906 254.046646,179.593964 251.165741,182.385483 
	C249.643707,183.860306 249.006531,186.248337 247.969070,188.606323 
	C247.935730,190.107452 247.903152,191.226303 247.841675,192.650742 
	C247.384445,193.239639 246.956131,193.522980 245.996140,193.907288 
	C245.263321,194.000015 245.062149,193.991776 244.860992,193.983521 
	C245.257507,190.313370 245.654022,186.643234 246.023804,182.537506 
	C246.738480,180.476456 247.479919,178.850967 248.531250,177.075928 
	C249.030106,176.963486 249.219040,177.000626 249.696472,177.052185 
z"/>
<path fill="#E1AC86" opacity="1.000000" stroke="none" 
	d="
M231.575317,208.033646 
	C231.923004,208.216568 231.942963,208.395493 231.984512,208.844971 
	C232.002228,209.502625 231.998367,209.889709 231.986542,210.565277 
	C225.849503,210.746338 222.138870,207.501328 221.384003,201.089737 
	C222.570694,201.742752 223.475464,202.240646 224.821014,203.173996 
	C226.507462,204.739487 227.753113,205.869507 228.998779,206.999527 
	C229.748398,207.342911 230.498001,207.686279 231.575317,208.033646 
z"/>
<path fill="#F6CCAB" opacity="1.000000" stroke="none" 
	d="
M220.980499,215.601593 
	C219.987259,213.256927 219.006653,210.498657 218.032776,207.351776 
	C221.053513,207.018784 222.627762,208.051956 221.398590,211.420990 
	C220.978409,212.572647 221.112366,213.926498 220.980499,215.601593 
z"/>
<path fill="#F6CCAB" opacity="1.000000" stroke="none" 
	d="
M229.262024,206.785706 
	C227.753113,205.869507 226.507462,204.739487 225.115326,203.328796 
	C225.850143,202.508865 226.731415,201.969635 227.612671,201.430389 
	C228.250198,203.144226 228.887726,204.858063 229.262024,206.785706 
z"/>
<path fill="#F6CCAB" opacity="1.000000" stroke="none" 
	d="
M243.609650,203.534546 
	C244.059052,203.650513 244.334564,203.933640 244.588730,204.234772 
	C244.595337,204.242554 244.368256,204.447556 244.250137,204.560593 
	C243.977737,204.275085 243.705338,203.989563 243.609650,203.534546 
z"/>
<path fill="#E2BC9E" opacity="1.000000" stroke="none" 
	d="
M224.434906,185.967468 
	C224.229584,185.410004 224.305542,184.808075 224.680481,184.099609 
	C224.891708,184.636383 224.803955,185.279694 224.434906,185.967468 
z"/>
<path fill="#F6CCAB" opacity="1.000000" stroke="none" 
	d="
M219.209961,200.859589 
	C218.992188,200.560745 219.001633,200.122086 219.021332,199.355133 
	C219.166779,199.591141 219.301971,200.155457 219.209961,200.859589 
z"/>
<path fill="#D1B49D" opacity="1.000000" stroke="none" 
	d="
M250.001221,212.001617 
	C250.089447,211.965622 250.176483,211.928040 250.130127,211.943970 
	C249.996735,211.997498 250.000000,212.000000 250.001221,212.001617 
z"/>
<path fill="#E1AC86" opacity="1.000000" stroke="none" 
	d="
M219.934067,170.927704 
	C219.571930,171.795715 219.084778,172.321564 218.337616,172.926575 
	C216.234680,170.143311 214.391754,167.280899 212.191513,163.956589 
	C212.221558,163.002396 212.608932,162.510086 212.996307,162.017776 
	C215.267212,164.873703 217.538116,167.729614 219.934067,170.927704 
z"/>
<path fill="#F6CCAB" opacity="1.000000" stroke="none" 
	d="
M214.063385,193.348633 
	C212.827850,195.210281 211.566971,196.801361 210.138489,198.697021 
	C209.086868,197.493729 208.202835,195.985840 207.318802,194.477951 
	C209.249664,193.649567 211.180527,192.821167 213.520035,191.988800 
	C213.965149,192.349243 214.001602,192.713654 214.063385,193.348633 
z"/>
<path fill="#F7C6A2" opacity="1.000000" stroke="none" 
	d="
M212.752502,161.738571 
	C212.608932,162.510086 212.221558,163.002396 211.926819,163.741882 
	C211.572357,163.993088 211.125305,163.997070 210.343292,164.001617 
	C208.915527,163.665176 207.822693,163.328156 206.363159,162.986603 
	C208.167206,162.474503 210.337952,161.966934 212.752502,161.738571 
z"/>
<path fill="#F6CCAB" opacity="1.000000" stroke="none" 
	d="
M211.001465,205.374832 
	C210.875244,207.201248 210.739563,209.396347 210.328522,211.819656 
	C210.366089,209.946411 210.679031,207.844971 211.001465,205.374832 
z"/>
<path fill="#F7C6A2" opacity="1.000000" stroke="none" 
	d="
M211.882629,179.741318 
	C211.897690,180.325302 211.705078,180.587067 211.201111,180.891052 
	C210.733505,180.303329 210.489136,179.608505 210.244766,178.913696 
	C210.750854,179.103775 211.256958,179.293854 211.882629,179.741318 
z"/>
<path fill="#F4CBAC" opacity="1.000000" stroke="none" 
	d="
M83.926163,202.620422 
	C81.326302,202.205338 78.649002,201.419540 75.889648,200.260132 
	C73.914406,197.840759 72.021225,195.794998 69.973465,193.447876 
	C73.664673,192.612534 76.205826,193.317764 77.434624,197.879410 
	C77.945129,199.774582 81.615349,200.818619 83.926163,202.620422 
z"/>
<path fill="#F4CBAC" opacity="1.000000" stroke="none" 
	d="
M69.905052,192.792297 
	C69.483437,191.628311 68.413673,189.805923 68.885216,188.573029 
	C69.898811,185.922882 71.706421,183.576416 73.499901,180.945221 
	C72.525726,184.656906 71.240654,188.529007 69.905052,192.792297 
z"/>
<path fill="#F4CBAC" opacity="1.000000" stroke="none" 
	d="
M78.025406,176.862076 
	C79.277084,176.712204 80.777107,176.940750 82.481049,177.470551 
	C81.214561,177.594696 79.744164,177.417587 78.025406,176.862076 
z"/>
<path fill="#F4CBAC" opacity="1.000000" stroke="none" 
	d="
M74.115646,180.836060 
	C74.290405,179.946167 74.835922,179.070023 75.682129,178.068848 
	C75.484016,178.912491 74.985214,179.881165 74.115646,180.836060 
z"/>
<path fill="#C2BFBB" opacity="1.000000" stroke="none" 
	d="
M89.914658,208.753082 
	C89.319382,208.585632 88.733215,208.093170 88.046799,207.323212 
	C88.032219,206.714767 88.218964,206.457184 88.721542,206.161896 
	C89.265442,206.843277 89.594604,207.635681 89.914658,208.753082 
z"/>
<path fill="#C2BFBB" opacity="1.000000" stroke="none" 
	d="
M84.298813,205.908844 
	C84.117599,205.600906 84.333328,205.357681 84.868195,205.100525 
	C85.101540,205.010544 85.143417,205.337479 85.165131,205.500198 
	C84.994560,205.741104 84.802269,205.819305 84.298813,205.908844 
z"/>
<path fill="#C2BFBB" opacity="1.000000" stroke="none" 
	d="
M116.029190,216.263672 
	C116.104034,216.724411 115.857071,217.279068 115.349442,217.999527 
	C115.294975,217.562744 115.501183,216.960159 116.029190,216.263672 
z"/>
<path fill="#C2BFBB" opacity="1.000000" stroke="none" 
	d="
M90.561890,209.832214 
	C90.351166,209.865005 90.216919,209.737900 89.997192,209.347229 
	C90.153938,209.279892 90.396156,209.476105 90.561890,209.832214 
z"/>
<path fill="#FCE8D4" opacity="1.000000" stroke="none" 
	d="
M244.576050,194.150024 
	C245.062149,193.991776 245.263321,194.000015 245.766571,194.028564 
	C245.555786,195.342178 245.042892,196.635498 244.529999,197.928833 
	C244.029144,197.723465 243.528275,197.518097 243.027420,197.312744 
	C243.448654,196.314011 243.869888,195.315277 244.576050,194.150024 
z"/>
</svg>