<svg width="28" height="28" viewBox="0 0 28 28" fill="none" xmlns="http://www.w3.org/2000/svg">
<path fill-rule="evenodd" clip-rule="evenodd" d="M2.33325 14.0067C2.33325 7.56721 7.56974 2.33325 13.9999 2.33325C20.4301 2.33325 25.6666 7.56721 25.6666 14.0067C25.6666 20.4326 20.4301 25.6666 13.9999 25.6666C7.56974 25.6666 2.33325 20.4326 2.33325 14.0067ZM18.2792 15.1874C18.4031 15.0636 18.5607 14.8722 18.5945 14.8272C18.7747 14.5908 18.8648 14.2982 18.8648 14.0067C18.8648 13.6791 18.7634 13.3752 18.572 13.1276C18.5563 13.1119 18.5256 13.0785 18.4855 13.0349C18.4106 12.9534 18.3031 12.8363 18.2004 12.7336C17.2769 11.7431 14.867 10.1223 13.6058 9.62703C13.4143 9.54936 12.9301 9.3794 12.6711 9.36814C12.4233 9.36814 12.1869 9.42442 11.9616 9.53698C11.6801 9.69456 11.4549 9.94219 11.331 10.2348C11.2522 10.4374 11.1283 11.0453 11.1283 11.0565C11.0044 11.7206 10.9369 12.8012 10.9369 13.9943C10.9369 15.1323 11.0044 16.1667 11.1058 16.842C11.1086 16.8448 11.1182 16.8931 11.1333 16.9681C11.179 17.1963 11.2744 17.6715 11.376 17.8663C11.6238 18.339 12.108 18.6317 12.626 18.6317H12.6711C13.0089 18.6204 13.7184 18.3278 13.7184 18.3165C14.9121 17.8213 17.2657 16.2792 18.2116 15.2549L18.2792 15.1874Z" fill="#F7F8F8"/>
</svg>
