<svg width="83" height="30" viewBox="0 0 83 30" fill="none" xmlns="http://www.w3.org/2000/svg">
<rect width="83" height="30" rx="15" fill="url(#paint0_linear_1057_2057)"/>
<path d="M32.648 19.084C32.088 19.084 31.584 18.988 31.136 18.796C30.688 18.596 30.336 18.316 30.08 17.956C29.824 17.596 29.696 17.176 29.696 16.696H31.16C31.192 17.056 31.332 17.352 31.58 17.584C31.836 17.816 32.192 17.932 32.648 17.932C33.12 17.932 33.488 17.82 33.752 17.596C34.016 17.364 34.148 17.068 34.148 16.708C34.148 16.428 34.064 16.2 33.896 16.024C33.736 15.848 33.532 15.712 33.284 15.616C33.044 15.52 32.708 15.416 32.276 15.304C31.732 15.16 31.288 15.016 30.944 14.872C30.608 14.72 30.32 14.488 30.08 14.176C29.84 13.864 29.72 13.448 29.72 12.928C29.72 12.448 29.84 12.028 30.08 11.668C30.32 11.308 30.656 11.032 31.088 10.84C31.52 10.648 32.02 10.552 32.588 10.552C33.396 10.552 34.056 10.756 34.568 11.164C35.088 11.564 35.376 12.116 35.432 12.82H33.92C33.896 12.516 33.752 12.256 33.488 12.04C33.224 11.824 32.876 11.716 32.444 11.716C32.052 11.716 31.732 11.816 31.484 12.016C31.236 12.216 31.112 12.504 31.112 12.88C31.112 13.136 31.188 13.348 31.34 13.516C31.5 13.676 31.7 13.804 31.94 13.9C32.18 13.996 32.508 14.1 32.924 14.212C33.476 14.364 33.924 14.516 34.268 14.668C34.62 14.82 34.916 15.056 35.156 15.376C35.404 15.688 35.528 16.108 35.528 16.636C35.528 17.06 35.412 17.46 35.18 17.836C34.956 18.212 34.624 18.516 34.184 18.748C33.752 18.972 33.24 19.084 32.648 19.084ZM41.7382 19L38.5102 15.268V19H37.1422V10.66H38.5102V14.464L41.7502 10.66H43.4662L39.8422 14.836L43.5262 19H41.7382ZM46.1039 10.66V19H44.7359V10.66H46.1039ZM53.732 13.144C53.732 13.568 53.632 13.968 53.432 14.344C53.232 14.72 52.912 15.028 52.472 15.268C52.032 15.5 51.468 15.616 50.78 15.616H49.268V19H47.9V10.66H50.78C51.42 10.66 51.96 10.772 52.4 10.996C52.848 11.212 53.18 11.508 53.396 11.884C53.62 12.26 53.732 12.68 53.732 13.144ZM50.78 14.5C51.3 14.5 51.688 14.384 51.944 14.152C52.2 13.912 52.328 13.576 52.328 13.144C52.328 12.232 51.812 11.776 50.78 11.776H49.268V14.5H50.78Z" fill="white"/>
<defs>
<linearGradient id="paint0_linear_1057_2057" x1="83" y1="30" x2="-23.4072" y2="7.21957" gradientUnits="userSpaceOnUse">
<stop stop-color="#92A3FD"/>
<stop offset="1" stop-color="#9DCEFF"/>
</linearGradient>
</defs>
</svg>
