<svg width="188" height="24" viewBox="0 0 188 24" fill="none" xmlns="http://www.w3.org/2000/svg">
<circle cx="4" cy="12" r="4" fill="white"/>
<circle cx="16" cy="12" r="4" fill="white"/>
<circle cx="28" cy="12" r="4" fill="white"/>
<circle cx="40" cy="12" r="4" fill="white"/>
<circle cx="62" cy="12" r="4" fill="white"/>
<circle cx="74" cy="12" r="4" fill="white"/>
<circle cx="86" cy="12" r="4" fill="white"/>
<circle cx="98" cy="12" r="4" fill="white"/>
<path d="M122.192 18V15.768H116.8V14.648L120.656 6.48H121.976L118.12 14.648H122.192V11.288H123.376V14.648H124.632V15.768H123.376V18H122.192ZM126.238 17.992L126.246 16.92L131.454 12.216C131.902 11.8107 132.198 11.4267 132.342 11.064C132.491 10.696 132.566 10.312 132.566 9.912C132.566 9.43733 132.454 9.008 132.23 8.624C132.006 8.24 131.704 7.936 131.326 7.712C130.947 7.48267 130.523 7.368 130.054 7.368C129.563 7.368 129.126 7.48533 128.742 7.72C128.358 7.95467 128.054 8.264 127.83 8.648C127.611 9.032 127.504 9.45067 127.51 9.904H126.31C126.31 9.20533 126.475 8.57867 126.806 8.024C127.136 7.46933 127.584 7.03467 128.15 6.72C128.715 6.4 129.355 6.24 130.07 6.24C130.768 6.24 131.395 6.40533 131.95 6.736C132.51 7.06133 132.95 7.504 133.27 8.064C133.595 8.61867 133.758 9.23733 133.758 9.92C133.758 10.4 133.699 10.824 133.582 11.192C133.47 11.5547 133.291 11.8933 133.046 12.208C132.806 12.5173 132.499 12.8373 132.126 13.168L127.502 17.344L127.318 16.864H133.758V17.992H126.238ZM138.779 18.232C138.208 18.232 137.683 18.1307 137.203 17.928C136.723 17.7253 136.309 17.4373 135.963 17.064C135.616 16.6853 135.363 16.2347 135.203 15.712L136.323 15.376C136.515 15.9467 136.829 16.3787 137.267 16.672C137.709 16.9653 138.208 17.1067 138.763 17.096C139.275 17.0853 139.715 16.9707 140.083 16.752C140.456 16.5333 140.741 16.2293 140.939 15.84C141.136 15.4507 141.235 15 141.235 14.488C141.235 13.704 141.005 13.0747 140.547 12.6C140.093 12.12 139.493 11.88 138.747 11.88C138.539 11.88 138.32 11.9093 138.091 11.968C137.861 12.0213 137.648 12.0987 137.451 12.2L136.859 11.264L141.339 7.128L141.531 7.608H135.659V6.48H142.315V7.624L138.411 11.352L138.395 10.888C139.195 10.7867 139.899 10.8773 140.507 11.16C141.115 11.4427 141.589 11.8747 141.931 12.456C142.277 13.032 142.451 13.7093 142.451 14.488C142.451 15.224 142.291 15.8747 141.971 16.44C141.656 17 141.221 17.44 140.667 17.76C140.112 18.0747 139.483 18.232 138.779 18.232ZM147.926 18.24C147.329 18.24 146.777 18.1173 146.27 17.872C145.764 17.6267 145.332 17.288 144.974 16.856C144.617 16.424 144.361 15.928 144.206 15.368L145.334 15.064C145.436 15.48 145.62 15.84 145.886 16.144C146.153 16.4427 146.465 16.6747 146.822 16.84C147.185 17.0053 147.564 17.088 147.958 17.088C148.47 17.088 148.929 16.9653 149.334 16.72C149.745 16.4693 150.07 16.1387 150.31 15.728C150.55 15.3173 150.67 14.8667 150.67 14.376C150.67 13.8693 150.545 13.4133 150.294 13.008C150.044 12.5973 149.713 12.272 149.302 12.032C148.892 11.792 148.444 11.672 147.958 11.672C147.414 11.672 146.945 11.792 146.55 12.032C146.156 12.2667 145.841 12.5627 145.606 12.92L144.534 12.472L144.886 6.48H151.038V7.608H145.406L145.99 7.056L145.678 12.168L145.382 11.776C145.713 11.3973 146.113 11.1013 146.582 10.888C147.052 10.6747 147.545 10.568 148.062 10.568C148.772 10.568 149.412 10.7387 149.982 11.08C150.553 11.416 151.006 11.872 151.342 12.448C151.678 13.024 151.846 13.6667 151.846 14.376C151.846 15.08 151.668 15.7253 151.31 16.312C150.953 16.8933 150.478 17.36 149.886 17.712C149.294 18.064 148.641 18.24 147.926 18.24Z" fill="white"/>
</svg>
