<svg version="1.1" id="Layer_1" xmlns="http://www.w3.org/2000/svg" xmlns:xlink="http://www.w3.org/1999/xlink" x="0px" y="0px"
	 width="100%" viewBox="0 0 590 501" enable-background="new 0 0 590 501" xml:space="preserve">
<path fill="#FFFFFF" opacity="1.000000" stroke="none" 
	d="
M335.000000,502.000000 
	C223.358795,502.000000 112.217598,502.000000 1.038196,502.000000 
	C1.038196,335.063721 1.038196,168.127441 1.038196,1.095576 
	C197.557861,1.095576 394.115784,1.095576 590.836853,1.095576 
	C590.836853,167.999878 590.836853,334.999908 590.836853,502.000000 
	C505.794098,502.000000 420.647064,502.000000 335.000000,502.000000 
M251.266968,268.499542 
	C252.149368,268.001678 253.031769,267.503815 254.224838,267.669861 
	C259.547699,272.324493 264.404419,268.354218 269.283234,266.703186 
	C272.213409,265.711578 273.708313,263.397797 273.808014,259.976105 
	C276.171112,261.823944 278.534180,263.671783 281.296478,266.072815 
	C287.161560,269.940277 295.955353,266.199432 298.414246,258.355225 
	C299.174774,251.485504 298.061584,245.300217 291.670654,240.296722 
	C286.075623,236.730087 277.214600,238.714737 274.655609,244.664368 
	C273.801025,247.522308 272.946442,250.380249 271.501801,252.826828 
	C269.806396,250.906799 268.411102,247.856262 266.351196,247.309433 
	C262.439392,246.271011 260.933807,244.144958 260.287933,240.564453 
	C259.671570,237.147736 258.807800,233.773834 257.998627,230.394073 
	C254.882309,217.378220 253.484863,203.579376 248.062515,191.604828 
	C243.740784,182.060852 243.088150,173.029114 243.023041,163.329971 
	C242.973236,155.911606 243.044662,148.490784 242.875687,141.075302 
	C242.686798,132.785706 241.615875,124.775169 234.007843,119.501762 
	C231.696777,117.899872 229.457169,116.168976 227.029053,114.766945 
	C220.746017,111.139008 214.376205,107.661385 207.293396,103.881645 
	C205.796646,103.392494 204.299911,102.903343 202.284073,102.058708 
	C198.309372,101.320587 198.135345,98.108299 197.407959,95.009140 
	C195.913086,88.639931 195.088654,82.249069 198.336212,76.310738 
	C201.052780,71.343346 203.135056,66.571709 200.737442,60.107288 
	C205.223160,42.151634 198.537262,34.460068 184.008209,31.292049 
	C177.287094,29.826527 169.752106,31.354132 165.275558,36.837631 
	C159.079239,44.427711 159.211365,53.696304 161.803299,63.526592 
	C162.425125,67.130524 162.838287,70.787254 163.732925,74.322136 
	C164.487839,77.304794 166.704147,80.151329 166.687149,83.048805 
	C166.647034,89.889946 170.329254,97.854622 161.361038,102.977287 
	C160.052490,103.616943 158.743942,104.256599 156.806473,105.065445 
	C149.732376,109.372025 142.574478,113.548187 135.609695,118.024834 
	C129.622772,121.872948 125.609222,127.222389 125.179054,134.599655 
	C124.937416,138.743729 125.382225,142.937622 125.005585,147.062286 
	C123.566551,162.821793 125.641426,178.577637 118.683578,194.226074 
	C112.677612,207.733658 111.394608,223.337616 107.986099,238.006073 
	C107.017921,242.172638 106.419373,246.561783 100.788544,247.374084 
	C99.660820,247.536758 98.838463,249.462646 97.764755,250.456070 
	C96.760033,251.385635 95.608627,252.156662 94.273979,252.202286 
	C93.905891,250.102905 93.537796,248.003510 93.191910,245.152176 
	C90.815971,238.595459 81.779839,236.253601 75.189560,240.906616 
	C69.779320,245.884048 67.901299,251.903412 69.863945,259.808075 
	C71.966820,266.361511 81.171555,269.747559 86.887405,265.560974 
	C88.599380,263.963776 90.311356,262.366608 92.723419,260.951202 
	C95.814598,263.441101 98.656273,266.367645 102.059135,268.312103 
	C106.465912,270.830231 111.227654,269.136841 116.227531,268.178436 
	C116.227531,268.178436 116.653046,268.062714 116.694878,268.935852 
	C116.703186,272.886230 116.054153,277.563049 120.262726,279.498993 
	C125.274071,281.804199 130.898987,283.934875 135.724976,279.468079 
	C135.074371,292.094025 134.394394,304.718567 133.782013,317.346375 
	C133.247940,328.359528 133.281616,328.361176 143.884476,331.179230 
	C143.207077,335.746674 142.855331,340.391602 141.790146,344.866730 
	C138.804688,357.409302 138.088226,369.989136 139.888885,382.771759 
	C141.154999,391.759644 142.043015,400.800812 143.031830,410.791199 
	C143.082779,416.691681 143.133728,422.592163 143.136673,429.275787 
	C140.955032,437.352905 138.665817,445.403107 136.638199,453.518707 
	C135.657227,457.445068 135.167450,461.494171 134.148529,466.342499 
	C135.125977,467.878754 136.031631,470.685516 137.092484,470.745453 
	C144.081009,471.140320 151.120087,471.230408 158.106354,470.812531 
	C161.339127,470.619202 163.171585,468.438141 161.177338,464.186066 
	C161.288773,463.138977 161.400208,462.091888 161.772690,460.806091 
	C161.656265,460.512634 161.539841,460.219147 161.283600,459.007874 
	C161.151123,451.427612 161.018661,443.847321 160.960861,435.293671 
	C160.990997,426.954102 161.021149,418.614563 161.577744,409.654755 
	C163.280075,402.252899 164.752289,394.788635 166.740005,387.464233 
	C169.546600,377.122437 170.987747,366.835907 169.217651,356.069336 
	C167.912979,348.133667 166.353516,339.965454 170.940323,331.931396 
	C175.015091,331.672211 179.089859,331.413055 183.517853,331.131409 
	C183.723831,327.663971 183.741150,324.706848 184.104248,321.792816 
	C184.963089,314.900269 185.986313,308.028198 187.234161,301.849579 
	C189.920029,311.598694 192.605896,321.347778 195.299866,331.126282 
	C197.464218,331.126282 199.254074,331.126282 201.738846,331.411469 
	C203.481476,331.619049 205.224091,331.826630 207.005692,332.829529 
	C207.392471,338.349060 208.314774,343.894012 208.054489,349.382874 
	C207.514099,360.778534 205.703552,372.083710 208.923767,383.459961 
	C211.396088,392.194061 212.995880,401.175140 214.995117,410.894257 
	C215.329544,416.262695 215.723923,421.628296 215.974976,427.000641 
	C216.116028,430.019440 216.020294,433.049255 216.000015,437.001831 
	C215.986008,446.332397 215.972000,455.662933 215.424255,465.519104 
	C214.285400,469.443054 215.817368,471.085510 219.830902,471.014557 
	C225.727188,470.910339 231.635056,470.823303 237.522934,471.077576 
	C242.422745,471.289185 243.774185,469.101318 242.732635,464.035706 
	C242.653671,463.148071 242.574707,462.260468 242.724548,460.885223 
	C242.553818,460.587585 242.383087,460.289978 242.040527,459.238464 
	C239.332321,449.233002 236.624115,439.227539 233.846008,428.722748 
	C233.618362,428.485931 233.390717,428.249084 232.890808,427.744385 
	C232.890808,427.744385 232.848328,427.364807 232.944839,426.378906 
	C232.977600,420.947784 233.010361,415.516693 233.024307,410.027130 
	C233.024307,410.027130 233.084793,410.037598 233.713547,409.916718 
	C233.809540,408.945557 233.905533,407.974396 233.993515,406.152222 
	C234.560135,401.892029 235.413818,397.646881 235.638443,393.368713 
	C236.261398,381.504333 237.312164,369.600464 236.871399,357.761475 
	C236.510483,348.066772 234.249344,338.442871 233.385345,328.303894 
	C236.180893,327.368286 238.976440,326.432648 241.655746,325.535950 
	C240.168579,310.796509 238.733963,296.577942 238.080109,282.245941 
	C239.973755,281.755615 241.851242,281.187195 243.764359,280.790863 
	C248.034256,279.906189 250.842682,277.775177 250.961258,272.236420 
	C250.945358,271.173187 250.929443,270.109924 251.266968,268.499542 
M372.894165,156.884521 
	C372.279083,157.355042 371.663971,157.825562 370.990601,157.532181 
	C369.382416,155.864304 368.058105,153.642502 366.107452,152.642853 
	C361.935730,150.504974 357.498566,148.828491 353.052948,147.304855 
	C350.727020,146.507736 348.258362,146.615189 347.368591,150.064194 
	C346.897797,150.045349 346.427032,150.026505 345.870941,149.267349 
	C344.913025,145.515564 343.955078,141.763763 342.471619,137.524994 
	C339.234711,137.103546 335.997772,136.682098 332.276306,136.345169 
	C332.276306,136.345169 331.952209,136.715164 331.221313,136.779739 
	C324.446198,140.270752 319.807068,150.660995 322.070740,157.778229 
	C322.518677,159.186600 323.726959,160.920334 324.996277,161.389008 
	C328.210266,162.575684 331.658203,163.128662 335.735352,163.960724 
	C339.281464,162.481750 342.923065,161.108368 344.489258,156.857056 
	C345.393555,157.168350 346.297821,157.479645 347.171570,158.670761 
	C345.727905,164.799179 349.551819,166.907776 354.440521,168.250244 
	C357.654297,169.132782 360.385681,170.407883 360.013275,174.575424 
	C359.196075,183.720810 363.839203,190.726059 369.287048,197.308044 
	C372.637726,201.356232 379.834656,201.809509 382.896271,198.489548 
	C388.747864,192.144135 391.716278,184.669983 392.130829,175.658844 
	C392.275543,175.379868 392.483582,175.161148 392.899933,175.841782 
	C394.054871,192.180084 395.209808,208.518402 395.949829,225.454361 
	C393.423340,231.331757 389.381073,237.023865 388.636017,243.119019 
	C385.611633,267.861328 383.278748,292.702423 381.345062,317.557983 
	C380.323547,330.688171 378.875549,327.455688 390.979065,331.173126 
	C390.715271,334.138336 390.521973,337.111816 390.175232,340.067291 
	C388.845673,351.399445 386.268707,362.743286 386.433624,374.049561 
	C386.608673,386.049103 389.368713,398.010956 390.997192,410.927368 
	C390.990265,416.599335 390.983307,422.271301 390.882324,428.491089 
	C390.783142,428.647583 390.683960,428.804077 389.835419,429.020813 
	C386.631622,431.253998 387.485474,433.672882 389.337189,436.931946 
	C386.796967,445.601410 384.256744,454.270874 381.230713,463.555145 
	C380.737946,470.530457 380.731232,470.685028 387.367065,470.973206 
	C392.762787,471.207520 398.185425,470.826141 403.580872,471.063934 
	C408.547089,471.282776 409.755707,468.964630 408.815857,464.266998 
	C408.815857,464.266998 409.075226,463.998047 409.533661,463.675873 
	C409.404083,462.779144 409.274506,461.882446 408.980530,460.336456 
	C409.013062,459.893616 409.045563,459.450745 409.817017,458.831543 
	C411.242554,456.109833 412.892853,453.337524 408.092010,451.069305 
	C408.154144,447.052704 408.216278,443.036102 408.973450,438.820099 
	C409.235840,437.469635 409.845734,436.078094 409.691803,434.776886 
	C409.315643,431.597748 408.129944,428.464264 408.103027,425.305328 
	C408.059784,420.230347 408.688660,415.149658 409.299805,409.310181 
	C411.569031,399.297119 414.052124,389.325867 416.020477,379.253998 
	C417.061493,373.927307 417.961517,368.373871 417.594879,363.013824 
	C416.889954,352.708374 413.288513,342.510223 417.970581,331.951813 
	C422.218018,331.675568 426.465454,331.399323 430.837402,331.114960 
	C431.637512,320.849213 432.383881,311.273010 433.812378,301.277496 
	C434.566193,302.836426 435.584320,304.323730 436.029297,305.966339 
	C438.261169,314.205353 440.343109,322.485016 442.570374,331.109070 
	C444.784607,331.109070 446.878357,331.109070 449.768372,331.447205 
	C451.194427,331.628815 452.620514,331.810425 454.132751,332.742004 
	C456.969940,338.840393 456.844025,345.054810 455.469177,351.537720 
	C454.517365,356.025848 453.497406,360.874481 454.228302,365.276367 
	C456.727539,380.328217 459.987030,395.253845 462.983521,411.112000 
	C463.539948,418.385376 464.096375,425.658722 464.742218,433.696869 
	C464.226135,444.053314 463.710052,454.409729 463.043671,465.632629 
	C462.484406,469.375427 463.820160,471.198761 467.878021,471.058441 
	C473.595001,470.860748 479.328369,471.151306 485.046539,470.971832 
	C490.660553,470.795624 491.713715,468.994904 490.013123,462.201935 
	C486.964996,450.901276 483.916870,439.600647 480.885040,427.444733 
	C480.906342,421.602417 480.927643,415.760071 480.972870,409.069305 
	C482.321442,398.239075 483.814606,387.424469 484.984741,376.574982 
	C486.740265,360.297546 481.921600,344.679810 480.325897,328.181763 
	C489.303589,326.586487 489.297455,326.587250 488.221771,317.999023 
	C488.077057,316.843628 488.042786,315.674835 487.938385,314.513947 
	C485.135986,283.355225 481.678040,252.310791 471.909821,221.915588 
	C471.886108,221.588287 471.754395,221.312576 471.282593,220.261703 
	C471.398102,218.850891 471.513611,217.440063 472.241791,215.741638 
	C472.119263,213.812988 471.996735,211.884323 471.698761,209.141113 
	C471.796051,207.762039 471.893341,206.382965 472.512634,204.594391 
	C472.368408,203.403671 472.224182,202.212936 471.939331,200.102203 
	C472.113434,196.372269 472.287537,192.642334 472.821991,188.514328 
	C473.266113,187.971863 473.710236,187.429413 474.635498,187.407669 
	C477.520844,191.529510 480.180267,195.844803 483.437164,199.648468 
	C484.345764,200.709595 487.148315,200.806839 488.861115,200.404892 
	C495.431244,198.863113 503.515381,188.818512 503.980591,181.676163 
	C504.437042,174.668655 505.200378,168.157425 513.875305,166.422699 
	C515.102661,166.177277 516.403381,164.412033 516.948608,163.059372 
	C517.899475,160.700684 518.288940,158.115662 519.562378,156.004532 
	C522.290344,159.638306 524.740662,163.635971 530.789673,164.074188 
	C543.463440,161.153702 545.444153,157.793793 541.460083,145.897568 
	C541.039795,144.642609 540.720764,143.205933 539.887085,142.270157 
	C538.456604,140.664368 536.656982,139.387405 534.702881,137.481842 
	C533.990906,137.191452 533.278870,136.901077 532.101318,136.092941 
	C528.161499,137.080032 524.221619,138.067123 519.983643,139.751602 
	C519.306580,143.219833 518.629517,146.688065 517.251709,149.923706 
	C515.413452,149.044327 513.383057,147.172379 511.775238,147.483566 
	C507.933563,148.227097 504.179962,149.761398 500.602356,151.429962 
	C497.609650,152.825760 493.649139,153.659607 493.407471,158.306137 
	C493.239075,158.278122 493.070679,158.250107 492.985321,157.327896 
	C492.994080,150.907715 492.857208,144.483276 493.044189,138.068283 
	C493.361542,127.181450 489.047150,119.072968 479.051025,114.439941 
	C471.251434,110.824966 463.309143,107.517815 454.664459,103.809685 
	C453.103333,103.397331 451.542206,102.984978 449.556213,102.072296 
	C448.197418,100.989204 445.797363,100.025169 445.657562,98.802704 
	C445.002808,93.076035 441.862244,87.525757 444.609558,81.475288 
	C446.543976,77.215195 447.866150,72.671280 449.361725,68.220497 
	C449.999695,66.321823 450.745209,64.188278 447.643219,62.978127 
	C448.071442,61.204010 448.606598,59.447960 448.909882,57.652737 
	C450.449707,48.538052 450.134827,40.312778 440.939789,34.589825 
	C433.545013,29.987358 419.449890,29.952034 413.666046,35.444992 
	C407.736145,41.076607 405.992981,56.366219 409.706512,64.171509 
	C407.642212,68.864532 410.514221,72.480690 412.534515,76.143166 
	C416.831085,83.932144 415.685242,96.546867 409.175018,103.002945 
	C407.741821,103.660667 406.308624,104.318390 404.174194,105.074905 
	C398.452942,107.713455 392.618439,110.134239 387.035431,113.038544 
	C377.191772,118.159233 370.934448,125.625122 371.870819,137.571960 
	C372.246582,142.366638 372.159149,147.197601 372.100769,152.753555 
	C372.399445,153.917038 372.698090,155.080521 372.894165,156.884521 
z"/>
<path fill="#191919" opacity="1.000000" stroke="none" 
	d="
M391.032318,330.312500 
	C378.875549,327.455688 380.323547,330.688171 381.345062,317.557983 
	C383.278748,292.702423 385.611633,267.861328 388.636017,243.119019 
	C389.381073,237.023865 393.423340,231.331757 396.497375,225.220032 
	C397.731140,225.066071 398.417328,225.146423 399.376221,225.457291 
	C416.151855,230.097687 432.818787,231.658478 449.644623,227.916168 
	C455.198517,226.680893 460.570984,224.630005 466.355896,222.784485 
	C468.146149,222.379730 469.606964,222.142548 471.242859,222.056610 
	C471.417969,222.207855 471.847748,222.379410 471.847748,222.379410 
	C481.678040,252.310791 485.135986,283.355225 487.938385,314.513947 
	C488.042786,315.674835 488.077057,316.843628 488.221771,317.999023 
	C489.297455,326.587250 489.303589,326.586487 479.700623,328.541565 
	C470.732452,329.931549 462.389496,330.961792 454.046570,331.992035 
	C452.620514,331.810425 451.194427,331.628815 449.261017,330.954224 
	C447.237854,323.705963 445.776733,316.937744 444.190338,310.199066 
	C442.709686,303.909485 441.298401,297.715698 449.022339,294.225525 
	C449.149628,294.168030 449.063721,293.638702 449.077271,293.330566 
	C436.022125,292.012634 434.884979,292.609985 433.130249,301.696808 
	C432.383881,311.273010 431.637512,320.849213 430.837402,331.114960 
	C426.465454,331.399323 422.218018,331.675568 417.072083,331.929565 
	C407.793152,331.375702 399.412750,330.844086 391.032318,330.312500 
z"/>
<path fill="#191919" opacity="1.000000" stroke="none" 
	d="
M237.299347,282.359344 
	C238.733963,296.577942 240.168579,310.796509 241.655746,325.535950 
	C238.976440,326.432648 236.180893,327.368286 232.710175,328.549500 
	C224.635544,329.679047 217.236099,330.563049 209.673676,331.357666 
	C209.052933,331.346558 208.595154,331.424805 207.846542,331.639893 
	C207.359360,331.862610 207.163025,331.948425 206.966705,332.034241 
	C205.224091,331.826630 203.481476,331.619049 201.372437,330.850555 
	C199.397919,322.887360 197.812912,315.479980 196.174133,308.084503 
	C194.940094,302.515533 194.238037,297.219940 201.425217,295.034332 
	C202.458954,294.719971 203.409485,294.131897 204.398529,293.670502 
	C200.538345,292.757141 197.766342,292.967834 194.993088,292.985504 
	C187.213715,293.035065 187.213516,293.003662 186.943054,301.147827 
	C185.986313,308.028198 184.963089,314.900269 184.104248,321.792816 
	C183.741150,324.706848 183.723831,327.663971 183.517853,331.131409 
	C179.089859,331.413055 175.015091,331.672211 170.043213,331.914337 
	C160.746536,331.393677 152.346970,330.890076 143.947388,330.386444 
	C133.281616,328.361176 133.247940,328.359528 133.782013,317.346375 
	C134.394394,304.718567 135.074371,292.094025 135.754745,278.916504 
	C135.833344,278.187714 135.823257,278.018005 135.945145,277.635742 
	C138.224564,272.544800 141.534485,267.912262 139.121796,261.718079 
	C139.264664,259.001129 139.398361,256.727356 139.581192,254.039581 
	C140.007431,243.099991 142.266174,233.190323 149.338776,224.850952 
	C149.767761,225.008392 149.934021,225.085327 150.369812,225.412781 
	C165.547424,228.717239 180.476151,231.765091 195.788025,228.968521 
	C203.330780,227.590927 211.326355,227.789246 218.313156,222.886719 
	C220.337265,222.449692 222.032822,222.177383 223.912048,222.247498 
	C226.757294,232.694733 229.418869,242.799561 231.902390,253.214935 
	C230.240326,256.623779 228.756302,259.722107 227.195526,263.221497 
	C228.075989,267.275604 228.758743,271.034363 230.107208,274.536774 
	C230.773148,276.266388 232.667450,277.523041 234.183258,279.281891 
	C235.340149,280.499847 236.319748,281.429596 237.299347,282.359344 
z"/>
<path fill="#1B74BA" opacity="1.000000" stroke="none" 
	d="
M150.100266,225.162247 
	C149.934021,225.085327 149.767761,225.008392 149.272049,224.407745 
	C147.844910,208.670303 146.747238,193.456543 145.720047,177.817993 
	C145.203079,169.630081 144.615631,161.866974 144.329407,153.953949 
	C145.846252,151.977676 147.061859,150.151352 148.541809,148.099396 
	C157.285965,134.673035 158.990601,120.111900 157.435394,104.896248 
	C158.743942,104.256599 160.052490,103.616943 161.774109,103.373138 
	C162.754105,109.355331 162.804398,115.055008 163.999802,120.503464 
	C166.218674,130.616913 173.905090,135.575104 185.206635,134.972214 
	C194.206299,134.492096 200.837906,128.086090 201.966705,118.286507 
	C202.571808,113.033318 202.544876,107.707321 202.803162,102.414185 
	C204.299911,102.903343 205.796646,103.392494 207.646866,104.458153 
	C207.972519,108.169022 207.951904,111.303459 207.915588,114.437721 
	C207.781158,126.038040 211.312027,136.143570 220.139374,144.438965 
	C222.444702,146.548309 224.624786,148.362732 226.850388,150.623108 
	C226.790054,154.227127 226.705322,157.386108 226.574677,160.543182 
	C226.045761,173.323624 225.502731,186.103485 224.602844,199.134308 
	C224.069977,206.891724 223.899170,214.398407 223.728363,221.905090 
	C222.032822,222.177383 220.337265,222.449692 217.881897,222.848114 
	C204.730972,224.028961 192.356659,225.529739 179.943451,225.997269 
	C170.020279,226.370972 160.049759,225.487640 150.100266,225.162247 
z"/>
<path fill="#1B74BA" opacity="1.000000" stroke="none" 
	d="
M471.067780,221.905365 
	C469.606964,222.142548 468.146149,222.379730 465.912720,222.757706 
	C451.089905,223.975357 437.053955,225.360199 422.984039,226.008942 
	C415.052765,226.374649 407.065552,225.527542 399.103546,225.226776 
	C398.417328,225.146423 397.731140,225.066071 396.704834,224.921204 
	C395.209808,208.518402 394.054871,192.180084 392.871643,175.019165 
	C394.610748,166.955017 397.393250,159.750824 393.803833,151.980743 
	C394.603271,150.466934 395.247650,149.278854 396.147888,147.851044 
	C405.090393,134.564514 405.924469,119.957397 404.875427,104.976105 
	C406.308624,104.318390 407.741821,103.660667 409.503845,103.437271 
	C410.230103,109.161667 410.127899,114.548645 411.131226,119.721191 
	C413.087708,129.807404 420.178223,135.008911 430.874512,134.993423 
	C440.643341,134.979279 447.164062,129.963257 448.999634,119.938042 
	C450.035706,114.279358 449.699280,108.369400 449.981079,102.572624 
	C451.542206,102.984978 453.103333,103.397331 454.994415,104.395935 
	C453.418671,122.683662 457.900970,137.857986 472.632141,149.046936 
	C473.473907,149.686264 473.861328,150.923737 474.105133,151.941147 
	C472.879730,152.654114 472.009399,153.308792 470.947632,154.296371 
	C466.390259,162.389175 471.376251,169.126633 473.087097,176.620483 
	C473.059906,178.360779 473.062256,179.699509 472.943085,181.406982 
	C472.701569,184.154633 472.581604,186.533508 472.461639,188.912399 
	C472.287537,192.642334 472.113434,196.372269 471.865997,200.819931 
	C471.858643,202.693069 471.924622,203.848480 471.990601,205.003891 
	C471.893341,206.382965 471.796051,207.762039 471.615906,209.887436 
	C471.565094,212.432251 471.597076,214.230759 471.629089,216.029251 
	C471.513611,217.440063 471.398102,218.850891 471.274597,220.872528 
	C471.266571,221.483368 471.067780,221.905350 471.067780,221.905365 
z"/>
<path fill="#FACBA7" opacity="1.000000" stroke="none" 
	d="
M157.120941,104.980850 
	C158.990601,120.111900 157.285965,134.673035 148.238419,147.842560 
	C146.882736,145.555725 146.094788,143.300095 145.210327,140.768250 
	C142.984314,145.240082 142.047150,149.535278 144.028168,154.103867 
	C144.615631,161.866974 145.203079,169.630081 145.543091,178.118622 
	C142.191223,197.187103 138.918365,215.323608 128.496368,231.514359 
	C123.033058,240.001709 117.379288,248.985001 117.693314,260.236176 
	C116.889030,263.018585 116.346497,265.533386 115.803955,268.048218 
	C111.227654,269.136841 106.465912,270.830231 102.059135,268.312103 
	C98.656273,266.367645 95.814598,263.441101 92.453766,260.518066 
	C92.963333,257.722412 93.742554,255.359940 94.521782,252.997452 
	C95.608627,252.156662 96.760033,251.385635 97.764755,250.456070 
	C98.838463,249.462646 99.660820,247.536758 100.788544,247.374084 
	C106.419373,246.561783 107.017921,242.172638 107.986099,238.006073 
	C111.394608,223.337616 112.677612,207.733658 118.683578,194.226074 
	C125.641426,178.577637 123.566551,162.821793 125.005585,147.062286 
	C125.382225,142.937622 124.937416,138.743729 125.179054,134.599655 
	C125.609222,127.222389 129.622772,121.872948 135.609695,118.024834 
	C142.574478,113.548187 149.732376,109.372025 157.120941,104.980850 
M129.619186,188.150284 
	C131.996063,191.706970 134.567093,191.434433 137.207718,189.789825 
	C137.243500,189.268448 137.279282,188.747070 137.315063,188.225708 
	C134.663315,187.984543 132.011566,187.743378 129.619186,188.150284 
z"/>
<path fill="#FACBA7" opacity="1.000000" stroke="none" 
	d="
M220.014130,144.144043 
	C211.312027,136.143570 207.781158,126.038040 207.915588,114.437721 
	C207.951904,111.303459 207.972519,108.169022 208.020691,104.579208 
	C214.376205,107.661385 220.746017,111.139008 227.029053,114.766945 
	C229.457169,116.168976 231.696777,117.899872 234.007843,119.501762 
	C241.615875,124.775169 242.686798,132.785706 242.875687,141.075302 
	C243.044662,148.490784 242.973236,155.911606 243.023041,163.329971 
	C243.088150,173.029114 243.740784,182.060852 248.062515,191.604828 
	C253.484863,203.579376 254.882309,217.378220 257.998627,230.394073 
	C258.807800,233.773834 259.671570,237.147736 260.287933,240.564453 
	C260.933807,244.144958 262.439392,246.271011 266.351196,247.309433 
	C268.411102,247.856262 269.806396,250.906799 271.898499,253.386017 
	C272.525726,255.996475 272.756226,258.047729 272.986725,260.098999 
	C273.708313,263.397797 272.213409,265.711578 269.283234,266.703186 
	C264.404419,268.354218 259.547699,272.324493 253.939850,266.978271 
	C252.324020,264.528839 254.194901,260.552368 249.778900,260.612305 
	C249.395950,260.130371 249.124969,259.890808 248.856934,259.666412 
	C248.859894,259.681580 248.842484,259.715790 248.914215,259.223145 
	C249.707687,252.740555 248.082809,247.407059 245.130081,242.168365 
	C240.191925,233.407104 235.436340,224.521881 231.092728,215.454651 
	C228.559265,210.166077 226.975784,204.422455 224.964890,198.883560 
	C225.502731,186.103485 226.045761,173.323624 226.574677,160.543182 
	C226.705322,157.386108 226.790054,154.227127 226.901794,150.231827 
	C225.483948,145.738388 224.060196,142.082138 222.636444,138.425903 
	C222.288895,138.569580 221.941345,138.713242 221.593796,138.856903 
	C221.067245,140.619293 220.540680,142.381668 220.014130,144.144043 
z"/>
<path fill="#FACAA7" opacity="1.000000" stroke="none" 
	d="
M202.543610,102.236450 
	C202.544876,107.707321 202.571808,113.033318 201.966705,118.286507 
	C200.837906,128.086090 194.206299,134.492096 185.206635,134.972214 
	C173.905090,135.575104 166.218674,130.616913 163.999802,120.503464 
	C162.804398,115.055008 162.754105,109.355331 162.133591,103.305946 
	C170.329254,97.854622 166.647034,89.889946 166.687149,83.048805 
	C166.704147,80.151329 164.487839,77.304794 163.732925,74.322136 
	C162.838287,70.787254 162.425125,67.130524 162.306305,63.312809 
	C163.384125,63.792030 163.958939,64.485031 165.132996,65.900490 
	C165.132996,61.420296 165.096603,57.827621 165.144104,54.236053 
	C165.184784,51.160755 165.294693,47.920887 169.373077,47.534340 
	C175.969467,46.909138 182.581909,46.272385 189.199036,46.111549 
	C193.490997,46.007233 195.656525,48.682552 196.122787,53.019268 
	C196.542175,56.919964 197.436401,60.769608 198.121185,64.641769 
	C198.429871,64.608902 198.738556,64.576042 199.047256,64.543175 
	C199.549606,63.351879 200.051941,62.160583 200.554291,60.969292 
	C203.135056,66.571709 201.052780,71.343346 198.336212,76.310738 
	C195.088654,82.249069 195.913086,88.639931 197.407959,95.009140 
	C198.135345,98.108299 198.309372,101.320587 202.543610,102.236450 
M174.206711,93.441147 
	C174.401596,93.732582 174.670334,93.915581 175.100723,94.767639 
	C178.199310,97.815041 184.425964,97.923515 188.286194,94.887413 
	C188.193680,94.928551 188.101151,94.969696 187.194702,95.014565 
	C183.126801,94.680458 179.058899,94.346352 174.781845,93.565102 
	C174.580750,93.286499 174.314362,93.102356 173.776810,92.565208 
	C173.580795,92.281799 173.315750,92.097855 172.887146,91.731148 
	C172.806580,91.676826 172.726028,91.622505 172.645462,91.568176 
	C172.768005,91.706062 172.890549,91.843941 173.215714,92.432274 
	C173.410385,92.718666 173.676147,92.902039 174.206711,93.441147 
M171.583023,89.529648 
	C171.583023,89.529648 171.467651,89.601242 171.583023,89.529648 
M191.482880,90.584694 
	C191.482880,90.584694 191.427292,90.482132 191.482880,90.584694 
M190.579193,92.505180 
	C190.579193,92.505180 190.462616,92.574043 190.579193,92.505180 
z"/>
<path fill="#FACAA7" opacity="1.000000" stroke="none" 
	d="
M449.768677,102.322464 
	C449.699280,108.369400 450.035706,114.279358 448.999634,119.938042 
	C447.164062,129.963257 440.643341,134.979279 430.874512,134.993423 
	C420.178223,135.008911 413.087708,129.807404 411.131226,119.721191 
	C410.127899,114.548645 410.230103,109.161667 409.845154,103.396454 
	C415.685242,96.546867 416.831085,83.932144 412.534515,76.143166 
	C410.514221,72.480690 407.642212,68.864532 410.354675,64.106270 
	C411.453400,64.444328 411.903992,64.847618 412.866943,65.709480 
	C412.866943,61.164078 412.877747,57.219296 412.863708,53.274597 
	C412.851349,49.793419 414.183472,47.692585 418.008423,47.400852 
	C421.797974,47.111816 425.547546,46.047573 429.329407,45.960194 
	C438.177826,45.755753 444.400757,44.442554 444.123810,57.355495 
	C444.076843,59.545906 445.325592,61.770748 446.065704,63.949116 
	C446.098083,64.044388 447.033020,63.832996 447.547546,63.764450 
	C450.745209,64.188278 449.999695,66.321823 449.361725,68.220497 
	C447.866150,72.671280 446.543976,77.215195 444.609558,81.475288 
	C441.862244,87.525757 445.002808,93.076035 445.657562,98.802704 
	C445.797363,100.025169 448.197418,100.989204 449.768677,102.322464 
M437.271149,93.879349 
	C437.186066,93.923553 437.100983,93.967758 436.552185,94.198357 
	C436.261200,94.396637 436.080536,94.668297 435.195892,95.016739 
	C431.127625,94.681824 427.059387,94.346916 422.787659,93.561127 
	C422.587921,93.279488 422.320770,93.095863 421.915649,92.452316 
	C421.615265,92.129677 421.314880,91.807037 421.014496,91.484413 
	C420.843048,91.688141 420.671631,91.891869 420.500183,92.095596 
	C421.003693,92.392326 421.507202,92.689064 422.200592,93.446777 
	C422.398895,93.736015 422.669556,93.917244 423.105957,94.767014 
	C426.190887,97.815453 432.427460,97.923668 436.438965,94.787888 
	C436.720581,94.587479 436.903778,94.319717 437.271149,93.879349 
M439.252136,90.878922 
	C439.173920,90.923409 439.095673,90.967888 438.750366,91.123398 
	C438.829285,91.076385 438.908173,91.029366 439.252136,90.878922 
M419.113708,89.250175 
	C419.187012,89.304459 419.260315,89.358749 419.333618,89.413040 
	C419.217316,89.278915 419.101044,89.144783 418.870789,88.766296 
	C418.800690,88.717117 418.730560,88.667938 418.660461,88.618767 
	C418.777252,88.740837 418.894043,88.862900 419.113708,89.250175 
M440.517548,88.436104 
	C440.517548,88.436104 440.567444,88.529724 440.517548,88.436104 
z"/>
<path fill="#FCCCA7" opacity="1.000000" stroke="none" 
	d="
M454.089661,332.367004 
	C462.389496,330.961792 470.732452,329.931549 479.471375,328.843109 
	C481.921600,344.679810 486.740265,360.297546 484.984741,376.574982 
	C483.814606,387.424469 482.321442,398.239075 480.499695,409.536865 
	C474.336517,410.078827 468.646515,410.153198 462.956512,410.227600 
	C459.987030,395.253845 456.727539,380.328217 454.228302,365.276367 
	C453.497406,360.874481 454.517365,356.025848 455.469177,351.537720 
	C456.844025,345.054810 456.969940,338.840393 454.089661,332.367004 
z"/>
<path fill="#FCCCA7" opacity="1.000000" stroke="none" 
	d="
M209.836655,331.447021 
	C217.236099,330.563049 224.635544,329.679047 232.432800,328.791321 
	C234.249344,338.442871 236.510483,348.066772 236.871399,357.761475 
	C237.312164,369.600464 236.261398,381.504333 235.638443,393.368713 
	C235.413818,397.646881 234.560135,401.892029 233.742813,406.791687 
	C233.356339,408.299957 233.220566,409.168762 233.084793,410.037598 
	C233.084793,410.037598 233.024307,410.027130 232.561218,410.044830 
	C226.393326,410.057129 220.688522,410.051758 214.983719,410.046387 
	C212.995880,401.175140 211.396088,392.194061 208.923767,383.459961 
	C205.703552,372.083710 207.514099,360.778534 208.054489,349.382874 
	C208.314774,343.894012 207.392471,338.349060 206.986206,332.431885 
	C207.163025,331.948425 207.359360,331.862610 208.127853,331.732422 
	C209.078888,331.607758 209.457764,331.527374 209.836655,331.447021 
z"/>
<path fill="#FCCCA7" opacity="1.000000" stroke="none" 
	d="
M391.005676,330.742798 
	C399.412750,330.844086 407.793152,331.375702 416.627930,332.019836 
	C413.288513,342.510223 416.889954,352.708374 417.594879,363.013824 
	C417.961517,368.373871 417.061493,373.927307 416.020477,379.253998 
	C414.052124,389.325867 411.569031,399.297119 408.695190,409.687744 
	C402.393677,410.039978 396.696777,410.014618 390.999908,409.989258 
	C389.368713,398.010956 386.608673,386.049103 386.433624,374.049561 
	C386.268707,362.743286 388.845673,351.399445 390.175232,340.067291 
	C390.521973,337.111816 390.715271,334.138336 391.005676,330.742798 
z"/>
<path fill="#FCCCA7" opacity="1.000000" stroke="none" 
	d="
M143.915924,330.782837 
	C152.346970,330.890076 160.746536,331.393677 169.602249,332.002075 
	C166.353516,339.965454 167.912979,348.133667 169.217651,356.069336 
	C170.987747,366.835907 169.546600,377.122437 166.740005,387.464233 
	C164.752289,394.788635 163.280075,402.252899 160.844879,409.893311 
	C154.441284,410.027313 148.770569,409.922760 143.099854,409.818176 
	C142.043015,400.800812 141.154999,391.759644 139.888885,382.771759 
	C138.088226,369.989136 138.804688,357.409302 141.790146,344.866730 
	C142.855331,340.391602 143.207077,335.746674 143.915924,330.782837 
z"/>
<path fill="#F9CAA6" opacity="1.000000" stroke="none" 
	d="
M474.460175,151.882858 
	C473.861328,150.923737 473.473907,149.686264 472.632141,149.046936 
	C457.900970,137.857986 453.418671,122.683662 455.377319,104.528030 
	C463.309143,107.517815 471.251434,110.824966 479.051025,114.439941 
	C489.047150,119.072968 493.361542,127.181450 493.044189,138.068283 
	C492.857208,144.483276 492.994080,150.907715 492.596558,157.673126 
	C490.464752,156.403854 488.721680,154.789322 486.628571,153.093262 
	C482.728241,148.560989 478.480896,151.408295 474.460175,151.882858 
z"/>
<path fill="#FACBA7" opacity="1.000000" stroke="none" 
	d="
M404.524811,105.025497 
	C405.924469,119.957397 405.090393,134.564514 395.794922,147.815643 
	C393.251312,146.939072 391.316467,145.858139 389.325806,144.746048 
	C389.535034,147.117172 389.746857,149.517807 389.590698,151.905548 
	C385.792053,150.936111 382.327179,148.986069 378.731689,152.240753 
	C377.438049,152.564560 376.454590,152.891327 375.144714,153.087311 
	C373.973022,152.641693 373.127777,152.326874 372.282532,152.012054 
	C372.159149,147.197601 372.246582,142.366638 371.870819,137.571960 
	C370.934448,125.625122 377.191772,118.159233 387.035431,113.038544 
	C392.618439,110.134239 398.452942,107.713455 404.524811,105.025497 
z"/>
<path fill="#F9CAA6" opacity="1.000000" stroke="none" 
	d="
M473.064636,181.038223 
	C473.062256,179.699509 473.059906,178.360779 473.410004,176.663269 
	C475.383820,176.983032 477.005157,177.661606 478.907135,178.618530 
	C483.499603,177.681763 487.811432,176.466629 492.290894,175.090973 
	C492.671570,174.653641 492.695129,174.361603 492.656982,173.682297 
	C492.828156,172.528564 492.871643,171.746872 493.145203,170.661163 
	C493.555969,166.356110 493.736664,162.355087 493.917358,158.354065 
	C493.649139,153.659607 497.609650,152.825760 500.602356,151.429962 
	C504.179962,149.761398 507.933563,148.227097 511.775238,147.483566 
	C513.383057,147.172379 515.413452,149.044327 517.635498,150.402100 
	C518.317444,152.462158 518.615540,154.043823 518.913696,155.625488 
	C518.288940,158.115662 517.899475,160.700684 516.948608,163.059372 
	C516.403381,164.412033 515.102661,166.177277 513.875305,166.422699 
	C505.200378,168.157425 504.437042,174.668655 503.980591,181.676163 
	C503.515381,188.818512 495.431244,198.863113 488.861115,200.404892 
	C487.148315,200.806839 484.345764,200.709595 483.437164,199.648468 
	C480.180267,195.844803 477.520844,191.529510 474.370270,186.759521 
	C473.758240,184.420334 473.411438,182.729279 473.064636,181.038223 
z"/>
<path fill="#F9CAA6" opacity="1.000000" stroke="none" 
	d="
M391.916901,176.066803 
	C391.716278,184.669983 388.747864,192.144135 382.896271,198.489548 
	C379.834656,201.809509 372.637726,201.356232 369.287048,197.308044 
	C363.839203,190.726059 359.196075,183.720810 360.013275,174.575424 
	C360.385681,170.407883 357.654297,169.132782 354.440521,168.250244 
	C349.551819,166.907776 345.727905,164.799179 347.402832,157.977203 
	C347.781281,154.902222 347.928497,152.520798 348.075714,150.139374 
	C348.258362,146.615189 350.727020,146.507736 353.052948,147.304855 
	C357.498566,148.828491 361.935730,150.504974 366.107452,152.642853 
	C368.058105,153.642502 369.382416,155.864304 370.862091,158.261658 
	C371.161072,163.325485 371.588531,167.659851 371.994659,172.390350 
	C373.061646,176.542847 381.419006,179.723724 386.581116,178.131805 
	C388.579285,177.384033 390.248108,176.725418 391.916901,176.066803 
z"/>
<path fill="#1D76BB" opacity="1.000000" stroke="none" 
	d="
M480.868744,428.299988 
	C483.916870,439.600647 486.964996,450.901276 489.969910,462.959900 
	C488.775055,464.775452 487.648163,466.714874 486.467743,466.747955 
	C478.656799,466.967133 470.645111,468.850403 463.194000,464.766174 
	C463.710052,454.409729 464.226135,444.053314 464.817383,432.928406 
	C465.763275,430.150909 466.114502,427.498474 467.623566,426.279938 
	C470.037659,424.330597 478.298981,426.019806 480.868744,428.299988 
z"/>
<path fill="#1D76BB" opacity="1.000000" stroke="none" 
	d="
M161.511627,461.044800 
	C161.400208,462.091888 161.288773,463.138977 160.680298,464.642090 
	C151.655380,468.405334 143.072067,468.051605 134.455292,465.487701 
	C135.167450,461.494171 135.657227,457.445068 136.638199,453.518707 
	C138.665817,445.403107 140.955032,437.352905 143.472275,428.623779 
	C146.854843,427.223633 149.867676,426.249359 152.957199,425.783295 
	C157.039246,425.167511 159.068024,427.120972 159.260513,431.342285 
	C159.336334,433.005127 160.317368,434.626709 160.886200,436.267059 
	C161.018661,443.847321 161.151123,451.427612 161.275970,459.754456 
	C161.349457,460.682281 161.430542,460.863556 161.511627,461.044800 
z"/>
<path fill="#1D76BB" opacity="1.000000" stroke="none" 
	d="
M215.957977,464.993500 
	C215.972000,455.662933 215.986008,446.332397 216.321640,436.294250 
	C217.044662,433.664001 217.236954,431.663422 217.915283,429.844055 
	C218.433838,428.453217 219.577530,426.204376 220.425552,426.212341 
	C224.569717,426.251221 228.707977,426.919250 232.848328,427.364807 
	C232.848328,427.364807 232.890808,427.744385 233.043030,428.135773 
	C233.435471,428.758789 233.675690,428.990448 233.915909,429.222076 
	C236.624115,439.227539 239.332321,449.233002 242.064911,459.858948 
	C242.224777,460.777222 242.360260,461.075012 242.495743,461.372833 
	C242.574707,462.260468 242.653671,463.148071 242.389771,464.541595 
	C233.343002,468.697083 224.647858,468.113159 215.957977,464.993500 
z"/>
<path fill="#1D76BB" opacity="1.000000" stroke="none" 
	d="
M408.278381,439.019501 
	C408.216278,443.036102 408.154144,447.052704 408.125183,451.914795 
	C408.464935,454.842834 408.771515,456.925385 409.078125,459.007904 
	C409.045563,459.450745 409.013062,459.893616 408.979340,461.031616 
	C409.010498,462.483887 409.042877,463.240967 409.075226,463.998047 
	C409.075226,463.998047 408.815857,464.266998 408.405060,464.580200 
	C400.464233,468.961182 392.453583,467.020233 384.614746,466.527924 
	C383.577637,466.462799 382.679169,464.190430 381.716492,462.940338 
	C384.256744,454.270874 386.796967,445.601410 389.599121,436.221863 
	C390.102264,433.328033 390.343506,431.144318 390.584778,428.960602 
	C390.683960,428.804077 390.783142,428.647583 391.255676,428.000641 
	C399.153778,422.892273 405.461426,425.491913 406.988678,433.801544 
	C407.311951,435.560455 407.843048,437.281189 408.278381,439.019501 
z"/>
<path fill="#302F2E" opacity="1.000000" stroke="none" 
	d="
M447.595398,63.371292 
	C447.033020,63.832996 446.098083,64.044388 446.065704,63.949116 
	C445.325592,61.770748 444.076843,59.545906 444.123810,57.355495 
	C444.400757,44.442554 438.177826,45.755753 429.329407,45.960194 
	C425.547546,46.047573 421.797974,47.111816 418.008423,47.400852 
	C414.183472,47.692585 412.851349,49.793419 412.863708,53.274597 
	C412.877747,57.219296 412.866943,61.164078 412.866943,65.709480 
	C411.903992,64.847618 411.453400,64.444328 410.719482,63.908295 
	C405.992981,56.366219 407.736145,41.076607 413.666046,35.444992 
	C419.449890,29.952034 433.545013,29.987358 440.939789,34.589825 
	C450.134827,40.312778 450.449707,48.538052 448.909882,57.652737 
	C448.606598,59.447960 448.071442,61.204010 447.595398,63.371292 
z"/>
<path fill="#302F2E" opacity="1.000000" stroke="none" 
	d="
M200.645874,60.538292 
	C200.051941,62.160583 199.549606,63.351879 199.047256,64.543175 
	C198.738556,64.576042 198.429871,64.608902 198.121185,64.641769 
	C197.436401,60.769608 196.542175,56.919964 196.122787,53.019268 
	C195.656525,48.682552 193.490997,46.007233 189.199036,46.111549 
	C182.581909,46.272385 175.969467,46.909138 169.373077,47.534340 
	C165.294693,47.920887 165.184784,51.160755 165.144104,54.236053 
	C165.096603,57.827621 165.132996,61.420296 165.132996,65.900490 
	C163.958939,64.485031 163.384125,63.792030 162.519745,62.976597 
	C159.211365,53.696304 159.079239,44.427711 165.275558,36.837631 
	C169.752106,31.354132 177.287094,29.826527 184.008209,31.292049 
	C198.537262,34.460068 205.223160,42.151634 200.645874,60.538292 
z"/>
<path fill="#414141" opacity="1.000000" stroke="none" 
	d="
M519.238037,155.815002 
	C518.615540,154.043823 518.317444,152.462158 517.985962,150.518402 
	C518.629517,146.688065 519.306580,143.219833 520.485718,139.450439 
	C524.847534,138.303085 528.707214,137.456894 532.566895,136.610687 
	C533.278870,136.901077 533.990906,137.191452 534.880554,138.094849 
	C536.546875,142.429138 538.035583,146.150421 539.622437,150.117020 
	C535.278870,151.470825 531.861084,152.536072 528.369873,153.624237 
	C528.927795,157.178818 529.460083,160.570175 529.992432,163.961517 
	C524.740662,163.635971 522.290344,159.638306 519.238037,155.815002 
z"/>
<path fill="#414141" opacity="1.000000" stroke="none" 
	d="
M342.997162,138.011978 
	C343.955078,141.763763 344.913025,145.515564 345.642883,149.862854 
	C344.875336,152.529877 344.335815,154.601395 343.796265,156.672913 
	C342.923065,161.108368 339.281464,162.481750 335.364502,163.524750 
	C335.335632,159.908279 335.677673,156.727768 336.003418,153.698624 
	C331.987549,152.464569 328.708466,151.456924 324.240936,150.084091 
	C326.973633,145.346451 329.462921,141.030807 331.952209,136.715179 
	C331.952209,136.715164 332.276306,136.345169 332.681488,136.674896 
	C336.283051,138.394241 339.343781,141.118423 342.997162,138.011978 
z"/>
<path fill="#3C3C3C" opacity="1.000000" stroke="none" 
	d="
M392.023865,175.862823 
	C390.248108,176.725418 388.579285,177.384033 386.253662,177.853668 
	C386.343109,170.091873 381.969513,167.563477 375.341370,167.243256 
	C374.851349,167.219589 374.365692,167.105942 373.899170,166.651245 
	C375.580902,162.451767 377.241425,158.635162 379.315857,154.875732 
	C381.664551,155.304840 383.672577,155.463043 385.518097,156.095398 
	C388.861145,157.240829 390.816345,155.979584 392.227631,152.869385 
	C392.843781,152.635925 393.246277,152.471191 393.648804,152.306458 
	C397.393250,159.750824 394.610748,166.955017 392.799133,174.599609 
	C392.483582,175.161148 392.275543,175.379868 392.023865,175.862823 
z"/>
<path fill="#3C3C3C" opacity="1.000000" stroke="none" 
	d="
M273.397369,260.037537 
	C272.756226,258.047729 272.525726,255.996475 272.193542,253.591705 
	C272.946442,250.380249 273.801025,247.522308 275.106873,244.569946 
	C275.878387,245.780273 276.198608,247.085022 276.560120,248.558060 
	C279.360077,247.420837 281.699554,246.114700 284.205841,245.552933 
	C286.705902,244.992554 289.373169,245.178192 291.982239,245.437714 
	C292.707153,249.226593 293.416962,252.614502 293.805176,256.137207 
	C290.527863,257.926605 287.451416,259.404327 284.664612,261.306427 
	C283.154022,262.337463 282.136963,264.091644 280.897278,265.519623 
	C278.534180,263.671783 276.171112,261.823944 273.397369,260.037537 
z"/>
<path fill="#F1F3F4" opacity="1.000000" stroke="none" 
	d="
M160.923523,435.780365 
	C160.317368,434.626709 159.336334,433.005127 159.260513,431.342285 
	C159.068024,427.120972 157.039246,425.167511 152.957199,425.783295 
	C149.867676,426.249359 146.854843,427.223633 143.496277,428.232178 
	C143.133728,422.592163 143.082779,416.691681 143.065842,410.304688 
	C148.770569,409.922760 154.441284,410.027313 160.581635,410.203430 
	C161.021149,418.614563 160.990997,426.954102 160.923523,435.780365 
z"/>
<path fill="#F1F3F4" opacity="1.000000" stroke="none" 
	d="
M408.625916,438.919800 
	C407.843048,437.281189 407.311951,435.560455 406.988678,433.801544 
	C405.461426,425.491913 399.153778,422.892273 391.302673,427.726746 
	C390.983307,422.271301 390.990265,416.599335 390.998535,410.458313 
	C396.696777,410.014618 402.393677,410.039978 408.562012,410.068359 
	C408.688660,415.149658 408.059784,420.230347 408.103027,425.305328 
	C408.129944,428.464264 409.315643,431.597748 409.691803,434.776886 
	C409.845734,436.078094 409.235840,437.469635 408.625916,438.919800 
z"/>
<path fill="#0B0B0C" opacity="1.000000" stroke="none" 
	d="
M433.471313,301.487152 
	C434.884979,292.609985 436.022125,292.012634 449.077271,293.330566 
	C449.063721,293.638702 449.149628,294.168030 449.022339,294.225525 
	C441.298401,297.715698 442.709686,303.909485 444.190338,310.199066 
	C445.776733,316.937744 447.237854,323.705963 448.862885,330.785156 
	C446.878357,331.109070 444.784607,331.109070 442.570374,331.109070 
	C440.343109,322.485016 438.261169,314.205353 436.029297,305.966339 
	C435.584320,304.323730 434.566193,302.836426 433.471313,301.487152 
z"/>
<path fill="#0B0B0C" opacity="1.000000" stroke="none" 
	d="
M187.088608,301.498718 
	C187.213516,293.003662 187.213715,293.035065 194.993088,292.985504 
	C197.766342,292.967834 200.538345,292.757141 204.398529,293.670502 
	C203.409485,294.131897 202.458954,294.719971 201.425217,295.034332 
	C194.238037,297.219940 194.940094,302.515533 196.174133,308.084503 
	C197.812912,315.479980 199.397919,322.887360 201.024979,330.707947 
	C199.254074,331.126282 197.464218,331.126282 195.299866,331.126282 
	C192.605896,321.347778 189.920029,311.598694 187.088608,301.498718 
z"/>
<path fill="#F1F3F4" opacity="1.000000" stroke="none" 
	d="
M232.896576,426.871857 
	C228.707977,426.919250 224.569717,426.251221 220.425552,426.212341 
	C219.577530,426.204376 218.433838,428.453217 217.915283,429.844055 
	C217.236954,431.663422 217.044662,433.664001 216.337250,435.830383 
	C216.020294,433.049255 216.116028,430.019440 215.974976,427.000641 
	C215.723923,421.628296 215.329544,416.262695 214.989410,410.470337 
	C220.688522,410.051758 226.393326,410.057129 232.570633,410.074036 
	C233.010361,415.516693 232.977600,420.947784 232.896576,426.871857 
z"/>
<path fill="#F1F3F4" opacity="1.000000" stroke="none" 
	d="
M480.876892,427.872375 
	C478.298981,426.019806 470.037659,424.330597 467.623566,426.279938 
	C466.114502,427.498474 465.763275,430.150909 464.772644,432.546021 
	C464.096375,425.658722 463.539948,418.385376 462.970032,410.669800 
	C468.646515,410.153198 474.336517,410.078827 480.487732,409.961121 
	C480.927643,415.760071 480.906342,421.602417 480.876892,427.872375 
z"/>
<path fill="#3C3C3C" opacity="1.000000" stroke="none" 
	d="
M94.397881,252.599869 
	C93.742554,255.359940 92.963333,257.722412 92.103722,260.427155 
	C90.311356,262.366608 88.599380,263.963776 86.510742,265.262512 
	C84.921394,263.646576 83.915260,262.001160 82.452873,261.080139 
	C79.436722,259.180511 76.177155,257.667419 73.056046,255.623932 
	C74.060852,251.832413 75.027344,248.412262 76.426010,244.994415 
	C81.686386,246.020157 86.514595,247.043579 91.566704,248.114456 
	C91.880302,247.682053 92.525009,246.793091 93.169708,245.904129 
	C93.537796,248.003510 93.905891,250.102905 94.397881,252.599869 
z"/>
<path fill="#5A5B5B" opacity="1.000000" stroke="none" 
	d="
M331.586761,136.747467 
	C329.462921,141.030807 326.973633,145.346451 324.240936,150.084091 
	C328.708466,151.456924 331.987549,152.464569 336.003418,153.698624 
	C335.677673,156.727768 335.335632,159.908279 335.003052,163.512131 
	C331.658203,163.128662 328.210266,162.575684 324.996277,161.389008 
	C323.726959,160.920334 322.518677,159.186600 322.070740,157.778229 
	C319.807068,150.660995 324.446198,140.270752 331.586761,136.747467 
z"/>
<path fill="#5A5B5B" opacity="1.000000" stroke="none" 
	d="
M530.391052,164.017853 
	C529.460083,160.570175 528.927795,157.178818 528.369873,153.624237 
	C531.861084,152.536072 535.278870,151.470825 539.622437,150.117020 
	C538.035583,146.150421 536.546875,142.429138 535.035278,138.340118 
	C536.656982,139.387405 538.456604,140.664368 539.887085,142.270157 
	C540.720764,143.205933 541.039795,144.642609 541.460083,145.897568 
	C545.444153,157.793793 543.463440,161.153702 530.391052,164.017853 
z"/>
<path fill="#5A5B5B" opacity="1.000000" stroke="none" 
	d="
M135.754227,277.855804 
	C135.823257,278.018005 135.833344,278.187714 135.725693,278.414062 
	C130.898987,283.934875 125.274071,281.804199 120.262726,279.498993 
	C116.054153,277.563049 116.703186,272.886230 117.090546,268.508789 
	C121.886116,266.363586 122.185776,264.737976 119.116089,259.693115 
	C120.141685,258.553131 121.031937,257.693939 122.055603,257.148926 
	C122.464806,258.319061 122.740578,259.175018 123.015007,260.400787 
	C122.801033,264.487946 121.127792,269.158051 122.765358,271.668457 
	C124.591614,274.468109 129.415024,275.330505 132.960831,276.978088 
	C133.838440,277.385864 134.820282,277.569275 135.754227,277.855804 
z"/>
<path fill="#C3CAD0" opacity="1.000000" stroke="none" 
	d="
M381.473602,463.247742 
	C382.679169,464.190430 383.577637,466.462799 384.614746,466.527924 
	C392.453583,467.020233 400.464233,468.961182 408.350098,464.758728 
	C409.755707,468.964630 408.547089,471.282776 403.580872,471.063934 
	C398.185425,470.826141 392.762787,471.207520 387.367065,470.973206 
	C380.731232,470.685028 380.737946,470.530457 381.473602,463.247742 
z"/>
<path fill="#C3CAD0" opacity="1.000000" stroke="none" 
	d="
M463.118835,465.199402 
	C470.645111,468.850403 478.656799,466.967133 486.467743,466.747955 
	C487.648163,466.714874 488.775055,464.775452 490.045685,463.355652 
	C491.713715,468.994904 490.660553,470.795624 485.046539,470.971832 
	C479.328369,471.151306 473.595001,470.860748 467.878021,471.058441 
	C463.820160,471.198761 462.484406,469.375427 463.118835,465.199402 
z"/>
<path fill="#C3CAD0" opacity="1.000000" stroke="none" 
	d="
M215.691116,465.256287 
	C224.647858,468.113159 233.343002,468.697083 242.384094,464.876221 
	C243.774185,469.101318 242.422745,471.289185 237.522934,471.077576 
	C231.635056,470.823303 225.727188,470.910339 219.830902,471.014557 
	C215.817368,471.085510 214.285400,469.443054 215.691116,465.256287 
z"/>
<path fill="#C3CAD0" opacity="1.000000" stroke="none" 
	d="
M134.301910,465.915100 
	C143.072067,468.051605 151.655380,468.405334 160.560913,465.021057 
	C163.171585,468.438141 161.339127,470.619202 158.106354,470.812531 
	C151.120087,471.230408 144.081009,471.140320 137.092484,470.745453 
	C136.031631,470.685516 135.125977,467.878754 134.301910,465.915100 
z"/>
<path fill="#555756" opacity="1.000000" stroke="none" 
	d="
M281.096863,265.796204 
	C282.136963,264.091644 283.154022,262.337463 284.664612,261.306427 
	C287.451416,259.404327 290.527863,257.926605 294.112061,256.177094 
	C295.810394,257.050903 296.880280,258.019653 297.950195,258.988403 
	C295.955353,266.199432 287.161560,269.940277 281.096863,265.796204 
z"/>
<path fill="#555756" opacity="1.000000" stroke="none" 
	d="
M93.180817,245.528152 
	C92.525009,246.793091 91.880302,247.682053 91.566704,248.114456 
	C86.514595,247.043579 81.686386,246.020157 76.421997,244.560760 
	C75.937675,242.968369 75.889542,241.811935 75.841408,240.655518 
	C81.779839,236.253601 90.815971,238.595459 93.180817,245.528152 
z"/>
<path fill="#555756" opacity="1.000000" stroke="none" 
	d="
M291.967133,245.036743 
	C289.373169,245.178192 286.705902,244.992554 284.205841,245.552933 
	C281.699554,246.114700 279.360077,247.420837 276.560120,248.558060 
	C276.198608,247.085022 275.878387,245.780273 275.298157,244.248764 
	C277.214600,238.714737 286.075623,236.730087 291.843506,241.014374 
	C291.999939,242.833588 291.983551,243.935165 291.967133,245.036743 
z"/>
<path fill="#555756" opacity="1.000000" stroke="none" 
	d="
M73.017723,255.995300 
	C76.177155,257.667419 79.436722,259.180511 82.452873,261.080139 
	C83.915260,262.001160 84.921394,263.646576 86.180786,265.395782 
	C81.171555,269.747559 71.966820,266.361511 70.148788,259.297638 
	C71.294991,257.856567 72.156357,256.925934 73.017723,255.995300 
z"/>
<path fill="#555756" opacity="1.000000" stroke="none" 
	d="
M237.689728,282.302643 
	C236.319748,281.429596 235.340149,280.499847 234.226135,278.919373 
	C236.403030,277.013519 238.827011,275.924133 240.991348,274.452850 
	C242.850601,273.188934 244.413239,271.488770 246.382660,270.135925 
	C248.024094,271.196259 249.389877,272.102203 250.755661,273.008148 
	C250.842682,277.775177 248.034256,279.906189 243.764359,280.790863 
	C241.851242,281.187195 239.973755,281.755615 237.689728,282.302643 
z"/>
<path fill="#676767" opacity="1.000000" stroke="none" 
	d="
M378.901947,154.818573 
	C377.241425,158.635162 375.580902,162.451767 373.650024,166.886230 
	C372.925140,169.000809 372.470581,170.497513 372.015991,171.994217 
	C371.588531,167.659851 371.161072,163.325485 370.891235,158.643600 
	C371.663971,157.825562 372.279083,157.355042 373.228760,156.382660 
	C374.199310,154.993225 374.835205,154.105652 375.471130,153.218079 
	C376.454590,152.891327 377.438049,152.564560 378.723999,152.564636 
	C378.984955,153.533859 378.943451,154.176208 378.901947,154.818573 
z"/>
<path fill="#676767" opacity="1.000000" stroke="none" 
	d="
M291.982239,245.437714 
	C291.983551,243.935165 291.999939,242.833588 292.028717,241.319702 
	C298.061584,245.300217 299.174774,251.485504 298.182220,258.671814 
	C296.880280,258.019653 295.810394,257.050903 294.433624,256.042297 
	C293.416962,252.614502 292.707153,249.226593 291.982239,245.437714 
z"/>
<path fill="#676767" opacity="1.000000" stroke="none" 
	d="
M73.056046,255.623932 
	C72.156357,256.925934 71.294991,257.856567 70.135910,258.917664 
	C67.901299,251.903412 69.779320,245.884048 75.515488,240.781067 
	C75.889542,241.811935 75.937675,242.968369 75.989822,244.558441 
	C75.027344,248.412262 74.060852,251.832413 73.056046,255.623932 
z"/>
<path fill="#676767" opacity="1.000000" stroke="none" 
	d="
M493.662415,158.330109 
	C493.736664,162.355087 493.555969,166.356110 492.896973,170.447098 
	C491.960571,169.362137 491.502411,168.187210 491.004272,166.641113 
	C489.621216,162.536041 488.278107,158.802170 486.955261,154.752716 
	C486.976562,154.016373 486.977600,153.595596 486.978638,153.174805 
	C488.721680,154.789322 490.464752,156.403854 492.555054,158.120224 
	C493.070679,158.250107 493.239075,158.278122 493.662415,158.330109 
z"/>
<path fill="#979594" opacity="1.000000" stroke="none" 
	d="
M249.890854,260.854706 
	C254.194901,260.552368 252.324020,264.528839 253.784515,266.646332 
	C253.031769,267.503815 252.149368,268.001678 250.749512,268.713440 
	C248.601501,267.199158 246.970932,265.470947 245.336533,263.472900 
	C245.359268,262.843140 245.385864,262.483246 245.722656,262.070465 
	C247.033966,261.676758 248.035095,261.335938 249.250046,260.961121 
	C249.463882,260.927063 249.890854,260.854706 249.890854,260.854706 
z"/>
<path fill="#979594" opacity="1.000000" stroke="none" 
	d="
M118.980751,259.973907 
	C122.185776,264.737976 121.886116,266.363586 117.069626,268.072235 
	C116.653046,268.062714 116.227531,268.178436 116.015747,268.113342 
	C116.346497,265.533386 116.889030,263.018585 117.949966,260.252441 
	C118.639160,259.992065 118.809952,259.982971 118.980751,259.973907 
z"/>
<path fill="#5A5B5B" opacity="1.000000" stroke="none" 
	d="
M532.334106,136.351807 
	C528.707214,137.456894 524.847534,138.303085 520.634827,139.101746 
	C524.221619,138.067123 528.161499,137.080032 532.334106,136.351807 
z"/>
<path fill="#5A5B5B" opacity="1.000000" stroke="none" 
	d="
M342.734375,137.768494 
	C339.343781,141.118423 336.283051,138.394241 332.923767,136.632629 
	C335.997772,136.682098 339.234711,137.103546 342.734375,137.768494 
z"/>
<path fill="#979594" opacity="1.000000" stroke="none" 
	d="
M344.142761,156.764984 
	C344.335815,154.601395 344.875336,152.529877 345.685547,150.233002 
	C346.427032,150.026505 346.897797,150.045349 347.722168,150.101776 
	C347.928497,152.520798 347.781281,154.902222 347.418091,157.537292 
	C346.297821,157.479645 345.393555,157.168350 344.142761,156.764984 
z"/>
<path fill="#5A5B5B" opacity="1.000000" stroke="none" 
	d="
M245.340378,263.742737 
	C246.970932,265.470947 248.601501,267.199158 250.572800,268.987000 
	C250.929443,270.109924 250.945358,271.173187 250.858459,272.622284 
	C249.389877,272.102203 248.024094,271.196259 246.297256,269.750854 
	C245.737610,267.388519 245.539001,265.565613 245.340378,263.742737 
z"/>
<path fill="#F1F3F4" opacity="1.000000" stroke="none" 
	d="
M409.447571,458.919739 
	C408.771515,456.925385 408.464935,454.842834 408.216125,452.368347 
	C412.892853,453.337524 411.242554,456.109833 409.447571,458.919739 
z"/>
<path fill="#F1F3F4" opacity="1.000000" stroke="none" 
	d="
M390.210083,428.990723 
	C390.343506,431.144318 390.102264,433.328033 389.685181,435.828522 
	C387.485474,433.672882 386.631622,431.253998 390.210083,428.990723 
z"/>
<path fill="#F1F3F4" opacity="1.000000" stroke="none" 
	d="
M472.943054,181.406982 
	C473.411438,182.729279 473.758240,184.420334 474.129700,186.499176 
	C473.710236,187.429413 473.266113,187.971863 472.641815,188.713364 
	C472.581604,186.533508 472.701569,184.154633 472.943054,181.406982 
z"/>
<path fill="#F1F3F4" opacity="1.000000" stroke="none" 
	d="
M471.935425,215.885437 
	C471.597076,214.230759 471.565094,212.432251 471.703644,210.294708 
	C471.996735,211.884323 472.119263,213.812988 471.935425,215.885437 
z"/>
<path fill="#F9CAA6" opacity="1.000000" stroke="none" 
	d="
M375.144684,153.087311 
	C374.835205,154.105652 374.199310,154.993225 373.280090,156.062393 
	C372.698090,155.080521 372.399445,153.917038 372.191650,152.382812 
	C373.127777,152.326874 373.973022,152.641693 375.144684,153.087311 
z"/>
<path fill="#F1F3F4" opacity="1.000000" stroke="none" 
	d="
M472.251617,204.799133 
	C471.924622,203.848480 471.858643,202.693069 471.936310,201.279938 
	C472.224182,202.212936 472.368408,203.403671 472.251617,204.799133 
z"/>
<path fill="#F1F3F4" opacity="1.000000" stroke="none" 
	d="
M233.399170,409.977173 
	C233.220566,409.168762 233.356339,408.299957 233.746826,407.217163 
	C233.905533,407.974396 233.809540,408.945557 233.399170,409.977173 
z"/>
<path fill="#F1F3F4" opacity="1.000000" stroke="none" 
	d="
M409.304443,463.836975 
	C409.042877,463.240967 409.010498,462.483887 409.061554,461.356262 
	C409.274506,461.882446 409.404083,462.779144 409.304443,463.836975 
z"/>
<path fill="#C3CAD0" opacity="1.000000" stroke="none" 
	d="
M242.610138,461.129028 
	C242.360260,461.075012 242.224777,460.777222 242.150818,460.235870 
	C242.383087,460.289978 242.553818,460.587585 242.610138,461.129028 
z"/>
<path fill="#C3CAD0" opacity="1.000000" stroke="none" 
	d="
M161.642151,460.925446 
	C161.430542,460.863556 161.349457,460.682281 161.345886,460.213379 
	C161.539841,460.219147 161.656265,460.512634 161.642151,460.925446 
z"/>
<path fill="#F1F3F4" opacity="1.000000" stroke="none" 
	d="
M233.880951,428.972412 
	C233.675690,428.990448 233.435471,428.758789 233.179169,428.269714 
	C233.390717,428.249084 233.618362,428.485931 233.880951,428.972412 
z"/>
<path fill="#F1F3F4" opacity="1.000000" stroke="none" 
	d="
M471.242859,222.056610 
	C471.067780,221.905350 471.266571,221.483368 471.390625,221.285919 
	C471.754395,221.312576 471.886108,221.588287 471.878784,222.147491 
	C471.847748,222.379410 471.417969,222.207855 471.242859,222.056610 
z"/>
<path fill="#080D12" opacity="1.000000" stroke="none" 
	d="
M399.376221,225.457275 
	C407.065552,225.527542 415.052765,226.374649 422.984039,226.008942 
	C437.053955,225.360199 451.089905,223.975357 465.583252,222.925262 
	C460.570984,224.630005 455.198517,226.680893 449.644623,227.916168 
	C432.818787,231.658478 416.151855,230.097687 399.376221,225.457275 
z"/>
<path fill="#F9FAFA" opacity="1.000000" stroke="none" 
	d="
M119.116089,259.693115 
	C118.809952,259.982971 118.639160,259.992065 118.211708,259.984863 
	C117.379288,248.985001 123.033058,240.001709 128.496368,231.514359 
	C138.918365,215.323608 142.191223,197.187103 145.472595,178.543427 
	C146.747238,193.456543 147.844910,208.670303 149.009308,224.327240 
	C142.266174,233.190323 140.007431,243.099991 139.248871,254.188538 
	C137.298492,254.343887 135.598587,254.195984 134.184143,253.482300 
	C129.010849,250.871964 125.022400,252.107452 121.922180,256.834717 
	C121.031937,257.693939 120.141685,258.553131 119.116089,259.693115 
z"/>
<path fill="#F9FAFA" opacity="1.000000" stroke="none" 
	d="
M224.602844,199.134308 
	C226.975784,204.422455 228.559265,210.166077 231.092728,215.454651 
	C235.436340,224.521881 240.191925,233.407104 245.130081,242.168365 
	C248.082809,247.407059 249.707687,252.740555 248.639282,258.984009 
	C244.320450,254.401718 240.130051,250.127258 233.013367,253.154709 
	C232.780090,253.253937 232.394836,252.995880 232.080429,252.904388 
	C229.418869,242.799561 226.757294,232.694733 223.912048,222.247498 
	C223.899170,214.398407 224.069977,206.891724 224.602844,199.134308 
z"/>
<path fill="#3A3A3A" opacity="1.000000" stroke="none" 
	d="
M245.336533,263.472900 
	C245.539001,265.565613 245.737610,267.388519 246.021637,269.596466 
	C244.413239,271.488770 242.850601,273.188934 240.991348,274.452850 
	C238.827011,275.924133 236.403030,277.013519 234.048828,278.631165 
	C232.667450,277.523041 230.773148,276.266388 230.107208,274.536774 
	C228.758743,271.034363 228.075989,267.275604 227.556702,263.251953 
	C230.641571,262.091553 233.275360,261.253784 235.938751,260.524017 
	C239.324692,259.596313 242.661072,259.188843 245.412445,262.123352 
	C245.385864,262.483246 245.359268,262.843140 245.336533,263.472900 
z"/>
<path fill="#3A3A3A" opacity="1.000000" stroke="none" 
	d="
M135.945145,277.635742 
	C134.820282,277.569275 133.838440,277.385864 132.960831,276.978088 
	C129.415024,275.330505 124.591614,274.468109 122.765358,271.668457 
	C121.127792,269.158051 122.801033,264.487946 123.458305,260.381989 
	C128.972839,260.715973 134.042740,261.438629 139.112625,262.161255 
	C141.534485,267.912262 138.224564,272.544800 135.945145,277.635742 
z"/>
<path fill="#080D12" opacity="1.000000" stroke="none" 
	d="
M150.369812,225.412781 
	C160.049759,225.487640 170.020279,226.370972 179.943451,225.997269 
	C192.356659,225.529739 204.730972,224.028961 217.553329,223.012848 
	C211.326355,227.789246 203.330780,227.590927 195.788025,228.968521 
	C180.476151,231.765091 165.547424,228.717239 150.369812,225.412781 
z"/>
<path fill="#5A5B5B" opacity="1.000000" stroke="none" 
	d="
M245.722656,262.070465 
	C242.661072,259.188843 239.324692,259.596313 235.938751,260.524017 
	C233.275360,261.253784 230.641571,262.091553 227.633453,262.850891 
	C228.756302,259.722107 230.240326,256.623779 231.902390,253.214935 
	C232.394836,252.995880 232.780090,253.253937 233.013367,253.154709 
	C240.130051,250.127258 244.320450,254.401718 248.567535,259.476685 
	C248.842484,259.715790 248.859894,259.681580 248.886749,260.007446 
	C248.954483,260.553955 248.995346,260.774536 249.036209,260.995148 
	C248.035095,261.335938 247.033966,261.676758 245.722656,262.070465 
z"/>
<path fill="#555756" opacity="1.000000" stroke="none" 
	d="
M139.121796,261.718079 
	C134.042740,261.438629 128.972839,260.715973 123.459648,260.012146 
	C122.740578,259.175018 122.464806,258.319061 122.055603,257.148926 
	C125.022400,252.107452 129.010849,250.871964 134.184143,253.482300 
	C135.598587,254.195984 137.298492,254.343887 139.199738,254.602509 
	C139.398361,256.727356 139.264664,259.001129 139.121796,261.718079 
z"/>
<path fill="#0B0B0C" opacity="1.000000" stroke="none" 
	d="
M209.673676,331.357666 
	C209.457764,331.527374 209.078888,331.607758 208.418686,331.595581 
	C208.595154,331.424805 209.052933,331.346558 209.673676,331.357666 
z"/>
<path fill="#CEA384" opacity="1.000000" stroke="none" 
	d="
M144.329407,153.953949 
	C142.047150,149.535278 142.984314,145.240082 145.210327,140.768250 
	C146.094788,143.300095 146.882736,145.555725 147.974091,148.068176 
	C147.061859,150.151352 145.846252,151.977676 144.329407,153.953949 
z"/>
<path fill="#CEA384" opacity="1.000000" stroke="none" 
	d="
M220.139374,144.438965 
	C220.540680,142.381668 221.067245,140.619293 221.593796,138.856903 
	C221.941345,138.713242 222.288895,138.569580 222.636444,138.425903 
	C224.060196,142.082138 225.483948,145.738388 226.856293,149.785889 
	C224.624786,148.362732 222.444702,146.548309 220.139374,144.438965 
z"/>
<path fill="#3C3C3C" opacity="1.000000" stroke="none" 
	d="
M486.935028,155.068283 
	C488.278107,158.802170 489.621216,162.536041 490.597900,166.648285 
	C489.136475,167.309616 488.056519,167.697128 486.943817,167.857559 
	C481.995697,168.570999 477.004364,169.154526 479.835724,176.402191 
	C480.001312,176.826035 479.055237,177.684158 478.626495,178.340179 
	C477.005157,177.661606 475.383820,176.983032 473.439575,176.261688 
	C471.376251,169.126633 466.390259,162.389175 471.290985,154.346802 
	C474.581116,156.673828 477.509460,157.207901 481.119019,155.581284 
	C482.794495,154.826233 484.980469,155.204041 486.935028,155.068283 
z"/>
<path fill="#555756" opacity="1.000000" stroke="none" 
	d="
M486.955261,154.752716 
	C484.980469,155.204041 482.794495,154.826233 481.119019,155.581284 
	C477.509460,157.207901 474.581116,156.673828 471.482361,154.013901 
	C472.009399,153.308792 472.879730,152.654114 474.105133,151.941147 
	C478.480896,151.408295 482.728241,148.560989 486.628571,153.093262 
	C486.977600,153.595596 486.976562,154.016373 486.955261,154.752716 
z"/>
<path fill="#CEA384" opacity="1.000000" stroke="none" 
	d="
M393.803833,151.980743 
	C393.246277,152.471191 392.843781,152.635925 392.041473,152.640167 
	C391.080688,152.292587 390.519714,152.105515 389.958710,151.918442 
	C389.746857,149.517807 389.535034,147.117172 389.325806,144.746048 
	C391.316467,145.858139 393.251312,146.939072 395.539124,148.055389 
	C395.247650,149.278854 394.603271,150.466934 393.803833,151.980743 
z"/>
<path fill="#CEA384" opacity="1.000000" stroke="none" 
	d="
M129.489502,187.826248 
	C132.011566,187.743378 134.663315,187.984543 137.315063,188.225708 
	C137.279282,188.747070 137.243500,189.268448 137.207718,189.789825 
	C134.567093,191.434433 131.996063,191.706970 129.489502,187.826248 
z"/>
<path fill="#F9FAFA" opacity="1.000000" stroke="none" 
	d="
M249.250046,260.961121 
	C248.995346,260.774536 248.954483,260.553955 248.883804,259.992310 
	C249.124969,259.890808 249.395950,260.130371 249.778900,260.612305 
	C249.890854,260.854706 249.463882,260.927063 249.250046,260.961121 
z"/>
<path fill="#CEA384" opacity="1.000000" stroke="none" 
	d="
M187.989807,94.992180 
	C184.425964,97.923515 178.199310,97.815041 175.050461,94.383774 
	C175.000198,93.999901 174.990997,94.012245 174.990997,94.012245 
	C179.058899,94.346352 183.126801,94.680458 187.597427,95.007393 
	C188.000153,95.000221 187.989807,94.992180 187.989807,94.992180 
z"/>
<path fill="#CEA384" opacity="1.000000" stroke="none" 
	d="
M171.525330,89.565445 
	C171.467651,89.601242 171.583023,89.529648 171.525330,89.565445 
z"/>
<path fill="#CEA384" opacity="1.000000" stroke="none" 
	d="
M191.455078,90.533417 
	C191.427292,90.482132 191.482880,90.584694 191.455078,90.533417 
z"/>
<path fill="#CEA384" opacity="1.000000" stroke="none" 
	d="
M173.013092,91.981827 
	C172.890549,91.843941 172.768005,91.706062 172.645462,91.568176 
	C172.726028,91.622505 172.806580,91.676826 172.943390,91.865494 
	C172.999649,91.999832 173.013092,91.981827 173.013092,91.981827 
z"/>
<path fill="#CEA384" opacity="1.000000" stroke="none" 
	d="
M172.990662,92.006607 
	C173.315750,92.097855 173.580795,92.281799 173.888367,92.782455 
	C173.999924,92.999695 174.012985,92.982391 174.012985,92.982391 
	C173.676147,92.902039 173.410385,92.718666 173.114410,92.207047 
	C173.013092,91.981827 172.999649,91.999832 172.990662,92.006607 
z"/>
<path fill="#CEA384" opacity="1.000000" stroke="none" 
	d="
M190.520905,92.539612 
	C190.462616,92.574043 190.579193,92.505180 190.520905,92.539612 
z"/>
<path fill="#CEA384" opacity="1.000000" stroke="none" 
	d="
M173.991302,93.006180 
	C174.314362,93.102356 174.580750,93.286499 174.886414,93.788673 
	C174.990997,94.012245 175.000198,93.999901 175.006561,93.995026 
	C174.670334,93.915581 174.401596,93.732582 174.109848,93.211769 
	C174.012985,92.982391 173.999924,92.999695 173.991302,93.006180 
z"/>
<path fill="#CEA384" opacity="1.000000" stroke="none" 
	d="
M188.004395,95.005531 
	C188.101151,94.969696 188.193680,94.928551 188.138000,94.939796 
	C187.989807,94.992180 188.000153,95.000221 188.004395,95.005531 
z"/>
<path fill="#CEA384" opacity="1.000000" stroke="none" 
	d="
M422.991119,94.012001 
	C427.059387,94.346916 431.127625,94.681824 435.597961,95.008461 
	C436.000000,95.000183 435.987244,94.990517 435.987244,94.990517 
	C432.427460,97.923668 426.190887,97.815453 423.053040,94.383469 
	C423.000122,93.999924 422.991119,94.012001 422.991119,94.012001 
z"/>
<path fill="#CEA384" opacity="1.000000" stroke="none" 
	d="
M422.010712,92.985794 
	C421.507202,92.689064 421.003693,92.392326 420.500183,92.095596 
	C420.671631,91.891869 420.843048,91.688141 421.014496,91.484406 
	C421.314880,91.807037 421.615265,92.129677 421.957825,92.726021 
	C422.000000,92.999725 422.010712,92.985794 422.010712,92.985794 
z"/>
<path fill="#CEA384" opacity="1.000000" stroke="none" 
	d="
M419.010834,88.984970 
	C418.894043,88.862900 418.777252,88.740837 418.660461,88.618759 
	C418.730560,88.667938 418.800690,88.717117 418.935364,88.883102 
	C418.999908,88.999916 419.010834,88.984962 419.010834,88.984970 
z"/>
<path fill="#CEA384" opacity="1.000000" stroke="none" 
	d="
M440.542480,88.482910 
	C440.567444,88.529724 440.517548,88.436104 440.542480,88.482910 
z"/>
<path fill="#CEA384" opacity="1.000000" stroke="none" 
	d="
M418.992340,89.005280 
	C419.101044,89.144783 419.217316,89.278915 419.333618,89.413040 
	C419.260315,89.358749 419.187012,89.304459 419.062256,89.117569 
	C419.010834,88.984962 418.999908,88.999916 418.992340,89.005280 
z"/>
<path fill="#CEA384" opacity="1.000000" stroke="none" 
	d="
M439.017456,91.012375 
	C439.095673,90.967888 439.173920,90.923409 439.126099,90.939270 
	C439.000061,90.999619 439.017456,91.012367 439.017456,91.012375 
z"/>
<path fill="#CEA384" opacity="1.000000" stroke="none" 
	d="
M438.993591,90.990982 
	C438.908173,91.029366 438.829285,91.076385 438.883911,91.067886 
	C439.017456,91.012367 439.000061,90.999619 438.993591,90.990982 
z"/>
<path fill="#CEA384" opacity="1.000000" stroke="none" 
	d="
M421.993134,93.004997 
	C422.320770,93.095863 422.587921,93.279488 422.889404,93.786560 
	C422.991119,94.012001 423.000122,93.999924 423.006348,93.995193 
	C422.669556,93.917244 422.398895,93.736015 422.105652,93.216286 
	C422.010712,92.985794 422.000000,92.999725 421.993134,93.004997 
z"/>
<path fill="#CEA384" opacity="1.000000" stroke="none" 
	d="
M437.015900,94.011963 
	C437.100983,93.967758 437.186066,93.923553 437.135742,93.939705 
	C437.000366,94.000061 437.015900,94.011963 437.015900,94.011963 
z"/>
<path fill="#CEA384" opacity="1.000000" stroke="none" 
	d="
M436.994446,93.992325 
	C436.903778,94.319717 436.720581,94.587479 436.213104,94.889206 
	C435.987244,94.990517 436.000000,95.000183 436.005096,95.006760 
	C436.080536,94.668297 436.261200,94.396637 436.784058,94.105164 
	C437.015900,94.011963 437.000366,94.000061 436.994446,93.992325 
z"/>
<path fill="#555756" opacity="1.000000" stroke="none" 
	d="
M389.590698,151.905548 
	C390.519714,152.105515 391.080688,152.292587 391.827850,152.708878 
	C390.816345,155.979584 388.861145,157.240829 385.518097,156.095398 
	C383.672577,155.463043 381.664551,155.304840 379.315857,154.875732 
	C378.943451,154.176208 378.984955,153.533859 379.034180,152.567612 
	C382.327179,148.986069 385.792053,150.936111 389.590698,151.905548 
z"/>
<path fill="#555756" opacity="1.000000" stroke="none" 
	d="
M478.907135,178.618530 
	C479.055237,177.684158 480.001312,176.826035 479.835724,176.402191 
	C477.004364,169.154526 481.995697,168.570999 486.943817,167.857559 
	C488.056519,167.697128 489.136475,167.309616 490.637878,167.019470 
	C491.502411,168.187210 491.960571,169.362137 492.666931,170.751129 
	C492.871643,171.746872 492.828156,172.528564 492.511902,173.848114 
	C492.089905,174.659637 492.051270,174.948151 492.123260,175.251511 
	C487.811432,176.466629 483.499603,177.681763 478.907135,178.618530 
z"/>
<path fill="#676767" opacity="1.000000" stroke="none" 
	d="
M492.290894,175.090973 
	C492.051270,174.948151 492.089905,174.659637 492.384155,174.220154 
	C492.695129,174.361603 492.671570,174.653641 492.290894,175.090973 
z"/>
<path fill="#555756" opacity="1.000000" stroke="none" 
	d="
M371.994659,172.390350 
	C372.470581,170.497513 372.925140,169.000809 373.628845,167.269119 
	C374.365692,167.105942 374.851349,167.219589 375.341370,167.243256 
	C381.969513,167.563477 386.343109,170.091873 385.924286,177.942841 
	C381.419006,179.723724 373.061646,176.542847 371.994659,172.390350 
z"/>
</svg>