<svg version="1.1" id="Layer_1" xmlns="http://www.w3.org/2000/svg" xmlns:xlink="http://www.w3.org/1999/xlink" x="0px" y="0px"
	 width="100%" viewBox="0 0 622 587" enable-background="new 0 0 622 587" xml:space="preserve">
<path fill="#FFFFFF" opacity="1.000000" stroke="none" 
	d="
M416.000000,588.000000 
	C277.333344,588.000000 139.166672,588.000000 1.000000,588.000000 
	C1.000000,392.333344 1.000000,196.666672 1.000000,1.000000 
	C208.333328,1.000000 415.666656,1.000000 623.000000,1.000000 
	C623.000000,196.666672 623.000000,392.333344 623.000000,588.000000 
	C554.166687,588.000000 485.333344,588.000000 416.000000,588.000000 
M189.319275,381.939484 
	C189.282166,381.308777 189.245041,380.678070 189.752045,379.687469 
	C191.053497,378.401398 192.396149,377.154083 193.648972,375.822266 
	C198.156204,371.030579 198.310318,368.542572 194.461395,363.142883 
	C192.534225,360.439209 190.490768,357.814056 188.666489,355.043671 
	C187.989578,354.015717 187.059036,352.138519 187.484451,351.558899 
	C191.517746,346.063385 186.417084,345.185120 183.457428,343.350006 
	C180.951935,341.796539 176.775269,341.087677 175.964325,338.989868 
	C173.246399,331.958832 166.927185,329.613586 161.797256,325.096069 
	C162.805481,320.028442 162.180649,315.151215 157.732666,312.146393 
	C153.292664,309.146881 148.548264,310.666107 144.102798,313.043884 
	C137.393265,316.632690 130.689209,320.238007 123.890686,323.652863 
	C108.796577,331.234650 104.581223,341.016846 109.657616,359.727905 
	C98.691788,369.094330 96.317780,381.933472 95.032661,395.321838 
	C94.434845,401.549988 96.904030,405.830109 102.321152,409.549408 
	C104.857086,411.173676 107.393021,412.797943 110.123970,415.042023 
	C112.191422,416.395203 114.134567,418.012390 116.348343,419.054779 
	C124.851349,423.058594 129.670929,429.687988 132.591263,438.590454 
	C134.225739,443.573120 137.608154,448.274719 141.149612,452.262207 
	C145.176575,456.796326 150.444626,460.200653 154.840942,464.440582 
	C161.804306,471.156219 169.973801,475.003021 180.170822,476.415039 
	C191.850037,482.135742 204.524887,482.397278 217.128265,483.541901 
	C248.546173,486.395294 279.893341,487.989380 311.910004,481.957428 
	C328.609039,483.299683 345.308105,484.641907 362.691193,486.182587 
	C364.674683,486.149750 366.693390,486.345062 368.635712,486.045349 
	C377.968781,484.605438 387.282318,483.034119 393.851471,474.040497 
	C398.405426,464.636597 402.306580,454.837555 407.693787,445.938080 
	C413.270325,436.725739 420.639282,428.614014 426.520111,419.563385 
	C429.237823,415.380920 431.249573,410.188354 431.641663,405.298248 
	C431.815857,403.125854 427.189240,400.568573 424.948547,397.378571 
	C426.688812,388.501923 428.429047,379.625305 430.224365,370.467743 
	C430.758972,371.065552 431.167084,371.371124 431.377197,371.778748 
	C437.730499,384.104950 445.792969,395.170715 454.846985,405.696014 
	C462.165649,414.203949 469.474396,422.971313 472.278992,434.208191 
	C471.207611,435.728699 469.711670,437.106476 469.143616,438.796204 
	C467.360474,444.100220 466.152954,449.600677 464.309326,454.880798 
	C460.700989,465.214935 461.695312,466.917084 472.814911,469.070526 
	C472.493500,471.371643 472.222626,473.681183 471.841736,475.972412 
	C470.389587,484.707886 470.613373,485.540131 479.609741,486.099762 
	C505.298065,487.697754 531.030090,488.612671 556.708557,490.338013 
	C565.985046,490.961334 571.819885,487.023407 576.395813,479.674469 
	C581.007812,472.267609 578.571411,466.775909 569.824036,465.185211 
	C566.408569,464.564056 563.023438,463.776031 559.750793,462.301117 
	C563.177368,454.456512 562.301208,453.128479 554.012939,451.204559 
	C548.080139,449.827362 542.184143,448.043732 536.526917,445.798492 
	C531.157959,443.667603 526.120789,440.700562 520.732117,437.864319 
	C520.732117,437.864319 520.433167,437.959259 520.063171,437.568359 
	C519.729187,437.468567 519.395264,437.368774 518.565674,436.823059 
	C517.443604,436.122681 516.321472,435.422302 514.866577,434.149994 
	C513.362305,432.876770 511.802429,431.662842 510.366669,430.316528 
	C508.167633,428.254578 505.897095,427.003052 502.702881,428.420654 
	C494.137665,408.770752 485.303650,389.232544 477.080933,369.440338 
	C468.401031,348.547729 459.591461,327.793732 446.229797,309.308868 
	C439.975983,300.657196 431.825104,297.476440 421.899933,301.244080 
	C417.672943,302.848694 413.058411,305.185242 410.290192,308.559418 
	C401.058685,319.811737 392.551605,331.660706 383.843597,343.338226 
	C381.974762,345.844299 380.427185,348.589996 378.202454,350.813629 
	C377.721436,350.181213 377.240387,349.548828 376.557495,348.651031 
	C375.743408,349.676178 375.147675,350.413422 374.565613,351.161316 
	C364.187225,364.496063 354.569550,378.303772 347.397491,394.232971 
	C346.608673,394.879944 345.819824,395.526917 344.309998,396.225800 
	C340.747223,398.189941 336.319305,399.402222 333.813751,402.285187 
	C329.489838,407.260468 324.388031,409.674347 318.198242,410.672791 
	C316.084991,411.013702 314.018341,411.643158 311.073395,411.987061 
	C296.670868,410.713226 282.290192,408.938477 267.859558,408.308258 
	C253.791397,407.693817 240.555374,404.448120 228.028519,398.338348 
	C216.254410,392.595764 203.822968,389.219910 190.820908,386.567444 
	C190.686371,386.370911 190.505859,386.235687 190.287460,385.425873 
	C190.190216,384.947083 190.092957,384.468323 189.927658,383.440491 
	C189.707581,383.150604 189.487503,382.860718 189.319275,381.939484 
M87.057732,169.037354 
	C74.447884,168.859680 71.256302,172.108597 72.062660,184.342697 
	C72.138527,185.493683 72.341064,186.639221 72.533058,187.779160 
	C73.768318,195.113297 75.017036,202.445145 75.888466,210.386017 
	C74.767761,211.603821 73.619751,212.797745 72.530678,214.043213 
	C64.339729,223.410599 65.187027,232.937454 75.008141,240.523010 
	C77.884178,242.744400 81.177055,244.432846 84.011292,246.700073 
	C88.701958,250.452362 93.264755,250.306488 98.808647,246.890732 
	C103.860817,245.907639 108.912987,244.924530 114.726006,243.929932 
	C123.239906,239.934250 132.195923,239.933670 140.972763,242.132126 
	C150.633728,244.552032 160.055771,245.995819 169.620682,242.141296 
	C170.202652,241.906769 170.934601,242.033325 171.597412,242.012207 
	C181.856506,241.685272 192.115707,241.361710 203.248840,241.236389 
	C215.894226,241.317703 228.596283,242.186386 241.170654,241.281235 
	C256.923645,240.147247 272.543579,237.277328 288.274872,235.691788 
	C299.172760,234.593430 310.161743,234.399170 321.899475,233.980515 
	C338.475433,236.705292 355.077179,239.115387 372.651917,238.333847 
	C374.798645,238.220718 376.977356,238.304062 379.086517,237.960449 
	C388.258728,236.466187 397.488556,235.006897 403.759277,225.921799 
	C404.820740,223.856186 406.195770,221.890778 406.893005,219.708771 
	C411.528656,205.201889 420.158325,193.069702 429.332031,181.216232 
	C432.470825,177.160568 435.697693,173.076141 438.142059,168.599579 
	C443.696747,158.426819 443.454803,158.034851 434.870819,150.752319 
	C434.747467,150.647705 434.670380,150.488602 434.831146,149.532074 
	C436.520111,140.659241 438.209106,131.786392 439.944672,122.668877 
	C440.550568,123.311661 441.413086,123.880493 441.790619,124.678719 
	C448.114471,138.047638 457.740112,149.051346 466.744873,160.581314 
	C472.906555,168.470825 477.537384,177.555878 482.176239,186.236343 
	C481.097656,187.760544 479.589264,189.140945 479.022095,190.836243 
	C477.396667,195.694534 476.397369,200.765808 474.710785,205.599426 
	C470.462891,217.773834 470.365753,217.739944 482.728058,221.110886 
	C482.796997,221.776245 482.865906,222.441620 482.667755,223.406769 
	C482.676300,223.782547 482.684875,224.158325 482.253357,225.326065 
	C479.517212,237.156876 479.940338,238.031830 493.550079,238.801010 
	C517.789551,240.170959 542.083069,240.678314 566.297241,242.362381 
	C577.176941,243.119080 582.886230,237.615204 587.640503,229.315643 
	C590.051270,225.107101 589.237671,221.494598 585.093506,219.778809 
	C580.441772,217.852875 575.291382,217.131226 569.958557,215.182556 
	C569.912537,214.718506 569.703613,214.196854 569.844360,213.798889 
	C572.630493,205.921585 571.969055,205.371567 563.844177,203.245605 
	C556.561951,201.340118 549.493042,198.541077 542.452942,195.818253 
	C538.157593,194.156937 534.094666,191.894318 529.735168,189.800186 
	C529.735168,189.800186 529.594177,189.965637 529.273254,189.379272 
	C528.858521,189.234406 528.443726,189.089539 527.736389,188.406738 
	C526.859009,187.893127 525.981628,187.379532 524.801086,186.267792 
	C523.286194,184.996735 521.710571,183.790421 520.270569,182.439545 
	C518.088745,180.392685 515.852478,179.001434 512.406494,180.549866 
	C511.104736,177.675781 509.759338,174.820557 508.508453,171.924515 
	C501.061920,154.684036 493.294800,137.571762 486.293823,120.151779 
	C477.957275,99.408478 468.539429,79.315407 455.911682,60.771969 
	C448.485474,49.866787 436.484070,50.427406 427.617249,54.963852 
	C417.949768,59.909954 412.052429,68.832245 405.954071,77.298439 
	C399.857483,85.762177 394.371948,94.666069 388.137482,102.940414 
	C385.659973,99.072342 384.716003,102.832161 383.785980,104.036110 
	C373.696533,117.096931 364.178986,130.528656 357.345184,146.176331 
	C356.573944,146.812546 355.802704,147.448761 354.302734,148.141907 
	C350.599457,150.224014 346.000580,151.536606 343.398621,154.564972 
	C339.290222,159.346664 334.426300,161.536621 328.613281,162.607971 
	C326.332489,163.028320 324.080811,163.606415 320.924194,163.969025 
	C307.128906,163.373428 293.336517,162.698410 279.537659,162.201843 
	C261.411041,161.549530 243.120560,159.285141 225.190140,160.909927 
	C202.865448,162.932892 181.087204,168.953018 161.594757,181.431808 
	C159.104446,180.112198 156.654465,178.708313 154.114441,177.492508 
	C150.199203,175.618408 147.615463,173.425446 147.592453,168.274185 
	C147.568237,162.851166 145.178314,161.672653 139.610016,162.197861 
	C135.329544,162.601608 131.033325,162.948120 126.738831,163.024734 
	C125.502846,163.046799 123.547623,162.366531 123.127998,161.453857 
	C121.581108,158.089340 119.390030,158.604813 117.042656,160.024826 
	C110.135666,164.203217 102.628845,166.519211 94.690720,167.670746 
	C92.421875,167.999863 90.198761,168.644150 87.057732,169.037354 
z"/>
<path fill="#292929" opacity="1.000000" stroke="none" 
	d="
M362.007141,485.984131 
	C345.308105,484.641907 328.609039,483.299683 311.533051,481.457520 
	C311.183746,476.196106 311.343658,471.430878 311.209290,466.673950 
	C310.985413,458.745636 310.196136,450.816071 310.333984,442.899048 
	C310.512604,432.640137 311.366943,422.393005 311.930359,412.140808 
	C314.018341,411.643158 316.084991,411.013702 318.198242,410.672791 
	C324.388031,409.674347 329.489838,407.260468 333.813751,402.285187 
	C336.319305,399.402222 340.747223,398.189941 344.681519,396.657257 
	C345.053040,406.181213 345.053040,415.273712 345.053040,424.366241 
	C345.550690,424.370789 346.048370,424.375336 346.546021,424.379883 
	C347.029083,418.565918 347.651031,412.759033 347.949280,406.935608 
	C348.169952,402.627716 347.969177,398.298248 347.956116,393.978394 
	C354.569550,378.303772 364.187225,364.496063 374.565613,351.161316 
	C375.147675,350.413422 375.743408,349.676178 376.557495,348.651031 
	C377.240387,349.548828 377.721436,350.181213 378.551697,351.351501 
	C387.405701,363.975586 395.717896,376.230835 408.117188,385.319183 
	C410.180756,387.054901 412.104767,388.493195 414.204773,390.217102 
	C417.834442,393.063812 421.288116,395.624908 424.741760,398.185974 
	C427.189240,400.568573 431.815857,403.125854 431.641663,405.298248 
	C431.249573,410.188354 429.237823,415.380920 426.520111,419.563385 
	C420.639282,428.614014 413.270325,436.725739 407.693787,445.938080 
	C402.306580,454.837555 398.405426,464.636597 393.451019,473.867188 
	C391.682465,473.423615 390.162079,472.630707 388.973602,472.976959 
	C384.680450,474.227661 380.304993,475.471375 376.324493,477.449829 
	C371.363647,479.915497 366.763214,483.106384 362.007141,485.984131 
z"/>
<path fill="#292929" opacity="1.000000" stroke="none" 
	d="
M371.961029,238.082031 
	C355.077179,239.115387 338.475433,236.705292 321.504211,233.460785 
	C321.320587,227.322250 322.416779,221.567917 321.580444,216.109711 
	C318.914917,198.713806 320.913239,181.435455 321.815857,164.112671 
	C324.080811,163.606415 326.332489,163.028320 328.613281,162.607971 
	C334.426300,161.536621 339.290222,159.346664 343.398621,154.564972 
	C346.000580,151.536606 350.599457,150.224014 354.669525,148.557678 
	C355.036316,159.680923 355.036316,170.388412 355.036316,181.095901 
	C355.496216,181.126190 355.956146,181.156464 356.416046,181.186752 
	C356.601013,179.840637 356.884277,178.499634 356.954620,177.147552 
	C357.340820,169.725266 357.725525,162.302155 358.001923,154.875275 
	C358.112396,151.905853 357.944641,148.926071 357.903534,145.951004 
	C364.178986,130.528656 373.696533,117.096931 383.785980,104.036110 
	C384.716003,102.832161 385.659973,99.072342 388.468323,103.484314 
	C397.280212,116.115692 405.546326,128.392349 418.030182,137.380905 
	C420.098419,139.146912 422.025635,140.613083 424.117310,142.369781 
	C427.711731,145.225174 431.141693,147.790054 434.571686,150.354935 
	C434.670380,150.488602 434.747467,150.647705 434.870819,150.752319 
	C443.454803,158.034851 443.696747,158.426819 438.142059,168.599579 
	C435.697693,173.076141 432.470825,177.160568 429.332031,181.216232 
	C420.158325,193.069702 411.528656,205.201889 406.893005,219.708771 
	C406.195770,221.890778 404.820740,223.856186 403.364624,225.715485 
	C401.881439,225.217682 400.613129,224.410370 399.732941,224.717010 
	C393.180481,226.999863 386.582916,229.230347 380.257996,232.055954 
	C377.204407,233.420120 374.709106,236.034012 371.961029,238.082031 
M355.419128,184.478683 
	C355.419128,184.478683 355.529480,184.410324 355.419128,184.478683 
z"/>
<path fill="#1E75BB" opacity="1.000000" stroke="none" 
	d="
M321.370026,164.040848 
	C320.913239,181.435455 318.914917,198.713806 321.580444,216.109711 
	C322.416779,221.567917 321.320587,227.322250 321.109497,233.371002 
	C310.161743,234.399170 299.172760,234.593430 288.274872,235.691788 
	C272.543579,237.277328 256.923645,240.147247 241.170654,241.281235 
	C228.596283,242.186386 215.894226,241.317703 203.098236,240.869965 
	C223.447144,231.165451 227.055634,212.196609 211.249481,195.927811 
	C200.257690,184.614258 186.515793,181.023880 171.150833,182.496918 
	C168.082901,182.791046 165.005646,182.987640 161.939240,182.908173 
	C161.975937,182.375244 162.006088,182.163330 162.036224,181.951416 
	C181.087204,168.953018 202.865448,162.932892 225.190140,160.909927 
	C243.120560,159.285141 261.411041,161.549530 279.537659,162.201843 
	C293.336517,162.698410 307.128906,163.373428 321.370026,164.040848 
z"/>
<path fill="#1F75BB" opacity="1.000000" stroke="none" 
	d="
M311.501892,412.063934 
	C311.366943,422.393005 310.512604,432.640137 310.333984,442.899048 
	C310.196136,450.816071 310.985413,458.745636 311.209290,466.673950 
	C311.343658,471.430878 311.183746,476.196106 311.137451,481.359253 
	C279.893341,487.989380 248.546173,486.395294 217.128265,483.541901 
	C204.524887,482.397278 191.850037,482.135742 180.206024,475.962036 
	C184.446167,474.603790 188.758240,474.032593 192.834152,472.725098 
	C201.792038,469.851715 211.069168,467.304535 216.431396,457.967590 
	C217.177643,456.542389 217.649246,455.310059 218.363068,453.770569 
	C220.679596,446.242615 219.872406,439.130249 216.602844,432.589783 
	C208.077652,415.535950 196.039764,402.537476 175.778503,399.344421 
	C174.718704,399.277710 173.868820,399.384064 172.646301,399.566650 
	C171.516388,399.609741 170.759125,399.576569 169.832367,399.380768 
	C169.105453,399.337982 168.548050,399.457825 167.545288,399.649170 
	C164.386414,399.847504 161.672897,399.974335 159.031448,400.022400 
	C159.103531,399.943634 159.076019,399.731903 158.902954,399.487885 
	C158.486908,398.512482 158.243942,397.781128 158.468628,397.017822 
	C170.591629,397.268402 182.246964,397.550873 194.246826,398.014954 
	C201.656784,399.951904 208.722198,401.707306 215.787628,403.462708 
	C215.940399,402.890289 216.093170,402.317902 216.245941,401.745514 
	C208.726364,399.537262 201.206787,397.328979 193.476028,394.836731 
	C192.526093,391.975403 191.787354,389.398041 191.048599,386.820709 
	C203.822968,389.219910 216.254410,392.595764 228.028519,398.338348 
	C240.555374,404.448120 253.791397,407.693817 267.859558,408.308258 
	C282.290192,408.938477 296.670868,410.713226 311.501892,412.063934 
z"/>
<path fill="#FDCAA3" opacity="1.000000" stroke="none" 
	d="
M407.977570,385.021790 
	C395.717896,376.230835 387.405701,363.975586 378.816284,351.557312 
	C380.427185,348.589996 381.974762,345.844299 383.843597,343.338226 
	C392.551605,331.660706 401.058685,319.811737 410.290192,308.559418 
	C413.058411,305.185242 417.672943,302.848694 421.899933,301.244080 
	C431.825104,297.476440 439.975983,300.657196 446.229797,309.308868 
	C459.591461,327.793732 468.401031,348.547729 477.080933,369.440338 
	C485.303650,389.232544 494.137665,408.770752 502.893280,429.103516 
	C504.489807,433.387573 505.895935,436.988770 507.201660,440.962891 
	C505.994934,442.266998 504.987213,443.360382 503.766113,444.102844 
	C496.369202,448.600342 488.160431,449.347931 479.508911,448.913879 
	C478.751038,447.736908 478.244812,446.770660 477.743164,445.454193 
	C476.156158,441.415039 474.564575,437.726105 472.973022,434.037170 
	C469.474396,422.971313 462.165649,414.203949 454.846985,405.696014 
	C445.792969,395.170715 437.730499,384.104950 431.377197,371.778748 
	C431.167084,371.371124 430.758972,371.065552 430.224365,370.467743 
	C428.429047,379.625305 426.688812,388.501923 424.845154,397.782288 
	C421.288116,395.624908 417.834442,393.063812 414.245178,389.867126 
	C420.070831,378.929535 424.658966,362.763611 423.110565,356.547852 
	C422.303650,358.609680 421.829803,360.367340 420.974335,361.913940 
	C416.697052,369.646973 412.319733,377.324646 407.977570,385.021790 
z"/>
<path fill="#FDCAA3" opacity="1.000000" stroke="none" 
	d="
M434.701416,149.943512 
	C431.141693,147.790054 427.711731,145.225174 424.167725,142.006958 
	C430.015442,131.053894 432.393616,119.757141 433.964539,109.225517 
	C428.832275,118.118706 423.360718,127.599884 417.889160,137.081055 
	C405.546326,128.392349 397.280212,116.115692 388.708862,103.702614 
	C394.371948,94.666069 399.857483,85.762177 405.954071,77.298439 
	C412.052429,68.832245 417.949768,59.909954 427.617249,54.963852 
	C436.484070,50.427406 448.485474,49.866787 455.911682,60.771969 
	C468.539429,79.315407 477.957275,99.408478 486.293823,120.151779 
	C493.294800,137.571762 501.061920,154.684036 508.508453,171.924515 
	C509.759338,174.820557 511.104736,177.675781 512.660522,181.159851 
	C514.602905,185.768280 516.291321,189.766693 517.644165,193.884430 
	C508.931549,200.106339 499.386841,201.667313 489.133881,200.883850 
	C488.273346,199.057281 487.599396,197.546173 486.907013,195.667679 
	C485.543243,192.235672 484.197937,189.171066 482.852600,186.106476 
	C477.537384,177.555878 472.906555,168.470825 466.744873,160.581314 
	C457.740112,149.051346 448.114471,138.047638 441.790619,124.678719 
	C441.413086,123.880493 440.550568,123.311661 439.944672,122.668877 
	C438.209106,131.786392 436.520111,140.659241 434.701416,149.943512 
z"/>
<path fill="#FDCAA2" opacity="1.000000" stroke="none" 
	d="
M216.156738,458.160522 
	C211.069168,467.304535 201.792038,469.851715 192.834152,472.725098 
	C188.758240,474.032593 184.446167,474.603790 179.895233,475.746918 
	C169.973801,475.003021 161.804306,471.156219 154.840942,464.440582 
	C150.444626,460.200653 145.176575,456.796326 141.149612,452.262207 
	C137.608154,448.274719 134.225739,443.573120 132.591263,438.590454 
	C129.670929,429.687988 124.851349,423.058594 116.348343,419.054779 
	C114.134567,418.012390 112.191422,416.395203 110.024872,414.334106 
	C107.173248,408.048370 104.420731,402.470581 101.668221,396.892792 
	C101.379356,397.000427 101.090500,397.108093 100.801636,397.215759 
	C101.206085,401.124969 101.610535,405.034180 102.014984,408.943390 
	C96.904030,405.830109 94.434845,401.549988 95.032661,395.321838 
	C96.317780,381.933472 98.691788,369.094330 110.218185,359.449219 
	C123.462852,352.736084 131.269318,354.777222 139.181519,366.575562 
	C139.339935,366.811768 139.725067,366.895874 139.998245,367.470734 
	C140.649673,371.573730 141.307297,375.256958 141.982803,379.251312 
	C142.329742,380.052826 142.658783,380.543243 142.992249,381.013977 
	C142.996658,380.994354 142.961609,381.014252 143.009537,381.351257 
	C144.709076,383.786072 146.360687,385.883850 148.154785,388.293640 
	C150.510544,393.152069 152.873322,397.633270 154.896057,402.263000 
	C157.015533,407.114166 158.296753,412.400635 160.898636,416.951172 
	C163.174484,420.931427 179.546143,425.334351 186.659866,423.970825 
	C171.426483,421.444427 162.500244,413.663635 158.959366,400.101135 
	C161.672897,399.974335 164.386414,399.847504 167.875397,399.767059 
	C169.101181,399.723450 169.551514,399.633423 170.001862,399.543396 
	C170.759125,399.576569 171.516388,399.609741 173.003067,399.711182 
	C174.484467,399.692139 175.236435,399.604797 175.988419,399.517487 
	C196.039764,402.537476 208.077652,415.535950 216.602844,432.589783 
	C219.872406,439.130249 220.679596,446.242615 218.003250,453.715668 
	C210.328400,448.872864 203.094162,443.983856 196.237320,438.613037 
	C191.337051,434.774780 184.583771,431.865295 181.912506,432.331665 
	C187.595474,436.550018 194.287628,441.465759 200.921768,446.458649 
	C206.037857,450.309113 211.081100,454.256317 216.156738,458.160522 
M164.291260,436.333466 
	C165.695389,432.219147 165.373734,428.403809 161.856873,423.867340 
	C161.856873,429.836914 161.856873,434.622253 161.856873,440.168457 
	C162.793533,438.792175 163.390259,437.915405 164.291260,436.333466 
z"/>
<path fill="#FCCAA2" opacity="1.000000" stroke="none" 
	d="
M161.932678,183.229187 
	C165.005646,182.987640 168.082901,182.791046 171.150833,182.496918 
	C186.515793,181.023880 200.257690,184.614258 211.249481,195.927811 
	C227.055634,212.196609 223.447144,231.165451 202.661255,240.770447 
	C192.115707,241.361710 181.856506,241.685272 171.597412,242.012207 
	C170.934601,242.033325 170.202652,241.906769 169.620682,242.141296 
	C160.055771,245.995819 150.633728,244.552032 140.972763,242.132126 
	C132.195923,239.933670 123.239906,239.934250 114.049988,243.648712 
	C106.427322,243.367493 99.480659,243.367493 91.284126,243.367493 
	C94.369698,245.019775 96.177460,245.987793 97.985214,246.955826 
	C93.264755,250.306488 88.701958,250.452362 84.011292,246.700073 
	C81.177055,244.432846 77.884178,242.744400 75.008141,240.523010 
	C65.187027,232.937454 64.339729,223.410599 72.530678,214.043213 
	C73.619751,212.797745 74.767761,211.603821 76.457993,210.134857 
	C89.896667,208.181091 102.765816,206.478500 116.087173,204.839371 
	C122.026428,204.273727 127.513458,203.644638 133.368866,203.019989 
	C137.499847,200.024261 141.262436,197.024078 145.373138,193.980408 
	C149.215363,191.756378 152.740616,189.623703 156.191513,187.376831 
	C158.167648,186.090164 160.022964,184.617905 161.932678,183.229187 
M181.144638,202.375931 
	C180.704239,201.734924 180.302994,200.567642 179.817612,200.531555 
	C172.107254,199.958069 164.388336,199.477798 156.664032,199.147720 
	C155.890900,199.114685 155.070221,200.194489 154.271606,200.757812 
	C154.374390,201.402908 154.477188,202.047989 154.579987,202.693085 
	C163.213745,202.693085 171.847504,202.693085 181.144638,202.375931 
M194.545319,205.986847 
	C190.694687,206.271469 186.844055,206.556076 182.993423,206.840698 
	C183.023102,207.055191 183.052795,207.269684 183.082474,207.484177 
	C192.379440,208.185913 201.676407,208.887650 211.235474,209.609177 
	C206.492996,205.183472 200.906158,206.021500 194.545319,205.986847 
M143.996719,211.523117 
	C147.065353,212.640961 150.133972,213.758789 153.202606,214.876633 
	C153.448517,214.177444 153.694427,213.478271 153.940323,212.779099 
	C149.076401,210.941971 144.212479,209.104828 139.348557,207.267700 
	C139.089966,207.920364 138.831360,208.573029 138.572769,209.225693 
	C140.151337,209.888275 141.729889,210.550873 143.996719,211.523117 
z"/>
<path fill="#1F75BB" opacity="1.000000" stroke="none" 
	d="
M477.738586,445.804413 
	C478.244812,446.770660 478.751038,447.736908 479.630310,449.236359 
	C484.050751,451.993652 487.912811,454.701813 492.185425,456.337891 
	C500.287994,459.440613 509.906158,452.634552 510.448486,443.728699 
	C512.037109,440.463379 511.333405,436.409546 515.199402,434.721924 
	C516.321472,435.422302 517.443604,436.122681 519.007812,437.218689 
	C519.777710,437.729279 520.105408,437.844269 520.433167,437.959259 
	C520.433167,437.959259 520.732117,437.864319 520.891052,438.326141 
	C523.795837,442.049652 525.923035,446.423187 529.405457,448.360931 
	C539.179443,453.799500 549.512146,458.233704 559.624512,463.064026 
	C563.023438,463.776031 566.408569,464.564056 569.824036,465.185211 
	C578.571411,466.775909 581.007812,472.267609 576.395813,479.674469 
	C571.819885,487.023407 565.985046,490.961334 556.708557,490.338013 
	C531.030090,488.612671 505.298065,487.697754 479.609741,486.099762 
	C470.613373,485.540131 470.389587,484.707886 471.841736,475.972412 
	C472.222626,473.681183 472.493500,471.371643 472.918640,468.275330 
	C473.686432,461.945129 474.183899,456.381989 475.109863,450.891144 
	C475.412109,449.098755 476.830597,447.494629 477.738586,445.804413 
z"/>
<path fill="#1F75BB" opacity="1.000000" stroke="none" 
	d="
M486.925446,196.035080 
	C487.599396,197.546173 488.273346,199.057281 489.242096,201.170242 
	C490.642090,202.505753 491.716644,203.291245 492.857117,203.965134 
	C506.490143,212.020676 509.851990,211.521225 520.198242,199.900116 
	C520.606079,199.623672 520.613586,199.383926 520.321411,198.758057 
	C520.351135,197.920609 520.414856,197.443619 520.625977,196.629456 
	C521.416992,192.782608 521.011841,188.791077 525.104248,186.865906 
	C525.981628,187.379532 526.859009,187.893127 528.071411,188.938446 
	C528.802368,189.635315 529.198303,189.800476 529.594177,189.965637 
	C529.594177,189.965637 529.735168,189.800186 529.884521,190.202637 
	C534.921387,195.184509 539.219360,200.751236 544.837769,204.107040 
	C552.836121,208.884323 561.804199,212.038208 570.357971,215.885620 
	C575.291382,217.131226 580.441772,217.852875 585.093506,219.778809 
	C589.237671,221.494598 590.051270,225.107101 587.640503,229.315643 
	C582.886230,237.615204 577.176941,243.119080 566.297241,242.362381 
	C542.083069,240.678314 517.789551,240.170959 493.550079,238.801010 
	C479.940338,238.031830 479.517212,237.156876 482.511047,224.757996 
	C482.824097,223.828949 482.879456,223.467957 482.934814,223.106979 
	C482.865906,222.441620 482.796997,221.776245 482.860474,220.360504 
	C483.664185,215.082214 484.282104,210.545532 485.024414,206.029297 
	C485.574280,202.684113 486.285919,199.365524 486.925446,196.035080 
z"/>
<path fill="#ECB48F" opacity="1.000000" stroke="none" 
	d="
M159.031448,400.022400 
	C162.500244,413.663635 171.426483,421.444427 186.659866,423.970825 
	C179.546143,425.334351 163.174484,420.931427 160.898636,416.951172 
	C158.296753,412.400635 157.015533,407.114166 154.896057,402.263000 
	C152.873322,397.633270 150.510544,393.152069 148.427155,388.065125 
	C149.612869,382.844055 147.089813,381.239380 142.961609,381.014252 
	C142.961609,381.014252 142.996658,380.994354 142.979797,380.703247 
	C142.630249,379.921478 142.297577,379.430847 141.964905,378.940186 
	C141.307297,375.256958 140.649673,371.573730 140.231171,367.173035 
	C146.113007,363.702087 147.492188,370.796783 150.973495,371.410706 
	C151.351151,362.876251 151.691513,354.473511 152.103714,346.074371 
	C152.495605,338.089203 155.401306,331.252869 161.544174,325.950531 
	C166.927185,329.613586 173.246399,331.958832 175.964325,338.989868 
	C176.775269,341.087677 180.951935,341.796539 183.457428,343.350006 
	C186.417084,345.185120 191.517746,346.063385 187.484451,351.558899 
	C187.059036,352.138519 187.989578,354.015717 188.666489,355.043671 
	C190.490768,357.814056 192.534225,360.439209 194.461395,363.142883 
	C198.310318,368.542572 198.156204,371.030579 193.648972,375.822266 
	C192.396149,377.154083 191.053497,378.401398 189.026733,379.853088 
	C176.883911,380.581482 165.161484,384.190186 154.141495,376.931519 
	C156.688843,379.850830 159.496490,383.229401 162.758347,383.747314 
	C171.831085,385.187897 181.092499,385.440186 190.279404,386.161774 
	C190.505859,386.235687 190.686371,386.370911 190.934753,386.694092 
	C191.787354,389.398041 192.526093,391.975403 193.507751,395.177124 
	C193.801208,396.478821 193.851761,397.156067 193.902313,397.833344 
	C182.246964,397.550873 170.591629,397.268402 158.266907,396.861084 
	C157.197662,397.255951 156.797775,397.775604 156.397903,398.295288 
	C157.290604,398.774170 158.183304,399.253052 159.076019,399.731903 
	C159.076019,399.731903 159.103531,399.943634 159.031448,400.022400 
M152.827744,374.243378 
	C152.884064,374.412231 152.940369,374.581085 152.996689,374.749939 
	C153.050873,374.580750 153.105042,374.411560 152.827744,374.243378 
z"/>
<path fill="#ECB48F" opacity="1.000000" stroke="none" 
	d="
M161.939240,182.908173 
	C160.022964,184.617905 158.167648,186.090164 156.191513,187.376831 
	C152.740616,189.623703 149.215363,191.756378 145.363617,193.566620 
	C145.316681,190.791214 145.627396,188.386108 146.068039,184.975220 
	C145.115677,186.275146 144.609451,186.703552 144.439529,187.238754 
	C142.783173,192.455841 140.372787,196.894043 134.696945,198.893097 
	C133.763290,199.221924 133.547852,201.589935 133.000488,203.015533 
	C127.513458,203.644638 122.026428,204.273727 116.280922,204.539337 
	C119.666389,202.269318 123.310341,200.362793 127.886032,197.968765 
	C120.114159,196.089371 113.856583,193.850113 107.454262,193.302216 
	C103.656960,192.977234 101.467346,191.395782 98.931618,189.248917 
	C92.651016,183.931488 89.823036,176.821228 87.954674,169.143936 
	C90.198761,168.644150 92.421875,167.999863 94.690720,167.670746 
	C102.628845,166.519211 110.135666,164.203217 117.042656,160.024826 
	C119.390030,158.604813 121.581108,158.089340 123.127998,161.453857 
	C123.547623,162.366531 125.502846,163.046799 126.738831,163.024734 
	C131.033325,162.948120 135.329544,162.601608 139.610016,162.197861 
	C145.178314,161.672653 147.568237,162.851166 147.592453,168.274185 
	C147.615463,173.425446 150.199203,175.618408 154.114441,177.492508 
	C156.654465,178.708313 159.104446,180.112198 161.815491,181.691620 
	C162.006088,182.163330 161.975937,182.375244 161.939240,182.908173 
z"/>
<path fill="#2B2B2A" opacity="1.000000" stroke="none" 
	d="
M161.670715,325.523315 
	C155.401306,331.252869 152.495605,338.089203 152.103714,346.074371 
	C151.691513,354.473511 151.351151,362.876251 150.973495,371.410706 
	C147.492188,370.796783 146.113007,363.702087 140.237350,366.753296 
	C139.725067,366.895874 139.339935,366.811768 139.181519,366.575562 
	C131.269318,354.777222 123.462852,352.736084 110.392235,359.173401 
	C104.581223,341.016846 108.796577,331.234650 123.890686,323.652863 
	C130.689209,320.238007 137.393265,316.632690 144.102798,313.043884 
	C148.548264,310.666107 153.292664,309.146881 157.732666,312.146393 
	C162.180649,315.151215 162.805481,320.028442 161.670715,325.523315 
z"/>
<path fill="#2D2B2A" opacity="1.000000" stroke="none" 
	d="
M87.506203,169.090637 
	C89.823036,176.821228 92.651016,183.931488 98.931618,189.248917 
	C101.467346,191.395782 103.656960,192.977234 107.454262,193.302216 
	C113.856583,193.850113 120.114159,196.089371 127.886032,197.968765 
	C123.310341,200.362793 119.666389,202.269318 115.828705,204.475876 
	C102.765816,206.478500 89.896667,208.181091 76.644432,209.830719 
	C75.017036,202.445145 73.768318,195.113297 72.533058,187.779160 
	C72.341064,186.639221 72.138527,185.493683 72.062660,184.342697 
	C71.256302,172.108597 74.447884,168.859680 87.506203,169.090637 
z"/>
<path fill="#18648D" opacity="1.000000" stroke="none" 
	d="
M570.158264,215.534088 
	C561.804199,212.038208 552.836121,208.884323 544.837769,204.107040 
	C539.219360,200.751236 534.921387,195.184509 529.980591,190.253433 
	C534.094666,191.894318 538.157593,194.156937 542.452942,195.818253 
	C549.493042,198.541077 556.561951,201.340118 563.844177,203.245605 
	C571.969055,205.371567 572.630493,205.921585 569.844360,213.798889 
	C569.703613,214.196854 569.912537,214.718506 570.158264,215.534088 
z"/>
<path fill="#18648D" opacity="1.000000" stroke="none" 
	d="
M486.907013,195.667679 
	C486.285919,199.365524 485.574280,202.684113 485.024414,206.029297 
	C484.282104,210.545532 483.664185,215.082214 482.927124,220.030060 
	C470.365753,217.739944 470.462891,217.773834 474.710785,205.599426 
	C476.397369,200.765808 477.396667,195.694534 479.022095,190.836243 
	C479.589264,189.140945 481.097656,187.760544 482.514404,186.171402 
	C484.197937,189.171066 485.543243,192.235672 486.907013,195.667679 
z"/>
<path fill="#18648D" opacity="1.000000" stroke="none" 
	d="
M559.687622,462.682556 
	C549.512146,458.233704 539.179443,453.799500 529.405457,448.360931 
	C525.923035,446.423187 523.795837,442.049652 520.993896,438.444580 
	C526.120789,440.700562 531.157959,443.667603 536.526917,445.798492 
	C542.184143,448.043732 548.080139,449.827362 554.012939,451.204559 
	C562.301208,453.128479 563.177368,454.456512 559.687622,462.682556 
z"/>
<path fill="#18648D" opacity="1.000000" stroke="none" 
	d="
M477.743164,445.454193 
	C476.830597,447.494629 475.412109,449.098755 475.109863,450.891144 
	C474.183899,456.381989 473.686432,461.945129 472.956909,467.887451 
	C461.695312,466.917084 460.700989,465.214935 464.309326,454.880798 
	C466.152954,449.600677 467.360474,444.100220 469.143616,438.796204 
	C469.711670,437.106476 471.207611,435.728699 472.625977,434.122681 
	C474.564575,437.726105 476.156158,441.415039 477.743164,445.454193 
z"/>
<path fill="#090909" opacity="1.000000" stroke="none" 
	d="
M372.306458,238.207947 
	C374.709106,236.034012 377.204407,233.420120 380.257996,232.055954 
	C386.582916,229.230347 393.180481,226.999863 399.732941,224.717010 
	C400.613129,224.410370 401.881439,225.217682 403.051361,225.875885 
	C397.488556,235.006897 388.258728,236.466187 379.086517,237.960449 
	C376.977356,238.304062 374.798645,238.220718 372.306458,238.207947 
z"/>
<path fill="#090909" opacity="1.000000" stroke="none" 
	d="
M362.349182,486.083374 
	C366.763214,483.106384 371.363647,479.915497 376.324493,477.449829 
	C380.304993,475.471375 384.680450,474.227661 388.973602,472.976959 
	C390.162079,472.630707 391.682465,473.423615 393.156342,474.068787 
	C387.282318,483.034119 377.968781,484.605438 368.635712,486.045349 
	C366.693390,486.345062 364.674683,486.149750 362.349182,486.083374 
z"/>
<path fill="#DE9F7C" opacity="1.000000" stroke="none" 
	d="
M190.283432,385.793823 
	C181.092499,385.440186 171.831085,385.187897 162.758347,383.747314 
	C159.496490,383.229401 156.688843,379.850830 154.141495,376.931519 
	C165.161484,384.190186 176.883911,380.581482 188.754684,380.033051 
	C189.245041,380.678070 189.282166,381.308777 189.288147,382.546204 
	C189.503250,383.431793 189.749481,383.710663 189.995697,383.989532 
	C190.092957,384.468323 190.190216,384.947083 190.283432,385.793823 
z"/>
<path fill="#090909" opacity="1.000000" stroke="none" 
	d="
M357.624359,146.063660 
	C357.944641,148.926071 358.112396,151.905853 358.001923,154.875275 
	C357.725525,162.302155 357.340820,169.725266 356.954620,177.147552 
	C356.884277,178.499634 356.601013,179.840637 356.416046,181.186752 
	C355.956146,181.156464 355.496216,181.126190 355.036316,181.095901 
	C355.036316,170.388412 355.036316,159.680923 355.033875,148.529205 
	C355.802704,147.448761 356.573944,146.812546 357.624359,146.063660 
z"/>
<path fill="#1E668B" opacity="1.000000" stroke="none" 
	d="
M524.952637,186.566849 
	C521.011841,188.791077 521.416992,192.782608 520.446411,196.340027 
	C519.406189,195.513565 518.692993,194.639328 517.979736,193.765106 
	C516.291321,189.766693 514.602905,185.768280 512.915161,181.390488 
	C515.852478,179.001434 518.088745,180.392685 520.270569,182.439545 
	C521.710571,183.790421 523.286194,184.996735 524.952637,186.566849 
z"/>
<path fill="#1E668B" opacity="1.000000" stroke="none" 
	d="
M515.032959,434.435974 
	C511.333405,436.409546 512.037109,440.463379 510.259003,443.461639 
	C508.992737,442.512115 508.147400,441.551056 507.302063,440.589996 
	C505.895935,436.988770 504.489807,433.387573 503.052856,429.420105 
	C505.897095,427.003052 508.167633,428.254578 510.366669,430.316528 
	C511.802429,431.662842 513.362305,432.876770 515.032959,434.435974 
z"/>
<path fill="#090909" opacity="1.000000" stroke="none" 
	d="
M347.676819,394.105682 
	C347.969177,398.298248 348.169952,402.627716 347.949280,406.935608 
	C347.651031,412.759033 347.029083,418.565918 346.546021,424.379883 
	C346.048370,424.375336 345.550690,424.370789 345.053040,424.366241 
	C345.053040,415.273712 345.053040,406.181213 345.042023,396.631317 
	C345.819824,395.526917 346.608673,394.879944 347.676819,394.105682 
z"/>
<path fill="#EFB790" opacity="1.000000" stroke="none" 
	d="
M102.168068,409.246399 
	C101.610535,405.034180 101.206085,401.124969 100.801636,397.215759 
	C101.090500,397.108093 101.379356,397.000427 101.668221,396.892792 
	C104.420731,402.470581 107.173248,408.048370 109.927368,414.024170 
	C107.393021,412.797943 104.857086,411.173676 102.168068,409.246399 
z"/>
<path fill="#EFB790" opacity="1.000000" stroke="none" 
	d="
M98.396927,246.923279 
	C96.177460,245.987793 94.369698,245.019775 91.284126,243.367493 
	C99.480659,243.367493 106.427322,243.367493 113.669571,243.654449 
	C108.912987,244.924530 103.860817,245.907639 98.396927,246.923279 
z"/>
<path fill="#18648D" opacity="1.000000" stroke="none" 
	d="
M482.801270,223.256866 
	C482.879456,223.467957 482.824097,223.828949 482.731079,224.362030 
	C482.684875,224.158325 482.676300,223.782547 482.801270,223.256866 
z"/>
<path fill="#ECB48F" opacity="1.000000" stroke="none" 
	d="
M189.961670,383.715027 
	C189.749481,383.710663 189.503250,383.431793 189.262238,382.861877 
	C189.487503,382.860718 189.707581,383.150604 189.961670,383.715027 
z"/>
<path fill="#18648D" opacity="1.000000" stroke="none" 
	d="
M520.248169,437.763794 
	C520.105408,437.844269 519.777710,437.729279 519.255615,437.441650 
	C519.395264,437.368774 519.729187,437.468567 520.248169,437.763794 
z"/>
<path fill="#18648D" opacity="1.000000" stroke="none" 
	d="
M529.433716,189.672455 
	C529.198303,189.800476 528.802368,189.635315 528.217773,189.207397 
	C528.443726,189.089539 528.858521,189.234406 529.433716,189.672455 
z"/>
<path fill="#EAB18D" opacity="1.000000" stroke="none" 
	d="
M408.117188,385.319183 
	C412.319733,377.324646 416.697052,369.646973 420.974335,361.913940 
	C421.829803,360.367340 422.303650,358.609680 423.110565,356.547852 
	C424.658966,362.763611 420.070831,378.929535 414.069153,389.581512 
	C412.104767,388.493195 410.180756,387.054901 408.117188,385.319183 
z"/>
<path fill="#EAB18D" opacity="1.000000" stroke="none" 
	d="
M418.030182,137.380890 
	C423.360718,127.599884 428.832275,118.118706 433.964539,109.225517 
	C432.393616,119.757141 430.015442,131.053894 424.003296,141.716446 
	C422.025635,140.613083 420.098419,139.146912 418.030182,137.380890 
z"/>
<path fill="#090909" opacity="1.000000" stroke="none" 
	d="
M355.474304,184.444504 
	C355.529480,184.410324 355.419128,184.478683 355.474304,184.444504 
z"/>
<path fill="#EFB790" opacity="1.000000" stroke="none" 
	d="
M216.431381,457.967621 
	C211.081100,454.256317 206.037857,450.309113 200.921768,446.458649 
	C194.287628,441.465759 187.595474,436.550018 181.912506,432.331665 
	C184.583771,431.865295 191.337051,434.774780 196.237320,438.613037 
	C203.094162,443.983856 210.328400,448.872864 217.761017,454.022858 
	C217.649246,455.310059 217.177643,456.542389 216.431381,457.967621 
z"/>
<path fill="#18648D" opacity="1.000000" stroke="none" 
	d="
M194.246841,398.014954 
	C193.851761,397.156067 193.801208,396.478821 193.718933,395.461121 
	C201.206787,397.328979 208.726364,399.537262 216.245941,401.745514 
	C216.093170,402.317902 215.940399,402.890289 215.787628,403.462708 
	C208.722198,401.707306 201.656784,399.951904 194.246841,398.014954 
z"/>
<path fill="#598AB2" opacity="1.000000" stroke="none" 
	d="
M158.902954,399.487885 
	C158.183304,399.253052 157.290604,398.774170 156.397903,398.295288 
	C156.797775,397.775604 157.197662,397.255951 157.799255,396.893005 
	C158.243942,397.781128 158.486908,398.512482 158.902954,399.487885 
z"/>
<path fill="#598AB2" opacity="1.000000" stroke="none" 
	d="
M175.778503,399.344421 
	C175.236435,399.604797 174.484467,399.692139 173.375702,399.634949 
	C173.868820,399.384064 174.718704,399.277710 175.778503,399.344421 
z"/>
<path fill="#598AB2" opacity="1.000000" stroke="none" 
	d="
M169.832367,399.380798 
	C169.551514,399.633423 169.101181,399.723450 168.320740,399.695557 
	C168.548050,399.457825 169.105453,399.337982 169.832367,399.380798 
z"/>
<path fill="#F6F9F7" opacity="1.000000" stroke="none" 
	d="
M507.201660,440.962891 
	C508.147400,441.551056 508.992737,442.512115 510.027588,443.740265 
	C509.906158,452.634552 500.287994,459.440613 492.185425,456.337891 
	C487.912811,454.701813 484.050751,451.993652 479.881897,449.447083 
	C488.160431,449.347931 496.369202,448.600342 503.766113,444.102844 
	C504.987213,443.360382 505.994934,442.266998 507.201660,440.962891 
z"/>
<path fill="#F6F9F7" opacity="1.000000" stroke="none" 
	d="
M517.644165,193.884415 
	C518.692993,194.639328 519.406189,195.513565 520.298950,196.677216 
	C520.414856,197.443619 520.351135,197.920609 520.194580,198.950256 
	C520.101746,199.502914 520.063477,199.962448 520.063477,199.962448 
	C509.851990,211.521225 506.490143,212.020676 492.857117,203.965134 
	C491.716644,203.291245 490.642090,202.505753 489.428680,201.485718 
	C499.386841,201.667313 508.931549,200.106339 517.644165,193.884415 
z"/>
<path fill="#EFB790" opacity="1.000000" stroke="none" 
	d="
M164.139130,436.686035 
	C163.390259,437.915405 162.793533,438.792175 161.856873,440.168457 
	C161.856873,434.622253 161.856873,429.836914 161.856873,423.867340 
	C165.373734,428.403809 165.695389,432.219147 164.139130,436.686035 
z"/>
<path fill="#DE9F7C" opacity="1.000000" stroke="none" 
	d="
M143.009537,381.351257 
	C147.089813,381.239380 149.612869,382.844055 148.284683,387.753174 
	C146.360687,385.883850 144.709076,383.786072 143.009537,381.351257 
z"/>
<path fill="#DE9F7C" opacity="1.000000" stroke="none" 
	d="
M141.982803,379.251312 
	C142.297577,379.430847 142.630249,379.921478 142.975372,380.722900 
	C142.658783,380.543243 142.329742,380.052826 141.982803,379.251312 
z"/>
<path fill="#EFB790" opacity="1.000000" stroke="none" 
	d="
M180.812958,202.534515 
	C171.847504,202.693085 163.213745,202.693085 154.579987,202.693085 
	C154.477188,202.047989 154.374390,201.402908 154.271606,200.757812 
	C155.070221,200.194489 155.890900,199.114685 156.664032,199.147720 
	C164.388336,199.477798 172.107254,199.958069 179.817612,200.531555 
	C180.302994,200.567642 180.704239,201.734924 180.812958,202.534515 
z"/>
<path fill="#EFB790" opacity="1.000000" stroke="none" 
	d="
M195.027817,205.986633 
	C200.906158,206.021500 206.492996,205.183472 211.235474,209.609177 
	C201.676407,208.887650 192.379440,208.185913 183.082474,207.484177 
	C183.052795,207.269684 183.023102,207.055191 182.993423,206.840698 
	C186.844055,206.556076 190.694687,206.271469 195.027817,205.986633 
z"/>
<path fill="#DE9F7C" opacity="1.000000" stroke="none" 
	d="
M133.368866,203.019989 
	C133.547852,201.589935 133.763290,199.221924 134.696945,198.893097 
	C140.372787,196.894043 142.783173,192.455841 144.439529,187.238754 
	C144.609451,186.703552 145.115677,186.275146 146.068039,184.975220 
	C145.627396,188.386108 145.316681,190.791214 145.015488,193.610107 
	C141.262436,197.024078 137.499847,200.024261 133.368866,203.019989 
z"/>
<path fill="#EFB790" opacity="1.000000" stroke="none" 
	d="
M143.652588,211.368286 
	C141.729889,210.550873 140.151337,209.888275 138.572769,209.225693 
	C138.831360,208.573029 139.089966,207.920364 139.348557,207.267700 
	C144.212479,209.104828 149.076401,210.941971 153.940323,212.779099 
	C153.694427,213.478271 153.448517,214.177444 153.202606,214.876633 
	C150.133972,213.758789 147.065353,212.640961 143.652588,211.368286 
z"/>
<path fill="#1E668B" opacity="1.000000" stroke="none" 
	d="
M520.198242,199.900116 
	C520.063477,199.962448 520.101746,199.502914 520.228638,199.310730 
	C520.613586,199.383926 520.606079,199.623672 520.198242,199.900116 
z"/>
<path fill="#DE9F7C" opacity="1.000000" stroke="none" 
	d="
M152.993469,374.242859 
	C153.105042,374.411560 153.050873,374.580750 152.996689,374.749939 
	C152.940369,374.581085 152.884064,374.412231 152.993469,374.242859 
z"/>
</svg>